G04 #@! TF.GenerationSoftware,KiCad,Pcbnew,5.1.9-73d0e3b20d~88~ubuntu20.04.1*
G04 #@! TF.CreationDate,2021-03-18T15:40:59+01:00*
G04 #@! TF.ProjectId,uven-mainboard,7576656e-2d6d-4616-996e-626f6172642e,rev?*
G04 #@! TF.SameCoordinates,Original*
G04 #@! TF.FileFunction,Soldermask,Top*
G04 #@! TF.FilePolarity,Negative*
%FSLAX46Y46*%
G04 Gerber Fmt 4.6, Leading zero omitted, Abs format (unit mm)*
G04 Created by KiCad (PCBNEW 5.1.9-73d0e3b20d~88~ubuntu20.04.1) date 2021-03-18 15:40:59*
%MOMM*%
%LPD*%
G01*
G04 APERTURE LIST*
%ADD10C,0.100000*%
%ADD11O,1.727200X1.727200*%
%ADD12C,3.200000*%
%ADD13R,1.500000X1.600000*%
%ADD14R,0.500000X1.600000*%
%ADD15R,2.400000X3.480000*%
%ADD16O,1.700000X1.700000*%
%ADD17R,1.700000X1.700000*%
%ADD18R,0.900000X0.800000*%
%ADD19R,1.000000X1.000000*%
%ADD20O,1.000000X1.000000*%
%ADD21C,5.600000*%
%ADD22C,1.524000*%
G04 APERTURE END LIST*
D10*
G36*
X201500000Y-55500000D02*
G01*
X194000000Y-55500000D01*
X194000000Y-46500000D01*
X201500000Y-46500000D01*
X201500000Y-55500000D01*
G37*
X201500000Y-55500000D02*
X194000000Y-55500000D01*
X194000000Y-46500000D01*
X201500000Y-46500000D01*
X201500000Y-55500000D01*
G36*
X180500000Y-55500000D02*
G01*
X173000000Y-55500000D01*
X173000000Y-46500000D01*
X180500000Y-46500000D01*
X180500000Y-55500000D01*
G37*
X180500000Y-55500000D02*
X173000000Y-55500000D01*
X173000000Y-46500000D01*
X180500000Y-46500000D01*
X180500000Y-55500000D01*
G36*
X159500000Y-55500000D02*
G01*
X152000000Y-55500000D01*
X152000000Y-46500000D01*
X159500000Y-46500000D01*
X159500000Y-55500000D01*
G37*
X159500000Y-55500000D02*
X152000000Y-55500000D01*
X152000000Y-46500000D01*
X159500000Y-46500000D01*
X159500000Y-55500000D01*
G36*
X138500000Y-55500000D02*
G01*
X131000000Y-55500000D01*
X131000000Y-46500000D01*
X138500000Y-46500000D01*
X138500000Y-55500000D01*
G37*
X138500000Y-55500000D02*
X131000000Y-55500000D01*
X131000000Y-46500000D01*
X138500000Y-46500000D01*
X138500000Y-55500000D01*
G36*
X117500000Y-55500000D02*
G01*
X110000000Y-55500000D01*
X110000000Y-46500000D01*
X117500000Y-46500000D01*
X117500000Y-55500000D01*
G37*
X117500000Y-55500000D02*
X110000000Y-55500000D01*
X110000000Y-46500000D01*
X117500000Y-46500000D01*
X117500000Y-55500000D01*
D11*
X173627000Y-97600000D03*
X176167000Y-97600000D03*
X176167000Y-95060000D03*
X173627000Y-95060000D03*
X176167000Y-92520000D03*
X160800000Y-120460000D03*
X155720000Y-120460000D03*
X153180000Y-120460000D03*
X150640000Y-120460000D03*
X148100000Y-120460000D03*
X145560000Y-120460000D03*
X143020000Y-120460000D03*
X140480000Y-120460000D03*
X196360000Y-72200000D03*
X193820000Y-72200000D03*
X191280000Y-72200000D03*
X188740000Y-72200000D03*
X186200000Y-72200000D03*
X183660000Y-72200000D03*
X181120000Y-72200000D03*
X178580000Y-72200000D03*
X173500000Y-72200000D03*
X170960000Y-72200000D03*
X168420000Y-72200000D03*
X165880000Y-72200000D03*
X163340000Y-72200000D03*
X160800000Y-72200000D03*
X158260000Y-72200000D03*
X155720000Y-72200000D03*
X136416000Y-72200000D03*
X151656000Y-72200000D03*
X149116000Y-72200000D03*
X146576000Y-72200000D03*
D12*
X176040000Y-115380000D03*
X176040000Y-87440000D03*
X200170000Y-72200000D03*
X125240000Y-72200000D03*
X206520000Y-120460000D03*
X123970000Y-120460000D03*
D11*
X128796000Y-72200000D03*
X131336000Y-72200000D03*
X133876000Y-72200000D03*
X138956000Y-72200000D03*
X141496000Y-72200000D03*
X144036000Y-72200000D03*
X137940000Y-120460000D03*
X163340000Y-120460000D03*
X165880000Y-120460000D03*
X168420000Y-120460000D03*
X170960000Y-120460000D03*
X173500000Y-120460000D03*
X176040000Y-120460000D03*
X178580000Y-120460000D03*
X183660000Y-120460000D03*
X186200000Y-120460000D03*
X188740000Y-120460000D03*
X191280000Y-120460000D03*
X193820000Y-120460000D03*
X196360000Y-120460000D03*
X198900000Y-120460000D03*
X201440000Y-120460000D03*
X203980000Y-72200000D03*
X206520000Y-72200000D03*
X203980000Y-74740000D03*
X206520000Y-74740000D03*
X203980000Y-77280000D03*
X206520000Y-77280000D03*
X203980000Y-79820000D03*
X206520000Y-79820000D03*
X203980000Y-82360000D03*
X206520000Y-82360000D03*
X203980000Y-84900000D03*
X206520000Y-84900000D03*
X203980000Y-87440000D03*
X206520000Y-87440000D03*
X203980000Y-89980000D03*
X206520000Y-89980000D03*
X203980000Y-92520000D03*
X206520000Y-92520000D03*
X203980000Y-95060000D03*
X206520000Y-95060000D03*
X203980000Y-97600000D03*
X206520000Y-97600000D03*
X203980000Y-100140000D03*
X206520000Y-100140000D03*
X203980000Y-102680000D03*
X206520000Y-102680000D03*
X203980000Y-105220000D03*
X206520000Y-105220000D03*
X203980000Y-107760000D03*
X206520000Y-107760000D03*
X203980000Y-110300000D03*
X206520000Y-110300000D03*
X203980000Y-112840000D03*
X206520000Y-112840000D03*
X203980000Y-115380000D03*
X206520000Y-115380000D03*
X173627000Y-92520000D03*
D13*
X199500000Y-64350000D03*
D14*
X200800000Y-64350000D03*
X201600000Y-64350000D03*
X202400000Y-64350000D03*
X203200000Y-64350000D03*
D13*
X204500000Y-64350000D03*
D15*
X200225000Y-58680000D03*
X203775000Y-58680000D03*
X182775000Y-58680000D03*
X179225000Y-58680000D03*
D13*
X183500000Y-64350000D03*
D14*
X182200000Y-64350000D03*
X181400000Y-64350000D03*
X180600000Y-64350000D03*
X179800000Y-64350000D03*
D13*
X178500000Y-64350000D03*
X157500000Y-64350000D03*
D14*
X158800000Y-64350000D03*
X159600000Y-64350000D03*
X160400000Y-64350000D03*
X161200000Y-64350000D03*
D13*
X162500000Y-64350000D03*
D15*
X158225000Y-58680000D03*
X161775000Y-58680000D03*
X140775000Y-58680000D03*
X137225000Y-58680000D03*
D13*
X141500000Y-64350000D03*
D14*
X140200000Y-64350000D03*
X139400000Y-64350000D03*
X138600000Y-64350000D03*
X137800000Y-64350000D03*
D13*
X136500000Y-64350000D03*
X115500000Y-64350000D03*
D14*
X116800000Y-64350000D03*
X117600000Y-64350000D03*
X118400000Y-64350000D03*
X119200000Y-64350000D03*
D13*
X120500000Y-64350000D03*
D15*
X116225000Y-58680000D03*
X119775000Y-58680000D03*
G36*
G01*
X197237500Y-66400000D02*
X196762500Y-66400000D01*
G75*
G02*
X196525000Y-66162500I0J237500D01*
G01*
X196525000Y-65587500D01*
G75*
G02*
X196762500Y-65350000I237500J0D01*
G01*
X197237500Y-65350000D01*
G75*
G02*
X197475000Y-65587500I0J-237500D01*
G01*
X197475000Y-66162500D01*
G75*
G02*
X197237500Y-66400000I-237500J0D01*
G01*
G37*
G36*
G01*
X197237500Y-64650000D02*
X196762500Y-64650000D01*
G75*
G02*
X196525000Y-64412500I0J237500D01*
G01*
X196525000Y-63837500D01*
G75*
G02*
X196762500Y-63600000I237500J0D01*
G01*
X197237500Y-63600000D01*
G75*
G02*
X197475000Y-63837500I0J-237500D01*
G01*
X197475000Y-64412500D01*
G75*
G02*
X197237500Y-64650000I-237500J0D01*
G01*
G37*
G36*
G01*
X176237500Y-66400000D02*
X175762500Y-66400000D01*
G75*
G02*
X175525000Y-66162500I0J237500D01*
G01*
X175525000Y-65587500D01*
G75*
G02*
X175762500Y-65350000I237500J0D01*
G01*
X176237500Y-65350000D01*
G75*
G02*
X176475000Y-65587500I0J-237500D01*
G01*
X176475000Y-66162500D01*
G75*
G02*
X176237500Y-66400000I-237500J0D01*
G01*
G37*
G36*
G01*
X176237500Y-64650000D02*
X175762500Y-64650000D01*
G75*
G02*
X175525000Y-64412500I0J237500D01*
G01*
X175525000Y-63837500D01*
G75*
G02*
X175762500Y-63600000I237500J0D01*
G01*
X176237500Y-63600000D01*
G75*
G02*
X176475000Y-63837500I0J-237500D01*
G01*
X176475000Y-64412500D01*
G75*
G02*
X176237500Y-64650000I-237500J0D01*
G01*
G37*
G36*
G01*
X155237500Y-64650000D02*
X154762500Y-64650000D01*
G75*
G02*
X154525000Y-64412500I0J237500D01*
G01*
X154525000Y-63837500D01*
G75*
G02*
X154762500Y-63600000I237500J0D01*
G01*
X155237500Y-63600000D01*
G75*
G02*
X155475000Y-63837500I0J-237500D01*
G01*
X155475000Y-64412500D01*
G75*
G02*
X155237500Y-64650000I-237500J0D01*
G01*
G37*
G36*
G01*
X155237500Y-66400000D02*
X154762500Y-66400000D01*
G75*
G02*
X154525000Y-66162500I0J237500D01*
G01*
X154525000Y-65587500D01*
G75*
G02*
X154762500Y-65350000I237500J0D01*
G01*
X155237500Y-65350000D01*
G75*
G02*
X155475000Y-65587500I0J-237500D01*
G01*
X155475000Y-66162500D01*
G75*
G02*
X155237500Y-66400000I-237500J0D01*
G01*
G37*
G36*
G01*
X134237500Y-66400000D02*
X133762500Y-66400000D01*
G75*
G02*
X133525000Y-66162500I0J237500D01*
G01*
X133525000Y-65587500D01*
G75*
G02*
X133762500Y-65350000I237500J0D01*
G01*
X134237500Y-65350000D01*
G75*
G02*
X134475000Y-65587500I0J-237500D01*
G01*
X134475000Y-66162500D01*
G75*
G02*
X134237500Y-66400000I-237500J0D01*
G01*
G37*
G36*
G01*
X134237500Y-64650000D02*
X133762500Y-64650000D01*
G75*
G02*
X133525000Y-64412500I0J237500D01*
G01*
X133525000Y-63837500D01*
G75*
G02*
X133762500Y-63600000I237500J0D01*
G01*
X134237500Y-63600000D01*
G75*
G02*
X134475000Y-63837500I0J-237500D01*
G01*
X134475000Y-64412500D01*
G75*
G02*
X134237500Y-64650000I-237500J0D01*
G01*
G37*
G36*
G01*
X113237500Y-64525000D02*
X112762500Y-64525000D01*
G75*
G02*
X112525000Y-64287500I0J237500D01*
G01*
X112525000Y-63712500D01*
G75*
G02*
X112762500Y-63475000I237500J0D01*
G01*
X113237500Y-63475000D01*
G75*
G02*
X113475000Y-63712500I0J-237500D01*
G01*
X113475000Y-64287500D01*
G75*
G02*
X113237500Y-64525000I-237500J0D01*
G01*
G37*
G36*
G01*
X113237500Y-66275000D02*
X112762500Y-66275000D01*
G75*
G02*
X112525000Y-66037500I0J237500D01*
G01*
X112525000Y-65462500D01*
G75*
G02*
X112762500Y-65225000I237500J0D01*
G01*
X113237500Y-65225000D01*
G75*
G02*
X113475000Y-65462500I0J-237500D01*
G01*
X113475000Y-66037500D01*
G75*
G02*
X113237500Y-66275000I-237500J0D01*
G01*
G37*
D16*
X149000000Y-102460000D03*
D17*
X149000000Y-105000000D03*
X154000000Y-105000000D03*
D16*
X154000000Y-102460000D03*
X159000000Y-102460000D03*
D17*
X159000000Y-105000000D03*
D16*
X164000000Y-102460000D03*
D17*
X164000000Y-105000000D03*
X169000000Y-105000000D03*
D16*
X169000000Y-102460000D03*
D17*
X161000000Y-77000000D03*
D16*
X161000000Y-79540000D03*
D18*
X166274999Y-79950000D03*
X166274999Y-78050000D03*
X164274999Y-79000000D03*
G36*
G01*
X148762500Y-107600000D02*
X149237500Y-107600000D01*
G75*
G02*
X149475000Y-107837500I0J-237500D01*
G01*
X149475000Y-108412500D01*
G75*
G02*
X149237500Y-108650000I-237500J0D01*
G01*
X148762500Y-108650000D01*
G75*
G02*
X148525000Y-108412500I0J237500D01*
G01*
X148525000Y-107837500D01*
G75*
G02*
X148762500Y-107600000I237500J0D01*
G01*
G37*
G36*
G01*
X148762500Y-109350000D02*
X149237500Y-109350000D01*
G75*
G02*
X149475000Y-109587500I0J-237500D01*
G01*
X149475000Y-110162500D01*
G75*
G02*
X149237500Y-110400000I-237500J0D01*
G01*
X148762500Y-110400000D01*
G75*
G02*
X148525000Y-110162500I0J237500D01*
G01*
X148525000Y-109587500D01*
G75*
G02*
X148762500Y-109350000I237500J0D01*
G01*
G37*
G36*
G01*
X153762500Y-109350000D02*
X154237500Y-109350000D01*
G75*
G02*
X154475000Y-109587500I0J-237500D01*
G01*
X154475000Y-110162500D01*
G75*
G02*
X154237500Y-110400000I-237500J0D01*
G01*
X153762500Y-110400000D01*
G75*
G02*
X153525000Y-110162500I0J237500D01*
G01*
X153525000Y-109587500D01*
G75*
G02*
X153762500Y-109350000I237500J0D01*
G01*
G37*
G36*
G01*
X153762500Y-107600000D02*
X154237500Y-107600000D01*
G75*
G02*
X154475000Y-107837500I0J-237500D01*
G01*
X154475000Y-108412500D01*
G75*
G02*
X154237500Y-108650000I-237500J0D01*
G01*
X153762500Y-108650000D01*
G75*
G02*
X153525000Y-108412500I0J237500D01*
G01*
X153525000Y-107837500D01*
G75*
G02*
X153762500Y-107600000I237500J0D01*
G01*
G37*
G36*
G01*
X158762500Y-107600000D02*
X159237500Y-107600000D01*
G75*
G02*
X159475000Y-107837500I0J-237500D01*
G01*
X159475000Y-108412500D01*
G75*
G02*
X159237500Y-108650000I-237500J0D01*
G01*
X158762500Y-108650000D01*
G75*
G02*
X158525000Y-108412500I0J237500D01*
G01*
X158525000Y-107837500D01*
G75*
G02*
X158762500Y-107600000I237500J0D01*
G01*
G37*
G36*
G01*
X158762500Y-109350000D02*
X159237500Y-109350000D01*
G75*
G02*
X159475000Y-109587500I0J-237500D01*
G01*
X159475000Y-110162500D01*
G75*
G02*
X159237500Y-110400000I-237500J0D01*
G01*
X158762500Y-110400000D01*
G75*
G02*
X158525000Y-110162500I0J237500D01*
G01*
X158525000Y-109587500D01*
G75*
G02*
X158762500Y-109350000I237500J0D01*
G01*
G37*
G36*
G01*
X163762500Y-109350000D02*
X164237500Y-109350000D01*
G75*
G02*
X164475000Y-109587500I0J-237500D01*
G01*
X164475000Y-110162500D01*
G75*
G02*
X164237500Y-110400000I-237500J0D01*
G01*
X163762500Y-110400000D01*
G75*
G02*
X163525000Y-110162500I0J237500D01*
G01*
X163525000Y-109587500D01*
G75*
G02*
X163762500Y-109350000I237500J0D01*
G01*
G37*
G36*
G01*
X163762500Y-107600000D02*
X164237500Y-107600000D01*
G75*
G02*
X164475000Y-107837500I0J-237500D01*
G01*
X164475000Y-108412500D01*
G75*
G02*
X164237500Y-108650000I-237500J0D01*
G01*
X163762500Y-108650000D01*
G75*
G02*
X163525000Y-108412500I0J237500D01*
G01*
X163525000Y-107837500D01*
G75*
G02*
X163762500Y-107600000I237500J0D01*
G01*
G37*
G36*
G01*
X168762500Y-107600000D02*
X169237500Y-107600000D01*
G75*
G02*
X169475000Y-107837500I0J-237500D01*
G01*
X169475000Y-108412500D01*
G75*
G02*
X169237500Y-108650000I-237500J0D01*
G01*
X168762500Y-108650000D01*
G75*
G02*
X168525000Y-108412500I0J237500D01*
G01*
X168525000Y-107837500D01*
G75*
G02*
X168762500Y-107600000I237500J0D01*
G01*
G37*
G36*
G01*
X168762500Y-109350000D02*
X169237500Y-109350000D01*
G75*
G02*
X169475000Y-109587500I0J-237500D01*
G01*
X169475000Y-110162500D01*
G75*
G02*
X169237500Y-110400000I-237500J0D01*
G01*
X168762500Y-110400000D01*
G75*
G02*
X168525000Y-110162500I0J237500D01*
G01*
X168525000Y-109587500D01*
G75*
G02*
X168762500Y-109350000I237500J0D01*
G01*
G37*
G36*
G01*
X154237500Y-79650000D02*
X153762500Y-79650000D01*
G75*
G02*
X153525000Y-79412500I0J237500D01*
G01*
X153525000Y-78837500D01*
G75*
G02*
X153762500Y-78600000I237500J0D01*
G01*
X154237500Y-78600000D01*
G75*
G02*
X154475000Y-78837500I0J-237500D01*
G01*
X154475000Y-79412500D01*
G75*
G02*
X154237500Y-79650000I-237500J0D01*
G01*
G37*
G36*
G01*
X154237500Y-81400000D02*
X153762500Y-81400000D01*
G75*
G02*
X153525000Y-81162500I0J237500D01*
G01*
X153525000Y-80587500D01*
G75*
G02*
X153762500Y-80350000I237500J0D01*
G01*
X154237500Y-80350000D01*
G75*
G02*
X154475000Y-80587500I0J-237500D01*
G01*
X154475000Y-81162500D01*
G75*
G02*
X154237500Y-81400000I-237500J0D01*
G01*
G37*
D17*
X153000000Y-117000000D03*
D16*
X155540000Y-117000000D03*
G36*
G01*
X232837500Y-67400000D02*
X232362500Y-67400000D01*
G75*
G02*
X232125000Y-67162500I0J237500D01*
G01*
X232125000Y-66587500D01*
G75*
G02*
X232362500Y-66350000I237500J0D01*
G01*
X232837500Y-66350000D01*
G75*
G02*
X233075000Y-66587500I0J-237500D01*
G01*
X233075000Y-67162500D01*
G75*
G02*
X232837500Y-67400000I-237500J0D01*
G01*
G37*
G36*
G01*
X232837500Y-65650000D02*
X232362500Y-65650000D01*
G75*
G02*
X232125000Y-65412500I0J237500D01*
G01*
X232125000Y-64837500D01*
G75*
G02*
X232362500Y-64600000I237500J0D01*
G01*
X232837500Y-64600000D01*
G75*
G02*
X233075000Y-64837500I0J-237500D01*
G01*
X233075000Y-65412500D01*
G75*
G02*
X232837500Y-65650000I-237500J0D01*
G01*
G37*
G36*
G01*
X232837500Y-56650000D02*
X232362500Y-56650000D01*
G75*
G02*
X232125000Y-56412500I0J237500D01*
G01*
X232125000Y-55837500D01*
G75*
G02*
X232362500Y-55600000I237500J0D01*
G01*
X232837500Y-55600000D01*
G75*
G02*
X233075000Y-55837500I0J-237500D01*
G01*
X233075000Y-56412500D01*
G75*
G02*
X232837500Y-56650000I-237500J0D01*
G01*
G37*
G36*
G01*
X232837500Y-58400000D02*
X232362500Y-58400000D01*
G75*
G02*
X232125000Y-58162500I0J237500D01*
G01*
X232125000Y-57587500D01*
G75*
G02*
X232362500Y-57350000I237500J0D01*
G01*
X232837500Y-57350000D01*
G75*
G02*
X233075000Y-57587500I0J-237500D01*
G01*
X233075000Y-58162500D01*
G75*
G02*
X232837500Y-58400000I-237500J0D01*
G01*
G37*
G36*
G01*
X232837500Y-49400000D02*
X232362500Y-49400000D01*
G75*
G02*
X232125000Y-49162500I0J237500D01*
G01*
X232125000Y-48587500D01*
G75*
G02*
X232362500Y-48350000I237500J0D01*
G01*
X232837500Y-48350000D01*
G75*
G02*
X233075000Y-48587500I0J-237500D01*
G01*
X233075000Y-49162500D01*
G75*
G02*
X232837500Y-49400000I-237500J0D01*
G01*
G37*
G36*
G01*
X232837500Y-47650000D02*
X232362500Y-47650000D01*
G75*
G02*
X232125000Y-47412500I0J237500D01*
G01*
X232125000Y-46837500D01*
G75*
G02*
X232362500Y-46600000I237500J0D01*
G01*
X232837500Y-46600000D01*
G75*
G02*
X233075000Y-46837500I0J-237500D01*
G01*
X233075000Y-47412500D01*
G75*
G02*
X232837500Y-47650000I-237500J0D01*
G01*
G37*
G36*
G01*
X222837500Y-65650000D02*
X222362500Y-65650000D01*
G75*
G02*
X222125000Y-65412500I0J237500D01*
G01*
X222125000Y-64837500D01*
G75*
G02*
X222362500Y-64600000I237500J0D01*
G01*
X222837500Y-64600000D01*
G75*
G02*
X223075000Y-64837500I0J-237500D01*
G01*
X223075000Y-65412500D01*
G75*
G02*
X222837500Y-65650000I-237500J0D01*
G01*
G37*
G36*
G01*
X222837500Y-67400000D02*
X222362500Y-67400000D01*
G75*
G02*
X222125000Y-67162500I0J237500D01*
G01*
X222125000Y-66587500D01*
G75*
G02*
X222362500Y-66350000I237500J0D01*
G01*
X222837500Y-66350000D01*
G75*
G02*
X223075000Y-66587500I0J-237500D01*
G01*
X223075000Y-67162500D01*
G75*
G02*
X222837500Y-67400000I-237500J0D01*
G01*
G37*
G36*
G01*
X222837500Y-58400000D02*
X222362500Y-58400000D01*
G75*
G02*
X222125000Y-58162500I0J237500D01*
G01*
X222125000Y-57587500D01*
G75*
G02*
X222362500Y-57350000I237500J0D01*
G01*
X222837500Y-57350000D01*
G75*
G02*
X223075000Y-57587500I0J-237500D01*
G01*
X223075000Y-58162500D01*
G75*
G02*
X222837500Y-58400000I-237500J0D01*
G01*
G37*
G36*
G01*
X222837500Y-56650000D02*
X222362500Y-56650000D01*
G75*
G02*
X222125000Y-56412500I0J237500D01*
G01*
X222125000Y-55837500D01*
G75*
G02*
X222362500Y-55600000I237500J0D01*
G01*
X222837500Y-55600000D01*
G75*
G02*
X223075000Y-55837500I0J-237500D01*
G01*
X223075000Y-56412500D01*
G75*
G02*
X222837500Y-56650000I-237500J0D01*
G01*
G37*
D19*
X230010000Y-66625000D03*
D20*
X230010000Y-65355000D03*
X230010000Y-56355000D03*
D19*
X230010000Y-57625000D03*
X230010000Y-48625000D03*
D20*
X230010000Y-47355000D03*
D19*
X220010000Y-66625000D03*
D20*
X220010000Y-65355000D03*
X220010000Y-56355000D03*
D19*
X220010000Y-57625000D03*
D21*
X198000000Y-51000000D03*
X177000000Y-51000000D03*
X156000000Y-51000000D03*
X135000000Y-51000000D03*
X206000000Y-51000000D03*
X185000000Y-51000000D03*
X164000000Y-51000000D03*
X143000000Y-51000000D03*
X122000000Y-51000000D03*
X114000000Y-51000000D03*
D22*
X221500000Y-94650000D03*
X221500000Y-97190000D03*
X221500000Y-99730000D03*
X221500000Y-102270000D03*
X221500000Y-104810000D03*
X221500000Y-107350000D03*
X231500000Y-107350000D03*
X231500000Y-104810000D03*
X231500000Y-102270000D03*
X231500000Y-99730000D03*
X231500000Y-97190000D03*
X231500000Y-94650000D03*
D12*
X228000000Y-80500000D03*
X228000000Y-120500000D03*
D19*
X220047501Y-48625000D03*
D20*
X220047501Y-47355000D03*
G36*
G01*
X222837500Y-49400000D02*
X222362500Y-49400000D01*
G75*
G02*
X222125000Y-49162500I0J237500D01*
G01*
X222125000Y-48587500D01*
G75*
G02*
X222362500Y-48350000I237500J0D01*
G01*
X222837500Y-48350000D01*
G75*
G02*
X223075000Y-48587500I0J-237500D01*
G01*
X223075000Y-49162500D01*
G75*
G02*
X222837500Y-49400000I-237500J0D01*
G01*
G37*
G36*
G01*
X222837500Y-47650000D02*
X222362500Y-47650000D01*
G75*
G02*
X222125000Y-47412500I0J237500D01*
G01*
X222125000Y-46837500D01*
G75*
G02*
X222362500Y-46600000I237500J0D01*
G01*
X222837500Y-46600000D01*
G75*
G02*
X223075000Y-46837500I0J-237500D01*
G01*
X223075000Y-47412500D01*
G75*
G02*
X222837500Y-47650000I-237500J0D01*
G01*
G37*
D16*
X235000000Y-114940000D03*
X235000000Y-112400000D03*
X235000000Y-109860000D03*
X235000000Y-107320000D03*
X235000000Y-104780000D03*
X235000000Y-102240000D03*
X235000000Y-99700000D03*
X235000000Y-97160000D03*
X235000000Y-94620000D03*
X235000000Y-92080000D03*
X235000000Y-89540000D03*
D17*
X235000000Y-87000000D03*
X190000000Y-86000000D03*
D16*
X190000000Y-88540000D03*
X190000000Y-91080000D03*
X190000000Y-93620000D03*
X190000000Y-96160000D03*
X190000000Y-98700000D03*
X190000000Y-101240000D03*
X190000000Y-103780000D03*
X190000000Y-106320000D03*
X190000000Y-108860000D03*
X190000000Y-111400000D03*
X190000000Y-113940000D03*
D17*
X174500000Y-109000000D03*
D16*
X177040000Y-109000000D03*
X179580000Y-109000000D03*
X182120000Y-109000000D03*
D17*
X159000000Y-97000000D03*
D16*
X161540000Y-97000000D03*
X164080000Y-97000000D03*
X194500000Y-79540000D03*
D17*
X194500000Y-77000000D03*
X189500000Y-77000000D03*
D16*
X189500000Y-79540000D03*
D17*
X199500000Y-77000000D03*
D16*
X199500000Y-79540000D03*
X176825001Y-79865001D03*
D17*
X176825001Y-77325001D03*
X182500000Y-77325001D03*
D16*
X182500000Y-79865001D03*
M02*
