G04 #@! TF.GenerationSoftware,KiCad,Pcbnew,5.1.9-73d0e3b20d~88~ubuntu20.04.1*
G04 #@! TF.CreationDate,2021-03-18T15:40:59+01:00*
G04 #@! TF.ProjectId,uven-mainboard,7576656e-2d6d-4616-996e-626f6172642e,rev?*
G04 #@! TF.SameCoordinates,Original*
G04 #@! TF.FileFunction,Profile,NP*
%FSLAX46Y46*%
G04 Gerber Fmt 4.6, Leading zero omitted, Abs format (unit mm)*
G04 Created by KiCad (PCBNEW 5.1.9-73d0e3b20d~88~ubuntu20.04.1) date 2021-03-18 15:40:59*
%MOMM*%
%LPD*%
G01*
G04 APERTURE LIST*
G04 #@! TA.AperFunction,Profile*
%ADD10C,0.150000*%
G04 #@! TD*
G04 APERTURE END LIST*
D10*
X213500000Y-45500000D02*
X213500000Y-47500000D01*
X213500000Y-56500000D02*
X213500000Y-48500000D01*
X213500000Y-65500000D02*
X213500000Y-57500000D01*
X218000000Y-56500000D02*
X213500000Y-56500000D01*
X213500000Y-65500000D02*
X218000000Y-65500000D01*
X213500000Y-79500000D02*
X213500000Y-66500000D01*
X213500000Y-99500000D02*
X213500000Y-80500000D01*
X213500000Y-123500000D02*
X213500000Y-100500000D01*
X219000000Y-100500000D02*
X219000000Y-123500000D01*
X219000000Y-80500000D02*
X219000000Y-99500000D01*
X219000000Y-76500000D02*
X219000000Y-79500000D01*
X220500000Y-76500000D02*
X219000000Y-76500000D01*
X230500000Y-76500000D02*
X221500000Y-76500000D01*
X237000000Y-76500000D02*
X231500000Y-76500000D01*
X219000000Y-123500000D02*
X213500000Y-123500000D01*
X213500000Y-100500000D02*
X219000000Y-100500000D01*
X219000000Y-99500000D02*
X213500000Y-99500000D01*
X213500000Y-80500000D02*
X219000000Y-80500000D01*
X219000000Y-79500000D02*
X213500000Y-79500000D01*
X224000000Y-57500000D02*
X224000000Y-59000000D01*
X228000000Y-57500000D02*
X224000000Y-57500000D01*
X228000000Y-59000000D02*
X228000000Y-57500000D01*
X228000000Y-56500000D02*
X228000000Y-55000000D01*
X224000000Y-56500000D02*
X228000000Y-56500000D01*
X224000000Y-55000000D02*
X224000000Y-56500000D01*
X228000000Y-65500000D02*
X224000000Y-65500000D01*
X228000000Y-64000000D02*
X228000000Y-65500000D01*
X230500000Y-64000000D02*
X228000000Y-64000000D01*
X230500000Y-59000000D02*
X230500000Y-64000000D01*
X228000000Y-59000000D02*
X230500000Y-59000000D01*
X230500000Y-55000000D02*
X228000000Y-55000000D01*
X230500000Y-50000000D02*
X230500000Y-55000000D01*
X228000000Y-50000000D02*
X230500000Y-50000000D01*
X228000000Y-48500000D02*
X228000000Y-50000000D01*
X224000000Y-48500000D02*
X228000000Y-48500000D01*
X224000000Y-50000000D02*
X224000000Y-48500000D01*
X221500000Y-50000000D02*
X224000000Y-50000000D01*
X221500000Y-55000000D02*
X221500000Y-50000000D01*
X224000000Y-55000000D02*
X221500000Y-55000000D01*
X221500000Y-59000000D02*
X224000000Y-59000000D01*
X221500000Y-64000000D02*
X221500000Y-59000000D01*
X224000000Y-64000000D02*
X221500000Y-64000000D01*
X224000000Y-65500000D02*
X224000000Y-64000000D01*
X218000000Y-48500000D02*
X213500000Y-48500000D01*
X218000000Y-50000000D02*
X218000000Y-48500000D01*
X220500000Y-50000000D02*
X218000000Y-50000000D01*
X220500000Y-55000000D02*
X220500000Y-50000000D01*
X218000000Y-55000000D02*
X220500000Y-55000000D01*
X218000000Y-56500000D02*
X218000000Y-55000000D01*
X218000000Y-57500000D02*
X213500000Y-57500000D01*
X218000000Y-59000000D02*
X218000000Y-57500000D01*
X220500000Y-59000000D02*
X218000000Y-59000000D01*
X220500000Y-64000000D02*
X220500000Y-59000000D01*
X218000000Y-64000000D02*
X220500000Y-64000000D01*
X218000000Y-65500000D02*
X218000000Y-64000000D01*
X218000000Y-66500000D02*
X213500000Y-66500000D01*
X218000000Y-68000000D02*
X218000000Y-66500000D01*
X220500000Y-68000000D02*
X218000000Y-68000000D01*
X220500000Y-76500000D02*
X220500000Y-68000000D01*
X221500000Y-68000000D02*
X221500000Y-76500000D01*
X224000000Y-68000000D02*
X221500000Y-68000000D01*
X224000000Y-66500000D02*
X224000000Y-68000000D01*
X228000000Y-66500000D02*
X224000000Y-66500000D01*
X228000000Y-68000000D02*
X228000000Y-66500000D01*
X230500000Y-68000000D02*
X228000000Y-68000000D01*
X230500000Y-76500000D02*
X230500000Y-68000000D01*
X231500000Y-68000000D02*
X231500000Y-76500000D01*
X234000000Y-68000000D02*
X231500000Y-68000000D01*
X234000000Y-64000000D02*
X234000000Y-68000000D01*
X231500000Y-64000000D02*
X234000000Y-64000000D01*
X231500000Y-59000000D02*
X231500000Y-64000000D01*
X234000000Y-59000000D02*
X231500000Y-59000000D01*
X234000000Y-55000000D02*
X234000000Y-59000000D01*
X231500000Y-55000000D02*
X234000000Y-55000000D01*
X231500000Y-50000000D02*
X231500000Y-55000000D01*
X234000000Y-50000000D02*
X231500000Y-50000000D01*
X234000000Y-46000000D02*
X234000000Y-50000000D01*
X228000000Y-46000000D02*
X234000000Y-46000000D01*
X228000000Y-47500000D02*
X228000000Y-46000000D01*
X224000000Y-47500000D02*
X228000000Y-47500000D01*
X224000000Y-46000000D02*
X224000000Y-47500000D01*
X218000000Y-46000000D02*
X224000000Y-46000000D01*
X218000000Y-47500000D02*
X218000000Y-46000000D01*
X213500000Y-47500000D02*
X218000000Y-47500000D01*
X237000000Y-124500000D02*
X213500000Y-124500000D01*
X237000000Y-76500000D02*
X237000000Y-124500000D01*
X213500000Y-45500000D02*
X109000000Y-45500000D01*
X109000000Y-124500000D02*
X213500000Y-124500000D01*
X109000000Y-45500000D02*
X109000000Y-124500000D01*
M02*
