G04 #@! TF.GenerationSoftware,KiCad,Pcbnew,5.1.9-73d0e3b20d~88~ubuntu20.04.1*
G04 #@! TF.CreationDate,2021-03-18T15:40:59+01:00*
G04 #@! TF.ProjectId,uven-mainboard,7576656e-2d6d-4616-996e-626f6172642e,rev?*
G04 #@! TF.SameCoordinates,Original*
G04 #@! TF.FileFunction,Paste,Top*
G04 #@! TF.FilePolarity,Positive*
%FSLAX46Y46*%
G04 Gerber Fmt 4.6, Leading zero omitted, Abs format (unit mm)*
G04 Created by KiCad (PCBNEW 5.1.9-73d0e3b20d~88~ubuntu20.04.1) date 2021-03-18 15:40:59*
%MOMM*%
%LPD*%
G01*
G04 APERTURE LIST*
%ADD10R,1.500000X1.600000*%
%ADD11R,0.500000X1.600000*%
%ADD12R,2.400000X3.480000*%
%ADD13R,0.900000X0.800000*%
G04 APERTURE END LIST*
D10*
X199500000Y-64350000D03*
D11*
X200800000Y-64350000D03*
X201600000Y-64350000D03*
X202400000Y-64350000D03*
X203200000Y-64350000D03*
D10*
X204500000Y-64350000D03*
D12*
X200225000Y-58680000D03*
X203775000Y-58680000D03*
X182775000Y-58680000D03*
X179225000Y-58680000D03*
D10*
X183500000Y-64350000D03*
D11*
X182200000Y-64350000D03*
X181400000Y-64350000D03*
X180600000Y-64350000D03*
X179800000Y-64350000D03*
D10*
X178500000Y-64350000D03*
X157500000Y-64350000D03*
D11*
X158800000Y-64350000D03*
X159600000Y-64350000D03*
X160400000Y-64350000D03*
X161200000Y-64350000D03*
D10*
X162500000Y-64350000D03*
D12*
X158225000Y-58680000D03*
X161775000Y-58680000D03*
X140775000Y-58680000D03*
X137225000Y-58680000D03*
D10*
X141500000Y-64350000D03*
D11*
X140200000Y-64350000D03*
X139400000Y-64350000D03*
X138600000Y-64350000D03*
X137800000Y-64350000D03*
D10*
X136500000Y-64350000D03*
X115500000Y-64350000D03*
D11*
X116800000Y-64350000D03*
X117600000Y-64350000D03*
X118400000Y-64350000D03*
X119200000Y-64350000D03*
D10*
X120500000Y-64350000D03*
D12*
X116225000Y-58680000D03*
X119775000Y-58680000D03*
G36*
G01*
X197237500Y-66400000D02*
X196762500Y-66400000D01*
G75*
G02*
X196525000Y-66162500I0J237500D01*
G01*
X196525000Y-65587500D01*
G75*
G02*
X196762500Y-65350000I237500J0D01*
G01*
X197237500Y-65350000D01*
G75*
G02*
X197475000Y-65587500I0J-237500D01*
G01*
X197475000Y-66162500D01*
G75*
G02*
X197237500Y-66400000I-237500J0D01*
G01*
G37*
G36*
G01*
X197237500Y-64650000D02*
X196762500Y-64650000D01*
G75*
G02*
X196525000Y-64412500I0J237500D01*
G01*
X196525000Y-63837500D01*
G75*
G02*
X196762500Y-63600000I237500J0D01*
G01*
X197237500Y-63600000D01*
G75*
G02*
X197475000Y-63837500I0J-237500D01*
G01*
X197475000Y-64412500D01*
G75*
G02*
X197237500Y-64650000I-237500J0D01*
G01*
G37*
G36*
G01*
X176237500Y-66400000D02*
X175762500Y-66400000D01*
G75*
G02*
X175525000Y-66162500I0J237500D01*
G01*
X175525000Y-65587500D01*
G75*
G02*
X175762500Y-65350000I237500J0D01*
G01*
X176237500Y-65350000D01*
G75*
G02*
X176475000Y-65587500I0J-237500D01*
G01*
X176475000Y-66162500D01*
G75*
G02*
X176237500Y-66400000I-237500J0D01*
G01*
G37*
G36*
G01*
X176237500Y-64650000D02*
X175762500Y-64650000D01*
G75*
G02*
X175525000Y-64412500I0J237500D01*
G01*
X175525000Y-63837500D01*
G75*
G02*
X175762500Y-63600000I237500J0D01*
G01*
X176237500Y-63600000D01*
G75*
G02*
X176475000Y-63837500I0J-237500D01*
G01*
X176475000Y-64412500D01*
G75*
G02*
X176237500Y-64650000I-237500J0D01*
G01*
G37*
G36*
G01*
X155237500Y-64650000D02*
X154762500Y-64650000D01*
G75*
G02*
X154525000Y-64412500I0J237500D01*
G01*
X154525000Y-63837500D01*
G75*
G02*
X154762500Y-63600000I237500J0D01*
G01*
X155237500Y-63600000D01*
G75*
G02*
X155475000Y-63837500I0J-237500D01*
G01*
X155475000Y-64412500D01*
G75*
G02*
X155237500Y-64650000I-237500J0D01*
G01*
G37*
G36*
G01*
X155237500Y-66400000D02*
X154762500Y-66400000D01*
G75*
G02*
X154525000Y-66162500I0J237500D01*
G01*
X154525000Y-65587500D01*
G75*
G02*
X154762500Y-65350000I237500J0D01*
G01*
X155237500Y-65350000D01*
G75*
G02*
X155475000Y-65587500I0J-237500D01*
G01*
X155475000Y-66162500D01*
G75*
G02*
X155237500Y-66400000I-237500J0D01*
G01*
G37*
G36*
G01*
X134237500Y-66400000D02*
X133762500Y-66400000D01*
G75*
G02*
X133525000Y-66162500I0J237500D01*
G01*
X133525000Y-65587500D01*
G75*
G02*
X133762500Y-65350000I237500J0D01*
G01*
X134237500Y-65350000D01*
G75*
G02*
X134475000Y-65587500I0J-237500D01*
G01*
X134475000Y-66162500D01*
G75*
G02*
X134237500Y-66400000I-237500J0D01*
G01*
G37*
G36*
G01*
X134237500Y-64650000D02*
X133762500Y-64650000D01*
G75*
G02*
X133525000Y-64412500I0J237500D01*
G01*
X133525000Y-63837500D01*
G75*
G02*
X133762500Y-63600000I237500J0D01*
G01*
X134237500Y-63600000D01*
G75*
G02*
X134475000Y-63837500I0J-237500D01*
G01*
X134475000Y-64412500D01*
G75*
G02*
X134237500Y-64650000I-237500J0D01*
G01*
G37*
G36*
G01*
X113237500Y-64525000D02*
X112762500Y-64525000D01*
G75*
G02*
X112525000Y-64287500I0J237500D01*
G01*
X112525000Y-63712500D01*
G75*
G02*
X112762500Y-63475000I237500J0D01*
G01*
X113237500Y-63475000D01*
G75*
G02*
X113475000Y-63712500I0J-237500D01*
G01*
X113475000Y-64287500D01*
G75*
G02*
X113237500Y-64525000I-237500J0D01*
G01*
G37*
G36*
G01*
X113237500Y-66275000D02*
X112762500Y-66275000D01*
G75*
G02*
X112525000Y-66037500I0J237500D01*
G01*
X112525000Y-65462500D01*
G75*
G02*
X112762500Y-65225000I237500J0D01*
G01*
X113237500Y-65225000D01*
G75*
G02*
X113475000Y-65462500I0J-237500D01*
G01*
X113475000Y-66037500D01*
G75*
G02*
X113237500Y-66275000I-237500J0D01*
G01*
G37*
D13*
X166274999Y-79950000D03*
X166274999Y-78050000D03*
X164274999Y-79000000D03*
G36*
G01*
X148762500Y-107600000D02*
X149237500Y-107600000D01*
G75*
G02*
X149475000Y-107837500I0J-237500D01*
G01*
X149475000Y-108412500D01*
G75*
G02*
X149237500Y-108650000I-237500J0D01*
G01*
X148762500Y-108650000D01*
G75*
G02*
X148525000Y-108412500I0J237500D01*
G01*
X148525000Y-107837500D01*
G75*
G02*
X148762500Y-107600000I237500J0D01*
G01*
G37*
G36*
G01*
X148762500Y-109350000D02*
X149237500Y-109350000D01*
G75*
G02*
X149475000Y-109587500I0J-237500D01*
G01*
X149475000Y-110162500D01*
G75*
G02*
X149237500Y-110400000I-237500J0D01*
G01*
X148762500Y-110400000D01*
G75*
G02*
X148525000Y-110162500I0J237500D01*
G01*
X148525000Y-109587500D01*
G75*
G02*
X148762500Y-109350000I237500J0D01*
G01*
G37*
G36*
G01*
X153762500Y-109350000D02*
X154237500Y-109350000D01*
G75*
G02*
X154475000Y-109587500I0J-237500D01*
G01*
X154475000Y-110162500D01*
G75*
G02*
X154237500Y-110400000I-237500J0D01*
G01*
X153762500Y-110400000D01*
G75*
G02*
X153525000Y-110162500I0J237500D01*
G01*
X153525000Y-109587500D01*
G75*
G02*
X153762500Y-109350000I237500J0D01*
G01*
G37*
G36*
G01*
X153762500Y-107600000D02*
X154237500Y-107600000D01*
G75*
G02*
X154475000Y-107837500I0J-237500D01*
G01*
X154475000Y-108412500D01*
G75*
G02*
X154237500Y-108650000I-237500J0D01*
G01*
X153762500Y-108650000D01*
G75*
G02*
X153525000Y-108412500I0J237500D01*
G01*
X153525000Y-107837500D01*
G75*
G02*
X153762500Y-107600000I237500J0D01*
G01*
G37*
G36*
G01*
X158762500Y-107600000D02*
X159237500Y-107600000D01*
G75*
G02*
X159475000Y-107837500I0J-237500D01*
G01*
X159475000Y-108412500D01*
G75*
G02*
X159237500Y-108650000I-237500J0D01*
G01*
X158762500Y-108650000D01*
G75*
G02*
X158525000Y-108412500I0J237500D01*
G01*
X158525000Y-107837500D01*
G75*
G02*
X158762500Y-107600000I237500J0D01*
G01*
G37*
G36*
G01*
X158762500Y-109350000D02*
X159237500Y-109350000D01*
G75*
G02*
X159475000Y-109587500I0J-237500D01*
G01*
X159475000Y-110162500D01*
G75*
G02*
X159237500Y-110400000I-237500J0D01*
G01*
X158762500Y-110400000D01*
G75*
G02*
X158525000Y-110162500I0J237500D01*
G01*
X158525000Y-109587500D01*
G75*
G02*
X158762500Y-109350000I237500J0D01*
G01*
G37*
G36*
G01*
X163762500Y-109350000D02*
X164237500Y-109350000D01*
G75*
G02*
X164475000Y-109587500I0J-237500D01*
G01*
X164475000Y-110162500D01*
G75*
G02*
X164237500Y-110400000I-237500J0D01*
G01*
X163762500Y-110400000D01*
G75*
G02*
X163525000Y-110162500I0J237500D01*
G01*
X163525000Y-109587500D01*
G75*
G02*
X163762500Y-109350000I237500J0D01*
G01*
G37*
G36*
G01*
X163762500Y-107600000D02*
X164237500Y-107600000D01*
G75*
G02*
X164475000Y-107837500I0J-237500D01*
G01*
X164475000Y-108412500D01*
G75*
G02*
X164237500Y-108650000I-237500J0D01*
G01*
X163762500Y-108650000D01*
G75*
G02*
X163525000Y-108412500I0J237500D01*
G01*
X163525000Y-107837500D01*
G75*
G02*
X163762500Y-107600000I237500J0D01*
G01*
G37*
G36*
G01*
X168762500Y-107600000D02*
X169237500Y-107600000D01*
G75*
G02*
X169475000Y-107837500I0J-237500D01*
G01*
X169475000Y-108412500D01*
G75*
G02*
X169237500Y-108650000I-237500J0D01*
G01*
X168762500Y-108650000D01*
G75*
G02*
X168525000Y-108412500I0J237500D01*
G01*
X168525000Y-107837500D01*
G75*
G02*
X168762500Y-107600000I237500J0D01*
G01*
G37*
G36*
G01*
X168762500Y-109350000D02*
X169237500Y-109350000D01*
G75*
G02*
X169475000Y-109587500I0J-237500D01*
G01*
X169475000Y-110162500D01*
G75*
G02*
X169237500Y-110400000I-237500J0D01*
G01*
X168762500Y-110400000D01*
G75*
G02*
X168525000Y-110162500I0J237500D01*
G01*
X168525000Y-109587500D01*
G75*
G02*
X168762500Y-109350000I237500J0D01*
G01*
G37*
G36*
G01*
X154237500Y-79650000D02*
X153762500Y-79650000D01*
G75*
G02*
X153525000Y-79412500I0J237500D01*
G01*
X153525000Y-78837500D01*
G75*
G02*
X153762500Y-78600000I237500J0D01*
G01*
X154237500Y-78600000D01*
G75*
G02*
X154475000Y-78837500I0J-237500D01*
G01*
X154475000Y-79412500D01*
G75*
G02*
X154237500Y-79650000I-237500J0D01*
G01*
G37*
G36*
G01*
X154237500Y-81400000D02*
X153762500Y-81400000D01*
G75*
G02*
X153525000Y-81162500I0J237500D01*
G01*
X153525000Y-80587500D01*
G75*
G02*
X153762500Y-80350000I237500J0D01*
G01*
X154237500Y-80350000D01*
G75*
G02*
X154475000Y-80587500I0J-237500D01*
G01*
X154475000Y-81162500D01*
G75*
G02*
X154237500Y-81400000I-237500J0D01*
G01*
G37*
G36*
G01*
X232837500Y-67400000D02*
X232362500Y-67400000D01*
G75*
G02*
X232125000Y-67162500I0J237500D01*
G01*
X232125000Y-66587500D01*
G75*
G02*
X232362500Y-66350000I237500J0D01*
G01*
X232837500Y-66350000D01*
G75*
G02*
X233075000Y-66587500I0J-237500D01*
G01*
X233075000Y-67162500D01*
G75*
G02*
X232837500Y-67400000I-237500J0D01*
G01*
G37*
G36*
G01*
X232837500Y-65650000D02*
X232362500Y-65650000D01*
G75*
G02*
X232125000Y-65412500I0J237500D01*
G01*
X232125000Y-64837500D01*
G75*
G02*
X232362500Y-64600000I237500J0D01*
G01*
X232837500Y-64600000D01*
G75*
G02*
X233075000Y-64837500I0J-237500D01*
G01*
X233075000Y-65412500D01*
G75*
G02*
X232837500Y-65650000I-237500J0D01*
G01*
G37*
G36*
G01*
X232837500Y-56650000D02*
X232362500Y-56650000D01*
G75*
G02*
X232125000Y-56412500I0J237500D01*
G01*
X232125000Y-55837500D01*
G75*
G02*
X232362500Y-55600000I237500J0D01*
G01*
X232837500Y-55600000D01*
G75*
G02*
X233075000Y-55837500I0J-237500D01*
G01*
X233075000Y-56412500D01*
G75*
G02*
X232837500Y-56650000I-237500J0D01*
G01*
G37*
G36*
G01*
X232837500Y-58400000D02*
X232362500Y-58400000D01*
G75*
G02*
X232125000Y-58162500I0J237500D01*
G01*
X232125000Y-57587500D01*
G75*
G02*
X232362500Y-57350000I237500J0D01*
G01*
X232837500Y-57350000D01*
G75*
G02*
X233075000Y-57587500I0J-237500D01*
G01*
X233075000Y-58162500D01*
G75*
G02*
X232837500Y-58400000I-237500J0D01*
G01*
G37*
G36*
G01*
X232837500Y-49400000D02*
X232362500Y-49400000D01*
G75*
G02*
X232125000Y-49162500I0J237500D01*
G01*
X232125000Y-48587500D01*
G75*
G02*
X232362500Y-48350000I237500J0D01*
G01*
X232837500Y-48350000D01*
G75*
G02*
X233075000Y-48587500I0J-237500D01*
G01*
X233075000Y-49162500D01*
G75*
G02*
X232837500Y-49400000I-237500J0D01*
G01*
G37*
G36*
G01*
X232837500Y-47650000D02*
X232362500Y-47650000D01*
G75*
G02*
X232125000Y-47412500I0J237500D01*
G01*
X232125000Y-46837500D01*
G75*
G02*
X232362500Y-46600000I237500J0D01*
G01*
X232837500Y-46600000D01*
G75*
G02*
X233075000Y-46837500I0J-237500D01*
G01*
X233075000Y-47412500D01*
G75*
G02*
X232837500Y-47650000I-237500J0D01*
G01*
G37*
G36*
G01*
X222837500Y-65650000D02*
X222362500Y-65650000D01*
G75*
G02*
X222125000Y-65412500I0J237500D01*
G01*
X222125000Y-64837500D01*
G75*
G02*
X222362500Y-64600000I237500J0D01*
G01*
X222837500Y-64600000D01*
G75*
G02*
X223075000Y-64837500I0J-237500D01*
G01*
X223075000Y-65412500D01*
G75*
G02*
X222837500Y-65650000I-237500J0D01*
G01*
G37*
G36*
G01*
X222837500Y-67400000D02*
X222362500Y-67400000D01*
G75*
G02*
X222125000Y-67162500I0J237500D01*
G01*
X222125000Y-66587500D01*
G75*
G02*
X222362500Y-66350000I237500J0D01*
G01*
X222837500Y-66350000D01*
G75*
G02*
X223075000Y-66587500I0J-237500D01*
G01*
X223075000Y-67162500D01*
G75*
G02*
X222837500Y-67400000I-237500J0D01*
G01*
G37*
G36*
G01*
X222837500Y-58400000D02*
X222362500Y-58400000D01*
G75*
G02*
X222125000Y-58162500I0J237500D01*
G01*
X222125000Y-57587500D01*
G75*
G02*
X222362500Y-57350000I237500J0D01*
G01*
X222837500Y-57350000D01*
G75*
G02*
X223075000Y-57587500I0J-237500D01*
G01*
X223075000Y-58162500D01*
G75*
G02*
X222837500Y-58400000I-237500J0D01*
G01*
G37*
G36*
G01*
X222837500Y-56650000D02*
X222362500Y-56650000D01*
G75*
G02*
X222125000Y-56412500I0J237500D01*
G01*
X222125000Y-55837500D01*
G75*
G02*
X222362500Y-55600000I237500J0D01*
G01*
X222837500Y-55600000D01*
G75*
G02*
X223075000Y-55837500I0J-237500D01*
G01*
X223075000Y-56412500D01*
G75*
G02*
X222837500Y-56650000I-237500J0D01*
G01*
G37*
G36*
G01*
X222837500Y-49400000D02*
X222362500Y-49400000D01*
G75*
G02*
X222125000Y-49162500I0J237500D01*
G01*
X222125000Y-48587500D01*
G75*
G02*
X222362500Y-48350000I237500J0D01*
G01*
X222837500Y-48350000D01*
G75*
G02*
X223075000Y-48587500I0J-237500D01*
G01*
X223075000Y-49162500D01*
G75*
G02*
X222837500Y-49400000I-237500J0D01*
G01*
G37*
G36*
G01*
X222837500Y-47650000D02*
X222362500Y-47650000D01*
G75*
G02*
X222125000Y-47412500I0J237500D01*
G01*
X222125000Y-46837500D01*
G75*
G02*
X222362500Y-46600000I237500J0D01*
G01*
X222837500Y-46600000D01*
G75*
G02*
X223075000Y-46837500I0J-237500D01*
G01*
X223075000Y-47412500D01*
G75*
G02*
X222837500Y-47650000I-237500J0D01*
G01*
G37*
M02*
