G04 #@! TF.GenerationSoftware,KiCad,Pcbnew,5.1.9-73d0e3b20d~88~ubuntu20.04.1*
G04 #@! TF.CreationDate,2021-03-18T15:40:59+01:00*
G04 #@! TF.ProjectId,uven-mainboard,7576656e-2d6d-4616-996e-626f6172642e,rev?*
G04 #@! TF.SameCoordinates,Original*
G04 #@! TF.FileFunction,Legend,Top*
G04 #@! TF.FilePolarity,Positive*
%FSLAX46Y46*%
G04 Gerber Fmt 4.6, Leading zero omitted, Abs format (unit mm)*
G04 Created by KiCad (PCBNEW 5.1.9-73d0e3b20d~88~ubuntu20.04.1) date 2021-03-18 15:40:59*
%MOMM*%
%LPD*%
G01*
G04 APERTURE LIST*
%ADD10C,0.250000*%
%ADD11C,0.150000*%
%ADD12C,0.300000*%
%ADD13C,0.120000*%
G04 APERTURE END LIST*
D10*
X166690476Y-104785714D02*
X166690476Y-105452380D01*
X166452380Y-104404761D02*
X166214285Y-105119047D01*
X166833333Y-105119047D01*
X161166666Y-104452380D02*
X161785714Y-104452380D01*
X161452380Y-104833333D01*
X161595238Y-104833333D01*
X161690476Y-104880952D01*
X161738095Y-104928571D01*
X161785714Y-105023809D01*
X161785714Y-105261904D01*
X161738095Y-105357142D01*
X161690476Y-105404761D01*
X161595238Y-105452380D01*
X161309523Y-105452380D01*
X161214285Y-105404761D01*
X161166666Y-105357142D01*
X156214285Y-104547619D02*
X156261904Y-104500000D01*
X156357142Y-104452380D01*
X156595238Y-104452380D01*
X156690476Y-104500000D01*
X156738095Y-104547619D01*
X156785714Y-104642857D01*
X156785714Y-104738095D01*
X156738095Y-104880952D01*
X156166666Y-105452380D01*
X156785714Y-105452380D01*
X151785714Y-105452380D02*
X151214285Y-105452380D01*
X151500000Y-105452380D02*
X151500000Y-104452380D01*
X151404761Y-104595238D01*
X151309523Y-104690476D01*
X151214285Y-104738095D01*
X146452380Y-104452380D02*
X146547619Y-104452380D01*
X146642857Y-104500000D01*
X146690476Y-104547619D01*
X146738095Y-104642857D01*
X146785714Y-104833333D01*
X146785714Y-105071428D01*
X146738095Y-105261904D01*
X146690476Y-105357142D01*
X146642857Y-105404761D01*
X146547619Y-105452380D01*
X146452380Y-105452380D01*
X146357142Y-105404761D01*
X146309523Y-105357142D01*
X146261904Y-105261904D01*
X146214285Y-105071428D01*
X146214285Y-104833333D01*
X146261904Y-104642857D01*
X146309523Y-104547619D01*
X146357142Y-104500000D01*
X146452380Y-104452380D01*
X147938095Y-99000000D02*
X147842857Y-98952380D01*
X147700000Y-98952380D01*
X147557142Y-99000000D01*
X147461904Y-99095238D01*
X147414285Y-99190476D01*
X147366666Y-99380952D01*
X147366666Y-99523809D01*
X147414285Y-99714285D01*
X147461904Y-99809523D01*
X147557142Y-99904761D01*
X147700000Y-99952380D01*
X147795238Y-99952380D01*
X147938095Y-99904761D01*
X147985714Y-99857142D01*
X147985714Y-99523809D01*
X147795238Y-99523809D01*
X148414285Y-99952380D02*
X148414285Y-98952380D01*
X148985714Y-99952380D01*
X148985714Y-98952380D01*
X149461904Y-99952380D02*
X149461904Y-98952380D01*
X149700000Y-98952380D01*
X149842857Y-99000000D01*
X149938095Y-99095238D01*
X149985714Y-99190476D01*
X150033333Y-99380952D01*
X150033333Y-99523809D01*
X149985714Y-99714285D01*
X149938095Y-99809523D01*
X149842857Y-99904761D01*
X149700000Y-99952380D01*
X149461904Y-99952380D01*
D11*
G36*
X171000000Y-104000000D02*
G01*
X147000000Y-104000000D01*
X147000000Y-100500000D01*
X171000000Y-100500000D01*
X171000000Y-104000000D01*
G37*
X171000000Y-104000000D02*
X147000000Y-104000000D01*
X147000000Y-100500000D01*
X171000000Y-100500000D01*
X171000000Y-104000000D01*
D10*
X196928571Y-80738095D02*
X196976190Y-80595238D01*
X197023809Y-80547619D01*
X197119047Y-80500000D01*
X197261904Y-80500000D01*
X197357142Y-80547619D01*
X197404761Y-80595238D01*
X197452380Y-80690476D01*
X197452380Y-81071428D01*
X196452380Y-81071428D01*
X196452380Y-80738095D01*
X196500000Y-80642857D01*
X196547619Y-80595238D01*
X196642857Y-80547619D01*
X196738095Y-80547619D01*
X196833333Y-80595238D01*
X196880952Y-80642857D01*
X196928571Y-80738095D01*
X196928571Y-81071428D01*
X196452380Y-80071428D02*
X197261904Y-80071428D01*
X197357142Y-80023809D01*
X197404761Y-79976190D01*
X197452380Y-79880952D01*
X197452380Y-79690476D01*
X197404761Y-79595238D01*
X197357142Y-79547619D01*
X197261904Y-79500000D01*
X196452380Y-79500000D01*
X196452380Y-79166666D02*
X196452380Y-78595238D01*
X197452380Y-78880952D02*
X196452380Y-78880952D01*
X196452380Y-78404761D02*
X196452380Y-77833333D01*
X197452380Y-78119047D02*
X196452380Y-78119047D01*
X196452380Y-77309523D02*
X196452380Y-77119047D01*
X196500000Y-77023809D01*
X196595238Y-76928571D01*
X196785714Y-76880952D01*
X197119047Y-76880952D01*
X197309523Y-76928571D01*
X197404761Y-77023809D01*
X197452380Y-77119047D01*
X197452380Y-77309523D01*
X197404761Y-77404761D01*
X197309523Y-77500000D01*
X197119047Y-77547619D01*
X196785714Y-77547619D01*
X196595238Y-77500000D01*
X196500000Y-77404761D01*
X196452380Y-77309523D01*
X197452380Y-76452380D02*
X196452380Y-76452380D01*
X197452380Y-75880952D01*
X196452380Y-75880952D01*
X196547619Y-75452380D02*
X196500000Y-75404761D01*
X196452380Y-75309523D01*
X196452380Y-75071428D01*
X196500000Y-74976190D01*
X196547619Y-74928571D01*
X196642857Y-74880952D01*
X196738095Y-74880952D01*
X196880952Y-74928571D01*
X197452380Y-75500000D01*
X197452380Y-74880952D01*
X191928571Y-80738095D02*
X191976190Y-80595238D01*
X192023809Y-80547619D01*
X192119047Y-80500000D01*
X192261904Y-80500000D01*
X192357142Y-80547619D01*
X192404761Y-80595238D01*
X192452380Y-80690476D01*
X192452380Y-81071428D01*
X191452380Y-81071428D01*
X191452380Y-80738095D01*
X191500000Y-80642857D01*
X191547619Y-80595238D01*
X191642857Y-80547619D01*
X191738095Y-80547619D01*
X191833333Y-80595238D01*
X191880952Y-80642857D01*
X191928571Y-80738095D01*
X191928571Y-81071428D01*
X191452380Y-80071428D02*
X192261904Y-80071428D01*
X192357142Y-80023809D01*
X192404761Y-79976190D01*
X192452380Y-79880952D01*
X192452380Y-79690476D01*
X192404761Y-79595238D01*
X192357142Y-79547619D01*
X192261904Y-79500000D01*
X191452380Y-79500000D01*
X191452380Y-79166666D02*
X191452380Y-78595238D01*
X192452380Y-78880952D02*
X191452380Y-78880952D01*
X191452380Y-78404761D02*
X191452380Y-77833333D01*
X192452380Y-78119047D02*
X191452380Y-78119047D01*
X191452380Y-77309523D02*
X191452380Y-77119047D01*
X191500000Y-77023809D01*
X191595238Y-76928571D01*
X191785714Y-76880952D01*
X192119047Y-76880952D01*
X192309523Y-76928571D01*
X192404761Y-77023809D01*
X192452380Y-77119047D01*
X192452380Y-77309523D01*
X192404761Y-77404761D01*
X192309523Y-77500000D01*
X192119047Y-77547619D01*
X191785714Y-77547619D01*
X191595238Y-77500000D01*
X191500000Y-77404761D01*
X191452380Y-77309523D01*
X192452380Y-76452380D02*
X191452380Y-76452380D01*
X192452380Y-75880952D01*
X191452380Y-75880952D01*
X192452380Y-74880952D02*
X192452380Y-75452380D01*
X192452380Y-75166666D02*
X191452380Y-75166666D01*
X191595238Y-75261904D01*
X191690476Y-75357142D01*
X191738095Y-75452380D01*
X186928571Y-80738095D02*
X186976190Y-80595238D01*
X187023809Y-80547619D01*
X187119047Y-80500000D01*
X187261904Y-80500000D01*
X187357142Y-80547619D01*
X187404761Y-80595238D01*
X187452380Y-80690476D01*
X187452380Y-81071428D01*
X186452380Y-81071428D01*
X186452380Y-80738095D01*
X186500000Y-80642857D01*
X186547619Y-80595238D01*
X186642857Y-80547619D01*
X186738095Y-80547619D01*
X186833333Y-80595238D01*
X186880952Y-80642857D01*
X186928571Y-80738095D01*
X186928571Y-81071428D01*
X186452380Y-80071428D02*
X187261904Y-80071428D01*
X187357142Y-80023809D01*
X187404761Y-79976190D01*
X187452380Y-79880952D01*
X187452380Y-79690476D01*
X187404761Y-79595238D01*
X187357142Y-79547619D01*
X187261904Y-79500000D01*
X186452380Y-79500000D01*
X186452380Y-79166666D02*
X186452380Y-78595238D01*
X187452380Y-78880952D02*
X186452380Y-78880952D01*
X186452380Y-78404761D02*
X186452380Y-77833333D01*
X187452380Y-78119047D02*
X186452380Y-78119047D01*
X186452380Y-77309523D02*
X186452380Y-77119047D01*
X186500000Y-77023809D01*
X186595238Y-76928571D01*
X186785714Y-76880952D01*
X187119047Y-76880952D01*
X187309523Y-76928571D01*
X187404761Y-77023809D01*
X187452380Y-77119047D01*
X187452380Y-77309523D01*
X187404761Y-77404761D01*
X187309523Y-77500000D01*
X187119047Y-77547619D01*
X186785714Y-77547619D01*
X186595238Y-77500000D01*
X186500000Y-77404761D01*
X186452380Y-77309523D01*
X187452380Y-76452380D02*
X186452380Y-76452380D01*
X187452380Y-75880952D01*
X186452380Y-75880952D01*
X186452380Y-75214285D02*
X186452380Y-75119047D01*
X186500000Y-75023809D01*
X186547619Y-74976190D01*
X186642857Y-74928571D01*
X186833333Y-74880952D01*
X187071428Y-74880952D01*
X187261904Y-74928571D01*
X187357142Y-74976190D01*
X187404761Y-75023809D01*
X187452380Y-75119047D01*
X187452380Y-75214285D01*
X187404761Y-75309523D01*
X187357142Y-75357142D01*
X187261904Y-75404761D01*
X187071428Y-75452380D01*
X186833333Y-75452380D01*
X186642857Y-75404761D01*
X186547619Y-75357142D01*
X186500000Y-75309523D01*
X186452380Y-75214285D01*
X180714285Y-82952380D02*
X180714285Y-81952380D01*
X181285714Y-82952380D02*
X180857142Y-82380952D01*
X181285714Y-81952380D02*
X180714285Y-82523809D01*
X181714285Y-82952380D02*
X181714285Y-81952380D01*
X182666666Y-82952380D02*
X182190476Y-82952380D01*
X182190476Y-81952380D01*
X183476190Y-82952380D02*
X183000000Y-82952380D01*
X183000000Y-81952380D01*
X184333333Y-82952380D02*
X183761904Y-82952380D01*
X184047619Y-82952380D02*
X184047619Y-81952380D01*
X183952380Y-82095238D01*
X183857142Y-82190476D01*
X183761904Y-82238095D01*
X174714285Y-82952380D02*
X174714285Y-81952380D01*
X175285714Y-82952380D02*
X174857142Y-82380952D01*
X175285714Y-81952380D02*
X174714285Y-82523809D01*
X175714285Y-82952380D02*
X175714285Y-81952380D01*
X176666666Y-82952380D02*
X176190476Y-82952380D01*
X176190476Y-81952380D01*
X177476190Y-82952380D02*
X177000000Y-82952380D01*
X177000000Y-81952380D01*
X178000000Y-81952380D02*
X178095238Y-81952380D01*
X178190476Y-82000000D01*
X178238095Y-82047619D01*
X178285714Y-82142857D01*
X178333333Y-82333333D01*
X178333333Y-82571428D01*
X178285714Y-82761904D01*
X178238095Y-82857142D01*
X178190476Y-82904761D01*
X178095238Y-82952380D01*
X178000000Y-82952380D01*
X177904761Y-82904761D01*
X177857142Y-82857142D01*
X177809523Y-82761904D01*
X177761904Y-82571428D01*
X177761904Y-82333333D01*
X177809523Y-82142857D01*
X177857142Y-82047619D01*
X177904761Y-82000000D01*
X178000000Y-81952380D01*
X164552380Y-94604761D02*
X163552380Y-94604761D01*
X163552380Y-94223809D01*
X163600000Y-94128571D01*
X163647619Y-94080952D01*
X163742857Y-94033333D01*
X163885714Y-94033333D01*
X163980952Y-94080952D01*
X164028571Y-94128571D01*
X164076190Y-94223809D01*
X164076190Y-94604761D01*
X163552380Y-93414285D02*
X163552380Y-93223809D01*
X163600000Y-93128571D01*
X163695238Y-93033333D01*
X163885714Y-92985714D01*
X164219047Y-92985714D01*
X164409523Y-93033333D01*
X164504761Y-93128571D01*
X164552380Y-93223809D01*
X164552380Y-93414285D01*
X164504761Y-93509523D01*
X164409523Y-93604761D01*
X164219047Y-93652380D01*
X163885714Y-93652380D01*
X163695238Y-93604761D01*
X163600000Y-93509523D01*
X163552380Y-93414285D01*
X163552380Y-92700000D02*
X163552380Y-92128571D01*
X164552380Y-92414285D02*
X163552380Y-92414285D01*
X164552380Y-91795238D02*
X163552380Y-91795238D01*
X158500000Y-94061904D02*
X158452380Y-94157142D01*
X158452380Y-94300000D01*
X158500000Y-94442857D01*
X158595238Y-94538095D01*
X158690476Y-94585714D01*
X158880952Y-94633333D01*
X159023809Y-94633333D01*
X159214285Y-94585714D01*
X159309523Y-94538095D01*
X159404761Y-94442857D01*
X159452380Y-94300000D01*
X159452380Y-94204761D01*
X159404761Y-94061904D01*
X159357142Y-94014285D01*
X159023809Y-94014285D01*
X159023809Y-94204761D01*
X159452380Y-93585714D02*
X158452380Y-93585714D01*
X159452380Y-93014285D01*
X158452380Y-93014285D01*
X159452380Y-92538095D02*
X158452380Y-92538095D01*
X158452380Y-92300000D01*
X158500000Y-92157142D01*
X158595238Y-92061904D01*
X158690476Y-92014285D01*
X158880952Y-91966666D01*
X159023809Y-91966666D01*
X159214285Y-92014285D01*
X159309523Y-92061904D01*
X159404761Y-92157142D01*
X159452380Y-92300000D01*
X159452380Y-92538095D01*
X161052380Y-94776190D02*
X161052380Y-94157142D01*
X161433333Y-94490476D01*
X161433333Y-94347619D01*
X161480952Y-94252380D01*
X161528571Y-94204761D01*
X161623809Y-94157142D01*
X161861904Y-94157142D01*
X161957142Y-94204761D01*
X162004761Y-94252380D01*
X162052380Y-94347619D01*
X162052380Y-94633333D01*
X162004761Y-94728571D01*
X161957142Y-94776190D01*
X161957142Y-93728571D02*
X162004761Y-93680952D01*
X162052380Y-93728571D01*
X162004761Y-93776190D01*
X161957142Y-93728571D01*
X162052380Y-93728571D01*
X161052380Y-93347619D02*
X161052380Y-92728571D01*
X161433333Y-93061904D01*
X161433333Y-92919047D01*
X161480952Y-92823809D01*
X161528571Y-92776190D01*
X161623809Y-92728571D01*
X161861904Y-92728571D01*
X161957142Y-92776190D01*
X162004761Y-92823809D01*
X162052380Y-92919047D01*
X162052380Y-93204761D01*
X162004761Y-93300000D01*
X161957142Y-93347619D01*
X161052380Y-92442857D02*
X162052380Y-92109523D01*
X161052380Y-91776190D01*
D12*
X156678571Y-113928571D02*
X156678571Y-114785714D01*
X156678571Y-114357142D02*
X155178571Y-114357142D01*
X155392857Y-114500000D01*
X155535714Y-114642857D01*
X155607142Y-114785714D01*
X155321428Y-113357142D02*
X155250000Y-113285714D01*
X155178571Y-113142857D01*
X155178571Y-112785714D01*
X155250000Y-112642857D01*
X155321428Y-112571428D01*
X155464285Y-112500000D01*
X155607142Y-112500000D01*
X155821428Y-112571428D01*
X156678571Y-113428571D01*
X156678571Y-112500000D01*
X155178571Y-112071428D02*
X156678571Y-111571428D01*
X155178571Y-111071428D01*
X152250000Y-114142857D02*
X152178571Y-114285714D01*
X152178571Y-114500000D01*
X152250000Y-114714285D01*
X152392857Y-114857142D01*
X152535714Y-114928571D01*
X152821428Y-115000000D01*
X153035714Y-115000000D01*
X153321428Y-114928571D01*
X153464285Y-114857142D01*
X153607142Y-114714285D01*
X153678571Y-114500000D01*
X153678571Y-114357142D01*
X153607142Y-114142857D01*
X153535714Y-114071428D01*
X153035714Y-114071428D01*
X153035714Y-114357142D01*
X153678571Y-113428571D02*
X152178571Y-113428571D01*
X153678571Y-112571428D01*
X152178571Y-112571428D01*
X153678571Y-111857142D02*
X152178571Y-111857142D01*
X152178571Y-111500000D01*
X152250000Y-111285714D01*
X152392857Y-111142857D01*
X152535714Y-111071428D01*
X152821428Y-111000000D01*
X153035714Y-111000000D01*
X153321428Y-111071428D01*
X153464285Y-111142857D01*
X153607142Y-111285714D01*
X153678571Y-111500000D01*
X153678571Y-111857142D01*
D10*
X182452380Y-106428571D02*
X182452380Y-106904761D01*
X181452380Y-106904761D01*
X181928571Y-106095238D02*
X181928571Y-105761904D01*
X182452380Y-105619047D02*
X182452380Y-106095238D01*
X181452380Y-106095238D01*
X181452380Y-105619047D01*
X182452380Y-105190476D02*
X181452380Y-105190476D01*
X181452380Y-104952380D01*
X181500000Y-104809523D01*
X181595238Y-104714285D01*
X181690476Y-104666666D01*
X181880952Y-104619047D01*
X182023809Y-104619047D01*
X182214285Y-104666666D01*
X182309523Y-104714285D01*
X182404761Y-104809523D01*
X182452380Y-104952380D01*
X182452380Y-105190476D01*
X182547619Y-104428571D02*
X182547619Y-103666666D01*
X181452380Y-103571428D02*
X181452380Y-103000000D01*
X182452380Y-103285714D02*
X181452380Y-103285714D01*
X181928571Y-102666666D02*
X181928571Y-102333333D01*
X182452380Y-102190476D02*
X182452380Y-102666666D01*
X181452380Y-102666666D01*
X181452380Y-102190476D01*
X182452380Y-101761904D02*
X181452380Y-101761904D01*
X182166666Y-101428571D01*
X181452380Y-101095238D01*
X182452380Y-101095238D01*
X182452380Y-100619047D02*
X181452380Y-100619047D01*
X181452380Y-100238095D01*
X181500000Y-100142857D01*
X181547619Y-100095238D01*
X181642857Y-100047619D01*
X181785714Y-100047619D01*
X181880952Y-100095238D01*
X181928571Y-100142857D01*
X181976190Y-100238095D01*
X181976190Y-100619047D01*
X179952380Y-106380952D02*
X179952380Y-106857142D01*
X178952380Y-106857142D01*
X179428571Y-106047619D02*
X179428571Y-105714285D01*
X179952380Y-105571428D02*
X179952380Y-106047619D01*
X178952380Y-106047619D01*
X178952380Y-105571428D01*
X179952380Y-105142857D02*
X178952380Y-105142857D01*
X178952380Y-104904761D01*
X179000000Y-104761904D01*
X179095238Y-104666666D01*
X179190476Y-104619047D01*
X179380952Y-104571428D01*
X179523809Y-104571428D01*
X179714285Y-104619047D01*
X179809523Y-104666666D01*
X179904761Y-104761904D01*
X179952380Y-104904761D01*
X179952380Y-105142857D01*
X180047619Y-104380952D02*
X180047619Y-103619047D01*
X178952380Y-103523809D02*
X179952380Y-103190476D01*
X178952380Y-102857142D01*
X178952380Y-102333333D02*
X178952380Y-102142857D01*
X179000000Y-102047619D01*
X179095238Y-101952380D01*
X179285714Y-101904761D01*
X179619047Y-101904761D01*
X179809523Y-101952380D01*
X179904761Y-102047619D01*
X179952380Y-102142857D01*
X179952380Y-102333333D01*
X179904761Y-102428571D01*
X179809523Y-102523809D01*
X179619047Y-102571428D01*
X179285714Y-102571428D01*
X179095238Y-102523809D01*
X179000000Y-102428571D01*
X178952380Y-102333333D01*
X178952380Y-101476190D02*
X179761904Y-101476190D01*
X179857142Y-101428571D01*
X179904761Y-101380952D01*
X179952380Y-101285714D01*
X179952380Y-101095238D01*
X179904761Y-101000000D01*
X179857142Y-100952380D01*
X179761904Y-100904761D01*
X178952380Y-100904761D01*
X178952380Y-100571428D02*
X178952380Y-100000000D01*
X179952380Y-100285714D02*
X178952380Y-100285714D01*
X177452380Y-106642857D02*
X176452380Y-106642857D01*
X177452380Y-105690476D02*
X177452380Y-106166666D01*
X176452380Y-106166666D01*
X177547619Y-105595238D02*
X177547619Y-104833333D01*
X177452380Y-104119047D02*
X177452380Y-104595238D01*
X176452380Y-104595238D01*
X176928571Y-103785714D02*
X176928571Y-103452380D01*
X177452380Y-103309523D02*
X177452380Y-103785714D01*
X176452380Y-103785714D01*
X176452380Y-103309523D01*
X177452380Y-102880952D02*
X176452380Y-102880952D01*
X176452380Y-102642857D01*
X176500000Y-102500000D01*
X176595238Y-102404761D01*
X176690476Y-102357142D01*
X176880952Y-102309523D01*
X177023809Y-102309523D01*
X177214285Y-102357142D01*
X177309523Y-102404761D01*
X177404761Y-102500000D01*
X177452380Y-102642857D01*
X177452380Y-102880952D01*
X174952380Y-106738095D02*
X173952380Y-106738095D01*
X175047619Y-106500000D02*
X175047619Y-105738095D01*
X174952380Y-105023809D02*
X174952380Y-105500000D01*
X173952380Y-105500000D01*
X174428571Y-104690476D02*
X174428571Y-104357142D01*
X174952380Y-104214285D02*
X174952380Y-104690476D01*
X173952380Y-104690476D01*
X173952380Y-104214285D01*
X174952380Y-103785714D02*
X173952380Y-103785714D01*
X173952380Y-103547619D01*
X174000000Y-103404761D01*
X174095238Y-103309523D01*
X174190476Y-103261904D01*
X174380952Y-103214285D01*
X174523809Y-103214285D01*
X174714285Y-103261904D01*
X174809523Y-103309523D01*
X174904761Y-103404761D01*
X174952380Y-103547619D01*
X174952380Y-103785714D01*
X199166666Y-61452380D02*
X199738095Y-61452380D01*
X199452380Y-62452380D02*
X199452380Y-61452380D01*
X200547619Y-62452380D02*
X200071428Y-62452380D01*
X200071428Y-61452380D01*
X200880952Y-62452380D02*
X200880952Y-61452380D01*
X201785714Y-61785714D02*
X201785714Y-62452380D01*
X201547619Y-61404761D02*
X201309523Y-62119047D01*
X201928571Y-62119047D01*
X202357142Y-62452380D02*
X202547619Y-62452380D01*
X202642857Y-62404761D01*
X202690476Y-62357142D01*
X202785714Y-62214285D01*
X202833333Y-62023809D01*
X202833333Y-61642857D01*
X202785714Y-61547619D01*
X202738095Y-61500000D01*
X202642857Y-61452380D01*
X202452380Y-61452380D01*
X202357142Y-61500000D01*
X202309523Y-61547619D01*
X202261904Y-61642857D01*
X202261904Y-61880952D01*
X202309523Y-61976190D01*
X202357142Y-62023809D01*
X202452380Y-62071428D01*
X202642857Y-62071428D01*
X202738095Y-62023809D01*
X202785714Y-61976190D01*
X202833333Y-61880952D01*
X203166666Y-61452380D02*
X203833333Y-61452380D01*
X203404761Y-62452380D01*
X204404761Y-61452380D02*
X204500000Y-61452380D01*
X204595238Y-61500000D01*
X204642857Y-61547619D01*
X204690476Y-61642857D01*
X204738095Y-61833333D01*
X204738095Y-62071428D01*
X204690476Y-62261904D01*
X204642857Y-62357142D01*
X204595238Y-62404761D01*
X204500000Y-62452380D01*
X204404761Y-62452380D01*
X204309523Y-62404761D01*
X204261904Y-62357142D01*
X204214285Y-62261904D01*
X204166666Y-62071428D01*
X204166666Y-61833333D01*
X204214285Y-61642857D01*
X204261904Y-61547619D01*
X204309523Y-61500000D01*
X204404761Y-61452380D01*
X178166666Y-61452380D02*
X178738095Y-61452380D01*
X178452380Y-62452380D02*
X178452380Y-61452380D01*
X179547619Y-62452380D02*
X179071428Y-62452380D01*
X179071428Y-61452380D01*
X179880952Y-62452380D02*
X179880952Y-61452380D01*
X180785714Y-61785714D02*
X180785714Y-62452380D01*
X180547619Y-61404761D02*
X180309523Y-62119047D01*
X180928571Y-62119047D01*
X181357142Y-62452380D02*
X181547619Y-62452380D01*
X181642857Y-62404761D01*
X181690476Y-62357142D01*
X181785714Y-62214285D01*
X181833333Y-62023809D01*
X181833333Y-61642857D01*
X181785714Y-61547619D01*
X181738095Y-61500000D01*
X181642857Y-61452380D01*
X181452380Y-61452380D01*
X181357142Y-61500000D01*
X181309523Y-61547619D01*
X181261904Y-61642857D01*
X181261904Y-61880952D01*
X181309523Y-61976190D01*
X181357142Y-62023809D01*
X181452380Y-62071428D01*
X181642857Y-62071428D01*
X181738095Y-62023809D01*
X181785714Y-61976190D01*
X181833333Y-61880952D01*
X182166666Y-61452380D02*
X182833333Y-61452380D01*
X182404761Y-62452380D01*
X183404761Y-61452380D02*
X183500000Y-61452380D01*
X183595238Y-61500000D01*
X183642857Y-61547619D01*
X183690476Y-61642857D01*
X183738095Y-61833333D01*
X183738095Y-62071428D01*
X183690476Y-62261904D01*
X183642857Y-62357142D01*
X183595238Y-62404761D01*
X183500000Y-62452380D01*
X183404761Y-62452380D01*
X183309523Y-62404761D01*
X183261904Y-62357142D01*
X183214285Y-62261904D01*
X183166666Y-62071428D01*
X183166666Y-61833333D01*
X183214285Y-61642857D01*
X183261904Y-61547619D01*
X183309523Y-61500000D01*
X183404761Y-61452380D01*
X157166666Y-61452380D02*
X157738095Y-61452380D01*
X157452380Y-62452380D02*
X157452380Y-61452380D01*
X158547619Y-62452380D02*
X158071428Y-62452380D01*
X158071428Y-61452380D01*
X158880952Y-62452380D02*
X158880952Y-61452380D01*
X159785714Y-61785714D02*
X159785714Y-62452380D01*
X159547619Y-61404761D02*
X159309523Y-62119047D01*
X159928571Y-62119047D01*
X160357142Y-62452380D02*
X160547619Y-62452380D01*
X160642857Y-62404761D01*
X160690476Y-62357142D01*
X160785714Y-62214285D01*
X160833333Y-62023809D01*
X160833333Y-61642857D01*
X160785714Y-61547619D01*
X160738095Y-61500000D01*
X160642857Y-61452380D01*
X160452380Y-61452380D01*
X160357142Y-61500000D01*
X160309523Y-61547619D01*
X160261904Y-61642857D01*
X160261904Y-61880952D01*
X160309523Y-61976190D01*
X160357142Y-62023809D01*
X160452380Y-62071428D01*
X160642857Y-62071428D01*
X160738095Y-62023809D01*
X160785714Y-61976190D01*
X160833333Y-61880952D01*
X161166666Y-61452380D02*
X161833333Y-61452380D01*
X161404761Y-62452380D01*
X162404761Y-61452380D02*
X162500000Y-61452380D01*
X162595238Y-61500000D01*
X162642857Y-61547619D01*
X162690476Y-61642857D01*
X162738095Y-61833333D01*
X162738095Y-62071428D01*
X162690476Y-62261904D01*
X162642857Y-62357142D01*
X162595238Y-62404761D01*
X162500000Y-62452380D01*
X162404761Y-62452380D01*
X162309523Y-62404761D01*
X162261904Y-62357142D01*
X162214285Y-62261904D01*
X162166666Y-62071428D01*
X162166666Y-61833333D01*
X162214285Y-61642857D01*
X162261904Y-61547619D01*
X162309523Y-61500000D01*
X162404761Y-61452380D01*
X136166666Y-61452380D02*
X136738095Y-61452380D01*
X136452380Y-62452380D02*
X136452380Y-61452380D01*
X137547619Y-62452380D02*
X137071428Y-62452380D01*
X137071428Y-61452380D01*
X137880952Y-62452380D02*
X137880952Y-61452380D01*
X138785714Y-61785714D02*
X138785714Y-62452380D01*
X138547619Y-61404761D02*
X138309523Y-62119047D01*
X138928571Y-62119047D01*
X139357142Y-62452380D02*
X139547619Y-62452380D01*
X139642857Y-62404761D01*
X139690476Y-62357142D01*
X139785714Y-62214285D01*
X139833333Y-62023809D01*
X139833333Y-61642857D01*
X139785714Y-61547619D01*
X139738095Y-61500000D01*
X139642857Y-61452380D01*
X139452380Y-61452380D01*
X139357142Y-61500000D01*
X139309523Y-61547619D01*
X139261904Y-61642857D01*
X139261904Y-61880952D01*
X139309523Y-61976190D01*
X139357142Y-62023809D01*
X139452380Y-62071428D01*
X139642857Y-62071428D01*
X139738095Y-62023809D01*
X139785714Y-61976190D01*
X139833333Y-61880952D01*
X140166666Y-61452380D02*
X140833333Y-61452380D01*
X140404761Y-62452380D01*
X141404761Y-61452380D02*
X141500000Y-61452380D01*
X141595238Y-61500000D01*
X141642857Y-61547619D01*
X141690476Y-61642857D01*
X141738095Y-61833333D01*
X141738095Y-62071428D01*
X141690476Y-62261904D01*
X141642857Y-62357142D01*
X141595238Y-62404761D01*
X141500000Y-62452380D01*
X141404761Y-62452380D01*
X141309523Y-62404761D01*
X141261904Y-62357142D01*
X141214285Y-62261904D01*
X141166666Y-62071428D01*
X141166666Y-61833333D01*
X141214285Y-61642857D01*
X141261904Y-61547619D01*
X141309523Y-61500000D01*
X141404761Y-61452380D01*
X115166666Y-61452380D02*
X115738095Y-61452380D01*
X115452380Y-62452380D02*
X115452380Y-61452380D01*
X116547619Y-62452380D02*
X116071428Y-62452380D01*
X116071428Y-61452380D01*
X116880952Y-62452380D02*
X116880952Y-61452380D01*
X117785714Y-61785714D02*
X117785714Y-62452380D01*
X117547619Y-61404761D02*
X117309523Y-62119047D01*
X117928571Y-62119047D01*
X118357142Y-62452380D02*
X118547619Y-62452380D01*
X118642857Y-62404761D01*
X118690476Y-62357142D01*
X118785714Y-62214285D01*
X118833333Y-62023809D01*
X118833333Y-61642857D01*
X118785714Y-61547619D01*
X118738095Y-61500000D01*
X118642857Y-61452380D01*
X118452380Y-61452380D01*
X118357142Y-61500000D01*
X118309523Y-61547619D01*
X118261904Y-61642857D01*
X118261904Y-61880952D01*
X118309523Y-61976190D01*
X118357142Y-62023809D01*
X118452380Y-62071428D01*
X118642857Y-62071428D01*
X118738095Y-62023809D01*
X118785714Y-61976190D01*
X118833333Y-61880952D01*
X119166666Y-61452380D02*
X119833333Y-61452380D01*
X119404761Y-62452380D01*
X120404761Y-61452380D02*
X120500000Y-61452380D01*
X120595238Y-61500000D01*
X120642857Y-61547619D01*
X120690476Y-61642857D01*
X120738095Y-61833333D01*
X120738095Y-62071428D01*
X120690476Y-62261904D01*
X120642857Y-62357142D01*
X120595238Y-62404761D01*
X120500000Y-62452380D01*
X120404761Y-62452380D01*
X120309523Y-62404761D01*
X120261904Y-62357142D01*
X120214285Y-62261904D01*
X120166666Y-62071428D01*
X120166666Y-61833333D01*
X120214285Y-61642857D01*
X120261904Y-61547619D01*
X120309523Y-61500000D01*
X120404761Y-61452380D01*
X163785714Y-81547619D02*
X163833333Y-81500000D01*
X163928571Y-81452380D01*
X164166666Y-81452380D01*
X164261904Y-81500000D01*
X164309523Y-81547619D01*
X164357142Y-81642857D01*
X164357142Y-81738095D01*
X164309523Y-81880952D01*
X163738095Y-82452380D01*
X164357142Y-82452380D01*
X164785714Y-82452380D02*
X164785714Y-81452380D01*
X165357142Y-82452380D01*
X165357142Y-81452380D01*
X165738095Y-81452380D02*
X166404761Y-81452380D01*
X165976190Y-82452380D01*
X166976190Y-81452380D02*
X167071428Y-81452380D01*
X167166666Y-81500000D01*
X167214285Y-81547619D01*
X167261904Y-81642857D01*
X167309523Y-81833333D01*
X167309523Y-82071428D01*
X167261904Y-82261904D01*
X167214285Y-82357142D01*
X167166666Y-82404761D01*
X167071428Y-82452380D01*
X166976190Y-82452380D01*
X166880952Y-82404761D01*
X166833333Y-82357142D01*
X166785714Y-82261904D01*
X166738095Y-82071428D01*
X166738095Y-81833333D01*
X166785714Y-81642857D01*
X166833333Y-81547619D01*
X166880952Y-81500000D01*
X166976190Y-81452380D01*
X167928571Y-81452380D02*
X168023809Y-81452380D01*
X168119047Y-81500000D01*
X168166666Y-81547619D01*
X168214285Y-81642857D01*
X168261904Y-81833333D01*
X168261904Y-82071428D01*
X168214285Y-82261904D01*
X168166666Y-82357142D01*
X168119047Y-82404761D01*
X168023809Y-82452380D01*
X167928571Y-82452380D01*
X167833333Y-82404761D01*
X167785714Y-82357142D01*
X167738095Y-82261904D01*
X167690476Y-82071428D01*
X167690476Y-81833333D01*
X167738095Y-81642857D01*
X167785714Y-81547619D01*
X167833333Y-81500000D01*
X167928571Y-81452380D01*
X168642857Y-81547619D02*
X168690476Y-81500000D01*
X168785714Y-81452380D01*
X169023809Y-81452380D01*
X169119047Y-81500000D01*
X169166666Y-81547619D01*
X169214285Y-81642857D01*
X169214285Y-81738095D01*
X169166666Y-81880952D01*
X168595238Y-82452380D01*
X169214285Y-82452380D01*
X152952380Y-80595238D02*
X152952380Y-81166666D01*
X152952380Y-80880952D02*
X151952380Y-80880952D01*
X152095238Y-80976190D01*
X152190476Y-81071428D01*
X152238095Y-81166666D01*
X151952380Y-79976190D02*
X151952380Y-79880952D01*
X152000000Y-79785714D01*
X152047619Y-79738095D01*
X152142857Y-79690476D01*
X152333333Y-79642857D01*
X152571428Y-79642857D01*
X152761904Y-79690476D01*
X152857142Y-79738095D01*
X152904761Y-79785714D01*
X152952380Y-79880952D01*
X152952380Y-79976190D01*
X152904761Y-80071428D01*
X152857142Y-80119047D01*
X152761904Y-80166666D01*
X152571428Y-80214285D01*
X152333333Y-80214285D01*
X152142857Y-80166666D01*
X152047619Y-80119047D01*
X152000000Y-80071428D01*
X151952380Y-79976190D01*
X152952380Y-79214285D02*
X151952380Y-79214285D01*
X152571428Y-79119047D02*
X152952380Y-78833333D01*
X152285714Y-78833333D02*
X152666666Y-79214285D01*
X167952380Y-109595238D02*
X167952380Y-110166666D01*
X167952380Y-109880952D02*
X166952380Y-109880952D01*
X167095238Y-109976190D01*
X167190476Y-110071428D01*
X167238095Y-110166666D01*
X166952380Y-108976190D02*
X166952380Y-108880952D01*
X167000000Y-108785714D01*
X167047619Y-108738095D01*
X167142857Y-108690476D01*
X167333333Y-108642857D01*
X167571428Y-108642857D01*
X167761904Y-108690476D01*
X167857142Y-108738095D01*
X167904761Y-108785714D01*
X167952380Y-108880952D01*
X167952380Y-108976190D01*
X167904761Y-109071428D01*
X167857142Y-109119047D01*
X167761904Y-109166666D01*
X167571428Y-109214285D01*
X167333333Y-109214285D01*
X167142857Y-109166666D01*
X167047619Y-109119047D01*
X167000000Y-109071428D01*
X166952380Y-108976190D01*
X167952380Y-108214285D02*
X166952380Y-108214285D01*
X167571428Y-108119047D02*
X167952380Y-107833333D01*
X167285714Y-107833333D02*
X167666666Y-108214285D01*
X162952380Y-109595238D02*
X162952380Y-110166666D01*
X162952380Y-109880952D02*
X161952380Y-109880952D01*
X162095238Y-109976190D01*
X162190476Y-110071428D01*
X162238095Y-110166666D01*
X161952380Y-108976190D02*
X161952380Y-108880952D01*
X162000000Y-108785714D01*
X162047619Y-108738095D01*
X162142857Y-108690476D01*
X162333333Y-108642857D01*
X162571428Y-108642857D01*
X162761904Y-108690476D01*
X162857142Y-108738095D01*
X162904761Y-108785714D01*
X162952380Y-108880952D01*
X162952380Y-108976190D01*
X162904761Y-109071428D01*
X162857142Y-109119047D01*
X162761904Y-109166666D01*
X162571428Y-109214285D01*
X162333333Y-109214285D01*
X162142857Y-109166666D01*
X162047619Y-109119047D01*
X162000000Y-109071428D01*
X161952380Y-108976190D01*
X162952380Y-108214285D02*
X161952380Y-108214285D01*
X162571428Y-108119047D02*
X162952380Y-107833333D01*
X162285714Y-107833333D02*
X162666666Y-108214285D01*
X157952380Y-109595238D02*
X157952380Y-110166666D01*
X157952380Y-109880952D02*
X156952380Y-109880952D01*
X157095238Y-109976190D01*
X157190476Y-110071428D01*
X157238095Y-110166666D01*
X156952380Y-108976190D02*
X156952380Y-108880952D01*
X157000000Y-108785714D01*
X157047619Y-108738095D01*
X157142857Y-108690476D01*
X157333333Y-108642857D01*
X157571428Y-108642857D01*
X157761904Y-108690476D01*
X157857142Y-108738095D01*
X157904761Y-108785714D01*
X157952380Y-108880952D01*
X157952380Y-108976190D01*
X157904761Y-109071428D01*
X157857142Y-109119047D01*
X157761904Y-109166666D01*
X157571428Y-109214285D01*
X157333333Y-109214285D01*
X157142857Y-109166666D01*
X157047619Y-109119047D01*
X157000000Y-109071428D01*
X156952380Y-108976190D01*
X157952380Y-108214285D02*
X156952380Y-108214285D01*
X157571428Y-108119047D02*
X157952380Y-107833333D01*
X157285714Y-107833333D02*
X157666666Y-108214285D01*
X152952380Y-109595238D02*
X152952380Y-110166666D01*
X152952380Y-109880952D02*
X151952380Y-109880952D01*
X152095238Y-109976190D01*
X152190476Y-110071428D01*
X152238095Y-110166666D01*
X151952380Y-108976190D02*
X151952380Y-108880952D01*
X152000000Y-108785714D01*
X152047619Y-108738095D01*
X152142857Y-108690476D01*
X152333333Y-108642857D01*
X152571428Y-108642857D01*
X152761904Y-108690476D01*
X152857142Y-108738095D01*
X152904761Y-108785714D01*
X152952380Y-108880952D01*
X152952380Y-108976190D01*
X152904761Y-109071428D01*
X152857142Y-109119047D01*
X152761904Y-109166666D01*
X152571428Y-109214285D01*
X152333333Y-109214285D01*
X152142857Y-109166666D01*
X152047619Y-109119047D01*
X152000000Y-109071428D01*
X151952380Y-108976190D01*
X152952380Y-108214285D02*
X151952380Y-108214285D01*
X152571428Y-108119047D02*
X152952380Y-107833333D01*
X152285714Y-107833333D02*
X152666666Y-108214285D01*
X147952380Y-109595238D02*
X147952380Y-110166666D01*
X147952380Y-109880952D02*
X146952380Y-109880952D01*
X147095238Y-109976190D01*
X147190476Y-110071428D01*
X147238095Y-110166666D01*
X146952380Y-108976190D02*
X146952380Y-108880952D01*
X147000000Y-108785714D01*
X147047619Y-108738095D01*
X147142857Y-108690476D01*
X147333333Y-108642857D01*
X147571428Y-108642857D01*
X147761904Y-108690476D01*
X147857142Y-108738095D01*
X147904761Y-108785714D01*
X147952380Y-108880952D01*
X147952380Y-108976190D01*
X147904761Y-109071428D01*
X147857142Y-109119047D01*
X147761904Y-109166666D01*
X147571428Y-109214285D01*
X147333333Y-109214285D01*
X147142857Y-109166666D01*
X147047619Y-109119047D01*
X147000000Y-109071428D01*
X146952380Y-108976190D01*
X147952380Y-108214285D02*
X146952380Y-108214285D01*
X147571428Y-108119047D02*
X147952380Y-107833333D01*
X147285714Y-107833333D02*
X147666666Y-108214285D01*
X195952380Y-66119047D02*
X195952380Y-66690476D01*
X195952380Y-66404761D02*
X194952380Y-66404761D01*
X195095238Y-66500000D01*
X195190476Y-66595238D01*
X195238095Y-66690476D01*
X194952380Y-65500000D02*
X194952380Y-65404761D01*
X195000000Y-65309523D01*
X195047619Y-65261904D01*
X195142857Y-65214285D01*
X195333333Y-65166666D01*
X195571428Y-65166666D01*
X195761904Y-65214285D01*
X195857142Y-65261904D01*
X195904761Y-65309523D01*
X195952380Y-65404761D01*
X195952380Y-65500000D01*
X195904761Y-65595238D01*
X195857142Y-65642857D01*
X195761904Y-65690476D01*
X195571428Y-65738095D01*
X195333333Y-65738095D01*
X195142857Y-65690476D01*
X195047619Y-65642857D01*
X195000000Y-65595238D01*
X194952380Y-65500000D01*
X194952380Y-64547619D02*
X194952380Y-64452380D01*
X195000000Y-64357142D01*
X195047619Y-64309523D01*
X195142857Y-64261904D01*
X195333333Y-64214285D01*
X195571428Y-64214285D01*
X195761904Y-64261904D01*
X195857142Y-64309523D01*
X195904761Y-64357142D01*
X195952380Y-64452380D01*
X195952380Y-64547619D01*
X195904761Y-64642857D01*
X195857142Y-64690476D01*
X195761904Y-64738095D01*
X195571428Y-64785714D01*
X195333333Y-64785714D01*
X195142857Y-64738095D01*
X195047619Y-64690476D01*
X195000000Y-64642857D01*
X194952380Y-64547619D01*
X195285714Y-63785714D02*
X195952380Y-63785714D01*
X195380952Y-63785714D02*
X195333333Y-63738095D01*
X195285714Y-63642857D01*
X195285714Y-63500000D01*
X195333333Y-63404761D01*
X195428571Y-63357142D01*
X195952380Y-63357142D01*
X174952380Y-66119047D02*
X174952380Y-66690476D01*
X174952380Y-66404761D02*
X173952380Y-66404761D01*
X174095238Y-66500000D01*
X174190476Y-66595238D01*
X174238095Y-66690476D01*
X173952380Y-65500000D02*
X173952380Y-65404761D01*
X174000000Y-65309523D01*
X174047619Y-65261904D01*
X174142857Y-65214285D01*
X174333333Y-65166666D01*
X174571428Y-65166666D01*
X174761904Y-65214285D01*
X174857142Y-65261904D01*
X174904761Y-65309523D01*
X174952380Y-65404761D01*
X174952380Y-65500000D01*
X174904761Y-65595238D01*
X174857142Y-65642857D01*
X174761904Y-65690476D01*
X174571428Y-65738095D01*
X174333333Y-65738095D01*
X174142857Y-65690476D01*
X174047619Y-65642857D01*
X174000000Y-65595238D01*
X173952380Y-65500000D01*
X173952380Y-64547619D02*
X173952380Y-64452380D01*
X174000000Y-64357142D01*
X174047619Y-64309523D01*
X174142857Y-64261904D01*
X174333333Y-64214285D01*
X174571428Y-64214285D01*
X174761904Y-64261904D01*
X174857142Y-64309523D01*
X174904761Y-64357142D01*
X174952380Y-64452380D01*
X174952380Y-64547619D01*
X174904761Y-64642857D01*
X174857142Y-64690476D01*
X174761904Y-64738095D01*
X174571428Y-64785714D01*
X174333333Y-64785714D01*
X174142857Y-64738095D01*
X174047619Y-64690476D01*
X174000000Y-64642857D01*
X173952380Y-64547619D01*
X174285714Y-63785714D02*
X174952380Y-63785714D01*
X174380952Y-63785714D02*
X174333333Y-63738095D01*
X174285714Y-63642857D01*
X174285714Y-63500000D01*
X174333333Y-63404761D01*
X174428571Y-63357142D01*
X174952380Y-63357142D01*
X153952380Y-66119047D02*
X153952380Y-66690476D01*
X153952380Y-66404761D02*
X152952380Y-66404761D01*
X153095238Y-66500000D01*
X153190476Y-66595238D01*
X153238095Y-66690476D01*
X152952380Y-65500000D02*
X152952380Y-65404761D01*
X153000000Y-65309523D01*
X153047619Y-65261904D01*
X153142857Y-65214285D01*
X153333333Y-65166666D01*
X153571428Y-65166666D01*
X153761904Y-65214285D01*
X153857142Y-65261904D01*
X153904761Y-65309523D01*
X153952380Y-65404761D01*
X153952380Y-65500000D01*
X153904761Y-65595238D01*
X153857142Y-65642857D01*
X153761904Y-65690476D01*
X153571428Y-65738095D01*
X153333333Y-65738095D01*
X153142857Y-65690476D01*
X153047619Y-65642857D01*
X153000000Y-65595238D01*
X152952380Y-65500000D01*
X152952380Y-64547619D02*
X152952380Y-64452380D01*
X153000000Y-64357142D01*
X153047619Y-64309523D01*
X153142857Y-64261904D01*
X153333333Y-64214285D01*
X153571428Y-64214285D01*
X153761904Y-64261904D01*
X153857142Y-64309523D01*
X153904761Y-64357142D01*
X153952380Y-64452380D01*
X153952380Y-64547619D01*
X153904761Y-64642857D01*
X153857142Y-64690476D01*
X153761904Y-64738095D01*
X153571428Y-64785714D01*
X153333333Y-64785714D01*
X153142857Y-64738095D01*
X153047619Y-64690476D01*
X153000000Y-64642857D01*
X152952380Y-64547619D01*
X153285714Y-63785714D02*
X153952380Y-63785714D01*
X153380952Y-63785714D02*
X153333333Y-63738095D01*
X153285714Y-63642857D01*
X153285714Y-63500000D01*
X153333333Y-63404761D01*
X153428571Y-63357142D01*
X153952380Y-63357142D01*
X132952380Y-66119047D02*
X132952380Y-66690476D01*
X132952380Y-66404761D02*
X131952380Y-66404761D01*
X132095238Y-66500000D01*
X132190476Y-66595238D01*
X132238095Y-66690476D01*
X131952380Y-65500000D02*
X131952380Y-65404761D01*
X132000000Y-65309523D01*
X132047619Y-65261904D01*
X132142857Y-65214285D01*
X132333333Y-65166666D01*
X132571428Y-65166666D01*
X132761904Y-65214285D01*
X132857142Y-65261904D01*
X132904761Y-65309523D01*
X132952380Y-65404761D01*
X132952380Y-65500000D01*
X132904761Y-65595238D01*
X132857142Y-65642857D01*
X132761904Y-65690476D01*
X132571428Y-65738095D01*
X132333333Y-65738095D01*
X132142857Y-65690476D01*
X132047619Y-65642857D01*
X132000000Y-65595238D01*
X131952380Y-65500000D01*
X131952380Y-64547619D02*
X131952380Y-64452380D01*
X132000000Y-64357142D01*
X132047619Y-64309523D01*
X132142857Y-64261904D01*
X132333333Y-64214285D01*
X132571428Y-64214285D01*
X132761904Y-64261904D01*
X132857142Y-64309523D01*
X132904761Y-64357142D01*
X132952380Y-64452380D01*
X132952380Y-64547619D01*
X132904761Y-64642857D01*
X132857142Y-64690476D01*
X132761904Y-64738095D01*
X132571428Y-64785714D01*
X132333333Y-64785714D01*
X132142857Y-64738095D01*
X132047619Y-64690476D01*
X132000000Y-64642857D01*
X131952380Y-64547619D01*
X132285714Y-63785714D02*
X132952380Y-63785714D01*
X132380952Y-63785714D02*
X132333333Y-63738095D01*
X132285714Y-63642857D01*
X132285714Y-63500000D01*
X132333333Y-63404761D01*
X132428571Y-63357142D01*
X132952380Y-63357142D01*
X111952380Y-66119047D02*
X111952380Y-66690476D01*
X111952380Y-66404761D02*
X110952380Y-66404761D01*
X111095238Y-66500000D01*
X111190476Y-66595238D01*
X111238095Y-66690476D01*
X110952380Y-65500000D02*
X110952380Y-65404761D01*
X111000000Y-65309523D01*
X111047619Y-65261904D01*
X111142857Y-65214285D01*
X111333333Y-65166666D01*
X111571428Y-65166666D01*
X111761904Y-65214285D01*
X111857142Y-65261904D01*
X111904761Y-65309523D01*
X111952380Y-65404761D01*
X111952380Y-65500000D01*
X111904761Y-65595238D01*
X111857142Y-65642857D01*
X111761904Y-65690476D01*
X111571428Y-65738095D01*
X111333333Y-65738095D01*
X111142857Y-65690476D01*
X111047619Y-65642857D01*
X111000000Y-65595238D01*
X110952380Y-65500000D01*
X110952380Y-64547619D02*
X110952380Y-64452380D01*
X111000000Y-64357142D01*
X111047619Y-64309523D01*
X111142857Y-64261904D01*
X111333333Y-64214285D01*
X111571428Y-64214285D01*
X111761904Y-64261904D01*
X111857142Y-64309523D01*
X111904761Y-64357142D01*
X111952380Y-64452380D01*
X111952380Y-64547619D01*
X111904761Y-64642857D01*
X111857142Y-64690476D01*
X111761904Y-64738095D01*
X111571428Y-64785714D01*
X111333333Y-64785714D01*
X111142857Y-64738095D01*
X111047619Y-64690476D01*
X111000000Y-64642857D01*
X110952380Y-64547619D01*
X111285714Y-63785714D02*
X111952380Y-63785714D01*
X111380952Y-63785714D02*
X111333333Y-63738095D01*
X111285714Y-63642857D01*
X111285714Y-63500000D01*
X111333333Y-63404761D01*
X111428571Y-63357142D01*
X111952380Y-63357142D01*
X177928571Y-95452380D02*
X177928571Y-94452380D01*
X178261904Y-95166666D01*
X178595238Y-94452380D01*
X178595238Y-95452380D01*
X179261904Y-94452380D02*
X179452380Y-94452380D01*
X179547619Y-94500000D01*
X179642857Y-94595238D01*
X179690476Y-94785714D01*
X179690476Y-95119047D01*
X179642857Y-95309523D01*
X179547619Y-95404761D01*
X179452380Y-95452380D01*
X179261904Y-95452380D01*
X179166666Y-95404761D01*
X179071428Y-95309523D01*
X179023809Y-95119047D01*
X179023809Y-94785714D01*
X179071428Y-94595238D01*
X179166666Y-94500000D01*
X179261904Y-94452380D01*
X180071428Y-95404761D02*
X180214285Y-95452380D01*
X180452380Y-95452380D01*
X180547619Y-95404761D01*
X180595238Y-95357142D01*
X180642857Y-95261904D01*
X180642857Y-95166666D01*
X180595238Y-95071428D01*
X180547619Y-95023809D01*
X180452380Y-94976190D01*
X180261904Y-94928571D01*
X180166666Y-94880952D01*
X180119047Y-94833333D01*
X180071428Y-94738095D01*
X180071428Y-94642857D01*
X180119047Y-94547619D01*
X180166666Y-94500000D01*
X180261904Y-94452380D01*
X180500000Y-94452380D01*
X180642857Y-94500000D01*
X181071428Y-95452380D02*
X181071428Y-94452380D01*
X178309523Y-92162380D02*
X177833333Y-92162380D01*
X177785714Y-92638571D01*
X177833333Y-92590952D01*
X177928571Y-92543333D01*
X178166666Y-92543333D01*
X178261904Y-92590952D01*
X178309523Y-92638571D01*
X178357142Y-92733809D01*
X178357142Y-92971904D01*
X178309523Y-93067142D01*
X178261904Y-93114761D01*
X178166666Y-93162380D01*
X177928571Y-93162380D01*
X177833333Y-93114761D01*
X177785714Y-93067142D01*
X178642857Y-92162380D02*
X178976190Y-93162380D01*
X179309523Y-92162380D01*
X169214285Y-95404761D02*
X169357142Y-95452380D01*
X169595238Y-95452380D01*
X169690476Y-95404761D01*
X169738095Y-95357142D01*
X169785714Y-95261904D01*
X169785714Y-95166666D01*
X169738095Y-95071428D01*
X169690476Y-95023809D01*
X169595238Y-94976190D01*
X169404761Y-94928571D01*
X169309523Y-94880952D01*
X169261904Y-94833333D01*
X169214285Y-94738095D01*
X169214285Y-94642857D01*
X169261904Y-94547619D01*
X169309523Y-94500000D01*
X169404761Y-94452380D01*
X169642857Y-94452380D01*
X169785714Y-94500000D01*
X170785714Y-95357142D02*
X170738095Y-95404761D01*
X170595238Y-95452380D01*
X170500000Y-95452380D01*
X170357142Y-95404761D01*
X170261904Y-95309523D01*
X170214285Y-95214285D01*
X170166666Y-95023809D01*
X170166666Y-94880952D01*
X170214285Y-94690476D01*
X170261904Y-94595238D01*
X170357142Y-94500000D01*
X170500000Y-94452380D01*
X170595238Y-94452380D01*
X170738095Y-94500000D01*
X170785714Y-94547619D01*
X171214285Y-95452380D02*
X171214285Y-94452380D01*
X171785714Y-95452380D02*
X171357142Y-94880952D01*
X171785714Y-94452380D02*
X171214285Y-95023809D01*
X168608571Y-92952380D02*
X168608571Y-91952380D01*
X168941904Y-92666666D01*
X169275238Y-91952380D01*
X169275238Y-92952380D01*
X169751428Y-92952380D02*
X169751428Y-91952380D01*
X170180000Y-92904761D02*
X170322857Y-92952380D01*
X170560952Y-92952380D01*
X170656190Y-92904761D01*
X170703809Y-92857142D01*
X170751428Y-92761904D01*
X170751428Y-92666666D01*
X170703809Y-92571428D01*
X170656190Y-92523809D01*
X170560952Y-92476190D01*
X170370476Y-92428571D01*
X170275238Y-92380952D01*
X170227619Y-92333333D01*
X170180000Y-92238095D01*
X170180000Y-92142857D01*
X170227619Y-92047619D01*
X170275238Y-92000000D01*
X170370476Y-91952380D01*
X170608571Y-91952380D01*
X170751428Y-92000000D01*
X171370476Y-91952380D02*
X171560952Y-91952380D01*
X171656190Y-92000000D01*
X171751428Y-92095238D01*
X171799047Y-92285714D01*
X171799047Y-92619047D01*
X171751428Y-92809523D01*
X171656190Y-92904761D01*
X171560952Y-92952380D01*
X171370476Y-92952380D01*
X171275238Y-92904761D01*
X171180000Y-92809523D01*
X171132380Y-92619047D01*
X171132380Y-92285714D01*
X171180000Y-92095238D01*
X171275238Y-92000000D01*
X171370476Y-91952380D01*
D12*
X184678571Y-99438571D02*
X184678571Y-97938571D01*
X185035714Y-97938571D01*
X185250000Y-98010000D01*
X185392857Y-98152857D01*
X185464285Y-98295714D01*
X185535714Y-98581428D01*
X185535714Y-98795714D01*
X185464285Y-99081428D01*
X185392857Y-99224285D01*
X185250000Y-99367142D01*
X185035714Y-99438571D01*
X184678571Y-99438571D01*
X186821428Y-98438571D02*
X186821428Y-99438571D01*
X186464285Y-97867142D02*
X186107142Y-98938571D01*
X187035714Y-98938571D01*
X187464285Y-97938571D02*
X188464285Y-97938571D01*
X187821428Y-99438571D01*
X184678571Y-94438571D02*
X184678571Y-92938571D01*
X185035714Y-92938571D01*
X185250000Y-93010000D01*
X185392857Y-93152857D01*
X185464285Y-93295714D01*
X185535714Y-93581428D01*
X185535714Y-93795714D01*
X185464285Y-94081428D01*
X185392857Y-94224285D01*
X185250000Y-94367142D01*
X185035714Y-94438571D01*
X184678571Y-94438571D01*
X186821428Y-93438571D02*
X186821428Y-94438571D01*
X186464285Y-92867142D02*
X186107142Y-93938571D01*
X187035714Y-93938571D01*
X188321428Y-92938571D02*
X187607142Y-92938571D01*
X187535714Y-93652857D01*
X187607142Y-93581428D01*
X187750000Y-93510000D01*
X188107142Y-93510000D01*
X188250000Y-93581428D01*
X188321428Y-93652857D01*
X188392857Y-93795714D01*
X188392857Y-94152857D01*
X188321428Y-94295714D01*
X188250000Y-94367142D01*
X188107142Y-94438571D01*
X187750000Y-94438571D01*
X187607142Y-94367142D01*
X187535714Y-94295714D01*
X184678571Y-96938571D02*
X184678571Y-95438571D01*
X185035714Y-95438571D01*
X185250000Y-95510000D01*
X185392857Y-95652857D01*
X185464285Y-95795714D01*
X185535714Y-96081428D01*
X185535714Y-96295714D01*
X185464285Y-96581428D01*
X185392857Y-96724285D01*
X185250000Y-96867142D01*
X185035714Y-96938571D01*
X184678571Y-96938571D01*
X186821428Y-95938571D02*
X186821428Y-96938571D01*
X186464285Y-95367142D02*
X186107142Y-96438571D01*
X187035714Y-96438571D01*
X188250000Y-95438571D02*
X187964285Y-95438571D01*
X187821428Y-95510000D01*
X187750000Y-95581428D01*
X187607142Y-95795714D01*
X187535714Y-96081428D01*
X187535714Y-96652857D01*
X187607142Y-96795714D01*
X187678571Y-96867142D01*
X187821428Y-96938571D01*
X188107142Y-96938571D01*
X188250000Y-96867142D01*
X188321428Y-96795714D01*
X188392857Y-96652857D01*
X188392857Y-96295714D01*
X188321428Y-96152857D01*
X188250000Y-96081428D01*
X188107142Y-96010000D01*
X187821428Y-96010000D01*
X187678571Y-96081428D01*
X187607142Y-96152857D01*
X187535714Y-96295714D01*
X184678571Y-89438571D02*
X184678571Y-87938571D01*
X185035714Y-87938571D01*
X185250000Y-88010000D01*
X185392857Y-88152857D01*
X185464285Y-88295714D01*
X185535714Y-88581428D01*
X185535714Y-88795714D01*
X185464285Y-89081428D01*
X185392857Y-89224285D01*
X185250000Y-89367142D01*
X185035714Y-89438571D01*
X184678571Y-89438571D01*
X186821428Y-88438571D02*
X186821428Y-89438571D01*
X186464285Y-87867142D02*
X186107142Y-88938571D01*
X187035714Y-88938571D01*
X187464285Y-87938571D02*
X188392857Y-87938571D01*
X187892857Y-88510000D01*
X188107142Y-88510000D01*
X188250000Y-88581428D01*
X188321428Y-88652857D01*
X188392857Y-88795714D01*
X188392857Y-89152857D01*
X188321428Y-89295714D01*
X188250000Y-89367142D01*
X188107142Y-89438571D01*
X187678571Y-89438571D01*
X187535714Y-89367142D01*
X187464285Y-89295714D01*
X184678571Y-91938571D02*
X184678571Y-90438571D01*
X185035714Y-90438571D01*
X185250000Y-90510000D01*
X185392857Y-90652857D01*
X185464285Y-90795714D01*
X185535714Y-91081428D01*
X185535714Y-91295714D01*
X185464285Y-91581428D01*
X185392857Y-91724285D01*
X185250000Y-91867142D01*
X185035714Y-91938571D01*
X184678571Y-91938571D01*
X186821428Y-90938571D02*
X186821428Y-91938571D01*
X186464285Y-90367142D02*
X186107142Y-91438571D01*
X187035714Y-91438571D01*
X188250000Y-90938571D02*
X188250000Y-91938571D01*
X187892857Y-90367142D02*
X187535714Y-91438571D01*
X188464285Y-91438571D01*
X184678571Y-86898571D02*
X184678571Y-85398571D01*
X185035714Y-85398571D01*
X185250000Y-85470000D01*
X185392857Y-85612857D01*
X185464285Y-85755714D01*
X185535714Y-86041428D01*
X185535714Y-86255714D01*
X185464285Y-86541428D01*
X185392857Y-86684285D01*
X185250000Y-86827142D01*
X185035714Y-86898571D01*
X184678571Y-86898571D01*
X186821428Y-85898571D02*
X186821428Y-86898571D01*
X186464285Y-85327142D02*
X186107142Y-86398571D01*
X187035714Y-86398571D01*
X187535714Y-85541428D02*
X187607142Y-85470000D01*
X187750000Y-85398571D01*
X188107142Y-85398571D01*
X188250000Y-85470000D01*
X188321428Y-85541428D01*
X188392857Y-85684285D01*
X188392857Y-85827142D01*
X188321428Y-86041428D01*
X187464285Y-86898571D01*
X188392857Y-86898571D01*
X184678571Y-102138571D02*
X184678571Y-100638571D01*
X185035714Y-100638571D01*
X185250000Y-100710000D01*
X185392857Y-100852857D01*
X185464285Y-100995714D01*
X185535714Y-101281428D01*
X185535714Y-101495714D01*
X185464285Y-101781428D01*
X185392857Y-101924285D01*
X185250000Y-102067142D01*
X185035714Y-102138571D01*
X184678571Y-102138571D01*
X186821428Y-101138571D02*
X186821428Y-102138571D01*
X186464285Y-100567142D02*
X186107142Y-101638571D01*
X187035714Y-101638571D01*
X187821428Y-101281428D02*
X187678571Y-101210000D01*
X187607142Y-101138571D01*
X187535714Y-100995714D01*
X187535714Y-100924285D01*
X187607142Y-100781428D01*
X187678571Y-100710000D01*
X187821428Y-100638571D01*
X188107142Y-100638571D01*
X188250000Y-100710000D01*
X188321428Y-100781428D01*
X188392857Y-100924285D01*
X188392857Y-100995714D01*
X188321428Y-101138571D01*
X188250000Y-101210000D01*
X188107142Y-101281428D01*
X187821428Y-101281428D01*
X187678571Y-101352857D01*
X187607142Y-101424285D01*
X187535714Y-101567142D01*
X187535714Y-101852857D01*
X187607142Y-101995714D01*
X187678571Y-102067142D01*
X187821428Y-102138571D01*
X188107142Y-102138571D01*
X188250000Y-102067142D01*
X188321428Y-101995714D01*
X188392857Y-101852857D01*
X188392857Y-101567142D01*
X188321428Y-101424285D01*
X188250000Y-101352857D01*
X188107142Y-101281428D01*
X184678571Y-104678571D02*
X184678571Y-103178571D01*
X185035714Y-103178571D01*
X185250000Y-103250000D01*
X185392857Y-103392857D01*
X185464285Y-103535714D01*
X185535714Y-103821428D01*
X185535714Y-104035714D01*
X185464285Y-104321428D01*
X185392857Y-104464285D01*
X185250000Y-104607142D01*
X185035714Y-104678571D01*
X184678571Y-104678571D01*
X186821428Y-103678571D02*
X186821428Y-104678571D01*
X186464285Y-103107142D02*
X186107142Y-104178571D01*
X187035714Y-104178571D01*
X187678571Y-104678571D02*
X187964285Y-104678571D01*
X188107142Y-104607142D01*
X188178571Y-104535714D01*
X188321428Y-104321428D01*
X188392857Y-104035714D01*
X188392857Y-103464285D01*
X188321428Y-103321428D01*
X188250000Y-103250000D01*
X188107142Y-103178571D01*
X187821428Y-103178571D01*
X187678571Y-103250000D01*
X187607142Y-103321428D01*
X187535714Y-103464285D01*
X187535714Y-103821428D01*
X187607142Y-103964285D01*
X187678571Y-104035714D01*
X187821428Y-104107142D01*
X188107142Y-104107142D01*
X188250000Y-104035714D01*
X188321428Y-103964285D01*
X188392857Y-103821428D01*
X184678571Y-107178571D02*
X184678571Y-105678571D01*
X185035714Y-105678571D01*
X185250000Y-105750000D01*
X185392857Y-105892857D01*
X185464285Y-106035714D01*
X185535714Y-106321428D01*
X185535714Y-106535714D01*
X185464285Y-106821428D01*
X185392857Y-106964285D01*
X185250000Y-107107142D01*
X185035714Y-107178571D01*
X184678571Y-107178571D01*
X186892857Y-105678571D02*
X186178571Y-105678571D01*
X186107142Y-106392857D01*
X186178571Y-106321428D01*
X186321428Y-106250000D01*
X186678571Y-106250000D01*
X186821428Y-106321428D01*
X186892857Y-106392857D01*
X186964285Y-106535714D01*
X186964285Y-106892857D01*
X186892857Y-107035714D01*
X186821428Y-107107142D01*
X186678571Y-107178571D01*
X186321428Y-107178571D01*
X186178571Y-107107142D01*
X186107142Y-107035714D01*
X187892857Y-105678571D02*
X188035714Y-105678571D01*
X188178571Y-105750000D01*
X188250000Y-105821428D01*
X188321428Y-105964285D01*
X188392857Y-106250000D01*
X188392857Y-106607142D01*
X188321428Y-106892857D01*
X188250000Y-107035714D01*
X188178571Y-107107142D01*
X188035714Y-107178571D01*
X187892857Y-107178571D01*
X187750000Y-107107142D01*
X187678571Y-107035714D01*
X187607142Y-106892857D01*
X187535714Y-106607142D01*
X187535714Y-106250000D01*
X187607142Y-105964285D01*
X187678571Y-105821428D01*
X187750000Y-105750000D01*
X187892857Y-105678571D01*
X184678571Y-109678571D02*
X184678571Y-108178571D01*
X185035714Y-108178571D01*
X185250000Y-108250000D01*
X185392857Y-108392857D01*
X185464285Y-108535714D01*
X185535714Y-108821428D01*
X185535714Y-109035714D01*
X185464285Y-109321428D01*
X185392857Y-109464285D01*
X185250000Y-109607142D01*
X185035714Y-109678571D01*
X184678571Y-109678571D01*
X186892857Y-108178571D02*
X186178571Y-108178571D01*
X186107142Y-108892857D01*
X186178571Y-108821428D01*
X186321428Y-108750000D01*
X186678571Y-108750000D01*
X186821428Y-108821428D01*
X186892857Y-108892857D01*
X186964285Y-109035714D01*
X186964285Y-109392857D01*
X186892857Y-109535714D01*
X186821428Y-109607142D01*
X186678571Y-109678571D01*
X186321428Y-109678571D01*
X186178571Y-109607142D01*
X186107142Y-109535714D01*
X188392857Y-109678571D02*
X187535714Y-109678571D01*
X187964285Y-109678571D02*
X187964285Y-108178571D01*
X187821428Y-108392857D01*
X187678571Y-108535714D01*
X187535714Y-108607142D01*
X184678571Y-112178571D02*
X184678571Y-110678571D01*
X185035714Y-110678571D01*
X185250000Y-110750000D01*
X185392857Y-110892857D01*
X185464285Y-111035714D01*
X185535714Y-111321428D01*
X185535714Y-111535714D01*
X185464285Y-111821428D01*
X185392857Y-111964285D01*
X185250000Y-112107142D01*
X185035714Y-112178571D01*
X184678571Y-112178571D01*
X186892857Y-110678571D02*
X186178571Y-110678571D01*
X186107142Y-111392857D01*
X186178571Y-111321428D01*
X186321428Y-111250000D01*
X186678571Y-111250000D01*
X186821428Y-111321428D01*
X186892857Y-111392857D01*
X186964285Y-111535714D01*
X186964285Y-111892857D01*
X186892857Y-112035714D01*
X186821428Y-112107142D01*
X186678571Y-112178571D01*
X186321428Y-112178571D01*
X186178571Y-112107142D01*
X186107142Y-112035714D01*
X187535714Y-110821428D02*
X187607142Y-110750000D01*
X187750000Y-110678571D01*
X188107142Y-110678571D01*
X188250000Y-110750000D01*
X188321428Y-110821428D01*
X188392857Y-110964285D01*
X188392857Y-111107142D01*
X188321428Y-111321428D01*
X187464285Y-112178571D01*
X188392857Y-112178571D01*
X184678571Y-114678571D02*
X184678571Y-113178571D01*
X185035714Y-113178571D01*
X185250000Y-113250000D01*
X185392857Y-113392857D01*
X185464285Y-113535714D01*
X185535714Y-113821428D01*
X185535714Y-114035714D01*
X185464285Y-114321428D01*
X185392857Y-114464285D01*
X185250000Y-114607142D01*
X185035714Y-114678571D01*
X184678571Y-114678571D01*
X186892857Y-113178571D02*
X186178571Y-113178571D01*
X186107142Y-113892857D01*
X186178571Y-113821428D01*
X186321428Y-113750000D01*
X186678571Y-113750000D01*
X186821428Y-113821428D01*
X186892857Y-113892857D01*
X186964285Y-114035714D01*
X186964285Y-114392857D01*
X186892857Y-114535714D01*
X186821428Y-114607142D01*
X186678571Y-114678571D01*
X186321428Y-114678571D01*
X186178571Y-114607142D01*
X186107142Y-114535714D01*
X187464285Y-113178571D02*
X188392857Y-113178571D01*
X187892857Y-113750000D01*
X188107142Y-113750000D01*
X188250000Y-113821428D01*
X188321428Y-113892857D01*
X188392857Y-114035714D01*
X188392857Y-114392857D01*
X188321428Y-114535714D01*
X188250000Y-114607142D01*
X188107142Y-114678571D01*
X187678571Y-114678571D01*
X187535714Y-114607142D01*
X187464285Y-114535714D01*
X156035714Y-80178571D02*
X155321428Y-80178571D01*
X155321428Y-78678571D01*
X156535714Y-79392857D02*
X157035714Y-79392857D01*
X157250000Y-80178571D02*
X156535714Y-80178571D01*
X156535714Y-78678571D01*
X157250000Y-78678571D01*
X157892857Y-80178571D02*
X157892857Y-78678571D01*
X158250000Y-78678571D01*
X158464285Y-78750000D01*
X158607142Y-78892857D01*
X158678571Y-79035714D01*
X158750000Y-79321428D01*
X158750000Y-79535714D01*
X158678571Y-79821428D01*
X158607142Y-79964285D01*
X158464285Y-80107142D01*
X158250000Y-80178571D01*
X157892857Y-80178571D01*
X155857142Y-76250000D02*
X155714285Y-76178571D01*
X155500000Y-76178571D01*
X155285714Y-76250000D01*
X155142857Y-76392857D01*
X155071428Y-76535714D01*
X155000000Y-76821428D01*
X155000000Y-77035714D01*
X155071428Y-77321428D01*
X155142857Y-77464285D01*
X155285714Y-77607142D01*
X155500000Y-77678571D01*
X155642857Y-77678571D01*
X155857142Y-77607142D01*
X155928571Y-77535714D01*
X155928571Y-77035714D01*
X155642857Y-77035714D01*
X156571428Y-77678571D02*
X156571428Y-76178571D01*
X157428571Y-77678571D01*
X157428571Y-76178571D01*
X158142857Y-77678571D02*
X158142857Y-76178571D01*
X158500000Y-76178571D01*
X158714285Y-76250000D01*
X158857142Y-76392857D01*
X158928571Y-76535714D01*
X159000000Y-76821428D01*
X159000000Y-77035714D01*
X158928571Y-77321428D01*
X158857142Y-77464285D01*
X158714285Y-77607142D01*
X158500000Y-77678571D01*
X158142857Y-77678571D01*
X128071428Y-47857142D02*
X128071428Y-49857142D01*
X127357142Y-46714285D02*
X126642857Y-48857142D01*
X128500000Y-48857142D01*
X147500000Y-46857142D02*
X149357142Y-46857142D01*
X148357142Y-48000000D01*
X148785714Y-48000000D01*
X149071428Y-48142857D01*
X149214285Y-48285714D01*
X149357142Y-48571428D01*
X149357142Y-49285714D01*
X149214285Y-49571428D01*
X149071428Y-49714285D01*
X148785714Y-49857142D01*
X147928571Y-49857142D01*
X147642857Y-49714285D01*
X147500000Y-49571428D01*
X168642857Y-47142857D02*
X168785714Y-47000000D01*
X169071428Y-46857142D01*
X169785714Y-46857142D01*
X170071428Y-47000000D01*
X170214285Y-47142857D01*
X170357142Y-47428571D01*
X170357142Y-47714285D01*
X170214285Y-48142857D01*
X168500000Y-49857142D01*
X170357142Y-49857142D01*
X191357142Y-49857142D02*
X189642857Y-49857142D01*
X190500000Y-49857142D02*
X190500000Y-46857142D01*
X190214285Y-47285714D01*
X189928571Y-47571428D01*
X189642857Y-47714285D01*
X211357142Y-46857142D02*
X211642857Y-46857142D01*
X211928571Y-47000000D01*
X212071428Y-47142857D01*
X212214285Y-47428571D01*
X212357142Y-48000000D01*
X212357142Y-48714285D01*
X212214285Y-49285714D01*
X212071428Y-49571428D01*
X211928571Y-49714285D01*
X211642857Y-49857142D01*
X211357142Y-49857142D01*
X211071428Y-49714285D01*
X210928571Y-49571428D01*
X210785714Y-49285714D01*
X210642857Y-48714285D01*
X210642857Y-48000000D01*
X210785714Y-47428571D01*
X210928571Y-47142857D01*
X211071428Y-47000000D01*
X211357142Y-46857142D01*
X122857142Y-58714285D02*
X125142857Y-58714285D01*
X124000000Y-59857142D02*
X124000000Y-57571428D01*
X110857142Y-58714285D02*
X113142857Y-58714285D01*
X143857142Y-58714285D02*
X146142857Y-58714285D01*
X145000000Y-59857142D02*
X145000000Y-57571428D01*
X131857142Y-58714285D02*
X134142857Y-58714285D01*
X164857142Y-58714285D02*
X167142857Y-58714285D01*
X166000000Y-59857142D02*
X166000000Y-57571428D01*
X152857142Y-58714285D02*
X155142857Y-58714285D01*
X185857142Y-58714285D02*
X188142857Y-58714285D01*
X187000000Y-59857142D02*
X187000000Y-57571428D01*
X173857142Y-58714285D02*
X176142857Y-58714285D01*
X194857142Y-58714285D02*
X197142857Y-58714285D01*
X206857142Y-58714285D02*
X209142857Y-58714285D01*
X208000000Y-59857142D02*
X208000000Y-57571428D01*
D11*
X110000000Y-69660000D02*
X207536000Y-69660000D01*
X110000000Y-123000000D02*
X209060000Y-123000000D01*
X207536000Y-69660000D02*
X209060000Y-71184000D01*
X209060000Y-123000000D02*
X209060000Y-121730000D01*
X209060000Y-121730000D02*
X211600000Y-119190000D01*
X211600000Y-119190000D02*
X211600000Y-84900000D01*
X211600000Y-84900000D02*
X209060000Y-82360000D01*
X209060000Y-82360000D02*
X209060000Y-71184000D01*
X110000000Y-69660000D02*
X110000000Y-123000000D01*
D13*
X197510000Y-65171267D02*
X197510000Y-64828733D01*
X196490000Y-65171267D02*
X196490000Y-64828733D01*
X176510000Y-65171267D02*
X176510000Y-64828733D01*
X175490000Y-65171267D02*
X175490000Y-64828733D01*
X154490000Y-65171267D02*
X154490000Y-64828733D01*
X155510000Y-65171267D02*
X155510000Y-64828733D01*
X134510000Y-65171267D02*
X134510000Y-64828733D01*
X133490000Y-65171267D02*
X133490000Y-64828733D01*
X112490000Y-65046267D02*
X112490000Y-64703733D01*
X113510000Y-65046267D02*
X113510000Y-64703733D01*
X150330000Y-103730000D02*
X147670000Y-103730000D01*
X150330000Y-103730000D02*
X150330000Y-101130000D01*
X150330000Y-101130000D02*
X147670000Y-101130000D01*
X147670000Y-103730000D02*
X147670000Y-101130000D01*
X147670000Y-106330000D02*
X147670000Y-105000000D01*
X149000000Y-106330000D02*
X147670000Y-106330000D01*
X154000000Y-106330000D02*
X152670000Y-106330000D01*
X152670000Y-106330000D02*
X152670000Y-105000000D01*
X152670000Y-103730000D02*
X152670000Y-101130000D01*
X155330000Y-101130000D02*
X152670000Y-101130000D01*
X155330000Y-103730000D02*
X155330000Y-101130000D01*
X155330000Y-103730000D02*
X152670000Y-103730000D01*
X160330000Y-103730000D02*
X157670000Y-103730000D01*
X160330000Y-103730000D02*
X160330000Y-101130000D01*
X160330000Y-101130000D02*
X157670000Y-101130000D01*
X157670000Y-103730000D02*
X157670000Y-101130000D01*
X157670000Y-106330000D02*
X157670000Y-105000000D01*
X159000000Y-106330000D02*
X157670000Y-106330000D01*
X165330000Y-103730000D02*
X162670000Y-103730000D01*
X165330000Y-103730000D02*
X165330000Y-101130000D01*
X165330000Y-101130000D02*
X162670000Y-101130000D01*
X162670000Y-103730000D02*
X162670000Y-101130000D01*
X162670000Y-106330000D02*
X162670000Y-105000000D01*
X164000000Y-106330000D02*
X162670000Y-106330000D01*
X169000000Y-106330000D02*
X167670000Y-106330000D01*
X167670000Y-106330000D02*
X167670000Y-105000000D01*
X167670000Y-103730000D02*
X167670000Y-101130000D01*
X170330000Y-101130000D02*
X167670000Y-101130000D01*
X170330000Y-103730000D02*
X170330000Y-101130000D01*
X170330000Y-103730000D02*
X167670000Y-103730000D01*
X161000000Y-75670000D02*
X162330000Y-75670000D01*
X162330000Y-75670000D02*
X162330000Y-77000000D01*
X162330000Y-78270000D02*
X162330000Y-80870000D01*
X159670000Y-80870000D02*
X162330000Y-80870000D01*
X159670000Y-78270000D02*
X159670000Y-80870000D01*
X159670000Y-78270000D02*
X162330000Y-78270000D01*
X164514999Y-77420000D02*
X165974999Y-77420000D01*
X164514999Y-80580000D02*
X166674999Y-80580000D01*
X164514999Y-80580000D02*
X164514999Y-79650000D01*
X164514999Y-77420000D02*
X164514999Y-78350000D01*
X148490000Y-108828733D02*
X148490000Y-109171267D01*
X149510000Y-108828733D02*
X149510000Y-109171267D01*
X154510000Y-108828733D02*
X154510000Y-109171267D01*
X153490000Y-108828733D02*
X153490000Y-109171267D01*
X158490000Y-108828733D02*
X158490000Y-109171267D01*
X159510000Y-108828733D02*
X159510000Y-109171267D01*
X164510000Y-108828733D02*
X164510000Y-109171267D01*
X163490000Y-108828733D02*
X163490000Y-109171267D01*
X168490000Y-108828733D02*
X168490000Y-109171267D01*
X169510000Y-108828733D02*
X169510000Y-109171267D01*
X153490000Y-80171267D02*
X153490000Y-79828733D01*
X154510000Y-80171267D02*
X154510000Y-79828733D01*
X151670000Y-117000000D02*
X151670000Y-115670000D01*
X151670000Y-115670000D02*
X153000000Y-115670000D01*
X154270000Y-115670000D02*
X156870000Y-115670000D01*
X156870000Y-118330000D02*
X156870000Y-115670000D01*
X154270000Y-118330000D02*
X156870000Y-118330000D01*
X154270000Y-118330000D02*
X154270000Y-115670000D01*
X233110000Y-66171267D02*
X233110000Y-65828733D01*
X232090000Y-66171267D02*
X232090000Y-65828733D01*
X232090000Y-57171267D02*
X232090000Y-56828733D01*
X233110000Y-57171267D02*
X233110000Y-56828733D01*
X233110000Y-48171267D02*
X233110000Y-47828733D01*
X232090000Y-48171267D02*
X232090000Y-47828733D01*
X222090000Y-66171267D02*
X222090000Y-65828733D01*
X223110000Y-66171267D02*
X223110000Y-65828733D01*
X223110000Y-57171267D02*
X223110000Y-56828733D01*
X222090000Y-57171267D02*
X222090000Y-56828733D01*
X230010000Y-67385000D02*
X228680000Y-67385000D01*
X228680000Y-67385000D02*
X228680000Y-66625000D01*
X228680000Y-65990000D02*
X228680000Y-64660000D01*
X229702470Y-64660000D02*
X228680000Y-64660000D01*
X231340000Y-64660000D02*
X230317530Y-64660000D01*
X231340000Y-65990000D02*
X231340000Y-64660000D01*
X229250000Y-65990000D02*
X228680000Y-65990000D01*
X231340000Y-65990000D02*
X230770000Y-65990000D01*
X231340000Y-56990000D02*
X230770000Y-56990000D01*
X229250000Y-56990000D02*
X228680000Y-56990000D01*
X231340000Y-56990000D02*
X231340000Y-55660000D01*
X231340000Y-55660000D02*
X230317530Y-55660000D01*
X229702470Y-55660000D02*
X228680000Y-55660000D01*
X228680000Y-56990000D02*
X228680000Y-55660000D01*
X228680000Y-58385000D02*
X228680000Y-57625000D01*
X230010000Y-58385000D02*
X228680000Y-58385000D01*
X230010000Y-49385000D02*
X228680000Y-49385000D01*
X228680000Y-49385000D02*
X228680000Y-48625000D01*
X228680000Y-47990000D02*
X228680000Y-46660000D01*
X229702470Y-46660000D02*
X228680000Y-46660000D01*
X231340000Y-46660000D02*
X230317530Y-46660000D01*
X231340000Y-47990000D02*
X231340000Y-46660000D01*
X229250000Y-47990000D02*
X228680000Y-47990000D01*
X231340000Y-47990000D02*
X230770000Y-47990000D01*
X220010000Y-67385000D02*
X218680000Y-67385000D01*
X218680000Y-67385000D02*
X218680000Y-66625000D01*
X218680000Y-65990000D02*
X218680000Y-64660000D01*
X219702470Y-64660000D02*
X218680000Y-64660000D01*
X221340000Y-64660000D02*
X220317530Y-64660000D01*
X221340000Y-65990000D02*
X221340000Y-64660000D01*
X219250000Y-65990000D02*
X218680000Y-65990000D01*
X221340000Y-65990000D02*
X220770000Y-65990000D01*
X221340000Y-56990000D02*
X220770000Y-56990000D01*
X219250000Y-56990000D02*
X218680000Y-56990000D01*
X221340000Y-56990000D02*
X221340000Y-55660000D01*
X221340000Y-55660000D02*
X220317530Y-55660000D01*
X219702470Y-55660000D02*
X218680000Y-55660000D01*
X218680000Y-56990000D02*
X218680000Y-55660000D01*
X218680000Y-58385000D02*
X218680000Y-57625000D01*
X220010000Y-58385000D02*
X218680000Y-58385000D01*
D11*
X219500000Y-86000000D02*
X233500000Y-86000000D01*
X219500000Y-116000000D02*
X219500000Y-86000000D01*
X233500000Y-116000000D02*
X219500000Y-116000000D01*
X233500000Y-86000000D02*
X233500000Y-116000000D01*
D13*
X220047501Y-49385000D02*
X218717501Y-49385000D01*
X218717501Y-49385000D02*
X218717501Y-48625000D01*
X218717501Y-47990000D02*
X218717501Y-46660000D01*
X219739971Y-46660000D02*
X218717501Y-46660000D01*
X221377501Y-46660000D02*
X220355031Y-46660000D01*
X221377501Y-47990000D02*
X221377501Y-46660000D01*
X219287501Y-47990000D02*
X218717501Y-47990000D01*
X221377501Y-47990000D02*
X220807501Y-47990000D01*
X223110000Y-48171267D02*
X223110000Y-47828733D01*
X222090000Y-48171267D02*
X222090000Y-47828733D01*
X188670000Y-84670000D02*
X190000000Y-84670000D01*
X188670000Y-86000000D02*
X188670000Y-84670000D01*
X188670000Y-87270000D02*
X191330000Y-87270000D01*
X191330000Y-87270000D02*
X191330000Y-115270000D01*
X188670000Y-87270000D02*
X188670000Y-115270000D01*
X188670000Y-115270000D02*
X191330000Y-115270000D01*
X173170000Y-110330000D02*
X173170000Y-109000000D01*
X174500000Y-110330000D02*
X173170000Y-110330000D01*
X175770000Y-110330000D02*
X175770000Y-107670000D01*
X175770000Y-107670000D02*
X183450000Y-107670000D01*
X175770000Y-110330000D02*
X183450000Y-110330000D01*
X183450000Y-110330000D02*
X183450000Y-107670000D01*
X157670000Y-98330000D02*
X157670000Y-97000000D01*
X159000000Y-98330000D02*
X157670000Y-98330000D01*
X160270000Y-98330000D02*
X160270000Y-95670000D01*
X160270000Y-95670000D02*
X165410000Y-95670000D01*
X160270000Y-98330000D02*
X165410000Y-98330000D01*
X165410000Y-98330000D02*
X165410000Y-95670000D01*
X193170000Y-78270000D02*
X195830000Y-78270000D01*
X193170000Y-78270000D02*
X193170000Y-80870000D01*
X193170000Y-80870000D02*
X195830000Y-80870000D01*
X195830000Y-78270000D02*
X195830000Y-80870000D01*
X195830000Y-75670000D02*
X195830000Y-77000000D01*
X194500000Y-75670000D02*
X195830000Y-75670000D01*
X189500000Y-75670000D02*
X190830000Y-75670000D01*
X190830000Y-75670000D02*
X190830000Y-77000000D01*
X190830000Y-78270000D02*
X190830000Y-80870000D01*
X188170000Y-80870000D02*
X190830000Y-80870000D01*
X188170000Y-78270000D02*
X188170000Y-80870000D01*
X188170000Y-78270000D02*
X190830000Y-78270000D01*
X199500000Y-75670000D02*
X200830000Y-75670000D01*
X200830000Y-75670000D02*
X200830000Y-77000000D01*
X200830000Y-78270000D02*
X200830000Y-80870000D01*
X198170000Y-80870000D02*
X200830000Y-80870000D01*
X198170000Y-78270000D02*
X198170000Y-80870000D01*
X198170000Y-78270000D02*
X200830000Y-78270000D01*
X175495001Y-78595001D02*
X178155001Y-78595001D01*
X175495001Y-78595001D02*
X175495001Y-81195001D01*
X175495001Y-81195001D02*
X178155001Y-81195001D01*
X178155001Y-78595001D02*
X178155001Y-81195001D01*
X178155001Y-75995001D02*
X178155001Y-77325001D01*
X176825001Y-75995001D02*
X178155001Y-75995001D01*
X182500000Y-75995001D02*
X183830000Y-75995001D01*
X183830000Y-75995001D02*
X183830000Y-77325001D01*
X183830000Y-78595001D02*
X183830000Y-81195001D01*
X181170000Y-81195001D02*
X183830000Y-81195001D01*
X181170000Y-78595001D02*
X181170000Y-81195001D01*
X181170000Y-78595001D02*
X183830000Y-78595001D01*
D11*
X172484000Y-91353142D02*
X172531619Y-91400761D01*
X172484000Y-91448380D01*
X172436380Y-91400761D01*
X172484000Y-91353142D01*
X172484000Y-91448380D01*
M02*
