G04 #@! TF.GenerationSoftware,KiCad,Pcbnew,5.1.9-73d0e3b20d~88~ubuntu20.04.1*
G04 #@! TF.CreationDate,2021-03-04T10:57:23+01:00*
G04 #@! TF.ProjectId,sbm-120-uv-mount,73626d2d-3132-4302-9d75-762d6d6f756e,rev?*
G04 #@! TF.SameCoordinates,Original*
G04 #@! TF.FileFunction,Soldermask,Top*
G04 #@! TF.FilePolarity,Negative*
%FSLAX46Y46*%
G04 Gerber Fmt 4.6, Leading zero omitted, Abs format (unit mm)*
G04 Created by KiCad (PCBNEW 5.1.9-73d0e3b20d~88~ubuntu20.04.1) date 2021-03-04 10:57:23*
%MOMM*%
%LPD*%
G01*
G04 APERTURE LIST*
%ADD10C,3.200000*%
%ADD11C,0.100000*%
%ADD12R,1.700000X1.700000*%
%ADD13O,1.700000X1.700000*%
%ADD14C,2.200000*%
G04 APERTURE END LIST*
D10*
X141000000Y-100000000D03*
X145500000Y-92205772D03*
X154499999Y-92205772D03*
X159000000Y-100000000D03*
X154500000Y-107794228D03*
X145500000Y-107794228D03*
D11*
G36*
X156482106Y-95159776D02*
G01*
X157432106Y-96805224D01*
X156479478Y-97355224D01*
X155529478Y-95709776D01*
X156482106Y-95159776D01*
G37*
G36*
X157607939Y-94509776D02*
G01*
X158557939Y-96155224D01*
X157821817Y-96580224D01*
X156871817Y-94934776D01*
X157607939Y-94509776D01*
G37*
G36*
X158557939Y-103844776D02*
G01*
X157607939Y-105490224D01*
X156871817Y-105065224D01*
X157821817Y-103419776D01*
X158557939Y-103844776D01*
G37*
G36*
X157432106Y-103194776D02*
G01*
X156482106Y-104840224D01*
X155529478Y-104290224D01*
X156479478Y-102644776D01*
X157432106Y-103194776D01*
G37*
G36*
X142567894Y-96805224D02*
G01*
X143517894Y-95159776D01*
X144470522Y-95709776D01*
X143520522Y-97355224D01*
X142567894Y-96805224D01*
G37*
G36*
X141442061Y-96155224D02*
G01*
X142392061Y-94509776D01*
X143128183Y-94934776D01*
X142178183Y-96580224D01*
X141442061Y-96155224D01*
G37*
G36*
X142392061Y-105490224D02*
G01*
X141442061Y-103844776D01*
X142178183Y-103419776D01*
X143128183Y-105065224D01*
X142392061Y-105490224D01*
G37*
G36*
X143517894Y-104840224D02*
G01*
X142567894Y-103194776D01*
X143520522Y-102644776D01*
X144470522Y-104290224D01*
X143517894Y-104840224D01*
G37*
D12*
X143650000Y-86000000D03*
D13*
X146190000Y-86000000D03*
X148730000Y-86000000D03*
X151270000Y-86000000D03*
X153810000Y-86000000D03*
X156350000Y-86000000D03*
D14*
X160500000Y-85500000D03*
X139500000Y-109500000D03*
X139500000Y-85500000D03*
X160500000Y-109500000D03*
M02*
