G04 #@! TF.GenerationSoftware,KiCad,Pcbnew,5.1.9-73d0e3b20d~88~ubuntu20.04.1*
G04 #@! TF.CreationDate,2021-03-15T16:31:54+01:00*
G04 #@! TF.ProjectId,sbm-120-uv-mount,73626d2d-3132-4302-9d75-762d6d6f756e,rev?*
G04 #@! TF.SameCoordinates,Original*
G04 #@! TF.FileFunction,Legend,Top*
G04 #@! TF.FilePolarity,Positive*
%FSLAX46Y46*%
G04 Gerber Fmt 4.6, Leading zero omitted, Abs format (unit mm)*
G04 Created by KiCad (PCBNEW 5.1.9-73d0e3b20d~88~ubuntu20.04.1) date 2021-03-15 16:31:54*
%MOMM*%
%LPD*%
G01*
G04 APERTURE LIST*
%ADD10C,0.875000*%
%ADD11C,0.100000*%
%ADD12C,0.254000*%
G04 APERTURE END LIST*
D10*
X139166666Y-100250000D02*
X141833333Y-100250000D01*
X158666666Y-100250000D02*
X161333333Y-100250000D01*
X160000000Y-101583333D02*
X160000000Y-98916666D01*
D11*
X159273076Y-93663878D02*
X157714230Y-94563878D01*
X160123076Y-95136122D02*
X159273076Y-93663878D01*
X158564230Y-96036122D02*
X160123076Y-95136122D01*
X157714230Y-105436122D02*
X159273076Y-106336122D01*
X159273076Y-106336122D02*
X160123076Y-104863878D01*
X160123076Y-104863878D02*
X158564230Y-103963878D01*
X139876924Y-95136122D02*
X141435770Y-96036122D01*
X140726924Y-93663878D02*
X139876924Y-95136122D01*
X142285770Y-94563878D02*
X140726924Y-93663878D01*
X141435770Y-103963878D02*
X139876924Y-104863878D01*
X139876924Y-104863878D02*
X140726924Y-106336122D01*
X140726924Y-106336122D02*
X142285770Y-105436122D01*
D12*
X157165067Y-95059366D02*
X157618638Y-95844975D01*
X157656979Y-96032335D01*
X157612707Y-96197559D01*
X157485823Y-96340647D01*
X157381076Y-96401123D01*
X158899919Y-95524218D02*
X158271432Y-95887076D01*
X158585676Y-95705647D02*
X157950676Y-94605795D01*
X157936642Y-94823393D01*
X157892371Y-94988617D01*
X157817861Y-95101467D01*
X157860543Y-103736033D02*
X157406972Y-104521642D01*
X157263884Y-104648525D01*
X157098660Y-104692797D01*
X156911300Y-104654456D01*
X156806552Y-104593980D01*
X158271432Y-104112923D02*
X158354044Y-104090788D01*
X158489030Y-104098890D01*
X158750900Y-104250080D01*
X158825410Y-104362931D01*
X158847545Y-104445543D01*
X158839443Y-104580528D01*
X158778967Y-104685276D01*
X158635879Y-104812160D01*
X157644535Y-105077790D01*
X158325395Y-105470885D01*
X142101697Y-94636033D02*
X141648126Y-95421642D01*
X141505038Y-95548525D01*
X141339814Y-95592797D01*
X141152454Y-95554456D01*
X141047706Y-95493980D01*
X142520689Y-94877938D02*
X143201549Y-95271033D01*
X142593027Y-95478357D01*
X142750149Y-95569072D01*
X142824659Y-95681922D01*
X142846795Y-95764534D01*
X142838692Y-95899520D01*
X142687502Y-96161389D01*
X142574652Y-96235899D01*
X142492040Y-96258035D01*
X142357054Y-96249933D01*
X142042810Y-96068504D01*
X141968301Y-95955654D01*
X141946165Y-95873042D01*
X141406221Y-104159366D02*
X141859792Y-104944975D01*
X141898133Y-105132335D01*
X141853861Y-105297559D01*
X141726977Y-105440647D01*
X141622230Y-105501123D01*
X142612992Y-103951460D02*
X143036325Y-104684695D01*
X142109218Y-103683659D02*
X142300920Y-104620458D01*
X142981780Y-104227363D01*
M02*
