M48
; DRILL file {KiCad 5.1.9-73d0e3b20d~88~ubuntu20.04.1} date Mon Mar 15 16:31:56 2021
; FORMAT={-:-/ absolute / inch / decimal}
; #@! TF.CreationDate,2021-03-15T16:31:56+01:00
; #@! TF.GenerationSoftware,Kicad,Pcbnew,5.1.9-73d0e3b20d~88~ubuntu20.04.1
; #@! TF.FileFunction,Plated,1,2,PTH
FMAT,2
INCH
T1C0.0157
T2C0.0394
T3C0.0866
%
G90
G05
T1
X5.4331Y-3.622
X5.4331Y-3.6614
X5.4331Y-3.7008
X5.4331Y-3.7402
X5.4331Y-3.7795
X5.4331Y-3.8189
X5.4331Y-3.8583
X5.4331Y-3.8976
X5.4331Y-3.937
X5.4331Y-3.9764
X5.4331Y-4.0157
X5.4331Y-4.0551
X5.4331Y-4.0945
X5.4331Y-4.1339
X5.4331Y-4.1732
X5.4331Y-4.2126
X5.4331Y-4.252
X5.4724Y-3.622
X5.4724Y-3.6614
X5.4724Y-3.7008
X5.4724Y-3.7402
X5.4724Y-3.7795
X5.4724Y-3.8189
X5.4724Y-3.8583
X5.4724Y-3.8976
X5.4724Y-3.937
X5.4724Y-3.9764
X5.4724Y-4.0157
X5.4724Y-4.0551
X5.4724Y-4.0945
X5.4724Y-4.1339
X5.4724Y-4.1732
X5.4724Y-4.2126
X5.4724Y-4.252
X5.5118Y-3.622
X5.5118Y-3.6614
X5.5118Y-3.7008
X5.5118Y-3.7402
X5.5118Y-3.7795
X5.5118Y-3.8189
X5.5118Y-3.8583
X5.5118Y-3.8976
X5.5118Y-3.937
X5.5118Y-3.9764
X5.5118Y-4.0157
X5.5118Y-4.0551
X5.5118Y-4.0945
X5.5118Y-4.1339
X5.5118Y-4.1732
X5.5118Y-4.2126
X5.5118Y-4.252
X5.5512Y-3.5827
X5.5512Y-3.622
X5.5512Y-3.6614
X5.5512Y-3.7008
X5.5512Y-3.7402
X5.5512Y-3.8189
X5.5512Y-3.8583
X5.5512Y-3.8976
X5.5512Y-3.937
X5.5512Y-3.9764
X5.5512Y-4.0157
X5.5512Y-4.0551
X5.5512Y-4.1732
X5.5512Y-4.2126
X5.5512Y-4.252
X5.5512Y-4.2913
X5.5906Y-3.4646
X5.5906Y-3.5039
X5.5906Y-3.7008
X5.5906Y-3.8583
X5.5906Y-3.8976
X5.5906Y-3.937
X5.5906Y-3.9764
X5.5906Y-4.0157
X5.5906Y-4.3701
X5.5906Y-4.4094
X5.6299Y-3.8976
X5.6299Y-3.937
X5.6299Y-3.9764
X5.6299Y-4.0157
X5.6299Y-4.4094
X5.6693Y-4.4094
X5.7087Y-4.4094
X5.748Y-4.4094
X5.7874Y-4.4094
X5.8268Y-4.3701
X5.8268Y-4.4094
X5.8661Y-3.5433
X5.8661Y-3.5827
X5.8661Y-3.622
X5.8661Y-3.6614
X5.8661Y-4.2126
X5.8661Y-4.252
X5.8661Y-4.2913
X5.8661Y-4.3307
X5.8661Y-4.3701
X5.8661Y-4.4094
X5.9449Y-3.5433
X5.9449Y-3.5827
X5.9449Y-3.622
X5.9449Y-3.6614
X5.9449Y-4.2126
X5.9449Y-4.252
X5.9449Y-4.2913
X5.9449Y-4.3307
X5.9449Y-4.3701
X5.9449Y-4.4094
X5.9843Y-4.3701
X5.9843Y-4.4094
X6.0236Y-4.4094
X6.063Y-4.4094
X6.1024Y-4.4094
X6.1417Y-4.4094
X6.1811Y-3.8976
X6.1811Y-3.937
X6.1811Y-3.9764
X6.1811Y-4.0157
X6.1811Y-4.4094
X6.2205Y-3.4646
X6.2205Y-3.5039
X6.2205Y-3.7008
X6.2205Y-3.8583
X6.2205Y-3.8976
X6.2205Y-3.937
X6.2205Y-3.9764
X6.2205Y-4.0157
X6.2205Y-4.3701
X6.2205Y-4.4094
X6.2598Y-3.5827
X6.2598Y-3.622
X6.2598Y-3.6614
X6.2598Y-3.7008
X6.2598Y-3.7402
X6.2598Y-3.8189
X6.2598Y-3.8583
X6.2598Y-3.8976
X6.2598Y-3.937
X6.2598Y-3.9764
X6.2598Y-4.0157
X6.2598Y-4.0551
X6.2598Y-4.0945
X6.2598Y-4.1339
X6.2598Y-4.1732
X6.2598Y-4.2126
X6.2598Y-4.252
X6.2598Y-4.2913
X6.2992Y-3.622
X6.2992Y-3.6614
X6.2992Y-3.7008
X6.2992Y-3.7402
X6.2992Y-3.7795
X6.2992Y-3.8189
X6.2992Y-3.8583
X6.2992Y-3.8976
X6.2992Y-3.937
X6.2992Y-3.9764
X6.2992Y-4.0157
X6.2992Y-4.0551
X6.2992Y-4.0945
X6.2992Y-4.1339
X6.2992Y-4.1732
X6.2992Y-4.2126
X6.2992Y-4.252
X6.3386Y-3.622
X6.3386Y-3.6614
X6.3386Y-3.7008
X6.3386Y-3.7402
X6.3386Y-3.7795
X6.3386Y-3.8189
X6.3386Y-3.8583
X6.3386Y-3.8976
X6.3386Y-3.937
X6.3386Y-3.9764
X6.3386Y-4.0157
X6.3386Y-4.0551
X6.3386Y-4.0945
X6.3386Y-4.1339
X6.3386Y-4.1732
X6.3386Y-4.2126
X6.3386Y-4.252
X6.378Y-3.622
X6.378Y-3.6614
X6.378Y-3.7008
X6.378Y-3.7402
X6.378Y-3.7795
X6.378Y-3.8189
X6.378Y-3.8583
X6.378Y-3.8976
X6.378Y-3.937
X6.378Y-3.9764
X6.378Y-4.0157
X6.378Y-4.0551
X6.378Y-4.0945
X6.378Y-4.1339
X6.378Y-4.1732
X6.378Y-4.2126
X6.378Y-4.252
T2
X5.6555Y-3.4646
X5.7555Y-3.4646
X5.8555Y-3.4646
X5.9555Y-3.4646
X6.0555Y-3.4646
X6.1555Y-3.4646
T3
X5.4724Y-3.5039
X6.3386Y-3.5039
T0
M30
