G04 #@! TF.GenerationSoftware,KiCad,Pcbnew,5.1.9-73d0e3b20d~88~ubuntu20.04.1*
G04 #@! TF.CreationDate,2021-03-04T10:57:23+01:00*
G04 #@! TF.ProjectId,sbm-120-uv-mount,73626d2d-3132-4302-9d75-762d6d6f756e,rev?*
G04 #@! TF.SameCoordinates,Original*
G04 #@! TF.FileFunction,Copper,L1,Top*
G04 #@! TF.FilePolarity,Positive*
%FSLAX46Y46*%
G04 Gerber Fmt 4.6, Leading zero omitted, Abs format (unit mm)*
G04 Created by KiCad (PCBNEW 5.1.9-73d0e3b20d~88~ubuntu20.04.1) date 2021-03-04 10:57:23*
%MOMM*%
%LPD*%
G01*
G04 APERTURE LIST*
G04 #@! TA.AperFunction,SMDPad,CuDef*
%ADD10C,0.100000*%
G04 #@! TD*
G04 #@! TA.AperFunction,ComponentPad*
%ADD11R,1.700000X1.700000*%
G04 #@! TD*
G04 #@! TA.AperFunction,ComponentPad*
%ADD12O,1.700000X1.700000*%
G04 #@! TD*
G04 #@! TA.AperFunction,ViaPad*
%ADD13C,0.800000*%
G04 #@! TD*
G04 #@! TA.AperFunction,Conductor*
%ADD14C,0.254000*%
G04 #@! TD*
G04 #@! TA.AperFunction,Conductor*
%ADD15C,0.100000*%
G04 #@! TD*
G04 APERTURE END LIST*
G04 #@! TA.AperFunction,SMDPad,CuDef*
D10*
G36*
X156482106Y-95159776D02*
G01*
X157432106Y-96805224D01*
X156479478Y-97355224D01*
X155529478Y-95709776D01*
X156482106Y-95159776D01*
G37*
G04 #@! TD.AperFunction*
G04 #@! TA.AperFunction,SMDPad,CuDef*
G36*
X157607939Y-94509776D02*
G01*
X158557939Y-96155224D01*
X157821817Y-96580224D01*
X156871817Y-94934776D01*
X157607939Y-94509776D01*
G37*
G04 #@! TD.AperFunction*
G04 #@! TA.AperFunction,SMDPad,CuDef*
G36*
X158557939Y-103844776D02*
G01*
X157607939Y-105490224D01*
X156871817Y-105065224D01*
X157821817Y-103419776D01*
X158557939Y-103844776D01*
G37*
G04 #@! TD.AperFunction*
G04 #@! TA.AperFunction,SMDPad,CuDef*
G36*
X157432106Y-103194776D02*
G01*
X156482106Y-104840224D01*
X155529478Y-104290224D01*
X156479478Y-102644776D01*
X157432106Y-103194776D01*
G37*
G04 #@! TD.AperFunction*
G04 #@! TA.AperFunction,SMDPad,CuDef*
G36*
X142567894Y-96805224D02*
G01*
X143517894Y-95159776D01*
X144470522Y-95709776D01*
X143520522Y-97355224D01*
X142567894Y-96805224D01*
G37*
G04 #@! TD.AperFunction*
G04 #@! TA.AperFunction,SMDPad,CuDef*
G36*
X141442061Y-96155224D02*
G01*
X142392061Y-94509776D01*
X143128183Y-94934776D01*
X142178183Y-96580224D01*
X141442061Y-96155224D01*
G37*
G04 #@! TD.AperFunction*
G04 #@! TA.AperFunction,SMDPad,CuDef*
G36*
X142392061Y-105490224D02*
G01*
X141442061Y-103844776D01*
X142178183Y-103419776D01*
X143128183Y-105065224D01*
X142392061Y-105490224D01*
G37*
G04 #@! TD.AperFunction*
G04 #@! TA.AperFunction,SMDPad,CuDef*
G36*
X143517894Y-104840224D02*
G01*
X142567894Y-103194776D01*
X143520522Y-102644776D01*
X144470522Y-104290224D01*
X143517894Y-104840224D01*
G37*
G04 #@! TD.AperFunction*
D11*
X143650000Y-86000000D03*
D12*
X146190000Y-86000000D03*
X148730000Y-86000000D03*
X151270000Y-86000000D03*
X153810000Y-86000000D03*
X156350000Y-86000000D03*
D13*
X141000000Y-88000000D03*
X142000000Y-88000000D03*
X143000000Y-88000000D03*
X144000000Y-88000000D03*
X145000000Y-88000000D03*
X146000000Y-88000000D03*
X147000000Y-88000000D03*
X148000000Y-88000000D03*
X149000000Y-88000000D03*
X149000000Y-89000000D03*
X148000000Y-89000000D03*
X143000000Y-89000000D03*
X142000000Y-89000000D03*
X141000000Y-89000000D03*
X140000000Y-89000000D03*
X139000000Y-89000000D03*
X139000000Y-90000000D03*
X140000000Y-90000000D03*
X141000000Y-90000000D03*
X142000000Y-90000000D03*
X149000000Y-90000000D03*
X149000000Y-91000000D03*
X149000000Y-93000000D03*
X149000000Y-92000000D03*
X142000000Y-91000000D03*
X141000000Y-91000000D03*
X140000000Y-91000000D03*
X139000000Y-91000000D03*
X139000000Y-92000000D03*
X140000000Y-92000000D03*
X141000000Y-92000000D03*
X142000000Y-92000000D03*
X142000000Y-93000000D03*
X141000000Y-93000000D03*
X140000000Y-93000000D03*
X139000000Y-93000000D03*
X139000000Y-94000000D03*
X140000000Y-94000000D03*
X141000000Y-94000000D03*
X142000000Y-94000000D03*
X141000000Y-95000000D03*
X140000000Y-95000000D03*
X139000000Y-95000000D03*
X139000000Y-96000000D03*
X140000000Y-96000000D03*
X148000000Y-95000000D03*
X149000000Y-95000000D03*
X149000000Y-94000000D03*
X139000000Y-97000000D03*
X139000000Y-103000000D03*
X140000000Y-104000000D03*
X139000000Y-104000000D03*
X139000000Y-105000000D03*
X140000000Y-105000000D03*
X141000000Y-105000000D03*
X142000000Y-106000000D03*
X141000000Y-106000000D03*
X140000000Y-106000000D03*
X139000000Y-106000000D03*
X141000000Y-107000000D03*
X142000000Y-107000000D03*
X142000000Y-108000000D03*
X142000000Y-87000000D03*
X158000000Y-108000000D03*
X159000000Y-107000000D03*
X158000000Y-107000000D03*
X158000000Y-106000000D03*
X159000000Y-106000000D03*
X160000000Y-106000000D03*
X161000000Y-106000000D03*
X161000000Y-105000000D03*
X160000000Y-105000000D03*
X159000000Y-105000000D03*
X160000000Y-104000000D03*
X161000000Y-104000000D03*
X161000000Y-103000000D03*
X161000000Y-97000000D03*
X161000000Y-96000000D03*
X160000000Y-96000000D03*
X159000000Y-95000000D03*
X160000000Y-95000000D03*
X161000000Y-95000000D03*
X161000000Y-94000000D03*
X160000000Y-94000000D03*
X159000000Y-94000000D03*
X158000000Y-94000000D03*
X158000000Y-93000000D03*
X159000000Y-93000000D03*
X160000000Y-93000000D03*
X161000000Y-93000000D03*
X161000000Y-92000000D03*
X160000000Y-92000000D03*
X159000000Y-92000000D03*
X158000000Y-92000000D03*
X158000000Y-91000000D03*
X159000000Y-91000000D03*
X160000000Y-91000000D03*
X161000000Y-91000000D03*
X161000000Y-90000000D03*
X160000000Y-90000000D03*
X159000000Y-90000000D03*
X158000000Y-90000000D03*
X157000000Y-89000000D03*
X158000000Y-89000000D03*
X157000000Y-88000000D03*
X156000000Y-88000000D03*
X155000000Y-88000000D03*
X154000000Y-88000000D03*
X153000000Y-88000000D03*
X152000000Y-88000000D03*
X151000000Y-88000000D03*
X151000000Y-89000000D03*
X152000000Y-89000000D03*
X151000000Y-90000000D03*
X151000000Y-91000000D03*
X151000000Y-92000000D03*
X151000000Y-93000000D03*
X151000000Y-94000000D03*
X151000000Y-95000000D03*
X152000000Y-95000000D03*
D14*
X149373000Y-95290000D02*
X145534877Y-95290000D01*
X145500000Y-95286565D01*
X145465123Y-95290000D01*
X145360816Y-95300273D01*
X145226980Y-95340872D01*
X145103637Y-95406800D01*
X144995525Y-95495525D01*
X144906800Y-95603637D01*
X144840872Y-95726980D01*
X144800273Y-95860816D01*
X144786565Y-96000000D01*
X144790001Y-96034887D01*
X144790000Y-103965123D01*
X144786565Y-104000000D01*
X144800273Y-104139184D01*
X144840872Y-104273020D01*
X144906800Y-104396363D01*
X144995525Y-104504475D01*
X145103637Y-104593200D01*
X145226980Y-104659128D01*
X145360816Y-104699727D01*
X145500000Y-104713435D01*
X145534877Y-104710000D01*
X149373000Y-104710000D01*
X149373000Y-110790000D01*
X140663661Y-110790000D01*
X140847663Y-110605998D01*
X141037537Y-110321831D01*
X141168325Y-110006081D01*
X141235000Y-109670883D01*
X141235000Y-109329117D01*
X141168325Y-108993919D01*
X141037537Y-108678169D01*
X140847663Y-108394002D01*
X140605998Y-108152337D01*
X140321831Y-107962463D01*
X140006081Y-107831675D01*
X139670883Y-107765000D01*
X139329117Y-107765000D01*
X138993919Y-107831675D01*
X138678169Y-107962463D01*
X138394002Y-108152337D01*
X138210000Y-108336339D01*
X138210000Y-107574100D01*
X143265000Y-107574100D01*
X143265000Y-108014356D01*
X143350890Y-108446153D01*
X143519369Y-108852897D01*
X143763962Y-109218957D01*
X144075271Y-109530266D01*
X144441331Y-109774859D01*
X144848075Y-109943338D01*
X145279872Y-110029228D01*
X145720128Y-110029228D01*
X146151925Y-109943338D01*
X146558669Y-109774859D01*
X146924729Y-109530266D01*
X147236038Y-109218957D01*
X147480631Y-108852897D01*
X147649110Y-108446153D01*
X147735000Y-108014356D01*
X147735000Y-107574100D01*
X147649110Y-107142303D01*
X147480631Y-106735559D01*
X147236038Y-106369499D01*
X146924729Y-106058190D01*
X146558669Y-105813597D01*
X146151925Y-105645118D01*
X145720128Y-105559228D01*
X145279872Y-105559228D01*
X144848075Y-105645118D01*
X144441331Y-105813597D01*
X144075271Y-106058190D01*
X143763962Y-106369499D01*
X143519369Y-106735559D01*
X143350890Y-107142303D01*
X143265000Y-107574100D01*
X138210000Y-107574100D01*
X138210000Y-99779872D01*
X138765000Y-99779872D01*
X138765000Y-100220128D01*
X138850890Y-100651925D01*
X139019369Y-101058669D01*
X139263962Y-101424729D01*
X139575271Y-101736038D01*
X139941331Y-101980631D01*
X140348075Y-102149110D01*
X140779872Y-102235000D01*
X141220128Y-102235000D01*
X141651925Y-102149110D01*
X142058669Y-101980631D01*
X142424729Y-101736038D01*
X142736038Y-101424729D01*
X142980631Y-101058669D01*
X143149110Y-100651925D01*
X143235000Y-100220128D01*
X143235000Y-99779872D01*
X143149110Y-99348075D01*
X142980631Y-98941331D01*
X142736038Y-98575271D01*
X142424729Y-98263962D01*
X142058669Y-98019369D01*
X141651925Y-97850890D01*
X141220128Y-97765000D01*
X140779872Y-97765000D01*
X140348075Y-97850890D01*
X139941331Y-98019369D01*
X139575271Y-98263962D01*
X139263962Y-98575271D01*
X139019369Y-98941331D01*
X138850890Y-99348075D01*
X138765000Y-99779872D01*
X138210000Y-99779872D01*
X138210000Y-91985644D01*
X143265000Y-91985644D01*
X143265000Y-92425900D01*
X143350890Y-92857697D01*
X143519369Y-93264441D01*
X143763962Y-93630501D01*
X144075271Y-93941810D01*
X144441331Y-94186403D01*
X144848075Y-94354882D01*
X145279872Y-94440772D01*
X145720128Y-94440772D01*
X146151925Y-94354882D01*
X146558669Y-94186403D01*
X146924729Y-93941810D01*
X147236038Y-93630501D01*
X147480631Y-93264441D01*
X147649110Y-92857697D01*
X147735000Y-92425900D01*
X147735000Y-91985644D01*
X147649110Y-91553847D01*
X147480631Y-91147103D01*
X147236038Y-90781043D01*
X146924729Y-90469734D01*
X146558669Y-90225141D01*
X146151925Y-90056662D01*
X145720128Y-89970772D01*
X145279872Y-89970772D01*
X144848075Y-90056662D01*
X144441331Y-90225141D01*
X144075271Y-90469734D01*
X143763962Y-90781043D01*
X143519369Y-91147103D01*
X143350890Y-91553847D01*
X143265000Y-91985644D01*
X138210000Y-91985644D01*
X138210000Y-86663661D01*
X138394002Y-86847663D01*
X138678169Y-87037537D01*
X138993919Y-87168325D01*
X139329117Y-87235000D01*
X139670883Y-87235000D01*
X140006081Y-87168325D01*
X140321831Y-87037537D01*
X140605998Y-86847663D01*
X140847663Y-86605998D01*
X141037537Y-86321831D01*
X141168325Y-86006081D01*
X141235000Y-85670883D01*
X141235000Y-85329117D01*
X141168325Y-84993919D01*
X141037537Y-84678169D01*
X140847663Y-84394002D01*
X140663661Y-84210000D01*
X149373000Y-84210000D01*
X149373000Y-95290000D01*
G04 #@! TA.AperFunction,Conductor*
D15*
G36*
X149373000Y-95290000D02*
G01*
X145534877Y-95290000D01*
X145500000Y-95286565D01*
X145465123Y-95290000D01*
X145360816Y-95300273D01*
X145226980Y-95340872D01*
X145103637Y-95406800D01*
X144995525Y-95495525D01*
X144906800Y-95603637D01*
X144840872Y-95726980D01*
X144800273Y-95860816D01*
X144786565Y-96000000D01*
X144790001Y-96034887D01*
X144790000Y-103965123D01*
X144786565Y-104000000D01*
X144800273Y-104139184D01*
X144840872Y-104273020D01*
X144906800Y-104396363D01*
X144995525Y-104504475D01*
X145103637Y-104593200D01*
X145226980Y-104659128D01*
X145360816Y-104699727D01*
X145500000Y-104713435D01*
X145534877Y-104710000D01*
X149373000Y-104710000D01*
X149373000Y-110790000D01*
X140663661Y-110790000D01*
X140847663Y-110605998D01*
X141037537Y-110321831D01*
X141168325Y-110006081D01*
X141235000Y-109670883D01*
X141235000Y-109329117D01*
X141168325Y-108993919D01*
X141037537Y-108678169D01*
X140847663Y-108394002D01*
X140605998Y-108152337D01*
X140321831Y-107962463D01*
X140006081Y-107831675D01*
X139670883Y-107765000D01*
X139329117Y-107765000D01*
X138993919Y-107831675D01*
X138678169Y-107962463D01*
X138394002Y-108152337D01*
X138210000Y-108336339D01*
X138210000Y-107574100D01*
X143265000Y-107574100D01*
X143265000Y-108014356D01*
X143350890Y-108446153D01*
X143519369Y-108852897D01*
X143763962Y-109218957D01*
X144075271Y-109530266D01*
X144441331Y-109774859D01*
X144848075Y-109943338D01*
X145279872Y-110029228D01*
X145720128Y-110029228D01*
X146151925Y-109943338D01*
X146558669Y-109774859D01*
X146924729Y-109530266D01*
X147236038Y-109218957D01*
X147480631Y-108852897D01*
X147649110Y-108446153D01*
X147735000Y-108014356D01*
X147735000Y-107574100D01*
X147649110Y-107142303D01*
X147480631Y-106735559D01*
X147236038Y-106369499D01*
X146924729Y-106058190D01*
X146558669Y-105813597D01*
X146151925Y-105645118D01*
X145720128Y-105559228D01*
X145279872Y-105559228D01*
X144848075Y-105645118D01*
X144441331Y-105813597D01*
X144075271Y-106058190D01*
X143763962Y-106369499D01*
X143519369Y-106735559D01*
X143350890Y-107142303D01*
X143265000Y-107574100D01*
X138210000Y-107574100D01*
X138210000Y-99779872D01*
X138765000Y-99779872D01*
X138765000Y-100220128D01*
X138850890Y-100651925D01*
X139019369Y-101058669D01*
X139263962Y-101424729D01*
X139575271Y-101736038D01*
X139941331Y-101980631D01*
X140348075Y-102149110D01*
X140779872Y-102235000D01*
X141220128Y-102235000D01*
X141651925Y-102149110D01*
X142058669Y-101980631D01*
X142424729Y-101736038D01*
X142736038Y-101424729D01*
X142980631Y-101058669D01*
X143149110Y-100651925D01*
X143235000Y-100220128D01*
X143235000Y-99779872D01*
X143149110Y-99348075D01*
X142980631Y-98941331D01*
X142736038Y-98575271D01*
X142424729Y-98263962D01*
X142058669Y-98019369D01*
X141651925Y-97850890D01*
X141220128Y-97765000D01*
X140779872Y-97765000D01*
X140348075Y-97850890D01*
X139941331Y-98019369D01*
X139575271Y-98263962D01*
X139263962Y-98575271D01*
X139019369Y-98941331D01*
X138850890Y-99348075D01*
X138765000Y-99779872D01*
X138210000Y-99779872D01*
X138210000Y-91985644D01*
X143265000Y-91985644D01*
X143265000Y-92425900D01*
X143350890Y-92857697D01*
X143519369Y-93264441D01*
X143763962Y-93630501D01*
X144075271Y-93941810D01*
X144441331Y-94186403D01*
X144848075Y-94354882D01*
X145279872Y-94440772D01*
X145720128Y-94440772D01*
X146151925Y-94354882D01*
X146558669Y-94186403D01*
X146924729Y-93941810D01*
X147236038Y-93630501D01*
X147480631Y-93264441D01*
X147649110Y-92857697D01*
X147735000Y-92425900D01*
X147735000Y-91985644D01*
X147649110Y-91553847D01*
X147480631Y-91147103D01*
X147236038Y-90781043D01*
X146924729Y-90469734D01*
X146558669Y-90225141D01*
X146151925Y-90056662D01*
X145720128Y-89970772D01*
X145279872Y-89970772D01*
X144848075Y-90056662D01*
X144441331Y-90225141D01*
X144075271Y-90469734D01*
X143763962Y-90781043D01*
X143519369Y-91147103D01*
X143350890Y-91553847D01*
X143265000Y-91985644D01*
X138210000Y-91985644D01*
X138210000Y-86663661D01*
X138394002Y-86847663D01*
X138678169Y-87037537D01*
X138993919Y-87168325D01*
X139329117Y-87235000D01*
X139670883Y-87235000D01*
X140006081Y-87168325D01*
X140321831Y-87037537D01*
X140605998Y-86847663D01*
X140847663Y-86605998D01*
X141037537Y-86321831D01*
X141168325Y-86006081D01*
X141235000Y-85670883D01*
X141235000Y-85329117D01*
X141168325Y-84993919D01*
X141037537Y-84678169D01*
X140847663Y-84394002D01*
X140663661Y-84210000D01*
X149373000Y-84210000D01*
X149373000Y-95290000D01*
G37*
G04 #@! TD.AperFunction*
D14*
X159152337Y-84394002D02*
X158962463Y-84678169D01*
X158831675Y-84993919D01*
X158765000Y-85329117D01*
X158765000Y-85670883D01*
X158831675Y-86006081D01*
X158962463Y-86321831D01*
X159152337Y-86605998D01*
X159394002Y-86847663D01*
X159678169Y-87037537D01*
X159993919Y-87168325D01*
X160329117Y-87235000D01*
X160670883Y-87235000D01*
X161006081Y-87168325D01*
X161321831Y-87037537D01*
X161605998Y-86847663D01*
X161790001Y-86663660D01*
X161790000Y-108336339D01*
X161605998Y-108152337D01*
X161321831Y-107962463D01*
X161006081Y-107831675D01*
X160670883Y-107765000D01*
X160329117Y-107765000D01*
X159993919Y-107831675D01*
X159678169Y-107962463D01*
X159394002Y-108152337D01*
X159152337Y-108394002D01*
X158962463Y-108678169D01*
X158831675Y-108993919D01*
X158765000Y-109329117D01*
X158765000Y-109670883D01*
X158831675Y-110006081D01*
X158962463Y-110321831D01*
X159152337Y-110605998D01*
X159336339Y-110790000D01*
X150627000Y-110790000D01*
X150627000Y-107574100D01*
X152265000Y-107574100D01*
X152265000Y-108014356D01*
X152350890Y-108446153D01*
X152519369Y-108852897D01*
X152763962Y-109218957D01*
X153075271Y-109530266D01*
X153441331Y-109774859D01*
X153848075Y-109943338D01*
X154279872Y-110029228D01*
X154720128Y-110029228D01*
X155151925Y-109943338D01*
X155558669Y-109774859D01*
X155924729Y-109530266D01*
X156236038Y-109218957D01*
X156480631Y-108852897D01*
X156649110Y-108446153D01*
X156735000Y-108014356D01*
X156735000Y-107574100D01*
X156649110Y-107142303D01*
X156480631Y-106735559D01*
X156236038Y-106369499D01*
X155924729Y-106058190D01*
X155558669Y-105813597D01*
X155151925Y-105645118D01*
X154720128Y-105559228D01*
X154279872Y-105559228D01*
X153848075Y-105645118D01*
X153441331Y-105813597D01*
X153075271Y-106058190D01*
X152763962Y-106369499D01*
X152519369Y-106735559D01*
X152350890Y-107142303D01*
X152265000Y-107574100D01*
X150627000Y-107574100D01*
X150627000Y-104710000D01*
X154465123Y-104710000D01*
X154500000Y-104713435D01*
X154534877Y-104710000D01*
X154639184Y-104699727D01*
X154773020Y-104659128D01*
X154896363Y-104593200D01*
X155004475Y-104504475D01*
X155093200Y-104396363D01*
X155159128Y-104273020D01*
X155199727Y-104139184D01*
X155213435Y-104000000D01*
X155210000Y-103965123D01*
X155210000Y-99779872D01*
X156765000Y-99779872D01*
X156765000Y-100220128D01*
X156850890Y-100651925D01*
X157019369Y-101058669D01*
X157263962Y-101424729D01*
X157575271Y-101736038D01*
X157941331Y-101980631D01*
X158348075Y-102149110D01*
X158779872Y-102235000D01*
X159220128Y-102235000D01*
X159651925Y-102149110D01*
X160058669Y-101980631D01*
X160424729Y-101736038D01*
X160736038Y-101424729D01*
X160980631Y-101058669D01*
X161149110Y-100651925D01*
X161235000Y-100220128D01*
X161235000Y-99779872D01*
X161149110Y-99348075D01*
X160980631Y-98941331D01*
X160736038Y-98575271D01*
X160424729Y-98263962D01*
X160058669Y-98019369D01*
X159651925Y-97850890D01*
X159220128Y-97765000D01*
X158779872Y-97765000D01*
X158348075Y-97850890D01*
X157941331Y-98019369D01*
X157575271Y-98263962D01*
X157263962Y-98575271D01*
X157019369Y-98941331D01*
X156850890Y-99348075D01*
X156765000Y-99779872D01*
X155210000Y-99779872D01*
X155210000Y-96034877D01*
X155213435Y-96000000D01*
X155199727Y-95860816D01*
X155159128Y-95726980D01*
X155093200Y-95603637D01*
X155004475Y-95495525D01*
X154896363Y-95406800D01*
X154773020Y-95340872D01*
X154639184Y-95300273D01*
X154534877Y-95290000D01*
X154500000Y-95286565D01*
X154465123Y-95290000D01*
X150627000Y-95290000D01*
X150627000Y-91985644D01*
X152264999Y-91985644D01*
X152264999Y-92425900D01*
X152350889Y-92857697D01*
X152519368Y-93264441D01*
X152763961Y-93630501D01*
X153075270Y-93941810D01*
X153441330Y-94186403D01*
X153848074Y-94354882D01*
X154279871Y-94440772D01*
X154720127Y-94440772D01*
X155151924Y-94354882D01*
X155558668Y-94186403D01*
X155924728Y-93941810D01*
X156236037Y-93630501D01*
X156480630Y-93264441D01*
X156649109Y-92857697D01*
X156734999Y-92425900D01*
X156734999Y-91985644D01*
X156649109Y-91553847D01*
X156480630Y-91147103D01*
X156236037Y-90781043D01*
X155924728Y-90469734D01*
X155558668Y-90225141D01*
X155151924Y-90056662D01*
X154720127Y-89970772D01*
X154279871Y-89970772D01*
X153848074Y-90056662D01*
X153441330Y-90225141D01*
X153075270Y-90469734D01*
X152763961Y-90781043D01*
X152519368Y-91147103D01*
X152350889Y-91553847D01*
X152264999Y-91985644D01*
X150627000Y-91985644D01*
X150627000Y-84210000D01*
X159336339Y-84210000D01*
X159152337Y-84394002D01*
G04 #@! TA.AperFunction,Conductor*
D15*
G36*
X159152337Y-84394002D02*
G01*
X158962463Y-84678169D01*
X158831675Y-84993919D01*
X158765000Y-85329117D01*
X158765000Y-85670883D01*
X158831675Y-86006081D01*
X158962463Y-86321831D01*
X159152337Y-86605998D01*
X159394002Y-86847663D01*
X159678169Y-87037537D01*
X159993919Y-87168325D01*
X160329117Y-87235000D01*
X160670883Y-87235000D01*
X161006081Y-87168325D01*
X161321831Y-87037537D01*
X161605998Y-86847663D01*
X161790001Y-86663660D01*
X161790000Y-108336339D01*
X161605998Y-108152337D01*
X161321831Y-107962463D01*
X161006081Y-107831675D01*
X160670883Y-107765000D01*
X160329117Y-107765000D01*
X159993919Y-107831675D01*
X159678169Y-107962463D01*
X159394002Y-108152337D01*
X159152337Y-108394002D01*
X158962463Y-108678169D01*
X158831675Y-108993919D01*
X158765000Y-109329117D01*
X158765000Y-109670883D01*
X158831675Y-110006081D01*
X158962463Y-110321831D01*
X159152337Y-110605998D01*
X159336339Y-110790000D01*
X150627000Y-110790000D01*
X150627000Y-107574100D01*
X152265000Y-107574100D01*
X152265000Y-108014356D01*
X152350890Y-108446153D01*
X152519369Y-108852897D01*
X152763962Y-109218957D01*
X153075271Y-109530266D01*
X153441331Y-109774859D01*
X153848075Y-109943338D01*
X154279872Y-110029228D01*
X154720128Y-110029228D01*
X155151925Y-109943338D01*
X155558669Y-109774859D01*
X155924729Y-109530266D01*
X156236038Y-109218957D01*
X156480631Y-108852897D01*
X156649110Y-108446153D01*
X156735000Y-108014356D01*
X156735000Y-107574100D01*
X156649110Y-107142303D01*
X156480631Y-106735559D01*
X156236038Y-106369499D01*
X155924729Y-106058190D01*
X155558669Y-105813597D01*
X155151925Y-105645118D01*
X154720128Y-105559228D01*
X154279872Y-105559228D01*
X153848075Y-105645118D01*
X153441331Y-105813597D01*
X153075271Y-106058190D01*
X152763962Y-106369499D01*
X152519369Y-106735559D01*
X152350890Y-107142303D01*
X152265000Y-107574100D01*
X150627000Y-107574100D01*
X150627000Y-104710000D01*
X154465123Y-104710000D01*
X154500000Y-104713435D01*
X154534877Y-104710000D01*
X154639184Y-104699727D01*
X154773020Y-104659128D01*
X154896363Y-104593200D01*
X155004475Y-104504475D01*
X155093200Y-104396363D01*
X155159128Y-104273020D01*
X155199727Y-104139184D01*
X155213435Y-104000000D01*
X155210000Y-103965123D01*
X155210000Y-99779872D01*
X156765000Y-99779872D01*
X156765000Y-100220128D01*
X156850890Y-100651925D01*
X157019369Y-101058669D01*
X157263962Y-101424729D01*
X157575271Y-101736038D01*
X157941331Y-101980631D01*
X158348075Y-102149110D01*
X158779872Y-102235000D01*
X159220128Y-102235000D01*
X159651925Y-102149110D01*
X160058669Y-101980631D01*
X160424729Y-101736038D01*
X160736038Y-101424729D01*
X160980631Y-101058669D01*
X161149110Y-100651925D01*
X161235000Y-100220128D01*
X161235000Y-99779872D01*
X161149110Y-99348075D01*
X160980631Y-98941331D01*
X160736038Y-98575271D01*
X160424729Y-98263962D01*
X160058669Y-98019369D01*
X159651925Y-97850890D01*
X159220128Y-97765000D01*
X158779872Y-97765000D01*
X158348075Y-97850890D01*
X157941331Y-98019369D01*
X157575271Y-98263962D01*
X157263962Y-98575271D01*
X157019369Y-98941331D01*
X156850890Y-99348075D01*
X156765000Y-99779872D01*
X155210000Y-99779872D01*
X155210000Y-96034877D01*
X155213435Y-96000000D01*
X155199727Y-95860816D01*
X155159128Y-95726980D01*
X155093200Y-95603637D01*
X155004475Y-95495525D01*
X154896363Y-95406800D01*
X154773020Y-95340872D01*
X154639184Y-95300273D01*
X154534877Y-95290000D01*
X154500000Y-95286565D01*
X154465123Y-95290000D01*
X150627000Y-95290000D01*
X150627000Y-91985644D01*
X152264999Y-91985644D01*
X152264999Y-92425900D01*
X152350889Y-92857697D01*
X152519368Y-93264441D01*
X152763961Y-93630501D01*
X153075270Y-93941810D01*
X153441330Y-94186403D01*
X153848074Y-94354882D01*
X154279871Y-94440772D01*
X154720127Y-94440772D01*
X155151924Y-94354882D01*
X155558668Y-94186403D01*
X155924728Y-93941810D01*
X156236037Y-93630501D01*
X156480630Y-93264441D01*
X156649109Y-92857697D01*
X156734999Y-92425900D01*
X156734999Y-91985644D01*
X156649109Y-91553847D01*
X156480630Y-91147103D01*
X156236037Y-90781043D01*
X155924728Y-90469734D01*
X155558668Y-90225141D01*
X155151924Y-90056662D01*
X154720127Y-89970772D01*
X154279871Y-89970772D01*
X153848074Y-90056662D01*
X153441330Y-90225141D01*
X153075270Y-90469734D01*
X152763961Y-90781043D01*
X152519368Y-91147103D01*
X152350889Y-91553847D01*
X152264999Y-91985644D01*
X150627000Y-91985644D01*
X150627000Y-84210000D01*
X159336339Y-84210000D01*
X159152337Y-84394002D01*
G37*
G04 #@! TD.AperFunction*
M02*
