G04 #@! TF.GenerationSoftware,KiCad,Pcbnew,5.1.9-73d0e3b20d~88~ubuntu20.04.1*
G04 #@! TF.CreationDate,2021-03-18T15:40:59+01:00*
G04 #@! TF.ProjectId,uven-mainboard,7576656e-2d6d-4616-996e-626f6172642e,rev?*
G04 #@! TF.SameCoordinates,Original*
G04 #@! TF.FileFunction,Paste,Bot*
G04 #@! TF.FilePolarity,Positive*
%FSLAX46Y46*%
G04 Gerber Fmt 4.6, Leading zero omitted, Abs format (unit mm)*
G04 Created by KiCad (PCBNEW 5.1.9-73d0e3b20d~88~ubuntu20.04.1) date 2021-03-18 15:40:59*
%MOMM*%
%LPD*%
G01*
G04 APERTURE LIST*
G04 APERTURE END LIST*
G36*
G01*
X226100000Y-94237500D02*
X226100000Y-93762500D01*
G75*
G02*
X226337500Y-93525000I237500J0D01*
G01*
X226912500Y-93525000D01*
G75*
G02*
X227150000Y-93762500I0J-237500D01*
G01*
X227150000Y-94237500D01*
G75*
G02*
X226912500Y-94475000I-237500J0D01*
G01*
X226337500Y-94475000D01*
G75*
G02*
X226100000Y-94237500I0J237500D01*
G01*
G37*
G36*
G01*
X227850000Y-94237500D02*
X227850000Y-93762500D01*
G75*
G02*
X228087500Y-93525000I237500J0D01*
G01*
X228662500Y-93525000D01*
G75*
G02*
X228900000Y-93762500I0J-237500D01*
G01*
X228900000Y-94237500D01*
G75*
G02*
X228662500Y-94475000I-237500J0D01*
G01*
X228087500Y-94475000D01*
G75*
G02*
X227850000Y-94237500I0J237500D01*
G01*
G37*
G36*
G01*
X227850000Y-102237500D02*
X227850000Y-101762500D01*
G75*
G02*
X228087500Y-101525000I237500J0D01*
G01*
X228662500Y-101525000D01*
G75*
G02*
X228900000Y-101762500I0J-237500D01*
G01*
X228900000Y-102237500D01*
G75*
G02*
X228662500Y-102475000I-237500J0D01*
G01*
X228087500Y-102475000D01*
G75*
G02*
X227850000Y-102237500I0J237500D01*
G01*
G37*
G36*
G01*
X226100000Y-102237500D02*
X226100000Y-101762500D01*
G75*
G02*
X226337500Y-101525000I237500J0D01*
G01*
X226912500Y-101525000D01*
G75*
G02*
X227150000Y-101762500I0J-237500D01*
G01*
X227150000Y-102237500D01*
G75*
G02*
X226912500Y-102475000I-237500J0D01*
G01*
X226337500Y-102475000D01*
G75*
G02*
X226100000Y-102237500I0J237500D01*
G01*
G37*
G36*
G01*
X228900000Y-107762500D02*
X228900000Y-108237500D01*
G75*
G02*
X228662500Y-108475000I-237500J0D01*
G01*
X228087500Y-108475000D01*
G75*
G02*
X227850000Y-108237500I0J237500D01*
G01*
X227850000Y-107762500D01*
G75*
G02*
X228087500Y-107525000I237500J0D01*
G01*
X228662500Y-107525000D01*
G75*
G02*
X228900000Y-107762500I0J-237500D01*
G01*
G37*
G36*
G01*
X227150000Y-107762500D02*
X227150000Y-108237500D01*
G75*
G02*
X226912500Y-108475000I-237500J0D01*
G01*
X226337500Y-108475000D01*
G75*
G02*
X226100000Y-108237500I0J237500D01*
G01*
X226100000Y-107762500D01*
G75*
G02*
X226337500Y-107525000I237500J0D01*
G01*
X226912500Y-107525000D01*
G75*
G02*
X227150000Y-107762500I0J-237500D01*
G01*
G37*
G36*
G01*
X227150000Y-111762500D02*
X227150000Y-112237500D01*
G75*
G02*
X226912500Y-112475000I-237500J0D01*
G01*
X226337500Y-112475000D01*
G75*
G02*
X226100000Y-112237500I0J237500D01*
G01*
X226100000Y-111762500D01*
G75*
G02*
X226337500Y-111525000I237500J0D01*
G01*
X226912500Y-111525000D01*
G75*
G02*
X227150000Y-111762500I0J-237500D01*
G01*
G37*
G36*
G01*
X228900000Y-111762500D02*
X228900000Y-112237500D01*
G75*
G02*
X228662500Y-112475000I-237500J0D01*
G01*
X228087500Y-112475000D01*
G75*
G02*
X227850000Y-112237500I0J237500D01*
G01*
X227850000Y-111762500D01*
G75*
G02*
X228087500Y-111525000I237500J0D01*
G01*
X228662500Y-111525000D01*
G75*
G02*
X228900000Y-111762500I0J-237500D01*
G01*
G37*
M02*
