M48
; DRILL file {KiCad 5.1.9-73d0e3b20d~88~ubuntu20.04.1} date Thu Mar 18 15:41:02 2021
; FORMAT={-:-/ absolute / inch / decimal}
; #@! TF.CreationDate,2021-03-18T15:41:02+01:00
; #@! TF.GenerationSoftware,Kicad,Pcbnew,5.1.9-73d0e3b20d~88~ubuntu20.04.1
; #@! TF.FileFunction,Plated,1,2,PTH
FMAT,2
INCH
T1C0.0157
T2C0.0276
T3C0.0300
T4C0.0394
T5C0.0400
T6C0.1260
%
G90
G05
T1
X4.3504Y-1.8504
X4.3504Y-1.9291
X4.3504Y-1.9685
X4.3504Y-2.0079
X4.3504Y-2.0472
X4.3504Y-2.0866
X4.3504Y-2.126
X4.3504Y-2.1654
X4.3504Y-2.2441
X4.3504Y-2.3228
X4.3701Y-1.8898
X4.3701Y-2.2047
X4.3701Y-2.2835
X4.3701Y-2.3622
X4.3898Y-1.8504
X4.3898Y-2.126
X4.3898Y-2.1654
X4.3898Y-2.2441
X4.3898Y-2.3228
X4.4094Y-1.8898
X4.4094Y-2.2047
X4.4094Y-2.2835
X4.4094Y-2.3622
X4.4291Y-1.8504
X4.4291Y-2.1654
X4.4291Y-2.2441
X4.4291Y-2.3228
X4.4488Y-2.2047
X4.4488Y-2.2835
X4.4488Y-2.3622
X4.4685Y-1.8504
X4.4685Y-2.1654
X4.4685Y-2.2441
X4.4685Y-2.3228
X4.4882Y-2.2047
X4.4882Y-2.2835
X4.4882Y-2.3622
X4.5079Y-1.8504
X4.5079Y-2.1654
X4.5276Y-2.2047
X4.5276Y-2.6378
X4.5472Y-1.8504
X4.5472Y-2.1654
X4.5669Y-1.8898
X4.5669Y-2.2047
X4.5866Y-1.8504
X4.5866Y-2.126
X4.5866Y-2.1654
X4.6063Y-1.8898
X4.6063Y-2.2047
X4.6299Y-2.6614
X4.6614Y-2.7008
X4.685Y-1.8504
X4.685Y-1.8898
X4.685Y-1.9291
X4.685Y-2.126
X4.685Y-2.2047
X4.7047Y-2.1654
X4.7244Y-1.8504
X4.7244Y-1.8898
X4.7244Y-2.126
X4.7244Y-2.2047
X4.7441Y-2.1654
X4.7638Y-1.8504
X4.7638Y-2.2047
X4.7835Y-2.1654
X4.8031Y-1.8504
X4.8031Y-2.2047
X4.8031Y-2.2835
X4.8031Y-2.3622
X4.8228Y-2.1654
X4.8228Y-2.2441
X4.8228Y-2.3228
X4.8425Y-1.8504
X4.8425Y-2.2047
X4.8425Y-2.2835
X4.8425Y-2.3622
X4.8622Y-2.1654
X4.8622Y-2.2441
X4.8622Y-2.3228
X4.8622Y-2.7362
X4.8819Y-1.8504
X4.8819Y-2.2047
X4.8819Y-2.2835
X4.8819Y-2.3622
X4.9016Y-1.8898
X4.9016Y-2.126
X4.9016Y-2.1654
X4.9016Y-2.2441
X4.9016Y-2.3228
X4.9213Y-1.8504
X4.9213Y-2.2047
X4.9213Y-2.2835
X4.9213Y-2.3622
X4.9409Y-1.8898
X4.9409Y-1.9291
X4.9409Y-1.9685
X4.9409Y-2.0079
X4.9409Y-2.0472
X4.9409Y-2.0866
X4.9409Y-2.126
X4.9409Y-2.1654
X4.9409Y-2.2441
X4.9409Y-2.3228
X5.1772Y-1.8504
X5.1772Y-1.9291
X5.1772Y-1.9685
X5.1772Y-2.0079
X5.1772Y-2.0472
X5.1772Y-2.0866
X5.1772Y-2.126
X5.1772Y-2.1654
X5.1772Y-2.2047
X5.1772Y-2.2441
X5.1772Y-2.2835
X5.1772Y-2.3228
X5.1772Y-2.3622
X5.1772Y-2.5197
X5.1969Y-1.8898
X5.1969Y-2.5984
X5.2165Y-1.8504
X5.2165Y-2.126
X5.2165Y-2.1654
X5.2165Y-2.2047
X5.2165Y-2.2441
X5.2165Y-2.2835
X5.2165Y-2.3228
X5.2165Y-2.3622
X5.2362Y-1.8898
X5.2559Y-1.8504
X5.2559Y-2.1654
X5.2559Y-2.2047
X5.2559Y-2.2441
X5.2559Y-2.2835
X5.2559Y-2.3228
X5.2559Y-2.3622
X5.2953Y-1.8504
X5.2953Y-2.1654
X5.2953Y-2.2047
X5.2953Y-2.2441
X5.2953Y-2.2835
X5.2953Y-2.3228
X5.2953Y-2.3622
X5.3346Y-1.8504
X5.3346Y-2.1654
X5.3346Y-2.2047
X5.374Y-1.8504
X5.374Y-2.1654
X5.374Y-2.2047
X5.3937Y-1.8898
X5.4134Y-1.8504
X5.4134Y-2.126
X5.4134Y-2.1654
X5.4134Y-2.2047
X5.4331Y-1.8898
X5.437Y-2.6181
X5.4882Y-2.6772
X5.5118Y-1.8504
X5.5118Y-1.9291
X5.5118Y-2.126
X5.5118Y-2.1654
X5.5118Y-2.2047
X5.5315Y-1.8898
X5.5512Y-1.8504
X5.5512Y-2.1654
X5.5512Y-2.2047
X5.5906Y-1.8504
X5.5906Y-2.1654
X5.5906Y-2.2047
X5.6299Y-1.8504
X5.6299Y-2.1654
X5.6299Y-2.2047
X5.6299Y-2.2441
X5.6299Y-2.2835
X5.6299Y-2.3228
X5.6299Y-2.3622
X5.6693Y-1.8504
X5.6693Y-2.1654
X5.6693Y-2.2047
X5.6693Y-2.2441
X5.6693Y-2.2835
X5.6693Y-2.3228
X5.6693Y-2.3622
X5.7087Y-1.8504
X5.7087Y-2.1654
X5.7087Y-2.2047
X5.7087Y-2.2441
X5.7087Y-2.2835
X5.7087Y-2.3228
X5.7087Y-2.3622
X5.7283Y-1.8898
X5.7283Y-2.7077
X5.748Y-1.8504
X5.748Y-2.126
X5.748Y-2.1654
X5.748Y-2.2047
X5.748Y-2.2441
X5.748Y-2.2835
X5.748Y-2.3228
X5.748Y-2.3622
X5.7677Y-1.8898
X5.7677Y-1.9291
X5.7677Y-2.0866
X5.9843Y-2.5787
X6.0039Y-1.8504
X6.0039Y-1.9291
X6.0039Y-1.9685
X6.0039Y-2.0079
X6.0039Y-2.0472
X6.0039Y-2.0866
X6.0039Y-2.126
X6.0039Y-2.1654
X6.0039Y-2.2047
X6.0039Y-2.2441
X6.0039Y-2.2835
X6.0039Y-2.3228
X6.0039Y-2.3622
X6.0236Y-1.8898
X6.0236Y-2.5197
X6.0433Y-1.8504
X6.0433Y-2.126
X6.0433Y-2.1654
X6.0433Y-2.2047
X6.0433Y-2.2441
X6.0433Y-2.2835
X6.0433Y-2.3228
X6.0433Y-2.3622
X6.063Y-1.8898
X6.0827Y-1.8504
X6.0827Y-2.1654
X6.0827Y-2.2047
X6.0827Y-2.2441
X6.0827Y-2.2835
X6.0827Y-2.3228
X6.0827Y-2.3622
X6.122Y-1.8504
X6.122Y-2.1654
X6.122Y-2.2047
X6.122Y-2.2441
X6.122Y-2.2835
X6.122Y-2.3228
X6.122Y-2.3622
X6.1614Y-1.8504
X6.1614Y-2.1654
X6.1614Y-2.2047
X6.2008Y-1.8504
X6.2008Y-2.1654
X6.2008Y-2.2047
X6.2205Y-1.8898
X6.2402Y-1.8504
X6.2402Y-2.126
X6.2402Y-2.1654
X6.2402Y-2.2047
X6.2598Y-1.8898
X6.2795Y-2.6181
X6.3071Y-2.6614
X6.3386Y-1.8504
X6.3386Y-1.8898
X6.3386Y-1.9291
X6.3386Y-2.126
X6.3386Y-2.1654
X6.3386Y-2.2047
X6.378Y-1.8504
X6.378Y-1.8898
X6.378Y-2.1654
X6.378Y-2.2047
X6.4173Y-1.8504
X6.4173Y-2.1654
X6.4173Y-2.2047
X6.4567Y-1.8504
X6.4567Y-2.1654
X6.4567Y-2.2047
X6.4567Y-2.2441
X6.4567Y-2.2835
X6.4567Y-2.3228
X6.4567Y-2.3622
X6.4567Y-2.6575
X6.4961Y-1.8504
X6.4961Y-2.1654
X6.4961Y-2.2047
X6.4961Y-2.2441
X6.4961Y-2.2835
X6.4961Y-2.3228
X6.4961Y-2.3622
X6.5354Y-1.8504
X6.5354Y-2.1654
X6.5354Y-2.2047
X6.5354Y-2.2441
X6.5354Y-2.2835
X6.5354Y-2.3228
X6.5354Y-2.3622
X6.5551Y-1.8898
X6.5748Y-1.8504
X6.5748Y-2.126
X6.5748Y-2.1654
X6.5748Y-2.2047
X6.5748Y-2.2441
X6.5748Y-2.2835
X6.5748Y-2.3228
X6.5748Y-2.3622
X6.5945Y-1.8898
X6.8307Y-1.8504
X6.8307Y-1.9291
X6.8307Y-1.9685
X6.8307Y-2.0079
X6.8307Y-2.0472
X6.8307Y-2.0866
X6.8307Y-2.126
X6.8307Y-2.1654
X6.8307Y-2.2047
X6.8307Y-2.2441
X6.8307Y-2.2835
X6.8307Y-2.3228
X6.8307Y-2.3622
X6.8307Y-2.5787
X6.8504Y-1.8898
X6.8504Y-2.5197
X6.8701Y-1.8504
X6.8701Y-2.126
X6.8701Y-2.1654
X6.8701Y-2.2047
X6.8701Y-2.2441
X6.8701Y-2.2835
X6.8701Y-2.3228
X6.8701Y-2.3622
X6.8898Y-1.8898
X6.9094Y-1.8504
X6.9094Y-2.1654
X6.9094Y-2.2047
X6.9094Y-2.2441
X6.9094Y-2.2835
X6.9094Y-2.3228
X6.9094Y-2.3622
X6.9488Y-1.8504
X6.9488Y-2.1654
X6.9488Y-2.2047
X6.9488Y-2.2441
X6.9488Y-2.2835
X6.9488Y-2.3228
X6.9488Y-2.3622
X6.9882Y-1.8504
X6.9882Y-2.1654
X6.9882Y-2.2047
X7.0276Y-1.8504
X7.0276Y-2.1654
X7.0276Y-2.2047
X7.0472Y-1.8898
X7.0669Y-1.8504
X7.0669Y-2.126
X7.0669Y-2.1654
X7.0669Y-2.2047
X7.0866Y-1.8898
X7.1102Y-2.6142
X7.1457Y-2.6575
X7.1654Y-1.8504
X7.1654Y-1.8898
X7.1654Y-1.9291
X7.1654Y-2.126
X7.1654Y-2.1654
X7.1654Y-2.2047
X7.2047Y-1.8504
X7.2047Y-1.8898
X7.2047Y-2.1654
X7.2047Y-2.2047
X7.2244Y-2.6969
X7.2441Y-1.8504
X7.2441Y-2.1654
X7.2441Y-2.2047
X7.2835Y-1.8504
X7.2835Y-2.1654
X7.2835Y-2.2047
X7.2835Y-2.2441
X7.2835Y-2.2835
X7.2835Y-2.3228
X7.2835Y-2.3622
X7.3228Y-1.8504
X7.3228Y-2.1654
X7.3228Y-2.2047
X7.3228Y-2.2441
X7.3228Y-2.2835
X7.3228Y-2.3228
X7.3228Y-2.3622
X7.3622Y-1.8504
X7.3622Y-2.1654
X7.3622Y-2.2047
X7.3622Y-2.2441
X7.3622Y-2.2835
X7.3622Y-2.3228
X7.3622Y-2.3622
X7.3819Y-1.8898
X7.4016Y-1.8504
X7.4016Y-2.126
X7.4016Y-2.1654
X7.4016Y-2.2047
X7.4016Y-2.2441
X7.4016Y-2.2835
X7.4016Y-2.3228
X7.4016Y-2.3622
X7.4213Y-1.8898
X7.6575Y-1.8504
X7.6575Y-1.9291
X7.6575Y-1.9685
X7.6575Y-2.0079
X7.6575Y-2.0472
X7.6575Y-2.0866
X7.6575Y-2.126
X7.6575Y-2.1654
X7.6575Y-2.2047
X7.6575Y-2.2441
X7.6575Y-2.2835
X7.6575Y-2.3228
X7.6575Y-2.3622
X7.6772Y-1.8898
X7.6772Y-2.5787
X7.6969Y-1.8504
X7.6969Y-2.126
X7.6969Y-2.1654
X7.6969Y-2.2047
X7.6969Y-2.2441
X7.6969Y-2.2835
X7.6969Y-2.3228
X7.6969Y-2.3622
X7.6969Y-2.5197
X7.7165Y-1.8898
X7.7362Y-1.8504
X7.7362Y-2.1654
X7.7362Y-2.2047
X7.7362Y-2.2441
X7.7362Y-2.2835
X7.7362Y-2.3228
X7.7362Y-2.3622
X7.7756Y-1.8504
X7.7756Y-2.1654
X7.7756Y-2.2047
X7.7756Y-2.2441
X7.7756Y-2.2835
X7.7756Y-2.3228
X7.7756Y-2.3622
X7.815Y-1.8504
X7.815Y-2.1654
X7.815Y-2.2047
X7.8543Y-1.8504
X7.8543Y-2.1654
X7.8543Y-2.2047
X7.874Y-1.8898
X7.8937Y-1.8504
X7.8937Y-2.126
X7.8937Y-2.1654
X7.8937Y-2.2047
X7.9134Y-1.8898
X7.9252Y-2.6102
X7.9528Y-2.6575
X7.9921Y-1.8504
X7.9921Y-1.8898
X7.9921Y-2.126
X7.9921Y-2.1654
X7.9921Y-2.2047
X8.0026Y-2.6003
X8.0315Y-1.8504
X8.0315Y-2.1654
X8.0315Y-2.2047
X8.0709Y-1.8504
X8.0709Y-2.1654
X8.0709Y-2.2047
X8.1102Y-1.8504
X8.1102Y-2.1654
X8.1102Y-2.2047
X8.1102Y-2.2441
X8.1102Y-2.2835
X8.1102Y-2.3228
X8.1102Y-2.3622
X8.1496Y-1.8504
X8.1496Y-2.1654
X8.1496Y-2.2047
X8.1496Y-2.2441
X8.1496Y-2.2835
X8.1496Y-2.3228
X8.1496Y-2.3622
X8.189Y-1.8504
X8.189Y-1.8898
X8.189Y-2.1654
X8.189Y-2.2047
X8.189Y-2.2441
X8.189Y-2.2835
X8.189Y-2.3228
X8.189Y-2.3622
X8.2283Y-1.8504
X8.2283Y-1.8898
X8.2283Y-1.9291
X8.2283Y-2.126
X8.2283Y-2.1654
X8.2283Y-2.2047
X8.2283Y-2.2441
X8.2283Y-2.2835
X8.2283Y-2.3228
X8.2283Y-2.3622
X8.7992Y-3.6417
X8.9567Y-4.1732
X9.0363Y-4.1977
T2
X8.6618Y-2.2187
X8.6618Y-2.2687
X8.6618Y-2.573
X8.6618Y-2.623
X8.6633Y-1.8644
X8.6633Y-1.9144
X9.0555Y-1.8644
X9.0555Y-1.9144
X9.0555Y-2.2187
X9.0555Y-2.2687
X9.0555Y-2.573
X9.0555Y-2.623
T3
X8.7205Y-3.7264
X8.7205Y-3.8264
X8.7205Y-3.9264
X8.7205Y-4.0264
X8.7205Y-4.1264
X8.7205Y-4.2264
X9.1142Y-3.7264
X9.1142Y-3.8264
X9.1142Y-3.9264
X9.1142Y-4.0264
X9.1142Y-4.1264
X9.1142Y-4.2264
T4
X5.8661Y-4.0339
X5.8661Y-4.1339
X6.0236Y-4.6063
X6.063Y-4.0339
X6.063Y-4.1339
X6.1236Y-4.6063
X6.2598Y-3.8189
X6.2598Y-4.0339
X6.2598Y-4.1339
X6.3386Y-3.0315
X6.3386Y-3.1315
X6.3598Y-3.8189
X6.4567Y-4.0339
X6.4567Y-4.1339
X6.4598Y-3.8189
X6.6535Y-4.0339
X6.6535Y-4.1339
X6.8701Y-4.2913
X6.9616Y-3.0443
X6.9616Y-3.1443
X6.9701Y-4.2913
X7.0701Y-4.2913
X7.1701Y-4.2913
X7.185Y-3.0443
X7.185Y-3.1443
X7.4606Y-3.0315
X7.4606Y-3.1315
X7.4803Y-3.3858
X7.4803Y-3.4858
X7.4803Y-3.5858
X7.4803Y-3.6858
X7.4803Y-3.7858
X7.4803Y-3.8858
X7.4803Y-3.9858
X7.4803Y-4.0858
X7.4803Y-4.1858
X7.4803Y-4.2858
X7.4803Y-4.3858
X7.4803Y-4.4858
X7.6575Y-3.0315
X7.6575Y-3.1315
X7.8543Y-3.0315
X7.8543Y-3.1315
X9.252Y-3.4252
X9.252Y-3.5252
X9.252Y-3.6252
X9.252Y-3.7252
X9.252Y-3.8252
X9.252Y-3.9252
X9.252Y-4.0252
X9.252Y-4.1252
X9.252Y-4.2252
X9.252Y-4.3252
X9.252Y-4.4252
X9.252Y-4.5252
T5
X5.0707Y-2.8425
X5.1707Y-2.8425
X5.2707Y-2.8425
X5.3707Y-2.8425
X5.4307Y-4.7425
X5.4707Y-2.8425
X5.5307Y-4.7425
X5.5707Y-2.8425
X5.6307Y-4.7425
X5.6707Y-2.8425
X5.7307Y-4.7425
X5.7707Y-2.8425
X5.8307Y-4.7425
X5.8707Y-2.8425
X5.9307Y-4.7425
X5.9707Y-2.8425
X6.0307Y-4.7425
X6.1307Y-2.8425
X6.1307Y-4.7425
X6.2307Y-2.8425
X6.3307Y-2.8425
X6.3307Y-4.7425
X6.4307Y-2.8425
X6.4307Y-4.7425
X6.5307Y-2.8425
X6.5307Y-4.7425
X6.6307Y-2.8425
X6.6307Y-4.7425
X6.7307Y-2.8425
X6.7307Y-4.7425
X6.8307Y-2.8425
X6.8307Y-4.7425
X6.8357Y-3.6425
X6.8357Y-3.7425
X6.8357Y-3.8425
X6.9307Y-4.7425
X6.9357Y-3.6425
X6.9357Y-3.7425
X6.9357Y-3.8425
X7.0307Y-2.8425
X7.0307Y-4.7425
X7.1307Y-2.8425
X7.2307Y-2.8425
X7.2307Y-4.7425
X7.3307Y-2.8425
X7.3307Y-4.7425
X7.4307Y-2.8425
X7.4307Y-4.7425
X7.5307Y-2.8425
X7.5307Y-4.7425
X7.6307Y-2.8425
X7.6307Y-4.7425
X7.7307Y-2.8425
X7.7307Y-4.7425
X7.8307Y-4.7425
X7.9307Y-4.7425
X8.0307Y-2.8425
X8.0307Y-2.9425
X8.0307Y-3.0425
X8.0307Y-3.1425
X8.0307Y-3.2425
X8.0307Y-3.3425
X8.0307Y-3.4425
X8.0307Y-3.5425
X8.0307Y-3.6425
X8.0307Y-3.7425
X8.0307Y-3.8425
X8.0307Y-3.9425
X8.0307Y-4.0425
X8.0307Y-4.1425
X8.0307Y-4.2425
X8.0307Y-4.3425
X8.0307Y-4.4425
X8.0307Y-4.5425
X8.1307Y-2.8425
X8.1307Y-2.9425
X8.1307Y-3.0425
X8.1307Y-3.1425
X8.1307Y-3.2425
X8.1307Y-3.3425
X8.1307Y-3.4425
X8.1307Y-3.5425
X8.1307Y-3.6425
X8.1307Y-3.7425
X8.1307Y-3.8425
X8.1307Y-3.9425
X8.1307Y-4.0425
X8.1307Y-4.1425
X8.1307Y-4.2425
X8.1307Y-4.3425
X8.1307Y-4.4425
X8.1307Y-4.5425
T6
X4.4882Y-2.0079
X4.8031Y-2.0079
X5.315Y-2.0079
X5.6299Y-2.0079
X6.1417Y-2.0079
X6.4567Y-2.0079
X6.9685Y-2.0079
X7.2835Y-2.0079
X7.7953Y-2.0079
X8.1102Y-2.0079
T0
M30
