%TF.GenerationSoftware,KiCad,Pcbnew,7.0.11-7.0.11~ubuntu20.04.1*%
%TF.CreationDate,2025-11-23T21:37:56+01:00*%
%TF.ProjectId,uven2-mk3-led-array-100x,7576656e-322d-46d6-9b33-2d6c65642d61,rev?*%
%TF.SameCoordinates,Original*%
%TF.FileFunction,Other,User*%
%FSLAX46Y46*%
G04 Gerber Fmt 4.6, Leading zero omitted, Abs format (unit mm)*
G04 Created by KiCad (PCBNEW 7.0.11-7.0.11~ubuntu20.04.1) date 2025-11-23 21:37:56*
%MOMM*%
%LPD*%
G01*
G04 APERTURE LIST*
%ADD10C,0.050000*%
G04 APERTURE END LIST*
D10*
%TO.C,C96*%
X132120028Y-68831805D02*
X128038028Y-66014204D01*
X133426576Y-66938942D02*
X132120028Y-68831805D01*
X128038028Y-66014204D02*
X129344576Y-64121341D01*
X129344576Y-64121341D02*
X133426576Y-66938942D01*
%TO.C,D21*%
X107735400Y-135903083D02*
X103835688Y-136793167D01*
X106845316Y-132003371D02*
X107735400Y-135903083D01*
X103835688Y-136793167D02*
X102945604Y-132893455D01*
X102945604Y-132893455D02*
X106845316Y-132003371D01*
%TO.C,C105*%
X72848579Y-68354893D02*
X69754160Y-70490817D01*
X71735172Y-66741845D02*
X72848579Y-68354893D01*
X69754160Y-70490817D02*
X68640753Y-68877769D01*
X68640753Y-68877769D02*
X71735172Y-66741845D01*
%TO.C,D29*%
X98000000Y-73000000D02*
X102000000Y-73000000D01*
X98000000Y-77000000D02*
X98000000Y-73000000D01*
X102000000Y-73000000D02*
X102000000Y-77000000D01*
X102000000Y-77000000D02*
X98000000Y-77000000D01*
%TO.C,D41*%
X123953873Y-140567074D02*
X120717806Y-142918215D01*
X121602732Y-137331007D02*
X123953873Y-140567074D01*
X120717806Y-142918215D02*
X118366665Y-139682148D01*
X118366665Y-139682148D02*
X121602732Y-137331007D01*
%TO.C,D22*%
X117774398Y-130080638D02*
X114647072Y-132574598D01*
X115280438Y-126953312D02*
X117774398Y-130080638D01*
X114647072Y-132574598D02*
X112153112Y-129447272D01*
X112153112Y-129447272D02*
X115280438Y-126953312D01*
%TO.C,C138*%
X150817866Y-126079700D02*
X152004872Y-121263828D01*
X153051032Y-126630126D02*
X150817866Y-126079700D01*
X152004872Y-121263828D02*
X154238038Y-121814254D01*
X154238038Y-121814254D02*
X153051032Y-126630126D01*
%TO.C,D14*%
X92264600Y-86096917D02*
X96164312Y-85206833D01*
X93154684Y-89996629D02*
X92264600Y-86096917D01*
X96164312Y-85206833D02*
X97054396Y-89106545D01*
X97054396Y-89106545D02*
X93154684Y-89996629D01*
%TO.C,H3*%
X66550000Y-129560000D02*
G75*
G03*
X60450000Y-129560000I-3050000J0D01*
G01*
X60450000Y-129560000D02*
G75*
G03*
X66550000Y-129560000I3050000J0D01*
G01*
%TO.C,C131*%
X127151421Y-153645107D02*
X130245840Y-151509183D01*
X128264828Y-155258155D02*
X127151421Y-153645107D01*
X130245840Y-151509183D02*
X131359247Y-153122231D01*
X131359247Y-153122231D02*
X128264828Y-155258155D01*
%TO.C,C67*%
X61480000Y-109120000D02*
X61480000Y-112880000D01*
X59520000Y-109120000D02*
X61480000Y-109120000D01*
X61480000Y-112880000D02*
X59520000Y-112880000D01*
X59520000Y-112880000D02*
X59520000Y-109120000D01*
%TO.C,C86*%
X138179402Y-126012866D02*
X139712126Y-121295625D01*
X140366832Y-126723605D02*
X138179402Y-126012866D01*
X139712126Y-121295625D02*
X141899556Y-122006364D01*
X141899556Y-122006364D02*
X140366832Y-126723605D01*
%TO.C,C120*%
X58721812Y-144256037D02*
X62010901Y-147968651D01*
X57000237Y-145781219D02*
X58721812Y-144256037D01*
X62010901Y-147968651D02*
X60289326Y-149493833D01*
X60289326Y-149493833D02*
X57000237Y-145781219D01*
%TO.C,H13*%
X62050000Y-51300000D02*
G75*
G03*
X55950000Y-51300000I-3050000J0D01*
G01*
X55950000Y-51300000D02*
G75*
G03*
X62050000Y-51300000I3050000J0D01*
G01*
%TO.C,D32*%
X68081785Y-90282194D02*
X70432926Y-87046127D01*
X71317852Y-92633335D02*
X68081785Y-90282194D01*
X70432926Y-87046127D02*
X73668993Y-89397268D01*
X73668993Y-89397268D02*
X71317852Y-92633335D01*
%TO.C,C168*%
X38771077Y-89190100D02*
X37286236Y-93922631D01*
X36576556Y-88501565D02*
X38771077Y-89190100D01*
X37286236Y-93922631D02*
X35091715Y-93234096D01*
X35091715Y-93234096D02*
X36576556Y-88501565D01*
%TO.C,D51*%
X91987749Y-61605631D02*
X95958584Y-61123484D01*
X92469896Y-65576466D02*
X91987749Y-61605631D01*
X95958584Y-61123484D02*
X96440731Y-65094319D01*
X96440731Y-65094319D02*
X92469896Y-65576466D01*
%TO.C,C143*%
X158194631Y-88072513D02*
X156711853Y-84617232D01*
X159995789Y-87299576D02*
X158194631Y-88072513D01*
X156711853Y-84617232D02*
X158513011Y-83844295D01*
X158513011Y-83844295D02*
X159995789Y-87299576D01*
%TO.C,C54*%
X126076168Y-79328462D02*
X122063444Y-76413047D01*
X127428074Y-77467723D02*
X126076168Y-79328462D01*
X122063444Y-76413047D02*
X123415350Y-74552308D01*
X123415350Y-74552308D02*
X127428074Y-77467723D01*
%TO.C,D26*%
X129567074Y-87046127D02*
X131918215Y-90282194D01*
X126331007Y-89397268D02*
X129567074Y-87046127D01*
X131918215Y-90282194D02*
X128682148Y-92633335D01*
X128682148Y-92633335D02*
X126331007Y-89397268D01*
%TO.C,C87*%
X150520000Y-112880000D02*
X150520000Y-109120000D01*
X152480000Y-112880000D02*
X150520000Y-112880000D01*
X150520000Y-109120000D02*
X152480000Y-109120000D01*
X152480000Y-109120000D02*
X152480000Y-112880000D01*
%TO.C,D68*%
X145202247Y-132465246D02*
X143343355Y-136007070D01*
X141660423Y-130606354D02*
X145202247Y-132465246D01*
X143343355Y-136007070D02*
X139801531Y-134148178D01*
X139801531Y-134148178D02*
X141660423Y-130606354D01*
%TO.C,C73*%
X75837561Y-141058298D02*
X78879464Y-143268371D01*
X74685502Y-142643971D02*
X75837561Y-141058298D01*
X78879464Y-143268371D02*
X77727405Y-144854044D01*
X77727405Y-144854044D02*
X74685502Y-142643971D01*
%TO.C,C19*%
X126520000Y-112880000D02*
X126520000Y-109120000D01*
X128480000Y-112880000D02*
X126520000Y-112880000D01*
X126520000Y-109120000D02*
X128480000Y-109120000D01*
X128480000Y-109120000D02*
X128480000Y-112880000D01*
%TO.C,D12*%
X114647072Y-89425402D02*
X117774398Y-91919362D01*
X112153112Y-92552728D02*
X114647072Y-89425402D01*
X117774398Y-91919362D02*
X115280438Y-95046688D01*
X115280438Y-95046688D02*
X112153112Y-92552728D01*
%TO.C,D76*%
X119657421Y-52164758D02*
X123408430Y-53553979D01*
X118268200Y-55915767D02*
X119657421Y-52164758D01*
X123408430Y-53553979D02*
X122019209Y-57304988D01*
X122019209Y-57304988D02*
X118268200Y-55915767D01*
%TO.C,C142*%
X164119690Y-100354896D02*
X163121249Y-95496427D01*
X166372609Y-99891909D02*
X164119690Y-100354896D01*
X163121249Y-95496427D02*
X165374168Y-95033440D01*
X165374168Y-95033440D02*
X166372609Y-99891909D01*
%TO.C,D72*%
X156186672Y-84712022D02*
X157764095Y-88387853D01*
X152510841Y-86289445D02*
X156186672Y-84712022D01*
X157764095Y-88387853D02*
X154088264Y-89965276D01*
X154088264Y-89965276D02*
X152510841Y-86289445D01*
%TO.C,C15*%
X98120000Y-125520000D02*
X101880000Y-125520000D01*
X98120000Y-127480000D02*
X98120000Y-125520000D01*
X101880000Y-125520000D02*
X101880000Y-127480000D01*
X101880000Y-127480000D02*
X98120000Y-127480000D01*
%TO.C,D98*%
X152029869Y-144777102D02*
X149744796Y-148060155D01*
X148746816Y-142492029D02*
X152029869Y-144777102D01*
X149744796Y-148060155D02*
X146461743Y-145775082D01*
X146461743Y-145775082D02*
X148746816Y-142492029D01*
%TO.C,C26*%
X108859802Y-83327689D02*
X104024160Y-82223985D01*
X109371600Y-81085355D02*
X108859802Y-83327689D01*
X104024160Y-82223985D02*
X104535958Y-79981651D01*
X104535958Y-79981651D02*
X109371600Y-81085355D01*
%TO.C,C141*%
X161618653Y-100256333D02*
X160861770Y-96573300D01*
X163538532Y-99861788D02*
X161618653Y-100256333D01*
X160861770Y-96573300D02*
X162781649Y-96178755D01*
X162781649Y-96178755D02*
X163538532Y-99861788D01*
%TO.C,C170*%
X35634135Y-101961842D02*
X35132340Y-106896393D01*
X33345936Y-101729155D02*
X35634135Y-101961842D01*
X35132340Y-106896393D02*
X32844141Y-106663706D01*
X32844141Y-106663706D02*
X33345936Y-101729155D01*
%TO.C,C13*%
X88403449Y-119937830D02*
X91062170Y-122596551D01*
X87017520Y-121323759D02*
X88403449Y-119937830D01*
X91062170Y-122596551D02*
X89676241Y-123982480D01*
X89676241Y-123982480D02*
X87017520Y-121323759D01*
%TO.C,C200*%
X163121249Y-126503573D02*
X164119690Y-121645104D01*
X165374168Y-126966560D02*
X163121249Y-126503573D01*
X164119690Y-121645104D02*
X166372609Y-122108091D01*
X166372609Y-122108091D02*
X165374168Y-126966560D01*
%TO.C,C28*%
X95975840Y-82223985D02*
X91140198Y-83327689D01*
X95464042Y-79981651D02*
X95975840Y-82223985D01*
X91140198Y-83327689D02*
X90628400Y-81085355D01*
X90628400Y-81085355D02*
X95464042Y-79981651D01*
%TO.C,D58*%
X51931541Y-124907666D02*
X50974278Y-121023899D01*
X55815308Y-123950403D02*
X51931541Y-124907666D01*
X50974278Y-121023899D02*
X54858045Y-120066636D01*
X54858045Y-120066636D02*
X55815308Y-123950403D01*
%TO.C,C110*%
X54267618Y-84196978D02*
X51962591Y-88588840D01*
X52231069Y-83128114D02*
X54267618Y-84196978D01*
X51962591Y-88588840D02*
X49926042Y-87519976D01*
X49926042Y-87519976D02*
X52231069Y-83128114D01*
%TO.C,C79*%
X110115348Y-148215649D02*
X113691321Y-147053745D01*
X110721021Y-150079719D02*
X110115348Y-148215649D01*
X113691321Y-147053745D02*
X114296994Y-148917815D01*
X114296994Y-148917815D02*
X110721021Y-150079719D01*
%TO.C,D36*%
X70432926Y-134953873D02*
X68081785Y-131717806D01*
X73668993Y-132602732D02*
X70432926Y-134953873D01*
X68081785Y-131717806D02*
X71317852Y-129366665D01*
X71317852Y-129366665D02*
X73668993Y-132602732D01*
%TO.C,C185*%
X94955827Y-173344535D02*
X98711001Y-173534976D01*
X94856555Y-175302020D02*
X94955827Y-173344535D01*
X98711001Y-173534976D02*
X98611729Y-175492461D01*
X98611729Y-175492461D02*
X94856555Y-175302020D01*
%TO.C,C189*%
X119950550Y-170281197D02*
X123476498Y-168975329D01*
X120631268Y-172119191D02*
X119950550Y-170281197D01*
X123476498Y-168975329D02*
X124157216Y-170813323D01*
X124157216Y-170813323D02*
X120631268Y-172119191D01*
%TO.C,C72*%
X65413047Y-133063444D02*
X68328462Y-137076168D01*
X63552308Y-134415350D02*
X65413047Y-133063444D01*
X68328462Y-137076168D02*
X66467723Y-138428074D01*
X66467723Y-138428074D02*
X63552308Y-134415350D01*
%TO.C,D64*%
X108012251Y-160394369D02*
X104041416Y-160876516D01*
X107530104Y-156423534D02*
X108012251Y-160394369D01*
X104041416Y-160876516D02*
X103559269Y-156905681D01*
X103559269Y-156905681D02*
X107530104Y-156423534D01*
%TO.C,C21*%
X124709395Y-101187226D02*
X123077992Y-97799583D01*
X126475294Y-100336813D02*
X124709395Y-101187226D01*
X123077992Y-97799583D02*
X124843891Y-96949170D01*
X124843891Y-96949170D02*
X126475294Y-100336813D01*
%TO.C,C85*%
X136053745Y-124691321D02*
X137215649Y-121115348D01*
X137917815Y-125296994D02*
X136053745Y-124691321D01*
X137215649Y-121115348D02*
X139079719Y-121721021D01*
X139079719Y-121721021D02*
X137917815Y-125296994D01*
%TO.C,C100*%
X108844335Y-58734996D02*
X103920499Y-58137134D01*
X109121569Y-56451766D02*
X108844335Y-58734996D01*
X103920499Y-58137134D02*
X104197733Y-55853904D01*
X104197733Y-55853904D02*
X109121569Y-56451766D01*
%TO.C,D31*%
X76046127Y-81432926D02*
X79282194Y-79081785D01*
X78397268Y-84668993D02*
X76046127Y-81432926D01*
X79282194Y-79081785D02*
X81633335Y-82317852D01*
X81633335Y-82317852D02*
X78397268Y-84668993D01*
%TO.C,D16*%
X75707043Y-101520961D02*
X77442578Y-97917086D01*
X79310918Y-103256496D02*
X75707043Y-101520961D01*
X77442578Y-97917086D02*
X81046453Y-99652621D01*
X81046453Y-99652621D02*
X79310918Y-103256496D01*
%TO.C,H15*%
X174450000Y-118600000D02*
G75*
G03*
X168350000Y-118600000I-3050000J0D01*
G01*
X168350000Y-118600000D02*
G75*
G03*
X174450000Y-118600000I3050000J0D01*
G01*
%TO.C,C172*%
X35132340Y-115103607D02*
X35634135Y-120038158D01*
X32844141Y-115336294D02*
X35132340Y-115103607D01*
X35634135Y-120038158D02*
X33345936Y-120270845D01*
X33345936Y-120270845D02*
X32844141Y-115336294D01*
%TO.C,D4*%
X98000000Y-97000000D02*
X102000000Y-97000000D01*
X98000000Y-101000000D02*
X98000000Y-97000000D01*
X102000000Y-97000000D02*
X102000000Y-101000000D01*
X102000000Y-101000000D02*
X98000000Y-101000000D01*
%TO.C,C140*%
X164949999Y-113480000D02*
X164949999Y-108520000D01*
X167249999Y-113480000D02*
X164949999Y-113480000D01*
X164949999Y-108520000D02*
X167249999Y-108520000D01*
X167249999Y-108520000D02*
X167249999Y-113480000D01*
%TO.C,C30*%
X83888912Y-86819724D02*
X80011028Y-89912234D01*
X82454886Y-85021512D02*
X83888912Y-86819724D01*
X80011028Y-89912234D02*
X78577002Y-88114022D01*
X78577002Y-88114022D02*
X82454886Y-85021512D01*
%TO.C,H12*%
X63350000Y-172000000D02*
G75*
G03*
X57250000Y-172000000I-3050000J0D01*
G01*
X57250000Y-172000000D02*
G75*
G03*
X63350000Y-172000000I3050000J0D01*
G01*
%TO.C,D96*%
X134493057Y-162558015D02*
X131098480Y-164673872D01*
X132377200Y-159163438D02*
X134493057Y-162558015D01*
X131098480Y-164673872D02*
X128982623Y-161279295D01*
X128982623Y-161279295D02*
X132377200Y-159163438D01*
%TO.C,C77*%
X98120000Y-149520000D02*
X101880000Y-149520000D01*
X98120000Y-151480000D02*
X98120000Y-149520000D01*
X101880000Y-149520000D02*
X101880000Y-151480000D01*
X101880000Y-151480000D02*
X98120000Y-151480000D01*
%TO.C,C3*%
X114520000Y-112880000D02*
X114520000Y-109120000D01*
X116480000Y-112880000D02*
X114520000Y-112880000D01*
X114520000Y-109120000D02*
X116480000Y-109120000D01*
X116480000Y-109120000D02*
X116480000Y-112880000D01*
%TO.C,C124*%
X78904831Y-159629689D02*
X83542512Y-161388529D01*
X78089240Y-161780227D02*
X78904831Y-159629689D01*
X83542512Y-161388529D02*
X82726921Y-163539067D01*
X82726921Y-163539067D02*
X78089240Y-161780227D01*
%TO.C,C146*%
X154725330Y-75931623D02*
X151891840Y-71860636D01*
X156613086Y-74617706D02*
X154725330Y-75931623D01*
X151891840Y-71860636D02*
X153779596Y-70546719D01*
X153779596Y-70546719D02*
X156613086Y-74617706D01*
%TO.C,C165*%
X46248217Y-79015150D02*
X44423482Y-82302694D01*
X44534498Y-78063958D02*
X46248217Y-79015150D01*
X44423482Y-82302694D02*
X42709763Y-81351502D01*
X42709763Y-81351502D02*
X44534498Y-78063958D01*
%TO.C,C164*%
X52334065Y-66811637D02*
X49103257Y-70575077D01*
X50588921Y-65313481D02*
X52334065Y-66811637D01*
X49103257Y-70575077D02*
X47358113Y-69076921D01*
X47358113Y-69076921D02*
X50588921Y-65313481D01*
%TO.C,D40*%
X113644758Y-146522113D02*
X109840532Y-147758181D01*
X112408690Y-142717887D02*
X113644758Y-146522113D01*
X109840532Y-147758181D02*
X108604464Y-143953955D01*
X108604464Y-143953955D02*
X112408690Y-142717887D01*
%TO.C,C133*%
X136568092Y-145908156D02*
X139061433Y-143093756D01*
X138035173Y-147207876D02*
X136568092Y-145908156D01*
X139061433Y-143093756D02*
X140528514Y-144393476D01*
X140528514Y-144393476D02*
X138035173Y-147207876D01*
%TO.C,C97*%
X119672469Y-64429637D02*
X116156808Y-63096323D01*
X120367494Y-62597005D02*
X119672469Y-64429637D01*
X116156808Y-63096323D02*
X116851833Y-61263691D01*
X116851833Y-61263691D02*
X120367494Y-62597005D01*
%TO.C,D37*%
X79282194Y-142918215D02*
X76046127Y-140567074D01*
X81633335Y-139682148D02*
X79282194Y-142918215D01*
X76046127Y-140567074D02*
X78397268Y-137331007D01*
X78397268Y-137331007D02*
X81633335Y-139682148D01*
%TO.C,C42*%
X104024160Y-139776015D02*
X108859802Y-138672311D01*
X104535958Y-142018349D02*
X104024160Y-139776015D01*
X108859802Y-138672311D02*
X109371600Y-140914645D01*
X109371600Y-140914645D02*
X104535958Y-142018349D01*
%TO.C,D54*%
X61248218Y-79340889D02*
X63900709Y-76346846D01*
X64242261Y-81993380D02*
X61248218Y-79340889D01*
X63900709Y-76346846D02*
X66894752Y-78999337D01*
X66894752Y-78999337D02*
X64242261Y-81993380D01*
%TO.C,D48*%
X126757269Y-68714678D02*
X130049204Y-70986937D01*
X124485010Y-72006613D02*
X126757269Y-68714678D01*
X130049204Y-70986937D02*
X127776945Y-74278872D01*
X127776945Y-74278872D02*
X124485010Y-72006613D01*
%TO.C,H9*%
X97050000Y-109000000D02*
G75*
G03*
X90950000Y-109000000I-3050000J0D01*
G01*
X90950000Y-109000000D02*
G75*
G03*
X97050000Y-109000000I3050000J0D01*
G01*
%TO.C,C99*%
X107955806Y-61074957D02*
X104223220Y-60621739D01*
X108192058Y-59129247D02*
X107955806Y-61074957D01*
X104223220Y-60621739D02*
X104459472Y-58676029D01*
X104459472Y-58676029D02*
X108192058Y-59129247D01*
%TO.C,C114*%
X47050000Y-108520000D02*
X47050000Y-113480000D01*
X44750000Y-108520000D02*
X47050000Y-108520000D01*
X47050000Y-113480000D02*
X44750000Y-113480000D01*
X44750000Y-113480000D02*
X44750000Y-108520000D01*
%TO.C,C12*%
X83050000Y-108520000D02*
X83050000Y-113480000D01*
X80750000Y-108520000D02*
X83050000Y-108520000D01*
X83050000Y-113480000D02*
X80750000Y-113480000D01*
X80750000Y-113480000D02*
X80750000Y-108520000D01*
%TO.C,C107*%
X63431908Y-76091844D02*
X60938567Y-78906244D01*
X61964827Y-74792124D02*
X63431908Y-76091844D01*
X60938567Y-78906244D02*
X59471486Y-77606524D01*
X59471486Y-77606524D02*
X61964827Y-74792124D01*
%TO.C,C129*%
X116156808Y-158903677D02*
X119672469Y-157570363D01*
X116851833Y-160736309D02*
X116156808Y-158903677D01*
X119672469Y-157570363D02*
X120367494Y-159402995D01*
X120367494Y-159402995D02*
X116851833Y-160736309D01*
%TO.C,D47*%
X136099291Y-76346846D02*
X138751782Y-79340889D01*
X133105248Y-78999337D02*
X136099291Y-76346846D01*
X138751782Y-79340889D02*
X135757739Y-81993380D01*
X135757739Y-81993380D02*
X133105248Y-78999337D01*
%TO.C,C27*%
X95931610Y-84726573D02*
X92265881Y-85563252D01*
X95495469Y-82815714D02*
X95931610Y-84726573D01*
X92265881Y-85563252D02*
X91829740Y-83652393D01*
X91829740Y-83652393D02*
X95495469Y-82815714D01*
%TO.C,H14*%
X124650000Y-40400000D02*
G75*
G03*
X118550000Y-40400000I-3050000J0D01*
G01*
X118550000Y-40400000D02*
G75*
G03*
X124650000Y-40400000I3050000J0D01*
G01*
%TO.C,C18*%
X110231834Y-124739084D02*
X113739084Y-121231834D01*
X111858180Y-126365430D02*
X110231834Y-124739084D01*
X113739084Y-121231834D02*
X115365430Y-122858180D01*
X115365430Y-122858180D02*
X111858180Y-126365430D01*
%TO.C,D77*%
X107411585Y-49412109D02*
X111365458Y-50017820D01*
X106805874Y-53365982D02*
X107411585Y-49412109D01*
X111365458Y-50017820D02*
X110759747Y-53971693D01*
X110759747Y-53971693D02*
X106805874Y-53365982D01*
%TO.C,C10*%
X89768166Y-97260916D02*
X86260916Y-100768166D01*
X88141820Y-95634570D02*
X89768166Y-97260916D01*
X86260916Y-100768166D02*
X84634570Y-99141820D01*
X84634570Y-99141820D02*
X88141820Y-95634570D01*
%TO.C,D99*%
X157764095Y-133612147D02*
X156186672Y-137287978D01*
X154088264Y-132034724D02*
X157764095Y-133612147D01*
X156186672Y-137287978D02*
X152510841Y-135710555D01*
X152510841Y-135710555D02*
X154088264Y-132034724D01*
%TO.C,C62*%
X77936556Y-76413047D02*
X73923832Y-79328462D01*
X76584650Y-74552308D02*
X77936556Y-76413047D01*
X73923832Y-79328462D02*
X72571926Y-77467723D01*
X72571926Y-77467723D02*
X76584650Y-74552308D01*
%TO.C,C162*%
X62204841Y-58121093D02*
X58282593Y-61157139D01*
X60796997Y-56302309D02*
X62204841Y-58121093D01*
X58282593Y-61157139D02*
X56874749Y-59338355D01*
X56874749Y-59338355D02*
X60796997Y-56302309D01*
%TO.C,C93*%
X139061433Y-78906244D02*
X136568092Y-76091844D01*
X140528514Y-77606524D02*
X139061433Y-78906244D01*
X136568092Y-76091844D02*
X138035173Y-74792124D01*
X138035173Y-74792124D02*
X140528514Y-77606524D01*
%TO.C,D81*%
X60467879Y-63196116D02*
X63630982Y-60747693D01*
X62916302Y-66359219D02*
X60467879Y-63196116D01*
X63630982Y-60747693D02*
X66079405Y-63910796D01*
X66079405Y-63910796D02*
X62916302Y-66359219D01*
%TO.C,C22*%
X127159079Y-100673469D02*
X125007016Y-96204664D01*
X129231308Y-99675536D02*
X127159079Y-100673469D01*
X125007016Y-96204664D02*
X127079245Y-95206731D01*
X127079245Y-95206731D02*
X129231308Y-99675536D01*
%TO.C,C92*%
X148037409Y-88588840D02*
X145732382Y-84196978D01*
X150073958Y-87519976D02*
X148037409Y-88588840D01*
X145732382Y-84196978D02*
X147768931Y-83128114D01*
X147768931Y-83128114D02*
X150073958Y-87519976D01*
%TO.C,D91*%
X74491172Y-167544669D02*
X70899954Y-165783093D01*
X76252748Y-163953451D02*
X74491172Y-167544669D01*
X70899954Y-165783093D02*
X72661530Y-162191875D01*
X72661530Y-162191875D02*
X76252748Y-163953451D01*
%TO.C,C40*%
X91140198Y-138672311D02*
X95975840Y-139776015D01*
X90628400Y-140914645D02*
X91140198Y-138672311D01*
X95975840Y-139776015D02*
X95464042Y-142018349D01*
X95464042Y-142018349D02*
X90628400Y-140914645D01*
%TO.C,C103*%
X83843192Y-63096323D02*
X80327531Y-64429637D01*
X83148167Y-61263691D02*
X83843192Y-63096323D01*
X80327531Y-64429637D02*
X79632506Y-62597005D01*
X79632506Y-62597005D02*
X83148167Y-61263691D01*
%TO.C,D82*%
X51654252Y-72132423D02*
X54259742Y-69097391D01*
X54689284Y-74737913D02*
X51654252Y-72132423D01*
X54259742Y-69097391D02*
X57294774Y-71702881D01*
X57294774Y-71702881D02*
X54689284Y-74737913D01*
%TO.C,C116*%
X47995128Y-121263828D02*
X49182134Y-126079700D01*
X45761962Y-121814254D02*
X47995128Y-121263828D01*
X49182134Y-126079700D02*
X46948968Y-126630126D01*
X46948968Y-126630126D02*
X45761962Y-121814254D01*
%TO.C,D94*%
X111365458Y-171982180D02*
X107411585Y-172587891D01*
X110759747Y-168028307D02*
X111365458Y-171982180D01*
X107411585Y-172587891D02*
X106805874Y-168634018D01*
X106805874Y-168634018D02*
X110759747Y-168028307D01*
%TO.C,C50*%
X139712126Y-100704375D02*
X138179402Y-95987134D01*
X141899556Y-99993636D02*
X139712126Y-100704375D01*
X138179402Y-95987134D02*
X140366832Y-95276395D01*
X140366832Y-95276395D02*
X141899556Y-99993636D01*
%TO.C,C139*%
X162520000Y-112880000D02*
X162520000Y-109120000D01*
X164480000Y-112880000D02*
X162520000Y-112880000D01*
X162520000Y-109120000D02*
X164480000Y-109120000D01*
X164480000Y-109120000D02*
X164480000Y-112880000D01*
%TO.C,C14*%
X86260916Y-121231834D02*
X89768166Y-124739084D01*
X84634570Y-122858180D02*
X86260916Y-121231834D01*
X89768166Y-124739084D02*
X88141820Y-126365430D01*
X88141820Y-126365430D02*
X84634570Y-122858180D01*
%TO.C,C20*%
X128950000Y-113480000D02*
X128950000Y-108520000D01*
X131250000Y-113480000D02*
X128950000Y-113480000D01*
X128950000Y-108520000D02*
X131250000Y-108520000D01*
X131250000Y-108520000D02*
X131250000Y-113480000D01*
%TO.C,C53*%
X124162439Y-80941702D02*
X121120536Y-78731629D01*
X125314498Y-79356029D02*
X124162439Y-80941702D01*
X121120536Y-78731629D02*
X122272595Y-77145956D01*
X122272595Y-77145956D02*
X125314498Y-79356029D01*
%TO.C,C136*%
X145732382Y-137803022D02*
X148037409Y-133411160D01*
X147768931Y-138871886D02*
X145732382Y-137803022D01*
X148037409Y-133411160D02*
X150073958Y-134480024D01*
X150073958Y-134480024D02*
X147768931Y-138871886D01*
%TO.C,D90*%
X63630982Y-161252307D02*
X60467879Y-158803884D01*
X66079405Y-158089204D02*
X63630982Y-161252307D01*
X60467879Y-158803884D02*
X62916302Y-155640781D01*
X62916302Y-155640781D02*
X66079405Y-158089204D01*
%TO.C,C151*%
X123476498Y-53024671D02*
X119950550Y-51718803D01*
X124157216Y-51186677D02*
X123476498Y-53024671D01*
X119950550Y-51718803D02*
X120631268Y-49880809D01*
X120631268Y-49880809D02*
X124157216Y-51186677D01*
%TO.C,C196*%
X151891840Y-150139364D02*
X154725330Y-146068377D01*
X153779596Y-151453281D02*
X151891840Y-150139364D01*
X154725330Y-146068377D02*
X156613086Y-147382294D01*
X156613086Y-147382294D02*
X153779596Y-151453281D01*
%TO.C,C38*%
X80011028Y-132087766D02*
X83888912Y-135180276D01*
X78577002Y-133885978D02*
X80011028Y-132087766D01*
X83888912Y-135180276D02*
X82454886Y-136978488D01*
X82454886Y-136978488D02*
X78577002Y-133885978D01*
%TO.C,C68*%
X59050000Y-108520000D02*
X59050000Y-113480000D01*
X56750000Y-108520000D02*
X59050000Y-108520000D01*
X59050000Y-113480000D02*
X56750000Y-113480000D01*
X56750000Y-113480000D02*
X56750000Y-108520000D01*
%TO.C,D11*%
X122557422Y-97917086D02*
X124292957Y-101520961D01*
X118953547Y-99652621D02*
X122557422Y-97917086D01*
X124292957Y-101520961D02*
X120689082Y-103256496D01*
X120689082Y-103256496D02*
X118953547Y-99652621D01*
%TO.C,D60*%
X63900709Y-145653154D02*
X61248218Y-142659111D01*
X66894752Y-143000663D02*
X63900709Y-145653154D01*
X61248218Y-142659111D02*
X64242261Y-140006620D01*
X64242261Y-140006620D02*
X66894752Y-143000663D01*
%TO.C,C58*%
X102480000Y-70050000D02*
X97520000Y-70050000D01*
X102480000Y-67750000D02*
X102480000Y-70050000D01*
X97520000Y-70050000D02*
X97520000Y-67750000D01*
X97520000Y-67750000D02*
X102480000Y-67750000D01*
%TO.C,C163*%
X53787023Y-68849728D02*
X51337863Y-71702658D01*
X52299857Y-67573038D02*
X53787023Y-68849728D01*
X51337863Y-71702658D02*
X49850697Y-70425968D01*
X49850697Y-70425968D02*
X52299857Y-67573038D01*
%TO.C,C17*%
X108937830Y-122596551D02*
X111596551Y-119937830D01*
X110323759Y-123982480D02*
X108937830Y-122596551D01*
X111596551Y-119937830D02*
X112982480Y-121323759D01*
X112982480Y-121323759D02*
X110323759Y-123982480D01*
%TO.C,C130*%
X116457488Y-161388529D02*
X121095169Y-159629689D01*
X117273079Y-163539067D02*
X116457488Y-161388529D01*
X121095169Y-159629689D02*
X121910760Y-161780227D01*
X121910760Y-161780227D02*
X117273079Y-163539067D01*
%TO.C,C158*%
X86120950Y-47501773D02*
X81319287Y-48745010D01*
X85544449Y-45275196D02*
X86120950Y-47501773D01*
X81319287Y-48745010D02*
X80742786Y-46518433D01*
X80742786Y-46518433D02*
X85544449Y-45275196D01*
%TO.C,C6*%
X113739084Y-100768166D02*
X110231834Y-97260916D01*
X115365430Y-99141820D02*
X113739084Y-100768166D01*
X110231834Y-97260916D02*
X111858180Y-95634570D01*
X111858180Y-95634570D02*
X115365430Y-99141820D01*
%TO.C,C66*%
X61820598Y-95987134D02*
X60287874Y-100704375D01*
X59633168Y-95276395D02*
X61820598Y-95987134D01*
X60287874Y-100704375D02*
X58100444Y-99993636D01*
X58100444Y-99993636D02*
X59633168Y-95276395D01*
%TO.C,C182*%
X69169845Y-168220227D02*
X73622956Y-170404582D01*
X68156938Y-170285178D02*
X69169845Y-168220227D01*
X73622956Y-170404582D02*
X72610049Y-172469533D01*
X72610049Y-172469533D02*
X68156938Y-170285178D01*
%TO.C,D61*%
X73242731Y-153285322D02*
X69950796Y-151013063D01*
X75514990Y-149993387D02*
X73242731Y-153285322D01*
X69950796Y-151013063D02*
X72223055Y-147721128D01*
X72223055Y-147721128D02*
X75514990Y-149993387D01*
%TO.C,C24*%
X119988972Y-89912234D02*
X116111088Y-86819724D01*
X121422998Y-88114022D02*
X119988972Y-89912234D01*
X116111088Y-86819724D02*
X117545114Y-85021512D01*
X117545114Y-85021512D02*
X121422998Y-88114022D01*
%TO.C,C155*%
X98711001Y-48465024D02*
X94955827Y-48655465D01*
X98611729Y-46507539D02*
X98711001Y-48465024D01*
X94955827Y-48655465D02*
X94856555Y-46697980D01*
X94856555Y-46697980D02*
X98611729Y-46507539D01*
%TO.C,C161*%
X63217793Y-60409942D02*
X60244476Y-62711460D01*
X62018066Y-58860022D02*
X63217793Y-60409942D01*
X60244476Y-62711460D02*
X59044749Y-61161540D01*
X59044749Y-61161540D02*
X62018066Y-58860022D01*
%TO.C,C160*%
X73622956Y-51595418D02*
X69169845Y-53779773D01*
X72610049Y-49530467D02*
X73622956Y-51595418D01*
X69169845Y-53779773D02*
X68156938Y-51714822D01*
X68156938Y-51714822D02*
X72610049Y-49530467D01*
%TO.C,C78*%
X97520000Y-151950000D02*
X102480000Y-151950000D01*
X97520000Y-154250000D02*
X97520000Y-151950000D01*
X102480000Y-151950000D02*
X102480000Y-154250000D01*
X102480000Y-154250000D02*
X97520000Y-154250000D01*
%TO.C,D25*%
X135522113Y-97355242D02*
X136758181Y-101159468D01*
X131717887Y-98591310D02*
X135522113Y-97355242D01*
X136758181Y-101159468D02*
X132953955Y-102395536D01*
X132953955Y-102395536D02*
X131717887Y-98591310D01*
%TO.C,H5*%
X35050000Y-24000000D02*
G75*
G03*
X28950000Y-24000000I-3050000J0D01*
G01*
X28950000Y-24000000D02*
G75*
G03*
X35050000Y-24000000I3050000J0D01*
G01*
%TO.C,H2*%
X73550000Y-104460000D02*
G75*
G03*
X67450000Y-104460000I-3050000J0D01*
G01*
X67450000Y-104460000D02*
G75*
G03*
X73550000Y-104460000I3050000J0D01*
G01*
%TO.C,C82*%
X122063444Y-145586953D02*
X126076168Y-142671538D01*
X123415350Y-147447692D02*
X122063444Y-145586953D01*
X126076168Y-142671538D02*
X127428074Y-144532277D01*
X127428074Y-144532277D02*
X123415350Y-147447692D01*
%TO.C,D19*%
X85352928Y-132574598D02*
X82225602Y-130080638D01*
X87846888Y-129447272D02*
X85352928Y-132574598D01*
X82225602Y-130080638D02*
X84719562Y-126953312D01*
X84719562Y-126953312D02*
X87846888Y-129447272D01*
%TO.C,C180*%
X58282593Y-160842861D02*
X62204841Y-163878907D01*
X56874749Y-162661645D02*
X58282593Y-160842861D01*
X62204841Y-163878907D02*
X60796997Y-165697691D01*
X60796997Y-165697691D02*
X56874749Y-162661645D01*
%TO.C,C102*%
X96079501Y-58137134D02*
X91155665Y-58734996D01*
X95802267Y-55853904D02*
X96079501Y-58137134D01*
X91155665Y-58734996D02*
X90878431Y-56451766D01*
X90878431Y-56451766D02*
X95802267Y-55853904D01*
%TO.C,C153*%
X111325584Y-49485645D02*
X107608943Y-48916277D01*
X111622383Y-47548247D02*
X111325584Y-49485645D01*
X107608943Y-48916277D02*
X107905742Y-46978879D01*
X107905742Y-46978879D02*
X111622383Y-47548247D01*
%TO.C,C90*%
X152004872Y-100736172D02*
X150817866Y-95920300D01*
X154238038Y-100185746D02*
X152004872Y-100736172D01*
X150817866Y-95920300D02*
X153051032Y-95369874D01*
X153051032Y-95369874D02*
X154238038Y-100185746D01*
%TO.C,C169*%
X37990966Y-102804603D02*
X37610573Y-106545311D01*
X36041023Y-102606313D02*
X37990966Y-102804603D01*
X37610573Y-106545311D02*
X35660630Y-106347021D01*
X35660630Y-106347021D02*
X36041023Y-102606313D01*
%TO.C,TH1*%
X129360000Y-102270000D02*
X129360000Y-105630000D01*
X127460000Y-102270000D02*
X129360000Y-102270000D01*
X129360000Y-105630000D02*
X127460000Y-105630000D01*
X127460000Y-105630000D02*
X127460000Y-102270000D01*
%TO.C,C52*%
X134586953Y-88936556D02*
X131671538Y-84923832D01*
X136447692Y-87584650D02*
X134586953Y-88936556D01*
X131671538Y-84923832D02*
X133532277Y-83571926D01*
X133532277Y-83571926D02*
X136447692Y-87584650D01*
%TO.C,D92*%
X86395698Y-171522086D02*
X82523390Y-170519476D01*
X87398308Y-167649778D02*
X86395698Y-171522086D01*
X82523390Y-170519476D02*
X83526000Y-166647168D01*
X83526000Y-166647168D02*
X87398308Y-167649778D01*
%TO.C,D62*%
X84139789Y-158460021D02*
X80399724Y-157041602D01*
X85558208Y-154719956D02*
X84139789Y-158460021D01*
X80399724Y-157041602D02*
X81818143Y-153301537D01*
X81818143Y-153301537D02*
X85558208Y-154719956D01*
%TO.C,C134*%
X137989099Y-147968651D02*
X141278188Y-144256037D01*
X139710674Y-149493833D02*
X137989099Y-147968651D01*
X141278188Y-144256037D02*
X142999763Y-145781219D01*
X142999763Y-145781219D02*
X139710674Y-149493833D01*
%TO.C,D69*%
X149025722Y-121023899D02*
X148068459Y-124907666D01*
X145141955Y-120066636D02*
X149025722Y-121023899D01*
X148068459Y-124907666D02*
X144184692Y-123950403D01*
X144184692Y-123950403D02*
X145141955Y-120066636D01*
%TO.C,C4*%
X116950000Y-113480000D02*
X116950000Y-108520000D01*
X119250000Y-113480000D02*
X116950000Y-113480000D01*
X116950000Y-108520000D02*
X119250000Y-108520000D01*
X119250000Y-108520000D02*
X119250000Y-113480000D01*
%TO.C,C154*%
X112286636Y-47174523D02*
X107383833Y-46423442D01*
X112634919Y-44901046D02*
X112286636Y-47174523D01*
X107383833Y-46423442D02*
X107732116Y-44149965D01*
X107732116Y-44149965D02*
X112634919Y-44901046D01*
%TO.C,D28*%
X109840532Y-74241819D02*
X113644758Y-75477887D01*
X108604464Y-78046045D02*
X109840532Y-74241819D01*
X113644758Y-75477887D02*
X112408690Y-79282113D01*
X112408690Y-79282113D02*
X108604464Y-78046045D01*
%TO.C,C44*%
X116111088Y-135180276D02*
X119988972Y-132087766D01*
X117545114Y-136978488D02*
X116111088Y-135180276D01*
X119988972Y-132087766D02*
X121422998Y-133885978D01*
X121422998Y-133885978D02*
X117545114Y-136978488D01*
%TO.C,D44*%
X150000000Y-109000000D02*
X150000000Y-113000000D01*
X146000000Y-109000000D02*
X150000000Y-109000000D01*
X150000000Y-113000000D02*
X146000000Y-113000000D01*
X146000000Y-113000000D02*
X146000000Y-109000000D01*
%TO.C,C74*%
X73923832Y-142671538D02*
X77936556Y-145586953D01*
X72571926Y-144532277D02*
X73923832Y-142671538D01*
X77936556Y-145586953D02*
X76584650Y-147447692D01*
X76584650Y-147447692D02*
X72571926Y-144532277D01*
%TO.C,C69*%
X62784351Y-121115348D02*
X63946255Y-124691321D01*
X60920281Y-121721021D02*
X62784351Y-121115348D01*
X63946255Y-124691321D02*
X62082185Y-125296994D01*
X62082185Y-125296994D02*
X60920281Y-121721021D01*
%TO.C,C187*%
X107608943Y-173083723D02*
X111325584Y-172514355D01*
X107905742Y-175021121D02*
X107608943Y-173083723D01*
X111325584Y-172514355D02*
X111622383Y-174451753D01*
X111622383Y-174451753D02*
X107905742Y-175021121D01*
%TO.C,C51*%
X132268371Y-89879464D02*
X130058298Y-86837561D01*
X133854044Y-88727405D02*
X132268371Y-89879464D01*
X130058298Y-86837561D02*
X131643971Y-85685502D01*
X131643971Y-85685502D02*
X133854044Y-88727405D01*
%TO.C,D46*%
X143343355Y-85992930D02*
X145202247Y-89534754D01*
X139801531Y-87851822D02*
X143343355Y-85992930D01*
X145202247Y-89534754D02*
X141660423Y-91393646D01*
X141660423Y-91393646D02*
X139801531Y-87851822D01*
%TO.C,C199*%
X160861770Y-125426700D02*
X161618653Y-121743667D01*
X162781649Y-125821245D02*
X160861770Y-125426700D01*
X161618653Y-121743667D02*
X163538532Y-122138212D01*
X163538532Y-122138212D02*
X162781649Y-125821245D01*
%TO.C,C123*%
X80327531Y-157570363D02*
X83843192Y-158903677D01*
X79632506Y-159402995D02*
X80327531Y-157570363D01*
X83843192Y-158903677D02*
X83148167Y-160736309D01*
X83148167Y-160736309D02*
X79632506Y-159402995D01*
%TO.C,C135*%
X143859559Y-136142472D02*
X145606918Y-132813157D01*
X145595052Y-137053329D02*
X143859559Y-136142472D01*
X145606918Y-132813157D02*
X147342411Y-133724014D01*
X147342411Y-133724014D02*
X145595052Y-137053329D01*
%TO.C,C70*%
X60287874Y-121295625D02*
X61820598Y-126012866D01*
X58100444Y-122006364D02*
X60287874Y-121295625D01*
X61820598Y-126012866D02*
X59633168Y-126723605D01*
X59633168Y-126723605D02*
X58100444Y-122006364D01*
%TO.C,D86*%
X38520439Y-119262174D02*
X38115766Y-115282697D01*
X42499916Y-118857501D02*
X38520439Y-119262174D01*
X38115766Y-115282697D02*
X42095243Y-114878024D01*
X42095243Y-114878024D02*
X42499916Y-118857501D01*
%TO.C,C128*%
X103920499Y-163862866D02*
X108844335Y-163265004D01*
X104197733Y-166146096D02*
X103920499Y-163862866D01*
X108844335Y-163265004D02*
X109121569Y-165548234D01*
X109121569Y-165548234D02*
X104197733Y-166146096D01*
%TO.C,D38*%
X90159468Y-147758181D02*
X86355242Y-146522113D01*
X91395536Y-143953955D02*
X90159468Y-147758181D01*
X86355242Y-146522113D02*
X87591310Y-142717887D01*
X87591310Y-142717887D02*
X91395536Y-143953955D01*
%TO.C,C184*%
X81319287Y-173254990D02*
X86120950Y-174498227D01*
X80742786Y-175481567D02*
X81319287Y-173254990D01*
X86120950Y-174498227D02*
X85544449Y-176724804D01*
X85544449Y-176724804D02*
X80742786Y-175481567D01*
%TO.C,D34*%
X62000000Y-113000000D02*
X62000000Y-109000000D01*
X66000000Y-113000000D02*
X62000000Y-113000000D01*
X62000000Y-109000000D02*
X66000000Y-109000000D01*
X66000000Y-109000000D02*
X66000000Y-113000000D01*
%TO.C,C29*%
X84934894Y-89093669D02*
X81995208Y-91437991D01*
X83712854Y-87561279D02*
X84934894Y-89093669D01*
X81995208Y-91437991D02*
X80773168Y-89905601D01*
X80773168Y-89905601D02*
X83712854Y-87561279D01*
%TO.C,C150*%
X136460850Y-57192387D02*
X132251575Y-54568725D01*
X137677467Y-55240505D02*
X136460850Y-57192387D01*
X132251575Y-54568725D02*
X133468192Y-52616843D01*
X133468192Y-52616843D02*
X137677467Y-55240505D01*
%TO.C,C176*%
X42007639Y-140351982D02*
X44414736Y-144688741D01*
X39996642Y-141468177D02*
X42007639Y-140351982D01*
X44414736Y-144688741D02*
X42403739Y-145804936D01*
X42403739Y-145804936D02*
X39996642Y-141468177D01*
%TO.C,C113*%
X49480000Y-109120000D02*
X49480000Y-112880000D01*
X47520000Y-109120000D02*
X49480000Y-109120000D01*
X49480000Y-112880000D02*
X47520000Y-112880000D01*
X47520000Y-112880000D02*
X47520000Y-109120000D01*
%TO.C,D66*%
X130049204Y-151013063D02*
X126757269Y-153285322D01*
X127776945Y-147721128D02*
X130049204Y-151013063D01*
X126757269Y-153285322D02*
X124485010Y-149993387D01*
X124485010Y-149993387D02*
X127776945Y-147721128D01*
%TO.C,C65*%
X63946255Y-97308679D02*
X62784351Y-100884652D01*
X62082185Y-96703006D02*
X63946255Y-97308679D01*
X62784351Y-100884652D02*
X60920281Y-100278979D01*
X60920281Y-100278979D02*
X62082185Y-96703006D01*
%TO.C,C2*%
X104950000Y-113480000D02*
X104950000Y-108520000D01*
X107250000Y-113480000D02*
X104950000Y-113480000D01*
X104950000Y-108520000D02*
X107250000Y-108520000D01*
X107250000Y-108520000D02*
X107250000Y-113480000D01*
%TO.C,D83*%
X44819907Y-82659972D02*
X46761115Y-79162586D01*
X48317293Y-84601180D02*
X44819907Y-82659972D01*
X46761115Y-79162586D02*
X50258501Y-81103794D01*
X50258501Y-81103794D02*
X48317293Y-84601180D01*
%TO.C,D85*%
X38115766Y-106717303D02*
X38520439Y-102737826D01*
X42095243Y-107121976D02*
X38115766Y-106717303D01*
X38520439Y-102737826D02*
X42499916Y-103142499D01*
X42499916Y-103142499D02*
X42095243Y-107121976D01*
%TO.C,C36*%
X72840921Y-121326531D02*
X74992984Y-125795336D01*
X70768692Y-122324464D02*
X72840921Y-121326531D01*
X74992984Y-125795336D02*
X72920755Y-126793269D01*
X72920755Y-126793269D02*
X70768692Y-122324464D01*
%TO.C,D7*%
X91514719Y-122313708D02*
X88686292Y-119485281D01*
X94343146Y-119485281D02*
X91514719Y-122313708D01*
X88686292Y-119485281D02*
X91514719Y-116656854D01*
X91514719Y-116656854D02*
X94343146Y-119485281D01*
%TO.C,C95*%
X130245840Y-70490817D02*
X127151421Y-68354893D01*
X131359247Y-68877769D02*
X130245840Y-70490817D01*
X127151421Y-68354893D02*
X128264828Y-66741845D01*
X128264828Y-66741845D02*
X131359247Y-68877769D01*
%TO.C,C76*%
X84987134Y-149179402D02*
X89704375Y-150712126D01*
X84276395Y-151366832D02*
X84987134Y-149179402D01*
X89704375Y-150712126D02*
X88993636Y-152899556D01*
X88993636Y-152899556D02*
X84276395Y-151366832D01*
%TO.C,C137*%
X148602067Y-124915597D02*
X149501893Y-121264856D01*
X150505113Y-125384656D02*
X148602067Y-124915597D01*
X149501893Y-121264856D02*
X151404939Y-121733915D01*
X151404939Y-121733915D02*
X150505113Y-125384656D01*
%TO.C,D84*%
X40244640Y-94347765D02*
X41442093Y-90531208D01*
X44061197Y-95545218D02*
X40244640Y-94347765D01*
X41442093Y-90531208D02*
X45258650Y-91728661D01*
X45258650Y-91728661D02*
X44061197Y-95545218D01*
%TO.C,C157*%
X86149189Y-50004592D02*
X82509219Y-50947045D01*
X85657911Y-48107161D02*
X86149189Y-50004592D01*
X82509219Y-50947045D02*
X82017941Y-49049614D01*
X82017941Y-49049614D02*
X85657911Y-48107161D01*
%TO.C,H10*%
X149550000Y-93500000D02*
G75*
G03*
X143450000Y-93500000I-3050000J0D01*
G01*
X143450000Y-93500000D02*
G75*
G03*
X149550000Y-93500000I3050000J0D01*
G01*
%TO.C,C145*%
X152388114Y-76827347D02*
X150240146Y-73741277D01*
X153996810Y-75707661D02*
X152388114Y-76827347D01*
X150240146Y-73741277D02*
X151848842Y-72621591D01*
X151848842Y-72621591D02*
X153996810Y-75707661D01*
%TO.C,C49*%
X137215649Y-100884652D02*
X136053745Y-97308679D01*
X139079719Y-100278979D02*
X137215649Y-100884652D01*
X136053745Y-97308679D02*
X137917815Y-96703006D01*
X137917815Y-96703006D02*
X139079719Y-100278979D01*
%TO.C,C37*%
X81995208Y-130562009D02*
X84934894Y-132906331D01*
X80773168Y-132094399D02*
X81995208Y-130562009D01*
X84934894Y-132906331D02*
X83712854Y-134438721D01*
X83712854Y-134438721D02*
X80773168Y-132094399D01*
%TO.C,C191*%
X131475378Y-165051691D02*
X134666280Y-163062786D01*
X132512148Y-166715034D02*
X131475378Y-165051691D01*
X134666280Y-163062786D02*
X135703050Y-164726129D01*
X135703050Y-164726129D02*
X132512148Y-166715034D01*
%TO.C,C122*%
X67879972Y-153168195D02*
X71961972Y-155985796D01*
X66573424Y-155061058D02*
X67879972Y-153168195D01*
X71961972Y-155985796D02*
X70655424Y-157878659D01*
X70655424Y-157878659D02*
X66573424Y-155061058D01*
%TO.C,H7*%
X168850000Y-42700000D02*
G75*
G03*
X162750000Y-42700000I-3050000J0D01*
G01*
X162750000Y-42700000D02*
G75*
G03*
X168850000Y-42700000I3050000J0D01*
G01*
%TO.C,C25*%
X107734119Y-85563252D02*
X104068390Y-84726573D01*
X108170260Y-83652393D02*
X107734119Y-85563252D01*
X104068390Y-84726573D02*
X104504531Y-82815714D01*
X104504531Y-82815714D02*
X108170260Y-83652393D01*
%TO.C,C198*%
X158708307Y-138892428D02*
X160664312Y-134334397D01*
X160821910Y-139799447D02*
X158708307Y-138892428D01*
X160664312Y-134334397D02*
X162777915Y-135241416D01*
X162777915Y-135241416D02*
X160821910Y-139799447D01*
%TO.C,C7*%
X101880000Y-96480000D02*
X98120000Y-96480000D01*
X101880000Y-94520000D02*
X101880000Y-96480000D01*
X98120000Y-96480000D02*
X98120000Y-94520000D01*
X98120000Y-94520000D02*
X101880000Y-94520000D01*
%TO.C,C167*%
X40910017Y-90490036D02*
X39784412Y-94077600D01*
X39039904Y-89903284D02*
X40910017Y-90490036D01*
X39784412Y-94077600D02*
X37914299Y-93490848D01*
X37914299Y-93490848D02*
X39039904Y-89903284D01*
%TO.C,C35*%
X75290605Y-120812774D02*
X76922008Y-124200417D01*
X73524706Y-121663187D02*
X75290605Y-120812774D01*
X76922008Y-124200417D02*
X75156109Y-125050830D01*
X75156109Y-125050830D02*
X73524706Y-121663187D01*
%TO.C,H16*%
X111750000Y-182600000D02*
G75*
G03*
X105650000Y-182600000I-3050000J0D01*
G01*
X105650000Y-182600000D02*
G75*
G03*
X111750000Y-182600000I3050000J0D01*
G01*
%TO.C,C190*%
X120231851Y-172768317D02*
X124883101Y-171045683D01*
X121030653Y-174925147D02*
X120231851Y-172768317D01*
X124883101Y-171045683D02*
X125681903Y-173202513D01*
X125681903Y-173202513D02*
X121030653Y-174925147D01*
%TO.C,C178*%
X49103257Y-151424923D02*
X52334065Y-155188363D01*
X47358113Y-152923079D02*
X49103257Y-151424923D01*
X52334065Y-155188363D02*
X50588921Y-156686519D01*
X50588921Y-156686519D02*
X47358113Y-152923079D01*
%TO.C,C46*%
X125007016Y-125795336D02*
X127159079Y-121326531D01*
X127079245Y-126793269D02*
X125007016Y-125795336D01*
X127159079Y-121326531D02*
X129231308Y-122324464D01*
X129231308Y-122324464D02*
X127079245Y-126793269D01*
%TO.C,D89*%
X54259742Y-152902609D02*
X51654252Y-149867577D01*
X57294774Y-150297119D02*
X54259742Y-152902609D01*
X51654252Y-149867577D02*
X54689284Y-147262087D01*
X54689284Y-147262087D02*
X57294774Y-150297119D01*
%TO.C,H1*%
X39550000Y-111000000D02*
G75*
G03*
X33450000Y-111000000I-3050000J0D01*
G01*
X33450000Y-111000000D02*
G75*
G03*
X39550000Y-111000000I3050000J0D01*
G01*
%TO.C,C89*%
X149501893Y-100735144D02*
X148602067Y-97084403D01*
X151404939Y-100266085D02*
X149501893Y-100735144D01*
X148602067Y-97084403D02*
X150505113Y-96615344D01*
X150505113Y-96615344D02*
X151404939Y-100266085D01*
%TO.C,D13*%
X103835688Y-85206833D02*
X107735400Y-86096917D01*
X102945604Y-89106545D02*
X103835688Y-85206833D01*
X107735400Y-86096917D02*
X106845316Y-89996629D01*
X106845316Y-89996629D02*
X102945604Y-89106545D01*
%TO.C,D56*%
X50974278Y-100976101D02*
X51931541Y-97092334D01*
X54858045Y-101933364D02*
X50974278Y-100976101D01*
X51931541Y-97092334D02*
X55815308Y-98049597D01*
X55815308Y-98049597D02*
X54858045Y-101933364D01*
%TO.C,C159*%
X74154431Y-54041319D02*
X70778686Y-55697201D01*
X73291258Y-52281623D02*
X74154431Y-54041319D01*
X70778686Y-55697201D02*
X69915513Y-53937505D01*
X69915513Y-53937505D02*
X73291258Y-52281623D01*
%TO.C,C57*%
X101880000Y-72480000D02*
X98120000Y-72480000D01*
X101880000Y-70520000D02*
X101880000Y-72480000D01*
X98120000Y-72480000D02*
X98120000Y-70520000D01*
X98120000Y-70520000D02*
X101880000Y-70520000D01*
%TO.C,D18*%
X77442578Y-124082914D02*
X75707043Y-120479039D01*
X81046453Y-122347379D02*
X77442578Y-124082914D01*
X75707043Y-120479039D02*
X79310918Y-118743504D01*
X79310918Y-118743504D02*
X81046453Y-122347379D01*
%TO.C,C156*%
X99187153Y-46007753D02*
X94233520Y-46258973D01*
X99070660Y-43710705D02*
X99187153Y-46007753D01*
X94233520Y-46258973D02*
X94117027Y-43961925D01*
X94117027Y-43961925D02*
X99070660Y-43710705D01*
%TO.C,D20*%
X96164312Y-136793167D02*
X92264600Y-135903083D01*
X97054396Y-132893455D02*
X96164312Y-136793167D01*
X92264600Y-135903083D02*
X93154684Y-132003371D01*
X93154684Y-132003371D02*
X97054396Y-132893455D01*
%TO.C,D80*%
X70899954Y-56216907D02*
X74491172Y-54455331D01*
X72661530Y-59808125D02*
X70899954Y-56216907D01*
X74491172Y-54455331D02*
X76252748Y-58046549D01*
X76252748Y-58046549D02*
X72661530Y-59808125D01*
%TO.C,D50*%
X104041416Y-61123484D02*
X108012251Y-61605631D01*
X103559269Y-65094319D02*
X104041416Y-61123484D01*
X108012251Y-61605631D02*
X107530104Y-65576466D01*
X107530104Y-65576466D02*
X103559269Y-65094319D01*
%TO.C,C55*%
X113691321Y-74946255D02*
X110115348Y-73784351D01*
X114296994Y-73082185D02*
X113691321Y-74946255D01*
X110115348Y-73784351D02*
X110721021Y-71920281D01*
X110721021Y-71920281D02*
X114296994Y-73082185D01*
%TO.C,C81*%
X121120536Y-143268371D02*
X124162439Y-141058298D01*
X122272595Y-144854044D02*
X121120536Y-143268371D01*
X124162439Y-141058298D02*
X125314498Y-142643971D01*
X125314498Y-142643971D02*
X122272595Y-144854044D01*
%TO.C,C91*%
X145606918Y-89186843D02*
X143859559Y-85857528D01*
X147342411Y-88275986D02*
X145606918Y-89186843D01*
X143859559Y-85857528D02*
X145595052Y-84946671D01*
X145595052Y-84946671D02*
X147342411Y-88275986D01*
%TO.C,C47*%
X138520000Y-112880000D02*
X138520000Y-109120000D01*
X140480000Y-112880000D02*
X138520000Y-112880000D01*
X138520000Y-109120000D02*
X140480000Y-109120000D01*
X140480000Y-109120000D02*
X140480000Y-112880000D01*
%TO.C,D9*%
X111313708Y-119485281D02*
X108485281Y-122313708D01*
X108485281Y-116656854D02*
X111313708Y-119485281D01*
X108485281Y-122313708D02*
X105656854Y-119485281D01*
X105656854Y-119485281D02*
X108485281Y-116656854D01*
%TO.C,C59*%
X89884652Y-73784351D02*
X86308679Y-74946255D01*
X89278979Y-71920281D02*
X89884652Y-73784351D01*
X86308679Y-74946255D02*
X85703006Y-73082185D01*
X85703006Y-73082185D02*
X89278979Y-71920281D01*
%TO.C,C43*%
X115065106Y-132906331D02*
X118004792Y-130562009D01*
X116287146Y-134438721D02*
X115065106Y-132906331D01*
X118004792Y-130562009D02*
X119226832Y-132094399D01*
X119226832Y-132094399D02*
X116287146Y-134438721D01*
%TO.C,C45*%
X123077992Y-124200417D02*
X124709395Y-120812774D01*
X124843891Y-125050830D02*
X123077992Y-124200417D01*
X124709395Y-120812774D02*
X126475294Y-121663187D01*
X126475294Y-121663187D02*
X124843891Y-125050830D01*
%TO.C,D71*%
X160328259Y-96560432D02*
X161133453Y-100478552D01*
X156410139Y-97365626D02*
X160328259Y-96560432D01*
X161133453Y-100478552D02*
X157215333Y-101283746D01*
X157215333Y-101283746D02*
X156410139Y-97365626D01*
%TO.C,C147*%
X144436822Y-66981214D02*
X141711601Y-64390698D01*
X145787197Y-65560620D02*
X144436822Y-66981214D01*
X141711601Y-64390698D02*
X143061976Y-62970104D01*
X143061976Y-62970104D02*
X145787197Y-65560620D01*
%TO.C,C41*%
X104068390Y-137273427D02*
X107734119Y-136436748D01*
X104504531Y-139184286D02*
X104068390Y-137273427D01*
X107734119Y-136436748D02*
X108170260Y-138347607D01*
X108170260Y-138347607D02*
X104504531Y-139184286D01*
%TO.C,D52*%
X80399724Y-64958398D02*
X84139789Y-63539979D01*
X81818143Y-68698463D02*
X80399724Y-64958398D01*
X84139789Y-63539979D02*
X85558208Y-67280044D01*
X85558208Y-67280044D02*
X81818143Y-68698463D01*
%TO.C,C188*%
X107383833Y-175576558D02*
X112286636Y-174825477D01*
X107732116Y-177850035D02*
X107383833Y-175576558D01*
X112286636Y-174825477D02*
X112634919Y-177098954D01*
X112634919Y-177098954D02*
X107732116Y-177850035D01*
%TO.C,D23*%
X124292957Y-120479039D02*
X122557422Y-124082914D01*
X120689082Y-118743504D02*
X124292957Y-120479039D01*
X122557422Y-124082914D02*
X118953547Y-122347379D01*
X118953547Y-122347379D02*
X120689082Y-118743504D01*
%TO.C,D35*%
X64477887Y-124644758D02*
X63241819Y-120840532D01*
X68282113Y-123408690D02*
X64477887Y-124644758D01*
X63241819Y-120840532D02*
X67046045Y-119604464D01*
X67046045Y-119604464D02*
X68282113Y-123408690D01*
%TO.C,C71*%
X67731629Y-132120536D02*
X69941702Y-135162439D01*
X66145956Y-133272595D02*
X67731629Y-132120536D01*
X69941702Y-135162439D02*
X68356029Y-136314498D01*
X68356029Y-136314498D02*
X66145956Y-133272595D01*
%TO.C,C171*%
X37610573Y-115454689D02*
X37990966Y-119195397D01*
X35660630Y-115652979D02*
X37610573Y-115454689D01*
X37990966Y-119195397D02*
X36041023Y-119393687D01*
X36041023Y-119393687D02*
X35660630Y-115652979D01*
%TO.C,C101*%
X95776780Y-60621739D02*
X92044194Y-61074957D01*
X95540528Y-58676029D02*
X95776780Y-60621739D01*
X92044194Y-61074957D02*
X91807942Y-59129247D01*
X91807942Y-59129247D02*
X95540528Y-58676029D01*
%TO.C,D43*%
X136758181Y-120840532D02*
X135522113Y-124644758D01*
X132953955Y-119604464D02*
X136758181Y-120840532D01*
X135522113Y-124644758D02*
X131717887Y-123408690D01*
X131717887Y-123408690D02*
X132953955Y-119604464D01*
%TO.C,C132*%
X128038028Y-155985796D02*
X132120028Y-153168195D01*
X129344576Y-157878659D02*
X128038028Y-155985796D01*
X132120028Y-153168195D02*
X133426576Y-155061058D01*
X133426576Y-155061058D02*
X129344576Y-157878659D01*
%TO.C,C9*%
X91062170Y-99403449D02*
X88403449Y-102062170D01*
X89676241Y-98017520D02*
X91062170Y-99403449D01*
X88403449Y-102062170D02*
X87017520Y-100676241D01*
X87017520Y-100676241D02*
X89676241Y-98017520D01*
%TO.C,D93*%
X98857185Y-173021721D02*
X94862319Y-172819125D01*
X99059781Y-169026855D02*
X98857185Y-173021721D01*
X94862319Y-172819125D02*
X95064915Y-168824259D01*
X95064915Y-168824259D02*
X99059781Y-169026855D01*
%TO.C,C177*%
X51337863Y-150297342D02*
X53787023Y-153150272D01*
X49850697Y-151574032D02*
X51337863Y-150297342D01*
X53787023Y-153150272D02*
X52299857Y-154426962D01*
X52299857Y-154426962D02*
X49850697Y-151574032D01*
%TO.C,C118*%
X51962591Y-133411160D02*
X54267618Y-137803022D01*
X49926042Y-134480024D02*
X51962591Y-133411160D01*
X54267618Y-137803022D02*
X52231069Y-138871886D01*
X52231069Y-138871886D02*
X49926042Y-134480024D01*
%TO.C,D6*%
X86000000Y-113000000D02*
X86000000Y-109000000D01*
X90000000Y-113000000D02*
X86000000Y-113000000D01*
X86000000Y-109000000D02*
X90000000Y-109000000D01*
X90000000Y-109000000D02*
X90000000Y-113000000D01*
%TO.C,C179*%
X60244476Y-159288540D02*
X63217793Y-161590058D01*
X59044749Y-160838460D02*
X60244476Y-159288540D01*
X63217793Y-161590058D02*
X62018066Y-163139978D01*
X62018066Y-163139978D02*
X59044749Y-160838460D01*
%TO.C,C8*%
X102480000Y-94050000D02*
X97520000Y-94050000D01*
X102480000Y-91750000D02*
X102480000Y-94050000D01*
X97520000Y-94050000D02*
X97520000Y-91750000D01*
X97520000Y-91750000D02*
X102480000Y-91750000D01*
%TO.C,D100*%
X161133453Y-121521448D02*
X160328259Y-125439568D01*
X157215333Y-120716254D02*
X161133453Y-121521448D01*
X160328259Y-125439568D02*
X156410139Y-124634374D01*
X156410139Y-124634374D02*
X157215333Y-120716254D01*
%TO.C,C152*%
X124883101Y-50954317D02*
X120231851Y-49231683D01*
X125681903Y-48797487D02*
X124883101Y-50954317D01*
X120231851Y-49231683D02*
X121030653Y-47074853D01*
X121030653Y-47074853D02*
X125681903Y-48797487D01*
%TO.C,H6*%
X174250000Y-198000000D02*
G75*
G03*
X168150000Y-198000000I-3050000J0D01*
G01*
X168150000Y-198000000D02*
G75*
G03*
X174250000Y-198000000I3050000J0D01*
G01*
%TO.C,C181*%
X70778686Y-166302799D02*
X74154431Y-167958681D01*
X69915513Y-168062495D02*
X70778686Y-166302799D01*
X74154431Y-167958681D02*
X73291258Y-169718377D01*
X73291258Y-169718377D02*
X69915513Y-168062495D01*
%TO.C,D57*%
X50000000Y-113000000D02*
X50000000Y-109000000D01*
X54000000Y-113000000D02*
X50000000Y-113000000D01*
X50000000Y-109000000D02*
X54000000Y-109000000D01*
X54000000Y-109000000D02*
X54000000Y-113000000D01*
%TO.C,D55*%
X54797753Y-89534754D02*
X56656645Y-85992930D01*
X58339577Y-91393646D02*
X54797753Y-89534754D01*
X56656645Y-85992930D02*
X60198469Y-87851822D01*
X60198469Y-87851822D02*
X58339577Y-91393646D01*
%TO.C,D95*%
X123408430Y-168446021D02*
X119657421Y-169835242D01*
X122019209Y-164695012D02*
X123408430Y-168446021D01*
X119657421Y-169835242D02*
X118268200Y-166084233D01*
X118268200Y-166084233D02*
X122019209Y-164695012D01*
%TO.C,TH4*%
X161400000Y-106150000D02*
X158040000Y-106150000D01*
X161400000Y-104250000D02*
X161400000Y-106150000D01*
X158040000Y-106150000D02*
X158040000Y-104250000D01*
X158040000Y-104250000D02*
X161400000Y-104250000D01*
%TO.C,D42*%
X131918215Y-131717806D02*
X129567074Y-134953873D01*
X128682148Y-129366665D02*
X131918215Y-131717806D01*
X129567074Y-134953873D02*
X126331007Y-132602732D01*
X126331007Y-132602732D02*
X128682148Y-129366665D01*
%TO.C,C194*%
X142950915Y-159783929D02*
X146545887Y-156366653D01*
X144535539Y-161450953D02*
X142950915Y-159783929D01*
X146545887Y-156366653D02*
X148130511Y-158033677D01*
X148130511Y-158033677D02*
X144535539Y-161450953D01*
%TO.C,C31*%
X76922008Y-97799583D02*
X75290605Y-101187226D01*
X75156109Y-96949170D02*
X76922008Y-97799583D01*
X75290605Y-101187226D02*
X73524706Y-100336813D01*
X73524706Y-100336813D02*
X75156109Y-96949170D01*
%TO.C,D15*%
X82225602Y-91919362D02*
X85352928Y-89425402D01*
X84719562Y-95046688D02*
X82225602Y-91919362D01*
X85352928Y-89425402D02*
X87846888Y-92552728D01*
X87846888Y-92552728D02*
X84719562Y-95046688D01*
%TO.C,D1*%
X102000000Y-109000000D02*
X102000000Y-113000000D01*
X98000000Y-109000000D02*
X102000000Y-109000000D01*
X102000000Y-113000000D02*
X98000000Y-113000000D01*
X98000000Y-113000000D02*
X98000000Y-109000000D01*
%TO.C,C195*%
X150240146Y-148258723D02*
X152388114Y-145172653D01*
X151848842Y-149378409D02*
X150240146Y-148258723D01*
X152388114Y-145172653D02*
X153996810Y-146292339D01*
X153996810Y-146292339D02*
X151848842Y-149378409D01*
%TO.C,D49*%
X115860211Y-63539979D02*
X119600276Y-64958398D01*
X114441792Y-67280044D02*
X115860211Y-63539979D01*
X119600276Y-64958398D02*
X118181857Y-68698463D01*
X118181857Y-68698463D02*
X114441792Y-67280044D01*
%TO.C,C117*%
X54393082Y-132813157D02*
X56140441Y-136142472D01*
X52657589Y-133724014D02*
X54393082Y-132813157D01*
X56140441Y-136142472D02*
X54404948Y-137053329D01*
X54404948Y-137053329D02*
X52657589Y-133724014D01*
%TO.C,C32*%
X74992984Y-96204664D02*
X72840921Y-100673469D01*
X72920755Y-95206731D02*
X74992984Y-96204664D01*
X72840921Y-100673469D02*
X70768692Y-99675536D01*
X70768692Y-99675536D02*
X72920755Y-95206731D01*
%TO.C,J3*%
X164270000Y-13380000D02*
X174930000Y-13380000D01*
X164270000Y-31075000D02*
X164270000Y-13380000D01*
X174930000Y-13380000D02*
X174930000Y-31075000D01*
X174930000Y-31075000D02*
X164270000Y-31075000D01*
%TO.C,C33*%
X73480000Y-109120000D02*
X73480000Y-112880000D01*
X71520000Y-109120000D02*
X73480000Y-109120000D01*
X73480000Y-112880000D02*
X71520000Y-112880000D01*
X71520000Y-112880000D02*
X71520000Y-109120000D01*
%TO.C,C174*%
X37286236Y-128077369D02*
X38771077Y-132809900D01*
X35091715Y-128765904D02*
X37286236Y-128077369D01*
X38771077Y-132809900D02*
X36576556Y-133498435D01*
X36576556Y-133498435D02*
X35091715Y-128765904D01*
%TO.C,C149*%
X134666280Y-58937214D02*
X131475378Y-56948309D01*
X135703050Y-57273871D02*
X134666280Y-58937214D01*
X131475378Y-56948309D02*
X132512148Y-55284966D01*
X132512148Y-55284966D02*
X135703050Y-57273871D01*
%TO.C,C109*%
X56140441Y-85857528D02*
X54393082Y-89186843D01*
X54404948Y-84946671D02*
X56140441Y-85857528D01*
X54393082Y-89186843D02*
X52657589Y-88275986D01*
X52657589Y-88275986D02*
X54404948Y-84946671D01*
%TO.C,C11*%
X85480000Y-109120000D02*
X85480000Y-112880000D01*
X83520000Y-109120000D02*
X85480000Y-109120000D01*
X85480000Y-112880000D02*
X83520000Y-112880000D01*
X83520000Y-112880000D02*
X83520000Y-109120000D01*
%TO.C,C197*%
X156711853Y-137382768D02*
X158194631Y-133927487D01*
X158513011Y-138155705D02*
X156711853Y-137382768D01*
X158194631Y-133927487D02*
X159995789Y-134700424D01*
X159995789Y-134700424D02*
X158513011Y-138155705D01*
%TO.C,D75*%
X131098480Y-57326128D02*
X134493057Y-59441985D01*
X128982623Y-60720705D02*
X131098480Y-57326128D01*
X134493057Y-59441985D02*
X132377200Y-62836562D01*
X132377200Y-62836562D02*
X128982623Y-60720705D01*
%TO.C,C111*%
X51397933Y-97084403D02*
X50498107Y-100735144D01*
X49494887Y-96615344D02*
X51397933Y-97084403D01*
X50498107Y-100735144D02*
X48595061Y-100266085D01*
X48595061Y-100266085D02*
X49494887Y-96615344D01*
%TO.C,D97*%
X144165534Y-154559219D02*
X141266363Y-157315086D01*
X141409667Y-151660048D02*
X144165534Y-154559219D01*
X141266363Y-157315086D02*
X138510496Y-154415915D01*
X138510496Y-154415915D02*
X141409667Y-151660048D01*
%TO.C,C1*%
X102520000Y-112880000D02*
X102520000Y-109120000D01*
X104480000Y-112880000D02*
X102520000Y-112880000D01*
X102520000Y-109120000D02*
X104480000Y-109120000D01*
X104480000Y-109120000D02*
X104480000Y-112880000D01*
%TO.C,C125*%
X92044194Y-160925043D02*
X95776780Y-161378261D01*
X91807942Y-162870753D02*
X92044194Y-160925043D01*
X95776780Y-161378261D02*
X95540528Y-163323971D01*
X95540528Y-163323971D02*
X91807942Y-162870753D01*
%TO.C,C63*%
X69941702Y-86837561D02*
X67731629Y-89879464D01*
X68356029Y-85685502D02*
X69941702Y-86837561D01*
X67731629Y-89879464D02*
X66145956Y-88727405D01*
X66145956Y-88727405D02*
X68356029Y-85685502D01*
%TO.C,D78*%
X94862319Y-49180875D02*
X98857185Y-48978279D01*
X95064915Y-53175741D02*
X94862319Y-49180875D01*
X98857185Y-48978279D02*
X99059781Y-52973145D01*
X99059781Y-52973145D02*
X95064915Y-53175741D01*
%TO.C,C148*%
X146545887Y-65633347D02*
X142950915Y-62216071D01*
X148130511Y-63966323D02*
X146545887Y-65633347D01*
X142950915Y-62216071D02*
X144535539Y-60549047D01*
X144535539Y-60549047D02*
X148130511Y-63966323D01*
%TO.C,D5*%
X88686292Y-102514719D02*
X91514719Y-99686292D01*
X91514719Y-105343146D02*
X88686292Y-102514719D01*
X91514719Y-99686292D02*
X94343146Y-102514719D01*
X94343146Y-102514719D02*
X91514719Y-105343146D01*
%TO.C,D27*%
X120717806Y-79081785D02*
X123953873Y-81432926D01*
X118366665Y-82317852D02*
X120717806Y-79081785D01*
X123953873Y-81432926D02*
X121602732Y-84668993D01*
X121602732Y-84668993D02*
X118366665Y-82317852D01*
%TO.C,D74*%
X141266363Y-64684914D02*
X144165534Y-67440781D01*
X138510496Y-67584085D02*
X141266363Y-64684914D01*
X144165534Y-67440781D02*
X141409667Y-70339952D01*
X141409667Y-70339952D02*
X138510496Y-67584085D01*
%TO.C,C126*%
X91155665Y-163265004D02*
X96079501Y-163862866D01*
X90878431Y-165548234D02*
X91155665Y-163265004D01*
X96079501Y-163862866D02*
X95802267Y-166146096D01*
X95802267Y-166146096D02*
X90878431Y-165548234D01*
%TO.C,D63*%
X95958584Y-160876516D02*
X91987749Y-160394369D01*
X96440731Y-156905681D02*
X95958584Y-160876516D01*
X91987749Y-160394369D02*
X92469896Y-156423534D01*
X92469896Y-156423534D02*
X96440731Y-156905681D01*
%TO.C,C61*%
X78879464Y-78731629D02*
X75837561Y-80941702D01*
X77727405Y-77145956D02*
X78879464Y-78731629D01*
X75837561Y-80941702D02*
X74685502Y-79356029D01*
X74685502Y-79356029D02*
X77727405Y-77145956D01*
%TO.C,D2*%
X114000000Y-109000000D02*
X114000000Y-113000000D01*
X110000000Y-109000000D02*
X114000000Y-109000000D01*
X114000000Y-113000000D02*
X110000000Y-113000000D01*
X110000000Y-113000000D02*
X110000000Y-109000000D01*
%TO.C,C104*%
X83542512Y-60611471D02*
X78904831Y-62370311D01*
X82726921Y-58460933D02*
X83542512Y-60611471D01*
X78904831Y-62370311D02*
X78089240Y-60219773D01*
X78089240Y-60219773D02*
X82726921Y-58460933D01*
%TO.C,C127*%
X104223220Y-161378261D02*
X107955806Y-160925043D01*
X104459472Y-163323971D02*
X104223220Y-161378261D01*
X107955806Y-160925043D02*
X108192058Y-162870753D01*
X108192058Y-162870753D02*
X104459472Y-163323971D01*
%TO.C,TH3*%
X112880000Y-104490000D02*
X112880000Y-107850000D01*
X110980000Y-104490000D02*
X112880000Y-104490000D01*
X112880000Y-107850000D02*
X110980000Y-107850000D01*
X110980000Y-107850000D02*
X110980000Y-104490000D01*
%TO.C,D33*%
X63241819Y-101159468D02*
X64477887Y-97355242D01*
X67046045Y-102395536D02*
X63241819Y-101159468D01*
X64477887Y-97355242D02*
X68282113Y-98591310D01*
X68282113Y-98591310D02*
X67046045Y-102395536D01*
%TO.C,D65*%
X119600276Y-157041602D02*
X115860211Y-158460021D01*
X118181857Y-153301537D02*
X119600276Y-157041602D01*
X115860211Y-158460021D02*
X114441792Y-154719956D01*
X114441792Y-154719956D02*
X118181857Y-153301537D01*
%TO.C,C83*%
X130058298Y-135162439D02*
X132268371Y-132120536D01*
X131643971Y-136314498D02*
X130058298Y-135162439D01*
X132268371Y-132120536D02*
X133854044Y-133272595D01*
X133854044Y-133272595D02*
X131643971Y-136314498D01*
%TO.C,J2*%
X163750000Y-208620000D02*
X36250000Y-208620000D01*
X163750000Y-190925000D02*
X163750000Y-208620000D01*
X36250000Y-208620000D02*
X36250000Y-190925000D01*
X36250000Y-190925000D02*
X163750000Y-190925000D01*
%TO.C,C166*%
X44414736Y-77311259D02*
X42007639Y-81648018D01*
X42403739Y-76195064D02*
X44414736Y-77311259D01*
X42007639Y-81648018D02*
X39996642Y-80531823D01*
X39996642Y-80531823D02*
X42403739Y-76195064D01*
%TO.C,C173*%
X39784412Y-127922400D02*
X40910017Y-131509964D01*
X37914299Y-128509152D02*
X39784412Y-127922400D01*
X40910017Y-131509964D02*
X39039904Y-132096716D01*
X39039904Y-132096716D02*
X37914299Y-128509152D01*
%TO.C,D10*%
X126000000Y-109000000D02*
X126000000Y-113000000D01*
X122000000Y-109000000D02*
X126000000Y-109000000D01*
X126000000Y-113000000D02*
X122000000Y-113000000D01*
X122000000Y-113000000D02*
X122000000Y-109000000D01*
%TO.C,C106*%
X71961972Y-66014204D02*
X67879972Y-68831805D01*
X70655424Y-64121341D02*
X71961972Y-66014204D01*
X67879972Y-68831805D02*
X66573424Y-66938942D01*
X66573424Y-66938942D02*
X70655424Y-64121341D01*
%TO.C,C16*%
X97520000Y-127950000D02*
X102480000Y-127950000D01*
X97520000Y-130250000D02*
X97520000Y-127950000D01*
X102480000Y-127950000D02*
X102480000Y-130250000D01*
X102480000Y-130250000D02*
X97520000Y-130250000D01*
%TO.C,D73*%
X149744796Y-73939845D02*
X152029869Y-77222898D01*
X146461743Y-76224918D02*
X149744796Y-73939845D01*
X152029869Y-77222898D02*
X148746816Y-79507971D01*
X148746816Y-79507971D02*
X146461743Y-76224918D01*
%TO.C,D79*%
X82523390Y-51480524D02*
X86395698Y-50477914D01*
X83526000Y-55352832D02*
X82523390Y-51480524D01*
X86395698Y-50477914D02*
X87398308Y-54350222D01*
X87398308Y-54350222D02*
X83526000Y-55352832D01*
%TO.C,C98*%
X121095169Y-62370311D02*
X116457488Y-60611471D01*
X121910760Y-60219773D02*
X121095169Y-62370311D01*
X116457488Y-60611471D02*
X117273079Y-58460933D01*
X117273079Y-58460933D02*
X121910760Y-60219773D01*
%TO.C,C5*%
X111596551Y-102062170D02*
X108937830Y-99403449D01*
X112982480Y-100676241D02*
X111596551Y-102062170D01*
X108937830Y-99403449D02*
X110323759Y-98017520D01*
X110323759Y-98017520D02*
X112982480Y-100676241D01*
%TO.C,D17*%
X74000000Y-113000000D02*
X74000000Y-109000000D01*
X78000000Y-113000000D02*
X74000000Y-113000000D01*
X74000000Y-109000000D02*
X78000000Y-109000000D01*
X78000000Y-109000000D02*
X78000000Y-113000000D01*
%TO.C,C60*%
X89704375Y-71287874D02*
X84987134Y-72820598D01*
X88993636Y-69100444D02*
X89704375Y-71287874D01*
X84987134Y-72820598D02*
X84276395Y-70633168D01*
X84276395Y-70633168D02*
X88993636Y-69100444D01*
%TO.C,H4*%
X35050000Y-197900000D02*
G75*
G03*
X28950000Y-197900000I-3050000J0D01*
G01*
X28950000Y-197900000D02*
G75*
G03*
X35050000Y-197900000I3050000J0D01*
G01*
%TO.C,D3*%
X108485281Y-99686292D02*
X111313708Y-102514719D01*
X105656854Y-102514719D02*
X108485281Y-99686292D01*
X111313708Y-102514719D02*
X108485281Y-105343146D01*
X108485281Y-105343146D02*
X105656854Y-102514719D01*
%TO.C,C112*%
X49182134Y-95920300D02*
X47995128Y-100736172D01*
X46948968Y-95369874D02*
X49182134Y-95920300D01*
X47995128Y-100736172D02*
X45761962Y-100185746D01*
X45761962Y-100185746D02*
X46948968Y-95369874D01*
%TO.C,C80*%
X110295625Y-150712126D02*
X115012866Y-149179402D01*
X111006364Y-152899556D02*
X110295625Y-150712126D01*
X115012866Y-149179402D02*
X115723605Y-151366832D01*
X115723605Y-151366832D02*
X111006364Y-152899556D01*
%TO.C,D24*%
X138000000Y-109000000D02*
X138000000Y-113000000D01*
X134000000Y-109000000D02*
X138000000Y-109000000D01*
X138000000Y-113000000D02*
X134000000Y-113000000D01*
X134000000Y-113000000D02*
X134000000Y-109000000D01*
%TO.C,J1*%
X36250000Y-13380000D02*
X163750000Y-13380000D01*
X36250000Y-31075000D02*
X36250000Y-13380000D01*
X163750000Y-13380000D02*
X163750000Y-31075000D01*
X163750000Y-31075000D02*
X36250000Y-31075000D01*
%TO.C,C84*%
X131671538Y-137076168D02*
X134586953Y-133063444D01*
X133532277Y-138428074D02*
X131671538Y-137076168D01*
X134586953Y-133063444D02*
X136447692Y-134415350D01*
X136447692Y-134415350D02*
X133532277Y-138428074D01*
%TO.C,C144*%
X160664312Y-87665603D02*
X158708307Y-83107572D01*
X162777915Y-86758584D02*
X160664312Y-87665603D01*
X158708307Y-83107572D02*
X160821910Y-82200553D01*
X160821910Y-82200553D02*
X162777915Y-86758584D01*
%TO.C,C88*%
X152950000Y-113480000D02*
X152950000Y-108520000D01*
X155250000Y-113480000D02*
X152950000Y-113480000D01*
X152950000Y-108520000D02*
X155250000Y-108520000D01*
X155250000Y-108520000D02*
X155250000Y-113480000D01*
%TO.C,C75*%
X86308679Y-147053745D02*
X89884652Y-148215649D01*
X85703006Y-148917815D02*
X86308679Y-147053745D01*
X89884652Y-148215649D02*
X89278979Y-150079719D01*
X89278979Y-150079719D02*
X85703006Y-148917815D01*
%TO.C,C121*%
X69754160Y-151509183D02*
X72848579Y-153645107D01*
X68640753Y-153122231D02*
X69754160Y-151509183D01*
X72848579Y-153645107D02*
X71735172Y-155258155D01*
X71735172Y-155258155D02*
X68640753Y-153122231D01*
%TO.C,C186*%
X94233520Y-175741027D02*
X99187153Y-175992247D01*
X94117027Y-178038075D02*
X94233520Y-175741027D01*
X99187153Y-175992247D02*
X99070660Y-178289295D01*
X99070660Y-178289295D02*
X94117027Y-178038075D01*
%TO.C,D53*%
X69950796Y-70986937D02*
X73242731Y-68714678D01*
X72223055Y-74278872D02*
X69950796Y-70986937D01*
X73242731Y-68714678D02*
X75514990Y-72006613D01*
X75514990Y-72006613D02*
X72223055Y-74278872D01*
%TO.C,C23*%
X118004792Y-91437991D02*
X115065106Y-89093669D01*
X119226832Y-89905601D02*
X118004792Y-91437991D01*
X115065106Y-89093669D02*
X116287146Y-87561279D01*
X116287146Y-87561279D02*
X119226832Y-89905601D01*
%TO.C,D67*%
X138751782Y-142659111D02*
X136099291Y-145653154D01*
X135757739Y-140006620D02*
X138751782Y-142659111D01*
X136099291Y-145653154D02*
X133105248Y-143000663D01*
X133105248Y-143000663D02*
X135757739Y-140006620D01*
%TO.C,D87*%
X41442093Y-131468792D02*
X40244640Y-127652235D01*
X45258650Y-130271339D02*
X41442093Y-131468792D01*
X40244640Y-127652235D02*
X44061197Y-126454782D01*
X44061197Y-126454782D02*
X45258650Y-130271339D01*
%TO.C,C119*%
X60938567Y-143093756D02*
X63431908Y-145908156D01*
X59471486Y-144393476D02*
X60938567Y-143093756D01*
X63431908Y-145908156D02*
X61964827Y-147207876D01*
X61964827Y-147207876D02*
X59471486Y-144393476D01*
%TO.C,C192*%
X132251575Y-167431275D02*
X136460850Y-164807613D01*
X133468192Y-169383157D02*
X132251575Y-167431275D01*
X136460850Y-164807613D02*
X137677467Y-166759495D01*
X137677467Y-166759495D02*
X133468192Y-169383157D01*
%TO.C,C34*%
X71050000Y-108520000D02*
X71050000Y-113480000D01*
X68750000Y-108520000D02*
X71050000Y-108520000D01*
X71050000Y-113480000D02*
X68750000Y-113480000D01*
X68750000Y-113480000D02*
X68750000Y-108520000D01*
%TO.C,TH2*%
X168540000Y-91550000D02*
X168540000Y-88190000D01*
X170440000Y-91550000D02*
X168540000Y-91550000D01*
X168540000Y-88190000D02*
X170440000Y-88190000D01*
X170440000Y-88190000D02*
X170440000Y-91550000D01*
%TO.C,C115*%
X50498107Y-121264856D02*
X51397933Y-124915597D01*
X48595061Y-121733915D02*
X50498107Y-121264856D01*
X51397933Y-124915597D02*
X49494887Y-125384656D01*
X49494887Y-125384656D02*
X48595061Y-121733915D01*
%TO.C,C108*%
X62010901Y-74031349D02*
X58721812Y-77743963D01*
X60289326Y-72506167D02*
X62010901Y-74031349D01*
X58721812Y-77743963D02*
X57000237Y-76218781D01*
X57000237Y-76218781D02*
X60289326Y-72506167D01*
%TO.C,H8*%
X140550000Y-117000000D02*
G75*
G03*
X134450000Y-117000000I-3050000J0D01*
G01*
X134450000Y-117000000D02*
G75*
G03*
X140550000Y-117000000I3050000J0D01*
G01*
%TO.C,C175*%
X44423482Y-139697306D02*
X46248217Y-142984850D01*
X42709763Y-140648498D02*
X44423482Y-139697306D01*
X46248217Y-142984850D02*
X44534498Y-143936042D01*
X44534498Y-143936042D02*
X42709763Y-140648498D01*
%TO.C,D45*%
X148068459Y-97092334D02*
X149025722Y-100976101D01*
X144184692Y-98049597D02*
X148068459Y-97092334D01*
X149025722Y-100976101D02*
X145141955Y-101933364D01*
X145141955Y-101933364D02*
X144184692Y-98049597D01*
%TO.C,D39*%
X102000000Y-149000000D02*
X98000000Y-149000000D01*
X102000000Y-145000000D02*
X102000000Y-149000000D01*
X98000000Y-149000000D02*
X98000000Y-145000000D01*
X98000000Y-145000000D02*
X102000000Y-145000000D01*
%TO.C,D70*%
X162000000Y-109000000D02*
X162000000Y-113000000D01*
X158000000Y-109000000D02*
X162000000Y-109000000D01*
X162000000Y-113000000D02*
X158000000Y-113000000D01*
X158000000Y-113000000D02*
X158000000Y-109000000D01*
%TO.C,D8*%
X102000000Y-125000000D02*
X98000000Y-125000000D01*
X102000000Y-121000000D02*
X102000000Y-125000000D01*
X98000000Y-125000000D02*
X98000000Y-121000000D01*
X98000000Y-121000000D02*
X102000000Y-121000000D01*
%TO.C,C193*%
X141711601Y-157609302D02*
X144436822Y-155018786D01*
X143061976Y-159029896D02*
X141711601Y-157609302D01*
X144436822Y-155018786D02*
X145787197Y-156439380D01*
X145787197Y-156439380D02*
X143061976Y-159029896D01*
%TO.C,D30*%
X86355242Y-75477887D02*
X90159468Y-74241819D01*
X87591310Y-79282113D02*
X86355242Y-75477887D01*
X90159468Y-74241819D02*
X91395536Y-78046045D01*
X91395536Y-78046045D02*
X87591310Y-79282113D01*
%TO.C,D59*%
X56656645Y-136007070D02*
X54797753Y-132465246D01*
X60198469Y-134148178D02*
X56656645Y-136007070D01*
X54797753Y-132465246D02*
X58339577Y-130606354D01*
X58339577Y-130606354D02*
X60198469Y-134148178D01*
%TO.C,C48*%
X140950000Y-113480000D02*
X140950000Y-108520000D01*
X143250000Y-113480000D02*
X140950000Y-113480000D01*
X140950000Y-108520000D02*
X143250000Y-108520000D01*
X143250000Y-108520000D02*
X143250000Y-113480000D01*
%TO.C,D88*%
X46761115Y-142837414D02*
X44819907Y-139340028D01*
X50258501Y-140896206D02*
X46761115Y-142837414D01*
X44819907Y-139340028D02*
X48317293Y-137398820D01*
X48317293Y-137398820D02*
X50258501Y-140896206D01*
%TO.C,C64*%
X68328462Y-84923832D02*
X65413047Y-88936556D01*
X66467723Y-83571926D02*
X68328462Y-84923832D01*
X65413047Y-88936556D02*
X63552308Y-87584650D01*
X63552308Y-87584650D02*
X66467723Y-83571926D01*
%TO.C,C56*%
X115012866Y-72820598D02*
X110295625Y-71287874D01*
X115723605Y-70633168D02*
X115012866Y-72820598D01*
X110295625Y-71287874D02*
X111006364Y-69100444D01*
X111006364Y-69100444D02*
X115723605Y-70633168D01*
%TO.C,C39*%
X92265881Y-136436748D02*
X95931610Y-137273427D01*
X91829740Y-138347607D02*
X92265881Y-136436748D01*
X95931610Y-137273427D02*
X95495469Y-139184286D01*
X95495469Y-139184286D02*
X91829740Y-138347607D01*
%TO.C,C94*%
X141278188Y-77743963D02*
X137989099Y-74031349D01*
X142999763Y-76218781D02*
X141278188Y-77743963D01*
X137989099Y-74031349D02*
X139710674Y-72506167D01*
X139710674Y-72506167D02*
X142999763Y-76218781D01*
%TO.C,H11*%
X149150000Y-166600000D02*
G75*
G03*
X143050000Y-166600000I-3050000J0D01*
G01*
X143050000Y-166600000D02*
G75*
G03*
X149150000Y-166600000I3050000J0D01*
G01*
%TO.C,C183*%
X82509219Y-171052955D02*
X86149189Y-171995408D01*
X82017941Y-172950386D02*
X82509219Y-171052955D01*
X86149189Y-171995408D02*
X85657911Y-173892839D01*
X85657911Y-173892839D02*
X82017941Y-172950386D01*
%TD*%
M02*
