%TF.GenerationSoftware,KiCad,Pcbnew,7.0.10-7.0.10~ubuntu20.04.1*%
%TF.CreationDate,2025-03-29T11:51:34+01:00*%
%TF.ProjectId,uven2-mk3-cc-driver,7576656e-322d-46d6-9b33-2d63632d6472,rev?*%
%TF.SameCoordinates,Original*%
%TF.FileFunction,Soldermask,Top*%
%TF.FilePolarity,Negative*%
%FSLAX46Y46*%
G04 Gerber Fmt 4.6, Leading zero omitted, Abs format (unit mm)*
G04 Created by KiCad (PCBNEW 7.0.10-7.0.10~ubuntu20.04.1) date 2025-03-29 11:51:34*
%MOMM*%
%LPD*%
G01*
G04 APERTURE LIST*
G04 Aperture macros list*
%AMRoundRect*
0 Rectangle with rounded corners*
0 $1 Rounding radius*
0 $2 $3 $4 $5 $6 $7 $8 $9 X,Y pos of 4 corners*
0 Add a 4 corners polygon primitive as box body*
4,1,4,$2,$3,$4,$5,$6,$7,$8,$9,$2,$3,0*
0 Add four circle primitives for the rounded corners*
1,1,$1+$1,$2,$3*
1,1,$1+$1,$4,$5*
1,1,$1+$1,$6,$7*
1,1,$1+$1,$8,$9*
0 Add four rect primitives between the rounded corners*
20,1,$1+$1,$2,$3,$4,$5,0*
20,1,$1+$1,$4,$5,$6,$7,0*
20,1,$1+$1,$6,$7,$8,$9,0*
20,1,$1+$1,$8,$9,$2,$3,0*%
G04 Aperture macros list end*
%ADD10C,0.010000*%
%ADD11RoundRect,0.249999X-0.450001X-1.425001X0.450001X-1.425001X0.450001X1.425001X-0.450001X1.425001X0*%
%ADD12RoundRect,0.237500X0.250000X0.237500X-0.250000X0.237500X-0.250000X-0.237500X0.250000X-0.237500X0*%
%ADD13RoundRect,0.237500X-0.300000X-0.237500X0.300000X-0.237500X0.300000X0.237500X-0.300000X0.237500X0*%
%ADD14C,2.200000*%
%ADD15R,1.700000X1.700000*%
%ADD16O,1.700000X1.700000*%
%ADD17RoundRect,0.102000X0.775000X-1.125000X0.775000X1.125000X-0.775000X1.125000X-0.775000X-1.125000X0*%
%ADD18RoundRect,0.102000X-0.800000X1.300000X-0.800000X-1.300000X0.800000X-1.300000X0.800000X1.300000X0*%
%ADD19RoundRect,0.102000X-0.785000X-0.940000X0.785000X-0.940000X0.785000X0.940000X-0.785000X0.940000X0*%
%ADD20RoundRect,0.068000X0.204000X1.554000X-0.204000X1.554000X-0.204000X-1.554000X0.204000X-1.554000X0*%
%ADD21R,2.850000X6.600000*%
%ADD22RoundRect,0.150000X0.587500X0.150000X-0.587500X0.150000X-0.587500X-0.150000X0.587500X-0.150000X0*%
%ADD23RoundRect,0.250000X1.450000X-0.537500X1.450000X0.537500X-1.450000X0.537500X-1.450000X-0.537500X0*%
%ADD24RoundRect,0.237500X-0.237500X0.300000X-0.237500X-0.300000X0.237500X-0.300000X0.237500X0.300000X0*%
G04 APERTURE END LIST*
%TO.C,U2*%
D10*
X115050000Y-94050000D02*
X113350000Y-94050000D01*
X113350000Y-93650000D01*
X115050000Y-93650000D01*
X115050000Y-94050000D01*
G36*
X115050000Y-94050000D02*
G01*
X113350000Y-94050000D01*
X113350000Y-93650000D01*
X115050000Y-93650000D01*
X115050000Y-94050000D01*
G37*
X115050000Y-94550000D02*
X113350000Y-94550000D01*
X113350000Y-94150000D01*
X115050000Y-94150000D01*
X115050000Y-94550000D01*
G36*
X115050000Y-94550000D02*
G01*
X113350000Y-94550000D01*
X113350000Y-94150000D01*
X115050000Y-94150000D01*
X115050000Y-94550000D01*
G37*
X115050000Y-95050000D02*
X113350000Y-95050000D01*
X113350000Y-94650000D01*
X115050000Y-94650000D01*
X115050000Y-95050000D01*
G36*
X115050000Y-95050000D02*
G01*
X113350000Y-95050000D01*
X113350000Y-94650000D01*
X115050000Y-94650000D01*
X115050000Y-95050000D01*
G37*
X115050000Y-95550000D02*
X113350000Y-95550000D01*
X113350000Y-95150000D01*
X115050000Y-95150000D01*
X115050000Y-95550000D01*
G36*
X115050000Y-95550000D02*
G01*
X113350000Y-95550000D01*
X113350000Y-95150000D01*
X115050000Y-95150000D01*
X115050000Y-95550000D01*
G37*
X115050000Y-96050000D02*
X113350000Y-96050000D01*
X113350000Y-95650000D01*
X115050000Y-95650000D01*
X115050000Y-96050000D01*
G36*
X115050000Y-96050000D02*
G01*
X113350000Y-96050000D01*
X113350000Y-95650000D01*
X115050000Y-95650000D01*
X115050000Y-96050000D01*
G37*
X119250000Y-94050000D02*
X117550000Y-94050000D01*
X117550000Y-93650000D01*
X119250000Y-93650000D01*
X119250000Y-94050000D01*
G36*
X119250000Y-94050000D02*
G01*
X117550000Y-94050000D01*
X117550000Y-93650000D01*
X119250000Y-93650000D01*
X119250000Y-94050000D01*
G37*
X119250000Y-94550000D02*
X117550000Y-94550000D01*
X117550000Y-94150000D01*
X119250000Y-94150000D01*
X119250000Y-94550000D01*
G36*
X119250000Y-94550000D02*
G01*
X117550000Y-94550000D01*
X117550000Y-94150000D01*
X119250000Y-94150000D01*
X119250000Y-94550000D01*
G37*
X119250000Y-95050000D02*
X117550000Y-95050000D01*
X117550000Y-94650000D01*
X119250000Y-94650000D01*
X119250000Y-95050000D01*
G36*
X119250000Y-95050000D02*
G01*
X117550000Y-95050000D01*
X117550000Y-94650000D01*
X119250000Y-94650000D01*
X119250000Y-95050000D01*
G37*
X119250000Y-95550000D02*
X117550000Y-95550000D01*
X117550000Y-95150000D01*
X119250000Y-95150000D01*
X119250000Y-95550000D01*
G36*
X119250000Y-95550000D02*
G01*
X117550000Y-95550000D01*
X117550000Y-95150000D01*
X119250000Y-95150000D01*
X119250000Y-95550000D01*
G37*
X119250000Y-96050000D02*
X117550000Y-96050000D01*
X117550000Y-95650000D01*
X119250000Y-95650000D01*
X119250000Y-96050000D01*
G36*
X119250000Y-96050000D02*
G01*
X117550000Y-96050000D01*
X117550000Y-95650000D01*
X119250000Y-95650000D01*
X119250000Y-96050000D01*
G37*
%TO.C,D2*%
X168076000Y-95381000D02*
X168083000Y-95382000D01*
X168091000Y-95383000D01*
X168099000Y-95385000D01*
X168106000Y-95387000D01*
X168114000Y-95390000D01*
X168121000Y-95393000D01*
X168128000Y-95396000D01*
X168135000Y-95400000D01*
X168142000Y-95404000D01*
X168148000Y-95409000D01*
X168154000Y-95413000D01*
X168160000Y-95419000D01*
X168166000Y-95424000D01*
X168171000Y-95430000D01*
X168177000Y-95436000D01*
X168181000Y-95442000D01*
X168186000Y-95448000D01*
X168190000Y-95455000D01*
X168194000Y-95462000D01*
X168197000Y-95469000D01*
X168200000Y-95476000D01*
X168203000Y-95484000D01*
X168205000Y-95491000D01*
X168207000Y-95499000D01*
X168208000Y-95507000D01*
X168209000Y-95514000D01*
X168210000Y-95522000D01*
X168210000Y-95530000D01*
X168210000Y-96340000D01*
X168145000Y-96470000D01*
X168144000Y-96473000D01*
X168141000Y-96478000D01*
X168139000Y-96483000D01*
X168136000Y-96489000D01*
X168134000Y-96494000D01*
X168132000Y-96500000D01*
X168130000Y-96505000D01*
X168127000Y-96511000D01*
X168125000Y-96517000D01*
X168124000Y-96522000D01*
X168122000Y-96528000D01*
X168120000Y-96534000D01*
X168118000Y-96539000D01*
X168117000Y-96545000D01*
X168115000Y-96551000D01*
X168114000Y-96557000D01*
X168113000Y-96563000D01*
X168112000Y-96569000D01*
X168111000Y-96574000D01*
X168110000Y-96580000D01*
X168109000Y-96586000D01*
X168108000Y-96592000D01*
X168107000Y-96598000D01*
X168107000Y-96604000D01*
X168106000Y-96610000D01*
X168106000Y-96616000D01*
X168105000Y-96622000D01*
X168105000Y-96628000D01*
X168105000Y-96634000D01*
X168105000Y-96640000D01*
X168105000Y-97360000D01*
X168105000Y-97366000D01*
X168105000Y-97372000D01*
X168105000Y-97378000D01*
X168106000Y-97384000D01*
X168106000Y-97390000D01*
X168107000Y-97396000D01*
X168107000Y-97402000D01*
X168108000Y-97408000D01*
X168109000Y-97414000D01*
X168110000Y-97420000D01*
X168111000Y-97426000D01*
X168112000Y-97431000D01*
X168113000Y-97437000D01*
X168114000Y-97443000D01*
X168115000Y-97449000D01*
X168117000Y-97455000D01*
X168118000Y-97461000D01*
X168120000Y-97466000D01*
X168122000Y-97472000D01*
X168124000Y-97478000D01*
X168125000Y-97483000D01*
X168127000Y-97489000D01*
X168130000Y-97495000D01*
X168132000Y-97500000D01*
X168134000Y-97506000D01*
X168136000Y-97511000D01*
X168139000Y-97517000D01*
X168141000Y-97522000D01*
X168144000Y-97527000D01*
X168145000Y-97530000D01*
X168210000Y-97660000D01*
X168210000Y-98470000D01*
X168210000Y-98478000D01*
X168209000Y-98486000D01*
X168208000Y-98493000D01*
X168207000Y-98501000D01*
X168205000Y-98509000D01*
X168203000Y-98516000D01*
X168200000Y-98524000D01*
X168197000Y-98531000D01*
X168194000Y-98538000D01*
X168190000Y-98545000D01*
X168186000Y-98552000D01*
X168181000Y-98558000D01*
X168177000Y-98564000D01*
X168171000Y-98570000D01*
X168166000Y-98576000D01*
X168160000Y-98581000D01*
X168154000Y-98587000D01*
X168148000Y-98591000D01*
X168142000Y-98596000D01*
X168135000Y-98600000D01*
X168128000Y-98604000D01*
X168121000Y-98607000D01*
X168114000Y-98610000D01*
X168106000Y-98613000D01*
X168099000Y-98615000D01*
X168091000Y-98617000D01*
X168083000Y-98618000D01*
X168076000Y-98619000D01*
X168068000Y-98620000D01*
X168060000Y-98620000D01*
X167160000Y-98620000D01*
X167152000Y-98620000D01*
X167144000Y-98619000D01*
X167137000Y-98618000D01*
X167129000Y-98617000D01*
X167121000Y-98615000D01*
X167114000Y-98613000D01*
X167106000Y-98610000D01*
X167099000Y-98607000D01*
X167092000Y-98604000D01*
X167085000Y-98600000D01*
X167078000Y-98596000D01*
X167072000Y-98591000D01*
X167066000Y-98587000D01*
X167060000Y-98581000D01*
X167054000Y-98576000D01*
X167049000Y-98570000D01*
X167043000Y-98564000D01*
X167039000Y-98558000D01*
X167034000Y-98552000D01*
X167030000Y-98545000D01*
X167026000Y-98538000D01*
X167023000Y-98531000D01*
X167020000Y-98524000D01*
X167017000Y-98516000D01*
X167015000Y-98509000D01*
X167013000Y-98501000D01*
X167012000Y-98493000D01*
X167011000Y-98486000D01*
X167010000Y-98478000D01*
X167010000Y-98470000D01*
X167010000Y-97660000D01*
X167075000Y-97530000D01*
X167076000Y-97527000D01*
X167079000Y-97522000D01*
X167081000Y-97517000D01*
X167084000Y-97511000D01*
X167086000Y-97506000D01*
X167088000Y-97500000D01*
X167090000Y-97495000D01*
X167093000Y-97489000D01*
X167095000Y-97483000D01*
X167096000Y-97478000D01*
X167098000Y-97472000D01*
X167100000Y-97466000D01*
X167102000Y-97461000D01*
X167103000Y-97455000D01*
X167105000Y-97449000D01*
X167106000Y-97443000D01*
X167107000Y-97437000D01*
X167108000Y-97431000D01*
X167109000Y-97426000D01*
X167110000Y-97420000D01*
X167111000Y-97414000D01*
X167112000Y-97408000D01*
X167113000Y-97402000D01*
X167113000Y-97396000D01*
X167114000Y-97390000D01*
X167114000Y-97384000D01*
X167115000Y-97378000D01*
X167115000Y-97372000D01*
X167115000Y-97366000D01*
X167115000Y-97360000D01*
X167115000Y-96640000D01*
X167115000Y-96634000D01*
X167115000Y-96628000D01*
X167115000Y-96622000D01*
X167114000Y-96616000D01*
X167114000Y-96610000D01*
X167113000Y-96604000D01*
X167113000Y-96598000D01*
X167112000Y-96592000D01*
X167111000Y-96586000D01*
X167110000Y-96580000D01*
X167109000Y-96574000D01*
X167108000Y-96569000D01*
X167107000Y-96563000D01*
X167106000Y-96557000D01*
X167105000Y-96551000D01*
X167103000Y-96545000D01*
X167102000Y-96539000D01*
X167100000Y-96534000D01*
X167098000Y-96528000D01*
X167096000Y-96522000D01*
X167095000Y-96517000D01*
X167093000Y-96511000D01*
X167090000Y-96505000D01*
X167088000Y-96500000D01*
X167086000Y-96494000D01*
X167084000Y-96489000D01*
X167081000Y-96483000D01*
X167079000Y-96478000D01*
X167076000Y-96473000D01*
X167075000Y-96470000D01*
X167010000Y-96340000D01*
X167010000Y-95530000D01*
X167010000Y-95522000D01*
X167011000Y-95514000D01*
X167012000Y-95507000D01*
X167013000Y-95499000D01*
X167015000Y-95491000D01*
X167017000Y-95484000D01*
X167020000Y-95476000D01*
X167023000Y-95469000D01*
X167026000Y-95462000D01*
X167030000Y-95455000D01*
X167034000Y-95448000D01*
X167039000Y-95442000D01*
X167043000Y-95436000D01*
X167049000Y-95430000D01*
X167054000Y-95424000D01*
X167060000Y-95419000D01*
X167066000Y-95413000D01*
X167072000Y-95409000D01*
X167078000Y-95404000D01*
X167085000Y-95400000D01*
X167092000Y-95396000D01*
X167099000Y-95393000D01*
X167106000Y-95390000D01*
X167114000Y-95387000D01*
X167121000Y-95385000D01*
X167129000Y-95383000D01*
X167137000Y-95382000D01*
X167144000Y-95381000D01*
X167152000Y-95380000D01*
X167160000Y-95380000D01*
X168060000Y-95380000D01*
X168068000Y-95380000D01*
X168076000Y-95381000D01*
G36*
X168076000Y-95381000D02*
G01*
X168083000Y-95382000D01*
X168091000Y-95383000D01*
X168099000Y-95385000D01*
X168106000Y-95387000D01*
X168114000Y-95390000D01*
X168121000Y-95393000D01*
X168128000Y-95396000D01*
X168135000Y-95400000D01*
X168142000Y-95404000D01*
X168148000Y-95409000D01*
X168154000Y-95413000D01*
X168160000Y-95419000D01*
X168166000Y-95424000D01*
X168171000Y-95430000D01*
X168177000Y-95436000D01*
X168181000Y-95442000D01*
X168186000Y-95448000D01*
X168190000Y-95455000D01*
X168194000Y-95462000D01*
X168197000Y-95469000D01*
X168200000Y-95476000D01*
X168203000Y-95484000D01*
X168205000Y-95491000D01*
X168207000Y-95499000D01*
X168208000Y-95507000D01*
X168209000Y-95514000D01*
X168210000Y-95522000D01*
X168210000Y-95530000D01*
X168210000Y-96340000D01*
X168145000Y-96470000D01*
X168144000Y-96473000D01*
X168141000Y-96478000D01*
X168139000Y-96483000D01*
X168136000Y-96489000D01*
X168134000Y-96494000D01*
X168132000Y-96500000D01*
X168130000Y-96505000D01*
X168127000Y-96511000D01*
X168125000Y-96517000D01*
X168124000Y-96522000D01*
X168122000Y-96528000D01*
X168120000Y-96534000D01*
X168118000Y-96539000D01*
X168117000Y-96545000D01*
X168115000Y-96551000D01*
X168114000Y-96557000D01*
X168113000Y-96563000D01*
X168112000Y-96569000D01*
X168111000Y-96574000D01*
X168110000Y-96580000D01*
X168109000Y-96586000D01*
X168108000Y-96592000D01*
X168107000Y-96598000D01*
X168107000Y-96604000D01*
X168106000Y-96610000D01*
X168106000Y-96616000D01*
X168105000Y-96622000D01*
X168105000Y-96628000D01*
X168105000Y-96634000D01*
X168105000Y-96640000D01*
X168105000Y-97360000D01*
X168105000Y-97366000D01*
X168105000Y-97372000D01*
X168105000Y-97378000D01*
X168106000Y-97384000D01*
X168106000Y-97390000D01*
X168107000Y-97396000D01*
X168107000Y-97402000D01*
X168108000Y-97408000D01*
X168109000Y-97414000D01*
X168110000Y-97420000D01*
X168111000Y-97426000D01*
X168112000Y-97431000D01*
X168113000Y-97437000D01*
X168114000Y-97443000D01*
X168115000Y-97449000D01*
X168117000Y-97455000D01*
X168118000Y-97461000D01*
X168120000Y-97466000D01*
X168122000Y-97472000D01*
X168124000Y-97478000D01*
X168125000Y-97483000D01*
X168127000Y-97489000D01*
X168130000Y-97495000D01*
X168132000Y-97500000D01*
X168134000Y-97506000D01*
X168136000Y-97511000D01*
X168139000Y-97517000D01*
X168141000Y-97522000D01*
X168144000Y-97527000D01*
X168145000Y-97530000D01*
X168210000Y-97660000D01*
X168210000Y-98470000D01*
X168210000Y-98478000D01*
X168209000Y-98486000D01*
X168208000Y-98493000D01*
X168207000Y-98501000D01*
X168205000Y-98509000D01*
X168203000Y-98516000D01*
X168200000Y-98524000D01*
X168197000Y-98531000D01*
X168194000Y-98538000D01*
X168190000Y-98545000D01*
X168186000Y-98552000D01*
X168181000Y-98558000D01*
X168177000Y-98564000D01*
X168171000Y-98570000D01*
X168166000Y-98576000D01*
X168160000Y-98581000D01*
X168154000Y-98587000D01*
X168148000Y-98591000D01*
X168142000Y-98596000D01*
X168135000Y-98600000D01*
X168128000Y-98604000D01*
X168121000Y-98607000D01*
X168114000Y-98610000D01*
X168106000Y-98613000D01*
X168099000Y-98615000D01*
X168091000Y-98617000D01*
X168083000Y-98618000D01*
X168076000Y-98619000D01*
X168068000Y-98620000D01*
X168060000Y-98620000D01*
X167160000Y-98620000D01*
X167152000Y-98620000D01*
X167144000Y-98619000D01*
X167137000Y-98618000D01*
X167129000Y-98617000D01*
X167121000Y-98615000D01*
X167114000Y-98613000D01*
X167106000Y-98610000D01*
X167099000Y-98607000D01*
X167092000Y-98604000D01*
X167085000Y-98600000D01*
X167078000Y-98596000D01*
X167072000Y-98591000D01*
X167066000Y-98587000D01*
X167060000Y-98581000D01*
X167054000Y-98576000D01*
X167049000Y-98570000D01*
X167043000Y-98564000D01*
X167039000Y-98558000D01*
X167034000Y-98552000D01*
X167030000Y-98545000D01*
X167026000Y-98538000D01*
X167023000Y-98531000D01*
X167020000Y-98524000D01*
X167017000Y-98516000D01*
X167015000Y-98509000D01*
X167013000Y-98501000D01*
X167012000Y-98493000D01*
X167011000Y-98486000D01*
X167010000Y-98478000D01*
X167010000Y-98470000D01*
X167010000Y-97660000D01*
X167075000Y-97530000D01*
X167076000Y-97527000D01*
X167079000Y-97522000D01*
X167081000Y-97517000D01*
X167084000Y-97511000D01*
X167086000Y-97506000D01*
X167088000Y-97500000D01*
X167090000Y-97495000D01*
X167093000Y-97489000D01*
X167095000Y-97483000D01*
X167096000Y-97478000D01*
X167098000Y-97472000D01*
X167100000Y-97466000D01*
X167102000Y-97461000D01*
X167103000Y-97455000D01*
X167105000Y-97449000D01*
X167106000Y-97443000D01*
X167107000Y-97437000D01*
X167108000Y-97431000D01*
X167109000Y-97426000D01*
X167110000Y-97420000D01*
X167111000Y-97414000D01*
X167112000Y-97408000D01*
X167113000Y-97402000D01*
X167113000Y-97396000D01*
X167114000Y-97390000D01*
X167114000Y-97384000D01*
X167115000Y-97378000D01*
X167115000Y-97372000D01*
X167115000Y-97366000D01*
X167115000Y-97360000D01*
X167115000Y-96640000D01*
X167115000Y-96634000D01*
X167115000Y-96628000D01*
X167115000Y-96622000D01*
X167114000Y-96616000D01*
X167114000Y-96610000D01*
X167113000Y-96604000D01*
X167113000Y-96598000D01*
X167112000Y-96592000D01*
X167111000Y-96586000D01*
X167110000Y-96580000D01*
X167109000Y-96574000D01*
X167108000Y-96569000D01*
X167107000Y-96563000D01*
X167106000Y-96557000D01*
X167105000Y-96551000D01*
X167103000Y-96545000D01*
X167102000Y-96539000D01*
X167100000Y-96534000D01*
X167098000Y-96528000D01*
X167096000Y-96522000D01*
X167095000Y-96517000D01*
X167093000Y-96511000D01*
X167090000Y-96505000D01*
X167088000Y-96500000D01*
X167086000Y-96494000D01*
X167084000Y-96489000D01*
X167081000Y-96483000D01*
X167079000Y-96478000D01*
X167076000Y-96473000D01*
X167075000Y-96470000D01*
X167010000Y-96340000D01*
X167010000Y-95530000D01*
X167010000Y-95522000D01*
X167011000Y-95514000D01*
X167012000Y-95507000D01*
X167013000Y-95499000D01*
X167015000Y-95491000D01*
X167017000Y-95484000D01*
X167020000Y-95476000D01*
X167023000Y-95469000D01*
X167026000Y-95462000D01*
X167030000Y-95455000D01*
X167034000Y-95448000D01*
X167039000Y-95442000D01*
X167043000Y-95436000D01*
X167049000Y-95430000D01*
X167054000Y-95424000D01*
X167060000Y-95419000D01*
X167066000Y-95413000D01*
X167072000Y-95409000D01*
X167078000Y-95404000D01*
X167085000Y-95400000D01*
X167092000Y-95396000D01*
X167099000Y-95393000D01*
X167106000Y-95390000D01*
X167114000Y-95387000D01*
X167121000Y-95385000D01*
X167129000Y-95383000D01*
X167137000Y-95382000D01*
X167144000Y-95381000D01*
X167152000Y-95380000D01*
X167160000Y-95380000D01*
X168060000Y-95380000D01*
X168068000Y-95380000D01*
X168076000Y-95381000D01*
G37*
%TD*%
D11*
%TO.C,R4*%
X115450000Y-101600000D03*
X121550000Y-101600000D03*
%TD*%
D12*
%TO.C,R3*%
X140312500Y-103100000D03*
X138487500Y-103100000D03*
%TD*%
%TO.C,R2*%
X111712500Y-89900000D03*
X109887500Y-89900000D03*
%TD*%
%TO.C,R1*%
X116000000Y-89900000D03*
X114175000Y-89900000D03*
%TD*%
D13*
%TO.C,C2*%
X107287500Y-93450000D03*
X109012500Y-93450000D03*
%TD*%
D14*
%TO.C,H5*%
X177000000Y-84000000D03*
%TD*%
D15*
%TO.C,J3*%
X153000000Y-97000000D03*
D16*
X150460000Y-97000000D03*
%TD*%
D17*
%TO.C,D1*%
X125980000Y-89920000D03*
X125980000Y-85920000D03*
%TD*%
D18*
%TO.C,C1*%
X111000000Y-101600000D03*
X111000000Y-105200000D03*
%TD*%
D19*
%TO.C,U2*%
X116300000Y-94850000D03*
%TD*%
D20*
%TO.C,D2*%
X166220000Y-97000000D03*
X169000000Y-97000000D03*
%TD*%
D21*
%TO.C,L1*%
X131175000Y-95000000D03*
X136825000Y-95000000D03*
%TD*%
D14*
%TO.C,H1*%
X109000000Y-84000000D03*
%TD*%
D22*
%TO.C,Q1*%
X125125000Y-95950000D03*
X125125000Y-94050000D03*
X123250000Y-95000000D03*
%TD*%
D15*
%TO.C,J2*%
X102475000Y-88000000D03*
D16*
X102475000Y-85460000D03*
%TD*%
D14*
%TO.C,H4*%
X158000000Y-110000000D03*
%TD*%
D23*
%TO.C,C5*%
X143000000Y-95137500D03*
X143000000Y-90862500D03*
%TD*%
D24*
%TO.C,C3*%
X109250000Y-96887500D03*
X109250000Y-98612500D03*
%TD*%
D15*
%TO.C,J1*%
X102475000Y-100775000D03*
D16*
X102475000Y-98235000D03*
X102475000Y-95695000D03*
%TD*%
D14*
%TO.C,H2*%
X103000000Y-110000000D03*
%TD*%
D13*
%TO.C,C4*%
X119137500Y-90500000D03*
X120862500Y-90500000D03*
%TD*%
D14*
%TO.C,H3*%
X158000000Y-84000000D03*
%TD*%
%TO.C,H6*%
X177000000Y-110000000D03*
%TD*%
M02*
