%TF.GenerationSoftware,KiCad,Pcbnew,7.0.10-7.0.10~ubuntu20.04.1*%
%TF.CreationDate,2025-03-29T11:51:33+01:00*%
%TF.ProjectId,uven2-mk3-cc-driver,7576656e-322d-46d6-9b33-2d63632d6472,rev?*%
%TF.SameCoordinates,Original*%
%TF.FileFunction,Copper,L1,Top*%
%TF.FilePolarity,Positive*%
%FSLAX46Y46*%
G04 Gerber Fmt 4.6, Leading zero omitted, Abs format (unit mm)*
G04 Created by KiCad (PCBNEW 7.0.10-7.0.10~ubuntu20.04.1) date 2025-03-29 11:51:33*
%MOMM*%
%LPD*%
G01*
G04 APERTURE LIST*
G04 Aperture macros list*
%AMRoundRect*
0 Rectangle with rounded corners*
0 $1 Rounding radius*
0 $2 $3 $4 $5 $6 $7 $8 $9 X,Y pos of 4 corners*
0 Add a 4 corners polygon primitive as box body*
4,1,4,$2,$3,$4,$5,$6,$7,$8,$9,$2,$3,0*
0 Add four circle primitives for the rounded corners*
1,1,$1+$1,$2,$3*
1,1,$1+$1,$4,$5*
1,1,$1+$1,$6,$7*
1,1,$1+$1,$8,$9*
0 Add four rect primitives between the rounded corners*
20,1,$1+$1,$2,$3,$4,$5,0*
20,1,$1+$1,$4,$5,$6,$7,0*
20,1,$1+$1,$6,$7,$8,$9,0*
20,1,$1+$1,$8,$9,$2,$3,0*%
%AMFreePoly0*
4,1,393,0.455760,1.524684,0.456581,1.524743,0.458812,1.524000,0.460000,1.524000,0.460760,1.523684,0.461581,1.523743,0.463812,1.523000,0.465000,1.523000,0.465760,1.522684,0.466581,1.522743,0.469581,1.521744,0.469863,1.521498,0.470236,1.521472,0.471919,1.520630,0.474581,1.519744,0.475459,1.518982,0.476536,1.518536,0.477962,1.517108,0.479236,1.516472,0.479774,1.515851,
0.480536,1.515536,0.481962,1.514108,0.483236,1.513472,0.483774,1.512851,0.484536,1.512536,0.492535,1.504536,0.492850,1.503775,0.493472,1.503236,0.494108,1.501963,0.495535,1.500536,0.495850,1.499775,0.496472,1.499236,0.497108,1.497963,0.498535,1.496536,0.498980,1.495460,0.499743,1.494581,0.500630,1.491920,0.501472,1.490236,0.501498,1.489862,0.501743,1.489581,
0.502743,1.486581,0.502684,1.485760,0.503000,1.485000,0.503000,1.483810,0.503743,1.481581,0.503684,1.480760,0.504000,1.480000,0.504000,1.478810,0.504743,1.476581,0.504684,1.475760,0.505000,1.475000,0.505000,0.710000,0.504557,0.708932,0.504480,0.707780,0.450480,0.598780,0.450226,0.598558,0.450161,0.598227,0.448414,0.595608,0.442596,0.582030,0.442379,0.581818,
0.442341,0.581519,0.438642,0.575046,0.436808,0.568626,0.436600,0.568364,0.436596,0.568031,0.427721,0.547322,0.425808,0.540626,0.425600,0.540364,0.425596,0.540031,0.422721,0.533322,0.418830,0.519703,0.416851,0.511787,0.416797,0.511715,0.416808,0.511626,0.412912,0.497991,0.411961,0.490380,0.411761,0.490029,0.411808,0.489626,0.409901,0.482953,0.408950,0.476293,
0.408810,0.476057,0.408851,0.475787,0.406913,0.468036,0.405951,0.461300,0.404961,0.453380,0.404938,0.453339,0.404950,0.453293,0.403951,0.446300,0.402961,0.438380,0.402938,0.438339,0.402950,0.438293,0.401951,0.431300,0.401000,0.423692,0.401000,0.409000,0.400857,0.408655,0.400950,0.408293,0.400000,0.401643,0.400000,-0.401643,0.400950,-0.408293,0.400857,-0.408655,
0.401000,-0.409000,0.401000,-0.423692,0.401950,-0.431293,0.402950,-0.438293,0.402938,-0.438339,0.402961,-0.438380,0.403950,-0.446293,0.404950,-0.453293,0.404938,-0.453339,0.404961,-0.453380,0.405950,-0.461293,0.406913,-0.468036,0.408851,-0.475787,0.408810,-0.476057,0.408950,-0.476293,0.409901,-0.482953,0.411808,-0.489626,0.411761,-0.490029,0.411961,-0.490380,0.412912,-0.497991,
0.416808,-0.511626,0.416797,-0.511715,0.416851,-0.511787,0.418830,-0.519703,0.422721,-0.533322,0.425596,-0.540031,0.425600,-0.540364,0.425808,-0.540626,0.427721,-0.547322,0.436596,-0.568031,0.436600,-0.568364,0.436808,-0.568626,0.438642,-0.575046,0.442341,-0.581519,0.442379,-0.581818,0.442596,-0.582030,0.448414,-0.595608,0.450161,-0.598227,0.450226,-0.598558,0.450480,-0.598780,
0.504480,-0.707780,0.504557,-0.708932,0.505000,-0.710000,0.505000,-1.475000,0.504684,-1.475760,0.504743,-1.476581,0.504000,-1.478810,0.504000,-1.480000,0.503684,-1.480760,0.503743,-1.481581,0.503000,-1.483810,0.503000,-1.485000,0.502684,-1.485760,0.502743,-1.486581,0.501743,-1.489581,0.501498,-1.489862,0.501472,-1.490236,0.500630,-1.491920,0.499743,-1.494581,0.498980,-1.495460,
0.498535,-1.496536,0.497108,-1.497963,0.496472,-1.499236,0.495850,-1.499775,0.495535,-1.500536,0.494108,-1.501963,0.493472,-1.503236,0.492850,-1.503775,0.492535,-1.504536,0.484536,-1.512536,0.483774,-1.512851,0.483236,-1.513472,0.481962,-1.514108,0.480536,-1.515536,0.479774,-1.515851,0.479236,-1.516472,0.477962,-1.517108,0.476536,-1.518536,0.475459,-1.518982,0.474581,-1.519744,
0.471919,-1.520630,0.470236,-1.521472,0.469863,-1.521498,0.469581,-1.521744,0.466581,-1.522743,0.465760,-1.522684,0.465000,-1.523000,0.463812,-1.523000,0.461581,-1.523743,0.460760,-1.523684,0.460000,-1.524000,0.458812,-1.524000,0.456581,-1.524743,0.455760,-1.524684,0.455000,-1.525000,-0.455000,-1.525000,-0.455760,-1.524684,-0.456581,-1.524743,-0.458810,-1.524000,-0.460000,-1.524000,
-0.460760,-1.523684,-0.461581,-1.523743,-0.463810,-1.523000,-0.465000,-1.523000,-0.465760,-1.522684,-0.466581,-1.522743,-0.469581,-1.521743,-0.469862,-1.521498,-0.470236,-1.521472,-0.471920,-1.520630,-0.474581,-1.519743,-0.475460,-1.518980,-0.476536,-1.518535,-0.477963,-1.517108,-0.479236,-1.516472,-0.479775,-1.515850,-0.480536,-1.515535,-0.481963,-1.514108,-0.483236,-1.513472,-0.483775,-1.512850,
-0.484536,-1.512535,-0.492536,-1.504536,-0.492851,-1.503774,-0.493472,-1.503236,-0.494108,-1.501962,-0.495536,-1.500536,-0.495851,-1.499774,-0.496472,-1.499236,-0.497108,-1.497962,-0.498536,-1.496536,-0.498982,-1.495459,-0.499744,-1.494581,-0.500630,-1.491919,-0.501472,-1.490236,-0.501498,-1.489863,-0.501744,-1.489581,-0.502743,-1.486581,-0.502684,-1.485760,-0.503000,-1.485000,-0.503000,-1.483812,
-0.503743,-1.481581,-0.503684,-1.480760,-0.504000,-1.480000,-0.504000,-1.478812,-0.504743,-1.476581,-0.504684,-1.475760,-0.505000,-1.475000,-0.505000,-0.710000,-0.504557,-0.708932,-0.504480,-0.707780,-0.450480,-0.598780,-0.450225,-0.598557,-0.450160,-0.598226,-0.448416,-0.595610,-0.442596,-0.582030,-0.442379,-0.581818,-0.442341,-0.581519,-0.438642,-0.575048,-0.436808,-0.568627,-0.436600,-0.568365,
-0.436596,-0.568030,-0.427721,-0.547321,-0.425808,-0.540627,-0.425600,-0.540365,-0.425596,-0.540030,-0.422721,-0.533321,-0.418831,-0.519710,-0.416851,-0.511788,-0.416797,-0.511715,-0.416808,-0.511626,-0.412912,-0.497993,-0.411961,-0.490380,-0.411761,-0.490029,-0.411808,-0.489626,-0.409901,-0.482954,-0.408950,-0.476293,-0.408810,-0.476057,-0.408851,-0.475787,-0.406913,-0.468038,-0.405950,-0.461293,
-0.404961,-0.453380,-0.404938,-0.453339,-0.404950,-0.453293,-0.403950,-0.446293,-0.402961,-0.438380,-0.402938,-0.438339,-0.402950,-0.438293,-0.401950,-0.431293,-0.401000,-0.423692,-0.401000,-0.409000,-0.400857,-0.408655,-0.400950,-0.408293,-0.400000,-0.401643,-0.400000,0.401643,-0.400950,0.408293,-0.400857,0.408655,-0.401000,0.409000,-0.401000,0.423692,-0.401951,0.431300,-0.402950,0.438293,
-0.402938,0.438339,-0.402961,0.438380,-0.403951,0.446300,-0.404950,0.453293,-0.404938,0.453339,-0.404961,0.453380,-0.405951,0.461300,-0.406913,0.468038,-0.408851,0.475787,-0.408810,0.476057,-0.408950,0.476293,-0.409901,0.482954,-0.411808,0.489626,-0.411761,0.490029,-0.411961,0.490380,-0.412912,0.497993,-0.416808,0.511626,-0.416797,0.511715,-0.416851,0.511788,-0.418831,0.519710,
-0.422721,0.533321,-0.425596,0.540030,-0.425600,0.540365,-0.425808,0.540627,-0.427721,0.547321,-0.436596,0.568030,-0.436600,0.568365,-0.436808,0.568627,-0.438642,0.575048,-0.442341,0.581519,-0.442379,0.581818,-0.442596,0.582030,-0.448416,0.595610,-0.450160,0.598226,-0.450225,0.598557,-0.450480,0.598780,-0.504480,0.707780,-0.504557,0.708932,-0.505000,0.710000,-0.505000,1.475000,
-0.504684,1.475760,-0.504743,1.476581,-0.504000,1.478812,-0.504000,1.480000,-0.503684,1.480760,-0.503743,1.481581,-0.503000,1.483812,-0.503000,1.485000,-0.502684,1.485760,-0.502743,1.486581,-0.501744,1.489581,-0.501498,1.489863,-0.501472,1.490236,-0.500630,1.491919,-0.499744,1.494581,-0.498982,1.495459,-0.498536,1.496536,-0.497108,1.497962,-0.496472,1.499236,-0.495851,1.499774,
-0.495536,1.500536,-0.494108,1.501962,-0.493472,1.503236,-0.492851,1.503774,-0.492536,1.504536,-0.484536,1.512535,-0.483775,1.512850,-0.483236,1.513472,-0.481963,1.514108,-0.480536,1.515535,-0.479775,1.515850,-0.479236,1.516472,-0.477963,1.517108,-0.476536,1.518535,-0.475460,1.518980,-0.474581,1.519743,-0.471920,1.520630,-0.470236,1.521472,-0.469862,1.521498,-0.469581,1.521743,
-0.466581,1.522743,-0.465760,1.522684,-0.465000,1.523000,-0.463810,1.523000,-0.461581,1.523743,-0.460760,1.523684,-0.460000,1.524000,-0.458810,1.524000,-0.456581,1.524743,-0.455760,1.524684,-0.455000,1.525000,0.455000,1.525000,0.455760,1.524684,0.455760,1.524684,$1*%
G04 Aperture macros list end*
%TA.AperFunction,SMDPad,CuDef*%
%ADD10RoundRect,0.249999X-0.450001X-1.425001X0.450001X-1.425001X0.450001X1.425001X-0.450001X1.425001X0*%
%TD*%
%TA.AperFunction,SMDPad,CuDef*%
%ADD11RoundRect,0.237500X0.250000X0.237500X-0.250000X0.237500X-0.250000X-0.237500X0.250000X-0.237500X0*%
%TD*%
%TA.AperFunction,SMDPad,CuDef*%
%ADD12RoundRect,0.237500X-0.300000X-0.237500X0.300000X-0.237500X0.300000X0.237500X-0.300000X0.237500X0*%
%TD*%
%TA.AperFunction,ComponentPad*%
%ADD13R,1.700000X1.700000*%
%TD*%
%TA.AperFunction,ComponentPad*%
%ADD14O,1.700000X1.700000*%
%TD*%
%TA.AperFunction,SMDPad,CuDef*%
%ADD15R,1.550000X2.250000*%
%TD*%
%TA.AperFunction,SMDPad,CuDef*%
%ADD16R,1.600000X2.600000*%
%TD*%
%TA.AperFunction,SMDPad,CuDef*%
%ADD17R,1.600000X0.300000*%
%TD*%
%TA.AperFunction,SMDPad,CuDef*%
%ADD18R,1.570000X1.880000*%
%TD*%
%TA.AperFunction,ComponentPad*%
%ADD19C,0.600000*%
%TD*%
%TA.AperFunction,SMDPad,CuDef*%
%ADD20RoundRect,0.042500X0.127500X1.477500X-0.127500X1.477500X-0.127500X-1.477500X0.127500X-1.477500X0*%
%TD*%
%TA.AperFunction,SMDPad,CuDef*%
%ADD21FreePoly0,180.000000*%
%TD*%
%TA.AperFunction,SMDPad,CuDef*%
%ADD22R,2.850000X6.600000*%
%TD*%
%TA.AperFunction,SMDPad,CuDef*%
%ADD23RoundRect,0.150000X0.587500X0.150000X-0.587500X0.150000X-0.587500X-0.150000X0.587500X-0.150000X0*%
%TD*%
%TA.AperFunction,SMDPad,CuDef*%
%ADD24RoundRect,0.250000X1.450000X-0.537500X1.450000X0.537500X-1.450000X0.537500X-1.450000X-0.537500X0*%
%TD*%
%TA.AperFunction,SMDPad,CuDef*%
%ADD25RoundRect,0.237500X-0.237500X0.300000X-0.237500X-0.300000X0.237500X-0.300000X0.237500X0.300000X0*%
%TD*%
%TA.AperFunction,ViaPad*%
%ADD26C,0.800000*%
%TD*%
%TA.AperFunction,Conductor*%
%ADD27C,0.300000*%
%TD*%
%TA.AperFunction,Conductor*%
%ADD28C,0.250000*%
%TD*%
%TA.AperFunction,Conductor*%
%ADD29C,1.500000*%
%TD*%
%TA.AperFunction,Conductor*%
%ADD30C,1.000000*%
%TD*%
G04 APERTURE END LIST*
D10*
%TO.P,R4,1*%
%TO.N,VCC*%
X115450000Y-101600000D03*
%TO.P,R4,2*%
%TO.N,Net-(Q1-D)*%
X121550000Y-101600000D03*
%TD*%
D11*
%TO.P,R3,1*%
%TO.N,Net-(J3-Pin_2)*%
X140312500Y-103100000D03*
%TO.P,R3,2*%
%TO.N,Net-(U2-COFF)*%
X138487500Y-103100000D03*
%TD*%
%TO.P,R2,1*%
%TO.N,Net-(U2-UVLO)*%
X111712500Y-89900000D03*
%TO.P,R2,2*%
%TO.N,GND*%
X109887500Y-89900000D03*
%TD*%
%TO.P,R1,1*%
%TO.N,VCC*%
X116000000Y-89900000D03*
%TO.P,R1,2*%
%TO.N,Net-(U2-UVLO)*%
X114175000Y-89900000D03*
%TD*%
D12*
%TO.P,C2,1*%
%TO.N,GND*%
X107287500Y-93450000D03*
%TO.P,C2,2*%
%TO.N,Net-(J2-Pin_2)*%
X109012500Y-93450000D03*
%TD*%
D13*
%TO.P,J3,1,Pin_1*%
%TO.N,Net-(J3-Pin_1)*%
X153000000Y-97000000D03*
D14*
%TO.P,J3,2,Pin_2*%
%TO.N,Net-(J3-Pin_2)*%
X150460000Y-97000000D03*
%TD*%
D15*
%TO.P,D1,1*%
%TO.N,Net-(Q1-S)*%
X125980000Y-89920000D03*
%TO.P,D1,2*%
%TO.N,GND*%
X125980000Y-85920000D03*
%TD*%
D16*
%TO.P,C1,1*%
%TO.N,VCC*%
X111000000Y-101600000D03*
%TO.P,C1,2*%
%TO.N,GND*%
X111000000Y-105200000D03*
%TD*%
D17*
%TO.P,U2,1,UVLO*%
%TO.N,Net-(U2-UVLO)*%
X114200000Y-93850000D03*
%TO.P,U2,2,IADJ*%
%TO.N,Net-(J2-Pin_2)*%
X114200000Y-94350000D03*
%TO.P,U2,3,EN*%
%TO.N,/ENABLE*%
X114200000Y-94850000D03*
%TO.P,U2,4,COFF*%
%TO.N,Net-(U2-COFF)*%
X114200000Y-95350000D03*
%TO.P,U2,5,GND*%
%TO.N,GND*%
X114200000Y-95850000D03*
%TO.P,U2,6,PGATE*%
%TO.N,Net-(Q1-G)*%
X118400000Y-95850000D03*
%TO.P,U2,7,CSN*%
%TO.N,Net-(Q1-D)*%
X118400000Y-95350000D03*
%TO.P,U2,8,CSP*%
%TO.N,VCC*%
X118400000Y-94850000D03*
%TO.P,U2,9,VCC*%
%TO.N,Net-(U2-VCC)*%
X118400000Y-94350000D03*
%TO.P,U2,10,VIN*%
%TO.N,VCC*%
X118400000Y-93850000D03*
D18*
%TO.P,U2,11,PAD*%
%TO.N,GND*%
X116300000Y-94850000D03*
D19*
%TO.P,U2,12*%
X115850000Y-94250000D03*
%TO.P,U2,13*%
X116750000Y-94250000D03*
%TO.P,U2,14*%
X116300000Y-94850000D03*
%TO.P,U2,15*%
X115850000Y-95450000D03*
%TO.P,U2,16*%
X116750000Y-95450000D03*
%TD*%
D20*
%TO.P,D2,A*%
%TO.N,Net-(J3-Pin_1)*%
X166220000Y-97000000D03*
%TO.P,D2,C*%
%TO.N,GND*%
X169000000Y-97000000D03*
D21*
%TO.P,D2,EXP*%
X167610000Y-97000000D03*
%TD*%
D22*
%TO.P,L1,1*%
%TO.N,Net-(Q1-S)*%
X131175000Y-95000000D03*
%TO.P,L1,2*%
%TO.N,Net-(J3-Pin_2)*%
X136825000Y-95000000D03*
%TD*%
D23*
%TO.P,Q1,1,G*%
%TO.N,Net-(Q1-G)*%
X125125000Y-95950000D03*
%TO.P,Q1,2,S*%
%TO.N,Net-(Q1-S)*%
X125125000Y-94050000D03*
%TO.P,Q1,3,D*%
%TO.N,Net-(Q1-D)*%
X123250000Y-95000000D03*
%TD*%
D13*
%TO.P,J2,1,Pin_1*%
%TO.N,GND*%
X102475000Y-88000000D03*
D14*
%TO.P,J2,2,Pin_2*%
%TO.N,Net-(J2-Pin_2)*%
X102475000Y-85460000D03*
%TD*%
D24*
%TO.P,C5,1*%
%TO.N,Net-(J3-Pin_2)*%
X143000000Y-95137500D03*
%TO.P,C5,2*%
%TO.N,GND*%
X143000000Y-90862500D03*
%TD*%
D25*
%TO.P,C3,1*%
%TO.N,Net-(U2-COFF)*%
X109250000Y-96887500D03*
%TO.P,C3,2*%
%TO.N,GND*%
X109250000Y-98612500D03*
%TD*%
D13*
%TO.P,J1,1,Pin_1*%
%TO.N,VCC*%
X102475000Y-100775000D03*
D14*
%TO.P,J1,2,Pin_2*%
%TO.N,GND*%
X102475000Y-98235000D03*
%TO.P,J1,3,Pin_3*%
%TO.N,/ENABLE*%
X102475000Y-95695000D03*
%TD*%
D12*
%TO.P,C4,1*%
%TO.N,VCC*%
X119137500Y-90500000D03*
%TO.P,C4,2*%
%TO.N,Net-(U2-VCC)*%
X120862500Y-90500000D03*
%TD*%
D26*
%TO.N,GND*%
X114000000Y-98900000D03*
X111850000Y-98900000D03*
X112900000Y-98900000D03*
%TO.N,VCC*%
X119137500Y-93000000D03*
X120500000Y-94500000D03*
X115500000Y-99500000D03*
%TO.N,GND*%
X112400000Y-98000000D03*
X115000000Y-97100000D03*
X113450000Y-98000000D03*
X114500000Y-98000000D03*
X113000000Y-97100000D03*
X114000000Y-97100000D03*
%TO.N,Net-(U2-COFF)*%
X125400000Y-103100000D03*
X107700000Y-96900000D03*
%TO.N,Net-(Q1-G)*%
X125000000Y-97000000D03*
X118500000Y-97000000D03*
%TD*%
D27*
%TO.N,Net-(J2-Pin_2)*%
X102475000Y-85460000D02*
X104380000Y-85460000D01*
X104380000Y-85460000D02*
X104390000Y-85450000D01*
X109012500Y-93062500D02*
X109012500Y-93450000D01*
X104390000Y-85450000D02*
X105640000Y-86700000D01*
X105640000Y-89690000D02*
X109012500Y-93062500D01*
X105640000Y-86700000D02*
X105640000Y-89690000D01*
X109012500Y-93450000D02*
X109912500Y-94350000D01*
X109912500Y-94350000D02*
X110962500Y-94350000D01*
D28*
%TO.N,Net-(U2-UVLO)*%
X111712500Y-89900000D02*
X114175000Y-89900000D01*
%TO.N,VCC*%
X116000000Y-89900000D02*
X118537500Y-89900000D01*
X118537500Y-89900000D02*
X119137500Y-90500000D01*
D27*
X115500000Y-99500000D02*
X115500000Y-101550000D01*
X115500000Y-101550000D02*
X115450000Y-101600000D01*
D29*
X111000000Y-101600000D02*
X103300000Y-101600000D01*
X103300000Y-101600000D02*
X102475000Y-100775000D01*
X115450000Y-101600000D02*
X111000000Y-101600000D01*
%TO.N,Net-(Q1-D)*%
X123250000Y-95000000D02*
X123250000Y-101050000D01*
X123250000Y-101050000D02*
X122700000Y-101600000D01*
X122700000Y-101600000D02*
X121550000Y-101600000D01*
D30*
%TO.N,Net-(J3-Pin_1)*%
X153000000Y-97000000D02*
X165700000Y-97000000D01*
D27*
%TO.N,VCC*%
X119137500Y-93112500D02*
X118400000Y-93850000D01*
X118400000Y-94850000D02*
X120150000Y-94850000D01*
X119137500Y-90500000D02*
X119137500Y-93000000D01*
X119137500Y-93000000D02*
X119137500Y-93112500D01*
X120150000Y-94850000D02*
X120500000Y-94500000D01*
D28*
%TO.N,GND*%
X114200000Y-96800000D02*
X113900000Y-97100000D01*
X109250000Y-98612500D02*
X109250000Y-98725000D01*
X114200000Y-95850000D02*
X114200000Y-96800000D01*
D27*
%TO.N,Net-(J2-Pin_2)*%
X110962500Y-94350000D02*
X114200000Y-94350000D01*
%TO.N,Net-(U2-COFF)*%
X107712500Y-96887500D02*
X107700000Y-96900000D01*
X110912500Y-96887500D02*
X112450000Y-95350000D01*
X138400000Y-103100000D02*
X125400000Y-103100000D01*
X112450000Y-95350000D02*
X114200000Y-95350000D01*
X109250000Y-96887500D02*
X110912500Y-96887500D01*
X109250000Y-96887500D02*
X107712500Y-96887500D01*
%TO.N,Net-(U2-VCC)*%
X120862500Y-92987500D02*
X120862500Y-90500000D01*
X118400000Y-94350000D02*
X119500000Y-94350000D01*
X119500000Y-94350000D02*
X120862500Y-92987500D01*
%TO.N,Net-(J3-Pin_2)*%
X140400000Y-103100000D02*
X140400000Y-97737500D01*
D30*
X148597500Y-95137500D02*
X150460000Y-97000000D01*
X142862500Y-95000000D02*
X143000000Y-95137500D01*
X137200000Y-95000000D02*
X142862500Y-95000000D01*
D27*
X140400000Y-97737500D02*
X143000000Y-95137500D01*
D30*
X143000000Y-95137500D02*
X148597500Y-95137500D01*
D29*
%TO.N,Net-(Q1-S)*%
X129850000Y-94050000D02*
X130800000Y-95000000D01*
X126000000Y-89900000D02*
X126000000Y-93175000D01*
X126000000Y-93175000D02*
X125125000Y-94050000D01*
X125125000Y-94050000D02*
X129850000Y-94050000D01*
D28*
%TO.N,Net-(Q1-G)*%
X118500000Y-95950000D02*
X118425000Y-95875000D01*
X118425000Y-95875000D02*
X118400000Y-95875000D01*
X118500000Y-97000000D02*
X118500000Y-95950000D01*
X125125000Y-95950000D02*
X125125000Y-96875000D01*
X125125000Y-96875000D02*
X125000000Y-97000000D01*
D27*
%TO.N,Net-(Q1-D)*%
X122900000Y-95350000D02*
X118400000Y-95350000D01*
D28*
X123250000Y-95000000D02*
X122900000Y-95350000D01*
D27*
%TO.N,Net-(U2-UVLO)*%
X114000000Y-90000000D02*
X114000000Y-93650000D01*
X114000000Y-93650000D02*
X114200000Y-93850000D01*
%TO.N,/ENABLE*%
X111350000Y-94850000D02*
X110505000Y-95695000D01*
X110505000Y-95695000D02*
X102475000Y-95695000D01*
X114200000Y-94850000D02*
X111350000Y-94850000D01*
%TD*%
%TA.AperFunction,Conductor*%
%TO.N,GND*%
G36*
X117200000Y-96600000D02*
G01*
X115400000Y-96600000D01*
X115400000Y-93100000D01*
X117200000Y-93100000D01*
X117200000Y-96600000D01*
G37*
%TD.AperFunction*%
%TD*%
%TA.AperFunction,Conductor*%
%TO.N,GND*%
G36*
X118042540Y-90545185D02*
G01*
X118088295Y-90597989D01*
X118099501Y-90649500D01*
X118099501Y-90786686D01*
X118109825Y-90887752D01*
X118123752Y-90929779D01*
X118164092Y-91051516D01*
X118254660Y-91198350D01*
X118376650Y-91320340D01*
X118428097Y-91352072D01*
X118474821Y-91404017D01*
X118487000Y-91457610D01*
X118487000Y-92329078D01*
X118467315Y-92396117D01*
X118455150Y-92412050D01*
X118404966Y-92467785D01*
X118310321Y-92631715D01*
X118310318Y-92631722D01*
X118271249Y-92751965D01*
X118251826Y-92811744D01*
X118242688Y-92898688D01*
X118232040Y-93000001D01*
X118235179Y-93029873D01*
X118222608Y-93098603D01*
X118199539Y-93130513D01*
X118166871Y-93163181D01*
X118105548Y-93196666D01*
X118079190Y-93199500D01*
X117552129Y-93199500D01*
X117552123Y-93199501D01*
X117492516Y-93205908D01*
X117357671Y-93256202D01*
X117357664Y-93256206D01*
X117242456Y-93342452D01*
X117242455Y-93342453D01*
X117242454Y-93342454D01*
X117229084Y-93360312D01*
X117200000Y-93382083D01*
X117200000Y-93100000D01*
X115400000Y-93100000D01*
X115400000Y-93387389D01*
X115370915Y-93360312D01*
X115357548Y-93342457D01*
X115357546Y-93342454D01*
X115311304Y-93307837D01*
X115242335Y-93256206D01*
X115242328Y-93256202D01*
X115107482Y-93205908D01*
X115107483Y-93205908D01*
X115047883Y-93199501D01*
X115047881Y-93199500D01*
X115047873Y-93199500D01*
X115047865Y-93199500D01*
X114774500Y-93199500D01*
X114707461Y-93179815D01*
X114661706Y-93127011D01*
X114650500Y-93075500D01*
X114650500Y-90929779D01*
X114670185Y-90862740D01*
X114722989Y-90816985D01*
X114735488Y-90812076D01*
X114739016Y-90810908D01*
X114885850Y-90720340D01*
X114999819Y-90606371D01*
X115061142Y-90572886D01*
X115130834Y-90577870D01*
X115175181Y-90606371D01*
X115289150Y-90720340D01*
X115435984Y-90810908D01*
X115599747Y-90865174D01*
X115700823Y-90875500D01*
X116299176Y-90875499D01*
X116299184Y-90875498D01*
X116299187Y-90875498D01*
X116354530Y-90869844D01*
X116400253Y-90865174D01*
X116564016Y-90810908D01*
X116710850Y-90720340D01*
X116832840Y-90598350D01*
X116841442Y-90584404D01*
X116893390Y-90537679D01*
X116946981Y-90525500D01*
X117975501Y-90525500D01*
X118042540Y-90545185D01*
G37*
%TD.AperFunction*%
%TA.AperFunction,Conductor*%
G36*
X168601039Y-96769685D02*
G01*
X168622809Y-96794809D01*
X168658000Y-96830000D01*
X168750000Y-96830000D01*
X168750000Y-97170000D01*
X168658000Y-97170000D01*
X168639709Y-97188290D01*
X168638315Y-97193039D01*
X168585511Y-97238794D01*
X168534000Y-97250000D01*
X168100000Y-97250000D01*
X168100000Y-96750000D01*
X168534000Y-96750000D01*
X168601039Y-96769685D01*
G37*
%TD.AperFunction*%
%TA.AperFunction,Conductor*%
G36*
X179942539Y-81020185D02*
G01*
X179988294Y-81072989D01*
X179999500Y-81124500D01*
X179999500Y-112875500D01*
X179979815Y-112942539D01*
X179927011Y-112988294D01*
X179875500Y-112999500D01*
X100124500Y-112999500D01*
X100057461Y-112979815D01*
X100011706Y-112927011D01*
X100000500Y-112875500D01*
X100000500Y-110000000D01*
X101644341Y-110000000D01*
X101664936Y-110235403D01*
X101664938Y-110235413D01*
X101726094Y-110463655D01*
X101726096Y-110463659D01*
X101726097Y-110463663D01*
X101776031Y-110570746D01*
X101825964Y-110677828D01*
X101825965Y-110677830D01*
X101961505Y-110871402D01*
X102128597Y-111038494D01*
X102322169Y-111174034D01*
X102322171Y-111174035D01*
X102536337Y-111273903D01*
X102764592Y-111335063D01*
X102941032Y-111350499D01*
X102941033Y-111350500D01*
X102941034Y-111350500D01*
X103058967Y-111350500D01*
X103058967Y-111350499D01*
X103235408Y-111335063D01*
X103463663Y-111273903D01*
X103677829Y-111174035D01*
X103871401Y-111038495D01*
X104038495Y-110871401D01*
X104174035Y-110677830D01*
X104273903Y-110463663D01*
X104335063Y-110235408D01*
X104355659Y-110000000D01*
X156644341Y-110000000D01*
X156664936Y-110235403D01*
X156664938Y-110235413D01*
X156726094Y-110463655D01*
X156726096Y-110463659D01*
X156726097Y-110463663D01*
X156776031Y-110570746D01*
X156825964Y-110677828D01*
X156825965Y-110677830D01*
X156961505Y-110871402D01*
X157128597Y-111038494D01*
X157322169Y-111174034D01*
X157322171Y-111174035D01*
X157536337Y-111273903D01*
X157764592Y-111335063D01*
X157941032Y-111350499D01*
X157941033Y-111350500D01*
X157941034Y-111350500D01*
X158058967Y-111350500D01*
X158058967Y-111350499D01*
X158235408Y-111335063D01*
X158463663Y-111273903D01*
X158677829Y-111174035D01*
X158871401Y-111038495D01*
X159038495Y-110871401D01*
X159174035Y-110677830D01*
X159273903Y-110463663D01*
X159335063Y-110235408D01*
X159355659Y-110000000D01*
X175644341Y-110000000D01*
X175664936Y-110235403D01*
X175664938Y-110235413D01*
X175726094Y-110463655D01*
X175726096Y-110463659D01*
X175726097Y-110463663D01*
X175776031Y-110570746D01*
X175825964Y-110677828D01*
X175825965Y-110677830D01*
X175961505Y-110871402D01*
X176128597Y-111038494D01*
X176322169Y-111174034D01*
X176322171Y-111174035D01*
X176536337Y-111273903D01*
X176764592Y-111335063D01*
X176941032Y-111350499D01*
X176941033Y-111350500D01*
X176941034Y-111350500D01*
X177058967Y-111350500D01*
X177058967Y-111350499D01*
X177235408Y-111335063D01*
X177463663Y-111273903D01*
X177677829Y-111174035D01*
X177871401Y-111038495D01*
X178038495Y-110871401D01*
X178174035Y-110677830D01*
X178273903Y-110463663D01*
X178335063Y-110235408D01*
X178355659Y-110000000D01*
X178335063Y-109764592D01*
X178273903Y-109536337D01*
X178174035Y-109322171D01*
X178174034Y-109322169D01*
X178038494Y-109128597D01*
X177871402Y-108961505D01*
X177677830Y-108825965D01*
X177677828Y-108825964D01*
X177570746Y-108776031D01*
X177463663Y-108726097D01*
X177463659Y-108726096D01*
X177463655Y-108726094D01*
X177235413Y-108664938D01*
X177235403Y-108664936D01*
X177058967Y-108649500D01*
X177058966Y-108649500D01*
X176941034Y-108649500D01*
X176941033Y-108649500D01*
X176764596Y-108664936D01*
X176764586Y-108664938D01*
X176536344Y-108726094D01*
X176536335Y-108726098D01*
X176322171Y-108825964D01*
X176322169Y-108825965D01*
X176128597Y-108961505D01*
X175961506Y-109128597D01*
X175961501Y-109128604D01*
X175825967Y-109322165D01*
X175825965Y-109322169D01*
X175726098Y-109536335D01*
X175726094Y-109536344D01*
X175664938Y-109764586D01*
X175664936Y-109764596D01*
X175644341Y-109999999D01*
X175644341Y-110000000D01*
X159355659Y-110000000D01*
X159335063Y-109764592D01*
X159273903Y-109536337D01*
X159174035Y-109322171D01*
X159174034Y-109322169D01*
X159038494Y-109128597D01*
X158871402Y-108961505D01*
X158677830Y-108825965D01*
X158677828Y-108825964D01*
X158570746Y-108776031D01*
X158463663Y-108726097D01*
X158463659Y-108726096D01*
X158463655Y-108726094D01*
X158235413Y-108664938D01*
X158235403Y-108664936D01*
X158058967Y-108649500D01*
X158058966Y-108649500D01*
X157941034Y-108649500D01*
X157941033Y-108649500D01*
X157764596Y-108664936D01*
X157764586Y-108664938D01*
X157536344Y-108726094D01*
X157536335Y-108726098D01*
X157322171Y-108825964D01*
X157322169Y-108825965D01*
X157128597Y-108961505D01*
X156961506Y-109128597D01*
X156961501Y-109128604D01*
X156825967Y-109322165D01*
X156825965Y-109322169D01*
X156726098Y-109536335D01*
X156726094Y-109536344D01*
X156664938Y-109764586D01*
X156664936Y-109764596D01*
X156644341Y-109999999D01*
X156644341Y-110000000D01*
X104355659Y-110000000D01*
X104335063Y-109764592D01*
X104273903Y-109536337D01*
X104174035Y-109322171D01*
X104174034Y-109322169D01*
X104038494Y-109128597D01*
X103871402Y-108961505D01*
X103677830Y-108825965D01*
X103677828Y-108825964D01*
X103570746Y-108776031D01*
X103463663Y-108726097D01*
X103463659Y-108726096D01*
X103463655Y-108726094D01*
X103235413Y-108664938D01*
X103235403Y-108664936D01*
X103058967Y-108649500D01*
X103058966Y-108649500D01*
X102941034Y-108649500D01*
X102941033Y-108649500D01*
X102764596Y-108664936D01*
X102764586Y-108664938D01*
X102536344Y-108726094D01*
X102536335Y-108726098D01*
X102322171Y-108825964D01*
X102322169Y-108825965D01*
X102128597Y-108961505D01*
X101961506Y-109128597D01*
X101961501Y-109128604D01*
X101825967Y-109322165D01*
X101825965Y-109322169D01*
X101726098Y-109536335D01*
X101726094Y-109536344D01*
X101664938Y-109764586D01*
X101664936Y-109764596D01*
X101644341Y-109999999D01*
X101644341Y-110000000D01*
X100000500Y-110000000D01*
X100000500Y-105450000D01*
X109700000Y-105450000D01*
X109700000Y-106547844D01*
X109706401Y-106607372D01*
X109706403Y-106607379D01*
X109756645Y-106742086D01*
X109756649Y-106742093D01*
X109842809Y-106857187D01*
X109842812Y-106857190D01*
X109957906Y-106943350D01*
X109957913Y-106943354D01*
X110092620Y-106993596D01*
X110092627Y-106993598D01*
X110152155Y-106999999D01*
X110152172Y-107000000D01*
X110750000Y-107000000D01*
X110750000Y-105450000D01*
X111250000Y-105450000D01*
X111250000Y-107000000D01*
X111847828Y-107000000D01*
X111847844Y-106999999D01*
X111907372Y-106993598D01*
X111907379Y-106993596D01*
X112042086Y-106943354D01*
X112042093Y-106943350D01*
X112157187Y-106857190D01*
X112157190Y-106857187D01*
X112243350Y-106742093D01*
X112243354Y-106742086D01*
X112293596Y-106607379D01*
X112293598Y-106607372D01*
X112299999Y-106547844D01*
X112300000Y-106547827D01*
X112300000Y-105450000D01*
X111250000Y-105450000D01*
X110750000Y-105450000D01*
X109700000Y-105450000D01*
X100000500Y-105450000D01*
X100000500Y-95695000D01*
X101119341Y-95695000D01*
X101139936Y-95930403D01*
X101139938Y-95930413D01*
X101201094Y-96158655D01*
X101201096Y-96158659D01*
X101201097Y-96158663D01*
X101262341Y-96290000D01*
X101300965Y-96372830D01*
X101300967Y-96372834D01*
X101390608Y-96500854D01*
X101436501Y-96566396D01*
X101436506Y-96566402D01*
X101603597Y-96733493D01*
X101603603Y-96733498D01*
X101789594Y-96863730D01*
X101833219Y-96918307D01*
X101840413Y-96987805D01*
X101808890Y-97050160D01*
X101789595Y-97066880D01*
X101603922Y-97196890D01*
X101603920Y-97196891D01*
X101436891Y-97363920D01*
X101436886Y-97363926D01*
X101301400Y-97557420D01*
X101301399Y-97557422D01*
X101201570Y-97771507D01*
X101201567Y-97771513D01*
X101144364Y-97984999D01*
X101144364Y-97985000D01*
X102041314Y-97985000D01*
X102015507Y-98025156D01*
X101975000Y-98163111D01*
X101975000Y-98306889D01*
X102015507Y-98444844D01*
X102041314Y-98485000D01*
X101144364Y-98485000D01*
X101201567Y-98698486D01*
X101201570Y-98698492D01*
X101301399Y-98912578D01*
X101436894Y-99106082D01*
X101558946Y-99228134D01*
X101592431Y-99289457D01*
X101587447Y-99359149D01*
X101545575Y-99415082D01*
X101514598Y-99431997D01*
X101382671Y-99481202D01*
X101382664Y-99481206D01*
X101267455Y-99567452D01*
X101267452Y-99567455D01*
X101181206Y-99682664D01*
X101181202Y-99682671D01*
X101130908Y-99817517D01*
X101126749Y-99856206D01*
X101124501Y-99877123D01*
X101124500Y-99877135D01*
X101124500Y-101672870D01*
X101124501Y-101672876D01*
X101130908Y-101732483D01*
X101181202Y-101867328D01*
X101181206Y-101867335D01*
X101267452Y-101982544D01*
X101267455Y-101982547D01*
X101382664Y-102068793D01*
X101382671Y-102068797D01*
X101427618Y-102085561D01*
X101517517Y-102119091D01*
X101577127Y-102125500D01*
X102005663Y-102125499D01*
X102072702Y-102145183D01*
X102093344Y-102161818D01*
X102361182Y-102429656D01*
X102370448Y-102440024D01*
X102392492Y-102467666D01*
X102442395Y-102511266D01*
X102448491Y-102516965D01*
X102455466Y-102523940D01*
X102455477Y-102523950D01*
X102486739Y-102550050D01*
X102488854Y-102551856D01*
X102562004Y-102615765D01*
X102565750Y-102618003D01*
X102581624Y-102629265D01*
X102584981Y-102632068D01*
X102669516Y-102680034D01*
X102671778Y-102681352D01*
X102755236Y-102731215D01*
X102759327Y-102732750D01*
X102776955Y-102740996D01*
X102780755Y-102743153D01*
X102872496Y-102775254D01*
X102874998Y-102776161D01*
X102965976Y-102810307D01*
X102968565Y-102810776D01*
X102970274Y-102811087D01*
X102989089Y-102816053D01*
X102993217Y-102817498D01*
X103089237Y-102832705D01*
X103091832Y-102833146D01*
X103163432Y-102846140D01*
X103187452Y-102850500D01*
X103187453Y-102850500D01*
X103191828Y-102850500D01*
X103211231Y-102852028D01*
X103212938Y-102852297D01*
X103215540Y-102852710D01*
X103312621Y-102850531D01*
X103315404Y-102850500D01*
X109577649Y-102850500D01*
X109644688Y-102870185D01*
X109690443Y-102922989D01*
X109700939Y-102961248D01*
X109705908Y-103007483D01*
X109756202Y-103142328D01*
X109756206Y-103142335D01*
X109842452Y-103257544D01*
X109842453Y-103257544D01*
X109842454Y-103257546D01*
X109877727Y-103283951D01*
X109900562Y-103301046D01*
X109942432Y-103356980D01*
X109947416Y-103426672D01*
X109913930Y-103487994D01*
X109900562Y-103499578D01*
X109842809Y-103542812D01*
X109756649Y-103657906D01*
X109756645Y-103657913D01*
X109706403Y-103792620D01*
X109706401Y-103792627D01*
X109700000Y-103852155D01*
X109700000Y-104950000D01*
X112300000Y-104950000D01*
X112300000Y-103852172D01*
X112299999Y-103852155D01*
X112293598Y-103792627D01*
X112293596Y-103792620D01*
X112243354Y-103657913D01*
X112243350Y-103657906D01*
X112157190Y-103542812D01*
X112157187Y-103542809D01*
X112099438Y-103499578D01*
X112057567Y-103443645D01*
X112052583Y-103373953D01*
X112086069Y-103312630D01*
X112099432Y-103301049D01*
X112157546Y-103257546D01*
X112243796Y-103142331D01*
X112294091Y-103007483D01*
X112299062Y-102961242D01*
X112325799Y-102896694D01*
X112383191Y-102856846D01*
X112422351Y-102850500D01*
X114125500Y-102850500D01*
X114192539Y-102870185D01*
X114238294Y-102922989D01*
X114249500Y-102974500D01*
X114249500Y-103075017D01*
X114260000Y-103177796D01*
X114315185Y-103344332D01*
X114315187Y-103344337D01*
X114341303Y-103386677D01*
X114407288Y-103493656D01*
X114531344Y-103617712D01*
X114680665Y-103709814D01*
X114847202Y-103764999D01*
X114949990Y-103775500D01*
X114949995Y-103775500D01*
X115950005Y-103775500D01*
X115950010Y-103775500D01*
X116052798Y-103764999D01*
X116219335Y-103709814D01*
X116368656Y-103617712D01*
X116492712Y-103493656D01*
X116584814Y-103344335D01*
X116639999Y-103177798D01*
X116650500Y-103075010D01*
X116650500Y-101973931D01*
X116653609Y-101946339D01*
X116671642Y-101867331D01*
X116694191Y-101768537D01*
X116704290Y-101543670D01*
X116674075Y-101320613D01*
X116656569Y-101266734D01*
X116650500Y-101228416D01*
X116650500Y-100124995D01*
X116650499Y-100124982D01*
X116643622Y-100057671D01*
X116639999Y-100022202D01*
X116584814Y-99855665D01*
X116492712Y-99706344D01*
X116435955Y-99649587D01*
X116402470Y-99588264D01*
X116400315Y-99548947D01*
X116405460Y-99500000D01*
X116385674Y-99311744D01*
X116327179Y-99131716D01*
X116232533Y-98967784D01*
X116105871Y-98827112D01*
X116069243Y-98800500D01*
X115952734Y-98715851D01*
X115952729Y-98715848D01*
X115779807Y-98638857D01*
X115779802Y-98638855D01*
X115630632Y-98607149D01*
X115594646Y-98599500D01*
X115405354Y-98599500D01*
X115372897Y-98606398D01*
X115220197Y-98638855D01*
X115220192Y-98638857D01*
X115047270Y-98715848D01*
X115047265Y-98715851D01*
X114894129Y-98827111D01*
X114767466Y-98967785D01*
X114672821Y-99131715D01*
X114672818Y-99131722D01*
X114617979Y-99300500D01*
X114614326Y-99311744D01*
X114599941Y-99448613D01*
X114596041Y-99485718D01*
X114569456Y-99550332D01*
X114537825Y-99578290D01*
X114531343Y-99582288D01*
X114407287Y-99706345D01*
X114315187Y-99855662D01*
X114315185Y-99855667D01*
X114287349Y-99939669D01*
X114260001Y-100022202D01*
X114260001Y-100022203D01*
X114260000Y-100022203D01*
X114249500Y-100124982D01*
X114249500Y-100225500D01*
X114229815Y-100292539D01*
X114177011Y-100338294D01*
X114125500Y-100349500D01*
X112422351Y-100349500D01*
X112355312Y-100329815D01*
X112309557Y-100277011D01*
X112299061Y-100238752D01*
X112294091Y-100192516D01*
X112243797Y-100057671D01*
X112243793Y-100057664D01*
X112157547Y-99942455D01*
X112157544Y-99942452D01*
X112042335Y-99856206D01*
X112042328Y-99856202D01*
X111907482Y-99805908D01*
X111907483Y-99805908D01*
X111847883Y-99799501D01*
X111847881Y-99799500D01*
X111847873Y-99799500D01*
X111847864Y-99799500D01*
X110152129Y-99799500D01*
X110152123Y-99799501D01*
X110092516Y-99805908D01*
X109957671Y-99856202D01*
X109957664Y-99856206D01*
X109842455Y-99942452D01*
X109842452Y-99942455D01*
X109756206Y-100057664D01*
X109756202Y-100057671D01*
X109705910Y-100192513D01*
X109705909Y-100192517D01*
X109700937Y-100238757D01*
X109674201Y-100303306D01*
X109616809Y-100343154D01*
X109577649Y-100349500D01*
X103949499Y-100349500D01*
X103882460Y-100329815D01*
X103836705Y-100277011D01*
X103825499Y-100225500D01*
X103825499Y-99877129D01*
X103825498Y-99877123D01*
X103825497Y-99877116D01*
X103819091Y-99817517D01*
X103812371Y-99799501D01*
X103768797Y-99682671D01*
X103768793Y-99682664D01*
X103682547Y-99567455D01*
X103682544Y-99567452D01*
X103567335Y-99481206D01*
X103567328Y-99481202D01*
X103435401Y-99431997D01*
X103379467Y-99390126D01*
X103355050Y-99324662D01*
X103369902Y-99256389D01*
X103391053Y-99228133D01*
X103513108Y-99106078D01*
X103648600Y-98912578D01*
X103671952Y-98862500D01*
X108275001Y-98862500D01*
X108275001Y-98961654D01*
X108285319Y-99062652D01*
X108339546Y-99226300D01*
X108339551Y-99226311D01*
X108430052Y-99373034D01*
X108430055Y-99373038D01*
X108551961Y-99494944D01*
X108551965Y-99494947D01*
X108698688Y-99585448D01*
X108698699Y-99585453D01*
X108862347Y-99639680D01*
X108963352Y-99649999D01*
X109000000Y-99649999D01*
X109000000Y-98862500D01*
X109500000Y-98862500D01*
X109500000Y-99649999D01*
X109536640Y-99649999D01*
X109536654Y-99649998D01*
X109637652Y-99639680D01*
X109801300Y-99585453D01*
X109801311Y-99585448D01*
X109948034Y-99494947D01*
X109948038Y-99494944D01*
X110069944Y-99373038D01*
X110069947Y-99373034D01*
X110160448Y-99226311D01*
X110160453Y-99226300D01*
X110214680Y-99062652D01*
X110224999Y-98961654D01*
X110225000Y-98961641D01*
X110225000Y-98862500D01*
X109500000Y-98862500D01*
X109000000Y-98862500D01*
X108275001Y-98862500D01*
X103671952Y-98862500D01*
X103748429Y-98698492D01*
X103748432Y-98698486D01*
X103805636Y-98485000D01*
X102908686Y-98485000D01*
X102934493Y-98444844D01*
X102975000Y-98306889D01*
X102975000Y-98163111D01*
X102934493Y-98025156D01*
X102908686Y-97985000D01*
X103805636Y-97985000D01*
X103805635Y-97984999D01*
X103748432Y-97771513D01*
X103748429Y-97771507D01*
X103648600Y-97557422D01*
X103648599Y-97557420D01*
X103513113Y-97363926D01*
X103513108Y-97363920D01*
X103346078Y-97196890D01*
X103160405Y-97066879D01*
X103116780Y-97012302D01*
X103109588Y-96942804D01*
X103141110Y-96880449D01*
X103160406Y-96863730D01*
X103204713Y-96832706D01*
X103346401Y-96733495D01*
X103513495Y-96566401D01*
X103612156Y-96425499D01*
X103631147Y-96398377D01*
X103685724Y-96354752D01*
X103732722Y-96345500D01*
X106765559Y-96345500D01*
X106832598Y-96365185D01*
X106878353Y-96417989D01*
X106888297Y-96487147D01*
X106874995Y-96525578D01*
X106875462Y-96525786D01*
X106873045Y-96531213D01*
X106872946Y-96531500D01*
X106872821Y-96531715D01*
X106872818Y-96531722D01*
X106814327Y-96711740D01*
X106814326Y-96711744D01*
X106794540Y-96900000D01*
X106814326Y-97088256D01*
X106814327Y-97088259D01*
X106872818Y-97268277D01*
X106872821Y-97268284D01*
X106967467Y-97432216D01*
X107062715Y-97537999D01*
X107094129Y-97572888D01*
X107247265Y-97684148D01*
X107247270Y-97684151D01*
X107420192Y-97761142D01*
X107420197Y-97761144D01*
X107605354Y-97800500D01*
X107605355Y-97800500D01*
X107794644Y-97800500D01*
X107794646Y-97800500D01*
X107979803Y-97761144D01*
X108152730Y-97684151D01*
X108251006Y-97612749D01*
X108316808Y-97589271D01*
X108384862Y-97605096D01*
X108424493Y-97643224D01*
X108425179Y-97642683D01*
X108429148Y-97647702D01*
X108429424Y-97647968D01*
X108429658Y-97648347D01*
X108429660Y-97648350D01*
X108443982Y-97662672D01*
X108477467Y-97723995D01*
X108472483Y-97793687D01*
X108443985Y-97838032D01*
X108430052Y-97851965D01*
X108339551Y-97998688D01*
X108339546Y-97998699D01*
X108285319Y-98162347D01*
X108275000Y-98263345D01*
X108275000Y-98362500D01*
X110224999Y-98362500D01*
X110224999Y-98263360D01*
X110224998Y-98263345D01*
X110214680Y-98162347D01*
X110160453Y-97998699D01*
X110160448Y-97998688D01*
X110069947Y-97851965D01*
X110069944Y-97851961D01*
X110056017Y-97838034D01*
X110022532Y-97776711D01*
X110027516Y-97707019D01*
X110056017Y-97662672D01*
X110070340Y-97648350D01*
X110102072Y-97596904D01*
X110154020Y-97550179D01*
X110207611Y-97538000D01*
X110826995Y-97538000D01*
X110843005Y-97539767D01*
X110843028Y-97539526D01*
X110850789Y-97540258D01*
X110850796Y-97540260D01*
X110920762Y-97538060D01*
X110924657Y-97538000D01*
X110953425Y-97538000D01*
X110957787Y-97537448D01*
X110969439Y-97536530D01*
X111015069Y-97535097D01*
X111035456Y-97529173D01*
X111054496Y-97525231D01*
X111075558Y-97522571D01*
X111118020Y-97505758D01*
X111129057Y-97501980D01*
X111172898Y-97489244D01*
X111191165Y-97478439D01*
X111208636Y-97469880D01*
X111228371Y-97462068D01*
X111265316Y-97435225D01*
X111275058Y-97428826D01*
X111314365Y-97405581D01*
X111329370Y-97390575D01*
X111344168Y-97377936D01*
X111361337Y-97365463D01*
X111390446Y-97330274D01*
X111398290Y-97321654D01*
X112683127Y-96036819D01*
X112744450Y-96003334D01*
X112770808Y-96000500D01*
X112783529Y-96000500D01*
X112850568Y-96020185D01*
X112896323Y-96072989D01*
X112903743Y-96100039D01*
X112904620Y-96099832D01*
X112906403Y-96107379D01*
X112956645Y-96242086D01*
X112956649Y-96242093D01*
X113042809Y-96357187D01*
X113042812Y-96357190D01*
X113157906Y-96443350D01*
X113157913Y-96443354D01*
X113292620Y-96493596D01*
X113292627Y-96493598D01*
X113352155Y-96499999D01*
X113352172Y-96500000D01*
X114050000Y-96500000D01*
X114050000Y-96124500D01*
X114069685Y-96057461D01*
X114122489Y-96011706D01*
X114174000Y-96000500D01*
X114226000Y-96000500D01*
X114293039Y-96020185D01*
X114338794Y-96072989D01*
X114350000Y-96124500D01*
X114350000Y-96500000D01*
X115047828Y-96500000D01*
X115047844Y-96499999D01*
X115107372Y-96493598D01*
X115107379Y-96493596D01*
X115242086Y-96443354D01*
X115242088Y-96443352D01*
X115357186Y-96357190D01*
X115357188Y-96357188D01*
X115370290Y-96339688D01*
X115400000Y-96317448D01*
X115400000Y-96600000D01*
X117200000Y-96600000D01*
X117200000Y-96312610D01*
X117229085Y-96339688D01*
X117242454Y-96357546D01*
X117256130Y-96367784D01*
X117357664Y-96443793D01*
X117357671Y-96443797D01*
X117357674Y-96443798D01*
X117492517Y-96494091D01*
X117552127Y-96500500D01*
X117552136Y-96500499D01*
X117555429Y-96500854D01*
X117555324Y-96501824D01*
X117617358Y-96523695D01*
X117660233Y-96578863D01*
X117666474Y-96648454D01*
X117662783Y-96662604D01*
X117614327Y-96811739D01*
X117614327Y-96811740D01*
X117614326Y-96811744D01*
X117594540Y-97000000D01*
X117614326Y-97188256D01*
X117614327Y-97188259D01*
X117672818Y-97368277D01*
X117672821Y-97368284D01*
X117767467Y-97532216D01*
X117894129Y-97672888D01*
X118047265Y-97784148D01*
X118047270Y-97784151D01*
X118220192Y-97861142D01*
X118220197Y-97861144D01*
X118405354Y-97900500D01*
X118405355Y-97900500D01*
X118594644Y-97900500D01*
X118594646Y-97900500D01*
X118779803Y-97861144D01*
X118952730Y-97784151D01*
X119105871Y-97672888D01*
X119232533Y-97532216D01*
X119327179Y-97368284D01*
X119385674Y-97188256D01*
X119405460Y-97000000D01*
X119385674Y-96811744D01*
X119327179Y-96631716D01*
X119325486Y-96627914D01*
X119316196Y-96558665D01*
X119345821Y-96495386D01*
X119395430Y-96461289D01*
X119442326Y-96443798D01*
X119442326Y-96443797D01*
X119442331Y-96443796D01*
X119557546Y-96357546D01*
X119643796Y-96242331D01*
X119694091Y-96107483D01*
X119694091Y-96107481D01*
X119695874Y-96099938D01*
X119698146Y-96100474D01*
X119720429Y-96046688D01*
X119777823Y-96006843D01*
X119816976Y-96000500D01*
X121875500Y-96000500D01*
X121942539Y-96020185D01*
X121988294Y-96072989D01*
X121999500Y-96124500D01*
X121999500Y-99300500D01*
X121979815Y-99367539D01*
X121927011Y-99413294D01*
X121875500Y-99424500D01*
X121049982Y-99424500D01*
X120947203Y-99435000D01*
X120947202Y-99435001D01*
X120906124Y-99448613D01*
X120780667Y-99490185D01*
X120780662Y-99490187D01*
X120631342Y-99582289D01*
X120507289Y-99706342D01*
X120415187Y-99855662D01*
X120415185Y-99855667D01*
X120387349Y-99939669D01*
X120360001Y-100022202D01*
X120360001Y-100022203D01*
X120360000Y-100022203D01*
X120349500Y-100124982D01*
X120349500Y-101226068D01*
X120346391Y-101253660D01*
X120305810Y-101431457D01*
X120305808Y-101431468D01*
X120300769Y-101543674D01*
X120295710Y-101656330D01*
X120310910Y-101768542D01*
X120325925Y-101879389D01*
X120333116Y-101901518D01*
X120343431Y-101933266D01*
X120349500Y-101971582D01*
X120349500Y-103075017D01*
X120360000Y-103177796D01*
X120415185Y-103344332D01*
X120415187Y-103344337D01*
X120441303Y-103386677D01*
X120507288Y-103493656D01*
X120631344Y-103617712D01*
X120780665Y-103709814D01*
X120947202Y-103764999D01*
X121049990Y-103775500D01*
X121049995Y-103775500D01*
X122050005Y-103775500D01*
X122050010Y-103775500D01*
X122152798Y-103764999D01*
X122319335Y-103709814D01*
X122468656Y-103617712D01*
X122592712Y-103493656D01*
X122684814Y-103344335D01*
X122739999Y-103177798D01*
X122747947Y-103100000D01*
X124494540Y-103100000D01*
X124514326Y-103288256D01*
X124514327Y-103288259D01*
X124572818Y-103468277D01*
X124572821Y-103468284D01*
X124667467Y-103632216D01*
X124690605Y-103657913D01*
X124794127Y-103772886D01*
X124794129Y-103772888D01*
X124947265Y-103884148D01*
X124947270Y-103884151D01*
X125120192Y-103961142D01*
X125120197Y-103961144D01*
X125305354Y-104000500D01*
X125305355Y-104000500D01*
X125494644Y-104000500D01*
X125494646Y-104000500D01*
X125679803Y-103961144D01*
X125852730Y-103884151D01*
X125977855Y-103793243D01*
X126004090Y-103774182D01*
X126069896Y-103750702D01*
X126076975Y-103750500D01*
X137556792Y-103750500D01*
X137623831Y-103770185D01*
X137649415Y-103793380D01*
X137649553Y-103793243D01*
X137652352Y-103796042D01*
X137654055Y-103797586D01*
X137654655Y-103798345D01*
X137654660Y-103798350D01*
X137776650Y-103920340D01*
X137923484Y-104010908D01*
X138087247Y-104065174D01*
X138188323Y-104075500D01*
X138786676Y-104075499D01*
X138786684Y-104075498D01*
X138786687Y-104075498D01*
X138842030Y-104069844D01*
X138887753Y-104065174D01*
X139051516Y-104010908D01*
X139198350Y-103920340D01*
X139312319Y-103806371D01*
X139373642Y-103772886D01*
X139443334Y-103777870D01*
X139487681Y-103806371D01*
X139601650Y-103920340D01*
X139748484Y-104010908D01*
X139912247Y-104065174D01*
X140013323Y-104075500D01*
X140611676Y-104075499D01*
X140611684Y-104075498D01*
X140611687Y-104075498D01*
X140667030Y-104069844D01*
X140712753Y-104065174D01*
X140876516Y-104010908D01*
X141023350Y-103920340D01*
X141145340Y-103798350D01*
X141235908Y-103651516D01*
X141290174Y-103487753D01*
X141300500Y-103386677D01*
X141300499Y-102813324D01*
X141300448Y-102812829D01*
X141290174Y-102712247D01*
X141283467Y-102692006D01*
X141235908Y-102548484D01*
X141145340Y-102401650D01*
X141086819Y-102343129D01*
X141053334Y-102281806D01*
X141050500Y-102255448D01*
X141050500Y-98058307D01*
X141070185Y-97991268D01*
X141086814Y-97970631D01*
X142595627Y-96461817D01*
X142656950Y-96428333D01*
X142683308Y-96425499D01*
X144500002Y-96425499D01*
X144500008Y-96425499D01*
X144602797Y-96414999D01*
X144769334Y-96359814D01*
X144918656Y-96267712D01*
X145012049Y-96174319D01*
X145073372Y-96140834D01*
X145099730Y-96138000D01*
X148131717Y-96138000D01*
X148198756Y-96157685D01*
X148219398Y-96174319D01*
X149078108Y-97033029D01*
X149111593Y-97094352D01*
X149113955Y-97109901D01*
X149124936Y-97235403D01*
X149124938Y-97235413D01*
X149186094Y-97463655D01*
X149186096Y-97463659D01*
X149186097Y-97463663D01*
X149252206Y-97605434D01*
X149285965Y-97677830D01*
X149285967Y-97677834D01*
X149378545Y-97810048D01*
X149421505Y-97871401D01*
X149588599Y-98038495D01*
X149685384Y-98106265D01*
X149782165Y-98174032D01*
X149782167Y-98174033D01*
X149782170Y-98174035D01*
X149996337Y-98273903D01*
X150224592Y-98335063D01*
X150401034Y-98350500D01*
X150459999Y-98355659D01*
X150460000Y-98355659D01*
X150460001Y-98355659D01*
X150518966Y-98350500D01*
X150695408Y-98335063D01*
X150923663Y-98273903D01*
X151137830Y-98174035D01*
X151331401Y-98038495D01*
X151453329Y-97916566D01*
X151514648Y-97883084D01*
X151584340Y-97888068D01*
X151640274Y-97929939D01*
X151657189Y-97960917D01*
X151706202Y-98092328D01*
X151706206Y-98092335D01*
X151792452Y-98207544D01*
X151792455Y-98207547D01*
X151907664Y-98293793D01*
X151907671Y-98293797D01*
X152042517Y-98344091D01*
X152042516Y-98344091D01*
X152049444Y-98344835D01*
X152102127Y-98350500D01*
X153897872Y-98350499D01*
X153957483Y-98344091D01*
X154092331Y-98293796D01*
X154207546Y-98207546D01*
X154293796Y-98092331D01*
X154297960Y-98081165D01*
X154339829Y-98025234D01*
X154405293Y-98000816D01*
X154414141Y-98000500D01*
X164970500Y-98000500D01*
X165037539Y-98020185D01*
X165083294Y-98072989D01*
X165094500Y-98124500D01*
X165094500Y-98876000D01*
X165094501Y-98876009D01*
X165106052Y-98983450D01*
X165106054Y-98983462D01*
X165117260Y-99034972D01*
X165151383Y-99137497D01*
X165151386Y-99137503D01*
X165229171Y-99258537D01*
X165229179Y-99258548D01*
X165274923Y-99311340D01*
X165274926Y-99311343D01*
X165274930Y-99311347D01*
X165383664Y-99405567D01*
X165383667Y-99405568D01*
X165383668Y-99405569D01*
X165477925Y-99448616D01*
X165514541Y-99465338D01*
X165581580Y-99485023D01*
X165581584Y-99485024D01*
X165724000Y-99505500D01*
X165724003Y-99505500D01*
X166375990Y-99505500D01*
X166376000Y-99505500D01*
X166483456Y-99493947D01*
X166534967Y-99482741D01*
X166569197Y-99471347D01*
X166637497Y-99448616D01*
X166637501Y-99448613D01*
X166637504Y-99448613D01*
X166758543Y-99370825D01*
X166811347Y-99325070D01*
X166905567Y-99216336D01*
X166961284Y-99094334D01*
X167007039Y-99041531D01*
X167074078Y-99021847D01*
X167100131Y-99024615D01*
X167105950Y-99025865D01*
X167107902Y-99026000D01*
X167108519Y-99026228D01*
X167110337Y-99026485D01*
X167110281Y-99026880D01*
X167119097Y-99030142D01*
X167200000Y-99030142D01*
X167200000Y-99350000D01*
X168100000Y-99350000D01*
X168100000Y-99029298D01*
X168112190Y-99027654D01*
X168120242Y-99027220D01*
X168123995Y-99026645D01*
X168127332Y-99025964D01*
X168133131Y-99024481D01*
X168148524Y-99021564D01*
X168169505Y-99018947D01*
X168181425Y-99014967D01*
X168199290Y-99014311D01*
X168231171Y-99003679D01*
X168231193Y-99003672D01*
X168240257Y-99000651D01*
X168240490Y-99000574D01*
X168240968Y-99000415D01*
X168241042Y-99000389D01*
X168273705Y-98989501D01*
X168285288Y-98983711D01*
X168293233Y-98980083D01*
X168305151Y-98975139D01*
X168319406Y-98966652D01*
X168319844Y-98966433D01*
X168322027Y-98965368D01*
X168330115Y-98961520D01*
X168333255Y-98959788D01*
X168349058Y-98949029D01*
X168363476Y-98940818D01*
X168366010Y-98939024D01*
X168372350Y-98933531D01*
X168386421Y-98927104D01*
X168394943Y-98919718D01*
X168458493Y-98890681D01*
X168527654Y-98900610D01*
X168551090Y-98914611D01*
X168604113Y-98954819D01*
X168604119Y-98954822D01*
X168742848Y-99009530D01*
X168742850Y-99009531D01*
X168829999Y-99019996D01*
X168830000Y-99019996D01*
X168830000Y-99000000D01*
X169170000Y-99000000D01*
X169170000Y-99019996D01*
X169257149Y-99009531D01*
X169257151Y-99009530D01*
X169281317Y-99000000D01*
X169750000Y-99000000D01*
X169750000Y-95000000D01*
X169281321Y-95000000D01*
X169257157Y-94990471D01*
X169257149Y-94990469D01*
X169170000Y-94980003D01*
X169170000Y-95000000D01*
X168830000Y-95000000D01*
X168830000Y-94980003D01*
X168829999Y-94980003D01*
X168742850Y-94990469D01*
X168742842Y-94990471D01*
X168604119Y-95045177D01*
X168604110Y-95045182D01*
X168550588Y-95085768D01*
X168485276Y-95110590D01*
X168416913Y-95096161D01*
X168402607Y-95087156D01*
X168397633Y-95083529D01*
X168388901Y-95077597D01*
X168373324Y-95065432D01*
X168373320Y-95065429D01*
X168363168Y-95060357D01*
X168351235Y-95049263D01*
X168319351Y-95033320D01*
X168314365Y-95028682D01*
X168293237Y-95019919D01*
X168285289Y-95016289D01*
X168276161Y-95011725D01*
X168275475Y-95011087D01*
X168243657Y-95000481D01*
X168243530Y-95000434D01*
X168240290Y-94999359D01*
X168240132Y-94999307D01*
X168233807Y-94997199D01*
X168233802Y-94997197D01*
X168233772Y-94997187D01*
X168209118Y-94988965D01*
X168190868Y-94985489D01*
X168181895Y-94983022D01*
X168180639Y-94982807D01*
X168177876Y-94982191D01*
X168173268Y-94981399D01*
X168143711Y-94979270D01*
X168126591Y-94976827D01*
X168114060Y-94974136D01*
X168114045Y-94974134D01*
X168112097Y-94974000D01*
X168111481Y-94973772D01*
X168109659Y-94973515D01*
X168109714Y-94973118D01*
X168100902Y-94969858D01*
X168100000Y-94969858D01*
X168100000Y-94550000D01*
X167200000Y-94550000D01*
X167200000Y-94969858D01*
X167126276Y-94969858D01*
X167107822Y-94972344D01*
X167099760Y-94972778D01*
X167094256Y-94973621D01*
X167025009Y-94964308D01*
X166971791Y-94919036D01*
X166957836Y-94890207D01*
X166948613Y-94862496D01*
X166933456Y-94838911D01*
X166870825Y-94741457D01*
X166870820Y-94741451D01*
X166825076Y-94688659D01*
X166825072Y-94688656D01*
X166825070Y-94688653D01*
X166716336Y-94594433D01*
X166716333Y-94594431D01*
X166716331Y-94594430D01*
X166585465Y-94534664D01*
X166585460Y-94534662D01*
X166585459Y-94534662D01*
X166540766Y-94521538D01*
X166518417Y-94514976D01*
X166456347Y-94506052D01*
X166376000Y-94494500D01*
X165724000Y-94494500D01*
X165723991Y-94494500D01*
X165723990Y-94494501D01*
X165616549Y-94506052D01*
X165616537Y-94506054D01*
X165565027Y-94517260D01*
X165462502Y-94551383D01*
X165462496Y-94551386D01*
X165341462Y-94629171D01*
X165341451Y-94629179D01*
X165288659Y-94674923D01*
X165194433Y-94783664D01*
X165194430Y-94783668D01*
X165134664Y-94914534D01*
X165114976Y-94981582D01*
X165094500Y-95124001D01*
X165094500Y-95875500D01*
X165074815Y-95942539D01*
X165022011Y-95988294D01*
X164970500Y-95999500D01*
X154414141Y-95999500D01*
X154347102Y-95979815D01*
X154301347Y-95927011D01*
X154297969Y-95918859D01*
X154293796Y-95907669D01*
X154293793Y-95907665D01*
X154293793Y-95907664D01*
X154207547Y-95792455D01*
X154207544Y-95792452D01*
X154092335Y-95706206D01*
X154092328Y-95706202D01*
X153957482Y-95655908D01*
X153957483Y-95655908D01*
X153897883Y-95649501D01*
X153897881Y-95649500D01*
X153897873Y-95649500D01*
X153897864Y-95649500D01*
X152102129Y-95649500D01*
X152102123Y-95649501D01*
X152042516Y-95655908D01*
X151907671Y-95706202D01*
X151907664Y-95706206D01*
X151792455Y-95792452D01*
X151792452Y-95792455D01*
X151706206Y-95907664D01*
X151706203Y-95907669D01*
X151657189Y-96039083D01*
X151615317Y-96095016D01*
X151549853Y-96119433D01*
X151481580Y-96104581D01*
X151453326Y-96083430D01*
X151331402Y-95961506D01*
X151331395Y-95961501D01*
X151137834Y-95825967D01*
X151137830Y-95825965D01*
X150923663Y-95726097D01*
X150923659Y-95726096D01*
X150923655Y-95726094D01*
X150695413Y-95664938D01*
X150695403Y-95664936D01*
X150569900Y-95653955D01*
X150504832Y-95628502D01*
X150493028Y-95618108D01*
X149315067Y-94440147D01*
X149312874Y-94437898D01*
X149252561Y-94374449D01*
X149252560Y-94374448D01*
X149252559Y-94374447D01*
X149204140Y-94340746D01*
X149196620Y-94335075D01*
X149150913Y-94297805D01*
X149150906Y-94297801D01*
X149123941Y-94283716D01*
X149110526Y-94275589D01*
X149085549Y-94258205D01*
X149085546Y-94258203D01*
X149085545Y-94258203D01*
X149085541Y-94258201D01*
X149031345Y-94234943D01*
X149022836Y-94230902D01*
X148970557Y-94203594D01*
X148970546Y-94203590D01*
X148941306Y-94195223D01*
X148926521Y-94189959D01*
X148898558Y-94177959D01*
X148840773Y-94166083D01*
X148831627Y-94163838D01*
X148774923Y-94147613D01*
X148751199Y-94145806D01*
X148744572Y-94145301D01*
X148729033Y-94143122D01*
X148699242Y-94137000D01*
X148699241Y-94137000D01*
X148640259Y-94137000D01*
X148630844Y-94136642D01*
X148628143Y-94136436D01*
X148572024Y-94132162D01*
X148541849Y-94136006D01*
X148526182Y-94137000D01*
X145099730Y-94137000D01*
X145032691Y-94117315D01*
X145012049Y-94100681D01*
X144918657Y-94007289D01*
X144918656Y-94007288D01*
X144825888Y-93950069D01*
X144769336Y-93915187D01*
X144769331Y-93915185D01*
X144767862Y-93914698D01*
X144602797Y-93860001D01*
X144602795Y-93860000D01*
X144500010Y-93849500D01*
X141499998Y-93849500D01*
X141499981Y-93849501D01*
X141397203Y-93860000D01*
X141397200Y-93860001D01*
X141230668Y-93915185D01*
X141230659Y-93915189D01*
X141123900Y-93981039D01*
X141058804Y-93999500D01*
X138874499Y-93999500D01*
X138807460Y-93979815D01*
X138761705Y-93927011D01*
X138750499Y-93875500D01*
X138750499Y-91652129D01*
X138750498Y-91652123D01*
X138750497Y-91652116D01*
X138744091Y-91592517D01*
X138693796Y-91457669D01*
X138693795Y-91457668D01*
X138693793Y-91457664D01*
X138607547Y-91342455D01*
X138607544Y-91342452D01*
X138492335Y-91256206D01*
X138492328Y-91256202D01*
X138357482Y-91205908D01*
X138357483Y-91205908D01*
X138297883Y-91199501D01*
X138297881Y-91199500D01*
X138297873Y-91199500D01*
X138297864Y-91199500D01*
X135352129Y-91199500D01*
X135352123Y-91199501D01*
X135292516Y-91205908D01*
X135157671Y-91256202D01*
X135157664Y-91256206D01*
X135042455Y-91342452D01*
X135042452Y-91342455D01*
X134956206Y-91457664D01*
X134956202Y-91457671D01*
X134905908Y-91592517D01*
X134899501Y-91652116D01*
X134899501Y-91652123D01*
X134899500Y-91652135D01*
X134899500Y-98347870D01*
X134899501Y-98347876D01*
X134905908Y-98407483D01*
X134956202Y-98542328D01*
X134956206Y-98542335D01*
X135042452Y-98657544D01*
X135042455Y-98657547D01*
X135157664Y-98743793D01*
X135157671Y-98743797D01*
X135292517Y-98794091D01*
X135292516Y-98794091D01*
X135299444Y-98794835D01*
X135352127Y-98800500D01*
X138297872Y-98800499D01*
X138357483Y-98794091D01*
X138492331Y-98743796D01*
X138607546Y-98657546D01*
X138693796Y-98542331D01*
X138744091Y-98407483D01*
X138750500Y-98347873D01*
X138750500Y-96124500D01*
X138770185Y-96057461D01*
X138822989Y-96011706D01*
X138874500Y-96000500D01*
X140799782Y-96000500D01*
X140866821Y-96020185D01*
X140905320Y-96059403D01*
X140950302Y-96132330D01*
X140968743Y-96199722D01*
X140947821Y-96266386D01*
X140932445Y-96285108D01*
X140000484Y-97217068D01*
X139987910Y-97227143D01*
X139988065Y-97227330D01*
X139982058Y-97232299D01*
X139934133Y-97283333D01*
X139931427Y-97286125D01*
X139911090Y-97306463D01*
X139911077Y-97306478D01*
X139908373Y-97309963D01*
X139900806Y-97318822D01*
X139869552Y-97352107D01*
X139859322Y-97370713D01*
X139848646Y-97386964D01*
X139835640Y-97403732D01*
X139835636Y-97403738D01*
X139817508Y-97445630D01*
X139812369Y-97456119D01*
X139790372Y-97496130D01*
X139790372Y-97496131D01*
X139785091Y-97516699D01*
X139778791Y-97535101D01*
X139770364Y-97554573D01*
X139763223Y-97599662D01*
X139760854Y-97611100D01*
X139749500Y-97655317D01*
X139749500Y-97676544D01*
X139747973Y-97695944D01*
X139744653Y-97716903D01*
X139748950Y-97762358D01*
X139749500Y-97774028D01*
X139749500Y-102119258D01*
X139729815Y-102186297D01*
X139690597Y-102224796D01*
X139601653Y-102279657D01*
X139601649Y-102279660D01*
X139487681Y-102393629D01*
X139426358Y-102427114D01*
X139356666Y-102422130D01*
X139312319Y-102393629D01*
X139198351Y-102279661D01*
X139198350Y-102279660D01*
X139051516Y-102189092D01*
X138887753Y-102134826D01*
X138887751Y-102134825D01*
X138786678Y-102124500D01*
X138188330Y-102124500D01*
X138188312Y-102124501D01*
X138087247Y-102134825D01*
X137923484Y-102189092D01*
X137923481Y-102189093D01*
X137776648Y-102279661D01*
X137654655Y-102401654D01*
X137654055Y-102402414D01*
X137653510Y-102402799D01*
X137649553Y-102406757D01*
X137648876Y-102406080D01*
X137597032Y-102442789D01*
X137556792Y-102449500D01*
X126076975Y-102449500D01*
X126009936Y-102429815D01*
X126004090Y-102425818D01*
X125852734Y-102315851D01*
X125852729Y-102315848D01*
X125679807Y-102238857D01*
X125679802Y-102238855D01*
X125534001Y-102207865D01*
X125494646Y-102199500D01*
X125305354Y-102199500D01*
X125272897Y-102206398D01*
X125120197Y-102238855D01*
X125120192Y-102238857D01*
X124947270Y-102315848D01*
X124947265Y-102315851D01*
X124794129Y-102427111D01*
X124667466Y-102567785D01*
X124572821Y-102731715D01*
X124572818Y-102731722D01*
X124527829Y-102870185D01*
X124514326Y-102911744D01*
X124494540Y-103100000D01*
X122747947Y-103100000D01*
X122750500Y-103075010D01*
X122750500Y-102965854D01*
X122770185Y-102898815D01*
X122822989Y-102853060D01*
X122866157Y-102842135D01*
X122896412Y-102840096D01*
X122900646Y-102839028D01*
X122919841Y-102835767D01*
X122924188Y-102835377D01*
X123017856Y-102809525D01*
X123020444Y-102808841D01*
X123114683Y-102785096D01*
X123118655Y-102783291D01*
X123136962Y-102776654D01*
X123141170Y-102775493D01*
X123228740Y-102733321D01*
X123231131Y-102732202D01*
X123319626Y-102692007D01*
X123323220Y-102689516D01*
X123340035Y-102679724D01*
X123343973Y-102677829D01*
X123422592Y-102620708D01*
X123424724Y-102619194D01*
X123504654Y-102563820D01*
X123507743Y-102560730D01*
X123522545Y-102548088D01*
X123526078Y-102545522D01*
X123593239Y-102475275D01*
X123595096Y-102473376D01*
X124079666Y-101988806D01*
X124090016Y-101979557D01*
X124117666Y-101957508D01*
X124161255Y-101907615D01*
X124166956Y-101901518D01*
X124173927Y-101894547D01*
X124173927Y-101894546D01*
X124173944Y-101894530D01*
X124196651Y-101867331D01*
X124200074Y-101863231D01*
X124201857Y-101861143D01*
X124265765Y-101787996D01*
X124268006Y-101784243D01*
X124279274Y-101768364D01*
X124282068Y-101765019D01*
X124330029Y-101680491D01*
X124331375Y-101678182D01*
X124344434Y-101656325D01*
X124381215Y-101594764D01*
X124382747Y-101590679D01*
X124391003Y-101573033D01*
X124393153Y-101569245D01*
X124425253Y-101477507D01*
X124426161Y-101475002D01*
X124460307Y-101384024D01*
X124461085Y-101379737D01*
X124466056Y-101360902D01*
X124467498Y-101356783D01*
X124482708Y-101260746D01*
X124483144Y-101258181D01*
X124500500Y-101162547D01*
X124500500Y-101158169D01*
X124502027Y-101138770D01*
X124502710Y-101134460D01*
X124500530Y-101037377D01*
X124500500Y-101034596D01*
X124500500Y-97954271D01*
X124520185Y-97887232D01*
X124572989Y-97841477D01*
X124642147Y-97831533D01*
X124674930Y-97840989D01*
X124720197Y-97861144D01*
X124905354Y-97900500D01*
X124905355Y-97900500D01*
X125094644Y-97900500D01*
X125094646Y-97900500D01*
X125279803Y-97861144D01*
X125452730Y-97784151D01*
X125605871Y-97672888D01*
X125732533Y-97532216D01*
X125827179Y-97368284D01*
X125885674Y-97188256D01*
X125905460Y-97000000D01*
X125887876Y-96832702D01*
X125900445Y-96763976D01*
X125948177Y-96712952D01*
X125965926Y-96705282D01*
X125965736Y-96704843D01*
X125972894Y-96701745D01*
X125972898Y-96701744D01*
X126114365Y-96618081D01*
X126230581Y-96501865D01*
X126314244Y-96360398D01*
X126360098Y-96202569D01*
X126363000Y-96165694D01*
X126363000Y-95734306D01*
X126360098Y-95697431D01*
X126359391Y-95694999D01*
X126314245Y-95539606D01*
X126314245Y-95539605D01*
X126314244Y-95539604D01*
X126314244Y-95539602D01*
X126283501Y-95487619D01*
X126266320Y-95419896D01*
X126288481Y-95353634D01*
X126342947Y-95309871D01*
X126390235Y-95300500D01*
X129125501Y-95300500D01*
X129192540Y-95320185D01*
X129238295Y-95372989D01*
X129249501Y-95424500D01*
X129249501Y-98347876D01*
X129255908Y-98407483D01*
X129306202Y-98542328D01*
X129306206Y-98542335D01*
X129392452Y-98657544D01*
X129392455Y-98657547D01*
X129507664Y-98743793D01*
X129507671Y-98743797D01*
X129642517Y-98794091D01*
X129642516Y-98794091D01*
X129649444Y-98794835D01*
X129702127Y-98800500D01*
X132647872Y-98800499D01*
X132707483Y-98794091D01*
X132842331Y-98743796D01*
X132957546Y-98657546D01*
X133043796Y-98542331D01*
X133094091Y-98407483D01*
X133100500Y-98347873D01*
X133100499Y-91652128D01*
X133094091Y-91592517D01*
X133043796Y-91457669D01*
X133043795Y-91457668D01*
X133043793Y-91457664D01*
X132957547Y-91342455D01*
X132957544Y-91342452D01*
X132842335Y-91256206D01*
X132842328Y-91256202D01*
X132707482Y-91205908D01*
X132707483Y-91205908D01*
X132647883Y-91199501D01*
X132647881Y-91199500D01*
X132647873Y-91199500D01*
X132647864Y-91199500D01*
X129702129Y-91199500D01*
X129702123Y-91199501D01*
X129642516Y-91205908D01*
X129507671Y-91256202D01*
X129507664Y-91256206D01*
X129392455Y-91342452D01*
X129392452Y-91342455D01*
X129306206Y-91457664D01*
X129306202Y-91457671D01*
X129255908Y-91592517D01*
X129249501Y-91652116D01*
X129249501Y-91652123D01*
X129249500Y-91652135D01*
X129249500Y-92675500D01*
X129229815Y-92742539D01*
X129177011Y-92788294D01*
X129125500Y-92799500D01*
X127374500Y-92799500D01*
X127307461Y-92779815D01*
X127261706Y-92727011D01*
X127250500Y-92675500D01*
X127250500Y-91146020D01*
X127251211Y-91132764D01*
X127253390Y-91112500D01*
X140800001Y-91112500D01*
X140800001Y-91449986D01*
X140810494Y-91552697D01*
X140865641Y-91719119D01*
X140865643Y-91719124D01*
X140957684Y-91868345D01*
X141081654Y-91992315D01*
X141230875Y-92084356D01*
X141230880Y-92084358D01*
X141397302Y-92139505D01*
X141397309Y-92139506D01*
X141500019Y-92149999D01*
X142749999Y-92149999D01*
X142750000Y-92149998D01*
X142750000Y-91112500D01*
X143250000Y-91112500D01*
X143250000Y-92149999D01*
X144499972Y-92149999D01*
X144499986Y-92149998D01*
X144602697Y-92139505D01*
X144769119Y-92084358D01*
X144769124Y-92084356D01*
X144918345Y-91992315D01*
X145042315Y-91868345D01*
X145134356Y-91719124D01*
X145134358Y-91719119D01*
X145189505Y-91552697D01*
X145189506Y-91552690D01*
X145199999Y-91449986D01*
X145200000Y-91449973D01*
X145200000Y-91112500D01*
X143250000Y-91112500D01*
X142750000Y-91112500D01*
X140800001Y-91112500D01*
X127253390Y-91112500D01*
X127255499Y-91092881D01*
X127255500Y-91092873D01*
X127255500Y-90612500D01*
X140800000Y-90612500D01*
X142750000Y-90612500D01*
X142750000Y-89575000D01*
X143250000Y-89575000D01*
X143250000Y-90612500D01*
X145199999Y-90612500D01*
X145199999Y-90275028D01*
X145199998Y-90275013D01*
X145189505Y-90172302D01*
X145134358Y-90005880D01*
X145134356Y-90005875D01*
X145042315Y-89856654D01*
X144918345Y-89732684D01*
X144769124Y-89640643D01*
X144769119Y-89640641D01*
X144602697Y-89585494D01*
X144602690Y-89585493D01*
X144499986Y-89575000D01*
X143250000Y-89575000D01*
X142750000Y-89575000D01*
X141500028Y-89575000D01*
X141500012Y-89575001D01*
X141397302Y-89585494D01*
X141230880Y-89640641D01*
X141230875Y-89640643D01*
X141081654Y-89732684D01*
X140957684Y-89856654D01*
X140865643Y-90005875D01*
X140865641Y-90005880D01*
X140810494Y-90172302D01*
X140810493Y-90172309D01*
X140800000Y-90275013D01*
X140800000Y-90612500D01*
X127255500Y-90612500D01*
X127255499Y-88747128D01*
X127249091Y-88687517D01*
X127198796Y-88552669D01*
X127198795Y-88552668D01*
X127198793Y-88552664D01*
X127112547Y-88437455D01*
X127112544Y-88437452D01*
X126997335Y-88351206D01*
X126997328Y-88351202D01*
X126862482Y-88300908D01*
X126862483Y-88300908D01*
X126802883Y-88294501D01*
X126802881Y-88294500D01*
X126802873Y-88294500D01*
X126802864Y-88294500D01*
X125157129Y-88294500D01*
X125157123Y-88294501D01*
X125097516Y-88300908D01*
X124962671Y-88351202D01*
X124962664Y-88351206D01*
X124847455Y-88437452D01*
X124847452Y-88437455D01*
X124761206Y-88552664D01*
X124761202Y-88552671D01*
X124710908Y-88687517D01*
X124704501Y-88747116D01*
X124704501Y-88747123D01*
X124704500Y-88747135D01*
X124704500Y-91092870D01*
X124704501Y-91092876D01*
X124710908Y-91152481D01*
X124710909Y-91152483D01*
X124730835Y-91205908D01*
X124741682Y-91234988D01*
X124749500Y-91278322D01*
X124749500Y-92605663D01*
X124729815Y-92672702D01*
X124713181Y-92693344D01*
X124317251Y-93089273D01*
X124302465Y-93101903D01*
X124298928Y-93104473D01*
X124298921Y-93104478D01*
X124231824Y-93174656D01*
X124229884Y-93176640D01*
X124201051Y-93205475D01*
X124201045Y-93205482D01*
X124194710Y-93213068D01*
X124189164Y-93219274D01*
X124143364Y-93267178D01*
X124123886Y-93296686D01*
X124115592Y-93307837D01*
X124092933Y-93334979D01*
X124092927Y-93334988D01*
X124060229Y-93392613D01*
X124055871Y-93399726D01*
X124019363Y-93455035D01*
X124005464Y-93487552D01*
X123999293Y-93500007D01*
X123981847Y-93530754D01*
X123959964Y-93593289D01*
X123956953Y-93601048D01*
X123955961Y-93603370D01*
X123948666Y-93617770D01*
X123935755Y-93639602D01*
X123898950Y-93766286D01*
X123861343Y-93825171D01*
X123797871Y-93854377D01*
X123731139Y-93845711D01*
X123637995Y-93805899D01*
X123637982Y-93805895D01*
X123418542Y-93755810D01*
X123418538Y-93755809D01*
X123418537Y-93755809D01*
X123418536Y-93755808D01*
X123418531Y-93755808D01*
X123193674Y-93745710D01*
X123193673Y-93745710D01*
X123193670Y-93745710D01*
X122970613Y-93775925D01*
X122970610Y-93775925D01*
X122970609Y-93775926D01*
X122756534Y-93845483D01*
X122558321Y-93952146D01*
X122558318Y-93952148D01*
X122382336Y-94092489D01*
X122282582Y-94206667D01*
X122234235Y-94262004D01*
X122212847Y-94297802D01*
X122118788Y-94455230D01*
X122118783Y-94455239D01*
X122085379Y-94544244D01*
X122076019Y-94563793D01*
X122060755Y-94589602D01*
X122054803Y-94610093D01*
X122017197Y-94668980D01*
X121953725Y-94698187D01*
X121935726Y-94699500D01*
X121522208Y-94699500D01*
X121455169Y-94679815D01*
X121409414Y-94627011D01*
X121398887Y-94562539D01*
X121405460Y-94500000D01*
X121385674Y-94311744D01*
X121327179Y-94131716D01*
X121232533Y-93967784D01*
X121218454Y-93952148D01*
X121107362Y-93828766D01*
X121077132Y-93765774D01*
X121085758Y-93696439D01*
X121111828Y-93658116D01*
X121262013Y-93507931D01*
X121274579Y-93497865D01*
X121274425Y-93497678D01*
X121280433Y-93492705D01*
X121280440Y-93492702D01*
X121313338Y-93457669D01*
X121328365Y-93441667D01*
X121331078Y-93438867D01*
X121351411Y-93418535D01*
X121354106Y-93415060D01*
X121361699Y-93406169D01*
X121365443Y-93402182D01*
X121392948Y-93372893D01*
X121403174Y-93354290D01*
X121413853Y-93338033D01*
X121426862Y-93321264D01*
X121444998Y-93279350D01*
X121450120Y-93268895D01*
X121472127Y-93228868D01*
X121477407Y-93208302D01*
X121483709Y-93189895D01*
X121492135Y-93170426D01*
X121499277Y-93125324D01*
X121501645Y-93113897D01*
X121504725Y-93101903D01*
X121513000Y-93069677D01*
X121513000Y-93048455D01*
X121514527Y-93029055D01*
X121517847Y-93008095D01*
X121513550Y-92962640D01*
X121513000Y-92950970D01*
X121513000Y-91457610D01*
X121532685Y-91390571D01*
X121571901Y-91352073D01*
X121623350Y-91320340D01*
X121745340Y-91198350D01*
X121835908Y-91051516D01*
X121890174Y-90887753D01*
X121900500Y-90786677D01*
X121900499Y-90213324D01*
X121894030Y-90150000D01*
X121890174Y-90112247D01*
X121854927Y-90005880D01*
X121835908Y-89948484D01*
X121745340Y-89801650D01*
X121623350Y-89679660D01*
X121476516Y-89589092D01*
X121312753Y-89534826D01*
X121312751Y-89534825D01*
X121211678Y-89524500D01*
X120513330Y-89524500D01*
X120513312Y-89524501D01*
X120412247Y-89534825D01*
X120248484Y-89589092D01*
X120248481Y-89589093D01*
X120101648Y-89679661D01*
X120087681Y-89693629D01*
X120026358Y-89727114D01*
X119956666Y-89722130D01*
X119912319Y-89693629D01*
X119898351Y-89679661D01*
X119898350Y-89679660D01*
X119751516Y-89589092D01*
X119587753Y-89534826D01*
X119587751Y-89534825D01*
X119486684Y-89524500D01*
X119486677Y-89524500D01*
X119100470Y-89524500D01*
X119033431Y-89504815D01*
X119015586Y-89490892D01*
X118974276Y-89452099D01*
X118971477Y-89449386D01*
X118951977Y-89429885D01*
X118951971Y-89429880D01*
X118948786Y-89427409D01*
X118939934Y-89419848D01*
X118908082Y-89389938D01*
X118908080Y-89389936D01*
X118908077Y-89389935D01*
X118890529Y-89380288D01*
X118874263Y-89369604D01*
X118858432Y-89357324D01*
X118818349Y-89339978D01*
X118807863Y-89334841D01*
X118769594Y-89313803D01*
X118769592Y-89313802D01*
X118750193Y-89308822D01*
X118731781Y-89302518D01*
X118713398Y-89294562D01*
X118713392Y-89294560D01*
X118670260Y-89287729D01*
X118658822Y-89285361D01*
X118616520Y-89274500D01*
X118616519Y-89274500D01*
X118596484Y-89274500D01*
X118577086Y-89272973D01*
X118569662Y-89271797D01*
X118557305Y-89269840D01*
X118557304Y-89269840D01*
X118513825Y-89273950D01*
X118502156Y-89274500D01*
X116946981Y-89274500D01*
X116879942Y-89254815D01*
X116841442Y-89215596D01*
X116833034Y-89201965D01*
X116832840Y-89201650D01*
X116710850Y-89079660D01*
X116619629Y-89023395D01*
X116564018Y-88989093D01*
X116564013Y-88989091D01*
X116562569Y-88988612D01*
X116400253Y-88934826D01*
X116400251Y-88934825D01*
X116299178Y-88924500D01*
X115700830Y-88924500D01*
X115700812Y-88924501D01*
X115599747Y-88934825D01*
X115435984Y-88989092D01*
X115435981Y-88989093D01*
X115289148Y-89079661D01*
X115175181Y-89193629D01*
X115113858Y-89227114D01*
X115044166Y-89222130D01*
X114999819Y-89193629D01*
X114885851Y-89079661D01*
X114885850Y-89079660D01*
X114794629Y-89023395D01*
X114739018Y-88989093D01*
X114739013Y-88989091D01*
X114737569Y-88988612D01*
X114575253Y-88934826D01*
X114575251Y-88934825D01*
X114474178Y-88924500D01*
X113875830Y-88924500D01*
X113875812Y-88924501D01*
X113774747Y-88934825D01*
X113610984Y-88989092D01*
X113610981Y-88989093D01*
X113464148Y-89079661D01*
X113342160Y-89201649D01*
X113342159Y-89201651D01*
X113333558Y-89215596D01*
X113281610Y-89262321D01*
X113228019Y-89274500D01*
X112659481Y-89274500D01*
X112592442Y-89254815D01*
X112553942Y-89215596D01*
X112545534Y-89201965D01*
X112545340Y-89201650D01*
X112423350Y-89079660D01*
X112332129Y-89023395D01*
X112276518Y-88989093D01*
X112276513Y-88989091D01*
X112275069Y-88988612D01*
X112112753Y-88934826D01*
X112112751Y-88934825D01*
X112011678Y-88924500D01*
X111413330Y-88924500D01*
X111413312Y-88924501D01*
X111312247Y-88934825D01*
X111148484Y-88989092D01*
X111148481Y-88989093D01*
X111001651Y-89079659D01*
X110887327Y-89193983D01*
X110826004Y-89227467D01*
X110756312Y-89222483D01*
X110711965Y-89193982D01*
X110598038Y-89080055D01*
X110598034Y-89080052D01*
X110451311Y-88989551D01*
X110451300Y-88989546D01*
X110287652Y-88935319D01*
X110186654Y-88925000D01*
X110137500Y-88925000D01*
X110137500Y-90874999D01*
X110186640Y-90874999D01*
X110186654Y-90874998D01*
X110287652Y-90864680D01*
X110451300Y-90810453D01*
X110451311Y-90810448D01*
X110598033Y-90719948D01*
X110711964Y-90606017D01*
X110773287Y-90572532D01*
X110842979Y-90577516D01*
X110887327Y-90606017D01*
X111001650Y-90720340D01*
X111148484Y-90810908D01*
X111312247Y-90865174D01*
X111413323Y-90875500D01*
X112011676Y-90875499D01*
X112011684Y-90875498D01*
X112011687Y-90875498D01*
X112067030Y-90869844D01*
X112112753Y-90865174D01*
X112276516Y-90810908D01*
X112423350Y-90720340D01*
X112545340Y-90598350D01*
X112553942Y-90584404D01*
X112605890Y-90537679D01*
X112659481Y-90525500D01*
X113225500Y-90525500D01*
X113292539Y-90545185D01*
X113338294Y-90597989D01*
X113349500Y-90649500D01*
X113349500Y-93098560D01*
X113329815Y-93165599D01*
X113277011Y-93211354D01*
X113268833Y-93214742D01*
X113157671Y-93256202D01*
X113157664Y-93256206D01*
X113042455Y-93342452D01*
X113042452Y-93342455D01*
X112956206Y-93457664D01*
X112956202Y-93457671D01*
X112905908Y-93592517D01*
X112904126Y-93600062D01*
X112901853Y-93599525D01*
X112879571Y-93653312D01*
X112822177Y-93693157D01*
X112783024Y-93699500D01*
X110233308Y-93699500D01*
X110166269Y-93679815D01*
X110145627Y-93663181D01*
X110086818Y-93604372D01*
X110053333Y-93543049D01*
X110050499Y-93516691D01*
X110050499Y-93163330D01*
X110050498Y-93163313D01*
X110040174Y-93062247D01*
X110022230Y-93008096D01*
X109985908Y-92898484D01*
X109895340Y-92751650D01*
X109773350Y-92629660D01*
X109658481Y-92558808D01*
X109626518Y-92539093D01*
X109626513Y-92539091D01*
X109606472Y-92532450D01*
X109462753Y-92484826D01*
X109462750Y-92484825D01*
X109386369Y-92477022D01*
X109321677Y-92450625D01*
X109311291Y-92441345D01*
X107019946Y-90150000D01*
X108900001Y-90150000D01*
X108900001Y-90186654D01*
X108910319Y-90287652D01*
X108964546Y-90451300D01*
X108964551Y-90451311D01*
X109055052Y-90598034D01*
X109055055Y-90598038D01*
X109176961Y-90719944D01*
X109176965Y-90719947D01*
X109323688Y-90810448D01*
X109323699Y-90810453D01*
X109487347Y-90864680D01*
X109588351Y-90874999D01*
X109637499Y-90874998D01*
X109637500Y-90874998D01*
X109637500Y-90150000D01*
X108900001Y-90150000D01*
X107019946Y-90150000D01*
X106519946Y-89650000D01*
X108900000Y-89650000D01*
X109637500Y-89650000D01*
X109637500Y-88925000D01*
X109637499Y-88924999D01*
X109588361Y-88925000D01*
X109588343Y-88925001D01*
X109487347Y-88935319D01*
X109323699Y-88989546D01*
X109323688Y-88989551D01*
X109176965Y-89080052D01*
X109176961Y-89080055D01*
X109055055Y-89201961D01*
X109055052Y-89201965D01*
X108964551Y-89348688D01*
X108964546Y-89348699D01*
X108910319Y-89512347D01*
X108900000Y-89613345D01*
X108900000Y-89650000D01*
X106519946Y-89650000D01*
X106326819Y-89456873D01*
X106293334Y-89395550D01*
X106290500Y-89369192D01*
X106290500Y-86785502D01*
X106292268Y-86769489D01*
X106292026Y-86769467D01*
X106292758Y-86761711D01*
X106292760Y-86761704D01*
X106290561Y-86691736D01*
X106290500Y-86687841D01*
X106290500Y-86659077D01*
X106290499Y-86659070D01*
X106290310Y-86657577D01*
X106289948Y-86654714D01*
X106289030Y-86643054D01*
X106288747Y-86634035D01*
X106287597Y-86597431D01*
X106281676Y-86577053D01*
X106277731Y-86558004D01*
X106275071Y-86536942D01*
X106258263Y-86494491D01*
X106254480Y-86483442D01*
X106254052Y-86481968D01*
X106241744Y-86439602D01*
X106230940Y-86421334D01*
X106222378Y-86403856D01*
X106214568Y-86384129D01*
X106214565Y-86384125D01*
X106187730Y-86347189D01*
X106181331Y-86337448D01*
X106158081Y-86298135D01*
X106158079Y-86298133D01*
X106158078Y-86298131D01*
X106143075Y-86283129D01*
X106130435Y-86268330D01*
X106117961Y-86251160D01*
X106082780Y-86222056D01*
X106074140Y-86214194D01*
X106029946Y-86170000D01*
X124705000Y-86170000D01*
X124705000Y-87092844D01*
X124711401Y-87152372D01*
X124711403Y-87152379D01*
X124761645Y-87287086D01*
X124761649Y-87287093D01*
X124847809Y-87402187D01*
X124847812Y-87402190D01*
X124962906Y-87488350D01*
X124962913Y-87488354D01*
X125097620Y-87538596D01*
X125097627Y-87538598D01*
X125157155Y-87544999D01*
X125157172Y-87545000D01*
X125730000Y-87545000D01*
X125730000Y-86170000D01*
X126230000Y-86170000D01*
X126230000Y-87545000D01*
X126802828Y-87545000D01*
X126802844Y-87544999D01*
X126862372Y-87538598D01*
X126862379Y-87538596D01*
X126997086Y-87488354D01*
X126997093Y-87488350D01*
X127112187Y-87402190D01*
X127112190Y-87402187D01*
X127198350Y-87287093D01*
X127198354Y-87287086D01*
X127248596Y-87152379D01*
X127248598Y-87152372D01*
X127254999Y-87092844D01*
X127255000Y-87092827D01*
X127255000Y-86170000D01*
X126230000Y-86170000D01*
X125730000Y-86170000D01*
X124705000Y-86170000D01*
X106029946Y-86170000D01*
X105529946Y-85670000D01*
X124705000Y-85670000D01*
X125730000Y-85670000D01*
X125730000Y-84295000D01*
X126230000Y-84295000D01*
X126230000Y-85670000D01*
X127255000Y-85670000D01*
X127255000Y-84747172D01*
X127254999Y-84747155D01*
X127248598Y-84687627D01*
X127248596Y-84687620D01*
X127198354Y-84552913D01*
X127198350Y-84552906D01*
X127112190Y-84437812D01*
X127112187Y-84437809D01*
X126997093Y-84351649D01*
X126997086Y-84351645D01*
X126862379Y-84301403D01*
X126862372Y-84301401D01*
X126802844Y-84295000D01*
X126230000Y-84295000D01*
X125730000Y-84295000D01*
X125157155Y-84295000D01*
X125097627Y-84301401D01*
X125097620Y-84301403D01*
X124962913Y-84351645D01*
X124962906Y-84351649D01*
X124847812Y-84437809D01*
X124847809Y-84437812D01*
X124761649Y-84552906D01*
X124761645Y-84552913D01*
X124711403Y-84687620D01*
X124711401Y-84687627D01*
X124705000Y-84747155D01*
X124705000Y-85670000D01*
X105529946Y-85670000D01*
X104901739Y-85041793D01*
X104886866Y-85023816D01*
X104881825Y-85016398D01*
X104875646Y-85010950D01*
X104838440Y-84978148D01*
X104832762Y-84972816D01*
X104821033Y-84961087D01*
X104821031Y-84961086D01*
X104807907Y-84950904D01*
X104801912Y-84945945D01*
X104758544Y-84907711D01*
X104758535Y-84907705D01*
X104750549Y-84903636D01*
X104730854Y-84891137D01*
X104723766Y-84885639D01*
X104670678Y-84862665D01*
X104663634Y-84859350D01*
X104612101Y-84833093D01*
X104612094Y-84833091D01*
X104603341Y-84831134D01*
X104581155Y-84823925D01*
X104572927Y-84820365D01*
X104515792Y-84811314D01*
X104508146Y-84809855D01*
X104451701Y-84797239D01*
X104442740Y-84797521D01*
X104419456Y-84796056D01*
X104410596Y-84794653D01*
X104410593Y-84794652D01*
X104353002Y-84800096D01*
X104345233Y-84800585D01*
X104287434Y-84802402D01*
X104287427Y-84802403D01*
X104279947Y-84804577D01*
X104245355Y-84809500D01*
X103732721Y-84809500D01*
X103665682Y-84789815D01*
X103631146Y-84756623D01*
X103624528Y-84747172D01*
X103513495Y-84588599D01*
X103513494Y-84588597D01*
X103346402Y-84421506D01*
X103346395Y-84421501D01*
X103152834Y-84285967D01*
X103152830Y-84285965D01*
X103044410Y-84235408D01*
X102938663Y-84186097D01*
X102938659Y-84186096D01*
X102938655Y-84186094D01*
X102710413Y-84124938D01*
X102710403Y-84124936D01*
X102475001Y-84104341D01*
X102474999Y-84104341D01*
X102239596Y-84124936D01*
X102239586Y-84124938D01*
X102011344Y-84186094D01*
X102011335Y-84186098D01*
X101797171Y-84285964D01*
X101797169Y-84285965D01*
X101603597Y-84421505D01*
X101436505Y-84588597D01*
X101300965Y-84782169D01*
X101300964Y-84782171D01*
X101201098Y-84996335D01*
X101201094Y-84996344D01*
X101139938Y-85224586D01*
X101139936Y-85224596D01*
X101119341Y-85459999D01*
X101119341Y-85460000D01*
X101139936Y-85695403D01*
X101139938Y-85695413D01*
X101201094Y-85923655D01*
X101201096Y-85923659D01*
X101201097Y-85923663D01*
X101288221Y-86110500D01*
X101300965Y-86137830D01*
X101300967Y-86137834D01*
X101392342Y-86268330D01*
X101436501Y-86331396D01*
X101436506Y-86331402D01*
X101558818Y-86453714D01*
X101592303Y-86515037D01*
X101587319Y-86584729D01*
X101545447Y-86640662D01*
X101514471Y-86657577D01*
X101382912Y-86706646D01*
X101382906Y-86706649D01*
X101267812Y-86792809D01*
X101267809Y-86792812D01*
X101181649Y-86907906D01*
X101181645Y-86907913D01*
X101131403Y-87042620D01*
X101131401Y-87042627D01*
X101125000Y-87102155D01*
X101125000Y-87750000D01*
X102041314Y-87750000D01*
X102015507Y-87790156D01*
X101975000Y-87928111D01*
X101975000Y-88071889D01*
X102015507Y-88209844D01*
X102041314Y-88250000D01*
X101125000Y-88250000D01*
X101125000Y-88897844D01*
X101131401Y-88957372D01*
X101131403Y-88957379D01*
X101181645Y-89092086D01*
X101181649Y-89092093D01*
X101267809Y-89207187D01*
X101267812Y-89207190D01*
X101382906Y-89293350D01*
X101382913Y-89293354D01*
X101517620Y-89343596D01*
X101517627Y-89343598D01*
X101577155Y-89349999D01*
X101577172Y-89350000D01*
X102225000Y-89350000D01*
X102225000Y-88435501D01*
X102332685Y-88484680D01*
X102439237Y-88500000D01*
X102510763Y-88500000D01*
X102617315Y-88484680D01*
X102725000Y-88435501D01*
X102725000Y-89350000D01*
X103372828Y-89350000D01*
X103372844Y-89349999D01*
X103432372Y-89343598D01*
X103432379Y-89343596D01*
X103567086Y-89293354D01*
X103567093Y-89293350D01*
X103682187Y-89207190D01*
X103682190Y-89207187D01*
X103768350Y-89092093D01*
X103768354Y-89092086D01*
X103818596Y-88957379D01*
X103818598Y-88957372D01*
X103824999Y-88897844D01*
X103825000Y-88897827D01*
X103825000Y-88250000D01*
X102908686Y-88250000D01*
X102934493Y-88209844D01*
X102975000Y-88071889D01*
X102975000Y-87928111D01*
X102934493Y-87790156D01*
X102908686Y-87750000D01*
X103825000Y-87750000D01*
X103825000Y-87102172D01*
X103824999Y-87102155D01*
X103818598Y-87042627D01*
X103818596Y-87042620D01*
X103768354Y-86907913D01*
X103768350Y-86907906D01*
X103682190Y-86792812D01*
X103682187Y-86792809D01*
X103567093Y-86706649D01*
X103567088Y-86706646D01*
X103435528Y-86657577D01*
X103379595Y-86615705D01*
X103355178Y-86550241D01*
X103370030Y-86481968D01*
X103391175Y-86453720D01*
X103513495Y-86331401D01*
X103631147Y-86163377D01*
X103685724Y-86119752D01*
X103732722Y-86110500D01*
X104079192Y-86110500D01*
X104146231Y-86130185D01*
X104166873Y-86146819D01*
X104953181Y-86933127D01*
X104986666Y-86994450D01*
X104989500Y-87020808D01*
X104989500Y-89604494D01*
X104987732Y-89620505D01*
X104987974Y-89620528D01*
X104987240Y-89628294D01*
X104989439Y-89698262D01*
X104989500Y-89702157D01*
X104989500Y-89730920D01*
X104989501Y-89730938D01*
X104990053Y-89735311D01*
X104990968Y-89746941D01*
X104992402Y-89792567D01*
X104992403Y-89792570D01*
X104998323Y-89812948D01*
X105002268Y-89831996D01*
X105004928Y-89853054D01*
X105004931Y-89853065D01*
X105021737Y-89895514D01*
X105025520Y-89906563D01*
X105038254Y-89950395D01*
X105038255Y-89950397D01*
X105049060Y-89968666D01*
X105057617Y-89986134D01*
X105063226Y-90000300D01*
X105065432Y-90005872D01*
X105092266Y-90042806D01*
X105098678Y-90052568D01*
X105121919Y-90091865D01*
X105121923Y-90091869D01*
X105136925Y-90106871D01*
X105149563Y-90121669D01*
X105162033Y-90138833D01*
X105162036Y-90138837D01*
X105197213Y-90167937D01*
X105205854Y-90175800D01*
X107501181Y-92471127D01*
X107534666Y-92532450D01*
X107537500Y-92558808D01*
X107537500Y-94424999D01*
X107636640Y-94424999D01*
X107636654Y-94424998D01*
X107737652Y-94414680D01*
X107901300Y-94360453D01*
X107901311Y-94360448D01*
X108048035Y-94269947D01*
X108061960Y-94256021D01*
X108123282Y-94222533D01*
X108192973Y-94227514D01*
X108237327Y-94256017D01*
X108251650Y-94270340D01*
X108398484Y-94360908D01*
X108562247Y-94415174D01*
X108663323Y-94425500D01*
X109016691Y-94425499D01*
X109083730Y-94445183D01*
X109104372Y-94461818D01*
X109392064Y-94749510D01*
X109402135Y-94762080D01*
X109402322Y-94761926D01*
X109407295Y-94767937D01*
X109407297Y-94767939D01*
X109407298Y-94767940D01*
X109424047Y-94783668D01*
X109458332Y-94815864D01*
X109461129Y-94818575D01*
X109475373Y-94832819D01*
X109508858Y-94894142D01*
X109503874Y-94963834D01*
X109462002Y-95019767D01*
X109396538Y-95044184D01*
X109387692Y-95044500D01*
X103732721Y-95044500D01*
X103665682Y-95024815D01*
X103631146Y-94991623D01*
X103630339Y-94990471D01*
X103586349Y-94927646D01*
X103513494Y-94823597D01*
X103346402Y-94656506D01*
X103346395Y-94656501D01*
X103340148Y-94652127D01*
X103212204Y-94562539D01*
X103152834Y-94520967D01*
X103152830Y-94520965D01*
X103120849Y-94506052D01*
X102938663Y-94421097D01*
X102938659Y-94421096D01*
X102938655Y-94421094D01*
X102710413Y-94359938D01*
X102710403Y-94359936D01*
X102475001Y-94339341D01*
X102474999Y-94339341D01*
X102239596Y-94359936D01*
X102239586Y-94359938D01*
X102011344Y-94421094D01*
X102011335Y-94421098D01*
X101797171Y-94520964D01*
X101797169Y-94520965D01*
X101603597Y-94656505D01*
X101436505Y-94823597D01*
X101300965Y-95017169D01*
X101300964Y-95017171D01*
X101201098Y-95231335D01*
X101201094Y-95231344D01*
X101139938Y-95459586D01*
X101139936Y-95459596D01*
X101119341Y-95694999D01*
X101119341Y-95695000D01*
X100000500Y-95695000D01*
X100000500Y-93700000D01*
X106250001Y-93700000D01*
X106250001Y-93736654D01*
X106260319Y-93837652D01*
X106314546Y-94001300D01*
X106314551Y-94001311D01*
X106405052Y-94148034D01*
X106405055Y-94148038D01*
X106526961Y-94269944D01*
X106526965Y-94269947D01*
X106673688Y-94360448D01*
X106673699Y-94360453D01*
X106837347Y-94414680D01*
X106938351Y-94424999D01*
X107037500Y-94424998D01*
X107037500Y-93700000D01*
X106250001Y-93700000D01*
X100000500Y-93700000D01*
X100000500Y-93200000D01*
X106250000Y-93200000D01*
X107037500Y-93200000D01*
X107037500Y-92474999D01*
X106938360Y-92475000D01*
X106938344Y-92475001D01*
X106837347Y-92485319D01*
X106673699Y-92539546D01*
X106673688Y-92539551D01*
X106526965Y-92630052D01*
X106526961Y-92630055D01*
X106405055Y-92751961D01*
X106405052Y-92751965D01*
X106314551Y-92898688D01*
X106314546Y-92898699D01*
X106260319Y-93062347D01*
X106250000Y-93163345D01*
X106250000Y-93200000D01*
X100000500Y-93200000D01*
X100000500Y-84000000D01*
X107644341Y-84000000D01*
X107664936Y-84235403D01*
X107664938Y-84235413D01*
X107726094Y-84463655D01*
X107726096Y-84463659D01*
X107726097Y-84463663D01*
X107767712Y-84552906D01*
X107825964Y-84677828D01*
X107825965Y-84677830D01*
X107961505Y-84871402D01*
X108128597Y-85038494D01*
X108322169Y-85174034D01*
X108322171Y-85174035D01*
X108536337Y-85273903D01*
X108764592Y-85335063D01*
X108941032Y-85350499D01*
X108941033Y-85350500D01*
X108941034Y-85350500D01*
X109058967Y-85350500D01*
X109058967Y-85350499D01*
X109235408Y-85335063D01*
X109463663Y-85273903D01*
X109677829Y-85174035D01*
X109871401Y-85038495D01*
X110038495Y-84871401D01*
X110174035Y-84677830D01*
X110273903Y-84463663D01*
X110335063Y-84235408D01*
X110355659Y-84000000D01*
X156644341Y-84000000D01*
X156664936Y-84235403D01*
X156664938Y-84235413D01*
X156726094Y-84463655D01*
X156726096Y-84463659D01*
X156726097Y-84463663D01*
X156767712Y-84552906D01*
X156825964Y-84677828D01*
X156825965Y-84677830D01*
X156961505Y-84871402D01*
X157128597Y-85038494D01*
X157322169Y-85174034D01*
X157322171Y-85174035D01*
X157536337Y-85273903D01*
X157764592Y-85335063D01*
X157941032Y-85350499D01*
X157941033Y-85350500D01*
X157941034Y-85350500D01*
X158058967Y-85350500D01*
X158058967Y-85350499D01*
X158235408Y-85335063D01*
X158463663Y-85273903D01*
X158677829Y-85174035D01*
X158871401Y-85038495D01*
X159038495Y-84871401D01*
X159174035Y-84677830D01*
X159273903Y-84463663D01*
X159335063Y-84235408D01*
X159355659Y-84000000D01*
X175644341Y-84000000D01*
X175664936Y-84235403D01*
X175664938Y-84235413D01*
X175726094Y-84463655D01*
X175726096Y-84463659D01*
X175726097Y-84463663D01*
X175767712Y-84552906D01*
X175825964Y-84677828D01*
X175825965Y-84677830D01*
X175961505Y-84871402D01*
X176128597Y-85038494D01*
X176322169Y-85174034D01*
X176322171Y-85174035D01*
X176536337Y-85273903D01*
X176764592Y-85335063D01*
X176941032Y-85350499D01*
X176941033Y-85350500D01*
X176941034Y-85350500D01*
X177058967Y-85350500D01*
X177058967Y-85350499D01*
X177235408Y-85335063D01*
X177463663Y-85273903D01*
X177677829Y-85174035D01*
X177871401Y-85038495D01*
X178038495Y-84871401D01*
X178174035Y-84677830D01*
X178273903Y-84463663D01*
X178335063Y-84235408D01*
X178355659Y-84000000D01*
X178335063Y-83764592D01*
X178273903Y-83536337D01*
X178174035Y-83322171D01*
X178174034Y-83322169D01*
X178038494Y-83128597D01*
X177871402Y-82961505D01*
X177677830Y-82825965D01*
X177677828Y-82825964D01*
X177570746Y-82776031D01*
X177463663Y-82726097D01*
X177463659Y-82726096D01*
X177463655Y-82726094D01*
X177235413Y-82664938D01*
X177235403Y-82664936D01*
X177058967Y-82649500D01*
X177058966Y-82649500D01*
X176941034Y-82649500D01*
X176941033Y-82649500D01*
X176764596Y-82664936D01*
X176764586Y-82664938D01*
X176536344Y-82726094D01*
X176536335Y-82726098D01*
X176322171Y-82825964D01*
X176322169Y-82825965D01*
X176128597Y-82961505D01*
X175961506Y-83128597D01*
X175961501Y-83128604D01*
X175825967Y-83322165D01*
X175825965Y-83322169D01*
X175726098Y-83536335D01*
X175726094Y-83536344D01*
X175664938Y-83764586D01*
X175664936Y-83764596D01*
X175644341Y-83999999D01*
X175644341Y-84000000D01*
X159355659Y-84000000D01*
X159335063Y-83764592D01*
X159273903Y-83536337D01*
X159174035Y-83322171D01*
X159174034Y-83322169D01*
X159038494Y-83128597D01*
X158871402Y-82961505D01*
X158677830Y-82825965D01*
X158677828Y-82825964D01*
X158570746Y-82776031D01*
X158463663Y-82726097D01*
X158463659Y-82726096D01*
X158463655Y-82726094D01*
X158235413Y-82664938D01*
X158235403Y-82664936D01*
X158058967Y-82649500D01*
X158058966Y-82649500D01*
X157941034Y-82649500D01*
X157941033Y-82649500D01*
X157764596Y-82664936D01*
X157764586Y-82664938D01*
X157536344Y-82726094D01*
X157536335Y-82726098D01*
X157322171Y-82825964D01*
X157322169Y-82825965D01*
X157128597Y-82961505D01*
X156961506Y-83128597D01*
X156961501Y-83128604D01*
X156825967Y-83322165D01*
X156825965Y-83322169D01*
X156726098Y-83536335D01*
X156726094Y-83536344D01*
X156664938Y-83764586D01*
X156664936Y-83764596D01*
X156644341Y-83999999D01*
X156644341Y-84000000D01*
X110355659Y-84000000D01*
X110335063Y-83764592D01*
X110273903Y-83536337D01*
X110174035Y-83322171D01*
X110174034Y-83322169D01*
X110038494Y-83128597D01*
X109871402Y-82961505D01*
X109677830Y-82825965D01*
X109677828Y-82825964D01*
X109570746Y-82776031D01*
X109463663Y-82726097D01*
X109463659Y-82726096D01*
X109463655Y-82726094D01*
X109235413Y-82664938D01*
X109235403Y-82664936D01*
X109058967Y-82649500D01*
X109058966Y-82649500D01*
X108941034Y-82649500D01*
X108941033Y-82649500D01*
X108764596Y-82664936D01*
X108764586Y-82664938D01*
X108536344Y-82726094D01*
X108536335Y-82726098D01*
X108322171Y-82825964D01*
X108322169Y-82825965D01*
X108128597Y-82961505D01*
X107961506Y-83128597D01*
X107961501Y-83128604D01*
X107825967Y-83322165D01*
X107825965Y-83322169D01*
X107726098Y-83536335D01*
X107726094Y-83536344D01*
X107664938Y-83764586D01*
X107664936Y-83764596D01*
X107644341Y-83999999D01*
X107644341Y-84000000D01*
X100000500Y-84000000D01*
X100000500Y-81124500D01*
X100020185Y-81057461D01*
X100072989Y-81011706D01*
X100124500Y-81000500D01*
X179875500Y-81000500D01*
X179942539Y-81020185D01*
G37*
%TD.AperFunction*%
%TD*%
%TA.AperFunction,Conductor*%
%TO.N,GND*%
G36*
X169750000Y-99000000D02*
G01*
X168750000Y-99000000D01*
X168750000Y-95000000D01*
X169750000Y-95000000D01*
X169750000Y-99000000D01*
G37*
%TD.AperFunction*%
%TD*%
%TA.AperFunction,Conductor*%
%TO.N,Net-(J3-Pin_1)*%
G36*
X166443039Y-95019685D02*
G01*
X166488794Y-95072489D01*
X166500000Y-95124000D01*
X166500000Y-98876000D01*
X166480315Y-98943039D01*
X166427511Y-98988794D01*
X166376000Y-99000000D01*
X165724000Y-99000000D01*
X165656961Y-98980315D01*
X165611206Y-98927511D01*
X165600000Y-98876000D01*
X165600000Y-95124000D01*
X165619685Y-95056961D01*
X165672489Y-95011206D01*
X165724000Y-95000000D01*
X166376000Y-95000000D01*
X166443039Y-95019685D01*
G37*
%TD.AperFunction*%
%TD*%
%TA.AperFunction,Conductor*%
%TO.N,GND*%
G36*
X168100000Y-99350000D02*
G01*
X167200000Y-99350000D01*
X167200000Y-94550000D01*
X168100000Y-94550000D01*
X168100000Y-99350000D01*
G37*
%TD.AperFunction*%
%TD*%
M02*
