%TF.GenerationSoftware,KiCad,Pcbnew,7.0.10-7.0.10~ubuntu20.04.1*%
%TF.CreationDate,2025-03-29T11:51:33+01:00*%
%TF.ProjectId,uven2-mk3-cc-driver,7576656e-322d-46d6-9b33-2d63632d6472,rev?*%
%TF.SameCoordinates,Original*%
%TF.FileFunction,Paste,Top*%
%TF.FilePolarity,Positive*%
%FSLAX46Y46*%
G04 Gerber Fmt 4.6, Leading zero omitted, Abs format (unit mm)*
G04 Created by KiCad (PCBNEW 7.0.10-7.0.10~ubuntu20.04.1) date 2025-03-29 11:51:33*
%MOMM*%
%LPD*%
G01*
G04 APERTURE LIST*
G04 Aperture macros list*
%AMRoundRect*
0 Rectangle with rounded corners*
0 $1 Rounding radius*
0 $2 $3 $4 $5 $6 $7 $8 $9 X,Y pos of 4 corners*
0 Add a 4 corners polygon primitive as box body*
4,1,4,$2,$3,$4,$5,$6,$7,$8,$9,$2,$3,0*
0 Add four circle primitives for the rounded corners*
1,1,$1+$1,$2,$3*
1,1,$1+$1,$4,$5*
1,1,$1+$1,$6,$7*
1,1,$1+$1,$8,$9*
0 Add four rect primitives between the rounded corners*
20,1,$1+$1,$2,$3,$4,$5,0*
20,1,$1+$1,$4,$5,$6,$7,0*
20,1,$1+$1,$6,$7,$8,$9,0*
20,1,$1+$1,$8,$9,$2,$3,0*%
G04 Aperture macros list end*
%ADD10C,0.010000*%
%ADD11RoundRect,0.249999X-0.450001X-1.425001X0.450001X-1.425001X0.450001X1.425001X-0.450001X1.425001X0*%
%ADD12RoundRect,0.237500X0.250000X0.237500X-0.250000X0.237500X-0.250000X-0.237500X0.250000X-0.237500X0*%
%ADD13RoundRect,0.237500X-0.300000X-0.237500X0.300000X-0.237500X0.300000X0.237500X-0.300000X0.237500X0*%
%ADD14R,1.550000X2.250000*%
%ADD15R,1.600000X2.600000*%
%ADD16R,1.570000X1.880000*%
%ADD17R,2.850000X6.600000*%
%ADD18RoundRect,0.150000X0.587500X0.150000X-0.587500X0.150000X-0.587500X-0.150000X0.587500X-0.150000X0*%
%ADD19RoundRect,0.250000X1.450000X-0.537500X1.450000X0.537500X-1.450000X0.537500X-1.450000X-0.537500X0*%
%ADD20RoundRect,0.237500X-0.237500X0.300000X-0.237500X-0.300000X0.237500X-0.300000X0.237500X0.300000X0*%
G04 APERTURE END LIST*
%TO.C,U2*%
D10*
X114975000Y-93975000D02*
X113425000Y-93975000D01*
X113425000Y-93725000D01*
X114975000Y-93725000D01*
X114975000Y-93975000D01*
G36*
X114975000Y-93975000D02*
G01*
X113425000Y-93975000D01*
X113425000Y-93725000D01*
X114975000Y-93725000D01*
X114975000Y-93975000D01*
G37*
X114975000Y-94475000D02*
X113425000Y-94475000D01*
X113425000Y-94225000D01*
X114975000Y-94225000D01*
X114975000Y-94475000D01*
G36*
X114975000Y-94475000D02*
G01*
X113425000Y-94475000D01*
X113425000Y-94225000D01*
X114975000Y-94225000D01*
X114975000Y-94475000D01*
G37*
X114975000Y-94975000D02*
X113425000Y-94975000D01*
X113425000Y-94725000D01*
X114975000Y-94725000D01*
X114975000Y-94975000D01*
G36*
X114975000Y-94975000D02*
G01*
X113425000Y-94975000D01*
X113425000Y-94725000D01*
X114975000Y-94725000D01*
X114975000Y-94975000D01*
G37*
X114975000Y-95475000D02*
X113425000Y-95475000D01*
X113425000Y-95225000D01*
X114975000Y-95225000D01*
X114975000Y-95475000D01*
G36*
X114975000Y-95475000D02*
G01*
X113425000Y-95475000D01*
X113425000Y-95225000D01*
X114975000Y-95225000D01*
X114975000Y-95475000D01*
G37*
X114975000Y-95975000D02*
X113425000Y-95975000D01*
X113425000Y-95725000D01*
X114975000Y-95725000D01*
X114975000Y-95975000D01*
G36*
X114975000Y-95975000D02*
G01*
X113425000Y-95975000D01*
X113425000Y-95725000D01*
X114975000Y-95725000D01*
X114975000Y-95975000D01*
G37*
X119175000Y-93975000D02*
X117625000Y-93975000D01*
X117625000Y-93725000D01*
X119175000Y-93725000D01*
X119175000Y-93975000D01*
G36*
X119175000Y-93975000D02*
G01*
X117625000Y-93975000D01*
X117625000Y-93725000D01*
X119175000Y-93725000D01*
X119175000Y-93975000D01*
G37*
X119175000Y-94475000D02*
X117625000Y-94475000D01*
X117625000Y-94225000D01*
X119175000Y-94225000D01*
X119175000Y-94475000D01*
G36*
X119175000Y-94475000D02*
G01*
X117625000Y-94475000D01*
X117625000Y-94225000D01*
X119175000Y-94225000D01*
X119175000Y-94475000D01*
G37*
X119175000Y-94975000D02*
X117625000Y-94975000D01*
X117625000Y-94725000D01*
X119175000Y-94725000D01*
X119175000Y-94975000D01*
G36*
X119175000Y-94975000D02*
G01*
X117625000Y-94975000D01*
X117625000Y-94725000D01*
X119175000Y-94725000D01*
X119175000Y-94975000D01*
G37*
X119175000Y-95475000D02*
X117625000Y-95475000D01*
X117625000Y-95225000D01*
X119175000Y-95225000D01*
X119175000Y-95475000D01*
G36*
X119175000Y-95475000D02*
G01*
X117625000Y-95475000D01*
X117625000Y-95225000D01*
X119175000Y-95225000D01*
X119175000Y-95475000D01*
G37*
X119175000Y-95975000D02*
X117625000Y-95975000D01*
X117625000Y-95725000D01*
X119175000Y-95725000D01*
X119175000Y-95975000D01*
G36*
X119175000Y-95975000D02*
G01*
X117625000Y-95975000D01*
X117625000Y-95725000D01*
X119175000Y-95725000D01*
X119175000Y-95975000D01*
G37*
%TO.C,D2*%
X169128000Y-95521000D02*
X169130000Y-95521000D01*
X169133000Y-95522000D01*
X169135000Y-95522000D01*
X169138000Y-95523000D01*
X169140000Y-95524000D01*
X169143000Y-95525000D01*
X169145000Y-95527000D01*
X169147000Y-95528000D01*
X169149000Y-95530000D01*
X169151000Y-95531000D01*
X169153000Y-95533000D01*
X169155000Y-95535000D01*
X169157000Y-95537000D01*
X169159000Y-95539000D01*
X169160000Y-95541000D01*
X169162000Y-95543000D01*
X169163000Y-95545000D01*
X169165000Y-95547000D01*
X169166000Y-95550000D01*
X169167000Y-95552000D01*
X169168000Y-95555000D01*
X169168000Y-95557000D01*
X169169000Y-95560000D01*
X169169000Y-95562000D01*
X169170000Y-95565000D01*
X169170000Y-95567000D01*
X169170000Y-95570000D01*
X169170000Y-98430000D01*
X169170000Y-98433000D01*
X169170000Y-98435000D01*
X169169000Y-98438000D01*
X169169000Y-98440000D01*
X169168000Y-98443000D01*
X169168000Y-98445000D01*
X169167000Y-98448000D01*
X169166000Y-98450000D01*
X169165000Y-98453000D01*
X169163000Y-98455000D01*
X169162000Y-98457000D01*
X169160000Y-98459000D01*
X169159000Y-98461000D01*
X169157000Y-98463000D01*
X169155000Y-98465000D01*
X169153000Y-98467000D01*
X169151000Y-98469000D01*
X169149000Y-98470000D01*
X169147000Y-98472000D01*
X169145000Y-98473000D01*
X169143000Y-98475000D01*
X169140000Y-98476000D01*
X169138000Y-98477000D01*
X169135000Y-98478000D01*
X169133000Y-98478000D01*
X169130000Y-98479000D01*
X169128000Y-98479000D01*
X169125000Y-98480000D01*
X169123000Y-98480000D01*
X169120000Y-98480000D01*
X168880000Y-98480000D01*
X168877000Y-98480000D01*
X168875000Y-98480000D01*
X168872000Y-98479000D01*
X168870000Y-98479000D01*
X168867000Y-98478000D01*
X168865000Y-98478000D01*
X168862000Y-98477000D01*
X168860000Y-98476000D01*
X168857000Y-98475000D01*
X168855000Y-98473000D01*
X168853000Y-98472000D01*
X168851000Y-98470000D01*
X168849000Y-98469000D01*
X168847000Y-98467000D01*
X168845000Y-98465000D01*
X168843000Y-98463000D01*
X168841000Y-98461000D01*
X168840000Y-98459000D01*
X168838000Y-98457000D01*
X168837000Y-98455000D01*
X168835000Y-98453000D01*
X168834000Y-98450000D01*
X168833000Y-98448000D01*
X168832000Y-98445000D01*
X168832000Y-98443000D01*
X168831000Y-98440000D01*
X168831000Y-98438000D01*
X168830000Y-98435000D01*
X168830000Y-98433000D01*
X168830000Y-98430000D01*
X168830000Y-95570000D01*
X168830000Y-95567000D01*
X168830000Y-95565000D01*
X168831000Y-95562000D01*
X168831000Y-95560000D01*
X168832000Y-95557000D01*
X168832000Y-95555000D01*
X168833000Y-95552000D01*
X168834000Y-95550000D01*
X168835000Y-95547000D01*
X168837000Y-95545000D01*
X168838000Y-95543000D01*
X168840000Y-95541000D01*
X168841000Y-95539000D01*
X168843000Y-95537000D01*
X168845000Y-95535000D01*
X168847000Y-95533000D01*
X168849000Y-95531000D01*
X168851000Y-95530000D01*
X168853000Y-95528000D01*
X168855000Y-95527000D01*
X168857000Y-95525000D01*
X168860000Y-95524000D01*
X168862000Y-95523000D01*
X168865000Y-95522000D01*
X168867000Y-95522000D01*
X168870000Y-95521000D01*
X168872000Y-95521000D01*
X168875000Y-95520000D01*
X168877000Y-95520000D01*
X168880000Y-95520000D01*
X169120000Y-95520000D01*
X169123000Y-95520000D01*
X169125000Y-95520000D01*
X169128000Y-95521000D01*
G36*
X169128000Y-95521000D02*
G01*
X169130000Y-95521000D01*
X169133000Y-95522000D01*
X169135000Y-95522000D01*
X169138000Y-95523000D01*
X169140000Y-95524000D01*
X169143000Y-95525000D01*
X169145000Y-95527000D01*
X169147000Y-95528000D01*
X169149000Y-95530000D01*
X169151000Y-95531000D01*
X169153000Y-95533000D01*
X169155000Y-95535000D01*
X169157000Y-95537000D01*
X169159000Y-95539000D01*
X169160000Y-95541000D01*
X169162000Y-95543000D01*
X169163000Y-95545000D01*
X169165000Y-95547000D01*
X169166000Y-95550000D01*
X169167000Y-95552000D01*
X169168000Y-95555000D01*
X169168000Y-95557000D01*
X169169000Y-95560000D01*
X169169000Y-95562000D01*
X169170000Y-95565000D01*
X169170000Y-95567000D01*
X169170000Y-95570000D01*
X169170000Y-98430000D01*
X169170000Y-98433000D01*
X169170000Y-98435000D01*
X169169000Y-98438000D01*
X169169000Y-98440000D01*
X169168000Y-98443000D01*
X169168000Y-98445000D01*
X169167000Y-98448000D01*
X169166000Y-98450000D01*
X169165000Y-98453000D01*
X169163000Y-98455000D01*
X169162000Y-98457000D01*
X169160000Y-98459000D01*
X169159000Y-98461000D01*
X169157000Y-98463000D01*
X169155000Y-98465000D01*
X169153000Y-98467000D01*
X169151000Y-98469000D01*
X169149000Y-98470000D01*
X169147000Y-98472000D01*
X169145000Y-98473000D01*
X169143000Y-98475000D01*
X169140000Y-98476000D01*
X169138000Y-98477000D01*
X169135000Y-98478000D01*
X169133000Y-98478000D01*
X169130000Y-98479000D01*
X169128000Y-98479000D01*
X169125000Y-98480000D01*
X169123000Y-98480000D01*
X169120000Y-98480000D01*
X168880000Y-98480000D01*
X168877000Y-98480000D01*
X168875000Y-98480000D01*
X168872000Y-98479000D01*
X168870000Y-98479000D01*
X168867000Y-98478000D01*
X168865000Y-98478000D01*
X168862000Y-98477000D01*
X168860000Y-98476000D01*
X168857000Y-98475000D01*
X168855000Y-98473000D01*
X168853000Y-98472000D01*
X168851000Y-98470000D01*
X168849000Y-98469000D01*
X168847000Y-98467000D01*
X168845000Y-98465000D01*
X168843000Y-98463000D01*
X168841000Y-98461000D01*
X168840000Y-98459000D01*
X168838000Y-98457000D01*
X168837000Y-98455000D01*
X168835000Y-98453000D01*
X168834000Y-98450000D01*
X168833000Y-98448000D01*
X168832000Y-98445000D01*
X168832000Y-98443000D01*
X168831000Y-98440000D01*
X168831000Y-98438000D01*
X168830000Y-98435000D01*
X168830000Y-98433000D01*
X168830000Y-98430000D01*
X168830000Y-95570000D01*
X168830000Y-95567000D01*
X168830000Y-95565000D01*
X168831000Y-95562000D01*
X168831000Y-95560000D01*
X168832000Y-95557000D01*
X168832000Y-95555000D01*
X168833000Y-95552000D01*
X168834000Y-95550000D01*
X168835000Y-95547000D01*
X168837000Y-95545000D01*
X168838000Y-95543000D01*
X168840000Y-95541000D01*
X168841000Y-95539000D01*
X168843000Y-95537000D01*
X168845000Y-95535000D01*
X168847000Y-95533000D01*
X168849000Y-95531000D01*
X168851000Y-95530000D01*
X168853000Y-95528000D01*
X168855000Y-95527000D01*
X168857000Y-95525000D01*
X168860000Y-95524000D01*
X168862000Y-95523000D01*
X168865000Y-95522000D01*
X168867000Y-95522000D01*
X168870000Y-95521000D01*
X168872000Y-95521000D01*
X168875000Y-95520000D01*
X168877000Y-95520000D01*
X168880000Y-95520000D01*
X169120000Y-95520000D01*
X169123000Y-95520000D01*
X169125000Y-95520000D01*
X169128000Y-95521000D01*
G37*
X166348000Y-95521000D02*
X166350000Y-95521000D01*
X166353000Y-95522000D01*
X166355000Y-95522000D01*
X166358000Y-95523000D01*
X166360000Y-95524000D01*
X166363000Y-95525000D01*
X166365000Y-95527000D01*
X166367000Y-95528000D01*
X166369000Y-95530000D01*
X166371000Y-95531000D01*
X166373000Y-95533000D01*
X166375000Y-95535000D01*
X166377000Y-95537000D01*
X166379000Y-95539000D01*
X166380000Y-95541000D01*
X166382000Y-95543000D01*
X166383000Y-95545000D01*
X166385000Y-95547000D01*
X166386000Y-95550000D01*
X166387000Y-95552000D01*
X166388000Y-95555000D01*
X166388000Y-95557000D01*
X166389000Y-95560000D01*
X166389000Y-95562000D01*
X166390000Y-95565000D01*
X166390000Y-95567000D01*
X166390000Y-95570000D01*
X166390000Y-98430000D01*
X166390000Y-98433000D01*
X166390000Y-98435000D01*
X166389000Y-98438000D01*
X166389000Y-98440000D01*
X166388000Y-98443000D01*
X166388000Y-98445000D01*
X166387000Y-98448000D01*
X166386000Y-98450000D01*
X166385000Y-98453000D01*
X166383000Y-98455000D01*
X166382000Y-98457000D01*
X166380000Y-98459000D01*
X166379000Y-98461000D01*
X166377000Y-98463000D01*
X166375000Y-98465000D01*
X166373000Y-98467000D01*
X166371000Y-98469000D01*
X166369000Y-98470000D01*
X166367000Y-98472000D01*
X166365000Y-98473000D01*
X166363000Y-98475000D01*
X166360000Y-98476000D01*
X166358000Y-98477000D01*
X166355000Y-98478000D01*
X166353000Y-98478000D01*
X166350000Y-98479000D01*
X166348000Y-98479000D01*
X166345000Y-98480000D01*
X166343000Y-98480000D01*
X166340000Y-98480000D01*
X166100000Y-98480000D01*
X166097000Y-98480000D01*
X166095000Y-98480000D01*
X166092000Y-98479000D01*
X166090000Y-98479000D01*
X166087000Y-98478000D01*
X166085000Y-98478000D01*
X166082000Y-98477000D01*
X166080000Y-98476000D01*
X166077000Y-98475000D01*
X166075000Y-98473000D01*
X166073000Y-98472000D01*
X166071000Y-98470000D01*
X166069000Y-98469000D01*
X166067000Y-98467000D01*
X166065000Y-98465000D01*
X166063000Y-98463000D01*
X166061000Y-98461000D01*
X166060000Y-98459000D01*
X166058000Y-98457000D01*
X166057000Y-98455000D01*
X166055000Y-98453000D01*
X166054000Y-98450000D01*
X166053000Y-98448000D01*
X166052000Y-98445000D01*
X166052000Y-98443000D01*
X166051000Y-98440000D01*
X166051000Y-98438000D01*
X166050000Y-98435000D01*
X166050000Y-98433000D01*
X166050000Y-98430000D01*
X166050000Y-95570000D01*
X166050000Y-95567000D01*
X166050000Y-95565000D01*
X166051000Y-95562000D01*
X166051000Y-95560000D01*
X166052000Y-95557000D01*
X166052000Y-95555000D01*
X166053000Y-95552000D01*
X166054000Y-95550000D01*
X166055000Y-95547000D01*
X166057000Y-95545000D01*
X166058000Y-95543000D01*
X166060000Y-95541000D01*
X166061000Y-95539000D01*
X166063000Y-95537000D01*
X166065000Y-95535000D01*
X166067000Y-95533000D01*
X166069000Y-95531000D01*
X166071000Y-95530000D01*
X166073000Y-95528000D01*
X166075000Y-95527000D01*
X166077000Y-95525000D01*
X166080000Y-95524000D01*
X166082000Y-95523000D01*
X166085000Y-95522000D01*
X166087000Y-95522000D01*
X166090000Y-95521000D01*
X166092000Y-95521000D01*
X166095000Y-95520000D01*
X166097000Y-95520000D01*
X166100000Y-95520000D01*
X166340000Y-95520000D01*
X166343000Y-95520000D01*
X166345000Y-95520000D01*
X166348000Y-95521000D01*
G36*
X166348000Y-95521000D02*
G01*
X166350000Y-95521000D01*
X166353000Y-95522000D01*
X166355000Y-95522000D01*
X166358000Y-95523000D01*
X166360000Y-95524000D01*
X166363000Y-95525000D01*
X166365000Y-95527000D01*
X166367000Y-95528000D01*
X166369000Y-95530000D01*
X166371000Y-95531000D01*
X166373000Y-95533000D01*
X166375000Y-95535000D01*
X166377000Y-95537000D01*
X166379000Y-95539000D01*
X166380000Y-95541000D01*
X166382000Y-95543000D01*
X166383000Y-95545000D01*
X166385000Y-95547000D01*
X166386000Y-95550000D01*
X166387000Y-95552000D01*
X166388000Y-95555000D01*
X166388000Y-95557000D01*
X166389000Y-95560000D01*
X166389000Y-95562000D01*
X166390000Y-95565000D01*
X166390000Y-95567000D01*
X166390000Y-95570000D01*
X166390000Y-98430000D01*
X166390000Y-98433000D01*
X166390000Y-98435000D01*
X166389000Y-98438000D01*
X166389000Y-98440000D01*
X166388000Y-98443000D01*
X166388000Y-98445000D01*
X166387000Y-98448000D01*
X166386000Y-98450000D01*
X166385000Y-98453000D01*
X166383000Y-98455000D01*
X166382000Y-98457000D01*
X166380000Y-98459000D01*
X166379000Y-98461000D01*
X166377000Y-98463000D01*
X166375000Y-98465000D01*
X166373000Y-98467000D01*
X166371000Y-98469000D01*
X166369000Y-98470000D01*
X166367000Y-98472000D01*
X166365000Y-98473000D01*
X166363000Y-98475000D01*
X166360000Y-98476000D01*
X166358000Y-98477000D01*
X166355000Y-98478000D01*
X166353000Y-98478000D01*
X166350000Y-98479000D01*
X166348000Y-98479000D01*
X166345000Y-98480000D01*
X166343000Y-98480000D01*
X166340000Y-98480000D01*
X166100000Y-98480000D01*
X166097000Y-98480000D01*
X166095000Y-98480000D01*
X166092000Y-98479000D01*
X166090000Y-98479000D01*
X166087000Y-98478000D01*
X166085000Y-98478000D01*
X166082000Y-98477000D01*
X166080000Y-98476000D01*
X166077000Y-98475000D01*
X166075000Y-98473000D01*
X166073000Y-98472000D01*
X166071000Y-98470000D01*
X166069000Y-98469000D01*
X166067000Y-98467000D01*
X166065000Y-98465000D01*
X166063000Y-98463000D01*
X166061000Y-98461000D01*
X166060000Y-98459000D01*
X166058000Y-98457000D01*
X166057000Y-98455000D01*
X166055000Y-98453000D01*
X166054000Y-98450000D01*
X166053000Y-98448000D01*
X166052000Y-98445000D01*
X166052000Y-98443000D01*
X166051000Y-98440000D01*
X166051000Y-98438000D01*
X166050000Y-98435000D01*
X166050000Y-98433000D01*
X166050000Y-98430000D01*
X166050000Y-95570000D01*
X166050000Y-95567000D01*
X166050000Y-95565000D01*
X166051000Y-95562000D01*
X166051000Y-95560000D01*
X166052000Y-95557000D01*
X166052000Y-95555000D01*
X166053000Y-95552000D01*
X166054000Y-95550000D01*
X166055000Y-95547000D01*
X166057000Y-95545000D01*
X166058000Y-95543000D01*
X166060000Y-95541000D01*
X166061000Y-95539000D01*
X166063000Y-95537000D01*
X166065000Y-95535000D01*
X166067000Y-95533000D01*
X166069000Y-95531000D01*
X166071000Y-95530000D01*
X166073000Y-95528000D01*
X166075000Y-95527000D01*
X166077000Y-95525000D01*
X166080000Y-95524000D01*
X166082000Y-95523000D01*
X166085000Y-95522000D01*
X166087000Y-95522000D01*
X166090000Y-95521000D01*
X166092000Y-95521000D01*
X166095000Y-95520000D01*
X166097000Y-95520000D01*
X166100000Y-95520000D01*
X166340000Y-95520000D01*
X166343000Y-95520000D01*
X166345000Y-95520000D01*
X166348000Y-95521000D01*
G37*
X168068000Y-95521000D02*
X168070000Y-95521000D01*
X168073000Y-95522000D01*
X168075000Y-95522000D01*
X168078000Y-95523000D01*
X168080000Y-95524000D01*
X168083000Y-95525000D01*
X168085000Y-95527000D01*
X168087000Y-95528000D01*
X168089000Y-95530000D01*
X168091000Y-95531000D01*
X168093000Y-95533000D01*
X168095000Y-95535000D01*
X168097000Y-95537000D01*
X168099000Y-95539000D01*
X168100000Y-95541000D01*
X168102000Y-95543000D01*
X168103000Y-95545000D01*
X168105000Y-95547000D01*
X168106000Y-95550000D01*
X168107000Y-95552000D01*
X168108000Y-95555000D01*
X168108000Y-95557000D01*
X168109000Y-95560000D01*
X168109000Y-95562000D01*
X168110000Y-95565000D01*
X168110000Y-95567000D01*
X168110000Y-95570000D01*
X168110000Y-96290000D01*
X168056000Y-96399000D01*
X168054000Y-96402000D01*
X168051000Y-96409000D01*
X168048000Y-96416000D01*
X168044000Y-96423000D01*
X168042000Y-96430000D01*
X168039000Y-96437000D01*
X168036000Y-96444000D01*
X168033000Y-96451000D01*
X168031000Y-96458000D01*
X168028000Y-96465000D01*
X168026000Y-96472000D01*
X168024000Y-96479000D01*
X168022000Y-96487000D01*
X168020000Y-96494000D01*
X168018000Y-96501000D01*
X168017000Y-96509000D01*
X168015000Y-96516000D01*
X168014000Y-96523000D01*
X168012000Y-96531000D01*
X168011000Y-96538000D01*
X168010000Y-96546000D01*
X168009000Y-96553000D01*
X168008000Y-96561000D01*
X168007000Y-96568000D01*
X168006000Y-96576000D01*
X168006000Y-96583000D01*
X168006000Y-96591000D01*
X168005000Y-96598000D01*
X168005000Y-96606000D01*
X168005000Y-96613000D01*
X168005000Y-97387000D01*
X168005000Y-97394000D01*
X168005000Y-97402000D01*
X168006000Y-97409000D01*
X168006000Y-97417000D01*
X168006000Y-97424000D01*
X168007000Y-97432000D01*
X168008000Y-97439000D01*
X168009000Y-97447000D01*
X168010000Y-97454000D01*
X168011000Y-97462000D01*
X168012000Y-97469000D01*
X168014000Y-97477000D01*
X168015000Y-97484000D01*
X168017000Y-97491000D01*
X168018000Y-97499000D01*
X168020000Y-97506000D01*
X168022000Y-97513000D01*
X168024000Y-97521000D01*
X168026000Y-97528000D01*
X168028000Y-97535000D01*
X168031000Y-97542000D01*
X168033000Y-97549000D01*
X168036000Y-97556000D01*
X168039000Y-97563000D01*
X168042000Y-97570000D01*
X168044000Y-97577000D01*
X168048000Y-97584000D01*
X168051000Y-97591000D01*
X168054000Y-97598000D01*
X168056000Y-97601000D01*
X168110000Y-97710000D01*
X168110000Y-98430000D01*
X168110000Y-98433000D01*
X168110000Y-98435000D01*
X168109000Y-98438000D01*
X168109000Y-98440000D01*
X168108000Y-98443000D01*
X168108000Y-98445000D01*
X168107000Y-98448000D01*
X168106000Y-98450000D01*
X168105000Y-98453000D01*
X168103000Y-98455000D01*
X168102000Y-98457000D01*
X168100000Y-98459000D01*
X168099000Y-98461000D01*
X168097000Y-98463000D01*
X168095000Y-98465000D01*
X168093000Y-98467000D01*
X168091000Y-98469000D01*
X168089000Y-98470000D01*
X168087000Y-98472000D01*
X168085000Y-98473000D01*
X168083000Y-98475000D01*
X168080000Y-98476000D01*
X168078000Y-98477000D01*
X168075000Y-98478000D01*
X168073000Y-98478000D01*
X168070000Y-98479000D01*
X168068000Y-98479000D01*
X168065000Y-98480000D01*
X168063000Y-98480000D01*
X168060000Y-98480000D01*
X167160000Y-98480000D01*
X167157000Y-98480000D01*
X167155000Y-98480000D01*
X167152000Y-98479000D01*
X167150000Y-98479000D01*
X167147000Y-98478000D01*
X167145000Y-98478000D01*
X167142000Y-98477000D01*
X167140000Y-98476000D01*
X167137000Y-98475000D01*
X167135000Y-98473000D01*
X167133000Y-98472000D01*
X167131000Y-98470000D01*
X167129000Y-98469000D01*
X167127000Y-98467000D01*
X167125000Y-98465000D01*
X167123000Y-98463000D01*
X167121000Y-98461000D01*
X167120000Y-98459000D01*
X167118000Y-98457000D01*
X167117000Y-98455000D01*
X167115000Y-98453000D01*
X167114000Y-98450000D01*
X167113000Y-98448000D01*
X167112000Y-98445000D01*
X167112000Y-98443000D01*
X167111000Y-98440000D01*
X167111000Y-98438000D01*
X167110000Y-98435000D01*
X167110000Y-98433000D01*
X167110000Y-98430000D01*
X167110000Y-97710000D01*
X167164000Y-97601000D01*
X167166000Y-97598000D01*
X167169000Y-97591000D01*
X167172000Y-97584000D01*
X167176000Y-97577000D01*
X167178000Y-97570000D01*
X167181000Y-97563000D01*
X167184000Y-97556000D01*
X167187000Y-97549000D01*
X167189000Y-97542000D01*
X167192000Y-97535000D01*
X167194000Y-97528000D01*
X167196000Y-97521000D01*
X167198000Y-97513000D01*
X167200000Y-97506000D01*
X167202000Y-97499000D01*
X167203000Y-97491000D01*
X167205000Y-97484000D01*
X167206000Y-97477000D01*
X167208000Y-97469000D01*
X167209000Y-97462000D01*
X167210000Y-97454000D01*
X167211000Y-97447000D01*
X167212000Y-97439000D01*
X167213000Y-97432000D01*
X167214000Y-97424000D01*
X167214000Y-97417000D01*
X167214000Y-97409000D01*
X167215000Y-97402000D01*
X167215000Y-97394000D01*
X167215000Y-97387000D01*
X167215000Y-96613000D01*
X167215000Y-96606000D01*
X167215000Y-96598000D01*
X167214000Y-96591000D01*
X167214000Y-96583000D01*
X167214000Y-96576000D01*
X167213000Y-96568000D01*
X167212000Y-96561000D01*
X167211000Y-96553000D01*
X167210000Y-96546000D01*
X167209000Y-96538000D01*
X167208000Y-96531000D01*
X167206000Y-96523000D01*
X167205000Y-96516000D01*
X167203000Y-96509000D01*
X167202000Y-96501000D01*
X167200000Y-96494000D01*
X167198000Y-96487000D01*
X167196000Y-96479000D01*
X167194000Y-96472000D01*
X167192000Y-96465000D01*
X167189000Y-96458000D01*
X167187000Y-96451000D01*
X167184000Y-96444000D01*
X167181000Y-96437000D01*
X167178000Y-96430000D01*
X167176000Y-96423000D01*
X167172000Y-96416000D01*
X167169000Y-96409000D01*
X167166000Y-96402000D01*
X167164000Y-96399000D01*
X167110000Y-96290000D01*
X167110000Y-95570000D01*
X167110000Y-95567000D01*
X167110000Y-95565000D01*
X167111000Y-95562000D01*
X167111000Y-95560000D01*
X167112000Y-95557000D01*
X167112000Y-95555000D01*
X167113000Y-95552000D01*
X167114000Y-95550000D01*
X167115000Y-95547000D01*
X167117000Y-95545000D01*
X167118000Y-95543000D01*
X167120000Y-95541000D01*
X167121000Y-95539000D01*
X167123000Y-95537000D01*
X167125000Y-95535000D01*
X167127000Y-95533000D01*
X167129000Y-95531000D01*
X167131000Y-95530000D01*
X167133000Y-95528000D01*
X167135000Y-95527000D01*
X167137000Y-95525000D01*
X167140000Y-95524000D01*
X167142000Y-95523000D01*
X167145000Y-95522000D01*
X167147000Y-95522000D01*
X167150000Y-95521000D01*
X167152000Y-95521000D01*
X167155000Y-95520000D01*
X167157000Y-95520000D01*
X167160000Y-95520000D01*
X168060000Y-95520000D01*
X168063000Y-95520000D01*
X168065000Y-95520000D01*
X168068000Y-95521000D01*
G36*
X168068000Y-95521000D02*
G01*
X168070000Y-95521000D01*
X168073000Y-95522000D01*
X168075000Y-95522000D01*
X168078000Y-95523000D01*
X168080000Y-95524000D01*
X168083000Y-95525000D01*
X168085000Y-95527000D01*
X168087000Y-95528000D01*
X168089000Y-95530000D01*
X168091000Y-95531000D01*
X168093000Y-95533000D01*
X168095000Y-95535000D01*
X168097000Y-95537000D01*
X168099000Y-95539000D01*
X168100000Y-95541000D01*
X168102000Y-95543000D01*
X168103000Y-95545000D01*
X168105000Y-95547000D01*
X168106000Y-95550000D01*
X168107000Y-95552000D01*
X168108000Y-95555000D01*
X168108000Y-95557000D01*
X168109000Y-95560000D01*
X168109000Y-95562000D01*
X168110000Y-95565000D01*
X168110000Y-95567000D01*
X168110000Y-95570000D01*
X168110000Y-96290000D01*
X168056000Y-96399000D01*
X168054000Y-96402000D01*
X168051000Y-96409000D01*
X168048000Y-96416000D01*
X168044000Y-96423000D01*
X168042000Y-96430000D01*
X168039000Y-96437000D01*
X168036000Y-96444000D01*
X168033000Y-96451000D01*
X168031000Y-96458000D01*
X168028000Y-96465000D01*
X168026000Y-96472000D01*
X168024000Y-96479000D01*
X168022000Y-96487000D01*
X168020000Y-96494000D01*
X168018000Y-96501000D01*
X168017000Y-96509000D01*
X168015000Y-96516000D01*
X168014000Y-96523000D01*
X168012000Y-96531000D01*
X168011000Y-96538000D01*
X168010000Y-96546000D01*
X168009000Y-96553000D01*
X168008000Y-96561000D01*
X168007000Y-96568000D01*
X168006000Y-96576000D01*
X168006000Y-96583000D01*
X168006000Y-96591000D01*
X168005000Y-96598000D01*
X168005000Y-96606000D01*
X168005000Y-96613000D01*
X168005000Y-97387000D01*
X168005000Y-97394000D01*
X168005000Y-97402000D01*
X168006000Y-97409000D01*
X168006000Y-97417000D01*
X168006000Y-97424000D01*
X168007000Y-97432000D01*
X168008000Y-97439000D01*
X168009000Y-97447000D01*
X168010000Y-97454000D01*
X168011000Y-97462000D01*
X168012000Y-97469000D01*
X168014000Y-97477000D01*
X168015000Y-97484000D01*
X168017000Y-97491000D01*
X168018000Y-97499000D01*
X168020000Y-97506000D01*
X168022000Y-97513000D01*
X168024000Y-97521000D01*
X168026000Y-97528000D01*
X168028000Y-97535000D01*
X168031000Y-97542000D01*
X168033000Y-97549000D01*
X168036000Y-97556000D01*
X168039000Y-97563000D01*
X168042000Y-97570000D01*
X168044000Y-97577000D01*
X168048000Y-97584000D01*
X168051000Y-97591000D01*
X168054000Y-97598000D01*
X168056000Y-97601000D01*
X168110000Y-97710000D01*
X168110000Y-98430000D01*
X168110000Y-98433000D01*
X168110000Y-98435000D01*
X168109000Y-98438000D01*
X168109000Y-98440000D01*
X168108000Y-98443000D01*
X168108000Y-98445000D01*
X168107000Y-98448000D01*
X168106000Y-98450000D01*
X168105000Y-98453000D01*
X168103000Y-98455000D01*
X168102000Y-98457000D01*
X168100000Y-98459000D01*
X168099000Y-98461000D01*
X168097000Y-98463000D01*
X168095000Y-98465000D01*
X168093000Y-98467000D01*
X168091000Y-98469000D01*
X168089000Y-98470000D01*
X168087000Y-98472000D01*
X168085000Y-98473000D01*
X168083000Y-98475000D01*
X168080000Y-98476000D01*
X168078000Y-98477000D01*
X168075000Y-98478000D01*
X168073000Y-98478000D01*
X168070000Y-98479000D01*
X168068000Y-98479000D01*
X168065000Y-98480000D01*
X168063000Y-98480000D01*
X168060000Y-98480000D01*
X167160000Y-98480000D01*
X167157000Y-98480000D01*
X167155000Y-98480000D01*
X167152000Y-98479000D01*
X167150000Y-98479000D01*
X167147000Y-98478000D01*
X167145000Y-98478000D01*
X167142000Y-98477000D01*
X167140000Y-98476000D01*
X167137000Y-98475000D01*
X167135000Y-98473000D01*
X167133000Y-98472000D01*
X167131000Y-98470000D01*
X167129000Y-98469000D01*
X167127000Y-98467000D01*
X167125000Y-98465000D01*
X167123000Y-98463000D01*
X167121000Y-98461000D01*
X167120000Y-98459000D01*
X167118000Y-98457000D01*
X167117000Y-98455000D01*
X167115000Y-98453000D01*
X167114000Y-98450000D01*
X167113000Y-98448000D01*
X167112000Y-98445000D01*
X167112000Y-98443000D01*
X167111000Y-98440000D01*
X167111000Y-98438000D01*
X167110000Y-98435000D01*
X167110000Y-98433000D01*
X167110000Y-98430000D01*
X167110000Y-97710000D01*
X167164000Y-97601000D01*
X167166000Y-97598000D01*
X167169000Y-97591000D01*
X167172000Y-97584000D01*
X167176000Y-97577000D01*
X167178000Y-97570000D01*
X167181000Y-97563000D01*
X167184000Y-97556000D01*
X167187000Y-97549000D01*
X167189000Y-97542000D01*
X167192000Y-97535000D01*
X167194000Y-97528000D01*
X167196000Y-97521000D01*
X167198000Y-97513000D01*
X167200000Y-97506000D01*
X167202000Y-97499000D01*
X167203000Y-97491000D01*
X167205000Y-97484000D01*
X167206000Y-97477000D01*
X167208000Y-97469000D01*
X167209000Y-97462000D01*
X167210000Y-97454000D01*
X167211000Y-97447000D01*
X167212000Y-97439000D01*
X167213000Y-97432000D01*
X167214000Y-97424000D01*
X167214000Y-97417000D01*
X167214000Y-97409000D01*
X167215000Y-97402000D01*
X167215000Y-97394000D01*
X167215000Y-97387000D01*
X167215000Y-96613000D01*
X167215000Y-96606000D01*
X167215000Y-96598000D01*
X167214000Y-96591000D01*
X167214000Y-96583000D01*
X167214000Y-96576000D01*
X167213000Y-96568000D01*
X167212000Y-96561000D01*
X167211000Y-96553000D01*
X167210000Y-96546000D01*
X167209000Y-96538000D01*
X167208000Y-96531000D01*
X167206000Y-96523000D01*
X167205000Y-96516000D01*
X167203000Y-96509000D01*
X167202000Y-96501000D01*
X167200000Y-96494000D01*
X167198000Y-96487000D01*
X167196000Y-96479000D01*
X167194000Y-96472000D01*
X167192000Y-96465000D01*
X167189000Y-96458000D01*
X167187000Y-96451000D01*
X167184000Y-96444000D01*
X167181000Y-96437000D01*
X167178000Y-96430000D01*
X167176000Y-96423000D01*
X167172000Y-96416000D01*
X167169000Y-96409000D01*
X167166000Y-96402000D01*
X167164000Y-96399000D01*
X167110000Y-96290000D01*
X167110000Y-95570000D01*
X167110000Y-95567000D01*
X167110000Y-95565000D01*
X167111000Y-95562000D01*
X167111000Y-95560000D01*
X167112000Y-95557000D01*
X167112000Y-95555000D01*
X167113000Y-95552000D01*
X167114000Y-95550000D01*
X167115000Y-95547000D01*
X167117000Y-95545000D01*
X167118000Y-95543000D01*
X167120000Y-95541000D01*
X167121000Y-95539000D01*
X167123000Y-95537000D01*
X167125000Y-95535000D01*
X167127000Y-95533000D01*
X167129000Y-95531000D01*
X167131000Y-95530000D01*
X167133000Y-95528000D01*
X167135000Y-95527000D01*
X167137000Y-95525000D01*
X167140000Y-95524000D01*
X167142000Y-95523000D01*
X167145000Y-95522000D01*
X167147000Y-95522000D01*
X167150000Y-95521000D01*
X167152000Y-95521000D01*
X167155000Y-95520000D01*
X167157000Y-95520000D01*
X167160000Y-95520000D01*
X168060000Y-95520000D01*
X168063000Y-95520000D01*
X168065000Y-95520000D01*
X168068000Y-95521000D01*
G37*
%TD*%
D11*
%TO.C,R4*%
X115450000Y-101600000D03*
X121550000Y-101600000D03*
%TD*%
D12*
%TO.C,R3*%
X140312500Y-103100000D03*
X138487500Y-103100000D03*
%TD*%
%TO.C,R2*%
X111712500Y-89900000D03*
X109887500Y-89900000D03*
%TD*%
%TO.C,R1*%
X116000000Y-89900000D03*
X114175000Y-89900000D03*
%TD*%
D13*
%TO.C,C2*%
X107287500Y-93450000D03*
X109012500Y-93450000D03*
%TD*%
D14*
%TO.C,D1*%
X125980000Y-89920000D03*
X125980000Y-85920000D03*
%TD*%
D15*
%TO.C,C1*%
X111000000Y-101600000D03*
X111000000Y-105200000D03*
%TD*%
D16*
%TO.C,U2*%
X116300000Y-94850000D03*
%TD*%
D17*
%TO.C,L1*%
X131175000Y-95000000D03*
X136825000Y-95000000D03*
%TD*%
D18*
%TO.C,Q1*%
X125125000Y-95950000D03*
X125125000Y-94050000D03*
X123250000Y-95000000D03*
%TD*%
D19*
%TO.C,C5*%
X143000000Y-95137500D03*
X143000000Y-90862500D03*
%TD*%
D20*
%TO.C,C3*%
X109250000Y-96887500D03*
X109250000Y-98612500D03*
%TD*%
D13*
%TO.C,C4*%
X119137500Y-90500000D03*
X120862500Y-90500000D03*
%TD*%
M02*
