%TF.GenerationSoftware,KiCad,Pcbnew,7.0.10-7.0.10~ubuntu20.04.1*%
%TF.CreationDate,2025-03-29T11:51:33+01:00*%
%TF.ProjectId,uven2-mk3-cc-driver,7576656e-322d-46d6-9b33-2d63632d6472,rev?*%
%TF.SameCoordinates,Original*%
%TF.FileFunction,Copper,L2,Bot*%
%TF.FilePolarity,Positive*%
%FSLAX46Y46*%
G04 Gerber Fmt 4.6, Leading zero omitted, Abs format (unit mm)*
G04 Created by KiCad (PCBNEW 7.0.10-7.0.10~ubuntu20.04.1) date 2025-03-29 11:51:33*
%MOMM*%
%LPD*%
G01*
G04 APERTURE LIST*
%TA.AperFunction,ComponentPad*%
%ADD10R,1.700000X1.700000*%
%TD*%
%TA.AperFunction,ComponentPad*%
%ADD11O,1.700000X1.700000*%
%TD*%
%TA.AperFunction,ComponentPad*%
%ADD12C,0.600000*%
%TD*%
%TA.AperFunction,ViaPad*%
%ADD13C,0.800000*%
%TD*%
%TA.AperFunction,Conductor*%
%ADD14C,0.300000*%
%TD*%
%TA.AperFunction,Conductor*%
%ADD15C,0.250000*%
%TD*%
G04 APERTURE END LIST*
D10*
%TO.P,J3,1,Pin_1*%
%TO.N,Net-(J3-Pin_1)*%
X153000000Y-97000000D03*
D11*
%TO.P,J3,2,Pin_2*%
%TO.N,Net-(J3-Pin_2)*%
X150460000Y-97000000D03*
%TD*%
D12*
%TO.P,U2,12*%
%TO.N,GND*%
X115850000Y-94250000D03*
%TO.P,U2,13*%
X116750000Y-94250000D03*
%TO.P,U2,14*%
X116300000Y-94850000D03*
%TO.P,U2,15*%
X115850000Y-95450000D03*
%TO.P,U2,16*%
X116750000Y-95450000D03*
%TD*%
D10*
%TO.P,J2,1,Pin_1*%
%TO.N,GND*%
X102475000Y-88000000D03*
D11*
%TO.P,J2,2,Pin_2*%
%TO.N,Net-(J2-Pin_2)*%
X102475000Y-85460000D03*
%TD*%
D10*
%TO.P,J1,1,Pin_1*%
%TO.N,VCC*%
X102475000Y-100775000D03*
D11*
%TO.P,J1,2,Pin_2*%
%TO.N,GND*%
X102475000Y-98235000D03*
%TO.P,J1,3,Pin_3*%
%TO.N,/ENABLE*%
X102475000Y-95695000D03*
%TD*%
D13*
%TO.N,GND*%
X114000000Y-98900000D03*
X111850000Y-98900000D03*
X112900000Y-98900000D03*
%TO.N,VCC*%
X119137500Y-93000000D03*
X120500000Y-94500000D03*
X115500000Y-99500000D03*
%TO.N,GND*%
X112400000Y-98000000D03*
X115000000Y-97100000D03*
X113450000Y-98000000D03*
X114500000Y-98000000D03*
X113000000Y-97100000D03*
X114000000Y-97100000D03*
%TO.N,Net-(U2-COFF)*%
X125400000Y-103100000D03*
X107700000Y-96900000D03*
%TO.N,Net-(Q1-G)*%
X125000000Y-97000000D03*
X118500000Y-97000000D03*
%TD*%
D14*
%TO.N,VCC*%
X120500000Y-94500000D02*
X119250000Y-94500000D01*
X119250000Y-94500000D02*
X115500000Y-98250000D01*
X115500000Y-98250000D02*
X115500000Y-99500000D01*
X119137500Y-93137500D02*
X120500000Y-94500000D01*
X119137500Y-93000000D02*
X119137500Y-93137500D01*
%TO.N,Net-(U2-COFF)*%
X107700000Y-101200000D02*
X109600000Y-103100000D01*
X109600000Y-103100000D02*
X125400000Y-103100000D01*
X107700000Y-96900000D02*
X107700000Y-101200000D01*
D15*
%TO.N,Net-(Q1-G)*%
X125000000Y-97000000D02*
X118500000Y-97000000D01*
%TD*%
%TA.AperFunction,Conductor*%
%TO.N,GND*%
G36*
X179942539Y-81020185D02*
G01*
X179988294Y-81072989D01*
X179999500Y-81124500D01*
X179999500Y-112875500D01*
X179979815Y-112942539D01*
X179927011Y-112988294D01*
X179875500Y-112999500D01*
X100124500Y-112999500D01*
X100057461Y-112979815D01*
X100011706Y-112927011D01*
X100000500Y-112875500D01*
X100000500Y-110000000D01*
X101644341Y-110000000D01*
X101664936Y-110235403D01*
X101664938Y-110235413D01*
X101726094Y-110463655D01*
X101726096Y-110463659D01*
X101726097Y-110463663D01*
X101776031Y-110570746D01*
X101825964Y-110677828D01*
X101825965Y-110677830D01*
X101961505Y-110871402D01*
X102128597Y-111038494D01*
X102322169Y-111174034D01*
X102322171Y-111174035D01*
X102536337Y-111273903D01*
X102764592Y-111335063D01*
X102941032Y-111350499D01*
X102941033Y-111350500D01*
X102941034Y-111350500D01*
X103058967Y-111350500D01*
X103058967Y-111350499D01*
X103235408Y-111335063D01*
X103463663Y-111273903D01*
X103677829Y-111174035D01*
X103871401Y-111038495D01*
X104038495Y-110871401D01*
X104174035Y-110677830D01*
X104273903Y-110463663D01*
X104335063Y-110235408D01*
X104355659Y-110000000D01*
X156644341Y-110000000D01*
X156664936Y-110235403D01*
X156664938Y-110235413D01*
X156726094Y-110463655D01*
X156726096Y-110463659D01*
X156726097Y-110463663D01*
X156776031Y-110570746D01*
X156825964Y-110677828D01*
X156825965Y-110677830D01*
X156961505Y-110871402D01*
X157128597Y-111038494D01*
X157322169Y-111174034D01*
X157322171Y-111174035D01*
X157536337Y-111273903D01*
X157764592Y-111335063D01*
X157941032Y-111350499D01*
X157941033Y-111350500D01*
X157941034Y-111350500D01*
X158058967Y-111350500D01*
X158058967Y-111350499D01*
X158235408Y-111335063D01*
X158463663Y-111273903D01*
X158677829Y-111174035D01*
X158871401Y-111038495D01*
X159038495Y-110871401D01*
X159174035Y-110677830D01*
X159273903Y-110463663D01*
X159335063Y-110235408D01*
X159355659Y-110000000D01*
X175644341Y-110000000D01*
X175664936Y-110235403D01*
X175664938Y-110235413D01*
X175726094Y-110463655D01*
X175726096Y-110463659D01*
X175726097Y-110463663D01*
X175776031Y-110570746D01*
X175825964Y-110677828D01*
X175825965Y-110677830D01*
X175961505Y-110871402D01*
X176128597Y-111038494D01*
X176322169Y-111174034D01*
X176322171Y-111174035D01*
X176536337Y-111273903D01*
X176764592Y-111335063D01*
X176941032Y-111350499D01*
X176941033Y-111350500D01*
X176941034Y-111350500D01*
X177058967Y-111350500D01*
X177058967Y-111350499D01*
X177235408Y-111335063D01*
X177463663Y-111273903D01*
X177677829Y-111174035D01*
X177871401Y-111038495D01*
X178038495Y-110871401D01*
X178174035Y-110677830D01*
X178273903Y-110463663D01*
X178335063Y-110235408D01*
X178355659Y-110000000D01*
X178335063Y-109764592D01*
X178273903Y-109536337D01*
X178174035Y-109322171D01*
X178174034Y-109322169D01*
X178038494Y-109128597D01*
X177871402Y-108961505D01*
X177677830Y-108825965D01*
X177677828Y-108825964D01*
X177570746Y-108776031D01*
X177463663Y-108726097D01*
X177463659Y-108726096D01*
X177463655Y-108726094D01*
X177235413Y-108664938D01*
X177235403Y-108664936D01*
X177058967Y-108649500D01*
X177058966Y-108649500D01*
X176941034Y-108649500D01*
X176941033Y-108649500D01*
X176764596Y-108664936D01*
X176764586Y-108664938D01*
X176536344Y-108726094D01*
X176536335Y-108726098D01*
X176322171Y-108825964D01*
X176322169Y-108825965D01*
X176128597Y-108961505D01*
X175961506Y-109128597D01*
X175961501Y-109128604D01*
X175825967Y-109322165D01*
X175825965Y-109322169D01*
X175726098Y-109536335D01*
X175726094Y-109536344D01*
X175664938Y-109764586D01*
X175664936Y-109764596D01*
X175644341Y-109999999D01*
X175644341Y-110000000D01*
X159355659Y-110000000D01*
X159335063Y-109764592D01*
X159273903Y-109536337D01*
X159174035Y-109322171D01*
X159174034Y-109322169D01*
X159038494Y-109128597D01*
X158871402Y-108961505D01*
X158677830Y-108825965D01*
X158677828Y-108825964D01*
X158570746Y-108776031D01*
X158463663Y-108726097D01*
X158463659Y-108726096D01*
X158463655Y-108726094D01*
X158235413Y-108664938D01*
X158235403Y-108664936D01*
X158058967Y-108649500D01*
X158058966Y-108649500D01*
X157941034Y-108649500D01*
X157941033Y-108649500D01*
X157764596Y-108664936D01*
X157764586Y-108664938D01*
X157536344Y-108726094D01*
X157536335Y-108726098D01*
X157322171Y-108825964D01*
X157322169Y-108825965D01*
X157128597Y-108961505D01*
X156961506Y-109128597D01*
X156961501Y-109128604D01*
X156825967Y-109322165D01*
X156825965Y-109322169D01*
X156726098Y-109536335D01*
X156726094Y-109536344D01*
X156664938Y-109764586D01*
X156664936Y-109764596D01*
X156644341Y-109999999D01*
X156644341Y-110000000D01*
X104355659Y-110000000D01*
X104335063Y-109764592D01*
X104273903Y-109536337D01*
X104174035Y-109322171D01*
X104174034Y-109322169D01*
X104038494Y-109128597D01*
X103871402Y-108961505D01*
X103677830Y-108825965D01*
X103677828Y-108825964D01*
X103570746Y-108776031D01*
X103463663Y-108726097D01*
X103463659Y-108726096D01*
X103463655Y-108726094D01*
X103235413Y-108664938D01*
X103235403Y-108664936D01*
X103058967Y-108649500D01*
X103058966Y-108649500D01*
X102941034Y-108649500D01*
X102941033Y-108649500D01*
X102764596Y-108664936D01*
X102764586Y-108664938D01*
X102536344Y-108726094D01*
X102536335Y-108726098D01*
X102322171Y-108825964D01*
X102322169Y-108825965D01*
X102128597Y-108961505D01*
X101961506Y-109128597D01*
X101961501Y-109128604D01*
X101825967Y-109322165D01*
X101825965Y-109322169D01*
X101726098Y-109536335D01*
X101726094Y-109536344D01*
X101664938Y-109764586D01*
X101664936Y-109764596D01*
X101644341Y-109999999D01*
X101644341Y-110000000D01*
X100000500Y-110000000D01*
X100000500Y-95695000D01*
X101119341Y-95695000D01*
X101139936Y-95930403D01*
X101139938Y-95930413D01*
X101201094Y-96158655D01*
X101201096Y-96158659D01*
X101201097Y-96158663D01*
X101236637Y-96234878D01*
X101300965Y-96372830D01*
X101300967Y-96372834D01*
X101367453Y-96467785D01*
X101412222Y-96531722D01*
X101436501Y-96566395D01*
X101436506Y-96566402D01*
X101603597Y-96733493D01*
X101603603Y-96733498D01*
X101789594Y-96863730D01*
X101833219Y-96918307D01*
X101840413Y-96987805D01*
X101808890Y-97050160D01*
X101789595Y-97066880D01*
X101603922Y-97196890D01*
X101603920Y-97196891D01*
X101436891Y-97363920D01*
X101436886Y-97363926D01*
X101301400Y-97557420D01*
X101301399Y-97557422D01*
X101201570Y-97771507D01*
X101201567Y-97771513D01*
X101144364Y-97984999D01*
X101144364Y-97985000D01*
X102041314Y-97985000D01*
X102015507Y-98025156D01*
X101975000Y-98163111D01*
X101975000Y-98306889D01*
X102015507Y-98444844D01*
X102041314Y-98485000D01*
X101144364Y-98485000D01*
X101201567Y-98698486D01*
X101201570Y-98698492D01*
X101301399Y-98912578D01*
X101436894Y-99106082D01*
X101558946Y-99228134D01*
X101592431Y-99289457D01*
X101587447Y-99359149D01*
X101545575Y-99415082D01*
X101514598Y-99431997D01*
X101382671Y-99481202D01*
X101382664Y-99481206D01*
X101267455Y-99567452D01*
X101267452Y-99567455D01*
X101181206Y-99682664D01*
X101181202Y-99682671D01*
X101130908Y-99817517D01*
X101124501Y-99877116D01*
X101124501Y-99877123D01*
X101124500Y-99877135D01*
X101124500Y-101672870D01*
X101124501Y-101672876D01*
X101130908Y-101732483D01*
X101181202Y-101867328D01*
X101181206Y-101867335D01*
X101267452Y-101982544D01*
X101267455Y-101982547D01*
X101382664Y-102068793D01*
X101382671Y-102068797D01*
X101517517Y-102119091D01*
X101517516Y-102119091D01*
X101524444Y-102119835D01*
X101577127Y-102125500D01*
X103372872Y-102125499D01*
X103432483Y-102119091D01*
X103567331Y-102068796D01*
X103682546Y-101982546D01*
X103768796Y-101867331D01*
X103819091Y-101732483D01*
X103825500Y-101672873D01*
X103825499Y-99877128D01*
X103819091Y-99817517D01*
X103768796Y-99682669D01*
X103768795Y-99682668D01*
X103768793Y-99682664D01*
X103682547Y-99567455D01*
X103682544Y-99567452D01*
X103567335Y-99481206D01*
X103567328Y-99481202D01*
X103435401Y-99431997D01*
X103379467Y-99390126D01*
X103355050Y-99324662D01*
X103369902Y-99256389D01*
X103391053Y-99228133D01*
X103513108Y-99106078D01*
X103648600Y-98912578D01*
X103748429Y-98698492D01*
X103748432Y-98698486D01*
X103805636Y-98485000D01*
X102908686Y-98485000D01*
X102934493Y-98444844D01*
X102975000Y-98306889D01*
X102975000Y-98163111D01*
X102934493Y-98025156D01*
X102908686Y-97985000D01*
X103805636Y-97985000D01*
X103805635Y-97984999D01*
X103748432Y-97771513D01*
X103748429Y-97771507D01*
X103648600Y-97557422D01*
X103648599Y-97557420D01*
X103513113Y-97363926D01*
X103513108Y-97363920D01*
X103346078Y-97196890D01*
X103160405Y-97066879D01*
X103116780Y-97012302D01*
X103109588Y-96942804D01*
X103131226Y-96900000D01*
X106794540Y-96900000D01*
X106814326Y-97088256D01*
X106814327Y-97088259D01*
X106872818Y-97268277D01*
X106872821Y-97268284D01*
X106967466Y-97432215D01*
X107017649Y-97487948D01*
X107047880Y-97550940D01*
X107049500Y-97570921D01*
X107049500Y-101114494D01*
X107047732Y-101130505D01*
X107047974Y-101130528D01*
X107047240Y-101138294D01*
X107049439Y-101208262D01*
X107049500Y-101212157D01*
X107049500Y-101240920D01*
X107049501Y-101240938D01*
X107050053Y-101245311D01*
X107050968Y-101256941D01*
X107052402Y-101302567D01*
X107052403Y-101302570D01*
X107058323Y-101322948D01*
X107062268Y-101341996D01*
X107064928Y-101363054D01*
X107064931Y-101363065D01*
X107081737Y-101405514D01*
X107085520Y-101416563D01*
X107098254Y-101460395D01*
X107098255Y-101460397D01*
X107109060Y-101478666D01*
X107117617Y-101496134D01*
X107123226Y-101510300D01*
X107125432Y-101515872D01*
X107152266Y-101552806D01*
X107158678Y-101562568D01*
X107181919Y-101601865D01*
X107181923Y-101601869D01*
X107196925Y-101616871D01*
X107209563Y-101631669D01*
X107222033Y-101648833D01*
X107222036Y-101648837D01*
X107257213Y-101677937D01*
X107265854Y-101685800D01*
X109079564Y-103499509D01*
X109089640Y-103512086D01*
X109089827Y-103511932D01*
X109094794Y-103517937D01*
X109145847Y-103565878D01*
X109148647Y-103568592D01*
X109168962Y-103588908D01*
X109172439Y-103591605D01*
X109181320Y-103599190D01*
X109214607Y-103630448D01*
X109217823Y-103632216D01*
X109233207Y-103640674D01*
X109249468Y-103651355D01*
X109266237Y-103664363D01*
X109308144Y-103682497D01*
X109318618Y-103687628D01*
X109358632Y-103709627D01*
X109379193Y-103714905D01*
X109397597Y-103721207D01*
X109417074Y-103729636D01*
X109462178Y-103736779D01*
X109473597Y-103739144D01*
X109517823Y-103750500D01*
X109539045Y-103750500D01*
X109558442Y-103752026D01*
X109579405Y-103755347D01*
X109624860Y-103751050D01*
X109636530Y-103750500D01*
X124723025Y-103750500D01*
X124790064Y-103770185D01*
X124795910Y-103774182D01*
X124947265Y-103884148D01*
X124947270Y-103884151D01*
X125120192Y-103961142D01*
X125120197Y-103961144D01*
X125305354Y-104000500D01*
X125305355Y-104000500D01*
X125494644Y-104000500D01*
X125494646Y-104000500D01*
X125679803Y-103961144D01*
X125852730Y-103884151D01*
X126005871Y-103772888D01*
X126132533Y-103632216D01*
X126227179Y-103468284D01*
X126285674Y-103288256D01*
X126305460Y-103100000D01*
X126285674Y-102911744D01*
X126227179Y-102731716D01*
X126132533Y-102567784D01*
X126005871Y-102427112D01*
X125986697Y-102413181D01*
X125852734Y-102315851D01*
X125852729Y-102315848D01*
X125679807Y-102238857D01*
X125679802Y-102238855D01*
X125534001Y-102207865D01*
X125494646Y-102199500D01*
X125305354Y-102199500D01*
X125272897Y-102206398D01*
X125120197Y-102238855D01*
X125120192Y-102238857D01*
X124947270Y-102315848D01*
X124947265Y-102315851D01*
X124795910Y-102425818D01*
X124730104Y-102449298D01*
X124723025Y-102449500D01*
X109920808Y-102449500D01*
X109853769Y-102429815D01*
X109833127Y-102413181D01*
X108386819Y-100966873D01*
X108353334Y-100905550D01*
X108350500Y-100879192D01*
X108350500Y-99500000D01*
X114594540Y-99500000D01*
X114614326Y-99688256D01*
X114614327Y-99688259D01*
X114672818Y-99868277D01*
X114672821Y-99868284D01*
X114767467Y-100032216D01*
X114894129Y-100172888D01*
X115047265Y-100284148D01*
X115047270Y-100284151D01*
X115220192Y-100361142D01*
X115220197Y-100361144D01*
X115405354Y-100400500D01*
X115405355Y-100400500D01*
X115594644Y-100400500D01*
X115594646Y-100400500D01*
X115779803Y-100361144D01*
X115952730Y-100284151D01*
X116105871Y-100172888D01*
X116232533Y-100032216D01*
X116327179Y-99868284D01*
X116385674Y-99688256D01*
X116405460Y-99500000D01*
X116385674Y-99311744D01*
X116327179Y-99131716D01*
X116232533Y-98967784D01*
X116182350Y-98912050D01*
X116152120Y-98849058D01*
X116150500Y-98829078D01*
X116150500Y-98570807D01*
X116170185Y-98503768D01*
X116186814Y-98483131D01*
X117438717Y-97231227D01*
X117500038Y-97197744D01*
X117569730Y-97202728D01*
X117625663Y-97244600D01*
X117644327Y-97280591D01*
X117672819Y-97368280D01*
X117672821Y-97368284D01*
X117767467Y-97532216D01*
X117868715Y-97644663D01*
X117894129Y-97672888D01*
X118047265Y-97784148D01*
X118047270Y-97784151D01*
X118220192Y-97861142D01*
X118220197Y-97861144D01*
X118405354Y-97900500D01*
X118405355Y-97900500D01*
X118594644Y-97900500D01*
X118594646Y-97900500D01*
X118779803Y-97861144D01*
X118952730Y-97784151D01*
X119105871Y-97672888D01*
X119108788Y-97669647D01*
X119111600Y-97666526D01*
X119171087Y-97629879D01*
X119203748Y-97625500D01*
X124296252Y-97625500D01*
X124363291Y-97645185D01*
X124388400Y-97666526D01*
X124394126Y-97672885D01*
X124394130Y-97672889D01*
X124547265Y-97784148D01*
X124547270Y-97784151D01*
X124720192Y-97861142D01*
X124720197Y-97861144D01*
X124905354Y-97900500D01*
X124905355Y-97900500D01*
X125094644Y-97900500D01*
X125094646Y-97900500D01*
X125279803Y-97861144D01*
X125452730Y-97784151D01*
X125605871Y-97672888D01*
X125732533Y-97532216D01*
X125827179Y-97368284D01*
X125885674Y-97188256D01*
X125905460Y-97000000D01*
X149104341Y-97000000D01*
X149124936Y-97235403D01*
X149124938Y-97235413D01*
X149186094Y-97463655D01*
X149186096Y-97463659D01*
X149186097Y-97463663D01*
X149261563Y-97625500D01*
X149285965Y-97677830D01*
X149285967Y-97677834D01*
X149378545Y-97810048D01*
X149421505Y-97871401D01*
X149588599Y-98038495D01*
X149685384Y-98106265D01*
X149782165Y-98174032D01*
X149782167Y-98174033D01*
X149782170Y-98174035D01*
X149996337Y-98273903D01*
X150224592Y-98335063D01*
X150401034Y-98350500D01*
X150459999Y-98355659D01*
X150460000Y-98355659D01*
X150460001Y-98355659D01*
X150518966Y-98350500D01*
X150695408Y-98335063D01*
X150923663Y-98273903D01*
X151137830Y-98174035D01*
X151331401Y-98038495D01*
X151453329Y-97916566D01*
X151514648Y-97883084D01*
X151584340Y-97888068D01*
X151640274Y-97929939D01*
X151657189Y-97960917D01*
X151706202Y-98092328D01*
X151706206Y-98092335D01*
X151792452Y-98207544D01*
X151792455Y-98207547D01*
X151907664Y-98293793D01*
X151907671Y-98293797D01*
X152042517Y-98344091D01*
X152042516Y-98344091D01*
X152049444Y-98344835D01*
X152102127Y-98350500D01*
X153897872Y-98350499D01*
X153957483Y-98344091D01*
X154092331Y-98293796D01*
X154207546Y-98207546D01*
X154293796Y-98092331D01*
X154344091Y-97957483D01*
X154350500Y-97897873D01*
X154350499Y-96102128D01*
X154344091Y-96042517D01*
X154342810Y-96039083D01*
X154293797Y-95907671D01*
X154293793Y-95907664D01*
X154207547Y-95792455D01*
X154207544Y-95792452D01*
X154092335Y-95706206D01*
X154092328Y-95706202D01*
X153957482Y-95655908D01*
X153957483Y-95655908D01*
X153897883Y-95649501D01*
X153897881Y-95649500D01*
X153897873Y-95649500D01*
X153897864Y-95649500D01*
X152102129Y-95649500D01*
X152102123Y-95649501D01*
X152042516Y-95655908D01*
X151907671Y-95706202D01*
X151907664Y-95706206D01*
X151792455Y-95792452D01*
X151792452Y-95792455D01*
X151706206Y-95907664D01*
X151706203Y-95907669D01*
X151657189Y-96039083D01*
X151615317Y-96095016D01*
X151549853Y-96119433D01*
X151481580Y-96104581D01*
X151453326Y-96083430D01*
X151331402Y-95961506D01*
X151331395Y-95961501D01*
X151137834Y-95825967D01*
X151137830Y-95825965D01*
X151080655Y-95799304D01*
X150923663Y-95726097D01*
X150923659Y-95726096D01*
X150923655Y-95726094D01*
X150695413Y-95664938D01*
X150695403Y-95664936D01*
X150460001Y-95644341D01*
X150459999Y-95644341D01*
X150224596Y-95664936D01*
X150224586Y-95664938D01*
X149996344Y-95726094D01*
X149996335Y-95726098D01*
X149782171Y-95825964D01*
X149782169Y-95825965D01*
X149588597Y-95961505D01*
X149421505Y-96128597D01*
X149285965Y-96322169D01*
X149285964Y-96322171D01*
X149186098Y-96536335D01*
X149186094Y-96536344D01*
X149124938Y-96764586D01*
X149124936Y-96764596D01*
X149104341Y-96999999D01*
X149104341Y-97000000D01*
X125905460Y-97000000D01*
X125885674Y-96811744D01*
X125827179Y-96631716D01*
X125732533Y-96467784D01*
X125605871Y-96327112D01*
X125605870Y-96327111D01*
X125452734Y-96215851D01*
X125452729Y-96215848D01*
X125279807Y-96138857D01*
X125279802Y-96138855D01*
X125118550Y-96104581D01*
X125094646Y-96099500D01*
X124905354Y-96099500D01*
X124881450Y-96104581D01*
X124720197Y-96138855D01*
X124720192Y-96138857D01*
X124547270Y-96215848D01*
X124547265Y-96215851D01*
X124394130Y-96327110D01*
X124394126Y-96327114D01*
X124388400Y-96333474D01*
X124328913Y-96370121D01*
X124296252Y-96374500D01*
X119203748Y-96374500D01*
X119136709Y-96354815D01*
X119111600Y-96333474D01*
X119105873Y-96327114D01*
X119105869Y-96327110D01*
X118952734Y-96215851D01*
X118952729Y-96215848D01*
X118773866Y-96136212D01*
X118774926Y-96133829D01*
X118726842Y-96100939D01*
X118699653Y-96036576D01*
X118711578Y-95967732D01*
X118735163Y-95934782D01*
X119483127Y-95186819D01*
X119544450Y-95153334D01*
X119570808Y-95150500D01*
X119823025Y-95150500D01*
X119890064Y-95170185D01*
X119895910Y-95174182D01*
X120047265Y-95284148D01*
X120047270Y-95284151D01*
X120220192Y-95361142D01*
X120220197Y-95361144D01*
X120405354Y-95400500D01*
X120405355Y-95400500D01*
X120594644Y-95400500D01*
X120594646Y-95400500D01*
X120779803Y-95361144D01*
X120952730Y-95284151D01*
X121105871Y-95172888D01*
X121232533Y-95032216D01*
X121327179Y-94868284D01*
X121385674Y-94688256D01*
X121405460Y-94500000D01*
X121385674Y-94311744D01*
X121327179Y-94131716D01*
X121232533Y-93967784D01*
X121105871Y-93827112D01*
X121095950Y-93819904D01*
X120952734Y-93715851D01*
X120952729Y-93715848D01*
X120779807Y-93638857D01*
X120779802Y-93638855D01*
X120634001Y-93607865D01*
X120594646Y-93599500D01*
X120594645Y-93599500D01*
X120570808Y-93599500D01*
X120503769Y-93579815D01*
X120483127Y-93563181D01*
X120073082Y-93153136D01*
X120039597Y-93091813D01*
X120037442Y-93052496D01*
X120042960Y-93000000D01*
X120023174Y-92811744D01*
X119964679Y-92631716D01*
X119870033Y-92467784D01*
X119743371Y-92327112D01*
X119743370Y-92327111D01*
X119590234Y-92215851D01*
X119590229Y-92215848D01*
X119417307Y-92138857D01*
X119417302Y-92138855D01*
X119271501Y-92107865D01*
X119232146Y-92099500D01*
X119042854Y-92099500D01*
X119010397Y-92106398D01*
X118857697Y-92138855D01*
X118857692Y-92138857D01*
X118684770Y-92215848D01*
X118684765Y-92215851D01*
X118531629Y-92327111D01*
X118404966Y-92467785D01*
X118310321Y-92631715D01*
X118310318Y-92631722D01*
X118251827Y-92811740D01*
X118251826Y-92811744D01*
X118232040Y-93000000D01*
X118251826Y-93188256D01*
X118251827Y-93188259D01*
X118310318Y-93368277D01*
X118310321Y-93368284D01*
X118404967Y-93532216D01*
X118500987Y-93638857D01*
X118531629Y-93672888D01*
X118684765Y-93784148D01*
X118684767Y-93784149D01*
X118684770Y-93784151D01*
X118765076Y-93819906D01*
X118818312Y-93865155D01*
X118838633Y-93932004D01*
X118819588Y-93999227D01*
X118805902Y-94015837D01*
X118806134Y-94016029D01*
X118772056Y-94057219D01*
X118764196Y-94065856D01*
X117680724Y-95149327D01*
X117619401Y-95182812D01*
X117549709Y-95177828D01*
X117493776Y-95135956D01*
X117476000Y-95102598D01*
X117475332Y-95100691D01*
X117466661Y-95086892D01*
X117466660Y-95086892D01*
X116750000Y-95803553D01*
X116387680Y-96165872D01*
X116386586Y-96166469D01*
X116400692Y-96175333D01*
X116402598Y-96176000D01*
X116403663Y-96176764D01*
X116406969Y-96178356D01*
X116406690Y-96178934D01*
X116459375Y-96216721D01*
X116485124Y-96281673D01*
X116471669Y-96350235D01*
X116449327Y-96380724D01*
X115100483Y-97729569D01*
X115087910Y-97739643D01*
X115088065Y-97739830D01*
X115082058Y-97744799D01*
X115034133Y-97795833D01*
X115031427Y-97798625D01*
X115011090Y-97818963D01*
X115011077Y-97818978D01*
X115008373Y-97822463D01*
X115000806Y-97831322D01*
X114969552Y-97864607D01*
X114959322Y-97883213D01*
X114948646Y-97899464D01*
X114935640Y-97916232D01*
X114935636Y-97916238D01*
X114917508Y-97958130D01*
X114912369Y-97968619D01*
X114890372Y-98008630D01*
X114890372Y-98008631D01*
X114885091Y-98029199D01*
X114878791Y-98047601D01*
X114870364Y-98067073D01*
X114863223Y-98112162D01*
X114860854Y-98123600D01*
X114849500Y-98167817D01*
X114849500Y-98189044D01*
X114847973Y-98208443D01*
X114844653Y-98229405D01*
X114848860Y-98273903D01*
X114848950Y-98274858D01*
X114849500Y-98286528D01*
X114849500Y-98829078D01*
X114829815Y-98896117D01*
X114817650Y-98912050D01*
X114767466Y-98967785D01*
X114672821Y-99131715D01*
X114672818Y-99131722D01*
X114614327Y-99311740D01*
X114614326Y-99311744D01*
X114594540Y-99500000D01*
X108350500Y-99500000D01*
X108350500Y-97570921D01*
X108370185Y-97503882D01*
X108382351Y-97487948D01*
X108432533Y-97432216D01*
X108527179Y-97268284D01*
X108585674Y-97088256D01*
X108605460Y-96900000D01*
X108585674Y-96711744D01*
X108527179Y-96531716D01*
X108432533Y-96367784D01*
X108305871Y-96227112D01*
X108290369Y-96215849D01*
X108222668Y-96166661D01*
X115486892Y-96166661D01*
X115500692Y-96175333D01*
X115500691Y-96175333D01*
X115670861Y-96234878D01*
X115849997Y-96255062D01*
X115850003Y-96255062D01*
X116029138Y-96234878D01*
X116029141Y-96234877D01*
X116199303Y-96175335D01*
X116213328Y-96166521D01*
X116212318Y-96165872D01*
X115850001Y-95803553D01*
X115850000Y-95803553D01*
X115486892Y-96166660D01*
X115486892Y-96166661D01*
X108222668Y-96166661D01*
X108152734Y-96115851D01*
X108152729Y-96115848D01*
X107979807Y-96038857D01*
X107979802Y-96038855D01*
X107834001Y-96007865D01*
X107794646Y-95999500D01*
X107605354Y-95999500D01*
X107572897Y-96006398D01*
X107420197Y-96038855D01*
X107420192Y-96038857D01*
X107247270Y-96115848D01*
X107247265Y-96115851D01*
X107094129Y-96227111D01*
X106967466Y-96367785D01*
X106872821Y-96531715D01*
X106872818Y-96531722D01*
X106814327Y-96711740D01*
X106814326Y-96711744D01*
X106794540Y-96900000D01*
X103131226Y-96900000D01*
X103141110Y-96880449D01*
X103160406Y-96863730D01*
X103346401Y-96733495D01*
X103513495Y-96566401D01*
X103649035Y-96372830D01*
X103748903Y-96158663D01*
X103810063Y-95930408D01*
X103830659Y-95695000D01*
X103810063Y-95459592D01*
X103807493Y-95450002D01*
X115044938Y-95450002D01*
X115065121Y-95629138D01*
X115124665Y-95799304D01*
X115133338Y-95813107D01*
X115496446Y-95450000D01*
X115694709Y-95450000D01*
X115715514Y-95527645D01*
X115772355Y-95584486D01*
X115830254Y-95600000D01*
X115869746Y-95600000D01*
X115927645Y-95584486D01*
X115984486Y-95527646D01*
X116005291Y-95450000D01*
X116005291Y-95449999D01*
X116203553Y-95449999D01*
X116300000Y-95546446D01*
X116396446Y-95450001D01*
X116396446Y-95450000D01*
X116594709Y-95450000D01*
X116615514Y-95527645D01*
X116672355Y-95584486D01*
X116730254Y-95600000D01*
X116769746Y-95600000D01*
X116827645Y-95584486D01*
X116884486Y-95527646D01*
X116905291Y-95450000D01*
X116884486Y-95372355D01*
X116827645Y-95315514D01*
X116769746Y-95300000D01*
X116730254Y-95300000D01*
X116672355Y-95315514D01*
X116615514Y-95372354D01*
X116594709Y-95450000D01*
X116396446Y-95450000D01*
X116300000Y-95353553D01*
X116203553Y-95449999D01*
X116005291Y-95449999D01*
X115984486Y-95372355D01*
X115927645Y-95315514D01*
X115869746Y-95300000D01*
X115830254Y-95300000D01*
X115772355Y-95315514D01*
X115715514Y-95372354D01*
X115694709Y-95450000D01*
X115496446Y-95450000D01*
X115496446Y-95449999D01*
X115133338Y-95086891D01*
X115133337Y-95086891D01*
X115124667Y-95100691D01*
X115124662Y-95100701D01*
X115065122Y-95270858D01*
X115065121Y-95270861D01*
X115044938Y-95449997D01*
X115044938Y-95450002D01*
X103807493Y-95450002D01*
X103759493Y-95270861D01*
X103748905Y-95231344D01*
X103748904Y-95231343D01*
X103748903Y-95231337D01*
X103649035Y-95017171D01*
X103586350Y-94927646D01*
X103531982Y-94850001D01*
X115603553Y-94850001D01*
X115774998Y-95021446D01*
X115946444Y-94850000D01*
X116144709Y-94850000D01*
X116165514Y-94927645D01*
X116222355Y-94984486D01*
X116280254Y-95000000D01*
X116319746Y-95000000D01*
X116377645Y-94984486D01*
X116434486Y-94927646D01*
X116455291Y-94850000D01*
X116455291Y-94849999D01*
X116653553Y-94849999D01*
X116825000Y-95021446D01*
X116996446Y-94850001D01*
X116996446Y-94850000D01*
X116825000Y-94678553D01*
X116653553Y-94849999D01*
X116455291Y-94849999D01*
X116434486Y-94772355D01*
X116377645Y-94715514D01*
X116319746Y-94700000D01*
X116280254Y-94700000D01*
X116222355Y-94715514D01*
X116165514Y-94772354D01*
X116144709Y-94850000D01*
X115946444Y-94850000D01*
X115946445Y-94849999D01*
X115774999Y-94678553D01*
X115603553Y-94850000D01*
X115603553Y-94850001D01*
X103531982Y-94850001D01*
X103513494Y-94823597D01*
X103346402Y-94656506D01*
X103346395Y-94656501D01*
X103152834Y-94520967D01*
X103152830Y-94520965D01*
X103152828Y-94520964D01*
X102938663Y-94421097D01*
X102938659Y-94421096D01*
X102938655Y-94421094D01*
X102710413Y-94359938D01*
X102710403Y-94359936D01*
X102475001Y-94339341D01*
X102474999Y-94339341D01*
X102239596Y-94359936D01*
X102239586Y-94359938D01*
X102011344Y-94421094D01*
X102011335Y-94421098D01*
X101797171Y-94520964D01*
X101797169Y-94520965D01*
X101603597Y-94656505D01*
X101436505Y-94823597D01*
X101300965Y-95017169D01*
X101300964Y-95017171D01*
X101201098Y-95231335D01*
X101201094Y-95231344D01*
X101139938Y-95459586D01*
X101139936Y-95459596D01*
X101119341Y-95694999D01*
X101119341Y-95695000D01*
X100000500Y-95695000D01*
X100000500Y-94250002D01*
X115044938Y-94250002D01*
X115065121Y-94429138D01*
X115124665Y-94599304D01*
X115133338Y-94613107D01*
X115496446Y-94250000D01*
X115694709Y-94250000D01*
X115715514Y-94327645D01*
X115772355Y-94384486D01*
X115830254Y-94400000D01*
X115869746Y-94400000D01*
X115927645Y-94384486D01*
X115984486Y-94327646D01*
X116005291Y-94250000D01*
X116005291Y-94249999D01*
X116203553Y-94249999D01*
X116300000Y-94346446D01*
X116396446Y-94250001D01*
X116396446Y-94250000D01*
X116594709Y-94250000D01*
X116615514Y-94327645D01*
X116672355Y-94384486D01*
X116730254Y-94400000D01*
X116769746Y-94400000D01*
X116827645Y-94384486D01*
X116884486Y-94327646D01*
X116905291Y-94250000D01*
X117103552Y-94250000D01*
X117466660Y-94613106D01*
X117466661Y-94613106D01*
X117475334Y-94599306D01*
X117475334Y-94599305D01*
X117534877Y-94429141D01*
X117534878Y-94429138D01*
X117555062Y-94250002D01*
X117555062Y-94249997D01*
X117534878Y-94070861D01*
X117475333Y-93900692D01*
X117466661Y-93886892D01*
X117466660Y-93886892D01*
X117103552Y-94250000D01*
X116905291Y-94250000D01*
X116884486Y-94172355D01*
X116827645Y-94115514D01*
X116769746Y-94100000D01*
X116730254Y-94100000D01*
X116672355Y-94115514D01*
X116615514Y-94172354D01*
X116594709Y-94250000D01*
X116396446Y-94250000D01*
X116300000Y-94153553D01*
X116203553Y-94249999D01*
X116005291Y-94249999D01*
X115984486Y-94172355D01*
X115927645Y-94115514D01*
X115869746Y-94100000D01*
X115830254Y-94100000D01*
X115772355Y-94115514D01*
X115715514Y-94172354D01*
X115694709Y-94250000D01*
X115496446Y-94250000D01*
X115496446Y-94249999D01*
X115133338Y-93886891D01*
X115133337Y-93886891D01*
X115124667Y-93900691D01*
X115124662Y-93900701D01*
X115065122Y-94070858D01*
X115065121Y-94070861D01*
X115044938Y-94249997D01*
X115044938Y-94250002D01*
X100000500Y-94250002D01*
X100000500Y-93533338D01*
X115486891Y-93533338D01*
X115850000Y-93896446D01*
X115850001Y-93896446D01*
X116212318Y-93534127D01*
X116213411Y-93533529D01*
X116213328Y-93533477D01*
X116386670Y-93533477D01*
X116387680Y-93534127D01*
X116750000Y-93896446D01*
X116750001Y-93896446D01*
X117113107Y-93533338D01*
X117099304Y-93524665D01*
X116929138Y-93465121D01*
X116750003Y-93444938D01*
X116749997Y-93444938D01*
X116570861Y-93465121D01*
X116570858Y-93465122D01*
X116400701Y-93524662D01*
X116400700Y-93524663D01*
X116386670Y-93533477D01*
X116213328Y-93533477D01*
X116199304Y-93524665D01*
X116029138Y-93465121D01*
X115850003Y-93444938D01*
X115849997Y-93444938D01*
X115670861Y-93465121D01*
X115670858Y-93465122D01*
X115500701Y-93524662D01*
X115500691Y-93524667D01*
X115486891Y-93533337D01*
X115486891Y-93533338D01*
X100000500Y-93533338D01*
X100000500Y-85460000D01*
X101119341Y-85460000D01*
X101139936Y-85695403D01*
X101139938Y-85695413D01*
X101201094Y-85923655D01*
X101201096Y-85923659D01*
X101201097Y-85923663D01*
X101300965Y-86137830D01*
X101300967Y-86137834D01*
X101409281Y-86292521D01*
X101436501Y-86331396D01*
X101436506Y-86331402D01*
X101558818Y-86453714D01*
X101592303Y-86515037D01*
X101587319Y-86584729D01*
X101545447Y-86640662D01*
X101514471Y-86657577D01*
X101382912Y-86706646D01*
X101382906Y-86706649D01*
X101267812Y-86792809D01*
X101267809Y-86792812D01*
X101181649Y-86907906D01*
X101181645Y-86907913D01*
X101131403Y-87042620D01*
X101131401Y-87042627D01*
X101125000Y-87102155D01*
X101125000Y-87750000D01*
X102041314Y-87750000D01*
X102015507Y-87790156D01*
X101975000Y-87928111D01*
X101975000Y-88071889D01*
X102015507Y-88209844D01*
X102041314Y-88250000D01*
X101125000Y-88250000D01*
X101125000Y-88897844D01*
X101131401Y-88957372D01*
X101131403Y-88957379D01*
X101181645Y-89092086D01*
X101181649Y-89092093D01*
X101267809Y-89207187D01*
X101267812Y-89207190D01*
X101382906Y-89293350D01*
X101382913Y-89293354D01*
X101517620Y-89343596D01*
X101517627Y-89343598D01*
X101577155Y-89349999D01*
X101577172Y-89350000D01*
X102225000Y-89350000D01*
X102225000Y-88435501D01*
X102332685Y-88484680D01*
X102439237Y-88500000D01*
X102510763Y-88500000D01*
X102617315Y-88484680D01*
X102725000Y-88435501D01*
X102725000Y-89350000D01*
X103372828Y-89350000D01*
X103372844Y-89349999D01*
X103432372Y-89343598D01*
X103432379Y-89343596D01*
X103567086Y-89293354D01*
X103567093Y-89293350D01*
X103682187Y-89207190D01*
X103682190Y-89207187D01*
X103768350Y-89092093D01*
X103768354Y-89092086D01*
X103818596Y-88957379D01*
X103818598Y-88957372D01*
X103824999Y-88897844D01*
X103825000Y-88897827D01*
X103825000Y-88250000D01*
X102908686Y-88250000D01*
X102934493Y-88209844D01*
X102975000Y-88071889D01*
X102975000Y-87928111D01*
X102934493Y-87790156D01*
X102908686Y-87750000D01*
X103825000Y-87750000D01*
X103825000Y-87102172D01*
X103824999Y-87102155D01*
X103818598Y-87042627D01*
X103818596Y-87042620D01*
X103768354Y-86907913D01*
X103768350Y-86907906D01*
X103682190Y-86792812D01*
X103682187Y-86792809D01*
X103567093Y-86706649D01*
X103567088Y-86706646D01*
X103435528Y-86657577D01*
X103379595Y-86615705D01*
X103355178Y-86550241D01*
X103370030Y-86481968D01*
X103391175Y-86453720D01*
X103513495Y-86331401D01*
X103649035Y-86137830D01*
X103748903Y-85923663D01*
X103810063Y-85695408D01*
X103830659Y-85460000D01*
X103810063Y-85224592D01*
X103748903Y-84996337D01*
X103649035Y-84782171D01*
X103575975Y-84677829D01*
X103513494Y-84588597D01*
X103346402Y-84421506D01*
X103346395Y-84421501D01*
X103152834Y-84285967D01*
X103152830Y-84285965D01*
X103044410Y-84235408D01*
X102938663Y-84186097D01*
X102938659Y-84186096D01*
X102938655Y-84186094D01*
X102710413Y-84124938D01*
X102710403Y-84124936D01*
X102475001Y-84104341D01*
X102474999Y-84104341D01*
X102239596Y-84124936D01*
X102239586Y-84124938D01*
X102011344Y-84186094D01*
X102011335Y-84186098D01*
X101797171Y-84285964D01*
X101797169Y-84285965D01*
X101603597Y-84421505D01*
X101436505Y-84588597D01*
X101300965Y-84782169D01*
X101300964Y-84782171D01*
X101201098Y-84996335D01*
X101201094Y-84996344D01*
X101139938Y-85224586D01*
X101139936Y-85224596D01*
X101119341Y-85459999D01*
X101119341Y-85460000D01*
X100000500Y-85460000D01*
X100000500Y-84000000D01*
X107644341Y-84000000D01*
X107664936Y-84235403D01*
X107664938Y-84235413D01*
X107726094Y-84463655D01*
X107726096Y-84463659D01*
X107726097Y-84463663D01*
X107776031Y-84570746D01*
X107825964Y-84677828D01*
X107825965Y-84677830D01*
X107961505Y-84871402D01*
X108128597Y-85038494D01*
X108322169Y-85174034D01*
X108322171Y-85174035D01*
X108536337Y-85273903D01*
X108764592Y-85335063D01*
X108941032Y-85350499D01*
X108941033Y-85350500D01*
X108941034Y-85350500D01*
X109058967Y-85350500D01*
X109058967Y-85350499D01*
X109235408Y-85335063D01*
X109463663Y-85273903D01*
X109677829Y-85174035D01*
X109871401Y-85038495D01*
X110038495Y-84871401D01*
X110174035Y-84677830D01*
X110273903Y-84463663D01*
X110335063Y-84235408D01*
X110355659Y-84000000D01*
X156644341Y-84000000D01*
X156664936Y-84235403D01*
X156664938Y-84235413D01*
X156726094Y-84463655D01*
X156726096Y-84463659D01*
X156726097Y-84463663D01*
X156776031Y-84570746D01*
X156825964Y-84677828D01*
X156825965Y-84677830D01*
X156961505Y-84871402D01*
X157128597Y-85038494D01*
X157322169Y-85174034D01*
X157322171Y-85174035D01*
X157536337Y-85273903D01*
X157764592Y-85335063D01*
X157941032Y-85350499D01*
X157941033Y-85350500D01*
X157941034Y-85350500D01*
X158058967Y-85350500D01*
X158058967Y-85350499D01*
X158235408Y-85335063D01*
X158463663Y-85273903D01*
X158677829Y-85174035D01*
X158871401Y-85038495D01*
X159038495Y-84871401D01*
X159174035Y-84677830D01*
X159273903Y-84463663D01*
X159335063Y-84235408D01*
X159355659Y-84000000D01*
X175644341Y-84000000D01*
X175664936Y-84235403D01*
X175664938Y-84235413D01*
X175726094Y-84463655D01*
X175726096Y-84463659D01*
X175726097Y-84463663D01*
X175776031Y-84570746D01*
X175825964Y-84677828D01*
X175825965Y-84677830D01*
X175961505Y-84871402D01*
X176128597Y-85038494D01*
X176322169Y-85174034D01*
X176322171Y-85174035D01*
X176536337Y-85273903D01*
X176764592Y-85335063D01*
X176941032Y-85350499D01*
X176941033Y-85350500D01*
X176941034Y-85350500D01*
X177058967Y-85350500D01*
X177058967Y-85350499D01*
X177235408Y-85335063D01*
X177463663Y-85273903D01*
X177677829Y-85174035D01*
X177871401Y-85038495D01*
X178038495Y-84871401D01*
X178174035Y-84677830D01*
X178273903Y-84463663D01*
X178335063Y-84235408D01*
X178355659Y-84000000D01*
X178335063Y-83764592D01*
X178273903Y-83536337D01*
X178174035Y-83322171D01*
X178174034Y-83322169D01*
X178038494Y-83128597D01*
X177871402Y-82961505D01*
X177677830Y-82825965D01*
X177677828Y-82825964D01*
X177570746Y-82776031D01*
X177463663Y-82726097D01*
X177463659Y-82726096D01*
X177463655Y-82726094D01*
X177235413Y-82664938D01*
X177235403Y-82664936D01*
X177058967Y-82649500D01*
X177058966Y-82649500D01*
X176941034Y-82649500D01*
X176941033Y-82649500D01*
X176764596Y-82664936D01*
X176764586Y-82664938D01*
X176536344Y-82726094D01*
X176536335Y-82726098D01*
X176322171Y-82825964D01*
X176322169Y-82825965D01*
X176128597Y-82961505D01*
X175961506Y-83128597D01*
X175961501Y-83128604D01*
X175825967Y-83322165D01*
X175825965Y-83322169D01*
X175726098Y-83536335D01*
X175726094Y-83536344D01*
X175664938Y-83764586D01*
X175664936Y-83764596D01*
X175644341Y-83999999D01*
X175644341Y-84000000D01*
X159355659Y-84000000D01*
X159335063Y-83764592D01*
X159273903Y-83536337D01*
X159174035Y-83322171D01*
X159174034Y-83322169D01*
X159038494Y-83128597D01*
X158871402Y-82961505D01*
X158677830Y-82825965D01*
X158677828Y-82825964D01*
X158570746Y-82776031D01*
X158463663Y-82726097D01*
X158463659Y-82726096D01*
X158463655Y-82726094D01*
X158235413Y-82664938D01*
X158235403Y-82664936D01*
X158058967Y-82649500D01*
X158058966Y-82649500D01*
X157941034Y-82649500D01*
X157941033Y-82649500D01*
X157764596Y-82664936D01*
X157764586Y-82664938D01*
X157536344Y-82726094D01*
X157536335Y-82726098D01*
X157322171Y-82825964D01*
X157322169Y-82825965D01*
X157128597Y-82961505D01*
X156961506Y-83128597D01*
X156961501Y-83128604D01*
X156825967Y-83322165D01*
X156825965Y-83322169D01*
X156726098Y-83536335D01*
X156726094Y-83536344D01*
X156664938Y-83764586D01*
X156664936Y-83764596D01*
X156644341Y-83999999D01*
X156644341Y-84000000D01*
X110355659Y-84000000D01*
X110335063Y-83764592D01*
X110273903Y-83536337D01*
X110174035Y-83322171D01*
X110174034Y-83322169D01*
X110038494Y-83128597D01*
X109871402Y-82961505D01*
X109677830Y-82825965D01*
X109677828Y-82825964D01*
X109570746Y-82776031D01*
X109463663Y-82726097D01*
X109463659Y-82726096D01*
X109463655Y-82726094D01*
X109235413Y-82664938D01*
X109235403Y-82664936D01*
X109058967Y-82649500D01*
X109058966Y-82649500D01*
X108941034Y-82649500D01*
X108941033Y-82649500D01*
X108764596Y-82664936D01*
X108764586Y-82664938D01*
X108536344Y-82726094D01*
X108536335Y-82726098D01*
X108322171Y-82825964D01*
X108322169Y-82825965D01*
X108128597Y-82961505D01*
X107961506Y-83128597D01*
X107961501Y-83128604D01*
X107825967Y-83322165D01*
X107825965Y-83322169D01*
X107726098Y-83536335D01*
X107726094Y-83536344D01*
X107664938Y-83764586D01*
X107664936Y-83764596D01*
X107644341Y-83999999D01*
X107644341Y-84000000D01*
X100000500Y-84000000D01*
X100000500Y-81124500D01*
X100020185Y-81057461D01*
X100072989Y-81011706D01*
X100124500Y-81000500D01*
X179875500Y-81000500D01*
X179942539Y-81020185D01*
G37*
%TD.AperFunction*%
%TD*%
M02*
