%TF.GenerationSoftware,KiCad,Pcbnew,7.0.10-7.0.10~ubuntu20.04.1*%
%TF.CreationDate,2025-03-29T11:51:34+01:00*%
%TF.ProjectId,uven2-mk3-cc-driver,7576656e-322d-46d6-9b33-2d63632d6472,rev?*%
%TF.SameCoordinates,Original*%
%TF.FileFunction,Legend,Top*%
%TF.FilePolarity,Positive*%
%FSLAX46Y46*%
G04 Gerber Fmt 4.6, Leading zero omitted, Abs format (unit mm)*
G04 Created by KiCad (PCBNEW 7.0.10-7.0.10~ubuntu20.04.1) date 2025-03-29 11:51:34*
%MOMM*%
%LPD*%
G01*
G04 APERTURE LIST*
%ADD10C,0.150000*%
%ADD11C,0.120000*%
%ADD12C,0.200000*%
%ADD13C,0.127000*%
G04 APERTURE END LIST*
D10*
X105070588Y-87637438D02*
X104975350Y-87589819D01*
X104975350Y-87589819D02*
X104832493Y-87589819D01*
X104832493Y-87589819D02*
X104689636Y-87637438D01*
X104689636Y-87637438D02*
X104594398Y-87732676D01*
X104594398Y-87732676D02*
X104546779Y-87827914D01*
X104546779Y-87827914D02*
X104499160Y-88018390D01*
X104499160Y-88018390D02*
X104499160Y-88161247D01*
X104499160Y-88161247D02*
X104546779Y-88351723D01*
X104546779Y-88351723D02*
X104594398Y-88446961D01*
X104594398Y-88446961D02*
X104689636Y-88542200D01*
X104689636Y-88542200D02*
X104832493Y-88589819D01*
X104832493Y-88589819D02*
X104927731Y-88589819D01*
X104927731Y-88589819D02*
X105070588Y-88542200D01*
X105070588Y-88542200D02*
X105118207Y-88494580D01*
X105118207Y-88494580D02*
X105118207Y-88161247D01*
X105118207Y-88161247D02*
X104927731Y-88161247D01*
X105546779Y-88589819D02*
X105546779Y-87589819D01*
X105546779Y-87589819D02*
X106118207Y-88589819D01*
X106118207Y-88589819D02*
X106118207Y-87589819D01*
X106594398Y-88589819D02*
X106594398Y-87589819D01*
X106594398Y-87589819D02*
X106832493Y-87589819D01*
X106832493Y-87589819D02*
X106975350Y-87637438D01*
X106975350Y-87637438D02*
X107070588Y-87732676D01*
X107070588Y-87732676D02*
X107118207Y-87827914D01*
X107118207Y-87827914D02*
X107165826Y-88018390D01*
X107165826Y-88018390D02*
X107165826Y-88161247D01*
X107165826Y-88161247D02*
X107118207Y-88351723D01*
X107118207Y-88351723D02*
X107070588Y-88446961D01*
X107070588Y-88446961D02*
X106975350Y-88542200D01*
X106975350Y-88542200D02*
X106832493Y-88589819D01*
X106832493Y-88589819D02*
X106594398Y-88589819D01*
X104489160Y-85604104D02*
X104965350Y-85604104D01*
X104393922Y-85889819D02*
X104727255Y-84889819D01*
X104727255Y-84889819D02*
X105060588Y-85889819D01*
X105393922Y-85889819D02*
X105393922Y-84889819D01*
X105393922Y-84889819D02*
X105632017Y-84889819D01*
X105632017Y-84889819D02*
X105774874Y-84937438D01*
X105774874Y-84937438D02*
X105870112Y-85032676D01*
X105870112Y-85032676D02*
X105917731Y-85127914D01*
X105917731Y-85127914D02*
X105965350Y-85318390D01*
X105965350Y-85318390D02*
X105965350Y-85461247D01*
X105965350Y-85461247D02*
X105917731Y-85651723D01*
X105917731Y-85651723D02*
X105870112Y-85746961D01*
X105870112Y-85746961D02*
X105774874Y-85842200D01*
X105774874Y-85842200D02*
X105632017Y-85889819D01*
X105632017Y-85889819D02*
X105393922Y-85889819D01*
X106679636Y-84889819D02*
X106679636Y-85604104D01*
X106679636Y-85604104D02*
X106632017Y-85746961D01*
X106632017Y-85746961D02*
X106536779Y-85842200D01*
X106536779Y-85842200D02*
X106393922Y-85889819D01*
X106393922Y-85889819D02*
X106298684Y-85889819D01*
X104566779Y-95696009D02*
X104900112Y-95696009D01*
X105042969Y-96219819D02*
X104566779Y-96219819D01*
X104566779Y-96219819D02*
X104566779Y-95219819D01*
X104566779Y-95219819D02*
X105042969Y-95219819D01*
X105471541Y-96219819D02*
X105471541Y-95219819D01*
X105471541Y-95219819D02*
X106042969Y-96219819D01*
X106042969Y-96219819D02*
X106042969Y-95219819D01*
X105160588Y-97947438D02*
X105065350Y-97899819D01*
X105065350Y-97899819D02*
X104922493Y-97899819D01*
X104922493Y-97899819D02*
X104779636Y-97947438D01*
X104779636Y-97947438D02*
X104684398Y-98042676D01*
X104684398Y-98042676D02*
X104636779Y-98137914D01*
X104636779Y-98137914D02*
X104589160Y-98328390D01*
X104589160Y-98328390D02*
X104589160Y-98471247D01*
X104589160Y-98471247D02*
X104636779Y-98661723D01*
X104636779Y-98661723D02*
X104684398Y-98756961D01*
X104684398Y-98756961D02*
X104779636Y-98852200D01*
X104779636Y-98852200D02*
X104922493Y-98899819D01*
X104922493Y-98899819D02*
X105017731Y-98899819D01*
X105017731Y-98899819D02*
X105160588Y-98852200D01*
X105160588Y-98852200D02*
X105208207Y-98804580D01*
X105208207Y-98804580D02*
X105208207Y-98471247D01*
X105208207Y-98471247D02*
X105017731Y-98471247D01*
X105636779Y-98899819D02*
X105636779Y-97899819D01*
X105636779Y-97899819D02*
X106208207Y-98899819D01*
X106208207Y-98899819D02*
X106208207Y-97899819D01*
X106684398Y-98899819D02*
X106684398Y-97899819D01*
X106684398Y-97899819D02*
X106922493Y-97899819D01*
X106922493Y-97899819D02*
X107065350Y-97947438D01*
X107065350Y-97947438D02*
X107160588Y-98042676D01*
X107160588Y-98042676D02*
X107208207Y-98137914D01*
X107208207Y-98137914D02*
X107255826Y-98328390D01*
X107255826Y-98328390D02*
X107255826Y-98471247D01*
X107255826Y-98471247D02*
X107208207Y-98661723D01*
X107208207Y-98661723D02*
X107160588Y-98756961D01*
X107160588Y-98756961D02*
X107065350Y-98852200D01*
X107065350Y-98852200D02*
X106922493Y-98899819D01*
X106922493Y-98899819D02*
X106684398Y-98899819D01*
X104593922Y-100419819D02*
X104927255Y-101419819D01*
X104927255Y-101419819D02*
X105260588Y-100419819D01*
X106165350Y-101324580D02*
X106117731Y-101372200D01*
X106117731Y-101372200D02*
X105974874Y-101419819D01*
X105974874Y-101419819D02*
X105879636Y-101419819D01*
X105879636Y-101419819D02*
X105736779Y-101372200D01*
X105736779Y-101372200D02*
X105641541Y-101276961D01*
X105641541Y-101276961D02*
X105593922Y-101181723D01*
X105593922Y-101181723D02*
X105546303Y-100991247D01*
X105546303Y-100991247D02*
X105546303Y-100848390D01*
X105546303Y-100848390D02*
X105593922Y-100657914D01*
X105593922Y-100657914D02*
X105641541Y-100562676D01*
X105641541Y-100562676D02*
X105736779Y-100467438D01*
X105736779Y-100467438D02*
X105879636Y-100419819D01*
X105879636Y-100419819D02*
X105974874Y-100419819D01*
X105974874Y-100419819D02*
X106117731Y-100467438D01*
X106117731Y-100467438D02*
X106165350Y-100515057D01*
X107165350Y-101324580D02*
X107117731Y-101372200D01*
X107117731Y-101372200D02*
X106974874Y-101419819D01*
X106974874Y-101419819D02*
X106879636Y-101419819D01*
X106879636Y-101419819D02*
X106736779Y-101372200D01*
X106736779Y-101372200D02*
X106641541Y-101276961D01*
X106641541Y-101276961D02*
X106593922Y-101181723D01*
X106593922Y-101181723D02*
X106546303Y-100991247D01*
X106546303Y-100991247D02*
X106546303Y-100848390D01*
X106546303Y-100848390D02*
X106593922Y-100657914D01*
X106593922Y-100657914D02*
X106641541Y-100562676D01*
X106641541Y-100562676D02*
X106736779Y-100467438D01*
X106736779Y-100467438D02*
X106879636Y-100419819D01*
X106879636Y-100419819D02*
X106974874Y-100419819D01*
X106974874Y-100419819D02*
X107117731Y-100467438D01*
X107117731Y-100467438D02*
X107165350Y-100515057D01*
X118333333Y-99434819D02*
X118000000Y-98958628D01*
X117761905Y-99434819D02*
X117761905Y-98434819D01*
X117761905Y-98434819D02*
X118142857Y-98434819D01*
X118142857Y-98434819D02*
X118238095Y-98482438D01*
X118238095Y-98482438D02*
X118285714Y-98530057D01*
X118285714Y-98530057D02*
X118333333Y-98625295D01*
X118333333Y-98625295D02*
X118333333Y-98768152D01*
X118333333Y-98768152D02*
X118285714Y-98863390D01*
X118285714Y-98863390D02*
X118238095Y-98911009D01*
X118238095Y-98911009D02*
X118142857Y-98958628D01*
X118142857Y-98958628D02*
X117761905Y-98958628D01*
X119190476Y-98768152D02*
X119190476Y-99434819D01*
X118952381Y-98387200D02*
X118714286Y-99101485D01*
X118714286Y-99101485D02*
X119333333Y-99101485D01*
X139233333Y-104984819D02*
X138900000Y-104508628D01*
X138661905Y-104984819D02*
X138661905Y-103984819D01*
X138661905Y-103984819D02*
X139042857Y-103984819D01*
X139042857Y-103984819D02*
X139138095Y-104032438D01*
X139138095Y-104032438D02*
X139185714Y-104080057D01*
X139185714Y-104080057D02*
X139233333Y-104175295D01*
X139233333Y-104175295D02*
X139233333Y-104318152D01*
X139233333Y-104318152D02*
X139185714Y-104413390D01*
X139185714Y-104413390D02*
X139138095Y-104461009D01*
X139138095Y-104461009D02*
X139042857Y-104508628D01*
X139042857Y-104508628D02*
X138661905Y-104508628D01*
X139566667Y-103984819D02*
X140185714Y-103984819D01*
X140185714Y-103984819D02*
X139852381Y-104365771D01*
X139852381Y-104365771D02*
X139995238Y-104365771D01*
X139995238Y-104365771D02*
X140090476Y-104413390D01*
X140090476Y-104413390D02*
X140138095Y-104461009D01*
X140138095Y-104461009D02*
X140185714Y-104556247D01*
X140185714Y-104556247D02*
X140185714Y-104794342D01*
X140185714Y-104794342D02*
X140138095Y-104889580D01*
X140138095Y-104889580D02*
X140090476Y-104937200D01*
X140090476Y-104937200D02*
X139995238Y-104984819D01*
X139995238Y-104984819D02*
X139709524Y-104984819D01*
X139709524Y-104984819D02*
X139614286Y-104937200D01*
X139614286Y-104937200D02*
X139566667Y-104889580D01*
X110633333Y-91784819D02*
X110300000Y-91308628D01*
X110061905Y-91784819D02*
X110061905Y-90784819D01*
X110061905Y-90784819D02*
X110442857Y-90784819D01*
X110442857Y-90784819D02*
X110538095Y-90832438D01*
X110538095Y-90832438D02*
X110585714Y-90880057D01*
X110585714Y-90880057D02*
X110633333Y-90975295D01*
X110633333Y-90975295D02*
X110633333Y-91118152D01*
X110633333Y-91118152D02*
X110585714Y-91213390D01*
X110585714Y-91213390D02*
X110538095Y-91261009D01*
X110538095Y-91261009D02*
X110442857Y-91308628D01*
X110442857Y-91308628D02*
X110061905Y-91308628D01*
X111014286Y-90880057D02*
X111061905Y-90832438D01*
X111061905Y-90832438D02*
X111157143Y-90784819D01*
X111157143Y-90784819D02*
X111395238Y-90784819D01*
X111395238Y-90784819D02*
X111490476Y-90832438D01*
X111490476Y-90832438D02*
X111538095Y-90880057D01*
X111538095Y-90880057D02*
X111585714Y-90975295D01*
X111585714Y-90975295D02*
X111585714Y-91070533D01*
X111585714Y-91070533D02*
X111538095Y-91213390D01*
X111538095Y-91213390D02*
X110966667Y-91784819D01*
X110966667Y-91784819D02*
X111585714Y-91784819D01*
X114920833Y-91784819D02*
X114587500Y-91308628D01*
X114349405Y-91784819D02*
X114349405Y-90784819D01*
X114349405Y-90784819D02*
X114730357Y-90784819D01*
X114730357Y-90784819D02*
X114825595Y-90832438D01*
X114825595Y-90832438D02*
X114873214Y-90880057D01*
X114873214Y-90880057D02*
X114920833Y-90975295D01*
X114920833Y-90975295D02*
X114920833Y-91118152D01*
X114920833Y-91118152D02*
X114873214Y-91213390D01*
X114873214Y-91213390D02*
X114825595Y-91261009D01*
X114825595Y-91261009D02*
X114730357Y-91308628D01*
X114730357Y-91308628D02*
X114349405Y-91308628D01*
X115873214Y-91784819D02*
X115301786Y-91784819D01*
X115587500Y-91784819D02*
X115587500Y-90784819D01*
X115587500Y-90784819D02*
X115492262Y-90927676D01*
X115492262Y-90927676D02*
X115397024Y-91022914D01*
X115397024Y-91022914D02*
X115301786Y-91070533D01*
X107833333Y-95389580D02*
X107785714Y-95437200D01*
X107785714Y-95437200D02*
X107642857Y-95484819D01*
X107642857Y-95484819D02*
X107547619Y-95484819D01*
X107547619Y-95484819D02*
X107404762Y-95437200D01*
X107404762Y-95437200D02*
X107309524Y-95341961D01*
X107309524Y-95341961D02*
X107261905Y-95246723D01*
X107261905Y-95246723D02*
X107214286Y-95056247D01*
X107214286Y-95056247D02*
X107214286Y-94913390D01*
X107214286Y-94913390D02*
X107261905Y-94722914D01*
X107261905Y-94722914D02*
X107309524Y-94627676D01*
X107309524Y-94627676D02*
X107404762Y-94532438D01*
X107404762Y-94532438D02*
X107547619Y-94484819D01*
X107547619Y-94484819D02*
X107642857Y-94484819D01*
X107642857Y-94484819D02*
X107785714Y-94532438D01*
X107785714Y-94532438D02*
X107833333Y-94580057D01*
X108214286Y-94580057D02*
X108261905Y-94532438D01*
X108261905Y-94532438D02*
X108357143Y-94484819D01*
X108357143Y-94484819D02*
X108595238Y-94484819D01*
X108595238Y-94484819D02*
X108690476Y-94532438D01*
X108690476Y-94532438D02*
X108738095Y-94580057D01*
X108738095Y-94580057D02*
X108785714Y-94675295D01*
X108785714Y-94675295D02*
X108785714Y-94770533D01*
X108785714Y-94770533D02*
X108738095Y-94913390D01*
X108738095Y-94913390D02*
X108166667Y-95484819D01*
X108166667Y-95484819D02*
X108785714Y-95484819D01*
X122721905Y-87974819D02*
X122721905Y-86974819D01*
X122721905Y-86974819D02*
X122960000Y-86974819D01*
X122960000Y-86974819D02*
X123102857Y-87022438D01*
X123102857Y-87022438D02*
X123198095Y-87117676D01*
X123198095Y-87117676D02*
X123245714Y-87212914D01*
X123245714Y-87212914D02*
X123293333Y-87403390D01*
X123293333Y-87403390D02*
X123293333Y-87546247D01*
X123293333Y-87546247D02*
X123245714Y-87736723D01*
X123245714Y-87736723D02*
X123198095Y-87831961D01*
X123198095Y-87831961D02*
X123102857Y-87927200D01*
X123102857Y-87927200D02*
X122960000Y-87974819D01*
X122960000Y-87974819D02*
X122721905Y-87974819D01*
X124245714Y-87974819D02*
X123674286Y-87974819D01*
X123960000Y-87974819D02*
X123960000Y-86974819D01*
X123960000Y-86974819D02*
X123864762Y-87117676D01*
X123864762Y-87117676D02*
X123769524Y-87212914D01*
X123769524Y-87212914D02*
X123674286Y-87260533D01*
X113033333Y-107269580D02*
X112985714Y-107317200D01*
X112985714Y-107317200D02*
X112842857Y-107364819D01*
X112842857Y-107364819D02*
X112747619Y-107364819D01*
X112747619Y-107364819D02*
X112604762Y-107317200D01*
X112604762Y-107317200D02*
X112509524Y-107221961D01*
X112509524Y-107221961D02*
X112461905Y-107126723D01*
X112461905Y-107126723D02*
X112414286Y-106936247D01*
X112414286Y-106936247D02*
X112414286Y-106793390D01*
X112414286Y-106793390D02*
X112461905Y-106602914D01*
X112461905Y-106602914D02*
X112509524Y-106507676D01*
X112509524Y-106507676D02*
X112604762Y-106412438D01*
X112604762Y-106412438D02*
X112747619Y-106364819D01*
X112747619Y-106364819D02*
X112842857Y-106364819D01*
X112842857Y-106364819D02*
X112985714Y-106412438D01*
X112985714Y-106412438D02*
X113033333Y-106460057D01*
X113985714Y-107364819D02*
X113414286Y-107364819D01*
X113700000Y-107364819D02*
X113700000Y-106364819D01*
X113700000Y-106364819D02*
X113604762Y-106507676D01*
X113604762Y-106507676D02*
X113509524Y-106602914D01*
X113509524Y-106602914D02*
X113414286Y-106650533D01*
X116488095Y-91854819D02*
X116488095Y-92664342D01*
X116488095Y-92664342D02*
X116535714Y-92759580D01*
X116535714Y-92759580D02*
X116583333Y-92807200D01*
X116583333Y-92807200D02*
X116678571Y-92854819D01*
X116678571Y-92854819D02*
X116869047Y-92854819D01*
X116869047Y-92854819D02*
X116964285Y-92807200D01*
X116964285Y-92807200D02*
X117011904Y-92759580D01*
X117011904Y-92759580D02*
X117059523Y-92664342D01*
X117059523Y-92664342D02*
X117059523Y-91854819D01*
X117488095Y-91950057D02*
X117535714Y-91902438D01*
X117535714Y-91902438D02*
X117630952Y-91854819D01*
X117630952Y-91854819D02*
X117869047Y-91854819D01*
X117869047Y-91854819D02*
X117964285Y-91902438D01*
X117964285Y-91902438D02*
X118011904Y-91950057D01*
X118011904Y-91950057D02*
X118059523Y-92045295D01*
X118059523Y-92045295D02*
X118059523Y-92140533D01*
X118059523Y-92140533D02*
X118011904Y-92283390D01*
X118011904Y-92283390D02*
X117440476Y-92854819D01*
X117440476Y-92854819D02*
X118059523Y-92854819D01*
X165857618Y-100118276D02*
X165857618Y-99478276D01*
X165857618Y-99478276D02*
X166009999Y-99478276D01*
X166009999Y-99478276D02*
X166101428Y-99508752D01*
X166101428Y-99508752D02*
X166162380Y-99569704D01*
X166162380Y-99569704D02*
X166192857Y-99630657D01*
X166192857Y-99630657D02*
X166223333Y-99752561D01*
X166223333Y-99752561D02*
X166223333Y-99843990D01*
X166223333Y-99843990D02*
X166192857Y-99965895D01*
X166192857Y-99965895D02*
X166162380Y-100026847D01*
X166162380Y-100026847D02*
X166101428Y-100087800D01*
X166101428Y-100087800D02*
X166009999Y-100118276D01*
X166009999Y-100118276D02*
X165857618Y-100118276D01*
X166467142Y-99539228D02*
X166497618Y-99508752D01*
X166497618Y-99508752D02*
X166558571Y-99478276D01*
X166558571Y-99478276D02*
X166710952Y-99478276D01*
X166710952Y-99478276D02*
X166771904Y-99508752D01*
X166771904Y-99508752D02*
X166802380Y-99539228D01*
X166802380Y-99539228D02*
X166832857Y-99600180D01*
X166832857Y-99600180D02*
X166832857Y-99661133D01*
X166832857Y-99661133D02*
X166802380Y-99752561D01*
X166802380Y-99752561D02*
X166436666Y-100118276D01*
X166436666Y-100118276D02*
X166832857Y-100118276D01*
X130293333Y-100084819D02*
X129817143Y-100084819D01*
X129817143Y-100084819D02*
X129817143Y-99084819D01*
X131150476Y-100084819D02*
X130579048Y-100084819D01*
X130864762Y-100084819D02*
X130864762Y-99084819D01*
X130864762Y-99084819D02*
X130769524Y-99227676D01*
X130769524Y-99227676D02*
X130674286Y-99322914D01*
X130674286Y-99322914D02*
X130579048Y-99370533D01*
X127114761Y-96560057D02*
X127019523Y-96512438D01*
X127019523Y-96512438D02*
X126924285Y-96417200D01*
X126924285Y-96417200D02*
X126781428Y-96274342D01*
X126781428Y-96274342D02*
X126686190Y-96226723D01*
X126686190Y-96226723D02*
X126590952Y-96226723D01*
X126638571Y-96464819D02*
X126543333Y-96417200D01*
X126543333Y-96417200D02*
X126448095Y-96321961D01*
X126448095Y-96321961D02*
X126400476Y-96131485D01*
X126400476Y-96131485D02*
X126400476Y-95798152D01*
X126400476Y-95798152D02*
X126448095Y-95607676D01*
X126448095Y-95607676D02*
X126543333Y-95512438D01*
X126543333Y-95512438D02*
X126638571Y-95464819D01*
X126638571Y-95464819D02*
X126829047Y-95464819D01*
X126829047Y-95464819D02*
X126924285Y-95512438D01*
X126924285Y-95512438D02*
X127019523Y-95607676D01*
X127019523Y-95607676D02*
X127067142Y-95798152D01*
X127067142Y-95798152D02*
X127067142Y-96131485D01*
X127067142Y-96131485D02*
X127019523Y-96321961D01*
X127019523Y-96321961D02*
X126924285Y-96417200D01*
X126924285Y-96417200D02*
X126829047Y-96464819D01*
X126829047Y-96464819D02*
X126638571Y-96464819D01*
X128019523Y-96464819D02*
X127448095Y-96464819D01*
X127733809Y-96464819D02*
X127733809Y-95464819D01*
X127733809Y-95464819D02*
X127638571Y-95607676D01*
X127638571Y-95607676D02*
X127543333Y-95702914D01*
X127543333Y-95702914D02*
X127448095Y-95750533D01*
X143803333Y-97649580D02*
X143755714Y-97697200D01*
X143755714Y-97697200D02*
X143612857Y-97744819D01*
X143612857Y-97744819D02*
X143517619Y-97744819D01*
X143517619Y-97744819D02*
X143374762Y-97697200D01*
X143374762Y-97697200D02*
X143279524Y-97601961D01*
X143279524Y-97601961D02*
X143231905Y-97506723D01*
X143231905Y-97506723D02*
X143184286Y-97316247D01*
X143184286Y-97316247D02*
X143184286Y-97173390D01*
X143184286Y-97173390D02*
X143231905Y-96982914D01*
X143231905Y-96982914D02*
X143279524Y-96887676D01*
X143279524Y-96887676D02*
X143374762Y-96792438D01*
X143374762Y-96792438D02*
X143517619Y-96744819D01*
X143517619Y-96744819D02*
X143612857Y-96744819D01*
X143612857Y-96744819D02*
X143755714Y-96792438D01*
X143755714Y-96792438D02*
X143803333Y-96840057D01*
X144708095Y-96744819D02*
X144231905Y-96744819D01*
X144231905Y-96744819D02*
X144184286Y-97221009D01*
X144184286Y-97221009D02*
X144231905Y-97173390D01*
X144231905Y-97173390D02*
X144327143Y-97125771D01*
X144327143Y-97125771D02*
X144565238Y-97125771D01*
X144565238Y-97125771D02*
X144660476Y-97173390D01*
X144660476Y-97173390D02*
X144708095Y-97221009D01*
X144708095Y-97221009D02*
X144755714Y-97316247D01*
X144755714Y-97316247D02*
X144755714Y-97554342D01*
X144755714Y-97554342D02*
X144708095Y-97649580D01*
X144708095Y-97649580D02*
X144660476Y-97697200D01*
X144660476Y-97697200D02*
X144565238Y-97744819D01*
X144565238Y-97744819D02*
X144327143Y-97744819D01*
X144327143Y-97744819D02*
X144231905Y-97697200D01*
X144231905Y-97697200D02*
X144184286Y-97649580D01*
X111229580Y-97996666D02*
X111277200Y-98044285D01*
X111277200Y-98044285D02*
X111324819Y-98187142D01*
X111324819Y-98187142D02*
X111324819Y-98282380D01*
X111324819Y-98282380D02*
X111277200Y-98425237D01*
X111277200Y-98425237D02*
X111181961Y-98520475D01*
X111181961Y-98520475D02*
X111086723Y-98568094D01*
X111086723Y-98568094D02*
X110896247Y-98615713D01*
X110896247Y-98615713D02*
X110753390Y-98615713D01*
X110753390Y-98615713D02*
X110562914Y-98568094D01*
X110562914Y-98568094D02*
X110467676Y-98520475D01*
X110467676Y-98520475D02*
X110372438Y-98425237D01*
X110372438Y-98425237D02*
X110324819Y-98282380D01*
X110324819Y-98282380D02*
X110324819Y-98187142D01*
X110324819Y-98187142D02*
X110372438Y-98044285D01*
X110372438Y-98044285D02*
X110420057Y-97996666D01*
X110324819Y-97663332D02*
X110324819Y-97044285D01*
X110324819Y-97044285D02*
X110705771Y-97377618D01*
X110705771Y-97377618D02*
X110705771Y-97234761D01*
X110705771Y-97234761D02*
X110753390Y-97139523D01*
X110753390Y-97139523D02*
X110801009Y-97091904D01*
X110801009Y-97091904D02*
X110896247Y-97044285D01*
X110896247Y-97044285D02*
X111134342Y-97044285D01*
X111134342Y-97044285D02*
X111229580Y-97091904D01*
X111229580Y-97091904D02*
X111277200Y-97139523D01*
X111277200Y-97139523D02*
X111324819Y-97234761D01*
X111324819Y-97234761D02*
X111324819Y-97520475D01*
X111324819Y-97520475D02*
X111277200Y-97615713D01*
X111277200Y-97615713D02*
X111229580Y-97663332D01*
X119843333Y-89219580D02*
X119795714Y-89267200D01*
X119795714Y-89267200D02*
X119652857Y-89314819D01*
X119652857Y-89314819D02*
X119557619Y-89314819D01*
X119557619Y-89314819D02*
X119414762Y-89267200D01*
X119414762Y-89267200D02*
X119319524Y-89171961D01*
X119319524Y-89171961D02*
X119271905Y-89076723D01*
X119271905Y-89076723D02*
X119224286Y-88886247D01*
X119224286Y-88886247D02*
X119224286Y-88743390D01*
X119224286Y-88743390D02*
X119271905Y-88552914D01*
X119271905Y-88552914D02*
X119319524Y-88457676D01*
X119319524Y-88457676D02*
X119414762Y-88362438D01*
X119414762Y-88362438D02*
X119557619Y-88314819D01*
X119557619Y-88314819D02*
X119652857Y-88314819D01*
X119652857Y-88314819D02*
X119795714Y-88362438D01*
X119795714Y-88362438D02*
X119843333Y-88410057D01*
X120700476Y-88648152D02*
X120700476Y-89314819D01*
X120462381Y-88267200D02*
X120224286Y-88981485D01*
X120224286Y-88981485D02*
X120843333Y-88981485D01*
D11*
%TO.C,R4*%
X116322936Y-99890000D02*
X120677064Y-99890000D01*
X116322936Y-103310000D02*
X120677064Y-103310000D01*
%TO.C,R3*%
X139654724Y-103622500D02*
X139145276Y-103622500D01*
X139654724Y-102577500D02*
X139145276Y-102577500D01*
%TO.C,R2*%
X111054724Y-90422500D02*
X110545276Y-90422500D01*
X111054724Y-89377500D02*
X110545276Y-89377500D01*
%TO.C,R1*%
X115342224Y-90422500D02*
X114832776Y-90422500D01*
X115342224Y-89377500D02*
X114832776Y-89377500D01*
%TO.C,C2*%
X108003733Y-92940000D02*
X108296267Y-92940000D01*
X108003733Y-93960000D02*
X108296267Y-93960000D01*
%TO.C,J3*%
X154330000Y-95670000D02*
X154330000Y-97000000D01*
X153000000Y-95670000D02*
X154330000Y-95670000D01*
X151730000Y-95670000D02*
X149130000Y-95670000D01*
X151730000Y-95670000D02*
X151730000Y-98330000D01*
X149130000Y-95670000D02*
X149130000Y-98330000D01*
X151730000Y-98330000D02*
X149130000Y-98330000D01*
D12*
%TO.C,D1*%
X127230000Y-90395000D02*
X127230000Y-85445000D01*
D13*
X124780000Y-88520000D02*
X127180000Y-88520000D01*
D12*
X124730000Y-85445000D02*
X124730000Y-90395000D01*
D13*
%TO.C,C1*%
X112300000Y-101250000D02*
X113150000Y-102100000D01*
X112150000Y-101250000D02*
X112300000Y-101250000D01*
X109850000Y-101250000D02*
X109700000Y-101250000D01*
X109700000Y-101250000D02*
X108850000Y-102100000D01*
X113150000Y-102100000D02*
X113150000Y-105550000D01*
X108850000Y-102100000D02*
X108850000Y-105550000D01*
X113150000Y-105550000D02*
X112150000Y-105550000D01*
X108850000Y-105550000D02*
X109850000Y-105550000D01*
D12*
X112500000Y-100450000D02*
G75*
G03*
X112300000Y-100450000I-100000J0D01*
G01*
X112300000Y-100450000D02*
G75*
G03*
X112500000Y-100450000I100000J0D01*
G01*
D13*
%TO.C,U2*%
X114800000Y-96350000D02*
X117800000Y-96350000D01*
X117800000Y-93350000D02*
X114800000Y-93350000D01*
D12*
X112900000Y-93850000D02*
G75*
G03*
X112700000Y-93850000I-100000J0D01*
G01*
X112700000Y-93850000D02*
G75*
G03*
X112900000Y-93850000I100000J0D01*
G01*
D13*
%TO.C,D2*%
X170210000Y-97000000D02*
X169810000Y-97000000D01*
X169360000Y-98833500D02*
X165860000Y-98833500D01*
X165860000Y-95166500D02*
X169360000Y-95166500D01*
X165410000Y-97000000D02*
X165010000Y-97000000D01*
X165210000Y-97200000D02*
X165210000Y-96800000D01*
D11*
%TO.C,Q1*%
X124187500Y-96560000D02*
X125862500Y-96560000D01*
X124187500Y-96560000D02*
X123537500Y-96560000D01*
X124187500Y-93440000D02*
X124837500Y-93440000D01*
X124187500Y-93440000D02*
X123537500Y-93440000D01*
%TO.C,J2*%
X103805000Y-86730000D02*
X103805000Y-84130000D01*
X103805000Y-86730000D02*
X101145000Y-86730000D01*
X103805000Y-84130000D02*
X101145000Y-84130000D01*
X102475000Y-89330000D02*
X101145000Y-89330000D01*
X101145000Y-89330000D02*
X101145000Y-88000000D01*
X101145000Y-86730000D02*
X101145000Y-84130000D01*
%TO.C,C5*%
X141290000Y-94161252D02*
X141290000Y-91838748D01*
X144710000Y-94161252D02*
X144710000Y-91838748D01*
%TO.C,C3*%
X109760000Y-97603733D02*
X109760000Y-97896267D01*
X108740000Y-97603733D02*
X108740000Y-97896267D01*
%TO.C,J1*%
X103805000Y-99505000D02*
X103805000Y-94365000D01*
X103805000Y-99505000D02*
X101145000Y-99505000D01*
X103805000Y-94365000D02*
X101145000Y-94365000D01*
X102475000Y-102105000D02*
X101145000Y-102105000D01*
X101145000Y-102105000D02*
X101145000Y-100775000D01*
X101145000Y-99505000D02*
X101145000Y-94365000D01*
%TO.C,C4*%
X119853733Y-89990000D02*
X120146267Y-89990000D01*
X119853733Y-91010000D02*
X120146267Y-91010000D01*
%TD*%
M02*
