%TF.GenerationSoftware,KiCad,Pcbnew,5.1.10-88a1d61d58~90~ubuntu20.04.1*%
%TF.CreationDate,2021-12-30T14:19:47+01:00*%
%TF.ProjectId,MTSM340UV2-F5120S-current-driver,4d54534d-3334-4305-9556-322d46353132,rev?*%
%TF.SameCoordinates,Original*%
%TF.FileFunction,Paste,Top*%
%TF.FilePolarity,Positive*%
%FSLAX46Y46*%
G04 Gerber Fmt 4.6, Leading zero omitted, Abs format (unit mm)*
G04 Created by KiCad (PCBNEW 5.1.10-88a1d61d58~90~ubuntu20.04.1) date 2021-12-30 14:19:47*
%MOMM*%
%LPD*%
G01*
G04 APERTURE LIST*
%ADD10R,4.700000X1.180000*%
%ADD11O,0.750000X0.300000*%
%ADD12O,0.300000X0.750000*%
%ADD13R,0.540000X0.540000*%
%ADD14R,1.500000X1.050000*%
%ADD15R,1.500000X2.400000*%
%ADD16R,0.800000X2.700000*%
%ADD17R,2.000000X0.610000*%
%ADD18R,3.600000X2.680000*%
G04 APERTURE END LIST*
%TO.C,C1*%
G36*
G01*
X62762500Y-113106000D02*
X63237500Y-113106000D01*
G75*
G02*
X63475000Y-113343500I0J-237500D01*
G01*
X63475000Y-113943500D01*
G75*
G02*
X63237500Y-114181000I-237500J0D01*
G01*
X62762500Y-114181000D01*
G75*
G02*
X62525000Y-113943500I0J237500D01*
G01*
X62525000Y-113343500D01*
G75*
G02*
X62762500Y-113106000I237500J0D01*
G01*
G37*
G36*
G01*
X62762500Y-114831000D02*
X63237500Y-114831000D01*
G75*
G02*
X63475000Y-115068500I0J-237500D01*
G01*
X63475000Y-115668500D01*
G75*
G02*
X63237500Y-115906000I-237500J0D01*
G01*
X62762500Y-115906000D01*
G75*
G02*
X62525000Y-115668500I0J237500D01*
G01*
X62525000Y-115068500D01*
G75*
G02*
X62762500Y-114831000I237500J0D01*
G01*
G37*
%TD*%
%TO.C,C2*%
G36*
G01*
X57262500Y-114825000D02*
X57737500Y-114825000D01*
G75*
G02*
X57975000Y-115062500I0J-237500D01*
G01*
X57975000Y-115662500D01*
G75*
G02*
X57737500Y-115900000I-237500J0D01*
G01*
X57262500Y-115900000D01*
G75*
G02*
X57025000Y-115662500I0J237500D01*
G01*
X57025000Y-115062500D01*
G75*
G02*
X57262500Y-114825000I237500J0D01*
G01*
G37*
G36*
G01*
X57262500Y-113100000D02*
X57737500Y-113100000D01*
G75*
G02*
X57975000Y-113337500I0J-237500D01*
G01*
X57975000Y-113937500D01*
G75*
G02*
X57737500Y-114175000I-237500J0D01*
G01*
X57262500Y-114175000D01*
G75*
G02*
X57025000Y-113937500I0J237500D01*
G01*
X57025000Y-113337500D01*
G75*
G02*
X57262500Y-113100000I237500J0D01*
G01*
G37*
%TD*%
%TO.C,C3*%
G36*
G01*
X54175000Y-117262500D02*
X54175000Y-117737500D01*
G75*
G02*
X53937500Y-117975000I-237500J0D01*
G01*
X53337500Y-117975000D01*
G75*
G02*
X53100000Y-117737500I0J237500D01*
G01*
X53100000Y-117262500D01*
G75*
G02*
X53337500Y-117025000I237500J0D01*
G01*
X53937500Y-117025000D01*
G75*
G02*
X54175000Y-117262500I0J-237500D01*
G01*
G37*
G36*
G01*
X55900000Y-117262500D02*
X55900000Y-117737500D01*
G75*
G02*
X55662500Y-117975000I-237500J0D01*
G01*
X55062500Y-117975000D01*
G75*
G02*
X54825000Y-117737500I0J237500D01*
G01*
X54825000Y-117262500D01*
G75*
G02*
X55062500Y-117025000I237500J0D01*
G01*
X55662500Y-117025000D01*
G75*
G02*
X55900000Y-117262500I0J-237500D01*
G01*
G37*
%TD*%
%TO.C,C4*%
G36*
G01*
X62762500Y-128825000D02*
X63237500Y-128825000D01*
G75*
G02*
X63475000Y-129062500I0J-237500D01*
G01*
X63475000Y-129662500D01*
G75*
G02*
X63237500Y-129900000I-237500J0D01*
G01*
X62762500Y-129900000D01*
G75*
G02*
X62525000Y-129662500I0J237500D01*
G01*
X62525000Y-129062500D01*
G75*
G02*
X62762500Y-128825000I237500J0D01*
G01*
G37*
G36*
G01*
X62762500Y-127100000D02*
X63237500Y-127100000D01*
G75*
G02*
X63475000Y-127337500I0J-237500D01*
G01*
X63475000Y-127937500D01*
G75*
G02*
X63237500Y-128175000I-237500J0D01*
G01*
X62762500Y-128175000D01*
G75*
G02*
X62525000Y-127937500I0J237500D01*
G01*
X62525000Y-127337500D01*
G75*
G02*
X62762500Y-127100000I237500J0D01*
G01*
G37*
%TD*%
%TO.C,C5*%
G36*
G01*
X57262500Y-126600000D02*
X57737500Y-126600000D01*
G75*
G02*
X57975000Y-126837500I0J-237500D01*
G01*
X57975000Y-127437500D01*
G75*
G02*
X57737500Y-127675000I-237500J0D01*
G01*
X57262500Y-127675000D01*
G75*
G02*
X57025000Y-127437500I0J237500D01*
G01*
X57025000Y-126837500D01*
G75*
G02*
X57262500Y-126600000I237500J0D01*
G01*
G37*
G36*
G01*
X57262500Y-128325000D02*
X57737500Y-128325000D01*
G75*
G02*
X57975000Y-128562500I0J-237500D01*
G01*
X57975000Y-129162500D01*
G75*
G02*
X57737500Y-129400000I-237500J0D01*
G01*
X57262500Y-129400000D01*
G75*
G02*
X57025000Y-129162500I0J237500D01*
G01*
X57025000Y-128562500D01*
G75*
G02*
X57262500Y-128325000I237500J0D01*
G01*
G37*
%TD*%
%TO.C,C6*%
G36*
G01*
X54175000Y-130762500D02*
X54175000Y-131237500D01*
G75*
G02*
X53937500Y-131475000I-237500J0D01*
G01*
X53337500Y-131475000D01*
G75*
G02*
X53100000Y-131237500I0J237500D01*
G01*
X53100000Y-130762500D01*
G75*
G02*
X53337500Y-130525000I237500J0D01*
G01*
X53937500Y-130525000D01*
G75*
G02*
X54175000Y-130762500I0J-237500D01*
G01*
G37*
G36*
G01*
X55900000Y-130762500D02*
X55900000Y-131237500D01*
G75*
G02*
X55662500Y-131475000I-237500J0D01*
G01*
X55062500Y-131475000D01*
G75*
G02*
X54825000Y-131237500I0J237500D01*
G01*
X54825000Y-130762500D01*
G75*
G02*
X55062500Y-130525000I237500J0D01*
G01*
X55662500Y-130525000D01*
G75*
G02*
X55900000Y-130762500I0J-237500D01*
G01*
G37*
%TD*%
%TO.C,C7*%
G36*
G01*
X83762500Y-99100000D02*
X84237500Y-99100000D01*
G75*
G02*
X84475000Y-99337500I0J-237500D01*
G01*
X84475000Y-99937500D01*
G75*
G02*
X84237500Y-100175000I-237500J0D01*
G01*
X83762500Y-100175000D01*
G75*
G02*
X83525000Y-99937500I0J237500D01*
G01*
X83525000Y-99337500D01*
G75*
G02*
X83762500Y-99100000I237500J0D01*
G01*
G37*
G36*
G01*
X83762500Y-100825000D02*
X84237500Y-100825000D01*
G75*
G02*
X84475000Y-101062500I0J-237500D01*
G01*
X84475000Y-101662500D01*
G75*
G02*
X84237500Y-101900000I-237500J0D01*
G01*
X83762500Y-101900000D01*
G75*
G02*
X83525000Y-101662500I0J237500D01*
G01*
X83525000Y-101062500D01*
G75*
G02*
X83762500Y-100825000I237500J0D01*
G01*
G37*
%TD*%
%TO.C,C13*%
G36*
G01*
X78262500Y-99100000D02*
X78737500Y-99100000D01*
G75*
G02*
X78975000Y-99337500I0J-237500D01*
G01*
X78975000Y-99937500D01*
G75*
G02*
X78737500Y-100175000I-237500J0D01*
G01*
X78262500Y-100175000D01*
G75*
G02*
X78025000Y-99937500I0J237500D01*
G01*
X78025000Y-99337500D01*
G75*
G02*
X78262500Y-99100000I237500J0D01*
G01*
G37*
G36*
G01*
X78262500Y-100825000D02*
X78737500Y-100825000D01*
G75*
G02*
X78975000Y-101062500I0J-237500D01*
G01*
X78975000Y-101662500D01*
G75*
G02*
X78737500Y-101900000I-237500J0D01*
G01*
X78262500Y-101900000D01*
G75*
G02*
X78025000Y-101662500I0J237500D01*
G01*
X78025000Y-101062500D01*
G75*
G02*
X78262500Y-100825000I237500J0D01*
G01*
G37*
%TD*%
%TO.C,C14*%
G36*
G01*
X73675000Y-103762500D02*
X73675000Y-104237500D01*
G75*
G02*
X73437500Y-104475000I-237500J0D01*
G01*
X72837500Y-104475000D01*
G75*
G02*
X72600000Y-104237500I0J237500D01*
G01*
X72600000Y-103762500D01*
G75*
G02*
X72837500Y-103525000I237500J0D01*
G01*
X73437500Y-103525000D01*
G75*
G02*
X73675000Y-103762500I0J-237500D01*
G01*
G37*
G36*
G01*
X75400000Y-103762500D02*
X75400000Y-104237500D01*
G75*
G02*
X75162500Y-104475000I-237500J0D01*
G01*
X74562500Y-104475000D01*
G75*
G02*
X74325000Y-104237500I0J237500D01*
G01*
X74325000Y-103762500D01*
G75*
G02*
X74562500Y-103525000I237500J0D01*
G01*
X75162500Y-103525000D01*
G75*
G02*
X75400000Y-103762500I0J-237500D01*
G01*
G37*
%TD*%
%TO.C,C15*%
G36*
G01*
X83762500Y-113100000D02*
X84237500Y-113100000D01*
G75*
G02*
X84475000Y-113337500I0J-237500D01*
G01*
X84475000Y-113937500D01*
G75*
G02*
X84237500Y-114175000I-237500J0D01*
G01*
X83762500Y-114175000D01*
G75*
G02*
X83525000Y-113937500I0J237500D01*
G01*
X83525000Y-113337500D01*
G75*
G02*
X83762500Y-113100000I237500J0D01*
G01*
G37*
G36*
G01*
X83762500Y-114825000D02*
X84237500Y-114825000D01*
G75*
G02*
X84475000Y-115062500I0J-237500D01*
G01*
X84475000Y-115662500D01*
G75*
G02*
X84237500Y-115900000I-237500J0D01*
G01*
X83762500Y-115900000D01*
G75*
G02*
X83525000Y-115662500I0J237500D01*
G01*
X83525000Y-115062500D01*
G75*
G02*
X83762500Y-114825000I237500J0D01*
G01*
G37*
%TD*%
%TO.C,C16*%
G36*
G01*
X78262500Y-114825000D02*
X78737500Y-114825000D01*
G75*
G02*
X78975000Y-115062500I0J-237500D01*
G01*
X78975000Y-115662500D01*
G75*
G02*
X78737500Y-115900000I-237500J0D01*
G01*
X78262500Y-115900000D01*
G75*
G02*
X78025000Y-115662500I0J237500D01*
G01*
X78025000Y-115062500D01*
G75*
G02*
X78262500Y-114825000I237500J0D01*
G01*
G37*
G36*
G01*
X78262500Y-113100000D02*
X78737500Y-113100000D01*
G75*
G02*
X78975000Y-113337500I0J-237500D01*
G01*
X78975000Y-113937500D01*
G75*
G02*
X78737500Y-114175000I-237500J0D01*
G01*
X78262500Y-114175000D01*
G75*
G02*
X78025000Y-113937500I0J237500D01*
G01*
X78025000Y-113337500D01*
G75*
G02*
X78262500Y-113100000I237500J0D01*
G01*
G37*
%TD*%
%TO.C,C17*%
G36*
G01*
X75400000Y-117262500D02*
X75400000Y-117737500D01*
G75*
G02*
X75162500Y-117975000I-237500J0D01*
G01*
X74562500Y-117975000D01*
G75*
G02*
X74325000Y-117737500I0J237500D01*
G01*
X74325000Y-117262500D01*
G75*
G02*
X74562500Y-117025000I237500J0D01*
G01*
X75162500Y-117025000D01*
G75*
G02*
X75400000Y-117262500I0J-237500D01*
G01*
G37*
G36*
G01*
X73675000Y-117262500D02*
X73675000Y-117737500D01*
G75*
G02*
X73437500Y-117975000I-237500J0D01*
G01*
X72837500Y-117975000D01*
G75*
G02*
X72600000Y-117737500I0J237500D01*
G01*
X72600000Y-117262500D01*
G75*
G02*
X72837500Y-117025000I237500J0D01*
G01*
X73437500Y-117025000D01*
G75*
G02*
X73675000Y-117262500I0J-237500D01*
G01*
G37*
%TD*%
%TO.C,C18*%
G36*
G01*
X83762500Y-127100000D02*
X84237500Y-127100000D01*
G75*
G02*
X84475000Y-127337500I0J-237500D01*
G01*
X84475000Y-127937500D01*
G75*
G02*
X84237500Y-128175000I-237500J0D01*
G01*
X83762500Y-128175000D01*
G75*
G02*
X83525000Y-127937500I0J237500D01*
G01*
X83525000Y-127337500D01*
G75*
G02*
X83762500Y-127100000I237500J0D01*
G01*
G37*
G36*
G01*
X83762500Y-128825000D02*
X84237500Y-128825000D01*
G75*
G02*
X84475000Y-129062500I0J-237500D01*
G01*
X84475000Y-129662500D01*
G75*
G02*
X84237500Y-129900000I-237500J0D01*
G01*
X83762500Y-129900000D01*
G75*
G02*
X83525000Y-129662500I0J237500D01*
G01*
X83525000Y-129062500D01*
G75*
G02*
X83762500Y-128825000I237500J0D01*
G01*
G37*
%TD*%
%TO.C,C19*%
G36*
G01*
X78262500Y-126600000D02*
X78737500Y-126600000D01*
G75*
G02*
X78975000Y-126837500I0J-237500D01*
G01*
X78975000Y-127437500D01*
G75*
G02*
X78737500Y-127675000I-237500J0D01*
G01*
X78262500Y-127675000D01*
G75*
G02*
X78025000Y-127437500I0J237500D01*
G01*
X78025000Y-126837500D01*
G75*
G02*
X78262500Y-126600000I237500J0D01*
G01*
G37*
G36*
G01*
X78262500Y-128325000D02*
X78737500Y-128325000D01*
G75*
G02*
X78975000Y-128562500I0J-237500D01*
G01*
X78975000Y-129162500D01*
G75*
G02*
X78737500Y-129400000I-237500J0D01*
G01*
X78262500Y-129400000D01*
G75*
G02*
X78025000Y-129162500I0J237500D01*
G01*
X78025000Y-128562500D01*
G75*
G02*
X78262500Y-128325000I237500J0D01*
G01*
G37*
%TD*%
%TO.C,C20*%
G36*
G01*
X73675000Y-130762500D02*
X73675000Y-131237500D01*
G75*
G02*
X73437500Y-131475000I-237500J0D01*
G01*
X72837500Y-131475000D01*
G75*
G02*
X72600000Y-131237500I0J237500D01*
G01*
X72600000Y-130762500D01*
G75*
G02*
X72837500Y-130525000I237500J0D01*
G01*
X73437500Y-130525000D01*
G75*
G02*
X73675000Y-130762500I0J-237500D01*
G01*
G37*
G36*
G01*
X75400000Y-130762500D02*
X75400000Y-131237500D01*
G75*
G02*
X75162500Y-131475000I-237500J0D01*
G01*
X74562500Y-131475000D01*
G75*
G02*
X74325000Y-131237500I0J237500D01*
G01*
X74325000Y-130762500D01*
G75*
G02*
X74562500Y-130525000I237500J0D01*
G01*
X75162500Y-130525000D01*
G75*
G02*
X75400000Y-130762500I0J-237500D01*
G01*
G37*
%TD*%
%TO.C,C21*%
G36*
G01*
X83762500Y-143325000D02*
X84237500Y-143325000D01*
G75*
G02*
X84475000Y-143562500I0J-237500D01*
G01*
X84475000Y-144162500D01*
G75*
G02*
X84237500Y-144400000I-237500J0D01*
G01*
X83762500Y-144400000D01*
G75*
G02*
X83525000Y-144162500I0J237500D01*
G01*
X83525000Y-143562500D01*
G75*
G02*
X83762500Y-143325000I237500J0D01*
G01*
G37*
G36*
G01*
X83762500Y-141600000D02*
X84237500Y-141600000D01*
G75*
G02*
X84475000Y-141837500I0J-237500D01*
G01*
X84475000Y-142437500D01*
G75*
G02*
X84237500Y-142675000I-237500J0D01*
G01*
X83762500Y-142675000D01*
G75*
G02*
X83525000Y-142437500I0J237500D01*
G01*
X83525000Y-141837500D01*
G75*
G02*
X83762500Y-141600000I237500J0D01*
G01*
G37*
%TD*%
%TO.C,C22*%
G36*
G01*
X78262500Y-142325000D02*
X78737500Y-142325000D01*
G75*
G02*
X78975000Y-142562500I0J-237500D01*
G01*
X78975000Y-143162500D01*
G75*
G02*
X78737500Y-143400000I-237500J0D01*
G01*
X78262500Y-143400000D01*
G75*
G02*
X78025000Y-143162500I0J237500D01*
G01*
X78025000Y-142562500D01*
G75*
G02*
X78262500Y-142325000I237500J0D01*
G01*
G37*
G36*
G01*
X78262500Y-140600000D02*
X78737500Y-140600000D01*
G75*
G02*
X78975000Y-140837500I0J-237500D01*
G01*
X78975000Y-141437500D01*
G75*
G02*
X78737500Y-141675000I-237500J0D01*
G01*
X78262500Y-141675000D01*
G75*
G02*
X78025000Y-141437500I0J237500D01*
G01*
X78025000Y-140837500D01*
G75*
G02*
X78262500Y-140600000I237500J0D01*
G01*
G37*
%TD*%
%TO.C,C23*%
G36*
G01*
X73675000Y-144762500D02*
X73675000Y-145237500D01*
G75*
G02*
X73437500Y-145475000I-237500J0D01*
G01*
X72837500Y-145475000D01*
G75*
G02*
X72600000Y-145237500I0J237500D01*
G01*
X72600000Y-144762500D01*
G75*
G02*
X72837500Y-144525000I237500J0D01*
G01*
X73437500Y-144525000D01*
G75*
G02*
X73675000Y-144762500I0J-237500D01*
G01*
G37*
G36*
G01*
X75400000Y-144762500D02*
X75400000Y-145237500D01*
G75*
G02*
X75162500Y-145475000I-237500J0D01*
G01*
X74562500Y-145475000D01*
G75*
G02*
X74325000Y-145237500I0J237500D01*
G01*
X74325000Y-144762500D01*
G75*
G02*
X74562500Y-144525000I237500J0D01*
G01*
X75162500Y-144525000D01*
G75*
G02*
X75400000Y-144762500I0J-237500D01*
G01*
G37*
%TD*%
%TO.C,C24*%
G36*
G01*
X103762500Y-85825000D02*
X104237500Y-85825000D01*
G75*
G02*
X104475000Y-86062500I0J-237500D01*
G01*
X104475000Y-86662500D01*
G75*
G02*
X104237500Y-86900000I-237500J0D01*
G01*
X103762500Y-86900000D01*
G75*
G02*
X103525000Y-86662500I0J237500D01*
G01*
X103525000Y-86062500D01*
G75*
G02*
X103762500Y-85825000I237500J0D01*
G01*
G37*
G36*
G01*
X103762500Y-84100000D02*
X104237500Y-84100000D01*
G75*
G02*
X104475000Y-84337500I0J-237500D01*
G01*
X104475000Y-84937500D01*
G75*
G02*
X104237500Y-85175000I-237500J0D01*
G01*
X103762500Y-85175000D01*
G75*
G02*
X103525000Y-84937500I0J237500D01*
G01*
X103525000Y-84337500D01*
G75*
G02*
X103762500Y-84100000I237500J0D01*
G01*
G37*
%TD*%
%TO.C,C25*%
G36*
G01*
X98262500Y-85100000D02*
X98737500Y-85100000D01*
G75*
G02*
X98975000Y-85337500I0J-237500D01*
G01*
X98975000Y-85937500D01*
G75*
G02*
X98737500Y-86175000I-237500J0D01*
G01*
X98262500Y-86175000D01*
G75*
G02*
X98025000Y-85937500I0J237500D01*
G01*
X98025000Y-85337500D01*
G75*
G02*
X98262500Y-85100000I237500J0D01*
G01*
G37*
G36*
G01*
X98262500Y-86825000D02*
X98737500Y-86825000D01*
G75*
G02*
X98975000Y-87062500I0J-237500D01*
G01*
X98975000Y-87662500D01*
G75*
G02*
X98737500Y-87900000I-237500J0D01*
G01*
X98262500Y-87900000D01*
G75*
G02*
X98025000Y-87662500I0J237500D01*
G01*
X98025000Y-87062500D01*
G75*
G02*
X98262500Y-86825000I237500J0D01*
G01*
G37*
%TD*%
%TO.C,C26*%
G36*
G01*
X94675000Y-89762500D02*
X94675000Y-90237500D01*
G75*
G02*
X94437500Y-90475000I-237500J0D01*
G01*
X93837500Y-90475000D01*
G75*
G02*
X93600000Y-90237500I0J237500D01*
G01*
X93600000Y-89762500D01*
G75*
G02*
X93837500Y-89525000I237500J0D01*
G01*
X94437500Y-89525000D01*
G75*
G02*
X94675000Y-89762500I0J-237500D01*
G01*
G37*
G36*
G01*
X96400000Y-89762500D02*
X96400000Y-90237500D01*
G75*
G02*
X96162500Y-90475000I-237500J0D01*
G01*
X95562500Y-90475000D01*
G75*
G02*
X95325000Y-90237500I0J237500D01*
G01*
X95325000Y-89762500D01*
G75*
G02*
X95562500Y-89525000I237500J0D01*
G01*
X96162500Y-89525000D01*
G75*
G02*
X96400000Y-89762500I0J-237500D01*
G01*
G37*
%TD*%
%TO.C,C27*%
G36*
G01*
X103762500Y-100825000D02*
X104237500Y-100825000D01*
G75*
G02*
X104475000Y-101062500I0J-237500D01*
G01*
X104475000Y-101662500D01*
G75*
G02*
X104237500Y-101900000I-237500J0D01*
G01*
X103762500Y-101900000D01*
G75*
G02*
X103525000Y-101662500I0J237500D01*
G01*
X103525000Y-101062500D01*
G75*
G02*
X103762500Y-100825000I237500J0D01*
G01*
G37*
G36*
G01*
X103762500Y-99100000D02*
X104237500Y-99100000D01*
G75*
G02*
X104475000Y-99337500I0J-237500D01*
G01*
X104475000Y-99937500D01*
G75*
G02*
X104237500Y-100175000I-237500J0D01*
G01*
X103762500Y-100175000D01*
G75*
G02*
X103525000Y-99937500I0J237500D01*
G01*
X103525000Y-99337500D01*
G75*
G02*
X103762500Y-99100000I237500J0D01*
G01*
G37*
%TD*%
%TO.C,C28*%
G36*
G01*
X98262500Y-100825000D02*
X98737500Y-100825000D01*
G75*
G02*
X98975000Y-101062500I0J-237500D01*
G01*
X98975000Y-101662500D01*
G75*
G02*
X98737500Y-101900000I-237500J0D01*
G01*
X98262500Y-101900000D01*
G75*
G02*
X98025000Y-101662500I0J237500D01*
G01*
X98025000Y-101062500D01*
G75*
G02*
X98262500Y-100825000I237500J0D01*
G01*
G37*
G36*
G01*
X98262500Y-99100000D02*
X98737500Y-99100000D01*
G75*
G02*
X98975000Y-99337500I0J-237500D01*
G01*
X98975000Y-99937500D01*
G75*
G02*
X98737500Y-100175000I-237500J0D01*
G01*
X98262500Y-100175000D01*
G75*
G02*
X98025000Y-99937500I0J237500D01*
G01*
X98025000Y-99337500D01*
G75*
G02*
X98262500Y-99100000I237500J0D01*
G01*
G37*
%TD*%
%TO.C,C29*%
G36*
G01*
X96400000Y-103762500D02*
X96400000Y-104237500D01*
G75*
G02*
X96162500Y-104475000I-237500J0D01*
G01*
X95562500Y-104475000D01*
G75*
G02*
X95325000Y-104237500I0J237500D01*
G01*
X95325000Y-103762500D01*
G75*
G02*
X95562500Y-103525000I237500J0D01*
G01*
X96162500Y-103525000D01*
G75*
G02*
X96400000Y-103762500I0J-237500D01*
G01*
G37*
G36*
G01*
X94675000Y-103762500D02*
X94675000Y-104237500D01*
G75*
G02*
X94437500Y-104475000I-237500J0D01*
G01*
X93837500Y-104475000D01*
G75*
G02*
X93600000Y-104237500I0J237500D01*
G01*
X93600000Y-103762500D01*
G75*
G02*
X93837500Y-103525000I237500J0D01*
G01*
X94437500Y-103525000D01*
G75*
G02*
X94675000Y-103762500I0J-237500D01*
G01*
G37*
%TD*%
%TO.C,C30*%
G36*
G01*
X103762500Y-114825000D02*
X104237500Y-114825000D01*
G75*
G02*
X104475000Y-115062500I0J-237500D01*
G01*
X104475000Y-115662500D01*
G75*
G02*
X104237500Y-115900000I-237500J0D01*
G01*
X103762500Y-115900000D01*
G75*
G02*
X103525000Y-115662500I0J237500D01*
G01*
X103525000Y-115062500D01*
G75*
G02*
X103762500Y-114825000I237500J0D01*
G01*
G37*
G36*
G01*
X103762500Y-113100000D02*
X104237500Y-113100000D01*
G75*
G02*
X104475000Y-113337500I0J-237500D01*
G01*
X104475000Y-113937500D01*
G75*
G02*
X104237500Y-114175000I-237500J0D01*
G01*
X103762500Y-114175000D01*
G75*
G02*
X103525000Y-113937500I0J237500D01*
G01*
X103525000Y-113337500D01*
G75*
G02*
X103762500Y-113100000I237500J0D01*
G01*
G37*
%TD*%
%TO.C,C31*%
G36*
G01*
X98262500Y-113100000D02*
X98737500Y-113100000D01*
G75*
G02*
X98975000Y-113337500I0J-237500D01*
G01*
X98975000Y-113937500D01*
G75*
G02*
X98737500Y-114175000I-237500J0D01*
G01*
X98262500Y-114175000D01*
G75*
G02*
X98025000Y-113937500I0J237500D01*
G01*
X98025000Y-113337500D01*
G75*
G02*
X98262500Y-113100000I237500J0D01*
G01*
G37*
G36*
G01*
X98262500Y-114825000D02*
X98737500Y-114825000D01*
G75*
G02*
X98975000Y-115062500I0J-237500D01*
G01*
X98975000Y-115662500D01*
G75*
G02*
X98737500Y-115900000I-237500J0D01*
G01*
X98262500Y-115900000D01*
G75*
G02*
X98025000Y-115662500I0J237500D01*
G01*
X98025000Y-115062500D01*
G75*
G02*
X98262500Y-114825000I237500J0D01*
G01*
G37*
%TD*%
%TO.C,C32*%
G36*
G01*
X96400000Y-117262500D02*
X96400000Y-117737500D01*
G75*
G02*
X96162500Y-117975000I-237500J0D01*
G01*
X95562500Y-117975000D01*
G75*
G02*
X95325000Y-117737500I0J237500D01*
G01*
X95325000Y-117262500D01*
G75*
G02*
X95562500Y-117025000I237500J0D01*
G01*
X96162500Y-117025000D01*
G75*
G02*
X96400000Y-117262500I0J-237500D01*
G01*
G37*
G36*
G01*
X94675000Y-117262500D02*
X94675000Y-117737500D01*
G75*
G02*
X94437500Y-117975000I-237500J0D01*
G01*
X93837500Y-117975000D01*
G75*
G02*
X93600000Y-117737500I0J237500D01*
G01*
X93600000Y-117262500D01*
G75*
G02*
X93837500Y-117025000I237500J0D01*
G01*
X94437500Y-117025000D01*
G75*
G02*
X94675000Y-117262500I0J-237500D01*
G01*
G37*
%TD*%
%TO.C,C33*%
G36*
G01*
X103762500Y-128825000D02*
X104237500Y-128825000D01*
G75*
G02*
X104475000Y-129062500I0J-237500D01*
G01*
X104475000Y-129662500D01*
G75*
G02*
X104237500Y-129900000I-237500J0D01*
G01*
X103762500Y-129900000D01*
G75*
G02*
X103525000Y-129662500I0J237500D01*
G01*
X103525000Y-129062500D01*
G75*
G02*
X103762500Y-128825000I237500J0D01*
G01*
G37*
G36*
G01*
X103762500Y-127100000D02*
X104237500Y-127100000D01*
G75*
G02*
X104475000Y-127337500I0J-237500D01*
G01*
X104475000Y-127937500D01*
G75*
G02*
X104237500Y-128175000I-237500J0D01*
G01*
X103762500Y-128175000D01*
G75*
G02*
X103525000Y-127937500I0J237500D01*
G01*
X103525000Y-127337500D01*
G75*
G02*
X103762500Y-127100000I237500J0D01*
G01*
G37*
%TD*%
%TO.C,C34*%
G36*
G01*
X98262500Y-128825000D02*
X98737500Y-128825000D01*
G75*
G02*
X98975000Y-129062500I0J-237500D01*
G01*
X98975000Y-129662500D01*
G75*
G02*
X98737500Y-129900000I-237500J0D01*
G01*
X98262500Y-129900000D01*
G75*
G02*
X98025000Y-129662500I0J237500D01*
G01*
X98025000Y-129062500D01*
G75*
G02*
X98262500Y-128825000I237500J0D01*
G01*
G37*
G36*
G01*
X98262500Y-127100000D02*
X98737500Y-127100000D01*
G75*
G02*
X98975000Y-127337500I0J-237500D01*
G01*
X98975000Y-127937500D01*
G75*
G02*
X98737500Y-128175000I-237500J0D01*
G01*
X98262500Y-128175000D01*
G75*
G02*
X98025000Y-127937500I0J237500D01*
G01*
X98025000Y-127337500D01*
G75*
G02*
X98262500Y-127100000I237500J0D01*
G01*
G37*
%TD*%
%TO.C,C35*%
G36*
G01*
X94675000Y-130762500D02*
X94675000Y-131237500D01*
G75*
G02*
X94437500Y-131475000I-237500J0D01*
G01*
X93837500Y-131475000D01*
G75*
G02*
X93600000Y-131237500I0J237500D01*
G01*
X93600000Y-130762500D01*
G75*
G02*
X93837500Y-130525000I237500J0D01*
G01*
X94437500Y-130525000D01*
G75*
G02*
X94675000Y-130762500I0J-237500D01*
G01*
G37*
G36*
G01*
X96400000Y-130762500D02*
X96400000Y-131237500D01*
G75*
G02*
X96162500Y-131475000I-237500J0D01*
G01*
X95562500Y-131475000D01*
G75*
G02*
X95325000Y-131237500I0J237500D01*
G01*
X95325000Y-130762500D01*
G75*
G02*
X95562500Y-130525000I237500J0D01*
G01*
X96162500Y-130525000D01*
G75*
G02*
X96400000Y-130762500I0J-237500D01*
G01*
G37*
%TD*%
%TO.C,C36*%
G36*
G01*
X103762500Y-141600000D02*
X104237500Y-141600000D01*
G75*
G02*
X104475000Y-141837500I0J-237500D01*
G01*
X104475000Y-142437500D01*
G75*
G02*
X104237500Y-142675000I-237500J0D01*
G01*
X103762500Y-142675000D01*
G75*
G02*
X103525000Y-142437500I0J237500D01*
G01*
X103525000Y-141837500D01*
G75*
G02*
X103762500Y-141600000I237500J0D01*
G01*
G37*
G36*
G01*
X103762500Y-143325000D02*
X104237500Y-143325000D01*
G75*
G02*
X104475000Y-143562500I0J-237500D01*
G01*
X104475000Y-144162500D01*
G75*
G02*
X104237500Y-144400000I-237500J0D01*
G01*
X103762500Y-144400000D01*
G75*
G02*
X103525000Y-144162500I0J237500D01*
G01*
X103525000Y-143562500D01*
G75*
G02*
X103762500Y-143325000I237500J0D01*
G01*
G37*
%TD*%
%TO.C,C37*%
G36*
G01*
X98262500Y-141100000D02*
X98737500Y-141100000D01*
G75*
G02*
X98975000Y-141337500I0J-237500D01*
G01*
X98975000Y-141937500D01*
G75*
G02*
X98737500Y-142175000I-237500J0D01*
G01*
X98262500Y-142175000D01*
G75*
G02*
X98025000Y-141937500I0J237500D01*
G01*
X98025000Y-141337500D01*
G75*
G02*
X98262500Y-141100000I237500J0D01*
G01*
G37*
G36*
G01*
X98262500Y-142825000D02*
X98737500Y-142825000D01*
G75*
G02*
X98975000Y-143062500I0J-237500D01*
G01*
X98975000Y-143662500D01*
G75*
G02*
X98737500Y-143900000I-237500J0D01*
G01*
X98262500Y-143900000D01*
G75*
G02*
X98025000Y-143662500I0J237500D01*
G01*
X98025000Y-143062500D01*
G75*
G02*
X98262500Y-142825000I237500J0D01*
G01*
G37*
%TD*%
%TO.C,C38*%
G36*
G01*
X94675000Y-144762500D02*
X94675000Y-145237500D01*
G75*
G02*
X94437500Y-145475000I-237500J0D01*
G01*
X93837500Y-145475000D01*
G75*
G02*
X93600000Y-145237500I0J237500D01*
G01*
X93600000Y-144762500D01*
G75*
G02*
X93837500Y-144525000I237500J0D01*
G01*
X94437500Y-144525000D01*
G75*
G02*
X94675000Y-144762500I0J-237500D01*
G01*
G37*
G36*
G01*
X96400000Y-144762500D02*
X96400000Y-145237500D01*
G75*
G02*
X96162500Y-145475000I-237500J0D01*
G01*
X95562500Y-145475000D01*
G75*
G02*
X95325000Y-145237500I0J237500D01*
G01*
X95325000Y-144762500D01*
G75*
G02*
X95562500Y-144525000I237500J0D01*
G01*
X96162500Y-144525000D01*
G75*
G02*
X96400000Y-144762500I0J-237500D01*
G01*
G37*
%TD*%
%TO.C,C39*%
G36*
G01*
X103762500Y-157325000D02*
X104237500Y-157325000D01*
G75*
G02*
X104475000Y-157562500I0J-237500D01*
G01*
X104475000Y-158162500D01*
G75*
G02*
X104237500Y-158400000I-237500J0D01*
G01*
X103762500Y-158400000D01*
G75*
G02*
X103525000Y-158162500I0J237500D01*
G01*
X103525000Y-157562500D01*
G75*
G02*
X103762500Y-157325000I237500J0D01*
G01*
G37*
G36*
G01*
X103762500Y-155600000D02*
X104237500Y-155600000D01*
G75*
G02*
X104475000Y-155837500I0J-237500D01*
G01*
X104475000Y-156437500D01*
G75*
G02*
X104237500Y-156675000I-237500J0D01*
G01*
X103762500Y-156675000D01*
G75*
G02*
X103525000Y-156437500I0J237500D01*
G01*
X103525000Y-155837500D01*
G75*
G02*
X103762500Y-155600000I237500J0D01*
G01*
G37*
%TD*%
%TO.C,C40*%
G36*
G01*
X98262500Y-156825000D02*
X98737500Y-156825000D01*
G75*
G02*
X98975000Y-157062500I0J-237500D01*
G01*
X98975000Y-157662500D01*
G75*
G02*
X98737500Y-157900000I-237500J0D01*
G01*
X98262500Y-157900000D01*
G75*
G02*
X98025000Y-157662500I0J237500D01*
G01*
X98025000Y-157062500D01*
G75*
G02*
X98262500Y-156825000I237500J0D01*
G01*
G37*
G36*
G01*
X98262500Y-155100000D02*
X98737500Y-155100000D01*
G75*
G02*
X98975000Y-155337500I0J-237500D01*
G01*
X98975000Y-155937500D01*
G75*
G02*
X98737500Y-156175000I-237500J0D01*
G01*
X98262500Y-156175000D01*
G75*
G02*
X98025000Y-155937500I0J237500D01*
G01*
X98025000Y-155337500D01*
G75*
G02*
X98262500Y-155100000I237500J0D01*
G01*
G37*
%TD*%
%TO.C,C41*%
G36*
G01*
X96400000Y-158762500D02*
X96400000Y-159237500D01*
G75*
G02*
X96162500Y-159475000I-237500J0D01*
G01*
X95562500Y-159475000D01*
G75*
G02*
X95325000Y-159237500I0J237500D01*
G01*
X95325000Y-158762500D01*
G75*
G02*
X95562500Y-158525000I237500J0D01*
G01*
X96162500Y-158525000D01*
G75*
G02*
X96400000Y-158762500I0J-237500D01*
G01*
G37*
G36*
G01*
X94675000Y-158762500D02*
X94675000Y-159237500D01*
G75*
G02*
X94437500Y-159475000I-237500J0D01*
G01*
X93837500Y-159475000D01*
G75*
G02*
X93600000Y-159237500I0J237500D01*
G01*
X93600000Y-158762500D01*
G75*
G02*
X93837500Y-158525000I237500J0D01*
G01*
X94437500Y-158525000D01*
G75*
G02*
X94675000Y-158762500I0J-237500D01*
G01*
G37*
%TD*%
%TO.C,C42*%
G36*
G01*
X123762500Y-84100000D02*
X124237500Y-84100000D01*
G75*
G02*
X124475000Y-84337500I0J-237500D01*
G01*
X124475000Y-84937500D01*
G75*
G02*
X124237500Y-85175000I-237500J0D01*
G01*
X123762500Y-85175000D01*
G75*
G02*
X123525000Y-84937500I0J237500D01*
G01*
X123525000Y-84337500D01*
G75*
G02*
X123762500Y-84100000I237500J0D01*
G01*
G37*
G36*
G01*
X123762500Y-85825000D02*
X124237500Y-85825000D01*
G75*
G02*
X124475000Y-86062500I0J-237500D01*
G01*
X124475000Y-86662500D01*
G75*
G02*
X124237500Y-86900000I-237500J0D01*
G01*
X123762500Y-86900000D01*
G75*
G02*
X123525000Y-86662500I0J237500D01*
G01*
X123525000Y-86062500D01*
G75*
G02*
X123762500Y-85825000I237500J0D01*
G01*
G37*
%TD*%
%TO.C,C43*%
G36*
G01*
X118262500Y-85100000D02*
X118737500Y-85100000D01*
G75*
G02*
X118975000Y-85337500I0J-237500D01*
G01*
X118975000Y-85937500D01*
G75*
G02*
X118737500Y-86175000I-237500J0D01*
G01*
X118262500Y-86175000D01*
G75*
G02*
X118025000Y-85937500I0J237500D01*
G01*
X118025000Y-85337500D01*
G75*
G02*
X118262500Y-85100000I237500J0D01*
G01*
G37*
G36*
G01*
X118262500Y-86825000D02*
X118737500Y-86825000D01*
G75*
G02*
X118975000Y-87062500I0J-237500D01*
G01*
X118975000Y-87662500D01*
G75*
G02*
X118737500Y-87900000I-237500J0D01*
G01*
X118262500Y-87900000D01*
G75*
G02*
X118025000Y-87662500I0J237500D01*
G01*
X118025000Y-87062500D01*
G75*
G02*
X118262500Y-86825000I237500J0D01*
G01*
G37*
%TD*%
%TO.C,C44*%
G36*
G01*
X115900000Y-89762500D02*
X115900000Y-90237500D01*
G75*
G02*
X115662500Y-90475000I-237500J0D01*
G01*
X115062500Y-90475000D01*
G75*
G02*
X114825000Y-90237500I0J237500D01*
G01*
X114825000Y-89762500D01*
G75*
G02*
X115062500Y-89525000I237500J0D01*
G01*
X115662500Y-89525000D01*
G75*
G02*
X115900000Y-89762500I0J-237500D01*
G01*
G37*
G36*
G01*
X114175000Y-89762500D02*
X114175000Y-90237500D01*
G75*
G02*
X113937500Y-90475000I-237500J0D01*
G01*
X113337500Y-90475000D01*
G75*
G02*
X113100000Y-90237500I0J237500D01*
G01*
X113100000Y-89762500D01*
G75*
G02*
X113337500Y-89525000I237500J0D01*
G01*
X113937500Y-89525000D01*
G75*
G02*
X114175000Y-89762500I0J-237500D01*
G01*
G37*
%TD*%
%TO.C,C45*%
G36*
G01*
X123762500Y-99100000D02*
X124237500Y-99100000D01*
G75*
G02*
X124475000Y-99337500I0J-237500D01*
G01*
X124475000Y-99937500D01*
G75*
G02*
X124237500Y-100175000I-237500J0D01*
G01*
X123762500Y-100175000D01*
G75*
G02*
X123525000Y-99937500I0J237500D01*
G01*
X123525000Y-99337500D01*
G75*
G02*
X123762500Y-99100000I237500J0D01*
G01*
G37*
G36*
G01*
X123762500Y-100825000D02*
X124237500Y-100825000D01*
G75*
G02*
X124475000Y-101062500I0J-237500D01*
G01*
X124475000Y-101662500D01*
G75*
G02*
X124237500Y-101900000I-237500J0D01*
G01*
X123762500Y-101900000D01*
G75*
G02*
X123525000Y-101662500I0J237500D01*
G01*
X123525000Y-101062500D01*
G75*
G02*
X123762500Y-100825000I237500J0D01*
G01*
G37*
%TD*%
%TO.C,C46*%
G36*
G01*
X118262500Y-99100000D02*
X118737500Y-99100000D01*
G75*
G02*
X118975000Y-99337500I0J-237500D01*
G01*
X118975000Y-99937500D01*
G75*
G02*
X118737500Y-100175000I-237500J0D01*
G01*
X118262500Y-100175000D01*
G75*
G02*
X118025000Y-99937500I0J237500D01*
G01*
X118025000Y-99337500D01*
G75*
G02*
X118262500Y-99100000I237500J0D01*
G01*
G37*
G36*
G01*
X118262500Y-100825000D02*
X118737500Y-100825000D01*
G75*
G02*
X118975000Y-101062500I0J-237500D01*
G01*
X118975000Y-101662500D01*
G75*
G02*
X118737500Y-101900000I-237500J0D01*
G01*
X118262500Y-101900000D01*
G75*
G02*
X118025000Y-101662500I0J237500D01*
G01*
X118025000Y-101062500D01*
G75*
G02*
X118262500Y-100825000I237500J0D01*
G01*
G37*
%TD*%
%TO.C,C47*%
G36*
G01*
X115900000Y-103762500D02*
X115900000Y-104237500D01*
G75*
G02*
X115662500Y-104475000I-237500J0D01*
G01*
X115062500Y-104475000D01*
G75*
G02*
X114825000Y-104237500I0J237500D01*
G01*
X114825000Y-103762500D01*
G75*
G02*
X115062500Y-103525000I237500J0D01*
G01*
X115662500Y-103525000D01*
G75*
G02*
X115900000Y-103762500I0J-237500D01*
G01*
G37*
G36*
G01*
X114175000Y-103762500D02*
X114175000Y-104237500D01*
G75*
G02*
X113937500Y-104475000I-237500J0D01*
G01*
X113337500Y-104475000D01*
G75*
G02*
X113100000Y-104237500I0J237500D01*
G01*
X113100000Y-103762500D01*
G75*
G02*
X113337500Y-103525000I237500J0D01*
G01*
X113937500Y-103525000D01*
G75*
G02*
X114175000Y-103762500I0J-237500D01*
G01*
G37*
%TD*%
%TO.C,C48*%
G36*
G01*
X123762500Y-114825000D02*
X124237500Y-114825000D01*
G75*
G02*
X124475000Y-115062500I0J-237500D01*
G01*
X124475000Y-115662500D01*
G75*
G02*
X124237500Y-115900000I-237500J0D01*
G01*
X123762500Y-115900000D01*
G75*
G02*
X123525000Y-115662500I0J237500D01*
G01*
X123525000Y-115062500D01*
G75*
G02*
X123762500Y-114825000I237500J0D01*
G01*
G37*
G36*
G01*
X123762500Y-113100000D02*
X124237500Y-113100000D01*
G75*
G02*
X124475000Y-113337500I0J-237500D01*
G01*
X124475000Y-113937500D01*
G75*
G02*
X124237500Y-114175000I-237500J0D01*
G01*
X123762500Y-114175000D01*
G75*
G02*
X123525000Y-113937500I0J237500D01*
G01*
X123525000Y-113337500D01*
G75*
G02*
X123762500Y-113100000I237500J0D01*
G01*
G37*
%TD*%
%TO.C,C49*%
G36*
G01*
X118262500Y-113100000D02*
X118737500Y-113100000D01*
G75*
G02*
X118975000Y-113337500I0J-237500D01*
G01*
X118975000Y-113937500D01*
G75*
G02*
X118737500Y-114175000I-237500J0D01*
G01*
X118262500Y-114175000D01*
G75*
G02*
X118025000Y-113937500I0J237500D01*
G01*
X118025000Y-113337500D01*
G75*
G02*
X118262500Y-113100000I237500J0D01*
G01*
G37*
G36*
G01*
X118262500Y-114825000D02*
X118737500Y-114825000D01*
G75*
G02*
X118975000Y-115062500I0J-237500D01*
G01*
X118975000Y-115662500D01*
G75*
G02*
X118737500Y-115900000I-237500J0D01*
G01*
X118262500Y-115900000D01*
G75*
G02*
X118025000Y-115662500I0J237500D01*
G01*
X118025000Y-115062500D01*
G75*
G02*
X118262500Y-114825000I237500J0D01*
G01*
G37*
%TD*%
%TO.C,C50*%
G36*
G01*
X114175000Y-117262500D02*
X114175000Y-117737500D01*
G75*
G02*
X113937500Y-117975000I-237500J0D01*
G01*
X113337500Y-117975000D01*
G75*
G02*
X113100000Y-117737500I0J237500D01*
G01*
X113100000Y-117262500D01*
G75*
G02*
X113337500Y-117025000I237500J0D01*
G01*
X113937500Y-117025000D01*
G75*
G02*
X114175000Y-117262500I0J-237500D01*
G01*
G37*
G36*
G01*
X115900000Y-117262500D02*
X115900000Y-117737500D01*
G75*
G02*
X115662500Y-117975000I-237500J0D01*
G01*
X115062500Y-117975000D01*
G75*
G02*
X114825000Y-117737500I0J237500D01*
G01*
X114825000Y-117262500D01*
G75*
G02*
X115062500Y-117025000I237500J0D01*
G01*
X115662500Y-117025000D01*
G75*
G02*
X115900000Y-117262500I0J-237500D01*
G01*
G37*
%TD*%
%TO.C,C51*%
G36*
G01*
X123762500Y-128825000D02*
X124237500Y-128825000D01*
G75*
G02*
X124475000Y-129062500I0J-237500D01*
G01*
X124475000Y-129662500D01*
G75*
G02*
X124237500Y-129900000I-237500J0D01*
G01*
X123762500Y-129900000D01*
G75*
G02*
X123525000Y-129662500I0J237500D01*
G01*
X123525000Y-129062500D01*
G75*
G02*
X123762500Y-128825000I237500J0D01*
G01*
G37*
G36*
G01*
X123762500Y-127100000D02*
X124237500Y-127100000D01*
G75*
G02*
X124475000Y-127337500I0J-237500D01*
G01*
X124475000Y-127937500D01*
G75*
G02*
X124237500Y-128175000I-237500J0D01*
G01*
X123762500Y-128175000D01*
G75*
G02*
X123525000Y-127937500I0J237500D01*
G01*
X123525000Y-127337500D01*
G75*
G02*
X123762500Y-127100000I237500J0D01*
G01*
G37*
%TD*%
%TO.C,C52*%
G36*
G01*
X118262500Y-127100000D02*
X118737500Y-127100000D01*
G75*
G02*
X118975000Y-127337500I0J-237500D01*
G01*
X118975000Y-127937500D01*
G75*
G02*
X118737500Y-128175000I-237500J0D01*
G01*
X118262500Y-128175000D01*
G75*
G02*
X118025000Y-127937500I0J237500D01*
G01*
X118025000Y-127337500D01*
G75*
G02*
X118262500Y-127100000I237500J0D01*
G01*
G37*
G36*
G01*
X118262500Y-128825000D02*
X118737500Y-128825000D01*
G75*
G02*
X118975000Y-129062500I0J-237500D01*
G01*
X118975000Y-129662500D01*
G75*
G02*
X118737500Y-129900000I-237500J0D01*
G01*
X118262500Y-129900000D01*
G75*
G02*
X118025000Y-129662500I0J237500D01*
G01*
X118025000Y-129062500D01*
G75*
G02*
X118262500Y-128825000I237500J0D01*
G01*
G37*
%TD*%
%TO.C,C53*%
G36*
G01*
X114175000Y-130262500D02*
X114175000Y-130737500D01*
G75*
G02*
X113937500Y-130975000I-237500J0D01*
G01*
X113337500Y-130975000D01*
G75*
G02*
X113100000Y-130737500I0J237500D01*
G01*
X113100000Y-130262500D01*
G75*
G02*
X113337500Y-130025000I237500J0D01*
G01*
X113937500Y-130025000D01*
G75*
G02*
X114175000Y-130262500I0J-237500D01*
G01*
G37*
G36*
G01*
X115900000Y-130262500D02*
X115900000Y-130737500D01*
G75*
G02*
X115662500Y-130975000I-237500J0D01*
G01*
X115062500Y-130975000D01*
G75*
G02*
X114825000Y-130737500I0J237500D01*
G01*
X114825000Y-130262500D01*
G75*
G02*
X115062500Y-130025000I237500J0D01*
G01*
X115662500Y-130025000D01*
G75*
G02*
X115900000Y-130262500I0J-237500D01*
G01*
G37*
%TD*%
%TO.C,C54*%
G36*
G01*
X123762500Y-141100000D02*
X124237500Y-141100000D01*
G75*
G02*
X124475000Y-141337500I0J-237500D01*
G01*
X124475000Y-141937500D01*
G75*
G02*
X124237500Y-142175000I-237500J0D01*
G01*
X123762500Y-142175000D01*
G75*
G02*
X123525000Y-141937500I0J237500D01*
G01*
X123525000Y-141337500D01*
G75*
G02*
X123762500Y-141100000I237500J0D01*
G01*
G37*
G36*
G01*
X123762500Y-142825000D02*
X124237500Y-142825000D01*
G75*
G02*
X124475000Y-143062500I0J-237500D01*
G01*
X124475000Y-143662500D01*
G75*
G02*
X124237500Y-143900000I-237500J0D01*
G01*
X123762500Y-143900000D01*
G75*
G02*
X123525000Y-143662500I0J237500D01*
G01*
X123525000Y-143062500D01*
G75*
G02*
X123762500Y-142825000I237500J0D01*
G01*
G37*
%TD*%
%TO.C,C55*%
G36*
G01*
X118262500Y-142825000D02*
X118737500Y-142825000D01*
G75*
G02*
X118975000Y-143062500I0J-237500D01*
G01*
X118975000Y-143662500D01*
G75*
G02*
X118737500Y-143900000I-237500J0D01*
G01*
X118262500Y-143900000D01*
G75*
G02*
X118025000Y-143662500I0J237500D01*
G01*
X118025000Y-143062500D01*
G75*
G02*
X118262500Y-142825000I237500J0D01*
G01*
G37*
G36*
G01*
X118262500Y-141100000D02*
X118737500Y-141100000D01*
G75*
G02*
X118975000Y-141337500I0J-237500D01*
G01*
X118975000Y-141937500D01*
G75*
G02*
X118737500Y-142175000I-237500J0D01*
G01*
X118262500Y-142175000D01*
G75*
G02*
X118025000Y-141937500I0J237500D01*
G01*
X118025000Y-141337500D01*
G75*
G02*
X118262500Y-141100000I237500J0D01*
G01*
G37*
%TD*%
%TO.C,C56*%
G36*
G01*
X114175000Y-144762500D02*
X114175000Y-145237500D01*
G75*
G02*
X113937500Y-145475000I-237500J0D01*
G01*
X113337500Y-145475000D01*
G75*
G02*
X113100000Y-145237500I0J237500D01*
G01*
X113100000Y-144762500D01*
G75*
G02*
X113337500Y-144525000I237500J0D01*
G01*
X113937500Y-144525000D01*
G75*
G02*
X114175000Y-144762500I0J-237500D01*
G01*
G37*
G36*
G01*
X115900000Y-144762500D02*
X115900000Y-145237500D01*
G75*
G02*
X115662500Y-145475000I-237500J0D01*
G01*
X115062500Y-145475000D01*
G75*
G02*
X114825000Y-145237500I0J237500D01*
G01*
X114825000Y-144762500D01*
G75*
G02*
X115062500Y-144525000I237500J0D01*
G01*
X115662500Y-144525000D01*
G75*
G02*
X115900000Y-144762500I0J-237500D01*
G01*
G37*
%TD*%
%TO.C,C57*%
G36*
G01*
X123762500Y-155600000D02*
X124237500Y-155600000D01*
G75*
G02*
X124475000Y-155837500I0J-237500D01*
G01*
X124475000Y-156437500D01*
G75*
G02*
X124237500Y-156675000I-237500J0D01*
G01*
X123762500Y-156675000D01*
G75*
G02*
X123525000Y-156437500I0J237500D01*
G01*
X123525000Y-155837500D01*
G75*
G02*
X123762500Y-155600000I237500J0D01*
G01*
G37*
G36*
G01*
X123762500Y-157325000D02*
X124237500Y-157325000D01*
G75*
G02*
X124475000Y-157562500I0J-237500D01*
G01*
X124475000Y-158162500D01*
G75*
G02*
X124237500Y-158400000I-237500J0D01*
G01*
X123762500Y-158400000D01*
G75*
G02*
X123525000Y-158162500I0J237500D01*
G01*
X123525000Y-157562500D01*
G75*
G02*
X123762500Y-157325000I237500J0D01*
G01*
G37*
%TD*%
%TO.C,C58*%
G36*
G01*
X118262500Y-156825000D02*
X118737500Y-156825000D01*
G75*
G02*
X118975000Y-157062500I0J-237500D01*
G01*
X118975000Y-157662500D01*
G75*
G02*
X118737500Y-157900000I-237500J0D01*
G01*
X118262500Y-157900000D01*
G75*
G02*
X118025000Y-157662500I0J237500D01*
G01*
X118025000Y-157062500D01*
G75*
G02*
X118262500Y-156825000I237500J0D01*
G01*
G37*
G36*
G01*
X118262500Y-155100000D02*
X118737500Y-155100000D01*
G75*
G02*
X118975000Y-155337500I0J-237500D01*
G01*
X118975000Y-155937500D01*
G75*
G02*
X118737500Y-156175000I-237500J0D01*
G01*
X118262500Y-156175000D01*
G75*
G02*
X118025000Y-155937500I0J237500D01*
G01*
X118025000Y-155337500D01*
G75*
G02*
X118262500Y-155100000I237500J0D01*
G01*
G37*
%TD*%
%TO.C,C59*%
G36*
G01*
X116100000Y-158662500D02*
X116100000Y-159137500D01*
G75*
G02*
X115862500Y-159375000I-237500J0D01*
G01*
X115262500Y-159375000D01*
G75*
G02*
X115025000Y-159137500I0J237500D01*
G01*
X115025000Y-158662500D01*
G75*
G02*
X115262500Y-158425000I237500J0D01*
G01*
X115862500Y-158425000D01*
G75*
G02*
X116100000Y-158662500I0J-237500D01*
G01*
G37*
G36*
G01*
X114375000Y-158662500D02*
X114375000Y-159137500D01*
G75*
G02*
X114137500Y-159375000I-237500J0D01*
G01*
X113537500Y-159375000D01*
G75*
G02*
X113300000Y-159137500I0J237500D01*
G01*
X113300000Y-158662500D01*
G75*
G02*
X113537500Y-158425000I237500J0D01*
G01*
X114137500Y-158425000D01*
G75*
G02*
X114375000Y-158662500I0J-237500D01*
G01*
G37*
%TD*%
%TO.C,C60*%
G36*
G01*
X143762500Y-99100000D02*
X144237500Y-99100000D01*
G75*
G02*
X144475000Y-99337500I0J-237500D01*
G01*
X144475000Y-99937500D01*
G75*
G02*
X144237500Y-100175000I-237500J0D01*
G01*
X143762500Y-100175000D01*
G75*
G02*
X143525000Y-99937500I0J237500D01*
G01*
X143525000Y-99337500D01*
G75*
G02*
X143762500Y-99100000I237500J0D01*
G01*
G37*
G36*
G01*
X143762500Y-100825000D02*
X144237500Y-100825000D01*
G75*
G02*
X144475000Y-101062500I0J-237500D01*
G01*
X144475000Y-101662500D01*
G75*
G02*
X144237500Y-101900000I-237500J0D01*
G01*
X143762500Y-101900000D01*
G75*
G02*
X143525000Y-101662500I0J237500D01*
G01*
X143525000Y-101062500D01*
G75*
G02*
X143762500Y-100825000I237500J0D01*
G01*
G37*
%TD*%
%TO.C,C61*%
G36*
G01*
X138262500Y-99100000D02*
X138737500Y-99100000D01*
G75*
G02*
X138975000Y-99337500I0J-237500D01*
G01*
X138975000Y-99937500D01*
G75*
G02*
X138737500Y-100175000I-237500J0D01*
G01*
X138262500Y-100175000D01*
G75*
G02*
X138025000Y-99937500I0J237500D01*
G01*
X138025000Y-99337500D01*
G75*
G02*
X138262500Y-99100000I237500J0D01*
G01*
G37*
G36*
G01*
X138262500Y-100825000D02*
X138737500Y-100825000D01*
G75*
G02*
X138975000Y-101062500I0J-237500D01*
G01*
X138975000Y-101662500D01*
G75*
G02*
X138737500Y-101900000I-237500J0D01*
G01*
X138262500Y-101900000D01*
G75*
G02*
X138025000Y-101662500I0J237500D01*
G01*
X138025000Y-101062500D01*
G75*
G02*
X138262500Y-100825000I237500J0D01*
G01*
G37*
%TD*%
%TO.C,C62*%
G36*
G01*
X134175000Y-103762500D02*
X134175000Y-104237500D01*
G75*
G02*
X133937500Y-104475000I-237500J0D01*
G01*
X133337500Y-104475000D01*
G75*
G02*
X133100000Y-104237500I0J237500D01*
G01*
X133100000Y-103762500D01*
G75*
G02*
X133337500Y-103525000I237500J0D01*
G01*
X133937500Y-103525000D01*
G75*
G02*
X134175000Y-103762500I0J-237500D01*
G01*
G37*
G36*
G01*
X135900000Y-103762500D02*
X135900000Y-104237500D01*
G75*
G02*
X135662500Y-104475000I-237500J0D01*
G01*
X135062500Y-104475000D01*
G75*
G02*
X134825000Y-104237500I0J237500D01*
G01*
X134825000Y-103762500D01*
G75*
G02*
X135062500Y-103525000I237500J0D01*
G01*
X135662500Y-103525000D01*
G75*
G02*
X135900000Y-103762500I0J-237500D01*
G01*
G37*
%TD*%
%TO.C,C63*%
G36*
G01*
X143762500Y-114825000D02*
X144237500Y-114825000D01*
G75*
G02*
X144475000Y-115062500I0J-237500D01*
G01*
X144475000Y-115662500D01*
G75*
G02*
X144237500Y-115900000I-237500J0D01*
G01*
X143762500Y-115900000D01*
G75*
G02*
X143525000Y-115662500I0J237500D01*
G01*
X143525000Y-115062500D01*
G75*
G02*
X143762500Y-114825000I237500J0D01*
G01*
G37*
G36*
G01*
X143762500Y-113100000D02*
X144237500Y-113100000D01*
G75*
G02*
X144475000Y-113337500I0J-237500D01*
G01*
X144475000Y-113937500D01*
G75*
G02*
X144237500Y-114175000I-237500J0D01*
G01*
X143762500Y-114175000D01*
G75*
G02*
X143525000Y-113937500I0J237500D01*
G01*
X143525000Y-113337500D01*
G75*
G02*
X143762500Y-113100000I237500J0D01*
G01*
G37*
%TD*%
%TO.C,C64*%
G36*
G01*
X138262500Y-114825000D02*
X138737500Y-114825000D01*
G75*
G02*
X138975000Y-115062500I0J-237500D01*
G01*
X138975000Y-115662500D01*
G75*
G02*
X138737500Y-115900000I-237500J0D01*
G01*
X138262500Y-115900000D01*
G75*
G02*
X138025000Y-115662500I0J237500D01*
G01*
X138025000Y-115062500D01*
G75*
G02*
X138262500Y-114825000I237500J0D01*
G01*
G37*
G36*
G01*
X138262500Y-113100000D02*
X138737500Y-113100000D01*
G75*
G02*
X138975000Y-113337500I0J-237500D01*
G01*
X138975000Y-113937500D01*
G75*
G02*
X138737500Y-114175000I-237500J0D01*
G01*
X138262500Y-114175000D01*
G75*
G02*
X138025000Y-113937500I0J237500D01*
G01*
X138025000Y-113337500D01*
G75*
G02*
X138262500Y-113100000I237500J0D01*
G01*
G37*
%TD*%
%TO.C,C65*%
G36*
G01*
X135900000Y-117262500D02*
X135900000Y-117737500D01*
G75*
G02*
X135662500Y-117975000I-237500J0D01*
G01*
X135062500Y-117975000D01*
G75*
G02*
X134825000Y-117737500I0J237500D01*
G01*
X134825000Y-117262500D01*
G75*
G02*
X135062500Y-117025000I237500J0D01*
G01*
X135662500Y-117025000D01*
G75*
G02*
X135900000Y-117262500I0J-237500D01*
G01*
G37*
G36*
G01*
X134175000Y-117262500D02*
X134175000Y-117737500D01*
G75*
G02*
X133937500Y-117975000I-237500J0D01*
G01*
X133337500Y-117975000D01*
G75*
G02*
X133100000Y-117737500I0J237500D01*
G01*
X133100000Y-117262500D01*
G75*
G02*
X133337500Y-117025000I237500J0D01*
G01*
X133937500Y-117025000D01*
G75*
G02*
X134175000Y-117262500I0J-237500D01*
G01*
G37*
%TD*%
%TO.C,C66*%
G36*
G01*
X143762500Y-128825000D02*
X144237500Y-128825000D01*
G75*
G02*
X144475000Y-129062500I0J-237500D01*
G01*
X144475000Y-129662500D01*
G75*
G02*
X144237500Y-129900000I-237500J0D01*
G01*
X143762500Y-129900000D01*
G75*
G02*
X143525000Y-129662500I0J237500D01*
G01*
X143525000Y-129062500D01*
G75*
G02*
X143762500Y-128825000I237500J0D01*
G01*
G37*
G36*
G01*
X143762500Y-127100000D02*
X144237500Y-127100000D01*
G75*
G02*
X144475000Y-127337500I0J-237500D01*
G01*
X144475000Y-127937500D01*
G75*
G02*
X144237500Y-128175000I-237500J0D01*
G01*
X143762500Y-128175000D01*
G75*
G02*
X143525000Y-127937500I0J237500D01*
G01*
X143525000Y-127337500D01*
G75*
G02*
X143762500Y-127100000I237500J0D01*
G01*
G37*
%TD*%
%TO.C,C67*%
G36*
G01*
X138262500Y-127100000D02*
X138737500Y-127100000D01*
G75*
G02*
X138975000Y-127337500I0J-237500D01*
G01*
X138975000Y-127937500D01*
G75*
G02*
X138737500Y-128175000I-237500J0D01*
G01*
X138262500Y-128175000D01*
G75*
G02*
X138025000Y-127937500I0J237500D01*
G01*
X138025000Y-127337500D01*
G75*
G02*
X138262500Y-127100000I237500J0D01*
G01*
G37*
G36*
G01*
X138262500Y-128825000D02*
X138737500Y-128825000D01*
G75*
G02*
X138975000Y-129062500I0J-237500D01*
G01*
X138975000Y-129662500D01*
G75*
G02*
X138737500Y-129900000I-237500J0D01*
G01*
X138262500Y-129900000D01*
G75*
G02*
X138025000Y-129662500I0J237500D01*
G01*
X138025000Y-129062500D01*
G75*
G02*
X138262500Y-128825000I237500J0D01*
G01*
G37*
%TD*%
%TO.C,C68*%
G36*
G01*
X134175000Y-130262500D02*
X134175000Y-130737500D01*
G75*
G02*
X133937500Y-130975000I-237500J0D01*
G01*
X133337500Y-130975000D01*
G75*
G02*
X133100000Y-130737500I0J237500D01*
G01*
X133100000Y-130262500D01*
G75*
G02*
X133337500Y-130025000I237500J0D01*
G01*
X133937500Y-130025000D01*
G75*
G02*
X134175000Y-130262500I0J-237500D01*
G01*
G37*
G36*
G01*
X135900000Y-130262500D02*
X135900000Y-130737500D01*
G75*
G02*
X135662500Y-130975000I-237500J0D01*
G01*
X135062500Y-130975000D01*
G75*
G02*
X134825000Y-130737500I0J237500D01*
G01*
X134825000Y-130262500D01*
G75*
G02*
X135062500Y-130025000I237500J0D01*
G01*
X135662500Y-130025000D01*
G75*
G02*
X135900000Y-130262500I0J-237500D01*
G01*
G37*
%TD*%
%TO.C,C69*%
G36*
G01*
X143762500Y-141100000D02*
X144237500Y-141100000D01*
G75*
G02*
X144475000Y-141337500I0J-237500D01*
G01*
X144475000Y-141937500D01*
G75*
G02*
X144237500Y-142175000I-237500J0D01*
G01*
X143762500Y-142175000D01*
G75*
G02*
X143525000Y-141937500I0J237500D01*
G01*
X143525000Y-141337500D01*
G75*
G02*
X143762500Y-141100000I237500J0D01*
G01*
G37*
G36*
G01*
X143762500Y-142825000D02*
X144237500Y-142825000D01*
G75*
G02*
X144475000Y-143062500I0J-237500D01*
G01*
X144475000Y-143662500D01*
G75*
G02*
X144237500Y-143900000I-237500J0D01*
G01*
X143762500Y-143900000D01*
G75*
G02*
X143525000Y-143662500I0J237500D01*
G01*
X143525000Y-143062500D01*
G75*
G02*
X143762500Y-142825000I237500J0D01*
G01*
G37*
%TD*%
%TO.C,C70*%
G36*
G01*
X138262500Y-141100000D02*
X138737500Y-141100000D01*
G75*
G02*
X138975000Y-141337500I0J-237500D01*
G01*
X138975000Y-141937500D01*
G75*
G02*
X138737500Y-142175000I-237500J0D01*
G01*
X138262500Y-142175000D01*
G75*
G02*
X138025000Y-141937500I0J237500D01*
G01*
X138025000Y-141337500D01*
G75*
G02*
X138262500Y-141100000I237500J0D01*
G01*
G37*
G36*
G01*
X138262500Y-142825000D02*
X138737500Y-142825000D01*
G75*
G02*
X138975000Y-143062500I0J-237500D01*
G01*
X138975000Y-143662500D01*
G75*
G02*
X138737500Y-143900000I-237500J0D01*
G01*
X138262500Y-143900000D01*
G75*
G02*
X138025000Y-143662500I0J237500D01*
G01*
X138025000Y-143062500D01*
G75*
G02*
X138262500Y-142825000I237500J0D01*
G01*
G37*
%TD*%
%TO.C,C71*%
G36*
G01*
X135900000Y-144762500D02*
X135900000Y-145237500D01*
G75*
G02*
X135662500Y-145475000I-237500J0D01*
G01*
X135062500Y-145475000D01*
G75*
G02*
X134825000Y-145237500I0J237500D01*
G01*
X134825000Y-144762500D01*
G75*
G02*
X135062500Y-144525000I237500J0D01*
G01*
X135662500Y-144525000D01*
G75*
G02*
X135900000Y-144762500I0J-237500D01*
G01*
G37*
G36*
G01*
X134175000Y-144762500D02*
X134175000Y-145237500D01*
G75*
G02*
X133937500Y-145475000I-237500J0D01*
G01*
X133337500Y-145475000D01*
G75*
G02*
X133100000Y-145237500I0J237500D01*
G01*
X133100000Y-144762500D01*
G75*
G02*
X133337500Y-144525000I237500J0D01*
G01*
X133937500Y-144525000D01*
G75*
G02*
X134175000Y-144762500I0J-237500D01*
G01*
G37*
%TD*%
%TO.C,C72*%
G36*
G01*
X163762500Y-114825000D02*
X164237500Y-114825000D01*
G75*
G02*
X164475000Y-115062500I0J-237500D01*
G01*
X164475000Y-115662500D01*
G75*
G02*
X164237500Y-115900000I-237500J0D01*
G01*
X163762500Y-115900000D01*
G75*
G02*
X163525000Y-115662500I0J237500D01*
G01*
X163525000Y-115062500D01*
G75*
G02*
X163762500Y-114825000I237500J0D01*
G01*
G37*
G36*
G01*
X163762500Y-113100000D02*
X164237500Y-113100000D01*
G75*
G02*
X164475000Y-113337500I0J-237500D01*
G01*
X164475000Y-113937500D01*
G75*
G02*
X164237500Y-114175000I-237500J0D01*
G01*
X163762500Y-114175000D01*
G75*
G02*
X163525000Y-113937500I0J237500D01*
G01*
X163525000Y-113337500D01*
G75*
G02*
X163762500Y-113100000I237500J0D01*
G01*
G37*
%TD*%
%TO.C,C73*%
G36*
G01*
X158262500Y-113100000D02*
X158737500Y-113100000D01*
G75*
G02*
X158975000Y-113337500I0J-237500D01*
G01*
X158975000Y-113937500D01*
G75*
G02*
X158737500Y-114175000I-237500J0D01*
G01*
X158262500Y-114175000D01*
G75*
G02*
X158025000Y-113937500I0J237500D01*
G01*
X158025000Y-113337500D01*
G75*
G02*
X158262500Y-113100000I237500J0D01*
G01*
G37*
G36*
G01*
X158262500Y-114825000D02*
X158737500Y-114825000D01*
G75*
G02*
X158975000Y-115062500I0J-237500D01*
G01*
X158975000Y-115662500D01*
G75*
G02*
X158737500Y-115900000I-237500J0D01*
G01*
X158262500Y-115900000D01*
G75*
G02*
X158025000Y-115662500I0J237500D01*
G01*
X158025000Y-115062500D01*
G75*
G02*
X158262500Y-114825000I237500J0D01*
G01*
G37*
%TD*%
%TO.C,C74*%
G36*
G01*
X154175000Y-117262500D02*
X154175000Y-117737500D01*
G75*
G02*
X153937500Y-117975000I-237500J0D01*
G01*
X153337500Y-117975000D01*
G75*
G02*
X153100000Y-117737500I0J237500D01*
G01*
X153100000Y-117262500D01*
G75*
G02*
X153337500Y-117025000I237500J0D01*
G01*
X153937500Y-117025000D01*
G75*
G02*
X154175000Y-117262500I0J-237500D01*
G01*
G37*
G36*
G01*
X155900000Y-117262500D02*
X155900000Y-117737500D01*
G75*
G02*
X155662500Y-117975000I-237500J0D01*
G01*
X155062500Y-117975000D01*
G75*
G02*
X154825000Y-117737500I0J237500D01*
G01*
X154825000Y-117262500D01*
G75*
G02*
X155062500Y-117025000I237500J0D01*
G01*
X155662500Y-117025000D01*
G75*
G02*
X155900000Y-117262500I0J-237500D01*
G01*
G37*
%TD*%
%TO.C,C75*%
G36*
G01*
X163762500Y-127100000D02*
X164237500Y-127100000D01*
G75*
G02*
X164475000Y-127337500I0J-237500D01*
G01*
X164475000Y-127937500D01*
G75*
G02*
X164237500Y-128175000I-237500J0D01*
G01*
X163762500Y-128175000D01*
G75*
G02*
X163525000Y-127937500I0J237500D01*
G01*
X163525000Y-127337500D01*
G75*
G02*
X163762500Y-127100000I237500J0D01*
G01*
G37*
G36*
G01*
X163762500Y-128825000D02*
X164237500Y-128825000D01*
G75*
G02*
X164475000Y-129062500I0J-237500D01*
G01*
X164475000Y-129662500D01*
G75*
G02*
X164237500Y-129900000I-237500J0D01*
G01*
X163762500Y-129900000D01*
G75*
G02*
X163525000Y-129662500I0J237500D01*
G01*
X163525000Y-129062500D01*
G75*
G02*
X163762500Y-128825000I237500J0D01*
G01*
G37*
%TD*%
%TO.C,C76*%
G36*
G01*
X158262500Y-128825000D02*
X158737500Y-128825000D01*
G75*
G02*
X158975000Y-129062500I0J-237500D01*
G01*
X158975000Y-129662500D01*
G75*
G02*
X158737500Y-129900000I-237500J0D01*
G01*
X158262500Y-129900000D01*
G75*
G02*
X158025000Y-129662500I0J237500D01*
G01*
X158025000Y-129062500D01*
G75*
G02*
X158262500Y-128825000I237500J0D01*
G01*
G37*
G36*
G01*
X158262500Y-127100000D02*
X158737500Y-127100000D01*
G75*
G02*
X158975000Y-127337500I0J-237500D01*
G01*
X158975000Y-127937500D01*
G75*
G02*
X158737500Y-128175000I-237500J0D01*
G01*
X158262500Y-128175000D01*
G75*
G02*
X158025000Y-127937500I0J237500D01*
G01*
X158025000Y-127337500D01*
G75*
G02*
X158262500Y-127100000I237500J0D01*
G01*
G37*
%TD*%
%TO.C,C77*%
G36*
G01*
X155900000Y-130262500D02*
X155900000Y-130737500D01*
G75*
G02*
X155662500Y-130975000I-237500J0D01*
G01*
X155062500Y-130975000D01*
G75*
G02*
X154825000Y-130737500I0J237500D01*
G01*
X154825000Y-130262500D01*
G75*
G02*
X155062500Y-130025000I237500J0D01*
G01*
X155662500Y-130025000D01*
G75*
G02*
X155900000Y-130262500I0J-237500D01*
G01*
G37*
G36*
G01*
X154175000Y-130262500D02*
X154175000Y-130737500D01*
G75*
G02*
X153937500Y-130975000I-237500J0D01*
G01*
X153337500Y-130975000D01*
G75*
G02*
X153100000Y-130737500I0J237500D01*
G01*
X153100000Y-130262500D01*
G75*
G02*
X153337500Y-130025000I237500J0D01*
G01*
X153937500Y-130025000D01*
G75*
G02*
X154175000Y-130262500I0J-237500D01*
G01*
G37*
%TD*%
D10*
%TO.C,L1*%
X51700000Y-139945000D03*
X51700000Y-143255000D03*
%TD*%
D11*
%TO.C,MAX176321*%
X58175000Y-145850000D03*
X58175000Y-145350000D03*
X58175000Y-144850000D03*
X58175000Y-144350000D03*
D12*
X57450000Y-143625000D03*
X56950000Y-143625000D03*
X56450000Y-143625000D03*
X55950000Y-143625000D03*
D11*
X55225000Y-144350000D03*
X55225000Y-144850000D03*
X55225000Y-145350000D03*
X55225000Y-145850000D03*
D12*
X55950000Y-146575000D03*
X56450000Y-146575000D03*
X56950000Y-146575000D03*
X57450000Y-146575000D03*
D13*
X56250000Y-144650000D03*
X56250000Y-145550000D03*
X57150000Y-144650000D03*
X57150000Y-145550000D03*
%TD*%
%TO.C,R1*%
G36*
G01*
X51900000Y-111125000D02*
X51900000Y-109875000D01*
G75*
G02*
X52150000Y-109625000I250000J0D01*
G01*
X52950000Y-109625000D01*
G75*
G02*
X53200000Y-109875000I0J-250000D01*
G01*
X53200000Y-111125000D01*
G75*
G02*
X52950000Y-111375000I-250000J0D01*
G01*
X52150000Y-111375000D01*
G75*
G02*
X51900000Y-111125000I0J250000D01*
G01*
G37*
G36*
G01*
X48800000Y-111125000D02*
X48800000Y-109875000D01*
G75*
G02*
X49050000Y-109625000I250000J0D01*
G01*
X49850000Y-109625000D01*
G75*
G02*
X50100000Y-109875000I0J-250000D01*
G01*
X50100000Y-111125000D01*
G75*
G02*
X49850000Y-111375000I-250000J0D01*
G01*
X49050000Y-111375000D01*
G75*
G02*
X48800000Y-111125000I0J250000D01*
G01*
G37*
%TD*%
%TO.C,R2*%
G36*
G01*
X51900000Y-117262500D02*
X51900000Y-117737500D01*
G75*
G02*
X51662500Y-117975000I-237500J0D01*
G01*
X51162500Y-117975000D01*
G75*
G02*
X50925000Y-117737500I0J237500D01*
G01*
X50925000Y-117262500D01*
G75*
G02*
X51162500Y-117025000I237500J0D01*
G01*
X51662500Y-117025000D01*
G75*
G02*
X51900000Y-117262500I0J-237500D01*
G01*
G37*
G36*
G01*
X50075000Y-117262500D02*
X50075000Y-117737500D01*
G75*
G02*
X49837500Y-117975000I-237500J0D01*
G01*
X49337500Y-117975000D01*
G75*
G02*
X49100000Y-117737500I0J237500D01*
G01*
X49100000Y-117262500D01*
G75*
G02*
X49337500Y-117025000I237500J0D01*
G01*
X49837500Y-117025000D01*
G75*
G02*
X50075000Y-117262500I0J-237500D01*
G01*
G37*
%TD*%
%TO.C,R3*%
G36*
G01*
X48800000Y-124625000D02*
X48800000Y-123375000D01*
G75*
G02*
X49050000Y-123125000I250000J0D01*
G01*
X49850000Y-123125000D01*
G75*
G02*
X50100000Y-123375000I0J-250000D01*
G01*
X50100000Y-124625000D01*
G75*
G02*
X49850000Y-124875000I-250000J0D01*
G01*
X49050000Y-124875000D01*
G75*
G02*
X48800000Y-124625000I0J250000D01*
G01*
G37*
G36*
G01*
X51900000Y-124625000D02*
X51900000Y-123375000D01*
G75*
G02*
X52150000Y-123125000I250000J0D01*
G01*
X52950000Y-123125000D01*
G75*
G02*
X53200000Y-123375000I0J-250000D01*
G01*
X53200000Y-124625000D01*
G75*
G02*
X52950000Y-124875000I-250000J0D01*
G01*
X52150000Y-124875000D01*
G75*
G02*
X51900000Y-124625000I0J250000D01*
G01*
G37*
%TD*%
%TO.C,R4*%
G36*
G01*
X50075000Y-130762500D02*
X50075000Y-131237500D01*
G75*
G02*
X49837500Y-131475000I-237500J0D01*
G01*
X49337500Y-131475000D01*
G75*
G02*
X49100000Y-131237500I0J237500D01*
G01*
X49100000Y-130762500D01*
G75*
G02*
X49337500Y-130525000I237500J0D01*
G01*
X49837500Y-130525000D01*
G75*
G02*
X50075000Y-130762500I0J-237500D01*
G01*
G37*
G36*
G01*
X51900000Y-130762500D02*
X51900000Y-131237500D01*
G75*
G02*
X51662500Y-131475000I-237500J0D01*
G01*
X51162500Y-131475000D01*
G75*
G02*
X50925000Y-131237500I0J237500D01*
G01*
X50925000Y-130762500D01*
G75*
G02*
X51162500Y-130525000I237500J0D01*
G01*
X51662500Y-130525000D01*
G75*
G02*
X51900000Y-130762500I0J-237500D01*
G01*
G37*
%TD*%
%TO.C,R5*%
G36*
G01*
X71400000Y-97625000D02*
X71400000Y-96375000D01*
G75*
G02*
X71650000Y-96125000I250000J0D01*
G01*
X72450000Y-96125000D01*
G75*
G02*
X72700000Y-96375000I0J-250000D01*
G01*
X72700000Y-97625000D01*
G75*
G02*
X72450000Y-97875000I-250000J0D01*
G01*
X71650000Y-97875000D01*
G75*
G02*
X71400000Y-97625000I0J250000D01*
G01*
G37*
G36*
G01*
X68300000Y-97625000D02*
X68300000Y-96375000D01*
G75*
G02*
X68550000Y-96125000I250000J0D01*
G01*
X69350000Y-96125000D01*
G75*
G02*
X69600000Y-96375000I0J-250000D01*
G01*
X69600000Y-97625000D01*
G75*
G02*
X69350000Y-97875000I-250000J0D01*
G01*
X68550000Y-97875000D01*
G75*
G02*
X68300000Y-97625000I0J250000D01*
G01*
G37*
%TD*%
%TO.C,R6*%
G36*
G01*
X69575000Y-103762500D02*
X69575000Y-104237500D01*
G75*
G02*
X69337500Y-104475000I-237500J0D01*
G01*
X68837500Y-104475000D01*
G75*
G02*
X68600000Y-104237500I0J237500D01*
G01*
X68600000Y-103762500D01*
G75*
G02*
X68837500Y-103525000I237500J0D01*
G01*
X69337500Y-103525000D01*
G75*
G02*
X69575000Y-103762500I0J-237500D01*
G01*
G37*
G36*
G01*
X71400000Y-103762500D02*
X71400000Y-104237500D01*
G75*
G02*
X71162500Y-104475000I-237500J0D01*
G01*
X70662500Y-104475000D01*
G75*
G02*
X70425000Y-104237500I0J237500D01*
G01*
X70425000Y-103762500D01*
G75*
G02*
X70662500Y-103525000I237500J0D01*
G01*
X71162500Y-103525000D01*
G75*
G02*
X71400000Y-103762500I0J-237500D01*
G01*
G37*
%TD*%
%TO.C,R7*%
G36*
G01*
X71400000Y-111125000D02*
X71400000Y-109875000D01*
G75*
G02*
X71650000Y-109625000I250000J0D01*
G01*
X72450000Y-109625000D01*
G75*
G02*
X72700000Y-109875000I0J-250000D01*
G01*
X72700000Y-111125000D01*
G75*
G02*
X72450000Y-111375000I-250000J0D01*
G01*
X71650000Y-111375000D01*
G75*
G02*
X71400000Y-111125000I0J250000D01*
G01*
G37*
G36*
G01*
X68300000Y-111125000D02*
X68300000Y-109875000D01*
G75*
G02*
X68550000Y-109625000I250000J0D01*
G01*
X69350000Y-109625000D01*
G75*
G02*
X69600000Y-109875000I0J-250000D01*
G01*
X69600000Y-111125000D01*
G75*
G02*
X69350000Y-111375000I-250000J0D01*
G01*
X68550000Y-111375000D01*
G75*
G02*
X68300000Y-111125000I0J250000D01*
G01*
G37*
%TD*%
%TO.C,R8*%
G36*
G01*
X71400000Y-117262500D02*
X71400000Y-117737500D01*
G75*
G02*
X71162500Y-117975000I-237500J0D01*
G01*
X70662500Y-117975000D01*
G75*
G02*
X70425000Y-117737500I0J237500D01*
G01*
X70425000Y-117262500D01*
G75*
G02*
X70662500Y-117025000I237500J0D01*
G01*
X71162500Y-117025000D01*
G75*
G02*
X71400000Y-117262500I0J-237500D01*
G01*
G37*
G36*
G01*
X69575000Y-117262500D02*
X69575000Y-117737500D01*
G75*
G02*
X69337500Y-117975000I-237500J0D01*
G01*
X68837500Y-117975000D01*
G75*
G02*
X68600000Y-117737500I0J237500D01*
G01*
X68600000Y-117262500D01*
G75*
G02*
X68837500Y-117025000I237500J0D01*
G01*
X69337500Y-117025000D01*
G75*
G02*
X69575000Y-117262500I0J-237500D01*
G01*
G37*
%TD*%
%TO.C,R9*%
G36*
G01*
X71400000Y-124625000D02*
X71400000Y-123375000D01*
G75*
G02*
X71650000Y-123125000I250000J0D01*
G01*
X72450000Y-123125000D01*
G75*
G02*
X72700000Y-123375000I0J-250000D01*
G01*
X72700000Y-124625000D01*
G75*
G02*
X72450000Y-124875000I-250000J0D01*
G01*
X71650000Y-124875000D01*
G75*
G02*
X71400000Y-124625000I0J250000D01*
G01*
G37*
G36*
G01*
X68300000Y-124625000D02*
X68300000Y-123375000D01*
G75*
G02*
X68550000Y-123125000I250000J0D01*
G01*
X69350000Y-123125000D01*
G75*
G02*
X69600000Y-123375000I0J-250000D01*
G01*
X69600000Y-124625000D01*
G75*
G02*
X69350000Y-124875000I-250000J0D01*
G01*
X68550000Y-124875000D01*
G75*
G02*
X68300000Y-124625000I0J250000D01*
G01*
G37*
%TD*%
%TO.C,R10*%
G36*
G01*
X69575000Y-130762500D02*
X69575000Y-131237500D01*
G75*
G02*
X69337500Y-131475000I-237500J0D01*
G01*
X68837500Y-131475000D01*
G75*
G02*
X68600000Y-131237500I0J237500D01*
G01*
X68600000Y-130762500D01*
G75*
G02*
X68837500Y-130525000I237500J0D01*
G01*
X69337500Y-130525000D01*
G75*
G02*
X69575000Y-130762500I0J-237500D01*
G01*
G37*
G36*
G01*
X71400000Y-130762500D02*
X71400000Y-131237500D01*
G75*
G02*
X71162500Y-131475000I-237500J0D01*
G01*
X70662500Y-131475000D01*
G75*
G02*
X70425000Y-131237500I0J237500D01*
G01*
X70425000Y-130762500D01*
G75*
G02*
X70662500Y-130525000I237500J0D01*
G01*
X71162500Y-130525000D01*
G75*
G02*
X71400000Y-130762500I0J-237500D01*
G01*
G37*
%TD*%
%TO.C,R11*%
G36*
G01*
X68300000Y-138625000D02*
X68300000Y-137375000D01*
G75*
G02*
X68550000Y-137125000I250000J0D01*
G01*
X69350000Y-137125000D01*
G75*
G02*
X69600000Y-137375000I0J-250000D01*
G01*
X69600000Y-138625000D01*
G75*
G02*
X69350000Y-138875000I-250000J0D01*
G01*
X68550000Y-138875000D01*
G75*
G02*
X68300000Y-138625000I0J250000D01*
G01*
G37*
G36*
G01*
X71400000Y-138625000D02*
X71400000Y-137375000D01*
G75*
G02*
X71650000Y-137125000I250000J0D01*
G01*
X72450000Y-137125000D01*
G75*
G02*
X72700000Y-137375000I0J-250000D01*
G01*
X72700000Y-138625000D01*
G75*
G02*
X72450000Y-138875000I-250000J0D01*
G01*
X71650000Y-138875000D01*
G75*
G02*
X71400000Y-138625000I0J250000D01*
G01*
G37*
%TD*%
%TO.C,R12*%
G36*
G01*
X71400000Y-144762500D02*
X71400000Y-145237500D01*
G75*
G02*
X71162500Y-145475000I-237500J0D01*
G01*
X70662500Y-145475000D01*
G75*
G02*
X70425000Y-145237500I0J237500D01*
G01*
X70425000Y-144762500D01*
G75*
G02*
X70662500Y-144525000I237500J0D01*
G01*
X71162500Y-144525000D01*
G75*
G02*
X71400000Y-144762500I0J-237500D01*
G01*
G37*
G36*
G01*
X69575000Y-144762500D02*
X69575000Y-145237500D01*
G75*
G02*
X69337500Y-145475000I-237500J0D01*
G01*
X68837500Y-145475000D01*
G75*
G02*
X68600000Y-145237500I0J237500D01*
G01*
X68600000Y-144762500D01*
G75*
G02*
X68837500Y-144525000I237500J0D01*
G01*
X69337500Y-144525000D01*
G75*
G02*
X69575000Y-144762500I0J-237500D01*
G01*
G37*
%TD*%
%TO.C,R13*%
G36*
G01*
X89300000Y-83625000D02*
X89300000Y-82375000D01*
G75*
G02*
X89550000Y-82125000I250000J0D01*
G01*
X90350000Y-82125000D01*
G75*
G02*
X90600000Y-82375000I0J-250000D01*
G01*
X90600000Y-83625000D01*
G75*
G02*
X90350000Y-83875000I-250000J0D01*
G01*
X89550000Y-83875000D01*
G75*
G02*
X89300000Y-83625000I0J250000D01*
G01*
G37*
G36*
G01*
X92400000Y-83625000D02*
X92400000Y-82375000D01*
G75*
G02*
X92650000Y-82125000I250000J0D01*
G01*
X93450000Y-82125000D01*
G75*
G02*
X93700000Y-82375000I0J-250000D01*
G01*
X93700000Y-83625000D01*
G75*
G02*
X93450000Y-83875000I-250000J0D01*
G01*
X92650000Y-83875000D01*
G75*
G02*
X92400000Y-83625000I0J250000D01*
G01*
G37*
%TD*%
%TO.C,R14*%
G36*
G01*
X92400000Y-89762500D02*
X92400000Y-90237500D01*
G75*
G02*
X92162500Y-90475000I-237500J0D01*
G01*
X91662500Y-90475000D01*
G75*
G02*
X91425000Y-90237500I0J237500D01*
G01*
X91425000Y-89762500D01*
G75*
G02*
X91662500Y-89525000I237500J0D01*
G01*
X92162500Y-89525000D01*
G75*
G02*
X92400000Y-89762500I0J-237500D01*
G01*
G37*
G36*
G01*
X90575000Y-89762500D02*
X90575000Y-90237500D01*
G75*
G02*
X90337500Y-90475000I-237500J0D01*
G01*
X89837500Y-90475000D01*
G75*
G02*
X89600000Y-90237500I0J237500D01*
G01*
X89600000Y-89762500D01*
G75*
G02*
X89837500Y-89525000I237500J0D01*
G01*
X90337500Y-89525000D01*
G75*
G02*
X90575000Y-89762500I0J-237500D01*
G01*
G37*
%TD*%
%TO.C,R15*%
G36*
G01*
X92400000Y-97625000D02*
X92400000Y-96375000D01*
G75*
G02*
X92650000Y-96125000I250000J0D01*
G01*
X93450000Y-96125000D01*
G75*
G02*
X93700000Y-96375000I0J-250000D01*
G01*
X93700000Y-97625000D01*
G75*
G02*
X93450000Y-97875000I-250000J0D01*
G01*
X92650000Y-97875000D01*
G75*
G02*
X92400000Y-97625000I0J250000D01*
G01*
G37*
G36*
G01*
X89300000Y-97625000D02*
X89300000Y-96375000D01*
G75*
G02*
X89550000Y-96125000I250000J0D01*
G01*
X90350000Y-96125000D01*
G75*
G02*
X90600000Y-96375000I0J-250000D01*
G01*
X90600000Y-97625000D01*
G75*
G02*
X90350000Y-97875000I-250000J0D01*
G01*
X89550000Y-97875000D01*
G75*
G02*
X89300000Y-97625000I0J250000D01*
G01*
G37*
%TD*%
%TO.C,R16*%
G36*
G01*
X92400000Y-103762500D02*
X92400000Y-104237500D01*
G75*
G02*
X92162500Y-104475000I-237500J0D01*
G01*
X91662500Y-104475000D01*
G75*
G02*
X91425000Y-104237500I0J237500D01*
G01*
X91425000Y-103762500D01*
G75*
G02*
X91662500Y-103525000I237500J0D01*
G01*
X92162500Y-103525000D01*
G75*
G02*
X92400000Y-103762500I0J-237500D01*
G01*
G37*
G36*
G01*
X90575000Y-103762500D02*
X90575000Y-104237500D01*
G75*
G02*
X90337500Y-104475000I-237500J0D01*
G01*
X89837500Y-104475000D01*
G75*
G02*
X89600000Y-104237500I0J237500D01*
G01*
X89600000Y-103762500D01*
G75*
G02*
X89837500Y-103525000I237500J0D01*
G01*
X90337500Y-103525000D01*
G75*
G02*
X90575000Y-103762500I0J-237500D01*
G01*
G37*
%TD*%
%TO.C,R17*%
G36*
G01*
X92400000Y-111125000D02*
X92400000Y-109875000D01*
G75*
G02*
X92650000Y-109625000I250000J0D01*
G01*
X93450000Y-109625000D01*
G75*
G02*
X93700000Y-109875000I0J-250000D01*
G01*
X93700000Y-111125000D01*
G75*
G02*
X93450000Y-111375000I-250000J0D01*
G01*
X92650000Y-111375000D01*
G75*
G02*
X92400000Y-111125000I0J250000D01*
G01*
G37*
G36*
G01*
X89300000Y-111125000D02*
X89300000Y-109875000D01*
G75*
G02*
X89550000Y-109625000I250000J0D01*
G01*
X90350000Y-109625000D01*
G75*
G02*
X90600000Y-109875000I0J-250000D01*
G01*
X90600000Y-111125000D01*
G75*
G02*
X90350000Y-111375000I-250000J0D01*
G01*
X89550000Y-111375000D01*
G75*
G02*
X89300000Y-111125000I0J250000D01*
G01*
G37*
%TD*%
%TO.C,R18*%
G36*
G01*
X90575000Y-117262500D02*
X90575000Y-117737500D01*
G75*
G02*
X90337500Y-117975000I-237500J0D01*
G01*
X89837500Y-117975000D01*
G75*
G02*
X89600000Y-117737500I0J237500D01*
G01*
X89600000Y-117262500D01*
G75*
G02*
X89837500Y-117025000I237500J0D01*
G01*
X90337500Y-117025000D01*
G75*
G02*
X90575000Y-117262500I0J-237500D01*
G01*
G37*
G36*
G01*
X92400000Y-117262500D02*
X92400000Y-117737500D01*
G75*
G02*
X92162500Y-117975000I-237500J0D01*
G01*
X91662500Y-117975000D01*
G75*
G02*
X91425000Y-117737500I0J237500D01*
G01*
X91425000Y-117262500D01*
G75*
G02*
X91662500Y-117025000I237500J0D01*
G01*
X92162500Y-117025000D01*
G75*
G02*
X92400000Y-117262500I0J-237500D01*
G01*
G37*
%TD*%
%TO.C,R19*%
G36*
G01*
X89300000Y-124625000D02*
X89300000Y-123375000D01*
G75*
G02*
X89550000Y-123125000I250000J0D01*
G01*
X90350000Y-123125000D01*
G75*
G02*
X90600000Y-123375000I0J-250000D01*
G01*
X90600000Y-124625000D01*
G75*
G02*
X90350000Y-124875000I-250000J0D01*
G01*
X89550000Y-124875000D01*
G75*
G02*
X89300000Y-124625000I0J250000D01*
G01*
G37*
G36*
G01*
X92400000Y-124625000D02*
X92400000Y-123375000D01*
G75*
G02*
X92650000Y-123125000I250000J0D01*
G01*
X93450000Y-123125000D01*
G75*
G02*
X93700000Y-123375000I0J-250000D01*
G01*
X93700000Y-124625000D01*
G75*
G02*
X93450000Y-124875000I-250000J0D01*
G01*
X92650000Y-124875000D01*
G75*
G02*
X92400000Y-124625000I0J250000D01*
G01*
G37*
%TD*%
%TO.C,R20*%
G36*
G01*
X92400000Y-130762500D02*
X92400000Y-131237500D01*
G75*
G02*
X92162500Y-131475000I-237500J0D01*
G01*
X91662500Y-131475000D01*
G75*
G02*
X91425000Y-131237500I0J237500D01*
G01*
X91425000Y-130762500D01*
G75*
G02*
X91662500Y-130525000I237500J0D01*
G01*
X92162500Y-130525000D01*
G75*
G02*
X92400000Y-130762500I0J-237500D01*
G01*
G37*
G36*
G01*
X90575000Y-130762500D02*
X90575000Y-131237500D01*
G75*
G02*
X90337500Y-131475000I-237500J0D01*
G01*
X89837500Y-131475000D01*
G75*
G02*
X89600000Y-131237500I0J237500D01*
G01*
X89600000Y-130762500D01*
G75*
G02*
X89837500Y-130525000I237500J0D01*
G01*
X90337500Y-130525000D01*
G75*
G02*
X90575000Y-130762500I0J-237500D01*
G01*
G37*
%TD*%
%TO.C,R21*%
G36*
G01*
X89300000Y-138625000D02*
X89300000Y-137375000D01*
G75*
G02*
X89550000Y-137125000I250000J0D01*
G01*
X90350000Y-137125000D01*
G75*
G02*
X90600000Y-137375000I0J-250000D01*
G01*
X90600000Y-138625000D01*
G75*
G02*
X90350000Y-138875000I-250000J0D01*
G01*
X89550000Y-138875000D01*
G75*
G02*
X89300000Y-138625000I0J250000D01*
G01*
G37*
G36*
G01*
X92400000Y-138625000D02*
X92400000Y-137375000D01*
G75*
G02*
X92650000Y-137125000I250000J0D01*
G01*
X93450000Y-137125000D01*
G75*
G02*
X93700000Y-137375000I0J-250000D01*
G01*
X93700000Y-138625000D01*
G75*
G02*
X93450000Y-138875000I-250000J0D01*
G01*
X92650000Y-138875000D01*
G75*
G02*
X92400000Y-138625000I0J250000D01*
G01*
G37*
%TD*%
%TO.C,R22*%
G36*
G01*
X90575000Y-144762500D02*
X90575000Y-145237500D01*
G75*
G02*
X90337500Y-145475000I-237500J0D01*
G01*
X89837500Y-145475000D01*
G75*
G02*
X89600000Y-145237500I0J237500D01*
G01*
X89600000Y-144762500D01*
G75*
G02*
X89837500Y-144525000I237500J0D01*
G01*
X90337500Y-144525000D01*
G75*
G02*
X90575000Y-144762500I0J-237500D01*
G01*
G37*
G36*
G01*
X92400000Y-144762500D02*
X92400000Y-145237500D01*
G75*
G02*
X92162500Y-145475000I-237500J0D01*
G01*
X91662500Y-145475000D01*
G75*
G02*
X91425000Y-145237500I0J237500D01*
G01*
X91425000Y-144762500D01*
G75*
G02*
X91662500Y-144525000I237500J0D01*
G01*
X92162500Y-144525000D01*
G75*
G02*
X92400000Y-144762500I0J-237500D01*
G01*
G37*
%TD*%
%TO.C,R23*%
G36*
G01*
X92400000Y-152625000D02*
X92400000Y-151375000D01*
G75*
G02*
X92650000Y-151125000I250000J0D01*
G01*
X93450000Y-151125000D01*
G75*
G02*
X93700000Y-151375000I0J-250000D01*
G01*
X93700000Y-152625000D01*
G75*
G02*
X93450000Y-152875000I-250000J0D01*
G01*
X92650000Y-152875000D01*
G75*
G02*
X92400000Y-152625000I0J250000D01*
G01*
G37*
G36*
G01*
X89300000Y-152625000D02*
X89300000Y-151375000D01*
G75*
G02*
X89550000Y-151125000I250000J0D01*
G01*
X90350000Y-151125000D01*
G75*
G02*
X90600000Y-151375000I0J-250000D01*
G01*
X90600000Y-152625000D01*
G75*
G02*
X90350000Y-152875000I-250000J0D01*
G01*
X89550000Y-152875000D01*
G75*
G02*
X89300000Y-152625000I0J250000D01*
G01*
G37*
%TD*%
%TO.C,R24*%
G36*
G01*
X90575000Y-158762500D02*
X90575000Y-159237500D01*
G75*
G02*
X90337500Y-159475000I-237500J0D01*
G01*
X89837500Y-159475000D01*
G75*
G02*
X89600000Y-159237500I0J237500D01*
G01*
X89600000Y-158762500D01*
G75*
G02*
X89837500Y-158525000I237500J0D01*
G01*
X90337500Y-158525000D01*
G75*
G02*
X90575000Y-158762500I0J-237500D01*
G01*
G37*
G36*
G01*
X92400000Y-158762500D02*
X92400000Y-159237500D01*
G75*
G02*
X92162500Y-159475000I-237500J0D01*
G01*
X91662500Y-159475000D01*
G75*
G02*
X91425000Y-159237500I0J237500D01*
G01*
X91425000Y-158762500D01*
G75*
G02*
X91662500Y-158525000I237500J0D01*
G01*
X92162500Y-158525000D01*
G75*
G02*
X92400000Y-158762500I0J-237500D01*
G01*
G37*
%TD*%
%TO.C,R25*%
G36*
G01*
X112900000Y-83625000D02*
X112900000Y-82375000D01*
G75*
G02*
X113150000Y-82125000I250000J0D01*
G01*
X113950000Y-82125000D01*
G75*
G02*
X114200000Y-82375000I0J-250000D01*
G01*
X114200000Y-83625000D01*
G75*
G02*
X113950000Y-83875000I-250000J0D01*
G01*
X113150000Y-83875000D01*
G75*
G02*
X112900000Y-83625000I0J250000D01*
G01*
G37*
G36*
G01*
X109800000Y-83625000D02*
X109800000Y-82375000D01*
G75*
G02*
X110050000Y-82125000I250000J0D01*
G01*
X110850000Y-82125000D01*
G75*
G02*
X111100000Y-82375000I0J-250000D01*
G01*
X111100000Y-83625000D01*
G75*
G02*
X110850000Y-83875000I-250000J0D01*
G01*
X110050000Y-83875000D01*
G75*
G02*
X109800000Y-83625000I0J250000D01*
G01*
G37*
%TD*%
%TO.C,R26*%
G36*
G01*
X110575000Y-89762500D02*
X110575000Y-90237500D01*
G75*
G02*
X110337500Y-90475000I-237500J0D01*
G01*
X109837500Y-90475000D01*
G75*
G02*
X109600000Y-90237500I0J237500D01*
G01*
X109600000Y-89762500D01*
G75*
G02*
X109837500Y-89525000I237500J0D01*
G01*
X110337500Y-89525000D01*
G75*
G02*
X110575000Y-89762500I0J-237500D01*
G01*
G37*
G36*
G01*
X112400000Y-89762500D02*
X112400000Y-90237500D01*
G75*
G02*
X112162500Y-90475000I-237500J0D01*
G01*
X111662500Y-90475000D01*
G75*
G02*
X111425000Y-90237500I0J237500D01*
G01*
X111425000Y-89762500D01*
G75*
G02*
X111662500Y-89525000I237500J0D01*
G01*
X112162500Y-89525000D01*
G75*
G02*
X112400000Y-89762500I0J-237500D01*
G01*
G37*
%TD*%
%TO.C,R27*%
G36*
G01*
X109800000Y-97625000D02*
X109800000Y-96375000D01*
G75*
G02*
X110050000Y-96125000I250000J0D01*
G01*
X110850000Y-96125000D01*
G75*
G02*
X111100000Y-96375000I0J-250000D01*
G01*
X111100000Y-97625000D01*
G75*
G02*
X110850000Y-97875000I-250000J0D01*
G01*
X110050000Y-97875000D01*
G75*
G02*
X109800000Y-97625000I0J250000D01*
G01*
G37*
G36*
G01*
X112900000Y-97625000D02*
X112900000Y-96375000D01*
G75*
G02*
X113150000Y-96125000I250000J0D01*
G01*
X113950000Y-96125000D01*
G75*
G02*
X114200000Y-96375000I0J-250000D01*
G01*
X114200000Y-97625000D01*
G75*
G02*
X113950000Y-97875000I-250000J0D01*
G01*
X113150000Y-97875000D01*
G75*
G02*
X112900000Y-97625000I0J250000D01*
G01*
G37*
%TD*%
%TO.C,R28*%
G36*
G01*
X110575000Y-103762500D02*
X110575000Y-104237500D01*
G75*
G02*
X110337500Y-104475000I-237500J0D01*
G01*
X109837500Y-104475000D01*
G75*
G02*
X109600000Y-104237500I0J237500D01*
G01*
X109600000Y-103762500D01*
G75*
G02*
X109837500Y-103525000I237500J0D01*
G01*
X110337500Y-103525000D01*
G75*
G02*
X110575000Y-103762500I0J-237500D01*
G01*
G37*
G36*
G01*
X112400000Y-103762500D02*
X112400000Y-104237500D01*
G75*
G02*
X112162500Y-104475000I-237500J0D01*
G01*
X111662500Y-104475000D01*
G75*
G02*
X111425000Y-104237500I0J237500D01*
G01*
X111425000Y-103762500D01*
G75*
G02*
X111662500Y-103525000I237500J0D01*
G01*
X112162500Y-103525000D01*
G75*
G02*
X112400000Y-103762500I0J-237500D01*
G01*
G37*
%TD*%
%TO.C,R29*%
G36*
G01*
X109800000Y-111125000D02*
X109800000Y-109875000D01*
G75*
G02*
X110050000Y-109625000I250000J0D01*
G01*
X110850000Y-109625000D01*
G75*
G02*
X111100000Y-109875000I0J-250000D01*
G01*
X111100000Y-111125000D01*
G75*
G02*
X110850000Y-111375000I-250000J0D01*
G01*
X110050000Y-111375000D01*
G75*
G02*
X109800000Y-111125000I0J250000D01*
G01*
G37*
G36*
G01*
X112900000Y-111125000D02*
X112900000Y-109875000D01*
G75*
G02*
X113150000Y-109625000I250000J0D01*
G01*
X113950000Y-109625000D01*
G75*
G02*
X114200000Y-109875000I0J-250000D01*
G01*
X114200000Y-111125000D01*
G75*
G02*
X113950000Y-111375000I-250000J0D01*
G01*
X113150000Y-111375000D01*
G75*
G02*
X112900000Y-111125000I0J250000D01*
G01*
G37*
%TD*%
%TO.C,R30*%
G36*
G01*
X112400000Y-117262500D02*
X112400000Y-117737500D01*
G75*
G02*
X112162500Y-117975000I-237500J0D01*
G01*
X111662500Y-117975000D01*
G75*
G02*
X111425000Y-117737500I0J237500D01*
G01*
X111425000Y-117262500D01*
G75*
G02*
X111662500Y-117025000I237500J0D01*
G01*
X112162500Y-117025000D01*
G75*
G02*
X112400000Y-117262500I0J-237500D01*
G01*
G37*
G36*
G01*
X110575000Y-117262500D02*
X110575000Y-117737500D01*
G75*
G02*
X110337500Y-117975000I-237500J0D01*
G01*
X109837500Y-117975000D01*
G75*
G02*
X109600000Y-117737500I0J237500D01*
G01*
X109600000Y-117262500D01*
G75*
G02*
X109837500Y-117025000I237500J0D01*
G01*
X110337500Y-117025000D01*
G75*
G02*
X110575000Y-117262500I0J-237500D01*
G01*
G37*
%TD*%
%TO.C,R31*%
G36*
G01*
X112900000Y-124625000D02*
X112900000Y-123375000D01*
G75*
G02*
X113150000Y-123125000I250000J0D01*
G01*
X113950000Y-123125000D01*
G75*
G02*
X114200000Y-123375000I0J-250000D01*
G01*
X114200000Y-124625000D01*
G75*
G02*
X113950000Y-124875000I-250000J0D01*
G01*
X113150000Y-124875000D01*
G75*
G02*
X112900000Y-124625000I0J250000D01*
G01*
G37*
G36*
G01*
X109800000Y-124625000D02*
X109800000Y-123375000D01*
G75*
G02*
X110050000Y-123125000I250000J0D01*
G01*
X110850000Y-123125000D01*
G75*
G02*
X111100000Y-123375000I0J-250000D01*
G01*
X111100000Y-124625000D01*
G75*
G02*
X110850000Y-124875000I-250000J0D01*
G01*
X110050000Y-124875000D01*
G75*
G02*
X109800000Y-124625000I0J250000D01*
G01*
G37*
%TD*%
%TO.C,R32*%
G36*
G01*
X112400000Y-130262500D02*
X112400000Y-130737500D01*
G75*
G02*
X112162500Y-130975000I-237500J0D01*
G01*
X111662500Y-130975000D01*
G75*
G02*
X111425000Y-130737500I0J237500D01*
G01*
X111425000Y-130262500D01*
G75*
G02*
X111662500Y-130025000I237500J0D01*
G01*
X112162500Y-130025000D01*
G75*
G02*
X112400000Y-130262500I0J-237500D01*
G01*
G37*
G36*
G01*
X110575000Y-130262500D02*
X110575000Y-130737500D01*
G75*
G02*
X110337500Y-130975000I-237500J0D01*
G01*
X109837500Y-130975000D01*
G75*
G02*
X109600000Y-130737500I0J237500D01*
G01*
X109600000Y-130262500D01*
G75*
G02*
X109837500Y-130025000I237500J0D01*
G01*
X110337500Y-130025000D01*
G75*
G02*
X110575000Y-130262500I0J-237500D01*
G01*
G37*
%TD*%
%TO.C,R33*%
G36*
G01*
X112400000Y-138625000D02*
X112400000Y-137375000D01*
G75*
G02*
X112650000Y-137125000I250000J0D01*
G01*
X113450000Y-137125000D01*
G75*
G02*
X113700000Y-137375000I0J-250000D01*
G01*
X113700000Y-138625000D01*
G75*
G02*
X113450000Y-138875000I-250000J0D01*
G01*
X112650000Y-138875000D01*
G75*
G02*
X112400000Y-138625000I0J250000D01*
G01*
G37*
G36*
G01*
X109300000Y-138625000D02*
X109300000Y-137375000D01*
G75*
G02*
X109550000Y-137125000I250000J0D01*
G01*
X110350000Y-137125000D01*
G75*
G02*
X110600000Y-137375000I0J-250000D01*
G01*
X110600000Y-138625000D01*
G75*
G02*
X110350000Y-138875000I-250000J0D01*
G01*
X109550000Y-138875000D01*
G75*
G02*
X109300000Y-138625000I0J250000D01*
G01*
G37*
%TD*%
%TO.C,R34*%
G36*
G01*
X112312500Y-144762500D02*
X112312500Y-145237500D01*
G75*
G02*
X112075000Y-145475000I-237500J0D01*
G01*
X111575000Y-145475000D01*
G75*
G02*
X111337500Y-145237500I0J237500D01*
G01*
X111337500Y-144762500D01*
G75*
G02*
X111575000Y-144525000I237500J0D01*
G01*
X112075000Y-144525000D01*
G75*
G02*
X112312500Y-144762500I0J-237500D01*
G01*
G37*
G36*
G01*
X110487500Y-144762500D02*
X110487500Y-145237500D01*
G75*
G02*
X110250000Y-145475000I-237500J0D01*
G01*
X109750000Y-145475000D01*
G75*
G02*
X109512500Y-145237500I0J237500D01*
G01*
X109512500Y-144762500D01*
G75*
G02*
X109750000Y-144525000I237500J0D01*
G01*
X110250000Y-144525000D01*
G75*
G02*
X110487500Y-144762500I0J-237500D01*
G01*
G37*
%TD*%
%TO.C,R35*%
G36*
G01*
X109250000Y-152625000D02*
X109250000Y-151375000D01*
G75*
G02*
X109500000Y-151125000I250000J0D01*
G01*
X110300000Y-151125000D01*
G75*
G02*
X110550000Y-151375000I0J-250000D01*
G01*
X110550000Y-152625000D01*
G75*
G02*
X110300000Y-152875000I-250000J0D01*
G01*
X109500000Y-152875000D01*
G75*
G02*
X109250000Y-152625000I0J250000D01*
G01*
G37*
G36*
G01*
X112350000Y-152625000D02*
X112350000Y-151375000D01*
G75*
G02*
X112600000Y-151125000I250000J0D01*
G01*
X113400000Y-151125000D01*
G75*
G02*
X113650000Y-151375000I0J-250000D01*
G01*
X113650000Y-152625000D01*
G75*
G02*
X113400000Y-152875000I-250000J0D01*
G01*
X112600000Y-152875000D01*
G75*
G02*
X112350000Y-152625000I0J250000D01*
G01*
G37*
%TD*%
%TO.C,R36*%
G36*
G01*
X112400000Y-158662500D02*
X112400000Y-159137500D01*
G75*
G02*
X112162500Y-159375000I-237500J0D01*
G01*
X111662500Y-159375000D01*
G75*
G02*
X111425000Y-159137500I0J237500D01*
G01*
X111425000Y-158662500D01*
G75*
G02*
X111662500Y-158425000I237500J0D01*
G01*
X112162500Y-158425000D01*
G75*
G02*
X112400000Y-158662500I0J-237500D01*
G01*
G37*
G36*
G01*
X110575000Y-158662500D02*
X110575000Y-159137500D01*
G75*
G02*
X110337500Y-159375000I-237500J0D01*
G01*
X109837500Y-159375000D01*
G75*
G02*
X109600000Y-159137500I0J237500D01*
G01*
X109600000Y-158662500D01*
G75*
G02*
X109837500Y-158425000I237500J0D01*
G01*
X110337500Y-158425000D01*
G75*
G02*
X110575000Y-158662500I0J-237500D01*
G01*
G37*
%TD*%
%TO.C,R37*%
G36*
G01*
X129800000Y-97625000D02*
X129800000Y-96375000D01*
G75*
G02*
X130050000Y-96125000I250000J0D01*
G01*
X130850000Y-96125000D01*
G75*
G02*
X131100000Y-96375000I0J-250000D01*
G01*
X131100000Y-97625000D01*
G75*
G02*
X130850000Y-97875000I-250000J0D01*
G01*
X130050000Y-97875000D01*
G75*
G02*
X129800000Y-97625000I0J250000D01*
G01*
G37*
G36*
G01*
X132900000Y-97625000D02*
X132900000Y-96375000D01*
G75*
G02*
X133150000Y-96125000I250000J0D01*
G01*
X133950000Y-96125000D01*
G75*
G02*
X134200000Y-96375000I0J-250000D01*
G01*
X134200000Y-97625000D01*
G75*
G02*
X133950000Y-97875000I-250000J0D01*
G01*
X133150000Y-97875000D01*
G75*
G02*
X132900000Y-97625000I0J250000D01*
G01*
G37*
%TD*%
%TO.C,R38*%
G36*
G01*
X130575000Y-103762500D02*
X130575000Y-104237500D01*
G75*
G02*
X130337500Y-104475000I-237500J0D01*
G01*
X129837500Y-104475000D01*
G75*
G02*
X129600000Y-104237500I0J237500D01*
G01*
X129600000Y-103762500D01*
G75*
G02*
X129837500Y-103525000I237500J0D01*
G01*
X130337500Y-103525000D01*
G75*
G02*
X130575000Y-103762500I0J-237500D01*
G01*
G37*
G36*
G01*
X132400000Y-103762500D02*
X132400000Y-104237500D01*
G75*
G02*
X132162500Y-104475000I-237500J0D01*
G01*
X131662500Y-104475000D01*
G75*
G02*
X131425000Y-104237500I0J237500D01*
G01*
X131425000Y-103762500D01*
G75*
G02*
X131662500Y-103525000I237500J0D01*
G01*
X132162500Y-103525000D01*
G75*
G02*
X132400000Y-103762500I0J-237500D01*
G01*
G37*
%TD*%
%TO.C,R39*%
G36*
G01*
X132900000Y-111125000D02*
X132900000Y-109875000D01*
G75*
G02*
X133150000Y-109625000I250000J0D01*
G01*
X133950000Y-109625000D01*
G75*
G02*
X134200000Y-109875000I0J-250000D01*
G01*
X134200000Y-111125000D01*
G75*
G02*
X133950000Y-111375000I-250000J0D01*
G01*
X133150000Y-111375000D01*
G75*
G02*
X132900000Y-111125000I0J250000D01*
G01*
G37*
G36*
G01*
X129800000Y-111125000D02*
X129800000Y-109875000D01*
G75*
G02*
X130050000Y-109625000I250000J0D01*
G01*
X130850000Y-109625000D01*
G75*
G02*
X131100000Y-109875000I0J-250000D01*
G01*
X131100000Y-111125000D01*
G75*
G02*
X130850000Y-111375000I-250000J0D01*
G01*
X130050000Y-111375000D01*
G75*
G02*
X129800000Y-111125000I0J250000D01*
G01*
G37*
%TD*%
%TO.C,R40*%
G36*
G01*
X132400000Y-117262500D02*
X132400000Y-117737500D01*
G75*
G02*
X132162500Y-117975000I-237500J0D01*
G01*
X131662500Y-117975000D01*
G75*
G02*
X131425000Y-117737500I0J237500D01*
G01*
X131425000Y-117262500D01*
G75*
G02*
X131662500Y-117025000I237500J0D01*
G01*
X132162500Y-117025000D01*
G75*
G02*
X132400000Y-117262500I0J-237500D01*
G01*
G37*
G36*
G01*
X130575000Y-117262500D02*
X130575000Y-117737500D01*
G75*
G02*
X130337500Y-117975000I-237500J0D01*
G01*
X129837500Y-117975000D01*
G75*
G02*
X129600000Y-117737500I0J237500D01*
G01*
X129600000Y-117262500D01*
G75*
G02*
X129837500Y-117025000I237500J0D01*
G01*
X130337500Y-117025000D01*
G75*
G02*
X130575000Y-117262500I0J-237500D01*
G01*
G37*
%TD*%
%TO.C,R41*%
G36*
G01*
X129800000Y-124625000D02*
X129800000Y-123375000D01*
G75*
G02*
X130050000Y-123125000I250000J0D01*
G01*
X130850000Y-123125000D01*
G75*
G02*
X131100000Y-123375000I0J-250000D01*
G01*
X131100000Y-124625000D01*
G75*
G02*
X130850000Y-124875000I-250000J0D01*
G01*
X130050000Y-124875000D01*
G75*
G02*
X129800000Y-124625000I0J250000D01*
G01*
G37*
G36*
G01*
X132900000Y-124625000D02*
X132900000Y-123375000D01*
G75*
G02*
X133150000Y-123125000I250000J0D01*
G01*
X133950000Y-123125000D01*
G75*
G02*
X134200000Y-123375000I0J-250000D01*
G01*
X134200000Y-124625000D01*
G75*
G02*
X133950000Y-124875000I-250000J0D01*
G01*
X133150000Y-124875000D01*
G75*
G02*
X132900000Y-124625000I0J250000D01*
G01*
G37*
%TD*%
%TO.C,R42*%
G36*
G01*
X130575000Y-130262500D02*
X130575000Y-130737500D01*
G75*
G02*
X130337500Y-130975000I-237500J0D01*
G01*
X129837500Y-130975000D01*
G75*
G02*
X129600000Y-130737500I0J237500D01*
G01*
X129600000Y-130262500D01*
G75*
G02*
X129837500Y-130025000I237500J0D01*
G01*
X130337500Y-130025000D01*
G75*
G02*
X130575000Y-130262500I0J-237500D01*
G01*
G37*
G36*
G01*
X132400000Y-130262500D02*
X132400000Y-130737500D01*
G75*
G02*
X132162500Y-130975000I-237500J0D01*
G01*
X131662500Y-130975000D01*
G75*
G02*
X131425000Y-130737500I0J237500D01*
G01*
X131425000Y-130262500D01*
G75*
G02*
X131662500Y-130025000I237500J0D01*
G01*
X132162500Y-130025000D01*
G75*
G02*
X132400000Y-130262500I0J-237500D01*
G01*
G37*
%TD*%
%TO.C,R43*%
G36*
G01*
X129800000Y-138625000D02*
X129800000Y-137375000D01*
G75*
G02*
X130050000Y-137125000I250000J0D01*
G01*
X130850000Y-137125000D01*
G75*
G02*
X131100000Y-137375000I0J-250000D01*
G01*
X131100000Y-138625000D01*
G75*
G02*
X130850000Y-138875000I-250000J0D01*
G01*
X130050000Y-138875000D01*
G75*
G02*
X129800000Y-138625000I0J250000D01*
G01*
G37*
G36*
G01*
X132900000Y-138625000D02*
X132900000Y-137375000D01*
G75*
G02*
X133150000Y-137125000I250000J0D01*
G01*
X133950000Y-137125000D01*
G75*
G02*
X134200000Y-137375000I0J-250000D01*
G01*
X134200000Y-138625000D01*
G75*
G02*
X133950000Y-138875000I-250000J0D01*
G01*
X133150000Y-138875000D01*
G75*
G02*
X132900000Y-138625000I0J250000D01*
G01*
G37*
%TD*%
%TO.C,R44*%
G36*
G01*
X130575000Y-144762500D02*
X130575000Y-145237500D01*
G75*
G02*
X130337500Y-145475000I-237500J0D01*
G01*
X129837500Y-145475000D01*
G75*
G02*
X129600000Y-145237500I0J237500D01*
G01*
X129600000Y-144762500D01*
G75*
G02*
X129837500Y-144525000I237500J0D01*
G01*
X130337500Y-144525000D01*
G75*
G02*
X130575000Y-144762500I0J-237500D01*
G01*
G37*
G36*
G01*
X132400000Y-144762500D02*
X132400000Y-145237500D01*
G75*
G02*
X132162500Y-145475000I-237500J0D01*
G01*
X131662500Y-145475000D01*
G75*
G02*
X131425000Y-145237500I0J237500D01*
G01*
X131425000Y-144762500D01*
G75*
G02*
X131662500Y-144525000I237500J0D01*
G01*
X132162500Y-144525000D01*
G75*
G02*
X132400000Y-144762500I0J-237500D01*
G01*
G37*
%TD*%
%TO.C,R45*%
G36*
G01*
X152900000Y-111125000D02*
X152900000Y-109875000D01*
G75*
G02*
X153150000Y-109625000I250000J0D01*
G01*
X153950000Y-109625000D01*
G75*
G02*
X154200000Y-109875000I0J-250000D01*
G01*
X154200000Y-111125000D01*
G75*
G02*
X153950000Y-111375000I-250000J0D01*
G01*
X153150000Y-111375000D01*
G75*
G02*
X152900000Y-111125000I0J250000D01*
G01*
G37*
G36*
G01*
X149800000Y-111125000D02*
X149800000Y-109875000D01*
G75*
G02*
X150050000Y-109625000I250000J0D01*
G01*
X150850000Y-109625000D01*
G75*
G02*
X151100000Y-109875000I0J-250000D01*
G01*
X151100000Y-111125000D01*
G75*
G02*
X150850000Y-111375000I-250000J0D01*
G01*
X150050000Y-111375000D01*
G75*
G02*
X149800000Y-111125000I0J250000D01*
G01*
G37*
%TD*%
%TO.C,R46*%
G36*
G01*
X152400000Y-117262500D02*
X152400000Y-117737500D01*
G75*
G02*
X152162500Y-117975000I-237500J0D01*
G01*
X151662500Y-117975000D01*
G75*
G02*
X151425000Y-117737500I0J237500D01*
G01*
X151425000Y-117262500D01*
G75*
G02*
X151662500Y-117025000I237500J0D01*
G01*
X152162500Y-117025000D01*
G75*
G02*
X152400000Y-117262500I0J-237500D01*
G01*
G37*
G36*
G01*
X150575000Y-117262500D02*
X150575000Y-117737500D01*
G75*
G02*
X150337500Y-117975000I-237500J0D01*
G01*
X149837500Y-117975000D01*
G75*
G02*
X149600000Y-117737500I0J237500D01*
G01*
X149600000Y-117262500D01*
G75*
G02*
X149837500Y-117025000I237500J0D01*
G01*
X150337500Y-117025000D01*
G75*
G02*
X150575000Y-117262500I0J-237500D01*
G01*
G37*
%TD*%
%TO.C,R47*%
G36*
G01*
X152900000Y-124625000D02*
X152900000Y-123375000D01*
G75*
G02*
X153150000Y-123125000I250000J0D01*
G01*
X153950000Y-123125000D01*
G75*
G02*
X154200000Y-123375000I0J-250000D01*
G01*
X154200000Y-124625000D01*
G75*
G02*
X153950000Y-124875000I-250000J0D01*
G01*
X153150000Y-124875000D01*
G75*
G02*
X152900000Y-124625000I0J250000D01*
G01*
G37*
G36*
G01*
X149800000Y-124625000D02*
X149800000Y-123375000D01*
G75*
G02*
X150050000Y-123125000I250000J0D01*
G01*
X150850000Y-123125000D01*
G75*
G02*
X151100000Y-123375000I0J-250000D01*
G01*
X151100000Y-124625000D01*
G75*
G02*
X150850000Y-124875000I-250000J0D01*
G01*
X150050000Y-124875000D01*
G75*
G02*
X149800000Y-124625000I0J250000D01*
G01*
G37*
%TD*%
%TO.C,R48*%
G36*
G01*
X150575000Y-130262500D02*
X150575000Y-130737500D01*
G75*
G02*
X150337500Y-130975000I-237500J0D01*
G01*
X149837500Y-130975000D01*
G75*
G02*
X149600000Y-130737500I0J237500D01*
G01*
X149600000Y-130262500D01*
G75*
G02*
X149837500Y-130025000I237500J0D01*
G01*
X150337500Y-130025000D01*
G75*
G02*
X150575000Y-130262500I0J-237500D01*
G01*
G37*
G36*
G01*
X152400000Y-130262500D02*
X152400000Y-130737500D01*
G75*
G02*
X152162500Y-130975000I-237500J0D01*
G01*
X151662500Y-130975000D01*
G75*
G02*
X151425000Y-130737500I0J237500D01*
G01*
X151425000Y-130262500D01*
G75*
G02*
X151662500Y-130025000I237500J0D01*
G01*
X152162500Y-130025000D01*
G75*
G02*
X152400000Y-130262500I0J-237500D01*
G01*
G37*
%TD*%
%TO.C,U1*%
G36*
G01*
X49909000Y-113125000D02*
X49909000Y-112925000D01*
G75*
G02*
X50009000Y-112825000I100000J0D01*
G01*
X51234000Y-112825000D01*
G75*
G02*
X51334000Y-112925000I0J-100000D01*
G01*
X51334000Y-113125000D01*
G75*
G02*
X51234000Y-113225000I-100000J0D01*
G01*
X50009000Y-113225000D01*
G75*
G02*
X49909000Y-113125000I0J100000D01*
G01*
G37*
G36*
G01*
X49909000Y-113775000D02*
X49909000Y-113575000D01*
G75*
G02*
X50009000Y-113475000I100000J0D01*
G01*
X51234000Y-113475000D01*
G75*
G02*
X51334000Y-113575000I0J-100000D01*
G01*
X51334000Y-113775000D01*
G75*
G02*
X51234000Y-113875000I-100000J0D01*
G01*
X50009000Y-113875000D01*
G75*
G02*
X49909000Y-113775000I0J100000D01*
G01*
G37*
G36*
G01*
X49909000Y-114425000D02*
X49909000Y-114225000D01*
G75*
G02*
X50009000Y-114125000I100000J0D01*
G01*
X51234000Y-114125000D01*
G75*
G02*
X51334000Y-114225000I0J-100000D01*
G01*
X51334000Y-114425000D01*
G75*
G02*
X51234000Y-114525000I-100000J0D01*
G01*
X50009000Y-114525000D01*
G75*
G02*
X49909000Y-114425000I0J100000D01*
G01*
G37*
G36*
G01*
X49909000Y-115075000D02*
X49909000Y-114875000D01*
G75*
G02*
X50009000Y-114775000I100000J0D01*
G01*
X51234000Y-114775000D01*
G75*
G02*
X51334000Y-114875000I0J-100000D01*
G01*
X51334000Y-115075000D01*
G75*
G02*
X51234000Y-115175000I-100000J0D01*
G01*
X50009000Y-115175000D01*
G75*
G02*
X49909000Y-115075000I0J100000D01*
G01*
G37*
G36*
G01*
X54234000Y-115075000D02*
X54234000Y-114875000D01*
G75*
G02*
X54334000Y-114775000I100000J0D01*
G01*
X55559000Y-114775000D01*
G75*
G02*
X55659000Y-114875000I0J-100000D01*
G01*
X55659000Y-115075000D01*
G75*
G02*
X55559000Y-115175000I-100000J0D01*
G01*
X54334000Y-115175000D01*
G75*
G02*
X54234000Y-115075000I0J100000D01*
G01*
G37*
G36*
G01*
X54234000Y-114425000D02*
X54234000Y-114225000D01*
G75*
G02*
X54334000Y-114125000I100000J0D01*
G01*
X55559000Y-114125000D01*
G75*
G02*
X55659000Y-114225000I0J-100000D01*
G01*
X55659000Y-114425000D01*
G75*
G02*
X55559000Y-114525000I-100000J0D01*
G01*
X54334000Y-114525000D01*
G75*
G02*
X54234000Y-114425000I0J100000D01*
G01*
G37*
G36*
G01*
X54234000Y-113775000D02*
X54234000Y-113575000D01*
G75*
G02*
X54334000Y-113475000I100000J0D01*
G01*
X55559000Y-113475000D01*
G75*
G02*
X55659000Y-113575000I0J-100000D01*
G01*
X55659000Y-113775000D01*
G75*
G02*
X55559000Y-113875000I-100000J0D01*
G01*
X54334000Y-113875000D01*
G75*
G02*
X54234000Y-113775000I0J100000D01*
G01*
G37*
G36*
G01*
X54234000Y-113125000D02*
X54234000Y-112925000D01*
G75*
G02*
X54334000Y-112825000I100000J0D01*
G01*
X55559000Y-112825000D01*
G75*
G02*
X55659000Y-112925000I0J-100000D01*
G01*
X55659000Y-113125000D01*
G75*
G02*
X55559000Y-113225000I-100000J0D01*
G01*
X54334000Y-113225000D01*
G75*
G02*
X54234000Y-113125000I0J100000D01*
G01*
G37*
G36*
G01*
X51994000Y-113745000D02*
X51994000Y-113335000D01*
G75*
G02*
X52174000Y-113155000I180000J0D01*
G01*
X52534000Y-113155000D01*
G75*
G02*
X52714000Y-113335000I0J-180000D01*
G01*
X52714000Y-113745000D01*
G75*
G02*
X52534000Y-113925000I-180000J0D01*
G01*
X52174000Y-113925000D01*
G75*
G02*
X51994000Y-113745000I0J180000D01*
G01*
G37*
G36*
G01*
X51994000Y-114665000D02*
X51994000Y-114255000D01*
G75*
G02*
X52174000Y-114075000I180000J0D01*
G01*
X52534000Y-114075000D01*
G75*
G02*
X52714000Y-114255000I0J-180000D01*
G01*
X52714000Y-114665000D01*
G75*
G02*
X52534000Y-114845000I-180000J0D01*
G01*
X52174000Y-114845000D01*
G75*
G02*
X51994000Y-114665000I0J180000D01*
G01*
G37*
G36*
G01*
X52854000Y-113745000D02*
X52854000Y-113335000D01*
G75*
G02*
X53034000Y-113155000I180000J0D01*
G01*
X53394000Y-113155000D01*
G75*
G02*
X53574000Y-113335000I0J-180000D01*
G01*
X53574000Y-113745000D01*
G75*
G02*
X53394000Y-113925000I-180000J0D01*
G01*
X53034000Y-113925000D01*
G75*
G02*
X52854000Y-113745000I0J180000D01*
G01*
G37*
G36*
G01*
X52854000Y-114665000D02*
X52854000Y-114255000D01*
G75*
G02*
X53034000Y-114075000I180000J0D01*
G01*
X53394000Y-114075000D01*
G75*
G02*
X53574000Y-114255000I0J-180000D01*
G01*
X53574000Y-114665000D01*
G75*
G02*
X53394000Y-114845000I-180000J0D01*
G01*
X53034000Y-114845000D01*
G75*
G02*
X52854000Y-114665000I0J180000D01*
G01*
G37*
%TD*%
%TO.C,U2*%
G36*
G01*
X50125000Y-126625000D02*
X50125000Y-126425000D01*
G75*
G02*
X50225000Y-126325000I100000J0D01*
G01*
X51450000Y-126325000D01*
G75*
G02*
X51550000Y-126425000I0J-100000D01*
G01*
X51550000Y-126625000D01*
G75*
G02*
X51450000Y-126725000I-100000J0D01*
G01*
X50225000Y-126725000D01*
G75*
G02*
X50125000Y-126625000I0J100000D01*
G01*
G37*
G36*
G01*
X50125000Y-127275000D02*
X50125000Y-127075000D01*
G75*
G02*
X50225000Y-126975000I100000J0D01*
G01*
X51450000Y-126975000D01*
G75*
G02*
X51550000Y-127075000I0J-100000D01*
G01*
X51550000Y-127275000D01*
G75*
G02*
X51450000Y-127375000I-100000J0D01*
G01*
X50225000Y-127375000D01*
G75*
G02*
X50125000Y-127275000I0J100000D01*
G01*
G37*
G36*
G01*
X50125000Y-127925000D02*
X50125000Y-127725000D01*
G75*
G02*
X50225000Y-127625000I100000J0D01*
G01*
X51450000Y-127625000D01*
G75*
G02*
X51550000Y-127725000I0J-100000D01*
G01*
X51550000Y-127925000D01*
G75*
G02*
X51450000Y-128025000I-100000J0D01*
G01*
X50225000Y-128025000D01*
G75*
G02*
X50125000Y-127925000I0J100000D01*
G01*
G37*
G36*
G01*
X50125000Y-128575000D02*
X50125000Y-128375000D01*
G75*
G02*
X50225000Y-128275000I100000J0D01*
G01*
X51450000Y-128275000D01*
G75*
G02*
X51550000Y-128375000I0J-100000D01*
G01*
X51550000Y-128575000D01*
G75*
G02*
X51450000Y-128675000I-100000J0D01*
G01*
X50225000Y-128675000D01*
G75*
G02*
X50125000Y-128575000I0J100000D01*
G01*
G37*
G36*
G01*
X54450000Y-128575000D02*
X54450000Y-128375000D01*
G75*
G02*
X54550000Y-128275000I100000J0D01*
G01*
X55775000Y-128275000D01*
G75*
G02*
X55875000Y-128375000I0J-100000D01*
G01*
X55875000Y-128575000D01*
G75*
G02*
X55775000Y-128675000I-100000J0D01*
G01*
X54550000Y-128675000D01*
G75*
G02*
X54450000Y-128575000I0J100000D01*
G01*
G37*
G36*
G01*
X54450000Y-127925000D02*
X54450000Y-127725000D01*
G75*
G02*
X54550000Y-127625000I100000J0D01*
G01*
X55775000Y-127625000D01*
G75*
G02*
X55875000Y-127725000I0J-100000D01*
G01*
X55875000Y-127925000D01*
G75*
G02*
X55775000Y-128025000I-100000J0D01*
G01*
X54550000Y-128025000D01*
G75*
G02*
X54450000Y-127925000I0J100000D01*
G01*
G37*
G36*
G01*
X54450000Y-127275000D02*
X54450000Y-127075000D01*
G75*
G02*
X54550000Y-126975000I100000J0D01*
G01*
X55775000Y-126975000D01*
G75*
G02*
X55875000Y-127075000I0J-100000D01*
G01*
X55875000Y-127275000D01*
G75*
G02*
X55775000Y-127375000I-100000J0D01*
G01*
X54550000Y-127375000D01*
G75*
G02*
X54450000Y-127275000I0J100000D01*
G01*
G37*
G36*
G01*
X54450000Y-126625000D02*
X54450000Y-126425000D01*
G75*
G02*
X54550000Y-126325000I100000J0D01*
G01*
X55775000Y-126325000D01*
G75*
G02*
X55875000Y-126425000I0J-100000D01*
G01*
X55875000Y-126625000D01*
G75*
G02*
X55775000Y-126725000I-100000J0D01*
G01*
X54550000Y-126725000D01*
G75*
G02*
X54450000Y-126625000I0J100000D01*
G01*
G37*
G36*
G01*
X52210000Y-127245000D02*
X52210000Y-126835000D01*
G75*
G02*
X52390000Y-126655000I180000J0D01*
G01*
X52750000Y-126655000D01*
G75*
G02*
X52930000Y-126835000I0J-180000D01*
G01*
X52930000Y-127245000D01*
G75*
G02*
X52750000Y-127425000I-180000J0D01*
G01*
X52390000Y-127425000D01*
G75*
G02*
X52210000Y-127245000I0J180000D01*
G01*
G37*
G36*
G01*
X52210000Y-128165000D02*
X52210000Y-127755000D01*
G75*
G02*
X52390000Y-127575000I180000J0D01*
G01*
X52750000Y-127575000D01*
G75*
G02*
X52930000Y-127755000I0J-180000D01*
G01*
X52930000Y-128165000D01*
G75*
G02*
X52750000Y-128345000I-180000J0D01*
G01*
X52390000Y-128345000D01*
G75*
G02*
X52210000Y-128165000I0J180000D01*
G01*
G37*
G36*
G01*
X53070000Y-127245000D02*
X53070000Y-126835000D01*
G75*
G02*
X53250000Y-126655000I180000J0D01*
G01*
X53610000Y-126655000D01*
G75*
G02*
X53790000Y-126835000I0J-180000D01*
G01*
X53790000Y-127245000D01*
G75*
G02*
X53610000Y-127425000I-180000J0D01*
G01*
X53250000Y-127425000D01*
G75*
G02*
X53070000Y-127245000I0J180000D01*
G01*
G37*
G36*
G01*
X53070000Y-128165000D02*
X53070000Y-127755000D01*
G75*
G02*
X53250000Y-127575000I180000J0D01*
G01*
X53610000Y-127575000D01*
G75*
G02*
X53790000Y-127755000I0J-180000D01*
G01*
X53790000Y-128165000D01*
G75*
G02*
X53610000Y-128345000I-180000J0D01*
G01*
X53250000Y-128345000D01*
G75*
G02*
X53070000Y-128165000I0J180000D01*
G01*
G37*
%TD*%
%TO.C,U3*%
G36*
G01*
X72570000Y-101165000D02*
X72570000Y-100755000D01*
G75*
G02*
X72750000Y-100575000I180000J0D01*
G01*
X73110000Y-100575000D01*
G75*
G02*
X73290000Y-100755000I0J-180000D01*
G01*
X73290000Y-101165000D01*
G75*
G02*
X73110000Y-101345000I-180000J0D01*
G01*
X72750000Y-101345000D01*
G75*
G02*
X72570000Y-101165000I0J180000D01*
G01*
G37*
G36*
G01*
X72570000Y-100245000D02*
X72570000Y-99835000D01*
G75*
G02*
X72750000Y-99655000I180000J0D01*
G01*
X73110000Y-99655000D01*
G75*
G02*
X73290000Y-99835000I0J-180000D01*
G01*
X73290000Y-100245000D01*
G75*
G02*
X73110000Y-100425000I-180000J0D01*
G01*
X72750000Y-100425000D01*
G75*
G02*
X72570000Y-100245000I0J180000D01*
G01*
G37*
G36*
G01*
X71710000Y-101165000D02*
X71710000Y-100755000D01*
G75*
G02*
X71890000Y-100575000I180000J0D01*
G01*
X72250000Y-100575000D01*
G75*
G02*
X72430000Y-100755000I0J-180000D01*
G01*
X72430000Y-101165000D01*
G75*
G02*
X72250000Y-101345000I-180000J0D01*
G01*
X71890000Y-101345000D01*
G75*
G02*
X71710000Y-101165000I0J180000D01*
G01*
G37*
G36*
G01*
X71710000Y-100245000D02*
X71710000Y-99835000D01*
G75*
G02*
X71890000Y-99655000I180000J0D01*
G01*
X72250000Y-99655000D01*
G75*
G02*
X72430000Y-99835000I0J-180000D01*
G01*
X72430000Y-100245000D01*
G75*
G02*
X72250000Y-100425000I-180000J0D01*
G01*
X71890000Y-100425000D01*
G75*
G02*
X71710000Y-100245000I0J180000D01*
G01*
G37*
G36*
G01*
X73950000Y-99625000D02*
X73950000Y-99425000D01*
G75*
G02*
X74050000Y-99325000I100000J0D01*
G01*
X75275000Y-99325000D01*
G75*
G02*
X75375000Y-99425000I0J-100000D01*
G01*
X75375000Y-99625000D01*
G75*
G02*
X75275000Y-99725000I-100000J0D01*
G01*
X74050000Y-99725000D01*
G75*
G02*
X73950000Y-99625000I0J100000D01*
G01*
G37*
G36*
G01*
X73950000Y-100275000D02*
X73950000Y-100075000D01*
G75*
G02*
X74050000Y-99975000I100000J0D01*
G01*
X75275000Y-99975000D01*
G75*
G02*
X75375000Y-100075000I0J-100000D01*
G01*
X75375000Y-100275000D01*
G75*
G02*
X75275000Y-100375000I-100000J0D01*
G01*
X74050000Y-100375000D01*
G75*
G02*
X73950000Y-100275000I0J100000D01*
G01*
G37*
G36*
G01*
X73950000Y-100925000D02*
X73950000Y-100725000D01*
G75*
G02*
X74050000Y-100625000I100000J0D01*
G01*
X75275000Y-100625000D01*
G75*
G02*
X75375000Y-100725000I0J-100000D01*
G01*
X75375000Y-100925000D01*
G75*
G02*
X75275000Y-101025000I-100000J0D01*
G01*
X74050000Y-101025000D01*
G75*
G02*
X73950000Y-100925000I0J100000D01*
G01*
G37*
G36*
G01*
X73950000Y-101575000D02*
X73950000Y-101375000D01*
G75*
G02*
X74050000Y-101275000I100000J0D01*
G01*
X75275000Y-101275000D01*
G75*
G02*
X75375000Y-101375000I0J-100000D01*
G01*
X75375000Y-101575000D01*
G75*
G02*
X75275000Y-101675000I-100000J0D01*
G01*
X74050000Y-101675000D01*
G75*
G02*
X73950000Y-101575000I0J100000D01*
G01*
G37*
G36*
G01*
X69625000Y-101575000D02*
X69625000Y-101375000D01*
G75*
G02*
X69725000Y-101275000I100000J0D01*
G01*
X70950000Y-101275000D01*
G75*
G02*
X71050000Y-101375000I0J-100000D01*
G01*
X71050000Y-101575000D01*
G75*
G02*
X70950000Y-101675000I-100000J0D01*
G01*
X69725000Y-101675000D01*
G75*
G02*
X69625000Y-101575000I0J100000D01*
G01*
G37*
G36*
G01*
X69625000Y-100925000D02*
X69625000Y-100725000D01*
G75*
G02*
X69725000Y-100625000I100000J0D01*
G01*
X70950000Y-100625000D01*
G75*
G02*
X71050000Y-100725000I0J-100000D01*
G01*
X71050000Y-100925000D01*
G75*
G02*
X70950000Y-101025000I-100000J0D01*
G01*
X69725000Y-101025000D01*
G75*
G02*
X69625000Y-100925000I0J100000D01*
G01*
G37*
G36*
G01*
X69625000Y-100275000D02*
X69625000Y-100075000D01*
G75*
G02*
X69725000Y-99975000I100000J0D01*
G01*
X70950000Y-99975000D01*
G75*
G02*
X71050000Y-100075000I0J-100000D01*
G01*
X71050000Y-100275000D01*
G75*
G02*
X70950000Y-100375000I-100000J0D01*
G01*
X69725000Y-100375000D01*
G75*
G02*
X69625000Y-100275000I0J100000D01*
G01*
G37*
G36*
G01*
X69625000Y-99625000D02*
X69625000Y-99425000D01*
G75*
G02*
X69725000Y-99325000I100000J0D01*
G01*
X70950000Y-99325000D01*
G75*
G02*
X71050000Y-99425000I0J-100000D01*
G01*
X71050000Y-99625000D01*
G75*
G02*
X70950000Y-99725000I-100000J0D01*
G01*
X69725000Y-99725000D01*
G75*
G02*
X69625000Y-99625000I0J100000D01*
G01*
G37*
%TD*%
%TO.C,U4*%
G36*
G01*
X69625000Y-113125000D02*
X69625000Y-112925000D01*
G75*
G02*
X69725000Y-112825000I100000J0D01*
G01*
X70950000Y-112825000D01*
G75*
G02*
X71050000Y-112925000I0J-100000D01*
G01*
X71050000Y-113125000D01*
G75*
G02*
X70950000Y-113225000I-100000J0D01*
G01*
X69725000Y-113225000D01*
G75*
G02*
X69625000Y-113125000I0J100000D01*
G01*
G37*
G36*
G01*
X69625000Y-113775000D02*
X69625000Y-113575000D01*
G75*
G02*
X69725000Y-113475000I100000J0D01*
G01*
X70950000Y-113475000D01*
G75*
G02*
X71050000Y-113575000I0J-100000D01*
G01*
X71050000Y-113775000D01*
G75*
G02*
X70950000Y-113875000I-100000J0D01*
G01*
X69725000Y-113875000D01*
G75*
G02*
X69625000Y-113775000I0J100000D01*
G01*
G37*
G36*
G01*
X69625000Y-114425000D02*
X69625000Y-114225000D01*
G75*
G02*
X69725000Y-114125000I100000J0D01*
G01*
X70950000Y-114125000D01*
G75*
G02*
X71050000Y-114225000I0J-100000D01*
G01*
X71050000Y-114425000D01*
G75*
G02*
X70950000Y-114525000I-100000J0D01*
G01*
X69725000Y-114525000D01*
G75*
G02*
X69625000Y-114425000I0J100000D01*
G01*
G37*
G36*
G01*
X69625000Y-115075000D02*
X69625000Y-114875000D01*
G75*
G02*
X69725000Y-114775000I100000J0D01*
G01*
X70950000Y-114775000D01*
G75*
G02*
X71050000Y-114875000I0J-100000D01*
G01*
X71050000Y-115075000D01*
G75*
G02*
X70950000Y-115175000I-100000J0D01*
G01*
X69725000Y-115175000D01*
G75*
G02*
X69625000Y-115075000I0J100000D01*
G01*
G37*
G36*
G01*
X73950000Y-115075000D02*
X73950000Y-114875000D01*
G75*
G02*
X74050000Y-114775000I100000J0D01*
G01*
X75275000Y-114775000D01*
G75*
G02*
X75375000Y-114875000I0J-100000D01*
G01*
X75375000Y-115075000D01*
G75*
G02*
X75275000Y-115175000I-100000J0D01*
G01*
X74050000Y-115175000D01*
G75*
G02*
X73950000Y-115075000I0J100000D01*
G01*
G37*
G36*
G01*
X73950000Y-114425000D02*
X73950000Y-114225000D01*
G75*
G02*
X74050000Y-114125000I100000J0D01*
G01*
X75275000Y-114125000D01*
G75*
G02*
X75375000Y-114225000I0J-100000D01*
G01*
X75375000Y-114425000D01*
G75*
G02*
X75275000Y-114525000I-100000J0D01*
G01*
X74050000Y-114525000D01*
G75*
G02*
X73950000Y-114425000I0J100000D01*
G01*
G37*
G36*
G01*
X73950000Y-113775000D02*
X73950000Y-113575000D01*
G75*
G02*
X74050000Y-113475000I100000J0D01*
G01*
X75275000Y-113475000D01*
G75*
G02*
X75375000Y-113575000I0J-100000D01*
G01*
X75375000Y-113775000D01*
G75*
G02*
X75275000Y-113875000I-100000J0D01*
G01*
X74050000Y-113875000D01*
G75*
G02*
X73950000Y-113775000I0J100000D01*
G01*
G37*
G36*
G01*
X73950000Y-113125000D02*
X73950000Y-112925000D01*
G75*
G02*
X74050000Y-112825000I100000J0D01*
G01*
X75275000Y-112825000D01*
G75*
G02*
X75375000Y-112925000I0J-100000D01*
G01*
X75375000Y-113125000D01*
G75*
G02*
X75275000Y-113225000I-100000J0D01*
G01*
X74050000Y-113225000D01*
G75*
G02*
X73950000Y-113125000I0J100000D01*
G01*
G37*
G36*
G01*
X71710000Y-113745000D02*
X71710000Y-113335000D01*
G75*
G02*
X71890000Y-113155000I180000J0D01*
G01*
X72250000Y-113155000D01*
G75*
G02*
X72430000Y-113335000I0J-180000D01*
G01*
X72430000Y-113745000D01*
G75*
G02*
X72250000Y-113925000I-180000J0D01*
G01*
X71890000Y-113925000D01*
G75*
G02*
X71710000Y-113745000I0J180000D01*
G01*
G37*
G36*
G01*
X71710000Y-114665000D02*
X71710000Y-114255000D01*
G75*
G02*
X71890000Y-114075000I180000J0D01*
G01*
X72250000Y-114075000D01*
G75*
G02*
X72430000Y-114255000I0J-180000D01*
G01*
X72430000Y-114665000D01*
G75*
G02*
X72250000Y-114845000I-180000J0D01*
G01*
X71890000Y-114845000D01*
G75*
G02*
X71710000Y-114665000I0J180000D01*
G01*
G37*
G36*
G01*
X72570000Y-113745000D02*
X72570000Y-113335000D01*
G75*
G02*
X72750000Y-113155000I180000J0D01*
G01*
X73110000Y-113155000D01*
G75*
G02*
X73290000Y-113335000I0J-180000D01*
G01*
X73290000Y-113745000D01*
G75*
G02*
X73110000Y-113925000I-180000J0D01*
G01*
X72750000Y-113925000D01*
G75*
G02*
X72570000Y-113745000I0J180000D01*
G01*
G37*
G36*
G01*
X72570000Y-114665000D02*
X72570000Y-114255000D01*
G75*
G02*
X72750000Y-114075000I180000J0D01*
G01*
X73110000Y-114075000D01*
G75*
G02*
X73290000Y-114255000I0J-180000D01*
G01*
X73290000Y-114665000D01*
G75*
G02*
X73110000Y-114845000I-180000J0D01*
G01*
X72750000Y-114845000D01*
G75*
G02*
X72570000Y-114665000I0J180000D01*
G01*
G37*
%TD*%
%TO.C,U5*%
G36*
G01*
X72570000Y-128165000D02*
X72570000Y-127755000D01*
G75*
G02*
X72750000Y-127575000I180000J0D01*
G01*
X73110000Y-127575000D01*
G75*
G02*
X73290000Y-127755000I0J-180000D01*
G01*
X73290000Y-128165000D01*
G75*
G02*
X73110000Y-128345000I-180000J0D01*
G01*
X72750000Y-128345000D01*
G75*
G02*
X72570000Y-128165000I0J180000D01*
G01*
G37*
G36*
G01*
X72570000Y-127245000D02*
X72570000Y-126835000D01*
G75*
G02*
X72750000Y-126655000I180000J0D01*
G01*
X73110000Y-126655000D01*
G75*
G02*
X73290000Y-126835000I0J-180000D01*
G01*
X73290000Y-127245000D01*
G75*
G02*
X73110000Y-127425000I-180000J0D01*
G01*
X72750000Y-127425000D01*
G75*
G02*
X72570000Y-127245000I0J180000D01*
G01*
G37*
G36*
G01*
X71710000Y-128165000D02*
X71710000Y-127755000D01*
G75*
G02*
X71890000Y-127575000I180000J0D01*
G01*
X72250000Y-127575000D01*
G75*
G02*
X72430000Y-127755000I0J-180000D01*
G01*
X72430000Y-128165000D01*
G75*
G02*
X72250000Y-128345000I-180000J0D01*
G01*
X71890000Y-128345000D01*
G75*
G02*
X71710000Y-128165000I0J180000D01*
G01*
G37*
G36*
G01*
X71710000Y-127245000D02*
X71710000Y-126835000D01*
G75*
G02*
X71890000Y-126655000I180000J0D01*
G01*
X72250000Y-126655000D01*
G75*
G02*
X72430000Y-126835000I0J-180000D01*
G01*
X72430000Y-127245000D01*
G75*
G02*
X72250000Y-127425000I-180000J0D01*
G01*
X71890000Y-127425000D01*
G75*
G02*
X71710000Y-127245000I0J180000D01*
G01*
G37*
G36*
G01*
X73950000Y-126625000D02*
X73950000Y-126425000D01*
G75*
G02*
X74050000Y-126325000I100000J0D01*
G01*
X75275000Y-126325000D01*
G75*
G02*
X75375000Y-126425000I0J-100000D01*
G01*
X75375000Y-126625000D01*
G75*
G02*
X75275000Y-126725000I-100000J0D01*
G01*
X74050000Y-126725000D01*
G75*
G02*
X73950000Y-126625000I0J100000D01*
G01*
G37*
G36*
G01*
X73950000Y-127275000D02*
X73950000Y-127075000D01*
G75*
G02*
X74050000Y-126975000I100000J0D01*
G01*
X75275000Y-126975000D01*
G75*
G02*
X75375000Y-127075000I0J-100000D01*
G01*
X75375000Y-127275000D01*
G75*
G02*
X75275000Y-127375000I-100000J0D01*
G01*
X74050000Y-127375000D01*
G75*
G02*
X73950000Y-127275000I0J100000D01*
G01*
G37*
G36*
G01*
X73950000Y-127925000D02*
X73950000Y-127725000D01*
G75*
G02*
X74050000Y-127625000I100000J0D01*
G01*
X75275000Y-127625000D01*
G75*
G02*
X75375000Y-127725000I0J-100000D01*
G01*
X75375000Y-127925000D01*
G75*
G02*
X75275000Y-128025000I-100000J0D01*
G01*
X74050000Y-128025000D01*
G75*
G02*
X73950000Y-127925000I0J100000D01*
G01*
G37*
G36*
G01*
X73950000Y-128575000D02*
X73950000Y-128375000D01*
G75*
G02*
X74050000Y-128275000I100000J0D01*
G01*
X75275000Y-128275000D01*
G75*
G02*
X75375000Y-128375000I0J-100000D01*
G01*
X75375000Y-128575000D01*
G75*
G02*
X75275000Y-128675000I-100000J0D01*
G01*
X74050000Y-128675000D01*
G75*
G02*
X73950000Y-128575000I0J100000D01*
G01*
G37*
G36*
G01*
X69625000Y-128575000D02*
X69625000Y-128375000D01*
G75*
G02*
X69725000Y-128275000I100000J0D01*
G01*
X70950000Y-128275000D01*
G75*
G02*
X71050000Y-128375000I0J-100000D01*
G01*
X71050000Y-128575000D01*
G75*
G02*
X70950000Y-128675000I-100000J0D01*
G01*
X69725000Y-128675000D01*
G75*
G02*
X69625000Y-128575000I0J100000D01*
G01*
G37*
G36*
G01*
X69625000Y-127925000D02*
X69625000Y-127725000D01*
G75*
G02*
X69725000Y-127625000I100000J0D01*
G01*
X70950000Y-127625000D01*
G75*
G02*
X71050000Y-127725000I0J-100000D01*
G01*
X71050000Y-127925000D01*
G75*
G02*
X70950000Y-128025000I-100000J0D01*
G01*
X69725000Y-128025000D01*
G75*
G02*
X69625000Y-127925000I0J100000D01*
G01*
G37*
G36*
G01*
X69625000Y-127275000D02*
X69625000Y-127075000D01*
G75*
G02*
X69725000Y-126975000I100000J0D01*
G01*
X70950000Y-126975000D01*
G75*
G02*
X71050000Y-127075000I0J-100000D01*
G01*
X71050000Y-127275000D01*
G75*
G02*
X70950000Y-127375000I-100000J0D01*
G01*
X69725000Y-127375000D01*
G75*
G02*
X69625000Y-127275000I0J100000D01*
G01*
G37*
G36*
G01*
X69625000Y-126625000D02*
X69625000Y-126425000D01*
G75*
G02*
X69725000Y-126325000I100000J0D01*
G01*
X70950000Y-126325000D01*
G75*
G02*
X71050000Y-126425000I0J-100000D01*
G01*
X71050000Y-126625000D01*
G75*
G02*
X70950000Y-126725000I-100000J0D01*
G01*
X69725000Y-126725000D01*
G75*
G02*
X69625000Y-126625000I0J100000D01*
G01*
G37*
%TD*%
%TO.C,U6*%
G36*
G01*
X69625000Y-140625000D02*
X69625000Y-140425000D01*
G75*
G02*
X69725000Y-140325000I100000J0D01*
G01*
X70950000Y-140325000D01*
G75*
G02*
X71050000Y-140425000I0J-100000D01*
G01*
X71050000Y-140625000D01*
G75*
G02*
X70950000Y-140725000I-100000J0D01*
G01*
X69725000Y-140725000D01*
G75*
G02*
X69625000Y-140625000I0J100000D01*
G01*
G37*
G36*
G01*
X69625000Y-141275000D02*
X69625000Y-141075000D01*
G75*
G02*
X69725000Y-140975000I100000J0D01*
G01*
X70950000Y-140975000D01*
G75*
G02*
X71050000Y-141075000I0J-100000D01*
G01*
X71050000Y-141275000D01*
G75*
G02*
X70950000Y-141375000I-100000J0D01*
G01*
X69725000Y-141375000D01*
G75*
G02*
X69625000Y-141275000I0J100000D01*
G01*
G37*
G36*
G01*
X69625000Y-141925000D02*
X69625000Y-141725000D01*
G75*
G02*
X69725000Y-141625000I100000J0D01*
G01*
X70950000Y-141625000D01*
G75*
G02*
X71050000Y-141725000I0J-100000D01*
G01*
X71050000Y-141925000D01*
G75*
G02*
X70950000Y-142025000I-100000J0D01*
G01*
X69725000Y-142025000D01*
G75*
G02*
X69625000Y-141925000I0J100000D01*
G01*
G37*
G36*
G01*
X69625000Y-142575000D02*
X69625000Y-142375000D01*
G75*
G02*
X69725000Y-142275000I100000J0D01*
G01*
X70950000Y-142275000D01*
G75*
G02*
X71050000Y-142375000I0J-100000D01*
G01*
X71050000Y-142575000D01*
G75*
G02*
X70950000Y-142675000I-100000J0D01*
G01*
X69725000Y-142675000D01*
G75*
G02*
X69625000Y-142575000I0J100000D01*
G01*
G37*
G36*
G01*
X73950000Y-142575000D02*
X73950000Y-142375000D01*
G75*
G02*
X74050000Y-142275000I100000J0D01*
G01*
X75275000Y-142275000D01*
G75*
G02*
X75375000Y-142375000I0J-100000D01*
G01*
X75375000Y-142575000D01*
G75*
G02*
X75275000Y-142675000I-100000J0D01*
G01*
X74050000Y-142675000D01*
G75*
G02*
X73950000Y-142575000I0J100000D01*
G01*
G37*
G36*
G01*
X73950000Y-141925000D02*
X73950000Y-141725000D01*
G75*
G02*
X74050000Y-141625000I100000J0D01*
G01*
X75275000Y-141625000D01*
G75*
G02*
X75375000Y-141725000I0J-100000D01*
G01*
X75375000Y-141925000D01*
G75*
G02*
X75275000Y-142025000I-100000J0D01*
G01*
X74050000Y-142025000D01*
G75*
G02*
X73950000Y-141925000I0J100000D01*
G01*
G37*
G36*
G01*
X73950000Y-141275000D02*
X73950000Y-141075000D01*
G75*
G02*
X74050000Y-140975000I100000J0D01*
G01*
X75275000Y-140975000D01*
G75*
G02*
X75375000Y-141075000I0J-100000D01*
G01*
X75375000Y-141275000D01*
G75*
G02*
X75275000Y-141375000I-100000J0D01*
G01*
X74050000Y-141375000D01*
G75*
G02*
X73950000Y-141275000I0J100000D01*
G01*
G37*
G36*
G01*
X73950000Y-140625000D02*
X73950000Y-140425000D01*
G75*
G02*
X74050000Y-140325000I100000J0D01*
G01*
X75275000Y-140325000D01*
G75*
G02*
X75375000Y-140425000I0J-100000D01*
G01*
X75375000Y-140625000D01*
G75*
G02*
X75275000Y-140725000I-100000J0D01*
G01*
X74050000Y-140725000D01*
G75*
G02*
X73950000Y-140625000I0J100000D01*
G01*
G37*
G36*
G01*
X71710000Y-141245000D02*
X71710000Y-140835000D01*
G75*
G02*
X71890000Y-140655000I180000J0D01*
G01*
X72250000Y-140655000D01*
G75*
G02*
X72430000Y-140835000I0J-180000D01*
G01*
X72430000Y-141245000D01*
G75*
G02*
X72250000Y-141425000I-180000J0D01*
G01*
X71890000Y-141425000D01*
G75*
G02*
X71710000Y-141245000I0J180000D01*
G01*
G37*
G36*
G01*
X71710000Y-142165000D02*
X71710000Y-141755000D01*
G75*
G02*
X71890000Y-141575000I180000J0D01*
G01*
X72250000Y-141575000D01*
G75*
G02*
X72430000Y-141755000I0J-180000D01*
G01*
X72430000Y-142165000D01*
G75*
G02*
X72250000Y-142345000I-180000J0D01*
G01*
X71890000Y-142345000D01*
G75*
G02*
X71710000Y-142165000I0J180000D01*
G01*
G37*
G36*
G01*
X72570000Y-141245000D02*
X72570000Y-140835000D01*
G75*
G02*
X72750000Y-140655000I180000J0D01*
G01*
X73110000Y-140655000D01*
G75*
G02*
X73290000Y-140835000I0J-180000D01*
G01*
X73290000Y-141245000D01*
G75*
G02*
X73110000Y-141425000I-180000J0D01*
G01*
X72750000Y-141425000D01*
G75*
G02*
X72570000Y-141245000I0J180000D01*
G01*
G37*
G36*
G01*
X72570000Y-142165000D02*
X72570000Y-141755000D01*
G75*
G02*
X72750000Y-141575000I180000J0D01*
G01*
X73110000Y-141575000D01*
G75*
G02*
X73290000Y-141755000I0J-180000D01*
G01*
X73290000Y-142165000D01*
G75*
G02*
X73110000Y-142345000I-180000J0D01*
G01*
X72750000Y-142345000D01*
G75*
G02*
X72570000Y-142165000I0J180000D01*
G01*
G37*
%TD*%
%TO.C,U7*%
G36*
G01*
X90125000Y-85625000D02*
X90125000Y-85425000D01*
G75*
G02*
X90225000Y-85325000I100000J0D01*
G01*
X91450000Y-85325000D01*
G75*
G02*
X91550000Y-85425000I0J-100000D01*
G01*
X91550000Y-85625000D01*
G75*
G02*
X91450000Y-85725000I-100000J0D01*
G01*
X90225000Y-85725000D01*
G75*
G02*
X90125000Y-85625000I0J100000D01*
G01*
G37*
G36*
G01*
X90125000Y-86275000D02*
X90125000Y-86075000D01*
G75*
G02*
X90225000Y-85975000I100000J0D01*
G01*
X91450000Y-85975000D01*
G75*
G02*
X91550000Y-86075000I0J-100000D01*
G01*
X91550000Y-86275000D01*
G75*
G02*
X91450000Y-86375000I-100000J0D01*
G01*
X90225000Y-86375000D01*
G75*
G02*
X90125000Y-86275000I0J100000D01*
G01*
G37*
G36*
G01*
X90125000Y-86925000D02*
X90125000Y-86725000D01*
G75*
G02*
X90225000Y-86625000I100000J0D01*
G01*
X91450000Y-86625000D01*
G75*
G02*
X91550000Y-86725000I0J-100000D01*
G01*
X91550000Y-86925000D01*
G75*
G02*
X91450000Y-87025000I-100000J0D01*
G01*
X90225000Y-87025000D01*
G75*
G02*
X90125000Y-86925000I0J100000D01*
G01*
G37*
G36*
G01*
X90125000Y-87575000D02*
X90125000Y-87375000D01*
G75*
G02*
X90225000Y-87275000I100000J0D01*
G01*
X91450000Y-87275000D01*
G75*
G02*
X91550000Y-87375000I0J-100000D01*
G01*
X91550000Y-87575000D01*
G75*
G02*
X91450000Y-87675000I-100000J0D01*
G01*
X90225000Y-87675000D01*
G75*
G02*
X90125000Y-87575000I0J100000D01*
G01*
G37*
G36*
G01*
X94450000Y-87575000D02*
X94450000Y-87375000D01*
G75*
G02*
X94550000Y-87275000I100000J0D01*
G01*
X95775000Y-87275000D01*
G75*
G02*
X95875000Y-87375000I0J-100000D01*
G01*
X95875000Y-87575000D01*
G75*
G02*
X95775000Y-87675000I-100000J0D01*
G01*
X94550000Y-87675000D01*
G75*
G02*
X94450000Y-87575000I0J100000D01*
G01*
G37*
G36*
G01*
X94450000Y-86925000D02*
X94450000Y-86725000D01*
G75*
G02*
X94550000Y-86625000I100000J0D01*
G01*
X95775000Y-86625000D01*
G75*
G02*
X95875000Y-86725000I0J-100000D01*
G01*
X95875000Y-86925000D01*
G75*
G02*
X95775000Y-87025000I-100000J0D01*
G01*
X94550000Y-87025000D01*
G75*
G02*
X94450000Y-86925000I0J100000D01*
G01*
G37*
G36*
G01*
X94450000Y-86275000D02*
X94450000Y-86075000D01*
G75*
G02*
X94550000Y-85975000I100000J0D01*
G01*
X95775000Y-85975000D01*
G75*
G02*
X95875000Y-86075000I0J-100000D01*
G01*
X95875000Y-86275000D01*
G75*
G02*
X95775000Y-86375000I-100000J0D01*
G01*
X94550000Y-86375000D01*
G75*
G02*
X94450000Y-86275000I0J100000D01*
G01*
G37*
G36*
G01*
X94450000Y-85625000D02*
X94450000Y-85425000D01*
G75*
G02*
X94550000Y-85325000I100000J0D01*
G01*
X95775000Y-85325000D01*
G75*
G02*
X95875000Y-85425000I0J-100000D01*
G01*
X95875000Y-85625000D01*
G75*
G02*
X95775000Y-85725000I-100000J0D01*
G01*
X94550000Y-85725000D01*
G75*
G02*
X94450000Y-85625000I0J100000D01*
G01*
G37*
G36*
G01*
X92210000Y-86245000D02*
X92210000Y-85835000D01*
G75*
G02*
X92390000Y-85655000I180000J0D01*
G01*
X92750000Y-85655000D01*
G75*
G02*
X92930000Y-85835000I0J-180000D01*
G01*
X92930000Y-86245000D01*
G75*
G02*
X92750000Y-86425000I-180000J0D01*
G01*
X92390000Y-86425000D01*
G75*
G02*
X92210000Y-86245000I0J180000D01*
G01*
G37*
G36*
G01*
X92210000Y-87165000D02*
X92210000Y-86755000D01*
G75*
G02*
X92390000Y-86575000I180000J0D01*
G01*
X92750000Y-86575000D01*
G75*
G02*
X92930000Y-86755000I0J-180000D01*
G01*
X92930000Y-87165000D01*
G75*
G02*
X92750000Y-87345000I-180000J0D01*
G01*
X92390000Y-87345000D01*
G75*
G02*
X92210000Y-87165000I0J180000D01*
G01*
G37*
G36*
G01*
X93070000Y-86245000D02*
X93070000Y-85835000D01*
G75*
G02*
X93250000Y-85655000I180000J0D01*
G01*
X93610000Y-85655000D01*
G75*
G02*
X93790000Y-85835000I0J-180000D01*
G01*
X93790000Y-86245000D01*
G75*
G02*
X93610000Y-86425000I-180000J0D01*
G01*
X93250000Y-86425000D01*
G75*
G02*
X93070000Y-86245000I0J180000D01*
G01*
G37*
G36*
G01*
X93070000Y-87165000D02*
X93070000Y-86755000D01*
G75*
G02*
X93250000Y-86575000I180000J0D01*
G01*
X93610000Y-86575000D01*
G75*
G02*
X93790000Y-86755000I0J-180000D01*
G01*
X93790000Y-87165000D01*
G75*
G02*
X93610000Y-87345000I-180000J0D01*
G01*
X93250000Y-87345000D01*
G75*
G02*
X93070000Y-87165000I0J180000D01*
G01*
G37*
%TD*%
%TO.C,U8*%
G36*
G01*
X90125000Y-99625000D02*
X90125000Y-99425000D01*
G75*
G02*
X90225000Y-99325000I100000J0D01*
G01*
X91450000Y-99325000D01*
G75*
G02*
X91550000Y-99425000I0J-100000D01*
G01*
X91550000Y-99625000D01*
G75*
G02*
X91450000Y-99725000I-100000J0D01*
G01*
X90225000Y-99725000D01*
G75*
G02*
X90125000Y-99625000I0J100000D01*
G01*
G37*
G36*
G01*
X90125000Y-100275000D02*
X90125000Y-100075000D01*
G75*
G02*
X90225000Y-99975000I100000J0D01*
G01*
X91450000Y-99975000D01*
G75*
G02*
X91550000Y-100075000I0J-100000D01*
G01*
X91550000Y-100275000D01*
G75*
G02*
X91450000Y-100375000I-100000J0D01*
G01*
X90225000Y-100375000D01*
G75*
G02*
X90125000Y-100275000I0J100000D01*
G01*
G37*
G36*
G01*
X90125000Y-100925000D02*
X90125000Y-100725000D01*
G75*
G02*
X90225000Y-100625000I100000J0D01*
G01*
X91450000Y-100625000D01*
G75*
G02*
X91550000Y-100725000I0J-100000D01*
G01*
X91550000Y-100925000D01*
G75*
G02*
X91450000Y-101025000I-100000J0D01*
G01*
X90225000Y-101025000D01*
G75*
G02*
X90125000Y-100925000I0J100000D01*
G01*
G37*
G36*
G01*
X90125000Y-101575000D02*
X90125000Y-101375000D01*
G75*
G02*
X90225000Y-101275000I100000J0D01*
G01*
X91450000Y-101275000D01*
G75*
G02*
X91550000Y-101375000I0J-100000D01*
G01*
X91550000Y-101575000D01*
G75*
G02*
X91450000Y-101675000I-100000J0D01*
G01*
X90225000Y-101675000D01*
G75*
G02*
X90125000Y-101575000I0J100000D01*
G01*
G37*
G36*
G01*
X94450000Y-101575000D02*
X94450000Y-101375000D01*
G75*
G02*
X94550000Y-101275000I100000J0D01*
G01*
X95775000Y-101275000D01*
G75*
G02*
X95875000Y-101375000I0J-100000D01*
G01*
X95875000Y-101575000D01*
G75*
G02*
X95775000Y-101675000I-100000J0D01*
G01*
X94550000Y-101675000D01*
G75*
G02*
X94450000Y-101575000I0J100000D01*
G01*
G37*
G36*
G01*
X94450000Y-100925000D02*
X94450000Y-100725000D01*
G75*
G02*
X94550000Y-100625000I100000J0D01*
G01*
X95775000Y-100625000D01*
G75*
G02*
X95875000Y-100725000I0J-100000D01*
G01*
X95875000Y-100925000D01*
G75*
G02*
X95775000Y-101025000I-100000J0D01*
G01*
X94550000Y-101025000D01*
G75*
G02*
X94450000Y-100925000I0J100000D01*
G01*
G37*
G36*
G01*
X94450000Y-100275000D02*
X94450000Y-100075000D01*
G75*
G02*
X94550000Y-99975000I100000J0D01*
G01*
X95775000Y-99975000D01*
G75*
G02*
X95875000Y-100075000I0J-100000D01*
G01*
X95875000Y-100275000D01*
G75*
G02*
X95775000Y-100375000I-100000J0D01*
G01*
X94550000Y-100375000D01*
G75*
G02*
X94450000Y-100275000I0J100000D01*
G01*
G37*
G36*
G01*
X94450000Y-99625000D02*
X94450000Y-99425000D01*
G75*
G02*
X94550000Y-99325000I100000J0D01*
G01*
X95775000Y-99325000D01*
G75*
G02*
X95875000Y-99425000I0J-100000D01*
G01*
X95875000Y-99625000D01*
G75*
G02*
X95775000Y-99725000I-100000J0D01*
G01*
X94550000Y-99725000D01*
G75*
G02*
X94450000Y-99625000I0J100000D01*
G01*
G37*
G36*
G01*
X92210000Y-100245000D02*
X92210000Y-99835000D01*
G75*
G02*
X92390000Y-99655000I180000J0D01*
G01*
X92750000Y-99655000D01*
G75*
G02*
X92930000Y-99835000I0J-180000D01*
G01*
X92930000Y-100245000D01*
G75*
G02*
X92750000Y-100425000I-180000J0D01*
G01*
X92390000Y-100425000D01*
G75*
G02*
X92210000Y-100245000I0J180000D01*
G01*
G37*
G36*
G01*
X92210000Y-101165000D02*
X92210000Y-100755000D01*
G75*
G02*
X92390000Y-100575000I180000J0D01*
G01*
X92750000Y-100575000D01*
G75*
G02*
X92930000Y-100755000I0J-180000D01*
G01*
X92930000Y-101165000D01*
G75*
G02*
X92750000Y-101345000I-180000J0D01*
G01*
X92390000Y-101345000D01*
G75*
G02*
X92210000Y-101165000I0J180000D01*
G01*
G37*
G36*
G01*
X93070000Y-100245000D02*
X93070000Y-99835000D01*
G75*
G02*
X93250000Y-99655000I180000J0D01*
G01*
X93610000Y-99655000D01*
G75*
G02*
X93790000Y-99835000I0J-180000D01*
G01*
X93790000Y-100245000D01*
G75*
G02*
X93610000Y-100425000I-180000J0D01*
G01*
X93250000Y-100425000D01*
G75*
G02*
X93070000Y-100245000I0J180000D01*
G01*
G37*
G36*
G01*
X93070000Y-101165000D02*
X93070000Y-100755000D01*
G75*
G02*
X93250000Y-100575000I180000J0D01*
G01*
X93610000Y-100575000D01*
G75*
G02*
X93790000Y-100755000I0J-180000D01*
G01*
X93790000Y-101165000D01*
G75*
G02*
X93610000Y-101345000I-180000J0D01*
G01*
X93250000Y-101345000D01*
G75*
G02*
X93070000Y-101165000I0J180000D01*
G01*
G37*
%TD*%
%TO.C,U9*%
G36*
G01*
X93070000Y-114665000D02*
X93070000Y-114255000D01*
G75*
G02*
X93250000Y-114075000I180000J0D01*
G01*
X93610000Y-114075000D01*
G75*
G02*
X93790000Y-114255000I0J-180000D01*
G01*
X93790000Y-114665000D01*
G75*
G02*
X93610000Y-114845000I-180000J0D01*
G01*
X93250000Y-114845000D01*
G75*
G02*
X93070000Y-114665000I0J180000D01*
G01*
G37*
G36*
G01*
X93070000Y-113745000D02*
X93070000Y-113335000D01*
G75*
G02*
X93250000Y-113155000I180000J0D01*
G01*
X93610000Y-113155000D01*
G75*
G02*
X93790000Y-113335000I0J-180000D01*
G01*
X93790000Y-113745000D01*
G75*
G02*
X93610000Y-113925000I-180000J0D01*
G01*
X93250000Y-113925000D01*
G75*
G02*
X93070000Y-113745000I0J180000D01*
G01*
G37*
G36*
G01*
X92210000Y-114665000D02*
X92210000Y-114255000D01*
G75*
G02*
X92390000Y-114075000I180000J0D01*
G01*
X92750000Y-114075000D01*
G75*
G02*
X92930000Y-114255000I0J-180000D01*
G01*
X92930000Y-114665000D01*
G75*
G02*
X92750000Y-114845000I-180000J0D01*
G01*
X92390000Y-114845000D01*
G75*
G02*
X92210000Y-114665000I0J180000D01*
G01*
G37*
G36*
G01*
X92210000Y-113745000D02*
X92210000Y-113335000D01*
G75*
G02*
X92390000Y-113155000I180000J0D01*
G01*
X92750000Y-113155000D01*
G75*
G02*
X92930000Y-113335000I0J-180000D01*
G01*
X92930000Y-113745000D01*
G75*
G02*
X92750000Y-113925000I-180000J0D01*
G01*
X92390000Y-113925000D01*
G75*
G02*
X92210000Y-113745000I0J180000D01*
G01*
G37*
G36*
G01*
X94450000Y-113125000D02*
X94450000Y-112925000D01*
G75*
G02*
X94550000Y-112825000I100000J0D01*
G01*
X95775000Y-112825000D01*
G75*
G02*
X95875000Y-112925000I0J-100000D01*
G01*
X95875000Y-113125000D01*
G75*
G02*
X95775000Y-113225000I-100000J0D01*
G01*
X94550000Y-113225000D01*
G75*
G02*
X94450000Y-113125000I0J100000D01*
G01*
G37*
G36*
G01*
X94450000Y-113775000D02*
X94450000Y-113575000D01*
G75*
G02*
X94550000Y-113475000I100000J0D01*
G01*
X95775000Y-113475000D01*
G75*
G02*
X95875000Y-113575000I0J-100000D01*
G01*
X95875000Y-113775000D01*
G75*
G02*
X95775000Y-113875000I-100000J0D01*
G01*
X94550000Y-113875000D01*
G75*
G02*
X94450000Y-113775000I0J100000D01*
G01*
G37*
G36*
G01*
X94450000Y-114425000D02*
X94450000Y-114225000D01*
G75*
G02*
X94550000Y-114125000I100000J0D01*
G01*
X95775000Y-114125000D01*
G75*
G02*
X95875000Y-114225000I0J-100000D01*
G01*
X95875000Y-114425000D01*
G75*
G02*
X95775000Y-114525000I-100000J0D01*
G01*
X94550000Y-114525000D01*
G75*
G02*
X94450000Y-114425000I0J100000D01*
G01*
G37*
G36*
G01*
X94450000Y-115075000D02*
X94450000Y-114875000D01*
G75*
G02*
X94550000Y-114775000I100000J0D01*
G01*
X95775000Y-114775000D01*
G75*
G02*
X95875000Y-114875000I0J-100000D01*
G01*
X95875000Y-115075000D01*
G75*
G02*
X95775000Y-115175000I-100000J0D01*
G01*
X94550000Y-115175000D01*
G75*
G02*
X94450000Y-115075000I0J100000D01*
G01*
G37*
G36*
G01*
X90125000Y-115075000D02*
X90125000Y-114875000D01*
G75*
G02*
X90225000Y-114775000I100000J0D01*
G01*
X91450000Y-114775000D01*
G75*
G02*
X91550000Y-114875000I0J-100000D01*
G01*
X91550000Y-115075000D01*
G75*
G02*
X91450000Y-115175000I-100000J0D01*
G01*
X90225000Y-115175000D01*
G75*
G02*
X90125000Y-115075000I0J100000D01*
G01*
G37*
G36*
G01*
X90125000Y-114425000D02*
X90125000Y-114225000D01*
G75*
G02*
X90225000Y-114125000I100000J0D01*
G01*
X91450000Y-114125000D01*
G75*
G02*
X91550000Y-114225000I0J-100000D01*
G01*
X91550000Y-114425000D01*
G75*
G02*
X91450000Y-114525000I-100000J0D01*
G01*
X90225000Y-114525000D01*
G75*
G02*
X90125000Y-114425000I0J100000D01*
G01*
G37*
G36*
G01*
X90125000Y-113775000D02*
X90125000Y-113575000D01*
G75*
G02*
X90225000Y-113475000I100000J0D01*
G01*
X91450000Y-113475000D01*
G75*
G02*
X91550000Y-113575000I0J-100000D01*
G01*
X91550000Y-113775000D01*
G75*
G02*
X91450000Y-113875000I-100000J0D01*
G01*
X90225000Y-113875000D01*
G75*
G02*
X90125000Y-113775000I0J100000D01*
G01*
G37*
G36*
G01*
X90125000Y-113125000D02*
X90125000Y-112925000D01*
G75*
G02*
X90225000Y-112825000I100000J0D01*
G01*
X91450000Y-112825000D01*
G75*
G02*
X91550000Y-112925000I0J-100000D01*
G01*
X91550000Y-113125000D01*
G75*
G02*
X91450000Y-113225000I-100000J0D01*
G01*
X90225000Y-113225000D01*
G75*
G02*
X90125000Y-113125000I0J100000D01*
G01*
G37*
%TD*%
%TO.C,U10*%
G36*
G01*
X90125000Y-126625000D02*
X90125000Y-126425000D01*
G75*
G02*
X90225000Y-126325000I100000J0D01*
G01*
X91450000Y-126325000D01*
G75*
G02*
X91550000Y-126425000I0J-100000D01*
G01*
X91550000Y-126625000D01*
G75*
G02*
X91450000Y-126725000I-100000J0D01*
G01*
X90225000Y-126725000D01*
G75*
G02*
X90125000Y-126625000I0J100000D01*
G01*
G37*
G36*
G01*
X90125000Y-127275000D02*
X90125000Y-127075000D01*
G75*
G02*
X90225000Y-126975000I100000J0D01*
G01*
X91450000Y-126975000D01*
G75*
G02*
X91550000Y-127075000I0J-100000D01*
G01*
X91550000Y-127275000D01*
G75*
G02*
X91450000Y-127375000I-100000J0D01*
G01*
X90225000Y-127375000D01*
G75*
G02*
X90125000Y-127275000I0J100000D01*
G01*
G37*
G36*
G01*
X90125000Y-127925000D02*
X90125000Y-127725000D01*
G75*
G02*
X90225000Y-127625000I100000J0D01*
G01*
X91450000Y-127625000D01*
G75*
G02*
X91550000Y-127725000I0J-100000D01*
G01*
X91550000Y-127925000D01*
G75*
G02*
X91450000Y-128025000I-100000J0D01*
G01*
X90225000Y-128025000D01*
G75*
G02*
X90125000Y-127925000I0J100000D01*
G01*
G37*
G36*
G01*
X90125000Y-128575000D02*
X90125000Y-128375000D01*
G75*
G02*
X90225000Y-128275000I100000J0D01*
G01*
X91450000Y-128275000D01*
G75*
G02*
X91550000Y-128375000I0J-100000D01*
G01*
X91550000Y-128575000D01*
G75*
G02*
X91450000Y-128675000I-100000J0D01*
G01*
X90225000Y-128675000D01*
G75*
G02*
X90125000Y-128575000I0J100000D01*
G01*
G37*
G36*
G01*
X94450000Y-128575000D02*
X94450000Y-128375000D01*
G75*
G02*
X94550000Y-128275000I100000J0D01*
G01*
X95775000Y-128275000D01*
G75*
G02*
X95875000Y-128375000I0J-100000D01*
G01*
X95875000Y-128575000D01*
G75*
G02*
X95775000Y-128675000I-100000J0D01*
G01*
X94550000Y-128675000D01*
G75*
G02*
X94450000Y-128575000I0J100000D01*
G01*
G37*
G36*
G01*
X94450000Y-127925000D02*
X94450000Y-127725000D01*
G75*
G02*
X94550000Y-127625000I100000J0D01*
G01*
X95775000Y-127625000D01*
G75*
G02*
X95875000Y-127725000I0J-100000D01*
G01*
X95875000Y-127925000D01*
G75*
G02*
X95775000Y-128025000I-100000J0D01*
G01*
X94550000Y-128025000D01*
G75*
G02*
X94450000Y-127925000I0J100000D01*
G01*
G37*
G36*
G01*
X94450000Y-127275000D02*
X94450000Y-127075000D01*
G75*
G02*
X94550000Y-126975000I100000J0D01*
G01*
X95775000Y-126975000D01*
G75*
G02*
X95875000Y-127075000I0J-100000D01*
G01*
X95875000Y-127275000D01*
G75*
G02*
X95775000Y-127375000I-100000J0D01*
G01*
X94550000Y-127375000D01*
G75*
G02*
X94450000Y-127275000I0J100000D01*
G01*
G37*
G36*
G01*
X94450000Y-126625000D02*
X94450000Y-126425000D01*
G75*
G02*
X94550000Y-126325000I100000J0D01*
G01*
X95775000Y-126325000D01*
G75*
G02*
X95875000Y-126425000I0J-100000D01*
G01*
X95875000Y-126625000D01*
G75*
G02*
X95775000Y-126725000I-100000J0D01*
G01*
X94550000Y-126725000D01*
G75*
G02*
X94450000Y-126625000I0J100000D01*
G01*
G37*
G36*
G01*
X92210000Y-127245000D02*
X92210000Y-126835000D01*
G75*
G02*
X92390000Y-126655000I180000J0D01*
G01*
X92750000Y-126655000D01*
G75*
G02*
X92930000Y-126835000I0J-180000D01*
G01*
X92930000Y-127245000D01*
G75*
G02*
X92750000Y-127425000I-180000J0D01*
G01*
X92390000Y-127425000D01*
G75*
G02*
X92210000Y-127245000I0J180000D01*
G01*
G37*
G36*
G01*
X92210000Y-128165000D02*
X92210000Y-127755000D01*
G75*
G02*
X92390000Y-127575000I180000J0D01*
G01*
X92750000Y-127575000D01*
G75*
G02*
X92930000Y-127755000I0J-180000D01*
G01*
X92930000Y-128165000D01*
G75*
G02*
X92750000Y-128345000I-180000J0D01*
G01*
X92390000Y-128345000D01*
G75*
G02*
X92210000Y-128165000I0J180000D01*
G01*
G37*
G36*
G01*
X93070000Y-127245000D02*
X93070000Y-126835000D01*
G75*
G02*
X93250000Y-126655000I180000J0D01*
G01*
X93610000Y-126655000D01*
G75*
G02*
X93790000Y-126835000I0J-180000D01*
G01*
X93790000Y-127245000D01*
G75*
G02*
X93610000Y-127425000I-180000J0D01*
G01*
X93250000Y-127425000D01*
G75*
G02*
X93070000Y-127245000I0J180000D01*
G01*
G37*
G36*
G01*
X93070000Y-128165000D02*
X93070000Y-127755000D01*
G75*
G02*
X93250000Y-127575000I180000J0D01*
G01*
X93610000Y-127575000D01*
G75*
G02*
X93790000Y-127755000I0J-180000D01*
G01*
X93790000Y-128165000D01*
G75*
G02*
X93610000Y-128345000I-180000J0D01*
G01*
X93250000Y-128345000D01*
G75*
G02*
X93070000Y-128165000I0J180000D01*
G01*
G37*
%TD*%
%TO.C,U11*%
G36*
G01*
X93070000Y-142125000D02*
X93070000Y-141715000D01*
G75*
G02*
X93250000Y-141535000I180000J0D01*
G01*
X93610000Y-141535000D01*
G75*
G02*
X93790000Y-141715000I0J-180000D01*
G01*
X93790000Y-142125000D01*
G75*
G02*
X93610000Y-142305000I-180000J0D01*
G01*
X93250000Y-142305000D01*
G75*
G02*
X93070000Y-142125000I0J180000D01*
G01*
G37*
G36*
G01*
X93070000Y-141205000D02*
X93070000Y-140795000D01*
G75*
G02*
X93250000Y-140615000I180000J0D01*
G01*
X93610000Y-140615000D01*
G75*
G02*
X93790000Y-140795000I0J-180000D01*
G01*
X93790000Y-141205000D01*
G75*
G02*
X93610000Y-141385000I-180000J0D01*
G01*
X93250000Y-141385000D01*
G75*
G02*
X93070000Y-141205000I0J180000D01*
G01*
G37*
G36*
G01*
X92210000Y-142125000D02*
X92210000Y-141715000D01*
G75*
G02*
X92390000Y-141535000I180000J0D01*
G01*
X92750000Y-141535000D01*
G75*
G02*
X92930000Y-141715000I0J-180000D01*
G01*
X92930000Y-142125000D01*
G75*
G02*
X92750000Y-142305000I-180000J0D01*
G01*
X92390000Y-142305000D01*
G75*
G02*
X92210000Y-142125000I0J180000D01*
G01*
G37*
G36*
G01*
X92210000Y-141205000D02*
X92210000Y-140795000D01*
G75*
G02*
X92390000Y-140615000I180000J0D01*
G01*
X92750000Y-140615000D01*
G75*
G02*
X92930000Y-140795000I0J-180000D01*
G01*
X92930000Y-141205000D01*
G75*
G02*
X92750000Y-141385000I-180000J0D01*
G01*
X92390000Y-141385000D01*
G75*
G02*
X92210000Y-141205000I0J180000D01*
G01*
G37*
G36*
G01*
X94450000Y-140585000D02*
X94450000Y-140385000D01*
G75*
G02*
X94550000Y-140285000I100000J0D01*
G01*
X95775000Y-140285000D01*
G75*
G02*
X95875000Y-140385000I0J-100000D01*
G01*
X95875000Y-140585000D01*
G75*
G02*
X95775000Y-140685000I-100000J0D01*
G01*
X94550000Y-140685000D01*
G75*
G02*
X94450000Y-140585000I0J100000D01*
G01*
G37*
G36*
G01*
X94450000Y-141235000D02*
X94450000Y-141035000D01*
G75*
G02*
X94550000Y-140935000I100000J0D01*
G01*
X95775000Y-140935000D01*
G75*
G02*
X95875000Y-141035000I0J-100000D01*
G01*
X95875000Y-141235000D01*
G75*
G02*
X95775000Y-141335000I-100000J0D01*
G01*
X94550000Y-141335000D01*
G75*
G02*
X94450000Y-141235000I0J100000D01*
G01*
G37*
G36*
G01*
X94450000Y-141885000D02*
X94450000Y-141685000D01*
G75*
G02*
X94550000Y-141585000I100000J0D01*
G01*
X95775000Y-141585000D01*
G75*
G02*
X95875000Y-141685000I0J-100000D01*
G01*
X95875000Y-141885000D01*
G75*
G02*
X95775000Y-141985000I-100000J0D01*
G01*
X94550000Y-141985000D01*
G75*
G02*
X94450000Y-141885000I0J100000D01*
G01*
G37*
G36*
G01*
X94450000Y-142535000D02*
X94450000Y-142335000D01*
G75*
G02*
X94550000Y-142235000I100000J0D01*
G01*
X95775000Y-142235000D01*
G75*
G02*
X95875000Y-142335000I0J-100000D01*
G01*
X95875000Y-142535000D01*
G75*
G02*
X95775000Y-142635000I-100000J0D01*
G01*
X94550000Y-142635000D01*
G75*
G02*
X94450000Y-142535000I0J100000D01*
G01*
G37*
G36*
G01*
X90125000Y-142535000D02*
X90125000Y-142335000D01*
G75*
G02*
X90225000Y-142235000I100000J0D01*
G01*
X91450000Y-142235000D01*
G75*
G02*
X91550000Y-142335000I0J-100000D01*
G01*
X91550000Y-142535000D01*
G75*
G02*
X91450000Y-142635000I-100000J0D01*
G01*
X90225000Y-142635000D01*
G75*
G02*
X90125000Y-142535000I0J100000D01*
G01*
G37*
G36*
G01*
X90125000Y-141885000D02*
X90125000Y-141685000D01*
G75*
G02*
X90225000Y-141585000I100000J0D01*
G01*
X91450000Y-141585000D01*
G75*
G02*
X91550000Y-141685000I0J-100000D01*
G01*
X91550000Y-141885000D01*
G75*
G02*
X91450000Y-141985000I-100000J0D01*
G01*
X90225000Y-141985000D01*
G75*
G02*
X90125000Y-141885000I0J100000D01*
G01*
G37*
G36*
G01*
X90125000Y-141235000D02*
X90125000Y-141035000D01*
G75*
G02*
X90225000Y-140935000I100000J0D01*
G01*
X91450000Y-140935000D01*
G75*
G02*
X91550000Y-141035000I0J-100000D01*
G01*
X91550000Y-141235000D01*
G75*
G02*
X91450000Y-141335000I-100000J0D01*
G01*
X90225000Y-141335000D01*
G75*
G02*
X90125000Y-141235000I0J100000D01*
G01*
G37*
G36*
G01*
X90125000Y-140585000D02*
X90125000Y-140385000D01*
G75*
G02*
X90225000Y-140285000I100000J0D01*
G01*
X91450000Y-140285000D01*
G75*
G02*
X91550000Y-140385000I0J-100000D01*
G01*
X91550000Y-140585000D01*
G75*
G02*
X91450000Y-140685000I-100000J0D01*
G01*
X90225000Y-140685000D01*
G75*
G02*
X90125000Y-140585000I0J100000D01*
G01*
G37*
%TD*%
%TO.C,U12*%
G36*
G01*
X90125000Y-154625000D02*
X90125000Y-154425000D01*
G75*
G02*
X90225000Y-154325000I100000J0D01*
G01*
X91450000Y-154325000D01*
G75*
G02*
X91550000Y-154425000I0J-100000D01*
G01*
X91550000Y-154625000D01*
G75*
G02*
X91450000Y-154725000I-100000J0D01*
G01*
X90225000Y-154725000D01*
G75*
G02*
X90125000Y-154625000I0J100000D01*
G01*
G37*
G36*
G01*
X90125000Y-155275000D02*
X90125000Y-155075000D01*
G75*
G02*
X90225000Y-154975000I100000J0D01*
G01*
X91450000Y-154975000D01*
G75*
G02*
X91550000Y-155075000I0J-100000D01*
G01*
X91550000Y-155275000D01*
G75*
G02*
X91450000Y-155375000I-100000J0D01*
G01*
X90225000Y-155375000D01*
G75*
G02*
X90125000Y-155275000I0J100000D01*
G01*
G37*
G36*
G01*
X90125000Y-155925000D02*
X90125000Y-155725000D01*
G75*
G02*
X90225000Y-155625000I100000J0D01*
G01*
X91450000Y-155625000D01*
G75*
G02*
X91550000Y-155725000I0J-100000D01*
G01*
X91550000Y-155925000D01*
G75*
G02*
X91450000Y-156025000I-100000J0D01*
G01*
X90225000Y-156025000D01*
G75*
G02*
X90125000Y-155925000I0J100000D01*
G01*
G37*
G36*
G01*
X90125000Y-156575000D02*
X90125000Y-156375000D01*
G75*
G02*
X90225000Y-156275000I100000J0D01*
G01*
X91450000Y-156275000D01*
G75*
G02*
X91550000Y-156375000I0J-100000D01*
G01*
X91550000Y-156575000D01*
G75*
G02*
X91450000Y-156675000I-100000J0D01*
G01*
X90225000Y-156675000D01*
G75*
G02*
X90125000Y-156575000I0J100000D01*
G01*
G37*
G36*
G01*
X94450000Y-156575000D02*
X94450000Y-156375000D01*
G75*
G02*
X94550000Y-156275000I100000J0D01*
G01*
X95775000Y-156275000D01*
G75*
G02*
X95875000Y-156375000I0J-100000D01*
G01*
X95875000Y-156575000D01*
G75*
G02*
X95775000Y-156675000I-100000J0D01*
G01*
X94550000Y-156675000D01*
G75*
G02*
X94450000Y-156575000I0J100000D01*
G01*
G37*
G36*
G01*
X94450000Y-155925000D02*
X94450000Y-155725000D01*
G75*
G02*
X94550000Y-155625000I100000J0D01*
G01*
X95775000Y-155625000D01*
G75*
G02*
X95875000Y-155725000I0J-100000D01*
G01*
X95875000Y-155925000D01*
G75*
G02*
X95775000Y-156025000I-100000J0D01*
G01*
X94550000Y-156025000D01*
G75*
G02*
X94450000Y-155925000I0J100000D01*
G01*
G37*
G36*
G01*
X94450000Y-155275000D02*
X94450000Y-155075000D01*
G75*
G02*
X94550000Y-154975000I100000J0D01*
G01*
X95775000Y-154975000D01*
G75*
G02*
X95875000Y-155075000I0J-100000D01*
G01*
X95875000Y-155275000D01*
G75*
G02*
X95775000Y-155375000I-100000J0D01*
G01*
X94550000Y-155375000D01*
G75*
G02*
X94450000Y-155275000I0J100000D01*
G01*
G37*
G36*
G01*
X94450000Y-154625000D02*
X94450000Y-154425000D01*
G75*
G02*
X94550000Y-154325000I100000J0D01*
G01*
X95775000Y-154325000D01*
G75*
G02*
X95875000Y-154425000I0J-100000D01*
G01*
X95875000Y-154625000D01*
G75*
G02*
X95775000Y-154725000I-100000J0D01*
G01*
X94550000Y-154725000D01*
G75*
G02*
X94450000Y-154625000I0J100000D01*
G01*
G37*
G36*
G01*
X92210000Y-155245000D02*
X92210000Y-154835000D01*
G75*
G02*
X92390000Y-154655000I180000J0D01*
G01*
X92750000Y-154655000D01*
G75*
G02*
X92930000Y-154835000I0J-180000D01*
G01*
X92930000Y-155245000D01*
G75*
G02*
X92750000Y-155425000I-180000J0D01*
G01*
X92390000Y-155425000D01*
G75*
G02*
X92210000Y-155245000I0J180000D01*
G01*
G37*
G36*
G01*
X92210000Y-156165000D02*
X92210000Y-155755000D01*
G75*
G02*
X92390000Y-155575000I180000J0D01*
G01*
X92750000Y-155575000D01*
G75*
G02*
X92930000Y-155755000I0J-180000D01*
G01*
X92930000Y-156165000D01*
G75*
G02*
X92750000Y-156345000I-180000J0D01*
G01*
X92390000Y-156345000D01*
G75*
G02*
X92210000Y-156165000I0J180000D01*
G01*
G37*
G36*
G01*
X93070000Y-155245000D02*
X93070000Y-154835000D01*
G75*
G02*
X93250000Y-154655000I180000J0D01*
G01*
X93610000Y-154655000D01*
G75*
G02*
X93790000Y-154835000I0J-180000D01*
G01*
X93790000Y-155245000D01*
G75*
G02*
X93610000Y-155425000I-180000J0D01*
G01*
X93250000Y-155425000D01*
G75*
G02*
X93070000Y-155245000I0J180000D01*
G01*
G37*
G36*
G01*
X93070000Y-156165000D02*
X93070000Y-155755000D01*
G75*
G02*
X93250000Y-155575000I180000J0D01*
G01*
X93610000Y-155575000D01*
G75*
G02*
X93790000Y-155755000I0J-180000D01*
G01*
X93790000Y-156165000D01*
G75*
G02*
X93610000Y-156345000I-180000J0D01*
G01*
X93250000Y-156345000D01*
G75*
G02*
X93070000Y-156165000I0J180000D01*
G01*
G37*
%TD*%
%TO.C,U13*%
G36*
G01*
X113070000Y-87165000D02*
X113070000Y-86755000D01*
G75*
G02*
X113250000Y-86575000I180000J0D01*
G01*
X113610000Y-86575000D01*
G75*
G02*
X113790000Y-86755000I0J-180000D01*
G01*
X113790000Y-87165000D01*
G75*
G02*
X113610000Y-87345000I-180000J0D01*
G01*
X113250000Y-87345000D01*
G75*
G02*
X113070000Y-87165000I0J180000D01*
G01*
G37*
G36*
G01*
X113070000Y-86245000D02*
X113070000Y-85835000D01*
G75*
G02*
X113250000Y-85655000I180000J0D01*
G01*
X113610000Y-85655000D01*
G75*
G02*
X113790000Y-85835000I0J-180000D01*
G01*
X113790000Y-86245000D01*
G75*
G02*
X113610000Y-86425000I-180000J0D01*
G01*
X113250000Y-86425000D01*
G75*
G02*
X113070000Y-86245000I0J180000D01*
G01*
G37*
G36*
G01*
X112210000Y-87165000D02*
X112210000Y-86755000D01*
G75*
G02*
X112390000Y-86575000I180000J0D01*
G01*
X112750000Y-86575000D01*
G75*
G02*
X112930000Y-86755000I0J-180000D01*
G01*
X112930000Y-87165000D01*
G75*
G02*
X112750000Y-87345000I-180000J0D01*
G01*
X112390000Y-87345000D01*
G75*
G02*
X112210000Y-87165000I0J180000D01*
G01*
G37*
G36*
G01*
X112210000Y-86245000D02*
X112210000Y-85835000D01*
G75*
G02*
X112390000Y-85655000I180000J0D01*
G01*
X112750000Y-85655000D01*
G75*
G02*
X112930000Y-85835000I0J-180000D01*
G01*
X112930000Y-86245000D01*
G75*
G02*
X112750000Y-86425000I-180000J0D01*
G01*
X112390000Y-86425000D01*
G75*
G02*
X112210000Y-86245000I0J180000D01*
G01*
G37*
G36*
G01*
X114450000Y-85625000D02*
X114450000Y-85425000D01*
G75*
G02*
X114550000Y-85325000I100000J0D01*
G01*
X115775000Y-85325000D01*
G75*
G02*
X115875000Y-85425000I0J-100000D01*
G01*
X115875000Y-85625000D01*
G75*
G02*
X115775000Y-85725000I-100000J0D01*
G01*
X114550000Y-85725000D01*
G75*
G02*
X114450000Y-85625000I0J100000D01*
G01*
G37*
G36*
G01*
X114450000Y-86275000D02*
X114450000Y-86075000D01*
G75*
G02*
X114550000Y-85975000I100000J0D01*
G01*
X115775000Y-85975000D01*
G75*
G02*
X115875000Y-86075000I0J-100000D01*
G01*
X115875000Y-86275000D01*
G75*
G02*
X115775000Y-86375000I-100000J0D01*
G01*
X114550000Y-86375000D01*
G75*
G02*
X114450000Y-86275000I0J100000D01*
G01*
G37*
G36*
G01*
X114450000Y-86925000D02*
X114450000Y-86725000D01*
G75*
G02*
X114550000Y-86625000I100000J0D01*
G01*
X115775000Y-86625000D01*
G75*
G02*
X115875000Y-86725000I0J-100000D01*
G01*
X115875000Y-86925000D01*
G75*
G02*
X115775000Y-87025000I-100000J0D01*
G01*
X114550000Y-87025000D01*
G75*
G02*
X114450000Y-86925000I0J100000D01*
G01*
G37*
G36*
G01*
X114450000Y-87575000D02*
X114450000Y-87375000D01*
G75*
G02*
X114550000Y-87275000I100000J0D01*
G01*
X115775000Y-87275000D01*
G75*
G02*
X115875000Y-87375000I0J-100000D01*
G01*
X115875000Y-87575000D01*
G75*
G02*
X115775000Y-87675000I-100000J0D01*
G01*
X114550000Y-87675000D01*
G75*
G02*
X114450000Y-87575000I0J100000D01*
G01*
G37*
G36*
G01*
X110125000Y-87575000D02*
X110125000Y-87375000D01*
G75*
G02*
X110225000Y-87275000I100000J0D01*
G01*
X111450000Y-87275000D01*
G75*
G02*
X111550000Y-87375000I0J-100000D01*
G01*
X111550000Y-87575000D01*
G75*
G02*
X111450000Y-87675000I-100000J0D01*
G01*
X110225000Y-87675000D01*
G75*
G02*
X110125000Y-87575000I0J100000D01*
G01*
G37*
G36*
G01*
X110125000Y-86925000D02*
X110125000Y-86725000D01*
G75*
G02*
X110225000Y-86625000I100000J0D01*
G01*
X111450000Y-86625000D01*
G75*
G02*
X111550000Y-86725000I0J-100000D01*
G01*
X111550000Y-86925000D01*
G75*
G02*
X111450000Y-87025000I-100000J0D01*
G01*
X110225000Y-87025000D01*
G75*
G02*
X110125000Y-86925000I0J100000D01*
G01*
G37*
G36*
G01*
X110125000Y-86275000D02*
X110125000Y-86075000D01*
G75*
G02*
X110225000Y-85975000I100000J0D01*
G01*
X111450000Y-85975000D01*
G75*
G02*
X111550000Y-86075000I0J-100000D01*
G01*
X111550000Y-86275000D01*
G75*
G02*
X111450000Y-86375000I-100000J0D01*
G01*
X110225000Y-86375000D01*
G75*
G02*
X110125000Y-86275000I0J100000D01*
G01*
G37*
G36*
G01*
X110125000Y-85625000D02*
X110125000Y-85425000D01*
G75*
G02*
X110225000Y-85325000I100000J0D01*
G01*
X111450000Y-85325000D01*
G75*
G02*
X111550000Y-85425000I0J-100000D01*
G01*
X111550000Y-85625000D01*
G75*
G02*
X111450000Y-85725000I-100000J0D01*
G01*
X110225000Y-85725000D01*
G75*
G02*
X110125000Y-85625000I0J100000D01*
G01*
G37*
%TD*%
%TO.C,U14*%
G36*
G01*
X113070000Y-101165000D02*
X113070000Y-100755000D01*
G75*
G02*
X113250000Y-100575000I180000J0D01*
G01*
X113610000Y-100575000D01*
G75*
G02*
X113790000Y-100755000I0J-180000D01*
G01*
X113790000Y-101165000D01*
G75*
G02*
X113610000Y-101345000I-180000J0D01*
G01*
X113250000Y-101345000D01*
G75*
G02*
X113070000Y-101165000I0J180000D01*
G01*
G37*
G36*
G01*
X113070000Y-100245000D02*
X113070000Y-99835000D01*
G75*
G02*
X113250000Y-99655000I180000J0D01*
G01*
X113610000Y-99655000D01*
G75*
G02*
X113790000Y-99835000I0J-180000D01*
G01*
X113790000Y-100245000D01*
G75*
G02*
X113610000Y-100425000I-180000J0D01*
G01*
X113250000Y-100425000D01*
G75*
G02*
X113070000Y-100245000I0J180000D01*
G01*
G37*
G36*
G01*
X112210000Y-101165000D02*
X112210000Y-100755000D01*
G75*
G02*
X112390000Y-100575000I180000J0D01*
G01*
X112750000Y-100575000D01*
G75*
G02*
X112930000Y-100755000I0J-180000D01*
G01*
X112930000Y-101165000D01*
G75*
G02*
X112750000Y-101345000I-180000J0D01*
G01*
X112390000Y-101345000D01*
G75*
G02*
X112210000Y-101165000I0J180000D01*
G01*
G37*
G36*
G01*
X112210000Y-100245000D02*
X112210000Y-99835000D01*
G75*
G02*
X112390000Y-99655000I180000J0D01*
G01*
X112750000Y-99655000D01*
G75*
G02*
X112930000Y-99835000I0J-180000D01*
G01*
X112930000Y-100245000D01*
G75*
G02*
X112750000Y-100425000I-180000J0D01*
G01*
X112390000Y-100425000D01*
G75*
G02*
X112210000Y-100245000I0J180000D01*
G01*
G37*
G36*
G01*
X114450000Y-99625000D02*
X114450000Y-99425000D01*
G75*
G02*
X114550000Y-99325000I100000J0D01*
G01*
X115775000Y-99325000D01*
G75*
G02*
X115875000Y-99425000I0J-100000D01*
G01*
X115875000Y-99625000D01*
G75*
G02*
X115775000Y-99725000I-100000J0D01*
G01*
X114550000Y-99725000D01*
G75*
G02*
X114450000Y-99625000I0J100000D01*
G01*
G37*
G36*
G01*
X114450000Y-100275000D02*
X114450000Y-100075000D01*
G75*
G02*
X114550000Y-99975000I100000J0D01*
G01*
X115775000Y-99975000D01*
G75*
G02*
X115875000Y-100075000I0J-100000D01*
G01*
X115875000Y-100275000D01*
G75*
G02*
X115775000Y-100375000I-100000J0D01*
G01*
X114550000Y-100375000D01*
G75*
G02*
X114450000Y-100275000I0J100000D01*
G01*
G37*
G36*
G01*
X114450000Y-100925000D02*
X114450000Y-100725000D01*
G75*
G02*
X114550000Y-100625000I100000J0D01*
G01*
X115775000Y-100625000D01*
G75*
G02*
X115875000Y-100725000I0J-100000D01*
G01*
X115875000Y-100925000D01*
G75*
G02*
X115775000Y-101025000I-100000J0D01*
G01*
X114550000Y-101025000D01*
G75*
G02*
X114450000Y-100925000I0J100000D01*
G01*
G37*
G36*
G01*
X114450000Y-101575000D02*
X114450000Y-101375000D01*
G75*
G02*
X114550000Y-101275000I100000J0D01*
G01*
X115775000Y-101275000D01*
G75*
G02*
X115875000Y-101375000I0J-100000D01*
G01*
X115875000Y-101575000D01*
G75*
G02*
X115775000Y-101675000I-100000J0D01*
G01*
X114550000Y-101675000D01*
G75*
G02*
X114450000Y-101575000I0J100000D01*
G01*
G37*
G36*
G01*
X110125000Y-101575000D02*
X110125000Y-101375000D01*
G75*
G02*
X110225000Y-101275000I100000J0D01*
G01*
X111450000Y-101275000D01*
G75*
G02*
X111550000Y-101375000I0J-100000D01*
G01*
X111550000Y-101575000D01*
G75*
G02*
X111450000Y-101675000I-100000J0D01*
G01*
X110225000Y-101675000D01*
G75*
G02*
X110125000Y-101575000I0J100000D01*
G01*
G37*
G36*
G01*
X110125000Y-100925000D02*
X110125000Y-100725000D01*
G75*
G02*
X110225000Y-100625000I100000J0D01*
G01*
X111450000Y-100625000D01*
G75*
G02*
X111550000Y-100725000I0J-100000D01*
G01*
X111550000Y-100925000D01*
G75*
G02*
X111450000Y-101025000I-100000J0D01*
G01*
X110225000Y-101025000D01*
G75*
G02*
X110125000Y-100925000I0J100000D01*
G01*
G37*
G36*
G01*
X110125000Y-100275000D02*
X110125000Y-100075000D01*
G75*
G02*
X110225000Y-99975000I100000J0D01*
G01*
X111450000Y-99975000D01*
G75*
G02*
X111550000Y-100075000I0J-100000D01*
G01*
X111550000Y-100275000D01*
G75*
G02*
X111450000Y-100375000I-100000J0D01*
G01*
X110225000Y-100375000D01*
G75*
G02*
X110125000Y-100275000I0J100000D01*
G01*
G37*
G36*
G01*
X110125000Y-99625000D02*
X110125000Y-99425000D01*
G75*
G02*
X110225000Y-99325000I100000J0D01*
G01*
X111450000Y-99325000D01*
G75*
G02*
X111550000Y-99425000I0J-100000D01*
G01*
X111550000Y-99625000D01*
G75*
G02*
X111450000Y-99725000I-100000J0D01*
G01*
X110225000Y-99725000D01*
G75*
G02*
X110125000Y-99625000I0J100000D01*
G01*
G37*
%TD*%
%TO.C,U15*%
G36*
G01*
X113070000Y-114665000D02*
X113070000Y-114255000D01*
G75*
G02*
X113250000Y-114075000I180000J0D01*
G01*
X113610000Y-114075000D01*
G75*
G02*
X113790000Y-114255000I0J-180000D01*
G01*
X113790000Y-114665000D01*
G75*
G02*
X113610000Y-114845000I-180000J0D01*
G01*
X113250000Y-114845000D01*
G75*
G02*
X113070000Y-114665000I0J180000D01*
G01*
G37*
G36*
G01*
X113070000Y-113745000D02*
X113070000Y-113335000D01*
G75*
G02*
X113250000Y-113155000I180000J0D01*
G01*
X113610000Y-113155000D01*
G75*
G02*
X113790000Y-113335000I0J-180000D01*
G01*
X113790000Y-113745000D01*
G75*
G02*
X113610000Y-113925000I-180000J0D01*
G01*
X113250000Y-113925000D01*
G75*
G02*
X113070000Y-113745000I0J180000D01*
G01*
G37*
G36*
G01*
X112210000Y-114665000D02*
X112210000Y-114255000D01*
G75*
G02*
X112390000Y-114075000I180000J0D01*
G01*
X112750000Y-114075000D01*
G75*
G02*
X112930000Y-114255000I0J-180000D01*
G01*
X112930000Y-114665000D01*
G75*
G02*
X112750000Y-114845000I-180000J0D01*
G01*
X112390000Y-114845000D01*
G75*
G02*
X112210000Y-114665000I0J180000D01*
G01*
G37*
G36*
G01*
X112210000Y-113745000D02*
X112210000Y-113335000D01*
G75*
G02*
X112390000Y-113155000I180000J0D01*
G01*
X112750000Y-113155000D01*
G75*
G02*
X112930000Y-113335000I0J-180000D01*
G01*
X112930000Y-113745000D01*
G75*
G02*
X112750000Y-113925000I-180000J0D01*
G01*
X112390000Y-113925000D01*
G75*
G02*
X112210000Y-113745000I0J180000D01*
G01*
G37*
G36*
G01*
X114450000Y-113125000D02*
X114450000Y-112925000D01*
G75*
G02*
X114550000Y-112825000I100000J0D01*
G01*
X115775000Y-112825000D01*
G75*
G02*
X115875000Y-112925000I0J-100000D01*
G01*
X115875000Y-113125000D01*
G75*
G02*
X115775000Y-113225000I-100000J0D01*
G01*
X114550000Y-113225000D01*
G75*
G02*
X114450000Y-113125000I0J100000D01*
G01*
G37*
G36*
G01*
X114450000Y-113775000D02*
X114450000Y-113575000D01*
G75*
G02*
X114550000Y-113475000I100000J0D01*
G01*
X115775000Y-113475000D01*
G75*
G02*
X115875000Y-113575000I0J-100000D01*
G01*
X115875000Y-113775000D01*
G75*
G02*
X115775000Y-113875000I-100000J0D01*
G01*
X114550000Y-113875000D01*
G75*
G02*
X114450000Y-113775000I0J100000D01*
G01*
G37*
G36*
G01*
X114450000Y-114425000D02*
X114450000Y-114225000D01*
G75*
G02*
X114550000Y-114125000I100000J0D01*
G01*
X115775000Y-114125000D01*
G75*
G02*
X115875000Y-114225000I0J-100000D01*
G01*
X115875000Y-114425000D01*
G75*
G02*
X115775000Y-114525000I-100000J0D01*
G01*
X114550000Y-114525000D01*
G75*
G02*
X114450000Y-114425000I0J100000D01*
G01*
G37*
G36*
G01*
X114450000Y-115075000D02*
X114450000Y-114875000D01*
G75*
G02*
X114550000Y-114775000I100000J0D01*
G01*
X115775000Y-114775000D01*
G75*
G02*
X115875000Y-114875000I0J-100000D01*
G01*
X115875000Y-115075000D01*
G75*
G02*
X115775000Y-115175000I-100000J0D01*
G01*
X114550000Y-115175000D01*
G75*
G02*
X114450000Y-115075000I0J100000D01*
G01*
G37*
G36*
G01*
X110125000Y-115075000D02*
X110125000Y-114875000D01*
G75*
G02*
X110225000Y-114775000I100000J0D01*
G01*
X111450000Y-114775000D01*
G75*
G02*
X111550000Y-114875000I0J-100000D01*
G01*
X111550000Y-115075000D01*
G75*
G02*
X111450000Y-115175000I-100000J0D01*
G01*
X110225000Y-115175000D01*
G75*
G02*
X110125000Y-115075000I0J100000D01*
G01*
G37*
G36*
G01*
X110125000Y-114425000D02*
X110125000Y-114225000D01*
G75*
G02*
X110225000Y-114125000I100000J0D01*
G01*
X111450000Y-114125000D01*
G75*
G02*
X111550000Y-114225000I0J-100000D01*
G01*
X111550000Y-114425000D01*
G75*
G02*
X111450000Y-114525000I-100000J0D01*
G01*
X110225000Y-114525000D01*
G75*
G02*
X110125000Y-114425000I0J100000D01*
G01*
G37*
G36*
G01*
X110125000Y-113775000D02*
X110125000Y-113575000D01*
G75*
G02*
X110225000Y-113475000I100000J0D01*
G01*
X111450000Y-113475000D01*
G75*
G02*
X111550000Y-113575000I0J-100000D01*
G01*
X111550000Y-113775000D01*
G75*
G02*
X111450000Y-113875000I-100000J0D01*
G01*
X110225000Y-113875000D01*
G75*
G02*
X110125000Y-113775000I0J100000D01*
G01*
G37*
G36*
G01*
X110125000Y-113125000D02*
X110125000Y-112925000D01*
G75*
G02*
X110225000Y-112825000I100000J0D01*
G01*
X111450000Y-112825000D01*
G75*
G02*
X111550000Y-112925000I0J-100000D01*
G01*
X111550000Y-113125000D01*
G75*
G02*
X111450000Y-113225000I-100000J0D01*
G01*
X110225000Y-113225000D01*
G75*
G02*
X110125000Y-113125000I0J100000D01*
G01*
G37*
%TD*%
%TO.C,U16*%
G36*
G01*
X113070000Y-128165000D02*
X113070000Y-127755000D01*
G75*
G02*
X113250000Y-127575000I180000J0D01*
G01*
X113610000Y-127575000D01*
G75*
G02*
X113790000Y-127755000I0J-180000D01*
G01*
X113790000Y-128165000D01*
G75*
G02*
X113610000Y-128345000I-180000J0D01*
G01*
X113250000Y-128345000D01*
G75*
G02*
X113070000Y-128165000I0J180000D01*
G01*
G37*
G36*
G01*
X113070000Y-127245000D02*
X113070000Y-126835000D01*
G75*
G02*
X113250000Y-126655000I180000J0D01*
G01*
X113610000Y-126655000D01*
G75*
G02*
X113790000Y-126835000I0J-180000D01*
G01*
X113790000Y-127245000D01*
G75*
G02*
X113610000Y-127425000I-180000J0D01*
G01*
X113250000Y-127425000D01*
G75*
G02*
X113070000Y-127245000I0J180000D01*
G01*
G37*
G36*
G01*
X112210000Y-128165000D02*
X112210000Y-127755000D01*
G75*
G02*
X112390000Y-127575000I180000J0D01*
G01*
X112750000Y-127575000D01*
G75*
G02*
X112930000Y-127755000I0J-180000D01*
G01*
X112930000Y-128165000D01*
G75*
G02*
X112750000Y-128345000I-180000J0D01*
G01*
X112390000Y-128345000D01*
G75*
G02*
X112210000Y-128165000I0J180000D01*
G01*
G37*
G36*
G01*
X112210000Y-127245000D02*
X112210000Y-126835000D01*
G75*
G02*
X112390000Y-126655000I180000J0D01*
G01*
X112750000Y-126655000D01*
G75*
G02*
X112930000Y-126835000I0J-180000D01*
G01*
X112930000Y-127245000D01*
G75*
G02*
X112750000Y-127425000I-180000J0D01*
G01*
X112390000Y-127425000D01*
G75*
G02*
X112210000Y-127245000I0J180000D01*
G01*
G37*
G36*
G01*
X114450000Y-126625000D02*
X114450000Y-126425000D01*
G75*
G02*
X114550000Y-126325000I100000J0D01*
G01*
X115775000Y-126325000D01*
G75*
G02*
X115875000Y-126425000I0J-100000D01*
G01*
X115875000Y-126625000D01*
G75*
G02*
X115775000Y-126725000I-100000J0D01*
G01*
X114550000Y-126725000D01*
G75*
G02*
X114450000Y-126625000I0J100000D01*
G01*
G37*
G36*
G01*
X114450000Y-127275000D02*
X114450000Y-127075000D01*
G75*
G02*
X114550000Y-126975000I100000J0D01*
G01*
X115775000Y-126975000D01*
G75*
G02*
X115875000Y-127075000I0J-100000D01*
G01*
X115875000Y-127275000D01*
G75*
G02*
X115775000Y-127375000I-100000J0D01*
G01*
X114550000Y-127375000D01*
G75*
G02*
X114450000Y-127275000I0J100000D01*
G01*
G37*
G36*
G01*
X114450000Y-127925000D02*
X114450000Y-127725000D01*
G75*
G02*
X114550000Y-127625000I100000J0D01*
G01*
X115775000Y-127625000D01*
G75*
G02*
X115875000Y-127725000I0J-100000D01*
G01*
X115875000Y-127925000D01*
G75*
G02*
X115775000Y-128025000I-100000J0D01*
G01*
X114550000Y-128025000D01*
G75*
G02*
X114450000Y-127925000I0J100000D01*
G01*
G37*
G36*
G01*
X114450000Y-128575000D02*
X114450000Y-128375000D01*
G75*
G02*
X114550000Y-128275000I100000J0D01*
G01*
X115775000Y-128275000D01*
G75*
G02*
X115875000Y-128375000I0J-100000D01*
G01*
X115875000Y-128575000D01*
G75*
G02*
X115775000Y-128675000I-100000J0D01*
G01*
X114550000Y-128675000D01*
G75*
G02*
X114450000Y-128575000I0J100000D01*
G01*
G37*
G36*
G01*
X110125000Y-128575000D02*
X110125000Y-128375000D01*
G75*
G02*
X110225000Y-128275000I100000J0D01*
G01*
X111450000Y-128275000D01*
G75*
G02*
X111550000Y-128375000I0J-100000D01*
G01*
X111550000Y-128575000D01*
G75*
G02*
X111450000Y-128675000I-100000J0D01*
G01*
X110225000Y-128675000D01*
G75*
G02*
X110125000Y-128575000I0J100000D01*
G01*
G37*
G36*
G01*
X110125000Y-127925000D02*
X110125000Y-127725000D01*
G75*
G02*
X110225000Y-127625000I100000J0D01*
G01*
X111450000Y-127625000D01*
G75*
G02*
X111550000Y-127725000I0J-100000D01*
G01*
X111550000Y-127925000D01*
G75*
G02*
X111450000Y-128025000I-100000J0D01*
G01*
X110225000Y-128025000D01*
G75*
G02*
X110125000Y-127925000I0J100000D01*
G01*
G37*
G36*
G01*
X110125000Y-127275000D02*
X110125000Y-127075000D01*
G75*
G02*
X110225000Y-126975000I100000J0D01*
G01*
X111450000Y-126975000D01*
G75*
G02*
X111550000Y-127075000I0J-100000D01*
G01*
X111550000Y-127275000D01*
G75*
G02*
X111450000Y-127375000I-100000J0D01*
G01*
X110225000Y-127375000D01*
G75*
G02*
X110125000Y-127275000I0J100000D01*
G01*
G37*
G36*
G01*
X110125000Y-126625000D02*
X110125000Y-126425000D01*
G75*
G02*
X110225000Y-126325000I100000J0D01*
G01*
X111450000Y-126325000D01*
G75*
G02*
X111550000Y-126425000I0J-100000D01*
G01*
X111550000Y-126625000D01*
G75*
G02*
X111450000Y-126725000I-100000J0D01*
G01*
X110225000Y-126725000D01*
G75*
G02*
X110125000Y-126625000I0J100000D01*
G01*
G37*
%TD*%
%TO.C,U17*%
G36*
G01*
X110125000Y-140625000D02*
X110125000Y-140425000D01*
G75*
G02*
X110225000Y-140325000I100000J0D01*
G01*
X111450000Y-140325000D01*
G75*
G02*
X111550000Y-140425000I0J-100000D01*
G01*
X111550000Y-140625000D01*
G75*
G02*
X111450000Y-140725000I-100000J0D01*
G01*
X110225000Y-140725000D01*
G75*
G02*
X110125000Y-140625000I0J100000D01*
G01*
G37*
G36*
G01*
X110125000Y-141275000D02*
X110125000Y-141075000D01*
G75*
G02*
X110225000Y-140975000I100000J0D01*
G01*
X111450000Y-140975000D01*
G75*
G02*
X111550000Y-141075000I0J-100000D01*
G01*
X111550000Y-141275000D01*
G75*
G02*
X111450000Y-141375000I-100000J0D01*
G01*
X110225000Y-141375000D01*
G75*
G02*
X110125000Y-141275000I0J100000D01*
G01*
G37*
G36*
G01*
X110125000Y-141925000D02*
X110125000Y-141725000D01*
G75*
G02*
X110225000Y-141625000I100000J0D01*
G01*
X111450000Y-141625000D01*
G75*
G02*
X111550000Y-141725000I0J-100000D01*
G01*
X111550000Y-141925000D01*
G75*
G02*
X111450000Y-142025000I-100000J0D01*
G01*
X110225000Y-142025000D01*
G75*
G02*
X110125000Y-141925000I0J100000D01*
G01*
G37*
G36*
G01*
X110125000Y-142575000D02*
X110125000Y-142375000D01*
G75*
G02*
X110225000Y-142275000I100000J0D01*
G01*
X111450000Y-142275000D01*
G75*
G02*
X111550000Y-142375000I0J-100000D01*
G01*
X111550000Y-142575000D01*
G75*
G02*
X111450000Y-142675000I-100000J0D01*
G01*
X110225000Y-142675000D01*
G75*
G02*
X110125000Y-142575000I0J100000D01*
G01*
G37*
G36*
G01*
X114450000Y-142575000D02*
X114450000Y-142375000D01*
G75*
G02*
X114550000Y-142275000I100000J0D01*
G01*
X115775000Y-142275000D01*
G75*
G02*
X115875000Y-142375000I0J-100000D01*
G01*
X115875000Y-142575000D01*
G75*
G02*
X115775000Y-142675000I-100000J0D01*
G01*
X114550000Y-142675000D01*
G75*
G02*
X114450000Y-142575000I0J100000D01*
G01*
G37*
G36*
G01*
X114450000Y-141925000D02*
X114450000Y-141725000D01*
G75*
G02*
X114550000Y-141625000I100000J0D01*
G01*
X115775000Y-141625000D01*
G75*
G02*
X115875000Y-141725000I0J-100000D01*
G01*
X115875000Y-141925000D01*
G75*
G02*
X115775000Y-142025000I-100000J0D01*
G01*
X114550000Y-142025000D01*
G75*
G02*
X114450000Y-141925000I0J100000D01*
G01*
G37*
G36*
G01*
X114450000Y-141275000D02*
X114450000Y-141075000D01*
G75*
G02*
X114550000Y-140975000I100000J0D01*
G01*
X115775000Y-140975000D01*
G75*
G02*
X115875000Y-141075000I0J-100000D01*
G01*
X115875000Y-141275000D01*
G75*
G02*
X115775000Y-141375000I-100000J0D01*
G01*
X114550000Y-141375000D01*
G75*
G02*
X114450000Y-141275000I0J100000D01*
G01*
G37*
G36*
G01*
X114450000Y-140625000D02*
X114450000Y-140425000D01*
G75*
G02*
X114550000Y-140325000I100000J0D01*
G01*
X115775000Y-140325000D01*
G75*
G02*
X115875000Y-140425000I0J-100000D01*
G01*
X115875000Y-140625000D01*
G75*
G02*
X115775000Y-140725000I-100000J0D01*
G01*
X114550000Y-140725000D01*
G75*
G02*
X114450000Y-140625000I0J100000D01*
G01*
G37*
G36*
G01*
X112210000Y-141245000D02*
X112210000Y-140835000D01*
G75*
G02*
X112390000Y-140655000I180000J0D01*
G01*
X112750000Y-140655000D01*
G75*
G02*
X112930000Y-140835000I0J-180000D01*
G01*
X112930000Y-141245000D01*
G75*
G02*
X112750000Y-141425000I-180000J0D01*
G01*
X112390000Y-141425000D01*
G75*
G02*
X112210000Y-141245000I0J180000D01*
G01*
G37*
G36*
G01*
X112210000Y-142165000D02*
X112210000Y-141755000D01*
G75*
G02*
X112390000Y-141575000I180000J0D01*
G01*
X112750000Y-141575000D01*
G75*
G02*
X112930000Y-141755000I0J-180000D01*
G01*
X112930000Y-142165000D01*
G75*
G02*
X112750000Y-142345000I-180000J0D01*
G01*
X112390000Y-142345000D01*
G75*
G02*
X112210000Y-142165000I0J180000D01*
G01*
G37*
G36*
G01*
X113070000Y-141245000D02*
X113070000Y-140835000D01*
G75*
G02*
X113250000Y-140655000I180000J0D01*
G01*
X113610000Y-140655000D01*
G75*
G02*
X113790000Y-140835000I0J-180000D01*
G01*
X113790000Y-141245000D01*
G75*
G02*
X113610000Y-141425000I-180000J0D01*
G01*
X113250000Y-141425000D01*
G75*
G02*
X113070000Y-141245000I0J180000D01*
G01*
G37*
G36*
G01*
X113070000Y-142165000D02*
X113070000Y-141755000D01*
G75*
G02*
X113250000Y-141575000I180000J0D01*
G01*
X113610000Y-141575000D01*
G75*
G02*
X113790000Y-141755000I0J-180000D01*
G01*
X113790000Y-142165000D01*
G75*
G02*
X113610000Y-142345000I-180000J0D01*
G01*
X113250000Y-142345000D01*
G75*
G02*
X113070000Y-142165000I0J180000D01*
G01*
G37*
%TD*%
%TO.C,U18*%
G36*
G01*
X113070000Y-156165000D02*
X113070000Y-155755000D01*
G75*
G02*
X113250000Y-155575000I180000J0D01*
G01*
X113610000Y-155575000D01*
G75*
G02*
X113790000Y-155755000I0J-180000D01*
G01*
X113790000Y-156165000D01*
G75*
G02*
X113610000Y-156345000I-180000J0D01*
G01*
X113250000Y-156345000D01*
G75*
G02*
X113070000Y-156165000I0J180000D01*
G01*
G37*
G36*
G01*
X113070000Y-155245000D02*
X113070000Y-154835000D01*
G75*
G02*
X113250000Y-154655000I180000J0D01*
G01*
X113610000Y-154655000D01*
G75*
G02*
X113790000Y-154835000I0J-180000D01*
G01*
X113790000Y-155245000D01*
G75*
G02*
X113610000Y-155425000I-180000J0D01*
G01*
X113250000Y-155425000D01*
G75*
G02*
X113070000Y-155245000I0J180000D01*
G01*
G37*
G36*
G01*
X112210000Y-156165000D02*
X112210000Y-155755000D01*
G75*
G02*
X112390000Y-155575000I180000J0D01*
G01*
X112750000Y-155575000D01*
G75*
G02*
X112930000Y-155755000I0J-180000D01*
G01*
X112930000Y-156165000D01*
G75*
G02*
X112750000Y-156345000I-180000J0D01*
G01*
X112390000Y-156345000D01*
G75*
G02*
X112210000Y-156165000I0J180000D01*
G01*
G37*
G36*
G01*
X112210000Y-155245000D02*
X112210000Y-154835000D01*
G75*
G02*
X112390000Y-154655000I180000J0D01*
G01*
X112750000Y-154655000D01*
G75*
G02*
X112930000Y-154835000I0J-180000D01*
G01*
X112930000Y-155245000D01*
G75*
G02*
X112750000Y-155425000I-180000J0D01*
G01*
X112390000Y-155425000D01*
G75*
G02*
X112210000Y-155245000I0J180000D01*
G01*
G37*
G36*
G01*
X114450000Y-154625000D02*
X114450000Y-154425000D01*
G75*
G02*
X114550000Y-154325000I100000J0D01*
G01*
X115775000Y-154325000D01*
G75*
G02*
X115875000Y-154425000I0J-100000D01*
G01*
X115875000Y-154625000D01*
G75*
G02*
X115775000Y-154725000I-100000J0D01*
G01*
X114550000Y-154725000D01*
G75*
G02*
X114450000Y-154625000I0J100000D01*
G01*
G37*
G36*
G01*
X114450000Y-155275000D02*
X114450000Y-155075000D01*
G75*
G02*
X114550000Y-154975000I100000J0D01*
G01*
X115775000Y-154975000D01*
G75*
G02*
X115875000Y-155075000I0J-100000D01*
G01*
X115875000Y-155275000D01*
G75*
G02*
X115775000Y-155375000I-100000J0D01*
G01*
X114550000Y-155375000D01*
G75*
G02*
X114450000Y-155275000I0J100000D01*
G01*
G37*
G36*
G01*
X114450000Y-155925000D02*
X114450000Y-155725000D01*
G75*
G02*
X114550000Y-155625000I100000J0D01*
G01*
X115775000Y-155625000D01*
G75*
G02*
X115875000Y-155725000I0J-100000D01*
G01*
X115875000Y-155925000D01*
G75*
G02*
X115775000Y-156025000I-100000J0D01*
G01*
X114550000Y-156025000D01*
G75*
G02*
X114450000Y-155925000I0J100000D01*
G01*
G37*
G36*
G01*
X114450000Y-156575000D02*
X114450000Y-156375000D01*
G75*
G02*
X114550000Y-156275000I100000J0D01*
G01*
X115775000Y-156275000D01*
G75*
G02*
X115875000Y-156375000I0J-100000D01*
G01*
X115875000Y-156575000D01*
G75*
G02*
X115775000Y-156675000I-100000J0D01*
G01*
X114550000Y-156675000D01*
G75*
G02*
X114450000Y-156575000I0J100000D01*
G01*
G37*
G36*
G01*
X110125000Y-156575000D02*
X110125000Y-156375000D01*
G75*
G02*
X110225000Y-156275000I100000J0D01*
G01*
X111450000Y-156275000D01*
G75*
G02*
X111550000Y-156375000I0J-100000D01*
G01*
X111550000Y-156575000D01*
G75*
G02*
X111450000Y-156675000I-100000J0D01*
G01*
X110225000Y-156675000D01*
G75*
G02*
X110125000Y-156575000I0J100000D01*
G01*
G37*
G36*
G01*
X110125000Y-155925000D02*
X110125000Y-155725000D01*
G75*
G02*
X110225000Y-155625000I100000J0D01*
G01*
X111450000Y-155625000D01*
G75*
G02*
X111550000Y-155725000I0J-100000D01*
G01*
X111550000Y-155925000D01*
G75*
G02*
X111450000Y-156025000I-100000J0D01*
G01*
X110225000Y-156025000D01*
G75*
G02*
X110125000Y-155925000I0J100000D01*
G01*
G37*
G36*
G01*
X110125000Y-155275000D02*
X110125000Y-155075000D01*
G75*
G02*
X110225000Y-154975000I100000J0D01*
G01*
X111450000Y-154975000D01*
G75*
G02*
X111550000Y-155075000I0J-100000D01*
G01*
X111550000Y-155275000D01*
G75*
G02*
X111450000Y-155375000I-100000J0D01*
G01*
X110225000Y-155375000D01*
G75*
G02*
X110125000Y-155275000I0J100000D01*
G01*
G37*
G36*
G01*
X110125000Y-154625000D02*
X110125000Y-154425000D01*
G75*
G02*
X110225000Y-154325000I100000J0D01*
G01*
X111450000Y-154325000D01*
G75*
G02*
X111550000Y-154425000I0J-100000D01*
G01*
X111550000Y-154625000D01*
G75*
G02*
X111450000Y-154725000I-100000J0D01*
G01*
X110225000Y-154725000D01*
G75*
G02*
X110125000Y-154625000I0J100000D01*
G01*
G37*
%TD*%
%TO.C,U19*%
G36*
G01*
X133070000Y-101165000D02*
X133070000Y-100755000D01*
G75*
G02*
X133250000Y-100575000I180000J0D01*
G01*
X133610000Y-100575000D01*
G75*
G02*
X133790000Y-100755000I0J-180000D01*
G01*
X133790000Y-101165000D01*
G75*
G02*
X133610000Y-101345000I-180000J0D01*
G01*
X133250000Y-101345000D01*
G75*
G02*
X133070000Y-101165000I0J180000D01*
G01*
G37*
G36*
G01*
X133070000Y-100245000D02*
X133070000Y-99835000D01*
G75*
G02*
X133250000Y-99655000I180000J0D01*
G01*
X133610000Y-99655000D01*
G75*
G02*
X133790000Y-99835000I0J-180000D01*
G01*
X133790000Y-100245000D01*
G75*
G02*
X133610000Y-100425000I-180000J0D01*
G01*
X133250000Y-100425000D01*
G75*
G02*
X133070000Y-100245000I0J180000D01*
G01*
G37*
G36*
G01*
X132210000Y-101165000D02*
X132210000Y-100755000D01*
G75*
G02*
X132390000Y-100575000I180000J0D01*
G01*
X132750000Y-100575000D01*
G75*
G02*
X132930000Y-100755000I0J-180000D01*
G01*
X132930000Y-101165000D01*
G75*
G02*
X132750000Y-101345000I-180000J0D01*
G01*
X132390000Y-101345000D01*
G75*
G02*
X132210000Y-101165000I0J180000D01*
G01*
G37*
G36*
G01*
X132210000Y-100245000D02*
X132210000Y-99835000D01*
G75*
G02*
X132390000Y-99655000I180000J0D01*
G01*
X132750000Y-99655000D01*
G75*
G02*
X132930000Y-99835000I0J-180000D01*
G01*
X132930000Y-100245000D01*
G75*
G02*
X132750000Y-100425000I-180000J0D01*
G01*
X132390000Y-100425000D01*
G75*
G02*
X132210000Y-100245000I0J180000D01*
G01*
G37*
G36*
G01*
X134450000Y-99625000D02*
X134450000Y-99425000D01*
G75*
G02*
X134550000Y-99325000I100000J0D01*
G01*
X135775000Y-99325000D01*
G75*
G02*
X135875000Y-99425000I0J-100000D01*
G01*
X135875000Y-99625000D01*
G75*
G02*
X135775000Y-99725000I-100000J0D01*
G01*
X134550000Y-99725000D01*
G75*
G02*
X134450000Y-99625000I0J100000D01*
G01*
G37*
G36*
G01*
X134450000Y-100275000D02*
X134450000Y-100075000D01*
G75*
G02*
X134550000Y-99975000I100000J0D01*
G01*
X135775000Y-99975000D01*
G75*
G02*
X135875000Y-100075000I0J-100000D01*
G01*
X135875000Y-100275000D01*
G75*
G02*
X135775000Y-100375000I-100000J0D01*
G01*
X134550000Y-100375000D01*
G75*
G02*
X134450000Y-100275000I0J100000D01*
G01*
G37*
G36*
G01*
X134450000Y-100925000D02*
X134450000Y-100725000D01*
G75*
G02*
X134550000Y-100625000I100000J0D01*
G01*
X135775000Y-100625000D01*
G75*
G02*
X135875000Y-100725000I0J-100000D01*
G01*
X135875000Y-100925000D01*
G75*
G02*
X135775000Y-101025000I-100000J0D01*
G01*
X134550000Y-101025000D01*
G75*
G02*
X134450000Y-100925000I0J100000D01*
G01*
G37*
G36*
G01*
X134450000Y-101575000D02*
X134450000Y-101375000D01*
G75*
G02*
X134550000Y-101275000I100000J0D01*
G01*
X135775000Y-101275000D01*
G75*
G02*
X135875000Y-101375000I0J-100000D01*
G01*
X135875000Y-101575000D01*
G75*
G02*
X135775000Y-101675000I-100000J0D01*
G01*
X134550000Y-101675000D01*
G75*
G02*
X134450000Y-101575000I0J100000D01*
G01*
G37*
G36*
G01*
X130125000Y-101575000D02*
X130125000Y-101375000D01*
G75*
G02*
X130225000Y-101275000I100000J0D01*
G01*
X131450000Y-101275000D01*
G75*
G02*
X131550000Y-101375000I0J-100000D01*
G01*
X131550000Y-101575000D01*
G75*
G02*
X131450000Y-101675000I-100000J0D01*
G01*
X130225000Y-101675000D01*
G75*
G02*
X130125000Y-101575000I0J100000D01*
G01*
G37*
G36*
G01*
X130125000Y-100925000D02*
X130125000Y-100725000D01*
G75*
G02*
X130225000Y-100625000I100000J0D01*
G01*
X131450000Y-100625000D01*
G75*
G02*
X131550000Y-100725000I0J-100000D01*
G01*
X131550000Y-100925000D01*
G75*
G02*
X131450000Y-101025000I-100000J0D01*
G01*
X130225000Y-101025000D01*
G75*
G02*
X130125000Y-100925000I0J100000D01*
G01*
G37*
G36*
G01*
X130125000Y-100275000D02*
X130125000Y-100075000D01*
G75*
G02*
X130225000Y-99975000I100000J0D01*
G01*
X131450000Y-99975000D01*
G75*
G02*
X131550000Y-100075000I0J-100000D01*
G01*
X131550000Y-100275000D01*
G75*
G02*
X131450000Y-100375000I-100000J0D01*
G01*
X130225000Y-100375000D01*
G75*
G02*
X130125000Y-100275000I0J100000D01*
G01*
G37*
G36*
G01*
X130125000Y-99625000D02*
X130125000Y-99425000D01*
G75*
G02*
X130225000Y-99325000I100000J0D01*
G01*
X131450000Y-99325000D01*
G75*
G02*
X131550000Y-99425000I0J-100000D01*
G01*
X131550000Y-99625000D01*
G75*
G02*
X131450000Y-99725000I-100000J0D01*
G01*
X130225000Y-99725000D01*
G75*
G02*
X130125000Y-99625000I0J100000D01*
G01*
G37*
%TD*%
%TO.C,U20*%
G36*
G01*
X133070000Y-114665000D02*
X133070000Y-114255000D01*
G75*
G02*
X133250000Y-114075000I180000J0D01*
G01*
X133610000Y-114075000D01*
G75*
G02*
X133790000Y-114255000I0J-180000D01*
G01*
X133790000Y-114665000D01*
G75*
G02*
X133610000Y-114845000I-180000J0D01*
G01*
X133250000Y-114845000D01*
G75*
G02*
X133070000Y-114665000I0J180000D01*
G01*
G37*
G36*
G01*
X133070000Y-113745000D02*
X133070000Y-113335000D01*
G75*
G02*
X133250000Y-113155000I180000J0D01*
G01*
X133610000Y-113155000D01*
G75*
G02*
X133790000Y-113335000I0J-180000D01*
G01*
X133790000Y-113745000D01*
G75*
G02*
X133610000Y-113925000I-180000J0D01*
G01*
X133250000Y-113925000D01*
G75*
G02*
X133070000Y-113745000I0J180000D01*
G01*
G37*
G36*
G01*
X132210000Y-114665000D02*
X132210000Y-114255000D01*
G75*
G02*
X132390000Y-114075000I180000J0D01*
G01*
X132750000Y-114075000D01*
G75*
G02*
X132930000Y-114255000I0J-180000D01*
G01*
X132930000Y-114665000D01*
G75*
G02*
X132750000Y-114845000I-180000J0D01*
G01*
X132390000Y-114845000D01*
G75*
G02*
X132210000Y-114665000I0J180000D01*
G01*
G37*
G36*
G01*
X132210000Y-113745000D02*
X132210000Y-113335000D01*
G75*
G02*
X132390000Y-113155000I180000J0D01*
G01*
X132750000Y-113155000D01*
G75*
G02*
X132930000Y-113335000I0J-180000D01*
G01*
X132930000Y-113745000D01*
G75*
G02*
X132750000Y-113925000I-180000J0D01*
G01*
X132390000Y-113925000D01*
G75*
G02*
X132210000Y-113745000I0J180000D01*
G01*
G37*
G36*
G01*
X134450000Y-113125000D02*
X134450000Y-112925000D01*
G75*
G02*
X134550000Y-112825000I100000J0D01*
G01*
X135775000Y-112825000D01*
G75*
G02*
X135875000Y-112925000I0J-100000D01*
G01*
X135875000Y-113125000D01*
G75*
G02*
X135775000Y-113225000I-100000J0D01*
G01*
X134550000Y-113225000D01*
G75*
G02*
X134450000Y-113125000I0J100000D01*
G01*
G37*
G36*
G01*
X134450000Y-113775000D02*
X134450000Y-113575000D01*
G75*
G02*
X134550000Y-113475000I100000J0D01*
G01*
X135775000Y-113475000D01*
G75*
G02*
X135875000Y-113575000I0J-100000D01*
G01*
X135875000Y-113775000D01*
G75*
G02*
X135775000Y-113875000I-100000J0D01*
G01*
X134550000Y-113875000D01*
G75*
G02*
X134450000Y-113775000I0J100000D01*
G01*
G37*
G36*
G01*
X134450000Y-114425000D02*
X134450000Y-114225000D01*
G75*
G02*
X134550000Y-114125000I100000J0D01*
G01*
X135775000Y-114125000D01*
G75*
G02*
X135875000Y-114225000I0J-100000D01*
G01*
X135875000Y-114425000D01*
G75*
G02*
X135775000Y-114525000I-100000J0D01*
G01*
X134550000Y-114525000D01*
G75*
G02*
X134450000Y-114425000I0J100000D01*
G01*
G37*
G36*
G01*
X134450000Y-115075000D02*
X134450000Y-114875000D01*
G75*
G02*
X134550000Y-114775000I100000J0D01*
G01*
X135775000Y-114775000D01*
G75*
G02*
X135875000Y-114875000I0J-100000D01*
G01*
X135875000Y-115075000D01*
G75*
G02*
X135775000Y-115175000I-100000J0D01*
G01*
X134550000Y-115175000D01*
G75*
G02*
X134450000Y-115075000I0J100000D01*
G01*
G37*
G36*
G01*
X130125000Y-115075000D02*
X130125000Y-114875000D01*
G75*
G02*
X130225000Y-114775000I100000J0D01*
G01*
X131450000Y-114775000D01*
G75*
G02*
X131550000Y-114875000I0J-100000D01*
G01*
X131550000Y-115075000D01*
G75*
G02*
X131450000Y-115175000I-100000J0D01*
G01*
X130225000Y-115175000D01*
G75*
G02*
X130125000Y-115075000I0J100000D01*
G01*
G37*
G36*
G01*
X130125000Y-114425000D02*
X130125000Y-114225000D01*
G75*
G02*
X130225000Y-114125000I100000J0D01*
G01*
X131450000Y-114125000D01*
G75*
G02*
X131550000Y-114225000I0J-100000D01*
G01*
X131550000Y-114425000D01*
G75*
G02*
X131450000Y-114525000I-100000J0D01*
G01*
X130225000Y-114525000D01*
G75*
G02*
X130125000Y-114425000I0J100000D01*
G01*
G37*
G36*
G01*
X130125000Y-113775000D02*
X130125000Y-113575000D01*
G75*
G02*
X130225000Y-113475000I100000J0D01*
G01*
X131450000Y-113475000D01*
G75*
G02*
X131550000Y-113575000I0J-100000D01*
G01*
X131550000Y-113775000D01*
G75*
G02*
X131450000Y-113875000I-100000J0D01*
G01*
X130225000Y-113875000D01*
G75*
G02*
X130125000Y-113775000I0J100000D01*
G01*
G37*
G36*
G01*
X130125000Y-113125000D02*
X130125000Y-112925000D01*
G75*
G02*
X130225000Y-112825000I100000J0D01*
G01*
X131450000Y-112825000D01*
G75*
G02*
X131550000Y-112925000I0J-100000D01*
G01*
X131550000Y-113125000D01*
G75*
G02*
X131450000Y-113225000I-100000J0D01*
G01*
X130225000Y-113225000D01*
G75*
G02*
X130125000Y-113125000I0J100000D01*
G01*
G37*
%TD*%
%TO.C,U21*%
G36*
G01*
X130125000Y-126625000D02*
X130125000Y-126425000D01*
G75*
G02*
X130225000Y-126325000I100000J0D01*
G01*
X131450000Y-126325000D01*
G75*
G02*
X131550000Y-126425000I0J-100000D01*
G01*
X131550000Y-126625000D01*
G75*
G02*
X131450000Y-126725000I-100000J0D01*
G01*
X130225000Y-126725000D01*
G75*
G02*
X130125000Y-126625000I0J100000D01*
G01*
G37*
G36*
G01*
X130125000Y-127275000D02*
X130125000Y-127075000D01*
G75*
G02*
X130225000Y-126975000I100000J0D01*
G01*
X131450000Y-126975000D01*
G75*
G02*
X131550000Y-127075000I0J-100000D01*
G01*
X131550000Y-127275000D01*
G75*
G02*
X131450000Y-127375000I-100000J0D01*
G01*
X130225000Y-127375000D01*
G75*
G02*
X130125000Y-127275000I0J100000D01*
G01*
G37*
G36*
G01*
X130125000Y-127925000D02*
X130125000Y-127725000D01*
G75*
G02*
X130225000Y-127625000I100000J0D01*
G01*
X131450000Y-127625000D01*
G75*
G02*
X131550000Y-127725000I0J-100000D01*
G01*
X131550000Y-127925000D01*
G75*
G02*
X131450000Y-128025000I-100000J0D01*
G01*
X130225000Y-128025000D01*
G75*
G02*
X130125000Y-127925000I0J100000D01*
G01*
G37*
G36*
G01*
X130125000Y-128575000D02*
X130125000Y-128375000D01*
G75*
G02*
X130225000Y-128275000I100000J0D01*
G01*
X131450000Y-128275000D01*
G75*
G02*
X131550000Y-128375000I0J-100000D01*
G01*
X131550000Y-128575000D01*
G75*
G02*
X131450000Y-128675000I-100000J0D01*
G01*
X130225000Y-128675000D01*
G75*
G02*
X130125000Y-128575000I0J100000D01*
G01*
G37*
G36*
G01*
X134450000Y-128575000D02*
X134450000Y-128375000D01*
G75*
G02*
X134550000Y-128275000I100000J0D01*
G01*
X135775000Y-128275000D01*
G75*
G02*
X135875000Y-128375000I0J-100000D01*
G01*
X135875000Y-128575000D01*
G75*
G02*
X135775000Y-128675000I-100000J0D01*
G01*
X134550000Y-128675000D01*
G75*
G02*
X134450000Y-128575000I0J100000D01*
G01*
G37*
G36*
G01*
X134450000Y-127925000D02*
X134450000Y-127725000D01*
G75*
G02*
X134550000Y-127625000I100000J0D01*
G01*
X135775000Y-127625000D01*
G75*
G02*
X135875000Y-127725000I0J-100000D01*
G01*
X135875000Y-127925000D01*
G75*
G02*
X135775000Y-128025000I-100000J0D01*
G01*
X134550000Y-128025000D01*
G75*
G02*
X134450000Y-127925000I0J100000D01*
G01*
G37*
G36*
G01*
X134450000Y-127275000D02*
X134450000Y-127075000D01*
G75*
G02*
X134550000Y-126975000I100000J0D01*
G01*
X135775000Y-126975000D01*
G75*
G02*
X135875000Y-127075000I0J-100000D01*
G01*
X135875000Y-127275000D01*
G75*
G02*
X135775000Y-127375000I-100000J0D01*
G01*
X134550000Y-127375000D01*
G75*
G02*
X134450000Y-127275000I0J100000D01*
G01*
G37*
G36*
G01*
X134450000Y-126625000D02*
X134450000Y-126425000D01*
G75*
G02*
X134550000Y-126325000I100000J0D01*
G01*
X135775000Y-126325000D01*
G75*
G02*
X135875000Y-126425000I0J-100000D01*
G01*
X135875000Y-126625000D01*
G75*
G02*
X135775000Y-126725000I-100000J0D01*
G01*
X134550000Y-126725000D01*
G75*
G02*
X134450000Y-126625000I0J100000D01*
G01*
G37*
G36*
G01*
X132210000Y-127245000D02*
X132210000Y-126835000D01*
G75*
G02*
X132390000Y-126655000I180000J0D01*
G01*
X132750000Y-126655000D01*
G75*
G02*
X132930000Y-126835000I0J-180000D01*
G01*
X132930000Y-127245000D01*
G75*
G02*
X132750000Y-127425000I-180000J0D01*
G01*
X132390000Y-127425000D01*
G75*
G02*
X132210000Y-127245000I0J180000D01*
G01*
G37*
G36*
G01*
X132210000Y-128165000D02*
X132210000Y-127755000D01*
G75*
G02*
X132390000Y-127575000I180000J0D01*
G01*
X132750000Y-127575000D01*
G75*
G02*
X132930000Y-127755000I0J-180000D01*
G01*
X132930000Y-128165000D01*
G75*
G02*
X132750000Y-128345000I-180000J0D01*
G01*
X132390000Y-128345000D01*
G75*
G02*
X132210000Y-128165000I0J180000D01*
G01*
G37*
G36*
G01*
X133070000Y-127245000D02*
X133070000Y-126835000D01*
G75*
G02*
X133250000Y-126655000I180000J0D01*
G01*
X133610000Y-126655000D01*
G75*
G02*
X133790000Y-126835000I0J-180000D01*
G01*
X133790000Y-127245000D01*
G75*
G02*
X133610000Y-127425000I-180000J0D01*
G01*
X133250000Y-127425000D01*
G75*
G02*
X133070000Y-127245000I0J180000D01*
G01*
G37*
G36*
G01*
X133070000Y-128165000D02*
X133070000Y-127755000D01*
G75*
G02*
X133250000Y-127575000I180000J0D01*
G01*
X133610000Y-127575000D01*
G75*
G02*
X133790000Y-127755000I0J-180000D01*
G01*
X133790000Y-128165000D01*
G75*
G02*
X133610000Y-128345000I-180000J0D01*
G01*
X133250000Y-128345000D01*
G75*
G02*
X133070000Y-128165000I0J180000D01*
G01*
G37*
%TD*%
%TO.C,U22*%
G36*
G01*
X130125000Y-140625000D02*
X130125000Y-140425000D01*
G75*
G02*
X130225000Y-140325000I100000J0D01*
G01*
X131450000Y-140325000D01*
G75*
G02*
X131550000Y-140425000I0J-100000D01*
G01*
X131550000Y-140625000D01*
G75*
G02*
X131450000Y-140725000I-100000J0D01*
G01*
X130225000Y-140725000D01*
G75*
G02*
X130125000Y-140625000I0J100000D01*
G01*
G37*
G36*
G01*
X130125000Y-141275000D02*
X130125000Y-141075000D01*
G75*
G02*
X130225000Y-140975000I100000J0D01*
G01*
X131450000Y-140975000D01*
G75*
G02*
X131550000Y-141075000I0J-100000D01*
G01*
X131550000Y-141275000D01*
G75*
G02*
X131450000Y-141375000I-100000J0D01*
G01*
X130225000Y-141375000D01*
G75*
G02*
X130125000Y-141275000I0J100000D01*
G01*
G37*
G36*
G01*
X130125000Y-141925000D02*
X130125000Y-141725000D01*
G75*
G02*
X130225000Y-141625000I100000J0D01*
G01*
X131450000Y-141625000D01*
G75*
G02*
X131550000Y-141725000I0J-100000D01*
G01*
X131550000Y-141925000D01*
G75*
G02*
X131450000Y-142025000I-100000J0D01*
G01*
X130225000Y-142025000D01*
G75*
G02*
X130125000Y-141925000I0J100000D01*
G01*
G37*
G36*
G01*
X130125000Y-142575000D02*
X130125000Y-142375000D01*
G75*
G02*
X130225000Y-142275000I100000J0D01*
G01*
X131450000Y-142275000D01*
G75*
G02*
X131550000Y-142375000I0J-100000D01*
G01*
X131550000Y-142575000D01*
G75*
G02*
X131450000Y-142675000I-100000J0D01*
G01*
X130225000Y-142675000D01*
G75*
G02*
X130125000Y-142575000I0J100000D01*
G01*
G37*
G36*
G01*
X134450000Y-142575000D02*
X134450000Y-142375000D01*
G75*
G02*
X134550000Y-142275000I100000J0D01*
G01*
X135775000Y-142275000D01*
G75*
G02*
X135875000Y-142375000I0J-100000D01*
G01*
X135875000Y-142575000D01*
G75*
G02*
X135775000Y-142675000I-100000J0D01*
G01*
X134550000Y-142675000D01*
G75*
G02*
X134450000Y-142575000I0J100000D01*
G01*
G37*
G36*
G01*
X134450000Y-141925000D02*
X134450000Y-141725000D01*
G75*
G02*
X134550000Y-141625000I100000J0D01*
G01*
X135775000Y-141625000D01*
G75*
G02*
X135875000Y-141725000I0J-100000D01*
G01*
X135875000Y-141925000D01*
G75*
G02*
X135775000Y-142025000I-100000J0D01*
G01*
X134550000Y-142025000D01*
G75*
G02*
X134450000Y-141925000I0J100000D01*
G01*
G37*
G36*
G01*
X134450000Y-141275000D02*
X134450000Y-141075000D01*
G75*
G02*
X134550000Y-140975000I100000J0D01*
G01*
X135775000Y-140975000D01*
G75*
G02*
X135875000Y-141075000I0J-100000D01*
G01*
X135875000Y-141275000D01*
G75*
G02*
X135775000Y-141375000I-100000J0D01*
G01*
X134550000Y-141375000D01*
G75*
G02*
X134450000Y-141275000I0J100000D01*
G01*
G37*
G36*
G01*
X134450000Y-140625000D02*
X134450000Y-140425000D01*
G75*
G02*
X134550000Y-140325000I100000J0D01*
G01*
X135775000Y-140325000D01*
G75*
G02*
X135875000Y-140425000I0J-100000D01*
G01*
X135875000Y-140625000D01*
G75*
G02*
X135775000Y-140725000I-100000J0D01*
G01*
X134550000Y-140725000D01*
G75*
G02*
X134450000Y-140625000I0J100000D01*
G01*
G37*
G36*
G01*
X132210000Y-141245000D02*
X132210000Y-140835000D01*
G75*
G02*
X132390000Y-140655000I180000J0D01*
G01*
X132750000Y-140655000D01*
G75*
G02*
X132930000Y-140835000I0J-180000D01*
G01*
X132930000Y-141245000D01*
G75*
G02*
X132750000Y-141425000I-180000J0D01*
G01*
X132390000Y-141425000D01*
G75*
G02*
X132210000Y-141245000I0J180000D01*
G01*
G37*
G36*
G01*
X132210000Y-142165000D02*
X132210000Y-141755000D01*
G75*
G02*
X132390000Y-141575000I180000J0D01*
G01*
X132750000Y-141575000D01*
G75*
G02*
X132930000Y-141755000I0J-180000D01*
G01*
X132930000Y-142165000D01*
G75*
G02*
X132750000Y-142345000I-180000J0D01*
G01*
X132390000Y-142345000D01*
G75*
G02*
X132210000Y-142165000I0J180000D01*
G01*
G37*
G36*
G01*
X133070000Y-141245000D02*
X133070000Y-140835000D01*
G75*
G02*
X133250000Y-140655000I180000J0D01*
G01*
X133610000Y-140655000D01*
G75*
G02*
X133790000Y-140835000I0J-180000D01*
G01*
X133790000Y-141245000D01*
G75*
G02*
X133610000Y-141425000I-180000J0D01*
G01*
X133250000Y-141425000D01*
G75*
G02*
X133070000Y-141245000I0J180000D01*
G01*
G37*
G36*
G01*
X133070000Y-142165000D02*
X133070000Y-141755000D01*
G75*
G02*
X133250000Y-141575000I180000J0D01*
G01*
X133610000Y-141575000D01*
G75*
G02*
X133790000Y-141755000I0J-180000D01*
G01*
X133790000Y-142165000D01*
G75*
G02*
X133610000Y-142345000I-180000J0D01*
G01*
X133250000Y-142345000D01*
G75*
G02*
X133070000Y-142165000I0J180000D01*
G01*
G37*
%TD*%
%TO.C,U23*%
G36*
G01*
X150125000Y-113125000D02*
X150125000Y-112925000D01*
G75*
G02*
X150225000Y-112825000I100000J0D01*
G01*
X151450000Y-112825000D01*
G75*
G02*
X151550000Y-112925000I0J-100000D01*
G01*
X151550000Y-113125000D01*
G75*
G02*
X151450000Y-113225000I-100000J0D01*
G01*
X150225000Y-113225000D01*
G75*
G02*
X150125000Y-113125000I0J100000D01*
G01*
G37*
G36*
G01*
X150125000Y-113775000D02*
X150125000Y-113575000D01*
G75*
G02*
X150225000Y-113475000I100000J0D01*
G01*
X151450000Y-113475000D01*
G75*
G02*
X151550000Y-113575000I0J-100000D01*
G01*
X151550000Y-113775000D01*
G75*
G02*
X151450000Y-113875000I-100000J0D01*
G01*
X150225000Y-113875000D01*
G75*
G02*
X150125000Y-113775000I0J100000D01*
G01*
G37*
G36*
G01*
X150125000Y-114425000D02*
X150125000Y-114225000D01*
G75*
G02*
X150225000Y-114125000I100000J0D01*
G01*
X151450000Y-114125000D01*
G75*
G02*
X151550000Y-114225000I0J-100000D01*
G01*
X151550000Y-114425000D01*
G75*
G02*
X151450000Y-114525000I-100000J0D01*
G01*
X150225000Y-114525000D01*
G75*
G02*
X150125000Y-114425000I0J100000D01*
G01*
G37*
G36*
G01*
X150125000Y-115075000D02*
X150125000Y-114875000D01*
G75*
G02*
X150225000Y-114775000I100000J0D01*
G01*
X151450000Y-114775000D01*
G75*
G02*
X151550000Y-114875000I0J-100000D01*
G01*
X151550000Y-115075000D01*
G75*
G02*
X151450000Y-115175000I-100000J0D01*
G01*
X150225000Y-115175000D01*
G75*
G02*
X150125000Y-115075000I0J100000D01*
G01*
G37*
G36*
G01*
X154450000Y-115075000D02*
X154450000Y-114875000D01*
G75*
G02*
X154550000Y-114775000I100000J0D01*
G01*
X155775000Y-114775000D01*
G75*
G02*
X155875000Y-114875000I0J-100000D01*
G01*
X155875000Y-115075000D01*
G75*
G02*
X155775000Y-115175000I-100000J0D01*
G01*
X154550000Y-115175000D01*
G75*
G02*
X154450000Y-115075000I0J100000D01*
G01*
G37*
G36*
G01*
X154450000Y-114425000D02*
X154450000Y-114225000D01*
G75*
G02*
X154550000Y-114125000I100000J0D01*
G01*
X155775000Y-114125000D01*
G75*
G02*
X155875000Y-114225000I0J-100000D01*
G01*
X155875000Y-114425000D01*
G75*
G02*
X155775000Y-114525000I-100000J0D01*
G01*
X154550000Y-114525000D01*
G75*
G02*
X154450000Y-114425000I0J100000D01*
G01*
G37*
G36*
G01*
X154450000Y-113775000D02*
X154450000Y-113575000D01*
G75*
G02*
X154550000Y-113475000I100000J0D01*
G01*
X155775000Y-113475000D01*
G75*
G02*
X155875000Y-113575000I0J-100000D01*
G01*
X155875000Y-113775000D01*
G75*
G02*
X155775000Y-113875000I-100000J0D01*
G01*
X154550000Y-113875000D01*
G75*
G02*
X154450000Y-113775000I0J100000D01*
G01*
G37*
G36*
G01*
X154450000Y-113125000D02*
X154450000Y-112925000D01*
G75*
G02*
X154550000Y-112825000I100000J0D01*
G01*
X155775000Y-112825000D01*
G75*
G02*
X155875000Y-112925000I0J-100000D01*
G01*
X155875000Y-113125000D01*
G75*
G02*
X155775000Y-113225000I-100000J0D01*
G01*
X154550000Y-113225000D01*
G75*
G02*
X154450000Y-113125000I0J100000D01*
G01*
G37*
G36*
G01*
X152210000Y-113745000D02*
X152210000Y-113335000D01*
G75*
G02*
X152390000Y-113155000I180000J0D01*
G01*
X152750000Y-113155000D01*
G75*
G02*
X152930000Y-113335000I0J-180000D01*
G01*
X152930000Y-113745000D01*
G75*
G02*
X152750000Y-113925000I-180000J0D01*
G01*
X152390000Y-113925000D01*
G75*
G02*
X152210000Y-113745000I0J180000D01*
G01*
G37*
G36*
G01*
X152210000Y-114665000D02*
X152210000Y-114255000D01*
G75*
G02*
X152390000Y-114075000I180000J0D01*
G01*
X152750000Y-114075000D01*
G75*
G02*
X152930000Y-114255000I0J-180000D01*
G01*
X152930000Y-114665000D01*
G75*
G02*
X152750000Y-114845000I-180000J0D01*
G01*
X152390000Y-114845000D01*
G75*
G02*
X152210000Y-114665000I0J180000D01*
G01*
G37*
G36*
G01*
X153070000Y-113745000D02*
X153070000Y-113335000D01*
G75*
G02*
X153250000Y-113155000I180000J0D01*
G01*
X153610000Y-113155000D01*
G75*
G02*
X153790000Y-113335000I0J-180000D01*
G01*
X153790000Y-113745000D01*
G75*
G02*
X153610000Y-113925000I-180000J0D01*
G01*
X153250000Y-113925000D01*
G75*
G02*
X153070000Y-113745000I0J180000D01*
G01*
G37*
G36*
G01*
X153070000Y-114665000D02*
X153070000Y-114255000D01*
G75*
G02*
X153250000Y-114075000I180000J0D01*
G01*
X153610000Y-114075000D01*
G75*
G02*
X153790000Y-114255000I0J-180000D01*
G01*
X153790000Y-114665000D01*
G75*
G02*
X153610000Y-114845000I-180000J0D01*
G01*
X153250000Y-114845000D01*
G75*
G02*
X153070000Y-114665000I0J180000D01*
G01*
G37*
%TD*%
%TO.C,U24*%
G36*
G01*
X153070000Y-128165000D02*
X153070000Y-127755000D01*
G75*
G02*
X153250000Y-127575000I180000J0D01*
G01*
X153610000Y-127575000D01*
G75*
G02*
X153790000Y-127755000I0J-180000D01*
G01*
X153790000Y-128165000D01*
G75*
G02*
X153610000Y-128345000I-180000J0D01*
G01*
X153250000Y-128345000D01*
G75*
G02*
X153070000Y-128165000I0J180000D01*
G01*
G37*
G36*
G01*
X153070000Y-127245000D02*
X153070000Y-126835000D01*
G75*
G02*
X153250000Y-126655000I180000J0D01*
G01*
X153610000Y-126655000D01*
G75*
G02*
X153790000Y-126835000I0J-180000D01*
G01*
X153790000Y-127245000D01*
G75*
G02*
X153610000Y-127425000I-180000J0D01*
G01*
X153250000Y-127425000D01*
G75*
G02*
X153070000Y-127245000I0J180000D01*
G01*
G37*
G36*
G01*
X152210000Y-128165000D02*
X152210000Y-127755000D01*
G75*
G02*
X152390000Y-127575000I180000J0D01*
G01*
X152750000Y-127575000D01*
G75*
G02*
X152930000Y-127755000I0J-180000D01*
G01*
X152930000Y-128165000D01*
G75*
G02*
X152750000Y-128345000I-180000J0D01*
G01*
X152390000Y-128345000D01*
G75*
G02*
X152210000Y-128165000I0J180000D01*
G01*
G37*
G36*
G01*
X152210000Y-127245000D02*
X152210000Y-126835000D01*
G75*
G02*
X152390000Y-126655000I180000J0D01*
G01*
X152750000Y-126655000D01*
G75*
G02*
X152930000Y-126835000I0J-180000D01*
G01*
X152930000Y-127245000D01*
G75*
G02*
X152750000Y-127425000I-180000J0D01*
G01*
X152390000Y-127425000D01*
G75*
G02*
X152210000Y-127245000I0J180000D01*
G01*
G37*
G36*
G01*
X154450000Y-126625000D02*
X154450000Y-126425000D01*
G75*
G02*
X154550000Y-126325000I100000J0D01*
G01*
X155775000Y-126325000D01*
G75*
G02*
X155875000Y-126425000I0J-100000D01*
G01*
X155875000Y-126625000D01*
G75*
G02*
X155775000Y-126725000I-100000J0D01*
G01*
X154550000Y-126725000D01*
G75*
G02*
X154450000Y-126625000I0J100000D01*
G01*
G37*
G36*
G01*
X154450000Y-127275000D02*
X154450000Y-127075000D01*
G75*
G02*
X154550000Y-126975000I100000J0D01*
G01*
X155775000Y-126975000D01*
G75*
G02*
X155875000Y-127075000I0J-100000D01*
G01*
X155875000Y-127275000D01*
G75*
G02*
X155775000Y-127375000I-100000J0D01*
G01*
X154550000Y-127375000D01*
G75*
G02*
X154450000Y-127275000I0J100000D01*
G01*
G37*
G36*
G01*
X154450000Y-127925000D02*
X154450000Y-127725000D01*
G75*
G02*
X154550000Y-127625000I100000J0D01*
G01*
X155775000Y-127625000D01*
G75*
G02*
X155875000Y-127725000I0J-100000D01*
G01*
X155875000Y-127925000D01*
G75*
G02*
X155775000Y-128025000I-100000J0D01*
G01*
X154550000Y-128025000D01*
G75*
G02*
X154450000Y-127925000I0J100000D01*
G01*
G37*
G36*
G01*
X154450000Y-128575000D02*
X154450000Y-128375000D01*
G75*
G02*
X154550000Y-128275000I100000J0D01*
G01*
X155775000Y-128275000D01*
G75*
G02*
X155875000Y-128375000I0J-100000D01*
G01*
X155875000Y-128575000D01*
G75*
G02*
X155775000Y-128675000I-100000J0D01*
G01*
X154550000Y-128675000D01*
G75*
G02*
X154450000Y-128575000I0J100000D01*
G01*
G37*
G36*
G01*
X150125000Y-128575000D02*
X150125000Y-128375000D01*
G75*
G02*
X150225000Y-128275000I100000J0D01*
G01*
X151450000Y-128275000D01*
G75*
G02*
X151550000Y-128375000I0J-100000D01*
G01*
X151550000Y-128575000D01*
G75*
G02*
X151450000Y-128675000I-100000J0D01*
G01*
X150225000Y-128675000D01*
G75*
G02*
X150125000Y-128575000I0J100000D01*
G01*
G37*
G36*
G01*
X150125000Y-127925000D02*
X150125000Y-127725000D01*
G75*
G02*
X150225000Y-127625000I100000J0D01*
G01*
X151450000Y-127625000D01*
G75*
G02*
X151550000Y-127725000I0J-100000D01*
G01*
X151550000Y-127925000D01*
G75*
G02*
X151450000Y-128025000I-100000J0D01*
G01*
X150225000Y-128025000D01*
G75*
G02*
X150125000Y-127925000I0J100000D01*
G01*
G37*
G36*
G01*
X150125000Y-127275000D02*
X150125000Y-127075000D01*
G75*
G02*
X150225000Y-126975000I100000J0D01*
G01*
X151450000Y-126975000D01*
G75*
G02*
X151550000Y-127075000I0J-100000D01*
G01*
X151550000Y-127275000D01*
G75*
G02*
X151450000Y-127375000I-100000J0D01*
G01*
X150225000Y-127375000D01*
G75*
G02*
X150125000Y-127275000I0J100000D01*
G01*
G37*
G36*
G01*
X150125000Y-126625000D02*
X150125000Y-126425000D01*
G75*
G02*
X150225000Y-126325000I100000J0D01*
G01*
X151450000Y-126325000D01*
G75*
G02*
X151550000Y-126425000I0J-100000D01*
G01*
X151550000Y-126625000D01*
G75*
G02*
X151450000Y-126725000I-100000J0D01*
G01*
X150225000Y-126725000D01*
G75*
G02*
X150125000Y-126625000I0J100000D01*
G01*
G37*
%TD*%
D14*
%TO.C,D1*%
X60000000Y-113000000D03*
D15*
X60000000Y-115375000D03*
%TD*%
D14*
%TO.C,D2*%
X60000000Y-126975000D03*
D15*
X60000000Y-129350000D03*
%TD*%
D14*
%TO.C,D3*%
X81000000Y-99360001D03*
D15*
X81000000Y-101735001D03*
%TD*%
D14*
%TO.C,D4*%
X81000000Y-113475000D03*
D15*
X81000000Y-115850000D03*
%TD*%
%TO.C,D5*%
X81000000Y-129350000D03*
D14*
X81000000Y-126975000D03*
%TD*%
D15*
%TO.C,D6*%
X81000000Y-143350000D03*
D14*
X81000000Y-140975000D03*
%TD*%
%TO.C,D7*%
X101000000Y-84975000D03*
D15*
X101000000Y-87350000D03*
%TD*%
%TO.C,D8*%
X101000000Y-101850000D03*
D14*
X101000000Y-99475000D03*
%TD*%
D15*
%TO.C,D9*%
X101000000Y-115850000D03*
D14*
X101000000Y-113475000D03*
%TD*%
%TO.C,D10*%
X101000000Y-126975000D03*
D15*
X101000000Y-129350000D03*
%TD*%
D14*
%TO.C,D11*%
X101000000Y-140975000D03*
D15*
X101000000Y-143350000D03*
%TD*%
%TO.C,D12*%
X101000000Y-157350000D03*
D14*
X101000000Y-154975000D03*
%TD*%
D15*
%TO.C,D13*%
X121000000Y-87350000D03*
D14*
X121000000Y-84975000D03*
%TD*%
%TO.C,D14*%
X121000000Y-99975000D03*
D15*
X121000000Y-102350000D03*
%TD*%
D14*
%TO.C,D15*%
X121000000Y-113475000D03*
D15*
X121000000Y-115850000D03*
%TD*%
%TO.C,D16*%
X121000000Y-129350000D03*
D14*
X121000000Y-126975000D03*
%TD*%
%TO.C,D17*%
X121000000Y-140975000D03*
D15*
X121000000Y-143350000D03*
%TD*%
D14*
%TO.C,D18*%
X121000000Y-154975000D03*
D15*
X121000000Y-157350000D03*
%TD*%
%TO.C,D19*%
X141000000Y-102350000D03*
D14*
X141000000Y-99975000D03*
%TD*%
D15*
%TO.C,D20*%
X141000000Y-115850000D03*
D14*
X141000000Y-113475000D03*
%TD*%
D15*
%TO.C,D21*%
X141000000Y-129350000D03*
D14*
X141000000Y-126975000D03*
%TD*%
%TO.C,D22*%
X141000000Y-140975000D03*
D15*
X141000000Y-143350000D03*
%TD*%
%TO.C,D23*%
X161000000Y-115850000D03*
D14*
X161000000Y-113475000D03*
%TD*%
D15*
%TO.C,D24*%
X161000000Y-129350000D03*
D14*
X161000000Y-126975000D03*
%TD*%
D16*
%TO.C,L2*%
X62100000Y-110000000D03*
X59900000Y-110000000D03*
%TD*%
%TO.C,L3*%
X62100000Y-124000000D03*
X59900000Y-124000000D03*
%TD*%
%TO.C,L4*%
X80900000Y-96000000D03*
X83100000Y-96000000D03*
%TD*%
%TO.C,L5*%
X80900000Y-110000000D03*
X83100000Y-110000000D03*
%TD*%
%TO.C,L6*%
X80900000Y-124000000D03*
X83100000Y-124000000D03*
%TD*%
%TO.C,L7*%
X83100000Y-138000000D03*
X80900000Y-138000000D03*
%TD*%
%TO.C,L8*%
X103100000Y-81500000D03*
X100900000Y-81500000D03*
%TD*%
%TO.C,L9*%
X100900000Y-96000000D03*
X103100000Y-96000000D03*
%TD*%
%TO.C,L10*%
X103100000Y-110000000D03*
X100900000Y-110000000D03*
%TD*%
%TO.C,L11*%
X103100000Y-124000000D03*
X100900000Y-124000000D03*
%TD*%
%TO.C,L12*%
X100900000Y-138000000D03*
X103100000Y-138000000D03*
%TD*%
%TO.C,L13*%
X103100000Y-152000000D03*
X100900000Y-152000000D03*
%TD*%
%TO.C,L14*%
X120900000Y-81500000D03*
X123100000Y-81500000D03*
%TD*%
%TO.C,L15*%
X120900000Y-96000000D03*
X123100000Y-96000000D03*
%TD*%
%TO.C,L16*%
X123100000Y-110000000D03*
X120900000Y-110000000D03*
%TD*%
%TO.C,L17*%
X123100000Y-124000000D03*
X120900000Y-124000000D03*
%TD*%
%TO.C,L18*%
X120900000Y-138000000D03*
X123100000Y-138000000D03*
%TD*%
%TO.C,L19*%
X120900000Y-152000000D03*
X123100000Y-152000000D03*
%TD*%
%TO.C,L20*%
X140900000Y-96000000D03*
X143100000Y-96000000D03*
%TD*%
%TO.C,L21*%
X143100000Y-110000000D03*
X140900000Y-110000000D03*
%TD*%
%TO.C,L22*%
X143100000Y-124000000D03*
X140900000Y-124000000D03*
%TD*%
%TO.C,L23*%
X140900000Y-138000000D03*
X143100000Y-138000000D03*
%TD*%
%TO.C,L24*%
X163100000Y-110135001D03*
X160900000Y-110135001D03*
%TD*%
%TO.C,L25*%
X160900000Y-124000000D03*
X163100000Y-124000000D03*
%TD*%
%TO.C,C8*%
G36*
G01*
X60437500Y-146000000D02*
X59962500Y-146000000D01*
G75*
G02*
X59725000Y-145762500I0J237500D01*
G01*
X59725000Y-145162500D01*
G75*
G02*
X59962500Y-144925000I237500J0D01*
G01*
X60437500Y-144925000D01*
G75*
G02*
X60675000Y-145162500I0J-237500D01*
G01*
X60675000Y-145762500D01*
G75*
G02*
X60437500Y-146000000I-237500J0D01*
G01*
G37*
G36*
G01*
X60437500Y-144275000D02*
X59962500Y-144275000D01*
G75*
G02*
X59725000Y-144037500I0J237500D01*
G01*
X59725000Y-143437500D01*
G75*
G02*
X59962500Y-143200000I237500J0D01*
G01*
X60437500Y-143200000D01*
G75*
G02*
X60675000Y-143437500I0J-237500D01*
G01*
X60675000Y-144037500D01*
G75*
G02*
X60437500Y-144275000I-237500J0D01*
G01*
G37*
%TD*%
%TO.C,C9*%
G36*
G01*
X59100000Y-148862500D02*
X59100000Y-149337500D01*
G75*
G02*
X58862500Y-149575000I-237500J0D01*
G01*
X58262500Y-149575000D01*
G75*
G02*
X58025000Y-149337500I0J237500D01*
G01*
X58025000Y-148862500D01*
G75*
G02*
X58262500Y-148625000I237500J0D01*
G01*
X58862500Y-148625000D01*
G75*
G02*
X59100000Y-148862500I0J-237500D01*
G01*
G37*
G36*
G01*
X57375000Y-148862500D02*
X57375000Y-149337500D01*
G75*
G02*
X57137500Y-149575000I-237500J0D01*
G01*
X56537500Y-149575000D01*
G75*
G02*
X56300000Y-149337500I0J237500D01*
G01*
X56300000Y-148862500D01*
G75*
G02*
X56537500Y-148625000I237500J0D01*
G01*
X57137500Y-148625000D01*
G75*
G02*
X57375000Y-148862500I0J-237500D01*
G01*
G37*
%TD*%
%TO.C,C10*%
G36*
G01*
X59437500Y-140775000D02*
X58962500Y-140775000D01*
G75*
G02*
X58725000Y-140537500I0J237500D01*
G01*
X58725000Y-139937500D01*
G75*
G02*
X58962500Y-139700000I237500J0D01*
G01*
X59437500Y-139700000D01*
G75*
G02*
X59675000Y-139937500I0J-237500D01*
G01*
X59675000Y-140537500D01*
G75*
G02*
X59437500Y-140775000I-237500J0D01*
G01*
G37*
G36*
G01*
X59437500Y-142500000D02*
X58962500Y-142500000D01*
G75*
G02*
X58725000Y-142262500I0J237500D01*
G01*
X58725000Y-141662500D01*
G75*
G02*
X58962500Y-141425000I237500J0D01*
G01*
X59437500Y-141425000D01*
G75*
G02*
X59675000Y-141662500I0J-237500D01*
G01*
X59675000Y-142262500D01*
G75*
G02*
X59437500Y-142500000I-237500J0D01*
G01*
G37*
%TD*%
%TO.C,C11*%
G36*
G01*
X53175000Y-148025000D02*
X52225000Y-148025000D01*
G75*
G02*
X51975000Y-147775000I0J250000D01*
G01*
X51975000Y-147100000D01*
G75*
G02*
X52225000Y-146850000I250000J0D01*
G01*
X53175000Y-146850000D01*
G75*
G02*
X53425000Y-147100000I0J-250000D01*
G01*
X53425000Y-147775000D01*
G75*
G02*
X53175000Y-148025000I-250000J0D01*
G01*
G37*
G36*
G01*
X53175000Y-145950000D02*
X52225000Y-145950000D01*
G75*
G02*
X51975000Y-145700000I0J250000D01*
G01*
X51975000Y-145025000D01*
G75*
G02*
X52225000Y-144775000I250000J0D01*
G01*
X53175000Y-144775000D01*
G75*
G02*
X53425000Y-145025000I0J-250000D01*
G01*
X53425000Y-145700000D01*
G75*
G02*
X53175000Y-145950000I-250000J0D01*
G01*
G37*
%TD*%
%TO.C,C12*%
G36*
G01*
X55750000Y-140125000D02*
X55750000Y-141075000D01*
G75*
G02*
X55500000Y-141325000I-250000J0D01*
G01*
X54825000Y-141325000D01*
G75*
G02*
X54575000Y-141075000I0J250000D01*
G01*
X54575000Y-140125000D01*
G75*
G02*
X54825000Y-139875000I250000J0D01*
G01*
X55500000Y-139875000D01*
G75*
G02*
X55750000Y-140125000I0J-250000D01*
G01*
G37*
G36*
G01*
X57825000Y-140125000D02*
X57825000Y-141075000D01*
G75*
G02*
X57575000Y-141325000I-250000J0D01*
G01*
X56900000Y-141325000D01*
G75*
G02*
X56650000Y-141075000I0J250000D01*
G01*
X56650000Y-140125000D01*
G75*
G02*
X56900000Y-139875000I250000J0D01*
G01*
X57575000Y-139875000D01*
G75*
G02*
X57825000Y-140125000I0J-250000D01*
G01*
G37*
%TD*%
D17*
%TO.C,J26*%
X56700000Y-84300000D03*
X56700000Y-85300000D03*
X56700000Y-86300000D03*
X56700000Y-87300000D03*
X56700000Y-88300000D03*
X56700000Y-89300000D03*
X56700000Y-90300000D03*
X56700000Y-91300000D03*
X56700000Y-92300000D03*
X56700000Y-93300000D03*
D18*
X53900000Y-81310000D03*
X53900000Y-96290000D03*
%TD*%
%TO.C,D25*%
G36*
G01*
X69700000Y-82237500D02*
X69700000Y-81762500D01*
G75*
G02*
X69937500Y-81525000I237500J0D01*
G01*
X70512500Y-81525000D01*
G75*
G02*
X70750000Y-81762500I0J-237500D01*
G01*
X70750000Y-82237500D01*
G75*
G02*
X70512500Y-82475000I-237500J0D01*
G01*
X69937500Y-82475000D01*
G75*
G02*
X69700000Y-82237500I0J237500D01*
G01*
G37*
G36*
G01*
X71450000Y-82237500D02*
X71450000Y-81762500D01*
G75*
G02*
X71687500Y-81525000I237500J0D01*
G01*
X72262500Y-81525000D01*
G75*
G02*
X72500000Y-81762500I0J-237500D01*
G01*
X72500000Y-82237500D01*
G75*
G02*
X72262500Y-82475000I-237500J0D01*
G01*
X71687500Y-82475000D01*
G75*
G02*
X71450000Y-82237500I0J237500D01*
G01*
G37*
%TD*%
%TO.C,D26*%
G36*
G01*
X71370001Y-86622501D02*
X71370001Y-86147501D01*
G75*
G02*
X71607501Y-85910001I237500J0D01*
G01*
X72182501Y-85910001D01*
G75*
G02*
X72420001Y-86147501I0J-237500D01*
G01*
X72420001Y-86622501D01*
G75*
G02*
X72182501Y-86860001I-237500J0D01*
G01*
X71607501Y-86860001D01*
G75*
G02*
X71370001Y-86622501I0J237500D01*
G01*
G37*
G36*
G01*
X69620001Y-86622501D02*
X69620001Y-86147501D01*
G75*
G02*
X69857501Y-85910001I237500J0D01*
G01*
X70432501Y-85910001D01*
G75*
G02*
X70670001Y-86147501I0J-237500D01*
G01*
X70670001Y-86622501D01*
G75*
G02*
X70432501Y-86860001I-237500J0D01*
G01*
X69857501Y-86860001D01*
G75*
G02*
X69620001Y-86622501I0J237500D01*
G01*
G37*
%TD*%
%TO.C,R50*%
G36*
G01*
X76215001Y-81762500D02*
X76215001Y-82237500D01*
G75*
G02*
X75977501Y-82475000I-237500J0D01*
G01*
X75477501Y-82475000D01*
G75*
G02*
X75240001Y-82237500I0J237500D01*
G01*
X75240001Y-81762500D01*
G75*
G02*
X75477501Y-81525000I237500J0D01*
G01*
X75977501Y-81525000D01*
G75*
G02*
X76215001Y-81762500I0J-237500D01*
G01*
G37*
G36*
G01*
X74390001Y-81762500D02*
X74390001Y-82237500D01*
G75*
G02*
X74152501Y-82475000I-237500J0D01*
G01*
X73652501Y-82475000D01*
G75*
G02*
X73415001Y-82237500I0J237500D01*
G01*
X73415001Y-81762500D01*
G75*
G02*
X73652501Y-81525000I237500J0D01*
G01*
X74152501Y-81525000D01*
G75*
G02*
X74390001Y-81762500I0J-237500D01*
G01*
G37*
%TD*%
%TO.C,R51*%
G36*
G01*
X74390001Y-86162500D02*
X74390001Y-86637500D01*
G75*
G02*
X74152501Y-86875000I-237500J0D01*
G01*
X73652501Y-86875000D01*
G75*
G02*
X73415001Y-86637500I0J237500D01*
G01*
X73415001Y-86162500D01*
G75*
G02*
X73652501Y-85925000I237500J0D01*
G01*
X74152501Y-85925000D01*
G75*
G02*
X74390001Y-86162500I0J-237500D01*
G01*
G37*
G36*
G01*
X76215001Y-86162500D02*
X76215001Y-86637500D01*
G75*
G02*
X75977501Y-86875000I-237500J0D01*
G01*
X75477501Y-86875000D01*
G75*
G02*
X75240001Y-86637500I0J237500D01*
G01*
X75240001Y-86162500D01*
G75*
G02*
X75477501Y-85925000I237500J0D01*
G01*
X75977501Y-85925000D01*
G75*
G02*
X76215001Y-86162500I0J-237500D01*
G01*
G37*
%TD*%
%TO.C,R49*%
G36*
G01*
X76462500Y-91200000D02*
X76937500Y-91200000D01*
G75*
G02*
X77175000Y-91437500I0J-237500D01*
G01*
X77175000Y-91937500D01*
G75*
G02*
X76937500Y-92175000I-237500J0D01*
G01*
X76462500Y-92175000D01*
G75*
G02*
X76225000Y-91937500I0J237500D01*
G01*
X76225000Y-91437500D01*
G75*
G02*
X76462500Y-91200000I237500J0D01*
G01*
G37*
G36*
G01*
X76462500Y-93025000D02*
X76937500Y-93025000D01*
G75*
G02*
X77175000Y-93262500I0J-237500D01*
G01*
X77175000Y-93762500D01*
G75*
G02*
X76937500Y-94000000I-237500J0D01*
G01*
X76462500Y-94000000D01*
G75*
G02*
X76225000Y-93762500I0J237500D01*
G01*
X76225000Y-93262500D01*
G75*
G02*
X76462500Y-93025000I237500J0D01*
G01*
G37*
%TD*%
M02*
