M48
; DRILL file {KiCad 5.1.10-88a1d61d58~90~ubuntu20.04.1} date Thu Dec 30 14:19:50 2021
; FORMAT={-:-/ absolute / inch / decimal}
; #@! TF.CreationDate,2021-12-30T14:19:50+01:00
; #@! TF.GenerationSoftware,Kicad,Pcbnew,5.1.10-88a1d61d58~90~ubuntu20.04.1
; #@! TF.FileFunction,Plated,1,4,PTH
FMAT,2
INCH
T1C0.0079
T2C0.0157
T3C0.0394
T4C0.0433
T5C0.1260
%
G90
G05
T1
X2.0565Y-4.4626
X2.0565Y-4.5138
X2.065Y-4.9941
X2.065Y-5.0453
X2.0998Y-4.4626
X2.0998Y-4.5138
X2.1083Y-4.9941
X2.1083Y-5.0453
X2.8327Y-3.9311
X2.8327Y-3.9823
X2.8327Y-4.4626
X2.8327Y-4.5138
X2.8327Y-4.9941
X2.8327Y-5.0453
X2.8327Y-5.5453
X2.8327Y-5.5965
X2.876Y-3.9311
X2.876Y-3.9823
X2.876Y-4.4626
X2.876Y-4.5138
X2.876Y-4.9941
X2.876Y-5.0453
X2.876Y-5.5453
X2.876Y-5.5965
X3.6398Y-3.3799
X3.6398Y-3.4311
X3.6398Y-3.9311
X3.6398Y-3.9823
X3.6398Y-4.4626
X3.6398Y-4.5138
X3.6398Y-4.9941
X3.6398Y-5.0453
X3.6398Y-5.5437
X3.6398Y-5.5949
X3.6398Y-6.0965
X3.6398Y-6.1476
X3.6831Y-3.3799
X3.6831Y-3.4311
X3.6831Y-3.9311
X3.6831Y-3.9823
X3.6831Y-4.4626
X3.6831Y-4.5138
X3.6831Y-4.9941
X3.6831Y-5.0453
X3.6831Y-5.5437
X3.6831Y-5.5949
X3.6831Y-6.0965
X3.6831Y-6.1476
X4.4272Y-3.3799
X4.4272Y-3.4311
X4.4272Y-3.9311
X4.4272Y-3.9823
X4.4272Y-4.4626
X4.4272Y-4.5138
X4.4272Y-4.9941
X4.4272Y-5.0453
X4.4272Y-5.5453
X4.4272Y-5.5965
X4.4272Y-6.0965
X4.4272Y-6.1476
X4.4705Y-3.3799
X4.4705Y-3.4311
X4.4705Y-3.9311
X4.4705Y-3.9823
X4.4705Y-4.4626
X4.4705Y-4.5138
X4.4705Y-4.9941
X4.4705Y-5.0453
X4.4705Y-5.5453
X4.4705Y-5.5965
X4.4705Y-6.0965
X4.4705Y-6.1476
X5.2146Y-3.9311
X5.2146Y-3.9823
X5.2146Y-4.4626
X5.2146Y-4.5138
X5.2146Y-4.9941
X5.2146Y-5.0453
X5.2146Y-5.5453
X5.2146Y-5.5965
X5.2579Y-3.9311
X5.2579Y-3.9823
X5.2579Y-4.4626
X5.2579Y-4.5138
X5.2579Y-4.9941
X5.2579Y-5.0453
X5.2579Y-5.5453
X5.2579Y-5.5965
X6.002Y-4.4626
X6.002Y-4.5138
X6.002Y-4.9941
X6.002Y-5.0453
X6.0453Y-4.4626
X6.0453Y-4.5138
X6.0453Y-4.9941
X6.0453Y-5.0453
T2
X1.9252Y-4.4606
X1.9291Y-4.5118
X1.9331Y-4.9685
X1.9331Y-5.0354
X2.0413Y-5.4114
X2.0551Y-3.689
X2.0669Y-5.3858
X2.122Y-3.6614
X2.1533Y-3.6616
X2.1555Y-3.6949
X2.311Y-3.6181
X2.4252Y-5.874
X2.6614Y-3.9764
X2.6791Y-5.5732
X2.6791Y-4.5084
X2.6831Y-5.0318
X2.7008Y-3.9449
X2.7047Y-5.5433
X2.7087Y-4.4724
X2.7126Y-5.0039
X3.4724Y-3.4173
X3.4823Y-5.5942
X3.4961Y-3.9764
X3.4961Y-6.1299
X3.5039Y-4.5
X3.5039Y-5.0394
X3.5039Y-6.0906
X3.5118Y-3.3937
X3.5118Y-5.5551
X3.5157Y-4.4488
X3.5197Y-3.9409
X3.5236Y-5.0039
X4.2867Y-3.9754
X4.2874Y-5.0512
X4.2893Y-4.5023
X4.2898Y-6.1444
X4.2913Y-3.4252
X4.2953Y-3.937
X4.2985Y-5.5896
X4.2992Y-5.0039
X4.3007Y-6.0772
X4.3031Y-3.3858
X4.3071Y-5.5512
X4.315Y-4.4724
X5.0642Y-3.9622
X5.0669Y-5.0394
X5.0709Y-4.5118
X5.075Y-5.5952
X5.0906Y-4.4724
X5.0906Y-5.0079
X5.0906Y-5.5591
X5.0945Y-3.937
X5.8622Y-4.5079
X5.8701Y-5.0433
X5.878Y-4.4685
X5.878Y-5.0
T3
X2.0039Y-3.9843
X2.0039Y-4.0843
X2.0039Y-4.1843
X2.5984Y-4.4488
X2.5984Y-4.5488
X2.5984Y-4.9984
X2.5984Y-5.0984
X2.7835Y-3.6378
X2.8835Y-3.6378
X3.3661Y-3.2378
X3.3661Y-3.3378
X3.3661Y-3.4378
X3.3661Y-3.5378
X3.3661Y-3.6378
X3.4252Y-3.8961
X3.4252Y-3.9961
X3.4252Y-4.4472
X3.4252Y-4.5472
X3.4252Y-4.9984
X3.4252Y-5.0984
X3.4252Y-5.5496
X3.4252Y-5.6496
X4.2126Y-3.3252
X4.2126Y-3.4252
X4.2126Y-3.8961
X4.2126Y-3.9961
X4.2126Y-4.4472
X4.2126Y-4.5472
X4.2126Y-4.9984
X4.2126Y-5.0984
X4.2126Y-5.5496
X4.2126Y-5.6496
X4.2126Y-6.1008
X4.2126Y-6.2008
X5.0Y-3.3252
X5.0Y-3.4252
X5.0Y-3.8961
X5.0Y-3.9961
X5.0Y-4.4472
X5.0Y-4.5472
X5.0Y-4.9984
X5.0Y-5.0984
X5.0Y-5.5496
X5.0Y-5.6496
X5.0Y-6.1008
X5.0Y-6.2008
X5.7874Y-3.8961
X5.7874Y-3.9961
X5.7874Y-4.4472
X5.7874Y-4.5472
X5.7874Y-4.9984
X5.7874Y-5.0984
X5.7874Y-5.5496
X5.7874Y-5.6496
X6.5748Y-4.4472
X6.5748Y-4.5472
X6.5748Y-4.9984
X6.5748Y-5.0984
T4
X2.4055Y-3.2638
X2.4055Y-3.5197
X2.4055Y-3.6614
X2.4055Y-3.9173
X2.5827Y-3.2638
X2.5827Y-3.5197
X2.5827Y-3.6614
X2.5827Y-3.9173
T5
X6.4764Y-3.3071
X6.4764Y-3.622
X6.4764Y-3.937
X6.4764Y-5.4724
X6.4764Y-5.7874
X6.4764Y-6.1024
T0
M30
