%TF.GenerationSoftware,KiCad,Pcbnew,5.1.10-88a1d61d58~90~ubuntu20.04.1*%
%TF.CreationDate,2022-01-01T09:16:34+01:00*%
%TF.ProjectId,MTSM340UV2-F5120S-current-driver,4d54534d-3334-4305-9556-322d46353132,rev?*%
%TF.SameCoordinates,Original*%
%TF.FileFunction,Copper,L3,Inr*%
%TF.FilePolarity,Positive*%
%FSLAX46Y46*%
G04 Gerber Fmt 4.6, Leading zero omitted, Abs format (unit mm)*
G04 Created by KiCad (PCBNEW 5.1.10-88a1d61d58~90~ubuntu20.04.1) date 2022-01-01 09:16:34*
%MOMM*%
%LPD*%
G01*
G04 APERTURE LIST*
%TA.AperFunction,ComponentPad*%
%ADD10R,1.700000X1.700000*%
%TD*%
%TA.AperFunction,ComponentPad*%
%ADD11O,1.700000X1.700000*%
%TD*%
%TA.AperFunction,ComponentPad*%
%ADD12C,2.000000*%
%TD*%
%TA.AperFunction,ComponentPad*%
%ADD13C,0.500000*%
%TD*%
%TA.AperFunction,ComponentPad*%
%ADD14C,3.600000*%
%TD*%
%TA.AperFunction,ViaPad*%
%ADD15C,0.800000*%
%TD*%
%TA.AperFunction,Conductor*%
%ADD16C,0.300000*%
%TD*%
G04 APERTURE END LIST*
D10*
%TO.N,+12V*%
%TO.C,J1*%
X66000000Y-115540000D03*
D11*
%TO.N,/LM3407-current-controller/LED-*%
X66000000Y-113000000D03*
%TD*%
%TO.N,/sheet61CCCCC4/LED-*%
%TO.C,J2*%
X66000000Y-126960000D03*
D10*
%TO.N,+12V*%
X66000000Y-129500000D03*
%TD*%
%TO.N,+12V*%
%TO.C,J3*%
X87000000Y-101500000D03*
D11*
%TO.N,/sheet61CCCDBA/LED-*%
X87000000Y-98960000D03*
%TD*%
%TO.N,/sheet61CCCDC0/LED-*%
%TO.C,J4*%
X87000000Y-112960000D03*
D10*
%TO.N,+12V*%
X87000000Y-115500000D03*
%TD*%
%TO.N,+12V*%
%TO.C,J5*%
X87000000Y-129500000D03*
D11*
%TO.N,/sheet61CCCFC4/LED-*%
X87000000Y-126960000D03*
%TD*%
%TO.N,/sheet61CCCFCA/LED-*%
%TO.C,J6*%
X87000000Y-140960000D03*
D10*
%TO.N,+12V*%
X87000000Y-143500000D03*
%TD*%
%TO.N,+12V*%
%TO.C,J7*%
X107000000Y-87000000D03*
D11*
%TO.N,/sheet61CCCFD0/LED-*%
X107000000Y-84460000D03*
%TD*%
%TO.N,/sheet61CCCFD6/LED-*%
%TO.C,J8*%
X107000000Y-98960000D03*
D10*
%TO.N,+12V*%
X107000000Y-101500000D03*
%TD*%
D11*
%TO.N,ENABLE*%
%TO.C,J9*%
X73240000Y-92400000D03*
D10*
%TO.N,GND*%
X70700000Y-92400000D03*
%TD*%
%TO.N,+12V*%
%TO.C,J10*%
X107000000Y-115500000D03*
D11*
%TO.N,/sheet61CCD8EC/LED-*%
X107000000Y-112960000D03*
%TD*%
%TO.N,/sheet61CCD8F2/LED-*%
%TO.C,J11*%
X107000000Y-126960000D03*
D10*
%TO.N,+12V*%
X107000000Y-129500000D03*
%TD*%
%TO.N,+12V*%
%TO.C,J12*%
X107000000Y-143500000D03*
D11*
%TO.N,/sheet61CCD8F8/LED-*%
X107000000Y-140960000D03*
%TD*%
%TO.N,/sheet61CCD8FE/LED-*%
%TO.C,J13*%
X107000000Y-154960000D03*
D10*
%TO.N,+12V*%
X107000000Y-157500000D03*
%TD*%
%TO.N,+12V*%
%TO.C,J14*%
X127000000Y-87000000D03*
D11*
%TO.N,/sheet61CCD904/LED-*%
X127000000Y-84460000D03*
%TD*%
D10*
%TO.N,+12V*%
%TO.C,J15*%
X127000000Y-101500000D03*
D11*
%TO.N,/sheet61CCD90A/LED-*%
X127000000Y-98960000D03*
%TD*%
D10*
%TO.N,+12V*%
%TO.C,J16*%
X127000000Y-115500000D03*
D11*
%TO.N,/sheet61CCD910/LED-*%
X127000000Y-112960000D03*
%TD*%
%TO.N,/sheet61CCD916/LED-*%
%TO.C,J17*%
X127000000Y-126960000D03*
D10*
%TO.N,+12V*%
X127000000Y-129500000D03*
%TD*%
%TO.N,+12V*%
%TO.C,J18*%
X127000000Y-143500000D03*
D11*
%TO.N,/sheet61CCE2A4/LED-*%
X127000000Y-140960000D03*
%TD*%
%TO.N,/sheet61CCE2AA/LED-*%
%TO.C,J19*%
X127000000Y-154960000D03*
D10*
%TO.N,+12V*%
X127000000Y-157500000D03*
%TD*%
%TO.N,+12V*%
%TO.C,J20*%
X147000000Y-101500000D03*
D11*
%TO.N,/sheet61CCE2B0/LED-*%
X147000000Y-98960000D03*
%TD*%
%TO.N,/sheet61CCE2B6/LED-*%
%TO.C,J21*%
X147000000Y-112960000D03*
D10*
%TO.N,+12V*%
X147000000Y-115500000D03*
%TD*%
%TO.N,+12V*%
%TO.C,J22*%
X147000000Y-129500000D03*
D11*
%TO.N,/sheet61CCE2BC/LED-*%
X147000000Y-126960000D03*
%TD*%
%TO.N,/sheet61CCE2C2/LED-*%
%TO.C,J23*%
X147000000Y-140960000D03*
D10*
%TO.N,+12V*%
X147000000Y-143500000D03*
%TD*%
%TO.N,+12V*%
%TO.C,J24*%
X167000000Y-115500000D03*
D11*
%TO.N,/sheet61CCE2C8/LED-*%
X167000000Y-112960000D03*
%TD*%
%TO.N,/sheet61CCE2CE/LED-*%
%TO.C,J25*%
X167000000Y-126960000D03*
D10*
%TO.N,+12V*%
X167000000Y-129500000D03*
%TD*%
D12*
%TO.N,GND*%
%TO.C,SW1*%
X65600000Y-89400000D03*
%TO.N,Net-(J26-Pad3)*%
X61100000Y-89400000D03*
%TO.N,GND*%
X65600000Y-82900000D03*
%TO.N,Net-(J26-Pad3)*%
X61100000Y-82900000D03*
%TD*%
%TO.N,Net-(J26-Pad4)*%
%TO.C,SW2*%
X61100000Y-93000000D03*
%TO.N,GND*%
X65600000Y-93000000D03*
%TO.N,Net-(J26-Pad4)*%
X61100000Y-99500000D03*
%TO.N,GND*%
X65600000Y-99500000D03*
%TD*%
D13*
%TO.N,GND*%
%TO.C,U1*%
X52234000Y-113350000D03*
X53334000Y-113350000D03*
X52234000Y-114650000D03*
X53334000Y-114650000D03*
%TD*%
%TO.N,GND*%
%TO.C,U2*%
X52450000Y-126850000D03*
X53550000Y-126850000D03*
X52450000Y-128150000D03*
X53550000Y-128150000D03*
%TD*%
%TO.N,GND*%
%TO.C,U3*%
X73050000Y-101150000D03*
X71950000Y-101150000D03*
X73050000Y-99850000D03*
X71950000Y-99850000D03*
%TD*%
%TO.N,GND*%
%TO.C,U4*%
X71950000Y-113350000D03*
X73050000Y-113350000D03*
X71950000Y-114650000D03*
X73050000Y-114650000D03*
%TD*%
%TO.N,GND*%
%TO.C,U5*%
X73050000Y-128150000D03*
X71950000Y-128150000D03*
X73050000Y-126850000D03*
X71950000Y-126850000D03*
%TD*%
%TO.N,GND*%
%TO.C,U6*%
X71950000Y-140850000D03*
X73050000Y-140850000D03*
X71950000Y-142150000D03*
X73050000Y-142150000D03*
%TD*%
%TO.N,GND*%
%TO.C,U7*%
X92450000Y-85850000D03*
X93550000Y-85850000D03*
X92450000Y-87150000D03*
X93550000Y-87150000D03*
%TD*%
%TO.N,GND*%
%TO.C,U8*%
X92450000Y-99850000D03*
X93550000Y-99850000D03*
X92450000Y-101150000D03*
X93550000Y-101150000D03*
%TD*%
%TO.N,GND*%
%TO.C,U9*%
X93550000Y-114650000D03*
X92450000Y-114650000D03*
X93550000Y-113350000D03*
X92450000Y-113350000D03*
%TD*%
%TO.N,GND*%
%TO.C,U10*%
X92450000Y-126850000D03*
X93550000Y-126850000D03*
X92450000Y-128150000D03*
X93550000Y-128150000D03*
%TD*%
%TO.N,GND*%
%TO.C,U11*%
X93550000Y-142110000D03*
X92450000Y-142110000D03*
X93550000Y-140810000D03*
X92450000Y-140810000D03*
%TD*%
%TO.N,GND*%
%TO.C,U12*%
X92450000Y-154850000D03*
X93550000Y-154850000D03*
X92450000Y-156150000D03*
X93550000Y-156150000D03*
%TD*%
%TO.N,GND*%
%TO.C,U13*%
X113550000Y-87150000D03*
X112450000Y-87150000D03*
X113550000Y-85850000D03*
X112450000Y-85850000D03*
%TD*%
%TO.N,GND*%
%TO.C,U14*%
X113550000Y-101150000D03*
X112450000Y-101150000D03*
X113550000Y-99850000D03*
X112450000Y-99850000D03*
%TD*%
%TO.N,GND*%
%TO.C,U15*%
X113550000Y-114650000D03*
X112450000Y-114650000D03*
X113550000Y-113350000D03*
X112450000Y-113350000D03*
%TD*%
%TO.N,GND*%
%TO.C,U16*%
X113550000Y-128150000D03*
X112450000Y-128150000D03*
X113550000Y-126850000D03*
X112450000Y-126850000D03*
%TD*%
%TO.N,GND*%
%TO.C,U17*%
X112450000Y-140850000D03*
X113550000Y-140850000D03*
X112450000Y-142150000D03*
X113550000Y-142150000D03*
%TD*%
%TO.N,GND*%
%TO.C,U18*%
X113550000Y-156150000D03*
X112450000Y-156150000D03*
X113550000Y-154850000D03*
X112450000Y-154850000D03*
%TD*%
%TO.N,GND*%
%TO.C,U19*%
X133550000Y-101150000D03*
X132450000Y-101150000D03*
X133550000Y-99850000D03*
X132450000Y-99850000D03*
%TD*%
%TO.N,GND*%
%TO.C,U20*%
X133550000Y-114650000D03*
X132450000Y-114650000D03*
X133550000Y-113350000D03*
X132450000Y-113350000D03*
%TD*%
%TO.N,GND*%
%TO.C,U21*%
X132450000Y-126850000D03*
X133550000Y-126850000D03*
X132450000Y-128150000D03*
X133550000Y-128150000D03*
%TD*%
%TO.N,GND*%
%TO.C,U22*%
X132450000Y-140850000D03*
X133550000Y-140850000D03*
X132450000Y-142150000D03*
X133550000Y-142150000D03*
%TD*%
%TO.N,GND*%
%TO.C,U23*%
X152450000Y-113350000D03*
X153550000Y-113350000D03*
X152450000Y-114650000D03*
X153550000Y-114650000D03*
%TD*%
%TO.N,GND*%
%TO.C,U24*%
X153550000Y-128150000D03*
X152450000Y-128150000D03*
X153550000Y-126850000D03*
X152450000Y-126850000D03*
%TD*%
D14*
%TO.N,+12V*%
%TO.C,H1*%
X164500000Y-147000000D03*
%TD*%
%TO.N,+12V*%
%TO.C,H2*%
X164500000Y-139000000D03*
%TD*%
%TO.N,+12V*%
%TO.C,H3*%
X164500000Y-155000000D03*
%TD*%
%TO.N,GND*%
%TO.C,H4*%
X164500000Y-84000000D03*
%TD*%
%TO.N,GND*%
%TO.C,H5*%
X164500000Y-100000000D03*
%TD*%
%TO.N,GND*%
%TO.C,H6*%
X164500000Y-92000000D03*
%TD*%
D10*
%TO.N,GND*%
%TO.C,J27*%
X85500000Y-92400000D03*
D11*
%TO.N,+5V*%
X85500000Y-89860000D03*
%TO.N,+12V*%
X85500000Y-87320000D03*
%TO.N,ENABLE*%
X85500000Y-84780000D03*
%TO.N,PWM*%
X85500000Y-82240000D03*
%TD*%
D10*
%TO.N,GND*%
%TO.C,J28*%
X50900000Y-101200000D03*
D11*
%TO.N,TX*%
X50900000Y-103740000D03*
%TO.N,RX*%
X50900000Y-106280000D03*
%TD*%
D15*
%TO.N,+12V*%
X61600000Y-149200000D03*
%TO.N,GND*%
X56600000Y-86800000D03*
X56400000Y-82900000D03*
%TO.N,+5V*%
X52500000Y-136800000D03*
X53900000Y-93000000D03*
X54694999Y-93005001D03*
X54750000Y-93850000D03*
X51850000Y-137450000D03*
%TO.N,ENABLE*%
X88200000Y-86800000D03*
X109000000Y-87000000D03*
X67600000Y-101000000D03*
X88800000Y-101000000D03*
X108883070Y-100976189D03*
X128631777Y-100640186D03*
X49000000Y-114600000D03*
X68050000Y-114513814D03*
X89000000Y-114300000D03*
X108949208Y-114359258D03*
X128800000Y-114600000D03*
X148900000Y-114500000D03*
X49100000Y-127900000D03*
X89000000Y-128000000D03*
X108900000Y-128300000D03*
X128700000Y-128000000D03*
X149100000Y-128100000D03*
X68049208Y-141559258D03*
X88450000Y-142093886D03*
X109183070Y-141976189D03*
X128906080Y-142119147D03*
X88800000Y-155700000D03*
X108959814Y-156068223D03*
X68150000Y-127807108D03*
%TO.N,PWM*%
X68600000Y-100200000D03*
X68800000Y-113600000D03*
X68900000Y-127100000D03*
X89200000Y-141100000D03*
X89500000Y-127100000D03*
X89200000Y-86200000D03*
X109300000Y-86000000D03*
X89400000Y-100100000D03*
X109100000Y-100000000D03*
X129400000Y-100000000D03*
X89300000Y-113000000D03*
X109600000Y-113600000D03*
X129300000Y-113600000D03*
X149300000Y-113500000D03*
X109200000Y-127100000D03*
X129300000Y-127200000D03*
X149300000Y-127000000D03*
X109400000Y-141000000D03*
X129300000Y-141200000D03*
X48900000Y-113300000D03*
X49100000Y-126200000D03*
X68700000Y-140800000D03*
X89000000Y-154700000D03*
X109238332Y-154361668D03*
X56037347Y-88262653D03*
%TD*%
D16*
%TO.N,ENABLE*%
X73240000Y-92400000D02*
X80740000Y-84900000D01*
X85380000Y-84900000D02*
X85500000Y-84780000D01*
X80740000Y-84900000D02*
X85380000Y-84900000D01*
X87520000Y-86800000D02*
X88200000Y-86800000D01*
X85500000Y-84780000D02*
X87520000Y-86800000D01*
X108549999Y-84233997D02*
X108549999Y-86549999D01*
X107576001Y-83259999D02*
X108549999Y-84233997D01*
X87020001Y-83259999D02*
X107576001Y-83259999D01*
X85500000Y-84780000D02*
X87020001Y-83259999D01*
X108549999Y-86549999D02*
X109000000Y-87000000D01*
X67600000Y-98040000D02*
X67600000Y-101000000D01*
X73240000Y-92400000D02*
X67600000Y-98040000D01*
X88649999Y-98833997D02*
X88649999Y-100849999D01*
X74440001Y-93600001D02*
X83416003Y-93600001D01*
X88649999Y-100849999D02*
X88800000Y-101000000D01*
X73240000Y-92400000D02*
X74440001Y-93600001D01*
X108349999Y-100443118D02*
X108883070Y-100976189D01*
X108349999Y-98533997D02*
X108349999Y-100443118D01*
X104408001Y-94591999D02*
X108349999Y-98533997D01*
X84408001Y-94591999D02*
X104408001Y-94591999D01*
X83416003Y-93600001D02*
X84408001Y-94591999D01*
X84408001Y-94591999D02*
X88649999Y-98833997D01*
X128649999Y-100621964D02*
X128631777Y-100640186D01*
X128649999Y-98833997D02*
X128649999Y-100621964D01*
X124408001Y-94591999D02*
X128649999Y-98833997D01*
X104408001Y-94591999D02*
X124408001Y-94591999D01*
X67600000Y-101000000D02*
X67600000Y-110400000D01*
X67600000Y-110400000D02*
X66800000Y-111200000D01*
X52400000Y-111200000D02*
X49000000Y-114600000D01*
X66800000Y-111200000D02*
X52400000Y-111200000D01*
X67600000Y-114063814D02*
X68050000Y-114513814D01*
X67600000Y-110400000D02*
X67600000Y-114063814D01*
X88200001Y-113500001D02*
X89000000Y-114300000D01*
X88200001Y-112383999D02*
X88200001Y-113500001D01*
X86216002Y-110400000D02*
X88200001Y-112383999D01*
X67600000Y-110400000D02*
X86216002Y-110400000D01*
X108200001Y-113610051D02*
X108949208Y-114359258D01*
X108200001Y-112383999D02*
X108200001Y-113610051D01*
X106216002Y-110400000D02*
X108200001Y-112383999D01*
X86216002Y-110400000D02*
X106216002Y-110400000D01*
X128200001Y-114000001D02*
X128800000Y-114600000D01*
X128200001Y-112383999D02*
X128200001Y-114000001D01*
X126216002Y-110400000D02*
X128200001Y-112383999D01*
X106216002Y-110400000D02*
X126216002Y-110400000D01*
X148200001Y-112383999D02*
X148200001Y-113800001D01*
X146216002Y-110400000D02*
X148200001Y-112383999D01*
X148200001Y-113800001D02*
X148900000Y-114500000D01*
X126216002Y-110400000D02*
X146216002Y-110400000D01*
X67600000Y-114063814D02*
X67600000Y-123000000D01*
X48600000Y-125589998D02*
X48600000Y-125600000D01*
X48739999Y-125449999D02*
X48600000Y-125589998D01*
X65150001Y-125449999D02*
X48739999Y-125449999D01*
X67600000Y-123000000D02*
X65150001Y-125449999D01*
X48349999Y-127149999D02*
X49100000Y-127900000D01*
X48349999Y-125839999D02*
X48349999Y-127149999D01*
X48600000Y-125589998D02*
X48349999Y-125839999D01*
X68500000Y-123000000D02*
X71100000Y-125600000D01*
X67600000Y-123000000D02*
X68500000Y-123000000D01*
X88749999Y-127749999D02*
X89000000Y-128000000D01*
X88749999Y-126933997D02*
X88749999Y-127749999D01*
X87416002Y-125600000D02*
X88749999Y-126933997D01*
X71100000Y-125600000D02*
X87416002Y-125600000D01*
X108200001Y-127600001D02*
X108900000Y-128300000D01*
X108200001Y-126383999D02*
X108200001Y-127600001D01*
X107416002Y-125600000D02*
X108200001Y-126383999D01*
X87416002Y-125600000D02*
X107416002Y-125600000D01*
X128200001Y-127500001D02*
X128700000Y-128000000D01*
X128200001Y-126383999D02*
X128200001Y-127500001D01*
X127416002Y-125600000D02*
X128200001Y-126383999D01*
X148200001Y-127200001D02*
X149100000Y-128100000D01*
X148200001Y-126383999D02*
X148200001Y-127200001D01*
X147416002Y-125600000D02*
X148200001Y-126383999D01*
X127200000Y-125600000D02*
X147416002Y-125600000D01*
X107416002Y-125600000D02*
X127200000Y-125600000D01*
X127200000Y-125600000D02*
X127416002Y-125600000D01*
X67600000Y-141110050D02*
X68049208Y-141559258D01*
X67600000Y-137100000D02*
X67600000Y-137300000D01*
X67600000Y-137100000D02*
X67600000Y-141110050D01*
X67600000Y-137300000D02*
X69400000Y-139100000D01*
X88450000Y-140633998D02*
X88450000Y-142093886D01*
X86916002Y-139100000D02*
X88450000Y-140633998D01*
X108200001Y-140993120D02*
X109183070Y-141976189D01*
X108200001Y-140383999D02*
X108200001Y-140993120D01*
X106916002Y-139100000D02*
X108200001Y-140383999D01*
X86916002Y-139100000D02*
X106916002Y-139100000D01*
X128200001Y-141413068D02*
X128906080Y-142119147D01*
X128200001Y-140383999D02*
X128200001Y-141413068D01*
X126916002Y-139100000D02*
X128200001Y-140383999D01*
X106916002Y-139100000D02*
X126916002Y-139100000D01*
X69400000Y-139100000D02*
X86916002Y-139100000D01*
X88249999Y-155149999D02*
X88800000Y-155700000D01*
X88450000Y-142093886D02*
X88249999Y-142293887D01*
X108849999Y-155958408D02*
X108959814Y-156068223D01*
X108849999Y-155033997D02*
X108849999Y-155958408D01*
X106566001Y-152749999D02*
X108849999Y-155033997D01*
X88249999Y-152749999D02*
X106566001Y-152749999D01*
X88249999Y-142293887D02*
X88249999Y-152749999D01*
X88249999Y-152749999D02*
X88249999Y-155149999D01*
X67600000Y-127257108D02*
X68150000Y-127807108D01*
X67600000Y-126600000D02*
X67600000Y-127257108D01*
X67600000Y-123000000D02*
X67600000Y-126600000D01*
X67600000Y-126600000D02*
X67600000Y-137100000D01*
%TD*%
M02*
