%TF.GenerationSoftware,KiCad,Pcbnew,5.1.10-88a1d61d58~88~ubuntu20.04.1*%
%TF.CreationDate,2021-05-09T11:48:46+02:00*%
%TF.ProjectId,poti_hack,706f7469-5f68-4616-936b-2e6b69636164,rev?*%
%TF.SameCoordinates,Original*%
%TF.FileFunction,Legend,Bot*%
%TF.FilePolarity,Positive*%
%FSLAX46Y46*%
G04 Gerber Fmt 4.6, Leading zero omitted, Abs format (unit mm)*
G04 Created by KiCad (PCBNEW 5.1.10-88a1d61d58~88~ubuntu20.04.1) date 2021-05-09 11:48:46*
%MOMM*%
%LPD*%
G01*
G04 APERTURE LIST*
%ADD10C,0.150000*%
%ADD11C,0.120000*%
G04 APERTURE END LIST*
D10*
X146785714Y-139195238D02*
X146928571Y-139147619D01*
X147166666Y-139147619D01*
X147261904Y-139195238D01*
X147309523Y-139242857D01*
X147357142Y-139338095D01*
X147357142Y-139433333D01*
X147309523Y-139528571D01*
X147261904Y-139576190D01*
X147166666Y-139623809D01*
X146976190Y-139671428D01*
X146880952Y-139719047D01*
X146833333Y-139766666D01*
X146785714Y-139861904D01*
X146785714Y-139957142D01*
X146833333Y-140052380D01*
X146880952Y-140100000D01*
X146976190Y-140147619D01*
X147214285Y-140147619D01*
X147357142Y-140100000D01*
X147785714Y-139147619D02*
X147785714Y-140147619D01*
X148023809Y-140147619D01*
X148166666Y-140100000D01*
X148261904Y-140004761D01*
X148309523Y-139909523D01*
X148357142Y-139719047D01*
X148357142Y-139576190D01*
X148309523Y-139385714D01*
X148261904Y-139290476D01*
X148166666Y-139195238D01*
X148023809Y-139147619D01*
X147785714Y-139147619D01*
X148738095Y-139433333D02*
X149214285Y-139433333D01*
X148642857Y-139147619D02*
X148976190Y-140147619D01*
X149309523Y-139147619D01*
X146709523Y-136695238D02*
X146852380Y-136647619D01*
X147090476Y-136647619D01*
X147185714Y-136695238D01*
X147233333Y-136742857D01*
X147280952Y-136838095D01*
X147280952Y-136933333D01*
X147233333Y-137028571D01*
X147185714Y-137076190D01*
X147090476Y-137123809D01*
X146900000Y-137171428D01*
X146804761Y-137219047D01*
X146757142Y-137266666D01*
X146709523Y-137361904D01*
X146709523Y-137457142D01*
X146757142Y-137552380D01*
X146804761Y-137600000D01*
X146900000Y-137647619D01*
X147138095Y-137647619D01*
X147280952Y-137600000D01*
X148280952Y-136742857D02*
X148233333Y-136695238D01*
X148090476Y-136647619D01*
X147995238Y-136647619D01*
X147852380Y-136695238D01*
X147757142Y-136790476D01*
X147709523Y-136885714D01*
X147661904Y-137076190D01*
X147661904Y-137219047D01*
X147709523Y-137409523D01*
X147757142Y-137504761D01*
X147852380Y-137600000D01*
X147995238Y-137647619D01*
X148090476Y-137647619D01*
X148233333Y-137600000D01*
X148280952Y-137552380D01*
X149185714Y-136647619D02*
X148709523Y-136647619D01*
X148709523Y-137647619D01*
X146523809Y-135047619D02*
X147142857Y-135047619D01*
X146809523Y-134666666D01*
X146952380Y-134666666D01*
X147047619Y-134619047D01*
X147095238Y-134571428D01*
X147142857Y-134476190D01*
X147142857Y-134238095D01*
X147095238Y-134142857D01*
X147047619Y-134095238D01*
X146952380Y-134047619D01*
X146666666Y-134047619D01*
X146571428Y-134095238D01*
X146523809Y-134142857D01*
X147571428Y-134142857D02*
X147619047Y-134095238D01*
X147571428Y-134047619D01*
X147523809Y-134095238D01*
X147571428Y-134142857D01*
X147571428Y-134047619D01*
X147952380Y-135047619D02*
X148571428Y-135047619D01*
X148238095Y-134666666D01*
X148380952Y-134666666D01*
X148476190Y-134619047D01*
X148523809Y-134571428D01*
X148571428Y-134476190D01*
X148571428Y-134238095D01*
X148523809Y-134142857D01*
X148476190Y-134095238D01*
X148380952Y-134047619D01*
X148095238Y-134047619D01*
X148000000Y-134095238D01*
X147952380Y-134142857D01*
X148857142Y-135047619D02*
X149190476Y-134047619D01*
X149523809Y-135047619D01*
X147238095Y-132500000D02*
X147142857Y-132547619D01*
X147000000Y-132547619D01*
X146857142Y-132500000D01*
X146761904Y-132404761D01*
X146714285Y-132309523D01*
X146666666Y-132119047D01*
X146666666Y-131976190D01*
X146714285Y-131785714D01*
X146761904Y-131690476D01*
X146857142Y-131595238D01*
X147000000Y-131547619D01*
X147095238Y-131547619D01*
X147238095Y-131595238D01*
X147285714Y-131642857D01*
X147285714Y-131976190D01*
X147095238Y-131976190D01*
X147714285Y-131547619D02*
X147714285Y-132547619D01*
X148285714Y-131547619D01*
X148285714Y-132547619D01*
X148761904Y-131547619D02*
X148761904Y-132547619D01*
X149000000Y-132547619D01*
X149142857Y-132500000D01*
X149238095Y-132404761D01*
X149285714Y-132309523D01*
X149333333Y-132119047D01*
X149333333Y-131976190D01*
X149285714Y-131785714D01*
X149238095Y-131690476D01*
X149142857Y-131595238D01*
X149000000Y-131547619D01*
X148761904Y-131547619D01*
D11*
%TO.C,J2*%
X155230000Y-140910000D02*
X152570000Y-140910000D01*
X155230000Y-135770000D02*
X155230000Y-140910000D01*
X152570000Y-135770000D02*
X152570000Y-140910000D01*
X155230000Y-135770000D02*
X152570000Y-135770000D01*
X155230000Y-134500000D02*
X155230000Y-133170000D01*
X155230000Y-133170000D02*
X153900000Y-133170000D01*
%TD*%
M02*
