%TF.GenerationSoftware,KiCad,Pcbnew,5.1.10-88a1d61d58~88~ubuntu20.04.1*%
%TF.CreationDate,2021-05-09T11:48:46+02:00*%
%TF.ProjectId,poti_hack,706f7469-5f68-4616-936b-2e6b69636164,rev?*%
%TF.SameCoordinates,Original*%
%TF.FileFunction,Copper,L2,Bot*%
%TF.FilePolarity,Positive*%
%FSLAX46Y46*%
G04 Gerber Fmt 4.6, Leading zero omitted, Abs format (unit mm)*
G04 Created by KiCad (PCBNEW 5.1.10-88a1d61d58~88~ubuntu20.04.1) date 2021-05-09 11:48:46*
%MOMM*%
%LPD*%
G01*
G04 APERTURE LIST*
%TA.AperFunction,ComponentPad*%
%ADD10R,1.700000X1.700000*%
%TD*%
%TA.AperFunction,ComponentPad*%
%ADD11O,1.700000X1.700000*%
%TD*%
%TA.AperFunction,ViaPad*%
%ADD12C,0.800000*%
%TD*%
%TA.AperFunction,Conductor*%
%ADD13C,0.250000*%
%TD*%
%TA.AperFunction,Conductor*%
%ADD14C,0.254000*%
%TD*%
%TA.AperFunction,Conductor*%
%ADD15C,0.100000*%
%TD*%
G04 APERTURE END LIST*
D10*
%TO.P,J1,1*%
%TO.N,GND*%
X145400000Y-132000000D03*
D11*
%TO.P,J1,2*%
%TO.N,+3V3*%
X145400000Y-134540000D03*
%TO.P,J1,3*%
%TO.N,Net-(J1-Pad3)*%
X145400000Y-137080000D03*
%TO.P,J1,4*%
%TO.N,Net-(J1-Pad4)*%
X145400000Y-139620000D03*
%TD*%
D10*
%TO.P,J2,1*%
%TO.N,GND*%
X153900000Y-134500000D03*
D11*
%TO.P,J2,2*%
%TO.N,Net-(J2-Pad2)*%
X153900000Y-137040000D03*
%TO.P,J2,3*%
%TO.N,Net-(J2-Pad3)*%
X153900000Y-139580000D03*
%TD*%
D12*
%TO.N,+3V3*%
X151100000Y-139600000D03*
X152100000Y-134100000D03*
%TO.N,GND*%
X149000000Y-133400000D03*
%TD*%
D13*
%TO.N,+3V3*%
X152100000Y-138600000D02*
X152100000Y-134100000D01*
X151100000Y-139600000D02*
X152100000Y-138600000D01*
%TD*%
D14*
%TO.N,GND*%
X155240000Y-133246112D02*
X155201185Y-133198815D01*
X155104494Y-133119463D01*
X154994180Y-133060498D01*
X154874482Y-133024188D01*
X154750000Y-133011928D01*
X154185750Y-133015000D01*
X154027000Y-133173750D01*
X154027000Y-134373000D01*
X154047000Y-134373000D01*
X154047000Y-134627000D01*
X154027000Y-134627000D01*
X154027000Y-134647000D01*
X153773000Y-134647000D01*
X153773000Y-134627000D01*
X153753000Y-134627000D01*
X153753000Y-134373000D01*
X153773000Y-134373000D01*
X153773000Y-133173750D01*
X153614250Y-133015000D01*
X153050000Y-133011928D01*
X152925518Y-133024188D01*
X152805820Y-133060498D01*
X152695506Y-133119463D01*
X152605734Y-133193137D01*
X152590256Y-133182795D01*
X152401898Y-133104774D01*
X152201939Y-133065000D01*
X151998061Y-133065000D01*
X151798102Y-133104774D01*
X151609744Y-133182795D01*
X151440226Y-133296063D01*
X151296063Y-133440226D01*
X151182795Y-133609744D01*
X151104774Y-133798102D01*
X151065000Y-133998061D01*
X151065000Y-134201939D01*
X151104774Y-134401898D01*
X151182795Y-134590256D01*
X151296063Y-134759774D01*
X151340001Y-134803712D01*
X151340000Y-138285198D01*
X151060199Y-138565000D01*
X150998061Y-138565000D01*
X150798102Y-138604774D01*
X150609744Y-138682795D01*
X150440226Y-138796063D01*
X150296063Y-138940226D01*
X150182795Y-139109744D01*
X150104774Y-139298102D01*
X150065000Y-139498061D01*
X150065000Y-139701939D01*
X150104774Y-139901898D01*
X150182795Y-140090256D01*
X150296063Y-140259774D01*
X150440226Y-140403937D01*
X150609744Y-140517205D01*
X150798102Y-140595226D01*
X150998061Y-140635000D01*
X151201939Y-140635000D01*
X151401898Y-140595226D01*
X151590256Y-140517205D01*
X151759774Y-140403937D01*
X151903937Y-140259774D01*
X152017205Y-140090256D01*
X152095226Y-139901898D01*
X152135000Y-139701939D01*
X152135000Y-139639801D01*
X152433359Y-139341443D01*
X152415000Y-139433740D01*
X152415000Y-139726260D01*
X152472068Y-140013158D01*
X152584010Y-140283411D01*
X152746525Y-140526632D01*
X152953368Y-140733475D01*
X153196589Y-140895990D01*
X153302839Y-140940000D01*
X146093730Y-140940000D01*
X146103411Y-140935990D01*
X146346632Y-140773475D01*
X146553475Y-140566632D01*
X146715990Y-140323411D01*
X146827932Y-140053158D01*
X146885000Y-139766260D01*
X146885000Y-139473740D01*
X146827932Y-139186842D01*
X146715990Y-138916589D01*
X146553475Y-138673368D01*
X146346632Y-138466525D01*
X146172240Y-138350000D01*
X146346632Y-138233475D01*
X146553475Y-138026632D01*
X146715990Y-137783411D01*
X146827932Y-137513158D01*
X146885000Y-137226260D01*
X146885000Y-136933740D01*
X146827932Y-136646842D01*
X146715990Y-136376589D01*
X146553475Y-136133368D01*
X146346632Y-135926525D01*
X146172240Y-135810000D01*
X146346632Y-135693475D01*
X146553475Y-135486632D01*
X146715990Y-135243411D01*
X146827932Y-134973158D01*
X146885000Y-134686260D01*
X146885000Y-134393740D01*
X146827932Y-134106842D01*
X146715990Y-133836589D01*
X146553475Y-133593368D01*
X146421620Y-133461513D01*
X146494180Y-133439502D01*
X146604494Y-133380537D01*
X146701185Y-133301185D01*
X146780537Y-133204494D01*
X146839502Y-133094180D01*
X146875812Y-132974482D01*
X146888072Y-132850000D01*
X146885000Y-132285750D01*
X146726250Y-132127000D01*
X145527000Y-132127000D01*
X145527000Y-132147000D01*
X145273000Y-132147000D01*
X145273000Y-132127000D01*
X145253000Y-132127000D01*
X145253000Y-131873000D01*
X145273000Y-131873000D01*
X145273000Y-131853000D01*
X145527000Y-131853000D01*
X145527000Y-131873000D01*
X146726250Y-131873000D01*
X146885000Y-131714250D01*
X146888072Y-131150000D01*
X146875812Y-131025518D01*
X146839502Y-130905820D01*
X146780537Y-130795506D01*
X146701185Y-130698815D01*
X146653889Y-130660000D01*
X155240000Y-130660000D01*
X155240000Y-133246112D01*
%TA.AperFunction,Conductor*%
D15*
G36*
X155240000Y-133246112D02*
G01*
X155201185Y-133198815D01*
X155104494Y-133119463D01*
X154994180Y-133060498D01*
X154874482Y-133024188D01*
X154750000Y-133011928D01*
X154185750Y-133015000D01*
X154027000Y-133173750D01*
X154027000Y-134373000D01*
X154047000Y-134373000D01*
X154047000Y-134627000D01*
X154027000Y-134627000D01*
X154027000Y-134647000D01*
X153773000Y-134647000D01*
X153773000Y-134627000D01*
X153753000Y-134627000D01*
X153753000Y-134373000D01*
X153773000Y-134373000D01*
X153773000Y-133173750D01*
X153614250Y-133015000D01*
X153050000Y-133011928D01*
X152925518Y-133024188D01*
X152805820Y-133060498D01*
X152695506Y-133119463D01*
X152605734Y-133193137D01*
X152590256Y-133182795D01*
X152401898Y-133104774D01*
X152201939Y-133065000D01*
X151998061Y-133065000D01*
X151798102Y-133104774D01*
X151609744Y-133182795D01*
X151440226Y-133296063D01*
X151296063Y-133440226D01*
X151182795Y-133609744D01*
X151104774Y-133798102D01*
X151065000Y-133998061D01*
X151065000Y-134201939D01*
X151104774Y-134401898D01*
X151182795Y-134590256D01*
X151296063Y-134759774D01*
X151340001Y-134803712D01*
X151340000Y-138285198D01*
X151060199Y-138565000D01*
X150998061Y-138565000D01*
X150798102Y-138604774D01*
X150609744Y-138682795D01*
X150440226Y-138796063D01*
X150296063Y-138940226D01*
X150182795Y-139109744D01*
X150104774Y-139298102D01*
X150065000Y-139498061D01*
X150065000Y-139701939D01*
X150104774Y-139901898D01*
X150182795Y-140090256D01*
X150296063Y-140259774D01*
X150440226Y-140403937D01*
X150609744Y-140517205D01*
X150798102Y-140595226D01*
X150998061Y-140635000D01*
X151201939Y-140635000D01*
X151401898Y-140595226D01*
X151590256Y-140517205D01*
X151759774Y-140403937D01*
X151903937Y-140259774D01*
X152017205Y-140090256D01*
X152095226Y-139901898D01*
X152135000Y-139701939D01*
X152135000Y-139639801D01*
X152433359Y-139341443D01*
X152415000Y-139433740D01*
X152415000Y-139726260D01*
X152472068Y-140013158D01*
X152584010Y-140283411D01*
X152746525Y-140526632D01*
X152953368Y-140733475D01*
X153196589Y-140895990D01*
X153302839Y-140940000D01*
X146093730Y-140940000D01*
X146103411Y-140935990D01*
X146346632Y-140773475D01*
X146553475Y-140566632D01*
X146715990Y-140323411D01*
X146827932Y-140053158D01*
X146885000Y-139766260D01*
X146885000Y-139473740D01*
X146827932Y-139186842D01*
X146715990Y-138916589D01*
X146553475Y-138673368D01*
X146346632Y-138466525D01*
X146172240Y-138350000D01*
X146346632Y-138233475D01*
X146553475Y-138026632D01*
X146715990Y-137783411D01*
X146827932Y-137513158D01*
X146885000Y-137226260D01*
X146885000Y-136933740D01*
X146827932Y-136646842D01*
X146715990Y-136376589D01*
X146553475Y-136133368D01*
X146346632Y-135926525D01*
X146172240Y-135810000D01*
X146346632Y-135693475D01*
X146553475Y-135486632D01*
X146715990Y-135243411D01*
X146827932Y-134973158D01*
X146885000Y-134686260D01*
X146885000Y-134393740D01*
X146827932Y-134106842D01*
X146715990Y-133836589D01*
X146553475Y-133593368D01*
X146421620Y-133461513D01*
X146494180Y-133439502D01*
X146604494Y-133380537D01*
X146701185Y-133301185D01*
X146780537Y-133204494D01*
X146839502Y-133094180D01*
X146875812Y-132974482D01*
X146888072Y-132850000D01*
X146885000Y-132285750D01*
X146726250Y-132127000D01*
X145527000Y-132127000D01*
X145527000Y-132147000D01*
X145273000Y-132147000D01*
X145273000Y-132127000D01*
X145253000Y-132127000D01*
X145253000Y-131873000D01*
X145273000Y-131873000D01*
X145273000Y-131853000D01*
X145527000Y-131853000D01*
X145527000Y-131873000D01*
X146726250Y-131873000D01*
X146885000Y-131714250D01*
X146888072Y-131150000D01*
X146875812Y-131025518D01*
X146839502Y-130905820D01*
X146780537Y-130795506D01*
X146701185Y-130698815D01*
X146653889Y-130660000D01*
X155240000Y-130660000D01*
X155240000Y-133246112D01*
G37*
%TD.AperFunction*%
%TD*%
M02*
