%TF.GenerationSoftware,KiCad,Pcbnew,5.1.10-88a1d61d58~88~ubuntu20.04.1*%
%TF.CreationDate,2021-05-09T11:48:46+02:00*%
%TF.ProjectId,poti_hack,706f7469-5f68-4616-936b-2e6b69636164,rev?*%
%TF.SameCoordinates,Original*%
%TF.FileFunction,Soldermask,Top*%
%TF.FilePolarity,Negative*%
%FSLAX46Y46*%
G04 Gerber Fmt 4.6, Leading zero omitted, Abs format (unit mm)*
G04 Created by KiCad (PCBNEW 5.1.10-88a1d61d58~88~ubuntu20.04.1) date 2021-05-09 11:48:46*
%MOMM*%
%LPD*%
G01*
G04 APERTURE LIST*
%ADD10R,1.700000X1.700000*%
%ADD11O,1.700000X1.700000*%
%ADD12R,0.400000X0.650000*%
G04 APERTURE END LIST*
%TO.C,C1*%
G36*
G01*
X151435000Y-133045000D02*
X151435000Y-133355000D01*
G75*
G02*
X151280000Y-133510000I-155000J0D01*
G01*
X150855000Y-133510000D01*
G75*
G02*
X150700000Y-133355000I0J155000D01*
G01*
X150700000Y-133045000D01*
G75*
G02*
X150855000Y-132890000I155000J0D01*
G01*
X151280000Y-132890000D01*
G75*
G02*
X151435000Y-133045000I0J-155000D01*
G01*
G37*
G36*
G01*
X150300000Y-133045000D02*
X150300000Y-133355000D01*
G75*
G02*
X150145000Y-133510000I-155000J0D01*
G01*
X149720000Y-133510000D01*
G75*
G02*
X149565000Y-133355000I0J155000D01*
G01*
X149565000Y-133045000D01*
G75*
G02*
X149720000Y-132890000I155000J0D01*
G01*
X150145000Y-132890000D01*
G75*
G02*
X150300000Y-133045000I0J-155000D01*
G01*
G37*
%TD*%
D10*
%TO.C,J1*%
X145400000Y-132000000D03*
D11*
X145400000Y-134540000D03*
X145400000Y-137080000D03*
X145400000Y-139620000D03*
%TD*%
D10*
%TO.C,J2*%
X153900000Y-134500000D03*
D11*
X153900000Y-137040000D03*
X153900000Y-139580000D03*
%TD*%
%TO.C,R1*%
G36*
G01*
X150260000Y-138240000D02*
X150260000Y-138560000D01*
G75*
G02*
X150100000Y-138720000I-160000J0D01*
G01*
X149705000Y-138720000D01*
G75*
G02*
X149545000Y-138560000I0J160000D01*
G01*
X149545000Y-138240000D01*
G75*
G02*
X149705000Y-138080000I160000J0D01*
G01*
X150100000Y-138080000D01*
G75*
G02*
X150260000Y-138240000I0J-160000D01*
G01*
G37*
G36*
G01*
X151455000Y-138240000D02*
X151455000Y-138560000D01*
G75*
G02*
X151295000Y-138720000I-160000J0D01*
G01*
X150900000Y-138720000D01*
G75*
G02*
X150740000Y-138560000I0J160000D01*
G01*
X150740000Y-138240000D01*
G75*
G02*
X150900000Y-138080000I160000J0D01*
G01*
X151295000Y-138080000D01*
G75*
G02*
X151455000Y-138240000I0J-160000D01*
G01*
G37*
%TD*%
%TO.C,R2*%
G36*
G01*
X147840000Y-132845000D02*
X148160000Y-132845000D01*
G75*
G02*
X148320000Y-133005000I0J-160000D01*
G01*
X148320000Y-133400000D01*
G75*
G02*
X148160000Y-133560000I-160000J0D01*
G01*
X147840000Y-133560000D01*
G75*
G02*
X147680000Y-133400000I0J160000D01*
G01*
X147680000Y-133005000D01*
G75*
G02*
X147840000Y-132845000I160000J0D01*
G01*
G37*
G36*
G01*
X147840000Y-134040000D02*
X148160000Y-134040000D01*
G75*
G02*
X148320000Y-134200000I0J-160000D01*
G01*
X148320000Y-134595000D01*
G75*
G02*
X148160000Y-134755000I-160000J0D01*
G01*
X147840000Y-134755000D01*
G75*
G02*
X147680000Y-134595000I0J160000D01*
G01*
X147680000Y-134200000D01*
G75*
G02*
X147840000Y-134040000I160000J0D01*
G01*
G37*
%TD*%
D12*
%TO.C,U1*%
X150850000Y-134750000D03*
X149550000Y-134750000D03*
X150200000Y-136650000D03*
X150200000Y-134750000D03*
X149550000Y-136650000D03*
X150850000Y-136650000D03*
%TD*%
M02*
